<?xml version="1.0" encoding="UTF-8"?>
<svg id="Layer_2" data-name="Layer 2" xmlns="http://www.w3.org/2000/svg" viewBox="0 0 24 24">
  <defs>
    <style>
      .cls-1 {
        fill: #fff;
      }

      .cls-2 {
        fill: none;
      }
    </style>
  </defs>
  <g id="Layer_1-2" data-name="Layer 1">
    <g id="vuesax_bold_clock" data-name="vuesax bold clock">
      <g id="clock">
        <path id="Vector" class="cls-1" d="M12,2C6.48,2,2,6.48,2,12s4.48,10,10,10,10-4.48,10-10c0-5.52-4.48-9.99-10-10Zm4.35,13.57c-.13,.23-.38,.37-.65,.37-.13,0-.27-.04-.38-.11l-3.1-1.85c-.8-.52-1.3-1.4-1.34-2.36V7.52c0-.41,.34-.75,.75-.75s.75,.34,.75,.75v4.1c.04,.43,.26,.82,.61,1.07l3.1,1.85c.35,.2,.48,.66,.27,1.01,0,0,0,.01-.01,.02Z"/>
        <path id="Vector-2" class="cls-2" d="M24,24H0V0H24V24Z"/>
      </g>
    </g>
  </g>
</svg>