<?xml version="1.0" encoding="UTF-8"?>
<svg id="Layer_2" data-name="Layer 2" xmlns="http://www.w3.org/2000/svg" viewBox="0 0 755.01 716.66">
  <defs>
    <style>
      .cls-1 {
        fill: #f07951;
      }

      .cls-2 {
        fill: #fff;
      }

      .cls-3 {
        fill: #e0e7f1;
      }

      .cls-4 {
        fill: #202a45;
      }

      .cls-5 {
        fill: #dcd7dd;
      }

      .cls-6 {
        fill: #4b68c4;
      }

      .cls-7 {
        fill: #101920;
      }

      .cls-8 {
        fill: #475d75;
      }

      .cls-9 {
        fill: #ffbe9d;
      }

      .cls-10 {
        fill: #7594b3;
      }

      .cls-11 {
        fill: #2c2c2c;
      }

      .cls-12 {
        fill: #2a3799;
      }

      .cls-13 {
        fill: #4b63c1;
      }

      .cls-14 {
        fill: #6288a8;
      }

      .cls-15 {
        fill: #fcfcfc;
      }
    </style>
  </defs>
  <g id="Layer_1-2" data-name="Layer 1">
    <g id="icn_add_new_survey" data-name="icn add new survey">
      <g id="Group_208" data-name="Group 208">
        <circle id="Ellipse_3" data-name="Ellipse 3" class="cls-2" cx="518.99" cy="204.87" r="204.87"/>
        <g id="Group_207" data-name="Group 207">
          <ellipse id="Ellipse_4" data-name="Ellipse 4" class="cls-5" cx="554.07" cy="706.36" rx="62.84" ry="10.3"/>
          <ellipse id="Ellipse_7" data-name="Ellipse 7" class="cls-5" cx="667.75" cy="670.26" rx="87.25" ry="14.3"/>
          <path id="Path_234" data-name="Path 234" class="cls-5" d="M119.85,670.73c0,5.43-26.83,9.82-59.93,9.82s-59.92-4.4-59.92-9.82,26.83-9.82,59.92-9.82,59.93,4.4,59.93,9.82Z"/>
          <g id="Group_138" data-name="Group 138">
            <path id="Path_154" data-name="Path 154" class="cls-9" d="M615.42,258.88l-.7-25.36,5.73-.05,3.23,25.41h-8.27Z"/>
            <path id="Path_155" data-name="Path 155" class="cls-7" d="M663.56,352.78l7.51,54.53c.64,4.62,2.38,9.02,5.08,12.83l29.84,42.03-4.41,23.15h-6.89c-.76,0-1.38-.62-1.38-1.38,0-.43,.2-.84,.55-1.1l2.17-1.63c.72-.54,1.17-1.36,1.24-2.26l1-13.47-33.45-29.6c-4.18-3.69-7.36-8.38-9.27-13.62l-12.01-57.62,20.03-11.86Z"/>
            <path id="Path_156" data-name="Path 156" class="cls-1" d="M640.96,294.56c.11,.43,.21,11.15,.21,11.15l8.47,2.57-.21-13.84-8.47,.11Z"/>
            <path id="Path_157" data-name="Path 157" class="cls-9" d="M608.73,269.15l-10.14,3.6-8.64-36.32,4.68-2.11,14.1,34.82Z"/>
            <path id="Path_158" data-name="Path 158" class="cls-10" d="M623.78,253.78l4.33,23.02,12.28,32.12-14.33,4.41-9.75-35.94-1.38-23.41,8.85-.19Z"/>
            <path id="Path_159" data-name="Path 159" class="cls-7" d="M649.17,357.02l-.87,67.97,2.33,62.26h-22.11c-1.16,0-2.15-.84-2.34-1.98h0c-.22-1.29,.66-2.51,1.95-2.73,0,0,.01,0,.02,0l13.6-2.13-12.52-49.13c-.85-3.33-1.35-6.73-1.5-10.16l-2.76-64.39,24.2,.29Z"/>
            <path id="Path_160" data-name="Path 160" class="cls-1" d="M702.26,456.93l-4,8.55-3.85-3.41,4.96-9.22,2.9,4.08Z"/>
            <path id="Path_161" data-name="Path 161" class="cls-10" d="M649.73,307.72l.57-6.02-9.92-2.62-1.84,3.33,11.2,5.32Z"/>
            <path id="Path_162" data-name="Path 162" class="cls-8" d="M599.6,259.42l5.32-1.42c3.14,9.07,8.2,16.11,15.09,22.8l14.57,15.18,14.34,9.68c2.2,1.49,3.79,3.72,4.48,6.28l12.11,44.93h0c-11.87,7.05-26.19,8.68-39.34,4.5l-1.9-.61-1.36-53.9-15.49-15.14c-6.3-7.87-10.38-21.17-12.23-31.08l4.42-1.24Z"/>
            <circle id="Ellipse_5" data-name="Ellipse 5" class="cls-9" cx="617.61" cy="234.01" r="6.09"/>
            <circle id="Ellipse_6" data-name="Ellipse 6" class="cls-9" cx="649.11" cy="284.87" r="14.22"/>
            <path id="Path_163" data-name="Path 163" class="cls-1" d="M640.65,476.11l9.52-1.01,.18,4.85-8.61,.46-1.1-4.3Z"/>
            <rect id="Rectangle_49" data-name="Rectangle 49" class="cls-15" x="567.16" y="151.25" width="76.02" height="76.02"/>
            <path id="Path_164" data-name="Path 164" class="cls-10" d="M591.47,259.01l13.78-4.59,2.3,5.17-13.49,4.3-2.59-4.88Z"/>
            <path id="Path_165" data-name="Path 165" class="cls-10" d="M612.71,252.41h12.92l-.29,3.44-13.2,.29,.57-3.73Z"/>
            <g id="Group_137" data-name="Group 137">
              <path id="Path_166" data-name="Path 166" class="cls-4" d="M646.6,230.69h-82.86v-82.86h82.86v82.86Zm-79.44-3.42h76.02v-76.02h-76.02v76.02h0Z"/>
              <g id="Group_136" data-name="Group 136">
                <path id="Path_167" data-name="Path 167" class="cls-10" d="M654.1,140.41l-46.93,47.65-13.92-12.28-10.7,12.14,25.38,22.38,57.68-58.52-11.51-11.38Z"/>
              </g>
            </g>
            <path id="Path_168" data-name="Path 168" class="cls-9" d="M585.69,232.86c0,3.37,2.73,6.09,6.09,6.1,3.37,0,6.09-2.73,6.1-6.09,0-3.37-2.73-6.09-6.09-6.1h0c-3.36,0-6.09,2.73-6.09,6.09Z"/>
            <path id="Path_169" data-name="Path 169" class="cls-11" d="M663.17,292.87c1.36-1.15,2.51-2.53,3.41-4.07,.92-2.06,1.23-4.34,.89-6.57-.14-2.11-.86-4.15-2.08-5.88-2.51-3.24-7.21-4.1-9.81-7.27-1.02-1.25-1.66-2.8-2.78-3.96-2.43-2.51-6.42-2.58-8.93-.15-1.93,1.87-2.47,4.75-1.34,7.19,1.87-.2,3.75-.05,5.57,.42,1.96,.25,3.83,.97,5.44,2.1,1.95,1.61,2.74,4.25,2.95,6.77,.16,.88-.01,1.78-.48,2.54-.64,.83-1.8,1-2.77,1.41-1.03,.43-1.9,1.17-2.5,2.12-.28,.36-.39,.82-.3,1.27,.33,.63,1.09,.9,1.74,.63,.65-.2,1.2-.66,1.83-.91,1.85-.57,3.81,.48,4.37,2.32,.02,.08,.05,.16,.07,.25,.3,1.99-.83,3.92-2.7,4.64-1.88,.65-3.96,.25-5.46-1.05-.52,1.41-.88,2.89-1.06,4.38,1.96,.04,3.92-.07,5.87-.32,1.71-.11,3.36-.69,4.77-1.67,.67-.6,1.26-1.28,1.76-2.04,.45-.76,.97-1.48,1.55-2.14Z"/>
          </g>
          <g id="Group_144" data-name="Group 144">
            <path id="Path_170" data-name="Path 170" class="cls-8" d="M36.49,191.27h0c49.01-57.54,121.43-52.37,161.76,11.55h0c-49.01,57.54-121.43,52.37-161.76-11.55Z"/>
            <g id="Group_139" data-name="Group 139">
              <rect id="Rectangle_50" data-name="Rectangle 50" class="cls-2" x="117.33" y="124.51" width="1.05" height="146.46" transform="translate(-87.96 300.84) rotate(-85.81)"/>
            </g>
            <g id="Group_140" data-name="Group 140">
              <rect id="Rectangle_51" data-name="Rectangle 51" class="cls-2" x="69.82" y="208.94" width="37.58" height="1.05" transform="translate(-117.26 112.8) rotate(-41.92)"/>
            </g>
            <g id="Group_141" data-name="Group 141">
              <rect id="Rectangle_52" data-name="Rectangle 52" class="cls-2" x="106.16" y="156.05" width="1.05" height="50.15" transform="translate(-98.2 134.09) rotate(-46.57)"/>
            </g>
            <g id="Group_142" data-name="Group 142">
              <rect id="Rectangle_53" data-name="Rectangle 53" class="cls-2" x="163.85" y="160.93" width="1.05" height="49.85" transform="translate(-83.73 183.74) rotate(-48.02)"/>
            </g>
            <g id="Group_143" data-name="Group 143">
              <rect id="Rectangle_54" data-name="Rectangle 54" class="cls-2" x="115.84" y="216.09" width="45.86" height="1.05" transform="translate(-109.52 149.29) rotate(-42.18)"/>
            </g>
          </g>
          <g id="Group_150" data-name="Group 150">
            <path id="Path_171" data-name="Path 171" class="cls-8" d="M540.43,243.92h0c2.79,59.23-41.46,95.11-98.84,80.13h0c-2.79-59.23,41.46-95.11,98.84-80.13Z"/>
            <g id="Group_145" data-name="Group 145">
              <rect id="Rectangle_55" data-name="Rectangle 55" class="cls-2" x="432.87" y="283.44" width="115" height=".82" transform="translate(-69.42 371.42) rotate(-38.95)"/>
            </g>
            <g id="Group_146" data-name="Group 146">
              <rect id="Rectangle_56" data-name="Rectangle 56" class="cls-2" x="486.08" y="261.04" width="29.48" height=".82" transform="translate(196.78 737.62) rotate(-85.01)"/>
            </g>
            <g id="Group_147" data-name="Group 147">
              <rect id="Rectangle_57" data-name="Rectangle 57" class="cls-2" x="505.26" y="267.7" width=".82" height="39.35" transform="translate(215.55 791.47) rotate(-89.69)"/>
            </g>
            <g id="Group_148" data-name="Group 148">
              <rect id="Rectangle_58" data-name="Rectangle 58" class="cls-2" x="450.54" y="315.19" width="39.11" height=".82" transform="translate(-6.17 9.39) rotate(-1.14)"/>
            </g>
            <g id="Group_149" data-name="Group 149">
              <rect id="Rectangle_59" data-name="Rectangle 59" class="cls-2" x="450.26" y="283.83" width="35.99" height=".82" transform="translate(146.59 727.63) rotate(-85.3)"/>
            </g>
          </g>
          <g id="Group_156" data-name="Group 156">
            <path id="Path_172" data-name="Path 172" class="cls-10" d="M123.42,93.84h0c55.14,15.39,74.63,66.83,43.51,114.89h0c-55.14-15.39-74.63-66.83-43.51-114.89Z"/>
            <g id="Group_151" data-name="Group 151">
              <rect id="Rectangle_60" data-name="Rectangle 60" class="cls-2" x="144.48" y="96.36" width=".79" height="110.98" transform="translate(-44.26 60.87) rotate(-20.66)"/>
            </g>
            <g id="Group_152" data-name="Group 152">
              <rect id="Rectangle_61" data-name="Rectangle 61" class="cls-2" x="127.1" y="121.22" width=".8" height="28.48" transform="translate(-47.3 199.1) rotate(-66.74)"/>
            </g>
            <g id="Group_153" data-name="Group 153">
              <rect id="Rectangle_62" data-name="Rectangle 62" class="cls-2" x="133.72" y="138.47" width="38" height=".8" transform="translate(-27.6 239.33) rotate(-71.4)"/>
            </g>
            <g id="Group_154" data-name="Group 154">
              <rect id="Rectangle_63" data-name="Rectangle 63" class="cls-2" x="148.94" y="179.63" width="37.78" height=".8" transform="translate(-53.68 287.31) rotate(-72.85)"/>
            </g>
            <g id="Group_155" data-name="Group 155">
              <rect id="Rectangle_64" data-name="Rectangle 64" class="cls-2" x="138.13" y="154.85" width=".8" height="34.74" transform="translate(-74.12 232.47) rotate(-67.01)"/>
            </g>
          </g>
          <g id="Group_157" data-name="Group 157">
            <path id="Path_173" data-name="Path 173" class="cls-10" d="M528.6,47.28l18.59,38.54,23.78,29.52-6.83,4.37-24.6-25.97-24.17-32.17,13.24-14.3Z"/>
            <path id="Path_174" data-name="Path 174" class="cls-9" d="M525.84,45.18l10.95,2.82-2.63,7.01-12.25-2.66,3.93-7.17Z"/>
            <path id="Path_175" data-name="Path 175" class="cls-7" d="M460.06,35.64l-9.57,18.12-7.96,33.88-28.09,54.75,11.38,1.53,25.61-35.38c2.45-3.39,4.38-7.12,5.74-11.07l13.17-38.48-10.28-23.34Z"/>
            <path id="Path_176" data-name="Path 176" d="M467.67,65.38l-7.82,25.12-10.03-33.91,.67-2.84,6.15-11.66,1.36-.38s3.82,10.12,4.74,12.28c.43,1,2.63,6.07,4.92,11.39Z"/>
            <path id="Path_177" data-name="Path 177" class="cls-8" d="M534.74,88.22l29.37,42.46-5.82,.94-35.64-30.6-8.05-42.41s-1.08-13.06,4.85-12.65,9.23,7.4,9.23,7.4l6.07,34.86Z"/>
            <path id="Path_178" data-name="Path 178" class="cls-8" d="M530.48,45.46c-27.61-10.93-58.14-12.51-58.14-12.51l-12.11,29.45,65.99,5.21,4.25-22.15Z"/>
            <path id="Path_179" data-name="Path 179" class="cls-7" d="M472.35,32.95l-4.06,.2c-10.68,.52-18.91,9.59-18.4,20.26,.01,.23,.03,.46,.05,.7l19.88,35.12c1.7,3.01,2.52,6.44,2.35,9.9l-2.14,45.21,11.23-.76,7.24-43.74c.76-4.39,.51-8.9-.72-13.19l-15.44-53.7Z"/>
            <path id="Path_180" data-name="Path 180" class="cls-9" d="M561.7,118.76c.47,3.61,3.78,6.17,7.39,5.7,3.61-.47,6.17-3.78,5.7-7.39-.45-3.5-3.58-6.02-7.09-5.73-3.71,.39-6.39,3.72-6,7.43Z"/>
            <path id="Path_181" data-name="Path 181" class="cls-9" d="M534.05,58.66c4,6.22,12.06,8.17,18.01,4.35,5.94-3.82,7.51-11.97,3.51-18.19-4-6.22-12.07-8.17-18.01-4.35-5.94,3.82-7.51,11.97-3.51,18.19Z"/>
            <path id="Path_182" data-name="Path 182" class="cls-9" d="M554.13,132.5c.47,3.62,3.78,6.17,7.39,5.7,3.62-.47,6.17-3.78,5.7-7.39-.45-3.5-3.58-6.02-7.09-5.73-3.71,.39-6.39,3.72-6,7.42Z"/>
            <path id="Path_183" data-name="Path 183" d="M470.58,142.66l-.56,5.17,23.71-.33s.88-3.23,0-3.52c-.86-.29-17.79-1.76-17.79-1.76l-5.36,.44Z"/>
            <path id="Path_184" data-name="Path 184" d="M415.17,142.66l-.56,5.17,23.71-.33s.88-3.23,0-3.52c-.86-.29-17.79-1.76-17.79-1.76l-5.36,.44Z"/>
            <path id="Path_185" data-name="Path 185" class="cls-11" d="M558.25,62.37c1.53-.21,2.85-1.17,3.53-2.56,.65-1.38,.99-2.88,.99-4.4,.07-.78,0-1.57-.2-2.33-.43-1.37-1.59-2.38-2.28-3.64-.35-.72-.64-1.47-.85-2.24-.77-2.77-1.93-5.41-3.45-7.85-.46-.74-1.04-1.4-1.72-1.95-1.02-.69-2.15-1.2-3.35-1.5-1.87-.98-4.14-.82-5.85,.42l-7.32,4.21c1.19,.59,2.56,.72,3.83,.34,1.27-.38,2.62-.39,3.89-.03,1.63,.67,2.4,2.53,1.73,4.16-.27,.65-.74,1.19-1.35,1.54,1.67-.17,3.35-.09,4.99,.24,1.66,.34,3.12,1.3,4.09,2.69,.69,1.26,1.06,2.67,1.09,4.1,.13,1.09,.11,2.19-.06,3.27-.18,.96-.7,1.84-.87,2.8-.3,1.67,1.63,2.86,3.14,2.74Z"/>
          </g>
          <g id="Group_177" data-name="Group 177">
            <rect id="Rectangle_65" data-name="Rectangle 65" class="cls-11" x="126.86" y="147.73" width="371.14" height="494.29"/>
            <rect id="Rectangle_66" data-name="Rectangle 66" class="cls-15" x="143.73" y="164.6" width="337.4" height="460.55"/>
            <path id="Path_186" data-name="Path 186" class="cls-8" d="M216.87,161.79c.21,11.73,9.77,21.13,21.5,21.13h148.12c11.73,0,21.29-9.4,21.5-21.13H216.87Z"/>
            <path id="Path_187" data-name="Path 187" class="cls-10" d="M403.4,134.37c-1.58-6.84-7.67-11.68-14.68-11.68h-49.41c.09-14.84-11.87-26.95-26.71-27.04-14.84-.09-26.95,11.87-27.04,26.71,0,.11,0,.22,0,.33h-49.41c-7.02,0-13.1,4.84-14.68,11.68l-4.04,17.47c-2.68,11.57,4.53,23.12,16.1,25.79,1.59,.37,3.21,.55,4.85,.55h148.12c11.87,0,21.5-9.63,21.5-21.5,0-1.63-.19-3.26-.55-4.84l-4.04-17.47Zm-88.44,1c-7,1.4-13.81-3.14-15.21-10.15-1.4-7,3.14-13.81,10.15-15.21,7-1.4,13.81,3.14,15.21,10.15,.33,1.67,.33,3.39,0,5.06-1.02,5.12-5.03,9.12-10.15,10.15Z"/>
            <g id="Group_176" data-name="Group 176">
              <g id="Group_162" data-name="Group 162">
                <path id="Path_188" data-name="Path 188" class="cls-4" d="M220.99,279.23h-53.65v-53.65h53.65v53.65Zm-51.44-2.21h49.22v-49.23h-49.22v49.22h0Z"/>
                <g id="Group_158" data-name="Group 158">
                  <path id="Path_189" data-name="Path 189" class="cls-10" d="M225.85,220.77l-30.39,30.85-9.02-7.95-6.93,7.86,16.43,14.49,37.35-37.89-7.46-7.37Z"/>
                </g>
                <g id="Group_159" data-name="Group 159">
                  <rect id="Rectangle_67" data-name="Rectangle 67" class="cls-11" x="248.28" y="233.06" width="209.23" height="3.37"/>
                </g>
                <g id="Group_160" data-name="Group 160">
                  <rect id="Rectangle_68" data-name="Rectangle 68" class="cls-11" x="248.28" y="246.58" width="209.23" height="3.37"/>
                </g>
                <g id="Group_161" data-name="Group 161">
                  <rect id="Rectangle_69" data-name="Rectangle 69" class="cls-11" x="248.28" y="260.09" width="112.77" height="3.37"/>
                </g>
              </g>
              <g id="Group_167" data-name="Group 167">
                <path id="Path_190" data-name="Path 190" class="cls-4" d="M220.99,368.64h-53.65v-53.65h53.65v53.65Zm-51.44-2.21h49.22v-49.23h-49.22v49.22h0Z"/>
                <g id="Group_163" data-name="Group 163">
                  <path id="Path_191" data-name="Path 191" class="cls-10" d="M225.85,310.18l-30.39,30.85-9.02-7.95-6.93,7.86,16.43,14.49,37.35-37.89-7.46-7.36Z"/>
                </g>
                <g id="Group_164" data-name="Group 164">
                  <rect id="Rectangle_70" data-name="Rectangle 70" class="cls-11" x="248.28" y="322.47" width="209.23" height="3.37"/>
                </g>
                <g id="Group_165" data-name="Group 165">
                  <rect id="Rectangle_71" data-name="Rectangle 71" class="cls-11" x="248.28" y="335.99" width="209.23" height="3.37"/>
                </g>
                <g id="Group_166" data-name="Group 166">
                  <rect id="Rectangle_72" data-name="Rectangle 72" class="cls-11" x="248.28" y="349.5" width="112.77" height="3.37"/>
                </g>
              </g>
              <g id="Group_171" data-name="Group 171">
                <path id="Path_192" data-name="Path 192" class="cls-4" d="M220.99,458.05h-53.65v-53.65h53.65v53.65Zm-51.44-2.21h49.22v-49.22h-49.22v49.23h0Z"/>
                <g id="Group_168" data-name="Group 168">
                  <rect id="Rectangle_73" data-name="Rectangle 73" class="cls-11" x="248.28" y="411.88" width="209.23" height="3.37"/>
                </g>
                <g id="Group_169" data-name="Group 169">
                  <rect id="Rectangle_74" data-name="Rectangle 74" class="cls-11" x="248.28" y="425.4" width="209.23" height="3.37"/>
                </g>
                <g id="Group_170" data-name="Group 170">
                  <rect id="Rectangle_75" data-name="Rectangle 75" class="cls-11" x="248.28" y="438.91" width="112.77" height="3.37"/>
                </g>
              </g>
              <g id="Group_175" data-name="Group 175">
                <path id="Path_193" data-name="Path 193" class="cls-4" d="M220.99,547.46h-53.65v-53.65h53.65v53.65Zm-51.44-2.21h49.22v-49.22h-49.22v49.23h0Z"/>
                <g id="Group_172" data-name="Group 172">
                  <rect id="Rectangle_76" data-name="Rectangle 76" class="cls-11" x="248.28" y="501.3" width="209.23" height="3.37"/>
                </g>
                <g id="Group_173" data-name="Group 173">
                  <rect id="Rectangle_77" data-name="Rectangle 77" class="cls-11" x="248.28" y="514.81" width="209.23" height="3.37"/>
                </g>
                <g id="Group_174" data-name="Group 174">
                  <rect id="Rectangle_78" data-name="Rectangle 78" class="cls-11" x="248.28" y="528.32" width="112.77" height="3.37"/>
                </g>
              </g>
            </g>
          </g>
          <g id="Group_197" data-name="Group 197">
            <g id="Group_186" data-name="Group 186">
              <g id="Group_178" data-name="Group 178">
                <rect id="Rectangle_79" data-name="Rectangle 79" class="cls-4" x="710.44" y="488.78" width="2.25" height="182.09" transform="translate(-85.44 124.52) rotate(-9.44)"/>
              </g>
              <g id="Group_179" data-name="Group 179">
                <rect id="Rectangle_80" data-name="Rectangle 80" class="cls-4" x="655.62" y="488.78" width="2.25" height="182.09" transform="translate(-86.19 115.54) rotate(-9.44)"/>
              </g>
              <g id="Group_180" data-name="Group 180">
                <rect id="Rectangle_81" data-name="Rectangle 81" class="cls-4" x="648.18" y="527.07" width="55.31" height="2.25"/>
              </g>
              <g id="Group_181" data-name="Group 181">
                <rect id="Rectangle_82" data-name="Rectangle 82" class="cls-4" x="652.09" y="551.05" width="55.31" height="2.25"/>
              </g>
              <g id="Group_182" data-name="Group 182">
                <rect id="Rectangle_83" data-name="Rectangle 83" class="cls-4" x="656.01" y="575.03" width="55.31" height="2.25"/>
              </g>
              <g id="Group_183" data-name="Group 183">
                <rect id="Rectangle_84" data-name="Rectangle 84" class="cls-4" x="659.92" y="599.01" width="55.31" height="2.25"/>
              </g>
              <g id="Group_184" data-name="Group 184">
                <rect id="Rectangle_85" data-name="Rectangle 85" class="cls-4" x="663.84" y="623" width="55.31" height="2.25"/>
              </g>
              <g id="Group_185" data-name="Group 185">
                <rect id="Rectangle_86" data-name="Rectangle 86" class="cls-4" x="667.75" y="646.98" width="55.31" height="2.25"/>
              </g>
            </g>
            <g id="Group_195" data-name="Group 195">
              <g id="Group_187" data-name="Group 187">
                <rect id="Rectangle_87" data-name="Rectangle 87" class="cls-10" x="526.35" y="578.7" width="182.09" height="2.25" transform="translate(-55.84 1093.76) rotate(-80.56)"/>
              </g>
              <g id="Group_188" data-name="Group 188">
                <rect id="Rectangle_88" data-name="Rectangle 88" class="cls-10" x="581.17" y="578.7" width="182.09" height="2.25" transform="translate(-10.03 1147.82) rotate(-80.56)"/>
              </g>
              <g id="Group_189" data-name="Group 189">
                <rect id="Rectangle_89" data-name="Rectangle 89" class="cls-10" x="625.47" y="527.07" width="55.31" height="2.25"/>
              </g>
              <g id="Group_190" data-name="Group 190">
                <rect id="Rectangle_90" data-name="Rectangle 90" class="cls-10" x="621.56" y="551.05" width="55.31" height="2.25"/>
              </g>
              <g id="Group_191" data-name="Group 191">
                <rect id="Rectangle_91" data-name="Rectangle 91" class="cls-10" x="617.64" y="575.03" width="55.31" height="2.25"/>
              </g>
              <g id="Group_192" data-name="Group 192">
                <rect id="Rectangle_92" data-name="Rectangle 92" class="cls-10" x="613.73" y="599.01" width="55.31" height="2.25"/>
              </g>
              <g id="Group_193" data-name="Group 193">
                <rect id="Rectangle_93" data-name="Rectangle 93" class="cls-10" x="609.81" y="623" width="55.31" height="2.25"/>
              </g>
              <g id="Group_194" data-name="Group 194">
                <rect id="Rectangle_94" data-name="Rectangle 94" class="cls-10" x="605.9" y="646.98" width="55.31" height="2.25"/>
              </g>
            </g>
            <g id="Group_196" data-name="Group 196">
              <rect id="Rectangle_95" data-name="Rectangle 95" class="cls-4" x="627.85" y="487.22" width="77.28" height="6.74"/>
            </g>
          </g>
          <g id="Group_198" data-name="Group 198">
            <rect id="Rectangle_96" data-name="Rectangle 96" class="cls-11" x="70.31" y="640.71" width="528.77" height="1.97"/>
          </g>
          <g id="Group_203" data-name="Group 203">
            <g id="Group_199" data-name="Group 199">
              <path id="Path_194" data-name="Path 194" class="cls-1" d="M545.61,696.13l.1,5.49-5.55,.29-1.17-6.13,6.61,.35Z"/>
              <path id="Path_195" data-name="Path 195" class="cls-12" d="M542.75,701.74c.26-.82-.2-1.69-1.01-1.94-.33-.11-.69-.09-1.02,.03-.55,.29-1.02,.71-1.38,1.22-1.13,1.16-2.48,2.1-3.96,2.77-1.47,.74-3.09,1.52-3.78,3.02-.41,.9,.55,1.92,1.49,2.22,3.49,1.12,7.09-1.54,10.36-3.19,.53-.23,1.01-.54,1.45-.92,1.18-1.15,1.12-3.05,.94-4.69-.02-.2-.36-.25-.55-.2-.19,.06-.36,.17-.5,.31-.62,.53-1.43,.84-2.04,1.37Z"/>
              <path id="Path_196" data-name="Path 196" class="cls-1" d="M556.85,695.94l-.1,5.49,5.55,.29,1.17-6.13-6.61,.35Z"/>
              <path id="Path_197" data-name="Path 197" class="cls-12" d="M559.71,701.55c-.26-.81,.19-1.69,1.01-1.94,.34-.11,.7-.1,1.03,.03,.55,.29,1.02,.71,1.37,1.22,1.13,1.16,2.48,2.1,3.96,2.77,1.47,.74,3.09,1.52,3.78,3.02,.41,.9-.55,1.92-1.49,2.22-3.49,1.12-7.08-1.55-10.36-3.19-.53-.23-1.01-.54-1.45-.92-1.18-1.15-1.12-3.05-.94-4.69,.02-.2,.36-.25,.55-.2,.19,.06,.36,.17,.5,.31,.62,.53,1.43,.84,2.04,1.37Z"/>
              <path id="Path_198" data-name="Path 198" class="cls-3" d="M527.19,579.22l-6.76-69.52-7.24-20.75c-2.72-7.79-3.85-16.04-3.32-24.28l1.87-29.31,6.76-.97,5.49,32.56,9.96,37.92,24.14,1.93,12.42-28.87c1.09-2.54,2.02-5.14,2.77-7.8l9.9-34.78,6.76,.97-2.35,36.37c-.22,3.44-1.06,6.82-2.48,9.96l-13.51,29.94,.97,64.69-45.38,1.93Z"/>
              <path id="Path_199" data-name="Path 199" class="cls-6" d="M572.46,626.33l-6.59,69.8h-9.13l-.65-65.87-3.86-50.14-6.59,.28-1.85,47.58,1.81,68.14h-9.68l-8.98-69.14-1.04-60.97,46.5,.61,.05,59.71Z"/>
              <path id="Path_200" data-name="Path 200" class="cls-1" d="M521.13,430.89c0,3.64-2.95,6.58-6.58,6.59-3.64,0-6.58-2.95-6.59-6.58,0-3.64,2.95-6.59,6.58-6.59h0c3.64,0,6.58,2.95,6.58,6.58Z"/>
              <path id="Path_201" data-name="Path 201" class="cls-1" d="M594.54,431.81c0,3.73-3.02,6.74-6.75,6.74-3.73,0-6.74-3.02-6.74-6.75,0-3.73,3.02-6.74,6.75-6.74h0c3.73,0,6.74,3.02,6.74,6.75Z"/>
              <path id="Path_202" data-name="Path 202" class="cls-1" d="M560.1,485.68c0,7.33-5.94,13.27-13.27,13.27s-13.27-5.94-13.27-13.27,5.94-13.27,13.27-13.27c7.33,0,13.27,5.94,13.27,13.27Z"/>
              <path id="Path_203" data-name="Path 203" class="cls-13" d="M560.21,475.97c-2.56-2.38-5.4-4.44-8.46-6.12-3.08-1.69-6.55-2.52-10.06-2.4-1.52,0-2.99,.51-4.19,1.45-.68,.65-1.2,1.44-1.53,2.31-.85,2.05-.97,4.63,.48,6.31,1.93-1.59,4.28-2.59,6.77-2.88,1.29-.17,2.6,0,3.8,.48,1.5,.79,2.74,2.01,3.54,3.5,1.33,2.18,2.25,4.59,2.7,7.1,.06,.55,.21,1.09,.45,1.6,.25,.51,.76,.84,1.33,.84,.4-.03,.76-.29,1.16-.31,.7,.05,1.26,.59,1.32,1.29,.04,.68-.09,1.36-.38,1.97-.49,1.33-.99,2.67-1.48,4.01,2.83-2.14,4.83-5.19,5.65-8.64,.8-3.42,1.53-8.18-1.1-10.51Z"/>
            </g>
            <g id="Group_201" data-name="Group 201">
              <rect id="Rectangle_97" data-name="Rectangle 97" class="cls-15" x="514.12" y="348.51" width="76.02" height="76.02"/>
              <path id="Path_204" data-name="Path 204" class="cls-4" d="M593.56,427.96h-82.86v-82.86h82.86v82.86Zm-79.44-3.42h76.02v-76.03h-76.02v76.03Z"/>
              <g id="Group_200" data-name="Group 200">
                <path id="Path_205" data-name="Path 205" class="cls-10" d="M601.06,337.67l-46.93,47.65-13.92-12.28-10.7,12.14,25.38,22.38,57.68-58.52-11.51-11.37Z"/>
              </g>
            </g>
            <g id="Group_202" data-name="Group 202">
              <path id="Path_206" data-name="Path 206" class="cls-10" d="M527.19,579.22l-6.76-69.52-7.24-20.75c-2.72-7.79-3.85-16.04-3.32-24.28l1.87-29.31,6.76-.97,5.49,32.56,9.96,37.92,24.14,1.93,12.42-28.87c1.09-2.54,2.02-5.14,2.77-7.8l9.9-34.78,6.76,.97-2.35,36.37c-.22,3.44-1.06,6.82-2.48,9.96l-13.51,29.94,.97,64.69-45.38,1.93Z"/>
              <path id="Path_207" data-name="Path 207" class="cls-9" d="M521.13,430.89c0,3.64-2.95,6.58-6.58,6.59-3.64,0-6.58-2.95-6.59-6.58,0-3.64,2.95-6.59,6.58-6.59h0c3.64,0,6.58,2.95,6.58,6.58Z"/>
              <path id="Path_209" data-name="Path 209" class="cls-9" d="M560.1,485.68c0,7.33-5.94,13.27-13.27,13.27s-13.27-5.94-13.27-13.27,5.94-13.27,13.27-13.27c7.33,0,13.27,5.94,13.27,13.27Z"/>
              <path id="Path_210" data-name="Path 210" class="cls-11" d="M560.21,475.97c-2.56-2.38-5.4-4.44-8.46-6.12-3.08-1.69-6.55-2.52-10.06-2.4-1.52,0-2.99,.51-4.19,1.45-.68,.65-1.2,1.44-1.53,2.31-.85,2.05-.97,4.63,.48,6.31,1.93-1.59,4.28-2.59,6.77-2.88,1.29-.17,2.6,0,3.8,.48,1.5,.79,2.74,2.01,3.54,3.5,1.33,2.18,2.25,4.59,2.7,7.1,.06,.55,.21,1.09,.45,1.6,.25,.51,.76,.84,1.33,.84,.4-.03,.76-.29,1.16-.31,.7,.05,1.26,.59,1.32,1.29,.04,.68-.09,1.36-.38,1.97-.49,1.33-.99,2.67-1.48,4.01,2.83-2.14,4.83-5.19,5.65-8.64,.8-3.42,1.53-8.18-1.1-10.51Z"/>
              <path id="Path_211" data-name="Path 211" class="cls-9" d="M541.74,493.59v14c-.05,2.15,1.66,3.94,3.81,3.99,2.15,.05,3.94-1.66,3.99-3.81h0l.52-15.14-8.32,.96Z"/>
              <path id="Path_212" data-name="Path 212" class="cls-14" d="M587.59,472.69l2.35-36.37-1.16-.17c-2.78,4.97-3.75,15.03-4.62,17.53-3.37,9.64-7.99,18.94-9.68,29.1-.81,4.85-.94,9.89-2.77,14.46-1.69,4.21-4.71,7.75-6.71,11.82-2.04,4.14-2.55,32.47-3.72,35.4-2.36,5.93-15.73,10.75-17.11,14.58-2.18,6.04,1.36,13.07,6.81,16.47,1.82,1.11,3.8,1.93,5.87,2.44l15.72-.67-.97-64.69,13.5-29.94c1.42-3.15,2.26-6.52,2.49-9.96Z"/>
              <path id="Path_213" data-name="Path 213" class="cls-1" d="M545.61,696.13l.1,5.49-5.55,.29-1.17-6.13,6.61,.35Z"/>
              <path id="Path_214" data-name="Path 214" class="cls-7" d="M542.75,701.74c.26-.82-.2-1.69-1.01-1.94-.33-.11-.69-.09-1.02,.03-.55,.29-1.02,.71-1.38,1.22-1.13,1.16-2.48,2.1-3.96,2.77-1.47,.74-3.09,1.52-3.78,3.02-.41,.9,.55,1.92,1.49,2.22,3.49,1.12,7.09-1.54,10.36-3.19,.53-.23,1.01-.54,1.45-.92,1.18-1.15,1.12-3.05,.94-4.69-.02-.2-.36-.25-.55-.2-.19,.06-.36,.17-.5,.31-.62,.53-1.43,.84-2.04,1.37Z"/>
              <path id="Path_215" data-name="Path 215" class="cls-1" d="M556.85,695.94l-.1,5.49,5.55,.29,1.17-6.13-6.61,.35Z"/>
              <path id="Path_216" data-name="Path 216" class="cls-7" d="M559.71,701.55c-.26-.81,.19-1.69,1.01-1.94,.34-.11,.7-.1,1.03,.03,.55,.29,1.02,.71,1.37,1.22,1.13,1.16,2.48,2.1,3.96,2.77,1.47,.74,3.09,1.52,3.78,3.02,.41,.9-.55,1.92-1.49,2.22-3.49,1.12-7.08-1.55-10.36-3.19-.53-.23-1.01-.54-1.45-.92-1.18-1.15-1.12-3.05-.94-4.69,.02-.2,.36-.25,.55-.2,.19,.06,.36,.17,.5,.31,.62,.53,1.43,.84,2.04,1.37Z"/>
              <path id="Path_217" data-name="Path 217" class="cls-7" d="M572.46,626.33l-6.59,69.8h-9.13l-.65-65.87-3.86-50.14-6.59,.28-1.85,47.58,1.81,68.14h-9.68l-8.98-69.14-1.04-60.97,46.5,.61,.05,59.71Z"/>
              <path id="Path_208" data-name="Path 208" class="cls-9" d="M594.54,431.81c0,3.73-3.02,6.74-6.75,6.74-3.73,0-6.74-3.02-6.74-6.75,0-3.73,3.02-6.74,6.75-6.74h0c3.73,0,6.74,3.02,6.74,6.75Z"/>
            </g>
          </g>
          <g id="Group_204" data-name="Group 204">
            <path id="Path_218" data-name="Path 218" class="cls-11" d="M37.13,443.75c-2.23-.39-4.51,.24-6.24,1.7-2.57,1.98-4.34,5.35-3.5,8.48,.66,2.01,2.02,3.72,3.83,4.82,.92,.65,1.96,1.11,3.05,1.35,2.91,.55,5.8-1.13,7.95-3.17,1.69-1.6,5.71-5.21,3.25-7.49-1.2-1.11-2.67-2.03-3.96-3.06-1.25-1.19-2.75-2.08-4.39-2.63Z"/>
            <path id="Path_219" data-name="Path 219" class="cls-10" d="M30.39,556.39l2.73-37.76-4.22-27.79-14.34-81.9,6.93-.99,15.83,72.24,24.74,1.98,25.73-73.23,6.93,.99-18.8,78.18-6.6,29.88,.78,36.42-39.7,1.98Z"/>
            <path id="Path_220" data-name="Path 220" class="cls-9" d="M29.44,444.28l-8.2,2.87-6.69-38.21,6.93-.99,7.96,36.32Z"/>
            <path id="Path_221" data-name="Path 221" class="cls-9" d="M77.16,439.18l9.6,3.79,7.95-33.04-6.93-.99-10.62,30.24Z"/>
            <path id="Path_222" data-name="Path 222" class="cls-9" d="M45.06,480.81l7.1,12.61,3.58-11.76-10.68-.85Z"/>
            <path id="Path_223" data-name="Path 223" class="cls-9" d="M97.81,404.99c0,3.28-2.66,5.94-5.94,5.94s-5.94-2.66-5.94-5.94c0-3.28,2.66-5.94,5.94-5.94h0c3.28,0,5.94,2.66,5.94,5.94Z"/>
            <path id="Path_224" data-name="Path 224" class="cls-9" d="M23.27,406.1c0,3.28-2.66,5.94-5.94,5.94s-5.94-2.66-5.94-5.94c0-3.28,2.66-5.94,5.94-5.94h0c3.28,0,5.94,2.66,5.94,5.94h0Z"/>
            <path id="Path_225" data-name="Path 225" class="cls-9" d="M63.39,462.71c0,7.14-5.79,12.93-12.93,12.93s-12.93-5.79-12.93-12.93c0-7.14,5.79-12.93,12.93-12.93h0c7.14,0,12.93,5.79,12.93,12.93Z"/>
            <path id="Path_226" data-name="Path 226" class="cls-9" d="M46.64,481.24v-8.93h7.01v10.34l-3.33,2.45-3.68-3.86Z"/>
            <path id="Path_227" data-name="Path 227" class="cls-11" d="M51.52,448.12c.12,0,.24,0,.36-.02,1.47-.24,2.9-.66,4.25-1.27,2.06-.72,5.63-1.42,6.03,1.75,.27,2.18-2.1,3.19-3.61,4.15-1.62-.54-3.32-.76-5.02-.65-2.29-.11-4.57,.26-6.7,1.09-2.16,.87-3.72,2.78-4.17,5.06-.08,1.1,0,2.2,.22,3.28,.23,1.08,.23,2.19,0,3.27-.29,1.06-1.39,5.32-2.47,5.53-.85,.13-1.72-.13-2.36-.71-.63-.58-1.11-1.29-1.42-2.08-1.19-2.7-1.75-5.63-1.63-8.58,.31-6.53,5.85-11.56,12.38-11.25,.32,.02,.64,.04,.96,.09,1.05,.21,2.12,.32,3.19,.35Z"/>
            <path id="Path_228" data-name="Path 228" class="cls-9" d="M48.39,463.76c0,2.55-2.07,4.61-4.62,4.61-2.55,0-4.61-2.07-4.61-4.62,0-2.54,2.07-4.61,4.61-4.61,2.55,0,4.61,2.06,4.62,4.61h0Z"/>
            <path id="Path_229" data-name="Path 229" class="cls-8" d="M56.29,499.76c-4.76,1.77-10.12,2.89-14.85,1.03-1.56-.77-3.16-1.47-4.79-2.08-1.81-.36-3.67,.29-4.86,1.69-.55,.87-.89,1.85-1,2.87l2.33,15.36-.37,5.05c4.95,2.5,10.81,2.71,16.41,2.8l11.11,.19c1.7,.18,3.42-.1,4.97-.8,1.69-.96,2.62-2.84,3.4-4.63,.25-.57,.46-1.15,.7-1.73l-.03-1.52,4.24-19.19c-5.17,3.37-11.75,3.73-17.26,.95Z"/>
            <path id="Path_230" data-name="Path 230" class="cls-7" d="M21.51,649.82c.02,1,.1,2.01,.26,3,.4,3.07,.8,6.14,1.21,9.21,.06,1.29,.45,2.54,1.14,3.63,.75,1.1,2.22,1.44,3.38,.78,.4-.35,.72-.79,.93-1.28,2.24-4.45,3.37-9.37,3.3-14.35-.06-3.49-1.21-7.03-5.04-7.86-3.86-.84-5.15,3.64-5.17,6.86Z"/>
            <path id="Path_231" data-name="Path 231" class="cls-9" d="M31.83,529.61l37.85-1.77,29.11,130.4,11.89-7.14-14.83,18.89-38.77-107.48,.59,48.75-26.28,34.83-1.68,12.57-.37,2.83c-.18,1.39-1.45,2.38-2.85,2.22h0c-1.25-.15-2.2-1.18-2.26-2.43l-.76-16.98,20.35-33.08-14.36-54.77,2.36-26.82Z"/>
            <path id="Path_232" data-name="Path 232" class="cls-7" d="M33.12,518.63s9.62,3.92,18.36,3.33c6.09-.57,12.07-1.91,17.83-3.97,0,0,5.28,24.36,9.35,40.67,2.64,11.06,4.59,22.28,5.82,33.59,0,0-20.58,13.4-44.85,6.6,0,0-13.2-33.59-12.23-46.59,.97-13.01,5.71-33.62,5.71-33.62Z"/>
            <path id="Path_233" data-name="Path 233" class="cls-7" d="M111.08,653.16c.61-1.09,1.15-2.63,.2-3.44-.64-.43-1.47-.47-2.15-.11-2.03,.88-3.06,3.13-3.88,5.19-4.49,11.29-7,7.03-11.18,9.31-2.88,1.57-1.72,2.93,.9,5.45,4.53,4.35,14.25-13.07,16.11-16.41Z"/>
          </g>
          <g id="Group_206" data-name="Group 206">
            <path id="Path_235" data-name="Path 235" class="cls-4" d="M93.56,405.86H10.7v-82.86H93.56v82.86Zm-79.44-3.42H90.14v-76.02H14.12v76.02Z"/>
            <g id="Group_205" data-name="Group 205">
              <path id="Path_236" data-name="Path 236" class="cls-10" d="M101.05,315.57l-46.93,47.65-13.92-12.28-10.7,12.14,25.38,22.38,57.68-58.52-11.51-11.38Z"/>
            </g>
          </g>
        </g>
      </g>
    </g>
  </g>
</svg>