<?xml version="1.0" encoding="UTF-8"?>
<svg id="Layer_2" data-name="Layer 2" xmlns="http://www.w3.org/2000/svg" viewBox="0 0 694.65 666.17">
  <defs>
    <style>
      .cls-1, .cls-2 {
        fill: #fff;
      }

      .cls-3 {
        fill: #fafafa;
      }

      .cls-4 {
        fill: #ff8fa4;
      }

      .cls-5 {
        fill: #202a45;
      }

      .cls-2 {
        opacity: .4;
      }

      .cls-6 {
        fill: #455a64;
      }

      .cls-7 {
        fill: #e8505b;
      }

      .cls-8 {
        opacity: .4;
      }

      .cls-9 {
        fill: #dd9c83;
      }

      .cls-10 {
        opacity: .3;
      }

      .cls-11 {
        fill: #eb996e;
      }

      .cls-12 {
        fill: #475d75;
      }

      .cls-13 {
        fill: #e6e1e7;
      }

      .cls-14 {
        fill: #ffbe9d;
      }

      .cls-15 {
        fill: #616161;
      }

      .cls-16 {
        fill: #7594b3;
      }

      .cls-17 {
        fill: #2c2c2c;
      }

      .cls-18 {
        fill: #d7d2d8;
      }

      .cls-19 {
        fill: #c2b8c2;
      }

      .cls-20 {
        fill: #263238;
      }

      .cls-21 {
        fill: #060606;
      }
    </style>
  </defs>
  <g id="Layer_1-2" data-name="Layer 1">
    <g id="icn_add_new_questions" data-name="icn add new questions">
      <g id="Group_552" data-name="Group 552">
        <g id="Background_Complete" data-name="Background Complete">
          <g id="Group_263" data-name="Group 263">
            <g id="Group_237" data-name="Group 237">
              <g id="Group_236" data-name="Group 236">
                <g id="Group_235" data-name="Group 235">
                  <g id="Group_234" data-name="Group 234">
                    <path id="Path_255" data-name="Path 255" class="cls-13" d="M392.07,662.93c-27.11-12.84-37.93-43.35-41.76-71.78-.64-4.74-2-9.63-.46-14.15s6.3-8.23,10.86-6.96c3.78,1.06,6,4.87,8.53,7.91,3.38,4.05,7.83,7.07,12.85,8.7,3.27,1.05,7.15,1.38,9.83-.76,3.69-2.93,3.22-8.64,2.4-13.33-1.53-8.74-3.07-17.47-4.6-26.21-.82-4.69-1.65-9.48-.94-14.18s3.23-9.38,7.48-11.39,10.21-.37,11.93,4.07c.72,1.85,.66,3.9,1.12,5.82s1.73,3.93,3.67,4.16c1.97,.23,3.62-1.41,4.79-3.02,4.04-5.56,6.3-12.22,8.34-18.8s3.97-13.31,7.49-19.22,8.91-11.04,15.56-12.55,14.52,1.42,17.33,7.73c2.82,6.33,.1,13.69-3.2,19.76-4.89,9-11.05,17.24-18.29,24.48-1.3,1.3-2.71,2.71-2.98,4.54-.49,3.3,3,5.91,6.26,6.41,3.69,.57,7.43-.43,11.16-.62s7.97,.76,9.94,3.98c2.73,4.47-.43,10.18-3.82,14.14-6.79,7.93-14.9,14.64-23.96,19.82-3.24,1.85-6.68,3.57-9.06,6.47s-3.34,7.4-1.1,10.42,6.74,3.35,10.24,2.07,6.4-3.79,9.63-5.67c6.04-3.52,14.44-4.49,19.51,.39,3.33,3.2,4.44,8.26,3.8,12.86s-2.78,8.83-5.15,12.8c-8.29,13.87-19.86,25.88-33.95,33.59s-27.7,11.47-43.49,8.54"/>
                  </g>
                </g>
              </g>
            </g>
            <g id="Group_242" data-name="Group 242">
              <g id="Group_241" data-name="Group 241">
                <g id="Group_240" data-name="Group 240">
                  <g id="Group_239" data-name="Group 239">
                    <g id="Group_238" data-name="Group 238">
                      <path id="Path_256" data-name="Path 256" class="cls-18" d="M396.36,643.98c1.75-14.97,5.02-31.21,9.03-48.09,1.02-4.21,2.02-8.38,3.02-12.48,1-4.1,1.99-8.16,3.2-12.07,2.35-7.51,5.11-14.88,8.27-22.08,2.97-6.9,6.04-13.33,8.95-19.33,2.93-5.99,5.76-11.53,8.56-16.46,4.38-7.81,9.37-15.26,14.92-22.28,1.96-2.48,3.55-4.36,4.64-5.62,.53-.6,.94-1.07,1.25-1.42,.14-.17,.29-.32,.45-.46-.11,.19-.24,.36-.38,.52l-1.18,1.48c-1.05,1.3-2.59,3.2-4.5,5.72-5.44,7.08-10.33,14.56-14.65,22.38-2.76,4.94-5.55,10.48-8.45,16.48s-5.92,12.44-8.86,19.33c-3.13,7.18-5.86,14.53-8.18,22.01-1.2,3.89-2.18,7.92-3.18,12.02l-3.01,12.48c-4.01,16.86-7.3,33.07-9.08,47.99"/>
                    </g>
                  </g>
                </g>
              </g>
            </g>
            <g id="Group_247" data-name="Group 247">
              <g id="Group_246" data-name="Group 246">
                <g id="Group_245" data-name="Group 245">
                  <g id="Group_244" data-name="Group 244">
                    <g id="Group_243" data-name="Group 243">
                      <path id="Path_257" data-name="Path 257" class="cls-18" d="M411.86,571.26c-.33-.61-.6-1.26-.8-1.92-.47-1.26-1.08-3.09-1.8-5.37-1.45-4.56-3.25-10.93-5.2-17.95s-3.83-13.35-5.35-17.88c-.75-2.26-1.38-4.09-1.83-5.35-.27-.64-.48-1.31-.61-1.99,.38,.59,.69,1.21,.92,1.87,.55,1.22,1.27,3.02,2.1,5.27,1.68,4.49,3.66,10.81,5.61,17.85l4.95,18.01c.61,2.16,1.12,3.98,1.54,5.45,.23,.66,.39,1.34,.47,2.03Z"/>
                    </g>
                  </g>
                </g>
              </g>
            </g>
            <g id="Group_252" data-name="Group 252">
              <g id="Group_251" data-name="Group 251">
                <g id="Group_250" data-name="Group 250">
                  <g id="Group_249" data-name="Group 249">
                    <g id="Group_248" data-name="Group 248">
                      <path id="Path_258" data-name="Path 258" class="cls-18" d="M470.28,549.78c-.76,.31-1.55,.54-2.36,.7-1.52,.4-3.73,.97-6.44,1.75-5.42,1.53-12.84,3.91-20.92,6.89-8.07,3-15.25,6.02-20.39,8.36-2.58,1.15-4.64,2.14-6.07,2.81-.72,.39-1.48,.72-2.26,.98,.66-.49,1.36-.92,2.1-1.28,1.38-.77,3.41-1.84,5.96-3.07,5.08-2.49,12.26-5.61,20.35-8.62,6.9-2.58,13.93-4.8,21.06-6.66,2.74-.71,4.98-1.19,6.53-1.48,.8-.2,1.61-.32,2.44-.36Z"/>
                    </g>
                  </g>
                </g>
              </g>
            </g>
            <g id="Group_257" data-name="Group 257">
              <g id="Group_256" data-name="Group 256">
                <g id="Group_255" data-name="Group 255">
                  <g id="Group_254" data-name="Group 254">
                    <g id="Group_253" data-name="Group 253">
                      <path id="Path_259" data-name="Path 259" class="cls-18" d="M396.92,642.75c-.21-.2-.39-.42-.54-.67-.38-.54-.84-1.2-1.4-2.01-1.21-1.75-2.89-4.33-4.93-7.54-4.08-6.42-9.44-15.46-15.21-25.52s-11.04-19.14-14.98-25.64l-4.69-7.68c-.51-.84-.92-1.53-1.26-2.1-.16-.24-.3-.49-.39-.77,.21,.2,.39,.42,.54,.67,.38,.54,.84,1.2,1.4,2.01,1.21,1.75,2.89,4.33,4.93,7.54,4.08,6.42,9.44,15.46,15.21,25.53s11.04,19.14,14.98,25.64c1.93,3.15,3.51,5.75,4.69,7.68,.51,.84,.92,1.53,1.27,2.1,.16,.24,.3,.49,.39,.76Z"/>
                    </g>
                  </g>
                </g>
              </g>
            </g>
            <g id="Group_262" data-name="Group 262">
              <g id="Group_261" data-name="Group 261">
                <g id="Group_260" data-name="Group 260">
                  <g id="Group_259" data-name="Group 259">
                    <g id="Group_258" data-name="Group 258">
                      <path id="Path_260" data-name="Path 260" class="cls-18" d="M472.72,603.35c-.23,.19-.47,.34-.74,.46-.59,.32-1.32,.7-2.2,1.17l-8.11,4.23c-6.85,3.58-16.26,8.63-26.64,14.22s-19.85,10.56-26.78,14c-3.46,1.72-6.28,3.08-8.24,3.98-.91,.41-1.66,.75-2.27,1.03-.26,.14-.53,.24-.82,.3,.23-.19,.47-.34,.74-.46l2.2-1.17,8.11-4.23c6.85-3.58,16.26-8.63,26.64-14.22s19.85-10.56,26.77-14c3.46-1.72,6.28-3.08,8.24-3.98l2.27-1.03c.26-.14,.53-.24,.82-.3Z"/>
                    </g>
                  </g>
                </g>
              </g>
            </g>
          </g>
          <g id="Group_287" data-name="Group 287">
            <g id="Group_265" data-name="Group 265">
              <g id="Group_264" data-name="Group 264">
                <path id="Path_261" data-name="Path 261" class="cls-13" d="M195.35,325.24s-18.69,2.6-8.2,43.54c10.49,40.94,19.4,62.04,19.4,62.04,0,0,1.41,9.27-6.07,8.99s-22.72-6.36-27.89,1.71c-5.36,8.37-.68,18.45,11.05,29s36.56,34.61,38.8,36.79c2.2,2.14,3.86,6.69-1.26,7.31s-41.51-3.65-42.5,13.74,36.5,41.41,40.55,44.12,4.69,4.82,3.78,7.17-13-.24-23.4-1.03-22.6,.11-22.33,10.2,19.95,35.55,77.39,54.49l27.19,7.03,20.1-19.79c40.43-44.98,44.86-76.86,40.08-85.74s-15.81-3.6-24.44,2.25-17.84,14.11-19.8,12.52-2.46-3.74-.29-8.1,22.76-43.84,13.26-58.43-38.96,7.19-43.71,9.2-5.57-2.76-4.72-5.71c.86-3.01,10.46-36.23,15.39-51.21s3.99-26.06-4.82-30.65c-8.5-4.43-18.71,8.41-25.05,12.37s-9.73-4.78-9.73-4.78c0,0-2.76-22.73-14-63.48s-29.15-33.44-29.15-33.44"/>
              </g>
            </g>
            <g id="Group_268" data-name="Group 268">
              <g id="Group_267" data-name="Group 267">
                <g id="Group_266" data-name="Group 266">
                  <path id="Path_262" data-name="Path 262" class="cls-18" d="M281.83,657.1c-8.13-29.95-21.7-83.44-33.58-129.29-11.88-45.84-22.68-87.33-30.66-117.33-4-14.97-7.24-27.09-9.49-35.51-1.11-4.17-1.98-7.41-2.57-9.66-.28-1.08-.49-1.92-.65-2.52-.14-.57-.19-.86-.19-.86,0,0,.11,.28,.28,.84,.18,.6,.42,1.42,.73,2.5,.63,2.23,1.55,5.47,2.73,9.61,2.36,8.35,5.7,20.46,9.76,35.44,8.13,29.95,19.02,71.43,30.9,117.27,11.88,45.86,25.35,99.36,33.34,129.35"/>
                </g>
              </g>
            </g>
            <g id="Group_271" data-name="Group 271">
              <g id="Group_270" data-name="Group 270">
                <g id="Group_269" data-name="Group 269">
                  <path id="Path_263" data-name="Path 263" class="cls-18" d="M193.57,450.87c.63,.25,1.23,.57,1.79,.96,1.13,.66,2.73,1.67,4.69,2.93,3.92,2.53,9.25,6.16,15.06,10.27l14.83,10.58c1.79,1.26,3.3,2.32,4.51,3.17,.58,.35,1.12,.76,1.61,1.23-.63-.25-1.24-.56-1.8-.95-1.12-.67-2.72-1.67-4.68-2.95-3.9-2.57-9.18-6.27-14.98-10.38l-14.9-10.47-4.53-3.15c-.58-.36-1.12-.77-1.6-1.25Z"/>
                </g>
              </g>
            </g>
            <g id="Group_274" data-name="Group 274">
              <g id="Group_273" data-name="Group 273">
                <g id="Group_272" data-name="Group 272">
                  <path id="Path_264" data-name="Path 264" class="cls-18" d="M238.33,478.68c-.2-.13,6.79-11.45,15.63-25.27s16.16-24.93,16.37-24.8-6.79,11.44-15.63,25.27-16.16,24.93-16.36,24.8Z"/>
                </g>
              </g>
            </g>
            <g id="Group_277" data-name="Group 277">
              <g id="Group_276" data-name="Group 276">
                <g id="Group_275" data-name="Group 275">
                  <path id="Path_265" data-name="Path 265" class="cls-18" d="M253.4,549.91c.44-.53,.94-1.02,1.49-1.44l4.24-3.71c3.57-3.14,8.5-7.49,13.75-12.49s9.87-9.68,13.18-13.09c1.56-1.61,2.87-2.96,3.92-4.05,.45-.53,.96-1.01,1.52-1.42-.36,.59-.78,1.15-1.26,1.65-.86,1.02-2.12,2.48-3.73,4.24-3.2,3.53-7.75,8.3-13.03,13.3s-10.27,9.31-13.95,12.33c-1.85,1.5-3.36,2.7-4.42,3.5-.52,.46-1.1,.86-1.71,1.19Z"/>
                </g>
              </g>
            </g>
            <g id="Group_280" data-name="Group 280">
              <g id="Group_279" data-name="Group 279">
                <g id="Group_278" data-name="Group 278">
                  <path id="Path_266" data-name="Path 266" class="cls-18" d="M207.38,533.66c.64,.08,1.26,.23,1.86,.45l4.98,1.54c4.19,1.34,9.96,3.24,16.32,5.39s12.1,4.15,16.24,5.64l4.89,1.8c.61,.19,1.2,.45,1.76,.77-.64-.08-1.26-.23-1.86-.45l-4.98-1.54c-4.19-1.34-9.96-3.24-16.32-5.39s-12.1-4.15-16.24-5.63l-4.89-1.8c-.61-.19-1.2-.45-1.76-.77Z"/>
                </g>
              </g>
            </g>
            <g id="Group_283" data-name="Group 283">
              <g id="Group_282" data-name="Group 282">
                <g id="Group_281" data-name="Group 281">
                  <path id="Path_267" data-name="Path 267" class="cls-18" d="M212.7,598.24c.81,.12,1.61,.33,2.38,.6l6.39,1.95c5.38,1.68,12.8,4.06,20.97,6.74s15.56,5.16,20.89,6.99l6.3,2.21c.78,.24,1.55,.55,2.27,.92-.81-.13-1.61-.33-2.38-.6l-6.39-1.95c-5.38-1.68-12.8-4.06-20.97-6.75s-15.56-5.16-20.89-6.99l-6.3-2.21c-.78-.24-1.54-.55-2.27-.93Z"/>
                </g>
              </g>
            </g>
            <g id="Group_286" data-name="Group 286">
              <g id="Group_285" data-name="Group 285">
                <g id="Group_284" data-name="Group 284">
                  <path id="Path_268" data-name="Path 268" class="cls-18" d="M270.61,616.8c.56-.68,1.18-1.3,1.84-1.87l5.21-4.9c4.39-4.14,10.43-9.88,16.93-16.41s12.24-12.58,16.35-16.99l4.88-5.22c.57-.67,1.19-1.29,1.86-1.85-.48,.74-1.01,1.43-1.61,2.08-1.08,1.3-2.67,3.15-4.68,5.41-4.01,4.52-9.68,10.66-16.19,17.19s-12.63,12.22-17.13,16.25c-2.26,2.01-4.1,3.61-5.4,4.7-.64,.6-1.33,1.14-2.07,1.62Z"/>
                </g>
              </g>
            </g>
          </g>
          <g id="Group_288" data-name="Group 288">
            <path id="Path_269" data-name="Path 269" class="cls-13" d="M114.17,81.12l-15.35-4.79s-4.02,12.89-17.49,8.94c-5.35-1.46-9.19-6.15-9.56-11.68-.37-4.59,1.47-9.09,4.97-12.1,3.94-3.48,10.87-5.6,20.65-.55l10.8-34.62-15.18-4.73-6.33,20.28s-23.01-1.14-30.33,22.32c-7,22.45,11.5,33.95,20.12,36.63,6.59,2.06,29.54,7.47,37.7-19.7Z"/>
            <rect id="Rectangle_122" data-name="Rectangle 122" class="cls-13" x="97.45" y="1.53" width="15.08" height="16.15" transform="translate(64.55 106.97) rotate(-72.67)"/>
          </g>
          <g id="Group_289" data-name="Group 289">
            <path id="Path_270" data-name="Path 270" class="cls-13" d="M156.55,42.03l6.15-1.62s-1.36-5.16,3.98-6.67c2.1-.64,4.37,.13,5.66,1.9,1.09,1.46,1.41,3.35,.88,5.09-.59,2-2.46,4.16-6.8,4.52l3.66,13.86,6.08-1.6-2.14-8.12c4.73-2.86,6.97-8.53,5.47-13.85-2.37-8.99-10.99-8.95-14.44-8.04-2.64,.69-11.46,3.71-8.48,14.52Z"/>
            <rect id="Rectangle_123" data-name="Rectangle 123" class="cls-13" x="171.45" y="61.08" width="6.38" height="5.96" transform="translate(-10.56 46.65) rotate(-14.77)"/>
          </g>
          <g id="Group_290" data-name="Group 290">
            <path id="Path_271" data-name="Path 271" class="cls-13" d="M664.4,201.26l5.98,2.16s1.82-5.02,7.07-3.22c2.09,.67,3.52,2.59,3.57,4.78,.06,1.82-.75,3.56-2.18,4.69-1.62,1.3-4.39,2.02-8.16-.15l-4.88,13.48,5.91,2.14,2.86-7.9c5.52,.34,10.59-3.05,12.38-8.28,3.17-8.74-3.94-13.61-7.29-14.83-2.57-.93-11.53-3.48-15.24,7.11Z"/>
            <rect id="Rectangle_124" data-name="Rectangle 124" class="cls-13" x="663.77" y="226.48" width="5.96" height="6.38" transform="translate(223.71 778.32) rotate(-70.09)"/>
          </g>
          <g id="Group_291" data-name="Group 291">
            <path id="Path_272" data-name="Path 272" class="cls-13" d="M29.93,269.73l12.65-4.87s-4.09-10.62,6.87-15.07c4.3-1.84,9.29-.75,12.43,2.71,2.65,2.84,3.78,6.78,3.05,10.59-.78,4.37-4.25,9.39-13.35,11.18l10.99,28.53,12.51-4.82-6.44-16.71s15.8-11.3,8.35-30.63c-7.13-18.5-25.38-16.41-32.48-13.67-5.43,2.09-23.43,10.53-14.59,32.76Z"/>
            <rect id="Rectangle_125" data-name="Rectangle 125" class="cls-13" x="66.63" y="305.83" width="13.6" height="12.7" transform="translate(-107.21 47.2) rotate(-21.05)"/>
          </g>
          <g id="Group_292" data-name="Group 292">
            <path id="Path_273" data-name="Path 273" class="cls-13" d="M669.32,317.73l-8.97,3.45s2.9,7.53-4.87,10.68c-3.05,1.3-6.58,.53-8.81-1.92-1.88-2.01-2.68-4.8-2.16-7.51,.55-3.09,3.01-6.66,9.46-7.92l-7.79-20.22-8.86,3.42,4.56,11.84s-11.2,8-5.92,21.71c5.05,13.11,17.98,11.63,23.01,9.69,3.85-1.48,16.6-7.47,10.34-23.22Z"/>
            <rect id="Rectangle_126" data-name="Rectangle 126" class="cls-13" x="633.67" y="283.15" width="9.64" height="9.01" transform="translate(-60.72 248.76) rotate(-21.07)"/>
          </g>
        </g>
        <g id="Floor">
          <g id="Group_293" data-name="Group 293">
            <path id="Path_274" data-name="Path 274" class="cls-20" d="M694.65,665.63c0,.23-155.52,.41-347.31,.41s-347.34-.18-347.34-.41,155.48-.41,347.34-.41,347.31,.19,347.31,.41Z"/>
          </g>
        </g>
        <g id="Plant">
          <g id="Group_319" data-name="Group 319">
            <g id="Group_296" data-name="Group 296">
              <g id="Group_295" data-name="Group 295">
                <g id="Group_294" data-name="Group 294">
                  <path id="Path_275" data-name="Path 275" class="cls-12" d="M99.76,624.77c1.49-5.79-2.3-11.59-6.55-15.79s-9.34-7.96-11.55-13.51c-3.58-8.99,1.24-20.64-4.88-28.14-3.6-4.41-10.05-5.89-13.24-10.61-1.68-2.47-2.22-5.51-2.87-8.43-3.4-14.94-10.75-28.7-21.29-39.83-.71,13.31,2.17,26.57,8.35,38.39,2.48,4.72,5.52,9.32,6.34,14.58,1.33,8.55-3.44,17.36-1.34,25.75,2.4,9.6,13.18,16.02,13.7,25.9,.43,8.35-6.85,15.69-6.31,24.03,.23,3.55,1.88,6.86,3.72,9.91,6.46,10.74,15.95,18.14,30.33,17.89l17.62,.62-12.02-40.77Z"/>
                </g>
              </g>
            </g>
            <g id="Group_318" data-name="Group 318">
              <g id="Group_309" data-name="Group 309">
                <g id="Group_304" data-name="Group 304">
                  <g id="Group_303" data-name="Group 303">
                    <g id="Group_302" data-name="Group 302">
                      <g id="Group_301" data-name="Group 301">
                        <path id="Path_277" data-name="Path 277" class="cls-20" d="M115.34,666.01c1.61,.25,3.25,.21,4.85-.1,1.95-.29,3.87-.77,5.72-1.44,2.56-.89,4.95-2.2,7.07-3.87,1.28-1.03,2.27-2.36,2.91-3.88,.53-1.7,.81-3.48,.83-5.26,.03-1.91,.17-3.81,.41-5.7,.34-2.01,1.07-3.93,2.15-5.66,2.08-3.65,5.52-7.1,6.64-12.06,1.21-4.87,.34-10.15-.48-15.44s-1.61-11.04,.41-16.55c1.89-5.51,5.75-10.48,7.68-16.7,1.92-6.27,1.03-13.02,1.43-19.67,.13-3.38,.91-6.7,2.3-9.78,1.43-3.12,3.4-6.06,4.95-9.34,3.13-6.64,3.68-14.16,4.53-21.53,.42-3.71,.84-7.47,1.26-11.26,.26-3.81,.92-7.59,1.96-11.27,1.19-3.71,2.6-7.35,4.21-10.9,.84-1.84,1.52-3.75,2.04-5.7,.3-2.01,.49-4.03,.57-6.06,.19-4.07,.04-8.15-.47-12.19-.48-4.07-1.21-8.1-1.65-12.17-.03-.24-.05-.48-.08-.7l-.09-.81-.72,.36c-3.73,1.9-6.98,4.64-9.48,8-2.44,3.28-4.4,6.9-5.83,10.74-2.94,7.57-4,15.5-5.49,23.07-1.45,7.57-3.36,15.02-7.24,21.31-1.93,3.14-4.26,6-6.31,9.06-2.18,2.98-3.68,6.41-4.37,10.04-1.04,7.45,3.06,14,2.21,20.6-.41,3.24-1.5,6.36-3.21,9.14-1.6,2.82-3.48,5.42-5.26,8.05-1.82,2.56-3.4,5.28-4.73,8.13-1.24,2.79-1.97,5.78-2.17,8.83-.43,5.94,.41,11.58-.02,16.9-.49,5.06-1.97,9.98-4.35,14.48-2.13,4.33-4.5,8.25-6.49,12.05-.98,1.83-1.87,3.7-2.67,5.61-.71,1.8-1.23,3.66-1.55,5.57-.52,3.33-.57,6.71-.13,10.05,.46,4.66,2.21,9.1,5.04,12.82,.43,.55,.91,1.07,1.43,1.54,.35,.37,.74,.7,1.16,.98,.66,.48,1.01,.71,1.01,.71-1.26-1-2.4-2.13-3.41-3.37-2.72-3.73-4.37-8.14-4.79-12.73-.4-3.3-.32-6.63,.22-9.91,.33-1.86,.85-3.69,1.56-5.44,.8-1.89,1.7-3.74,2.69-5.54,2-3.77,4.4-7.67,6.57-12.03,2.45-4.57,3.98-9.57,4.5-14.73,.46-5.43-.36-11.09,.09-16.89,.2-2.95,.91-5.84,2.12-8.54,1.31-2.79,2.88-5.46,4.68-7.96,1.78-2.61,3.68-5.23,5.33-8.1,1.79-2.89,2.94-6.14,3.36-9.52,.85-7.03-3.22-13.62-2.17-20.55,.68-3.47,2.12-6.75,4.22-9.6,2.01-3,4.36-5.87,6.35-9.09,4-6.47,5.94-14.06,7.41-21.66,1.5-7.62,2.56-15.46,5.45-22.88,1.39-3.74,3.3-7.26,5.67-10.46,2.4-3.22,5.51-5.85,9.08-7.67l-.81-.45c.02,.22,.05,.47,.08,.71,.44,4.12,1.18,8.16,1.65,12.18,.5,3.98,.65,8,.47,12.01-.08,1.97-.26,3.93-.54,5.88-.51,1.88-1.17,3.72-1.98,5.49-1.63,3.59-3.05,7.27-4.25,11.02-1.06,3.74-1.72,7.58-1.98,11.45-.42,3.79-.84,7.55-1.25,11.26-.84,7.4-1.39,14.8-4.4,21.21-1.49,3.19-3.46,6.14-4.93,9.36-1.43,3.2-2.24,6.64-2.36,10.14-.38,6.8,.5,13.44-1.34,19.47-1.83,5.99-5.67,10.99-7.61,16.68-2.08,5.74-1.22,11.69-.38,16.96,.85,5.3,1.71,10.47,.57,15.15-1.02,4.73-4.37,8.15-6.49,11.91-1.1,1.8-1.85,3.8-2.18,5.89-.23,1.91-.36,3.84-.37,5.77,0,1.73-.25,3.46-.75,5.12-.59,1.44-1.53,2.72-2.73,3.71-2.07,1.67-4.4,2.98-6.9,3.89-1.83,.69-3.72,1.2-5.64,1.53-1.18,.21-2.38,.33-3.58,.35-.81-.03-1.23-.02-1.23-.02Z"/>
                      </g>
                    </g>
                  </g>
                </g>
                <g id="Group_308" data-name="Group 308">
                  <g id="Group_307" data-name="Group 307">
                    <g id="Group_306" data-name="Group 306">
                      <g id="Group_305" data-name="Group 305">
                        <path id="Path_278" data-name="Path 278" class="cls-20" d="M171,458.48c-.08,.17-.14,.35-.17,.53-.1,.42-.23,.94-.39,1.59-.35,1.39-.76,3.48-1.43,6.1-.69,2.61-2.29,5.56-3.66,9.2-1.42,3.61-2.86,7.79-4.19,12.49-1.34,4.7-2.54,9.92-3.78,15.5-1.28,5.58-2.56,11.56-5.64,17.2-1.44,2.86-3.07,5.76-4.36,8.93-1.27,3.25-2.12,6.65-2.54,10.11-.89,7.17-2.16,14.28-3.8,21.31-3.53,14.44-6.9,28.19-9.96,40.71-3.14,12.48-5.97,23.72-8.35,33.2-2.32,9.39-4.2,17.02-5.53,22.4-.61,2.58-1.09,4.62-1.45,6.11-.14,.65-.26,1.17-.35,1.59-.05,.18-.08,.37-.08,.55,.09-.17,.15-.34,.19-.52,.12-.42,.27-.93,.46-1.57,.4-1.47,.96-3.49,1.65-6.05l5.88-22.32c2.45-9.46,5.36-20.68,8.58-33.14,3.09-12.52,6.49-26.28,10.06-40.72,1.65-7.06,2.91-14.2,3.79-21.4,.4-3.38,1.22-6.69,2.44-9.86,1.24-3.09,2.85-5.97,4.29-8.86,3.1-5.75,4.39-11.91,5.62-17.47,1.21-5.6,2.35-10.8,3.63-15.49,1.27-4.69,2.65-8.87,4.01-12.48,1.29-3.63,2.84-6.61,3.49-9.31,.61-2.68,.95-4.76,1.22-6.17,.11-.65,.2-1.18,.28-1.61,.04-.18,.06-.36,.06-.55Z"/>
                      </g>
                    </g>
                  </g>
                </g>
              </g>
              <g id="Group_317" data-name="Group 317">
                <g id="Group_312" data-name="Group 312">
                  <g id="Group_311" data-name="Group 311">
                    <g id="Group_310" data-name="Group 310">
                      <path id="Path_279" data-name="Path 279" class="cls-16" d="M118.45,666.06c11.51-6.84,14.81-27.6,10.01-40.1s-13.2-23.91-14.5-37.24c-1-10.24,2.36-20.75-.03-30.76-3.22-13.51-16.41-23.97-16.25-37.86,.08-7.79,4.52-15.12,4.16-22.91-.43-9.55-7.76-17.12-12.3-25.53-6.95-12.87-7.4-28.09-9.78-42.53s-7.88-29.89-20.67-36.99c-1.89,12.26-5.11,20.65-4.1,37.25,.36,5.96,7.29,17.38,8.23,30.44,.56,7.81,.95,15.63,1.43,23.45,.46,7.61,.96,15.35,3.68,22.47,2.09,5.45,5.44,10.4,7,16.04,2.92,10.59-.92,22.06,1.44,32.79,2,9.09,8.29,16.91,9.57,26.13,1.81,12.95-6.58,26.41-2.29,38.76,2.13,6.13,7.17,11.05,8.6,17.38,1.11,4.91-.1,10.11,.9,15.04,1.62,7.95,16.78,14.12,24.88,13.63"/>
                    </g>
                  </g>
                </g>
                <g id="Group_316" data-name="Group 316">
                  <g id="Group_315" data-name="Group 315">
                    <g id="Group_314" data-name="Group 314">
                      <g id="Group_313" data-name="Group 313">
                        <path id="Path_280" data-name="Path 280" class="cls-20" d="M62.27,404.32c0,.23,0,.46,.05,.69,.07,.52,.15,1.18,.26,2.02,.26,1.77,.56,4.37,1.16,7.73,.64,3.38,2.38,7.18,3.77,11.77,1.47,4.57,2.93,9.85,4.22,15.76,1.31,5.9,2.41,12.44,3.57,19.47,1.19,6.98,2.41,14.7,5.9,22.02,1.61,3.68,3.43,7.36,4.78,11.28,1.33,4.03,2.14,8.2,2.43,12.43,.64,8.99,1.77,17.93,3.38,26.8,3.52,18.16,6.88,35.45,9.93,51.2,3.22,15.68,6.12,29.81,8.57,41.7,2.47,11.81,4.47,21.39,5.87,28.09,.7,3.25,1.26,5.81,1.65,7.63,.19,.82,.34,1.47,.46,1.98,.04,.23,.11,.45,.19,.66,0-.23-.03-.46-.08-.69-.09-.51-.2-1.17-.35-2-.34-1.83-.83-4.4-1.44-7.67-1.32-6.73-3.2-16.33-5.52-28.16-2.37-11.91-5.19-26.05-8.33-41.75-3.03-15.74-6.35-33.03-9.84-51.18-1.6-8.84-2.73-17.76-3.39-26.72-.3-4.32-1.14-8.58-2.51-12.68-1.4-4.01-3.24-7.7-4.85-11.35-3.47-7.21-4.68-14.75-5.93-21.75-1.19-7.02-2.34-13.57-3.71-19.49-1.35-5.92-2.87-11.21-4.4-15.78-1.46-4.6-3.26-8.37-3.95-11.67-.65-3.3-1.03-5.92-1.36-7.67-.15-.83-.28-1.48-.37-2-.03-.23-.09-.45-.17-.66Z"/>
                      </g>
                    </g>
                  </g>
                </g>
              </g>
            </g>
          </g>
        </g>
        <g id="Speech_Bubble" data-name="Speech Bubble">
          <g id="Group_327" data-name="Group 327">
            <g id="Group_320" data-name="Group 320">
              <path id="Path_281" data-name="Path 281" class="cls-12" d="M617.1,75.67h-6.26s0,5.26-5.46,5.35c-2.16,.08-4.13-1.22-4.91-3.24-.67-1.66-.5-3.55,.45-5.07,1.06-1.75,3.39-3.34,7.61-2.6v-14.12h-6.19v8.27c-5.23,1.53-8.78,6.37-8.68,11.82,0,9.16,8.21,11.29,11.73,11.29,2.69,0,11.85-.65,11.73-11.7Z"/>
              <rect id="Rectangle_127" data-name="Rectangle 127" class="cls-12" x="602.25" y="47.21" width="6.28" height="5.87"/>
            </g>
            <g id="Group_326" data-name="Group 326">
              <g id="Group_325" data-name="Group 325">
                <g id="Group_324" data-name="Group 324">
                  <g id="Group_323" data-name="Group 323">
                    <g id="Group_322" data-name="Group 322">
                      <g id="Group_321" data-name="Group 321">
                        <path id="Path_282" data-name="Path 282" class="cls-20" d="M651.4,67.29c.03-.26,.03-.53,.01-.79-.02-.58-.04-1.35-.07-2.33-.02-.51-.02-1.09-.08-1.72-.09-.63-.19-1.32-.29-2.06-.11-.74-.22-1.54-.35-2.4-.21-.84-.43-1.73-.66-2.68-1.16-4.61-3.07-9-5.66-12.98-7.6-11.96-20.32-19.73-34.44-21.04-2.09-.18-4.19-.22-6.28-.13-1.06,.07-2.14,.05-3.21,.21l-3.23,.49c-4.45,.82-8.76,2.29-12.78,4.36-4.21,2.21-8.08,5.02-11.48,8.34-3.48,3.54-6.39,7.59-8.64,12.02-2.35,4.58-3.88,9.54-4.5,14.65-.2,1.29-.31,2.6-.33,3.91-.1,1.31-.12,2.63-.07,3.95,.11,2.66,.44,5.31,1,7.92,1.21,5.62,3.46,10.96,6.63,15.75l-.05-.48c-2.19,5.46-4.34,10.81-6.44,16.05l-.38,.95,.99-.27,17.16-4.72-.42-.08c5.77,4.35,12.49,7.29,19.6,8.56,3.31,.61,6.68,.82,10.05,.62,1.62-.03,3.23-.18,4.82-.46l2.35-.36c.77-.15,1.52-.38,2.27-.56,10.55-2.69,19.8-9.03,26.1-17.9,2.35-3.28,4.25-6.86,5.62-10.66,.3-.83,.58-1.63,.86-2.4,.2-.79,.39-1.55,.58-2.28,.19-.73,.36-1.42,.52-2.08,.13-.67,.2-1.31,.29-1.92,.15-1.21,.36-2.28,.41-3.21s.06-1.71,.08-2.36c.01-.6,.02-1.07,.03-1.44,.01-.16,0-.33-.02-.49-.04,.16-.06,.32-.07,.49-.03,.37-.07,.84-.11,1.43-.04,.65-.1,1.43-.16,2.34-.07,.93-.31,1.98-.48,3.18-3.07,17.79-16.34,32.09-33.85,36.49-.74,.18-1.47,.4-2.23,.54l-2.31,.35c-1.57,.26-3.15,.4-4.74,.43-3.3,.18-6.6-.04-9.85-.65-6.97-1.27-13.54-4.17-19.18-8.45l-.19-.15-.23,.06-17.17,4.68,.61,.68c2.1-5.23,4.26-10.57,6.46-16.04l.1-.25-.15-.23c-3.09-4.69-5.29-9.91-6.48-15.4-.54-2.55-.87-5.13-.98-7.74-.05-1.29-.03-2.58,.07-3.86,.02-1.28,.13-2.56,.32-3.82,.61-5,2.09-9.85,4.38-14.33,2.19-4.33,5.03-8.31,8.43-11.78,3.33-3.26,7.1-6.02,11.22-8.19,3.93-2.04,8.14-3.5,12.5-4.31l3.17-.49c1.05-.16,2.11-.14,3.15-.22,16.11-.79,31.42,7.06,40.19,20.6,2.6,3.92,4.54,8.23,5.76,12.77,.25,.93,.48,1.82,.7,2.64,.14,.84,.27,1.63,.39,2.37,.12,.74,.23,1.42,.33,2.03,.07,.62,.08,1.2,.13,1.7,.07,.98,.13,1.75,.17,2.32,.01,.27,.05,.53,.1,.79Z"/>
                      </g>
                    </g>
                  </g>
                </g>
              </g>
            </g>
          </g>
        </g>
        <g id="Question_Mark" data-name="Question Mark">
          <g id="Group_336" data-name="Group 336">
            <g id="Group_330" data-name="Group 330">
              <g id="Group_328" data-name="Group 328">
                <path id="Path_283" data-name="Path 283" class="cls-4" d="M182.24,252.83h90.86s0-76.29,79.28-77.65c41.17-.71,62.52,26.26,71.2,46.92,10.07,23.99,7.02,51.34-6.47,73.59-15.41,25.41-48.6,50.94-109.83,40.15l-.58,202.43h89.84v-120s126-32.57,126-171.43-107.44-161.56-165.18-163.41c-32.13-1.03-43.78-2.41-83.52,3.24-50.64,7.19-92.67,65.99-91.6,166.17Z"/>
                <rect id="Rectangle_128" data-name="Rectangle 128" class="cls-4" x="306.44" y="580.47" width="91.18" height="85.16"/>
                <rect id="Rectangle_129" data-name="Rectangle 129" class="cls-16" x="306.44" y="580.47" width="91.18" height="85.16"/>
                <path id="Path_284" data-name="Path 284" class="cls-16" d="M182.24,252.83h90.86s0-76.29,79.28-77.65c41.17-.71,62.52,26.26,71.2,46.92,10.07,23.99,7.02,51.34-6.47,73.59-15.41,25.41-48.6,50.94-109.83,40.15l-.58,202.43h89.84v-120s126-32.57,126-171.43-107.44-161.56-165.18-163.41c-32.13-1.03-43.78-2.41-83.52,3.24-50.64,7.19-92.67,65.99-91.6,166.17Z"/>
              </g>
              <g id="Group_329" data-name="Group 329">
                <path id="Path_285" data-name="Path 285" class="cls-12" d="M144.6,252.83h90.86s0-76.29,79.28-77.65c41.17-.71,62.52,26.26,71.2,46.92,10.07,23.99,7.02,51.34-6.47,73.59-15.41,25.41-49.18,48.5-110.41,37.71v204.86h89.84v-120s126-32.57,126-171.43c0-132.87-119.15-163.73-170.15-163.72-39,0-171.86,9.43-170.15,169.72Z"/>
                <rect id="Rectangle_130" data-name="Rectangle 130" class="cls-12" x="268.8" y="580.47" width="91.18" height="85.16"/>
              </g>
            </g>
            <g id="Group_331" data-name="Group 331">
              <path id="Path_287" data-name="Path 287" class="cls-20" d="M325.01,175.6c-.45,0-.91-.02-1.36-.08-.89-.04-2.18-.29-3.87-.31-4.76-.23-9.53-.03-14.25,.59-7,.9-13.9,2.52-20.57,4.84-3.93,1.37-7.76,3.02-11.46,4.93-3.99,2-7.75,4.44-11.21,7.26-3.44,2.85-6.51,6.1-9.17,9.69-6.84,8.94-11.93,19.08-15.01,29.9-1.33,4.57-2.25,9.26-2.73,13.99-.19,1.68-.24,2.99-.29,3.87,0,.45-.05,.91-.12,1.36-.05-.45-.06-.91-.04-1.36,0-.89,0-2.21,.14-3.9,.36-4.78,1.2-9.51,2.49-14.12,1.89-6.86,4.59-13.47,8.04-19.7,2.06-3.66,4.36-7.18,6.9-10.53,2.69-3.64,5.8-6.95,9.29-9.84,3.5-2.86,7.31-5.32,11.36-7.34,3.74-1.92,7.61-3.57,11.58-4.93,6.73-2.3,13.68-3.88,20.74-4.7,4.76-.58,9.56-.69,14.34-.33,1.69,.07,2.99,.37,3.87,.47,.45,.05,.9,.13,1.33,.25Z"/>
            </g>
            <g id="Group_332" data-name="Group 332">
              <path id="Path_288" data-name="Path 288" class="cls-20" d="M461.9,159.38c-.11-.11-.21-.23-.3-.36-.21-.29-.47-.64-.8-1.09l-2.99-4.24c-.66-.92-1.34-1.97-2.17-3.06-.87-1.06-1.82-2.21-2.84-3.44s-2.1-2.55-3.25-3.96c-1.18-1.37-2.56-2.71-3.94-4.18-1.41-1.44-2.81-3.02-4.41-4.52l-5.08-4.59c-.89-.79-1.75-1.62-2.69-2.4l-2.93-2.3c-2-1.54-3.98-3.22-6.14-4.76-9.39-6.72-19.35-12.61-29.77-17.58l-8.29-3.75-8.24-3.2c-2.68-1.11-5.42-1.9-8.06-2.78-2.66-.82-5.22-1.78-7.82-2.39-2.58-.67-5.08-1.33-7.52-1.98-2.44-.65-4.86-1.03-7.18-1.53-2.33-.43-4.55-1.01-6.73-1.28l-6.26-.9c-3.97-.68-7.62-.82-10.81-1.14-1.6-.12-3.08-.3-4.45-.36-1.36-.04-2.62-.07-3.75-.1-2.21-.07-3.95-.13-5.19-.17l-1.35-.07c-.16,0-.31-.01-.46-.05,.15-.03,.31-.04,.46-.04l1.35-.02h5.2s3.76,.04,3.76,.04c1.37,.04,2.86,.19,4.46,.29,3.19,.28,6.86,.37,10.85,1.02l6.28,.86c2.19,.26,4.42,.82,6.76,1.24,2.32,.49,4.76,.86,7.21,1.5l7.56,1.95c2.61,.6,5.18,1.55,7.86,2.37,2.66,.87,5.41,1.66,8.1,2.77l8.27,3.2c2.74,1.24,5.51,2.49,8.33,3.76,10.47,5,20.46,10.92,29.86,17.71,2.17,1.56,4.15,3.26,6.15,4.81,.99,.79,1.97,1.57,2.93,2.33,.94,.79,1.81,1.63,2.69,2.43,1.75,1.61,3.44,3.15,5.07,4.65,1.59,1.53,2.99,3.13,4.39,4.58,1.37,1.49,2.74,2.84,3.91,4.23l3.22,4.01,2.79,3.49c.81,1.11,1.48,2.18,2.11,3.11,1.22,1.84,2.18,3.3,2.87,4.34l.73,1.14c.09,.12,.17,.25,.23,.39Z"/>
            </g>
            <g id="Group_333" data-name="Group 333">
              <path id="Path_289" data-name="Path 289" class="cls-20" d="M452.44,354.45c-.2,.33-.43,.65-.69,.94-.53,.66-1.23,1.53-2.1,2.61-.91,1.13-2.04,2.5-3.43,4.03s-2.9,3.33-4.73,5.17c-1.79,1.88-3.77,3.93-5.99,6.03-2.17,2.16-4.62,4.31-7.18,6.6-5.64,4.87-11.53,9.45-17.65,13.71-6.16,4.2-12.54,8.09-19.1,11.62-3.05,1.58-5.94,3.11-8.73,4.37-2.75,1.34-5.37,2.45-7.76,3.46-2.38,1.05-4.59,1.84-6.52,2.58s-3.6,1.33-4.99,1.77c-1.32,.43-2.38,.77-3.18,1.03-.36,.14-.74,.24-1.12,.31,.34-.19,.7-.34,1.07-.46l3.13-1.18c1.36-.49,3.03-1.11,4.93-1.9s4.1-1.6,6.45-2.68c2.38-1.04,4.97-2.18,7.7-3.54,2.76-1.28,5.63-2.83,8.66-4.42,6-3.29,12.47-7.17,18.99-11.64,6.49-4.51,12.41-9.17,17.62-13.61,2.56-2.27,5.03-4.39,7.21-6.52,2.24-2.07,4.23-4.09,6.04-5.94,1.85-1.82,3.4-3.58,4.81-5.08s2.58-2.83,3.53-3.93l2.21-2.5c.25-.3,.52-.59,.82-.84Z"/>
            </g>
            <g id="Group_334" data-name="Group 334">
              <path id="Path_290" data-name="Path 290" class="cls-20" d="M357.31,531.13c-.23,0-.41-25.27-.41-56.44s.18-56.44,.41-56.44,.41,25.27,.41,56.44-.18,56.44-.41,56.44Z"/>
            </g>
            <g id="Group_335" data-name="Group 335">
              <path id="Path_291" data-name="Path 291" class="cls-20" d="M360.78,659.85c-.23,0-.41-17.73-.41-39.6s.18-39.61,.41-39.61,.41,17.73,.41,39.61-.19,39.6-.41,39.6Z"/>
            </g>
          </g>
        </g>
        <g id="Character">
          <g id="Group_551" data-name="Group 551">
            <g id="Group_353" data-name="Group 353">
              <path id="Path_292" data-name="Path 292" class="cls-7" d="M450.22,240.76c-1.59,3.17,4.29,5.72,7.68,6.75s7.01,.92,10.55,.73c4.69-.25,9.55-.69,13.62-3.02,3.57-2.21,6.43-5.41,8.21-9.21,1.77-3.78,3.16-7.73,4.17-11.78,0,0-37.17,2.43-44.24,16.54Z"/>
              <g id="Group_337" data-name="Group 337">
                <path id="Path_293" data-name="Path 293" class="cls-5" d="M450.22,240.76c-1.59,3.17,4.29,5.72,7.68,6.75s7.01,.92,10.55,.73c4.69-.25,9.55-.69,13.62-3.02,3.57-2.21,6.43-5.41,8.21-9.21,1.77-3.78,3.16-7.73,4.17-11.78,0,0-37.17,2.43-44.24,16.54Z"/>
              </g>
              <g id="Group_339" data-name="Group 339">
                <path id="Path_294" data-name="Path 294" class="cls-7" d="M555.22,230.68c6.12,4.35,13.47,6.66,20.98,6.59,3.57-.04,7.36-.73,9.99-3.14,1.21-1.11,2.12-2.53,3.37-3.59,.85-.72,1.84-1.27,2.64-2.05,.86-.74,1.3-1.86,1.16-2.99-.31-1.37-1.08-2.59-2.17-3.47-4.27-2.42-9.36-2.34-14.27-2.22-4.91,.21-9.77,1.16-14.4,2.82-3.81,1.28-7.79,3.09-9.72,6.61"/>
                <g id="Group_338" data-name="Group 338">
                  <path id="Path_295" data-name="Path 295" class="cls-5" d="M593.35,225.5c-.56-1.33-1.54-2.44-2.79-3.16-4.27-2.42-8.74-2.65-13.65-2.54-4.91,.21-9.77,1.16-14.39,2.82-3.81,1.28-7.79,3.09-9.72,6.61l2.43,1.45c6.12,4.35,13.47,6.66,20.98,6.59,3.57-.04,7.36-.73,9.99-3.14,1.21-1.11,2.12-2.53,3.37-3.59,.85-.72,1.84-1.27,2.64-2.05,.86-.74,1.3-1.86,1.16-2.99Z"/>
                </g>
              </g>
              <path id="Path_296" data-name="Path 296" class="cls-16" d="M482.66,287.16l78.43,1.03c.56,0,1.01-.44,1.02-1,0-.11-.01-.22-.05-.32l-9.2-28.7s1.36-14.34,3.23-31.6c2.84-26.18,6.63-59.11,6.67-59.02-5.36-15.03-37.01-17.6-37.01-17.6l-36.08,2.14-1.27-2.12-10.38,4.83c-2.26,1.05-4.44,2.28-6.51,3.67-6.85,4.59-23.38,15.1-26.39,26.84-6.96,27.14,4.84,57.43,4.84,57.43l7.57-5.92c1.91-1.47,3.92-2.82,6.01-4.02l15.2,40.72s-3.16,1.93-3.3,5.23,1.64,7.28,7.22,8.41"/>
              <g id="Group_340" data-name="Group 340" class="cls-10">
                <path id="Path_297" data-name="Path 297" d="M516.28,239.14c2.49-13.37,1.17-27.12-.15-40.65-4.36,11.07-4.2,23.55-8.8,34.52-.57,1.15-.98,2.38-1.23,3.64-.24,1.28,.15,2.6,1.05,3.55,1.25,1.15,3.12,.53,4.8,.33,1.49-.28,2.95-.74,4.33-1.38"/>
              </g>
              <g id="Group_341" data-name="Group 341" class="cls-8">
                <path id="Path_298" data-name="Path 298" d="M487.39,270.09c6.33,2.2,12.99-1.88,19.65-2.6,4.4-.48,8.81,.53,13.18,1.24,8.84,1.43,17.84,1.65,26.75,.66,1.37-.07,2.7-.42,3.93-1.02,1.28-.88,2.05-2.34,2.06-3.9-14.81-1.52-29.62-2.43-44.43-3.95-3.71-.38-7.55-.75-11.11,.35-4.48,1.39-7.93,4.9-11.08,8.37"/>
              </g>
              <path id="Path_299" data-name="Path 299" class="cls-16" d="M591.09,220.31c-6.41-14.42-28.99-54.32-28.99-54.32l-17.49,21.92,4.08,43.03s9.23-10.31,35.05-10.51c6.02-.05,9.61,5.06,9.61,5.06l-2.26-5.18Z"/>
              <g id="Group_342" data-name="Group 342">
                <path id="Path_300" data-name="Path 300" class="cls-20" d="M486.13,212.7c-.22,.06-1.54-4.15-2.95-9.41s-2.37-9.57-2.15-9.62,1.54,4.15,2.95,9.41,2.37,9.57,2.15,9.62Z"/>
              </g>
              <g id="Group_343" data-name="Group 343">
                <path id="Path_301" data-name="Path 301" class="cls-20" d="M543.3,185c.58,.4,1.13,.86,1.62,1.38,1.39,1.34,2.69,2.77,3.9,4.28,4.07,4.97,6.93,10.82,8.35,17.08,.75,3.46,.92,7.02,.5,10.54-.41,3.22-1.02,6.05-1.42,8.45-.42,2.39-.66,4.34-.79,5.69-.02,.7-.09,1.41-.22,2.1-.12-.7-.16-1.41-.1-2.12,.07-1.93,.24-3.85,.53-5.76,.32-2.42,.88-5.27,1.24-8.44,.37-3.43,.18-6.9-.55-10.28-1.4-6.15-4.13-11.92-8-16.9-2.91-3.88-5.18-5.89-5.06-6.01Z"/>
              </g>
              <g id="Group_344" data-name="Group 344">
                <path id="Path_302" data-name="Path 302" class="cls-20" d="M527.28,283.73c-.55,.24-1.12,.4-1.71,.5-.67,.18-1.36,.31-2.05,.4-.91,.16-1.82,.27-2.74,.34-2.4,.2-4.81,.19-7.2-.04-5.89-.56-11.6-2.33-16.77-5.21-2.1-1.17-4.1-2.52-5.96-4.05-.72-.57-1.41-1.19-2.07-1.83-.52-.46-1.01-.96-1.46-1.49-.43-.41-.81-.87-1.13-1.38,.12-.11,1.81,1.78,5.02,4.24,1.88,1.43,3.88,2.72,5.96,3.84,5.12,2.75,10.71,4.49,16.49,5.12,2.35,.26,4.72,.33,7.09,.21,4.04-.22,6.5-.81,6.54-.66Z"/>
              </g>
              <g id="Group_345" data-name="Group 345">
                <path id="Path_303" data-name="Path 303" class="cls-20" d="M551.51,274.75c.37,.71,.57,1.5,.61,2.3,.25,1.92,.11,3.87-.42,5.73-.53,1.89-1.6,3.59-3.08,4.87-.57,.58-1.29,.99-2.07,1.18-.07-.12,.7-.6,1.68-1.6,1.27-1.32,2.19-2.93,2.69-4.68,1.19-4.16,.29-7.78,.6-7.8Z"/>
              </g>
              <g id="Group_346" data-name="Group 346">
                <path id="Path_304" data-name="Path 304" class="cls-20" d="M547.24,280.3c.2-.05,.62,2.25-.4,4.84-1,2.6-2.85,4.02-2.97,3.84-.17-.17,1.3-1.74,2.21-4.14,.95-2.39,.93-4.53,1.16-4.54Z"/>
              </g>
              <g id="Group_347" data-name="Group 347">
                <path id="Path_305" data-name="Path 305" class="cls-20" d="M533.2,228.53c.17,.17-1.29,1.81-2.8,4.03s-2.53,4.15-2.75,4.06c-.2-.08,.5-2.24,2.08-4.52s3.33-3.72,3.47-3.56Z"/>
              </g>
              <g id="Group_348" data-name="Group 348">
                <path id="Path_306" data-name="Path 306" class="cls-20" d="M479.37,190.43c-1.2-.71-2.36-1.47-3.48-2.3-5.6-3.67-11.95-6.04-18.58-6.94-1.39-.11-2.77-.29-4.14-.54,1.39-.22,2.81-.23,4.2-.04,6.8,.59,13.32,3.02,18.84,7.04,1.18,.77,2.24,1.7,3.15,2.78Z"/>
              </g>
              <g id="Group_349" data-name="Group 349">
                <path id="Path_307" data-name="Path 307" class="cls-20" d="M562.11,165.47c.15,.22-4.09,2.81-7.95,7.44-3.9,4.59-5.73,9.21-5.97,9.1,.19-1.07,.56-2.1,1.1-3.05,2.28-4.74,5.72-8.83,10.01-11.89,.84-.69,1.8-1.23,2.82-1.6Z"/>
              </g>
              <g id="Group_350" data-name="Group 350">
                <path id="Path_308" data-name="Path 308" class="cls-20" d="M529.72,152.51c.15,.23,.27,.47,.35,.73,.31,.71,.55,1.45,.73,2.21,.65,2.8,.64,5.72-.03,8.52-.98,4.19-3.22,7.97-6.42,10.84-4.04,3.42-9.18,5.25-14.48,5.16-5.27-.01-10.4-1.73-14.61-4.88-3.39-2.59-6.14-5.93-8.04-9.75-1.28-2.56-2.18-5.29-2.68-8.1-.14-.76-.23-1.53-.28-2.3-.04-.27-.05-.54-.02-.81,.08,0,.18,1.1,.61,3.05,.61,2.75,1.58,5.4,2.88,7.89,1.93,3.69,4.65,6.9,7.98,9.41,4.11,3.02,9.07,4.66,14.17,4.67,5.1,.1,10.06-1.64,13.97-4.9,3.12-2.75,5.33-6.38,6.35-10.41,.7-2.72,.79-5.56,.28-8.32-.39-1.95-.87-2.97-.78-3Z"/>
              </g>
              <g id="Group_351" data-name="Group 351" class="cls-10">
                <path id="Path_309" data-name="Path 309" d="M535.23,231.32c-.02-.79-.13-1.71-.81-2.1-.45-.22-.98-.22-1.42,.02-.43,.24-.82,.56-1.14,.94-1.85,1.92-3.28,4.21-4.2,6.72l7.71-.66c-.06-1.63-.09-3.29-.14-4.91Z"/>
              </g>
              <g id="Group_352" data-name="Group 352" class="cls-10">
                <path id="Path_310" data-name="Path 310" d="M560.83,215.1c-.59-4.41-2.84-8.45-5.59-11.95,3.32,10.89,2.21,17.03,.34,24.49l.4-1.04c2.15-4.36,5.44-7.09,4.85-11.5Z"/>
              </g>
            </g>
            <g id="Group_373" data-name="Group 373">
              <g id="Group_354" data-name="Group 354">
                <path id="Path_311" data-name="Path 311" class="cls-14" d="M545.42,580.81l-4.7,70.57-30.68-.36-4.83-73.36,40.22,3.16Z"/>
              </g>
              <g id="Group_372" data-name="Group 372">
                <g id="Group_371" data-name="Group 371">
                  <g id="Group_356" data-name="Group 356">
                    <g id="Group_355" data-name="Group 355">
                      <path id="Path_312" data-name="Path 312" class="cls-17" d="M541.59,642.09v2.04s34.59,13.92,34.95,20.48l-68.69-.4,1.07-22.85c10.18,4.79,20.87,5.38,32.67,.73Z"/>
                    </g>
                  </g>
                  <g id="Group_359" data-name="Group 359">
                    <g id="Group_358" data-name="Group 358">
                      <g id="Group_357" data-name="Group 357">
                        <path id="Path_313" data-name="Path 313" class="cls-1" d="M515.84,648.71c-1.37,.41-2.21,1.78-1.96,3.19,.36,1.39,1.74,2.25,3.14,1.97,1.45-.44,2.34-1.9,2.06-3.39-.45-1.3-2.28-2.33-3.5-1.68"/>
                      </g>
                    </g>
                  </g>
                  <g id="Group_361" data-name="Group 361">
                    <g id="Group_360" data-name="Group 360">
                      <path id="Path_314" data-name="Path 314" class="cls-19" d="M507.86,664.21l.26-5.5,65.74,2.4s3.05,1.35,2.69,3.5l-68.69-.4Z"/>
                    </g>
                  </g>
                  <g id="Group_364" data-name="Group 364">
                    <g id="Group_363" data-name="Group 363">
                      <g id="Group_362" data-name="Group 362">
                        <path id="Path_315" data-name="Path 315" class="cls-15" d="M541.84,644.32c-.01,.33-1.69,.48-3.35,1.55-1.68,1.03-2.54,2.47-2.85,2.34-.31-.07,.2-2.07,2.23-3.33,2.02-1.28,4.04-.87,3.97-.56Z"/>
                      </g>
                    </g>
                  </g>
                  <g id="Group_367" data-name="Group 367">
                    <g id="Group_366" data-name="Group 366">
                      <g id="Group_365" data-name="Group 365">
                        <path id="Path_316" data-name="Path 316" class="cls-15" d="M549.03,647.35c.08,.33-1.38,.89-2.53,2.3-1.19,1.38-1.48,2.91-1.82,2.89-.32,.05-.54-1.92,.92-3.64,1.45-1.74,3.42-1.87,3.42-1.55Z"/>
                      </g>
                    </g>
                  </g>
                  <g id="Group_370" data-name="Group 370">
                    <g id="Group_369" data-name="Group 369">
                      <g id="Group_368" data-name="Group 368">
                        <path id="Path_317" data-name="Path 317" class="cls-15" d="M553.07,655.99c-.3,.07-.76-1.61,.11-3.44s2.45-2.55,2.58-2.27c.19,.28-.83,1.26-1.53,2.77-.73,1.5-.83,2.91-1.17,2.94Z"/>
                      </g>
                    </g>
                  </g>
                </g>
              </g>
            </g>
            <g id="Group_480" data-name="Group 480">
              <path id="Path_318" data-name="Path 318" class="cls-17" d="M539.83,64.78c1.77-4.41-.37-9.75-4.2-12.56s-8.93-3.42-13.63-2.68-9.1,2.7-13.44,4.64c-5.91-5.94-15.52-5.96-21.45-.05-2.3,2.29-3.81,5.25-4.3,8.46-5.16-1.31-10.41,1.81-11.72,6.97-.48,1.88-.38,3.87,.29,5.69l21.27,7.47,23.22,40.85c7.81,6.66,19.54,5.72,26.19-2.08,5.46-6.41,5.93-15.69,1.15-22.62,1.3-1.16,2.4-2.52,3.26-4.04,3.75-2.21,6.46-5.84,7.52-10.06,2.02-8.98-5.02-18.92-14.16-19.99Z"/>
              <g id="Group_474" data-name="Group 474">
                <g id="Group_451" data-name="Group 451">
                  <g id="Group_450" data-name="Group 450">
                    <g id="Group_448" data-name="Group 448">
                      <g id="Group_447" data-name="Group 447">
                        <g id="Group_446" data-name="Group 446">
                          <g id="Group_445" data-name="Group 445">
                            <g id="Group_430" data-name="Group 430">
                              <g id="Group_429" data-name="Group 429">
                                <g id="Group_428" data-name="Group 428">
                                  <g id="Group_380" data-name="Group 380">
                                    <g id="Group_379" data-name="Group 379">
                                      <g id="Group_378" data-name="Group 378">
                                        <g id="Group_377" data-name="Group 377">
                                          <g id="Group_376" data-name="Group 376">
                                            <g id="Group_375" data-name="Group 375">
                                              <g id="Group_374" data-name="Group 374">
                                                <path id="Path_319" data-name="Path 319" class="cls-14" d="M525.75,149.96c-1.32-6.65-2.24-11.2-2.23-11.16,0,0,12.54-4.88,11.67-22.4-.43-8.71-3.75-22.44-6.83-33.59-2.77-10.03-12.13-21.1-22.04-17.9l-29.96,14.64c-3.01,.97-3.54,3.8-2.83,6.88l.05,1.5,11.66,48.23,4.92,21.56c2.18,9.17,11,15.16,20.33,13.81h0c9.95-1.44,16.85-10.68,15.41-20.63-.05-.31-.1-.63-.16-.94Z"/>
                                              </g>
                                            </g>
                                          </g>
                                        </g>
                                      </g>
                                    </g>
                                  </g>
                                  <g id="Group_396" data-name="Group 396">
                                    <g id="Group_387" data-name="Group 387">
                                      <g id="Group_386" data-name="Group 386">
                                        <g id="Group_385" data-name="Group 385">
                                          <g id="Group_384" data-name="Group 384">
                                            <g id="Group_383" data-name="Group 383">
                                              <g id="Group_382" data-name="Group 382">
                                                <g id="Group_381" data-name="Group 381">
                                                  <path id="Path_320" data-name="Path 320" class="cls-20" d="M528.17,94.47c.26,1.18-.47,2.34-1.64,2.63-1.12,.33-2.31-.31-2.64-1.44,0-.02-.01-.04-.01-.05-.26-1.18,.47-2.34,1.63-2.64,1.13-.33,2.31,.32,2.64,1.44,0,.02,0,.03,.01,.05Z"/>
                                                </g>
                                              </g>
                                            </g>
                                          </g>
                                        </g>
                                      </g>
                                    </g>
                                    <g id="Group_395" data-name="Group 395">
                                      <g id="Group_394" data-name="Group 394">
                                        <g id="Group_393" data-name="Group 393">
                                          <g id="Group_392" data-name="Group 392">
                                            <g id="Group_391" data-name="Group 391">
                                              <g id="Group_390" data-name="Group 390">
                                                <g id="Group_389" data-name="Group 389">
                                                  <g id="Group_388" data-name="Group 388">
                                                    <path id="Path_321" data-name="Path 321" class="cls-20" d="M526.88,91.12c-.21,.34-2.11-.53-4.45-.04-2.34,.46-3.81,2.03-4.12,1.79-.15-.1,.02-.67,.65-1.37,.86-.91,1.99-1.54,3.23-1.79,1.21-.26,2.48-.13,3.61,.38,.83,.4,1.19,.87,1.08,1.02Z"/>
                                                  </g>
                                                </g>
                                              </g>
                                            </g>
                                          </g>
                                        </g>
                                      </g>
                                    </g>
                                  </g>
                                  <g id="Group_412" data-name="Group 412">
                                    <g id="Group_403" data-name="Group 403">
                                      <g id="Group_402" data-name="Group 402">
                                        <g id="Group_401" data-name="Group 401">
                                          <g id="Group_400" data-name="Group 400">
                                            <g id="Group_399" data-name="Group 399">
                                              <g id="Group_398" data-name="Group 398">
                                                <g id="Group_397" data-name="Group 397">
                                                  <path id="Path_322" data-name="Path 322" class="cls-20" d="M505.4,99.68c.26,1.18-.47,2.34-1.64,2.63-1.13,.33-2.31-.31-2.64-1.44,0-.02,0-.03-.01-.05-.26-1.18,.46-2.34,1.63-2.63,1.13-.33,2.31,.31,2.64,1.44,0,.02,.01,.04,.01,.05Z"/>
                                                </g>
                                              </g>
                                            </g>
                                          </g>
                                        </g>
                                      </g>
                                    </g>
                                    <g id="Group_411" data-name="Group 411">
                                      <g id="Group_410" data-name="Group 410">
                                        <g id="Group_409" data-name="Group 409">
                                          <g id="Group_408" data-name="Group 408">
                                            <g id="Group_407" data-name="Group 407">
                                              <g id="Group_406" data-name="Group 406">
                                                <g id="Group_405" data-name="Group 405">
                                                  <g id="Group_404" data-name="Group 404">
                                                    <path id="Path_323" data-name="Path 323" class="cls-20" d="M504.25,96.66c-.21,.34-2.11-.53-4.45-.04-2.34,.46-3.81,2.03-4.12,1.79-.15-.1,.01-.67,.65-1.37,.86-.91,1.99-1.54,3.22-1.79,1.22-.26,2.48-.13,3.62,.38,.83,.4,1.19,.86,1.08,1.02Z"/>
                                                  </g>
                                                </g>
                                              </g>
                                            </g>
                                          </g>
                                        </g>
                                      </g>
                                    </g>
                                  </g>
                                  <g id="Group_420" data-name="Group 420">
                                    <g id="Group_419" data-name="Group 419">
                                      <g id="Group_418" data-name="Group 418">
                                        <g id="Group_417" data-name="Group 417">
                                          <g id="Group_416" data-name="Group 416">
                                            <g id="Group_415" data-name="Group 415">
                                              <g id="Group_414" data-name="Group 414">
                                                <g id="Group_413" data-name="Group 413">
                                                  <path id="Path_324" data-name="Path 324" class="cls-20" d="M516.1,111.46c1.15-.65,2.38-1.14,3.66-1.48,.58-.19,1.12-.42,1.14-.85-.08-.63-.35-1.22-.77-1.69l-2.72-4.18c-3.81-5.96-6.7-10.91-6.46-11.07s3.53,4.56,7.34,10.52c.93,1.47,1.81,2.88,2.65,4.22,.53,.64,.81,1.45,.8,2.28-.09,.46-.38,.86-.8,1.08-.31,.16-.64,.28-.98,.35-2.34,.63-3.81,.95-3.85,.82Z"/>
                                                </g>
                                              </g>
                                            </g>
                                          </g>
                                        </g>
                                      </g>
                                    </g>
                                  </g>
                                  <g id="Group_427" data-name="Group 427">
                                    <g id="Group_426" data-name="Group 426">
                                      <g id="Group_425" data-name="Group 425">
                                        <g id="Group_424" data-name="Group 424">
                                          <g id="Group_423" data-name="Group 423">
                                            <g id="Group_422" data-name="Group 422">
                                              <g id="Group_421" data-name="Group 421">
                                                <path id="Path_325" data-name="Path 325" class="cls-9" d="M523.52,138.8c-7.96,1.8-16.25,1.35-23.97-1.29,0,0,8.24,10.76,24.87,5.62l-.9-4.32Z"/>
                                              </g>
                                            </g>
                                          </g>
                                        </g>
                                      </g>
                                    </g>
                                  </g>
                                </g>
                              </g>
                            </g>
                            <g id="Group_437" data-name="Group 437">
                              <g id="Group_436" data-name="Group 436">
                                <g id="Group_435" data-name="Group 435">
                                  <g id="Group_434" data-name="Group 434">
                                    <g id="Group_433" data-name="Group 433">
                                      <g id="Group_432" data-name="Group 432">
                                        <g id="Group_431" data-name="Group 431">
                                          <path id="Path_326" data-name="Path 326" class="cls-20" d="M504.7,93.33c-.15,.67-2.56,.66-5.3,1.33-2.76,.62-4.9,1.71-5.34,1.18-.2-.26,.12-.91,.95-1.65,2.27-1.85,5.26-2.56,8.11-1.91,1.07,.29,1.65,.73,1.58,1.05Z"/>
                                        </g>
                                      </g>
                                    </g>
                                  </g>
                                </g>
                              </g>
                            </g>
                            <g id="Group_444" data-name="Group 444">
                              <g id="Group_443" data-name="Group 443">
                                <g id="Group_442" data-name="Group 442">
                                  <g id="Group_441" data-name="Group 441">
                                    <g id="Group_440" data-name="Group 440">
                                      <g id="Group_439" data-name="Group 439">
                                        <g id="Group_438" data-name="Group 438">
                                          <path id="Path_327" data-name="Path 327" class="cls-20" d="M525.99,83.68c-.37,.63-2.4,.48-4.7,.94-2.31,.39-4.16,1.24-4.72,.78-.25-.23-.06-.82,.69-1.51,1.04-.87,2.29-1.45,3.63-1.67,1.32-.27,2.69-.17,3.96,.28,.92,.38,1.31,.87,1.14,1.17Z"/>
                                        </g>
                                      </g>
                                    </g>
                                  </g>
                                </g>
                              </g>
                            </g>
                          </g>
                        </g>
                      </g>
                    </g>
                    <g id="Group_449" data-name="Group 449">
                      <path id="Path_328" data-name="Path 328" class="cls-17" d="M483.74,68.28c1.3,6.41,7.56,10.56,13.97,9.25,.72-.15,1.42-.36,2.09-.63,2.49-1.01,5.06-2.91,7.59-2,2.66,.96,3.49,4.5,5.96,5.88,3.53,1.97,7.78-1.45,11.81-1.11,3.11,.26,5.52,2.68,7.96,4.64s5.82,3.59,8.57,2.11c-.63-2.62-1.57-5.17-2.79-7.58-1.23-2.43-3.27-4.35-5.76-5.45-1.42-.4-2.82-.86-4.2-1.4-2.84-1.46-4.11-4.76-6.18-7.19-2.75-3.16-6.85-4.81-11.02-4.42-3.41,.35-6.64,2.07-10.06,1.92-2.53-.11-4.95-1.23-7.48-1.19-4.93,.08-8.63,4.4-11.37,8.5"/>
                    </g>
                  </g>
                </g>
                <path id="Path_329" data-name="Path 329" class="cls-17" d="M500.32,71.88c-2.25-.17-6.89-.64-8.41-2.25-3.31-3.49-8.24-5.32-12.65-4.15-4.67,1.35-7.88,5.62-7.9,10.48-5.61,1.37-10.01,5.7-11.48,11.28-1.49,5.82-.02,12,3.93,16.53,.95,1.19,1.81,2.43,2.58,3.74-1.07,1.32-2,2.74-2.8,4.24-3.6,7.96,6.16,11.01,6.16,11.01,.03,5.35,4.96,5.32,8.12,5.31,3.04-.01,4.92,8.42,7.38,8.09l-2.5-26.06c.37,.14,.76,.21,1.15,.21,5.97,.11,4.41-11.18,2.48-14.1,1.79-2.2,3.29-4.62,4.47-7.2,1.09-2.65,1.16-9.28,.23-12.06,2.08-.31,10.23-5.01,9.24-5.08Z"/>
                <g id="Group_473" data-name="Group 473">
                  <g id="Group_461" data-name="Group 461">
                    <g id="Group_460" data-name="Group 460">
                      <g id="Group_459" data-name="Group 459">
                        <g id="Group_458" data-name="Group 458">
                          <g id="Group_457" data-name="Group 457">
                            <g id="Group_456" data-name="Group 456">
                              <g id="Group_455" data-name="Group 455">
                                <g id="Group_454" data-name="Group 454">
                                  <g id="Group_453" data-name="Group 453">
                                    <g id="Group_452" data-name="Group 452">
                                      <path id="Path_330" data-name="Path 330" class="cls-14" d="M483.64,111.49c-.93-3.57-5.36-5.16-8.11-2.71-1.51,1.35-2.41,3.62-1.46,7.42,2.54,10.13,12.18,5.49,12.13,5.19-.04-.18-1.47-5.72-2.56-9.9Z"/>
                                    </g>
                                  </g>
                                </g>
                              </g>
                            </g>
                          </g>
                        </g>
                      </g>
                    </g>
                  </g>
                  <g id="Group_472" data-name="Group 472">
                    <g id="Group_471" data-name="Group 471">
                      <g id="Group_470" data-name="Group 470">
                        <g id="Group_469" data-name="Group 469">
                          <g id="Group_468" data-name="Group 468">
                            <g id="Group_467" data-name="Group 467">
                              <g id="Group_466" data-name="Group 466">
                                <g id="Group_465" data-name="Group 465">
                                  <g id="Group_464" data-name="Group 464">
                                    <g id="Group_463" data-name="Group 463">
                                      <g id="Group_462" data-name="Group 462">
                                        <path id="Path_331" data-name="Path 331" class="cls-11" d="M482.14,118.33c-.05-.02-.15,.17-.41,.38-.37,.28-.84,.41-1.31,.36-1.17-.12-2.5-1.6-3-3.41-.24-.86-.29-1.77-.14-2.65,.03-.69,.4-1.32,.99-1.69,.39-.22,.88-.12,1.16,.22,.21,.25,.19,.47,.25,.47,.04,.02,.18-.22-.01-.62-.12-.24-.32-.43-.56-.54-.33-.14-.71-.15-1.04-.01-.8,.38-1.35,1.15-1.45,2.03-.21,.99-.17,2.01,.1,2.98,.58,2.02,2.1,3.67,3.67,3.73,.59,.02,1.16-.22,1.55-.67,.25-.33,.25-.57,.2-.58Z"/>
                                      </g>
                                    </g>
                                  </g>
                                </g>
                              </g>
                            </g>
                          </g>
                        </g>
                      </g>
                    </g>
                  </g>
                </g>
              </g>
              <g id="Group_475" data-name="Group 475">
                <path id="Path_332" data-name="Path 332" class="cls-21" d="M537.96,97.34c-.06-.08,.92-.71,2.21-2.29,1.79-2.26,2.89-4.99,3.16-7.87,.21-1.96,.02-3.95-.57-5.83-.67-2.15-1.92-4.09-3.6-5.59-3.98-3.44-9.48-4.52-14.46-2.82-.47,.15-.91,.39-1.36,.57-.43,.22-.83,.48-1.24,.7l-.62,.35v-.69c-.03-1.22-.48-2.39-1.28-3.31-.8-.9-1.8-1.61-2.91-2.08-2.14-.89-4.51-1.06-6.75-.49-4.34,.99-8.02,2.97-11.5,3.37-2.72,.47-5.52-.1-7.85-1.58-.6-.43-1.12-.96-1.54-1.57-.15-.21-.26-.44-.35-.68,.58,.77,1.27,1.45,2.06,2,2.3,1.32,5,1.77,7.6,1.27,1.81-.33,3.58-.84,5.28-1.52,2-.81,4.05-1.48,6.14-2.01,1.16-.27,2.36-.39,3.55-.36,1.26,.07,2.5,.35,3.67,.84,1.23,.51,2.32,1.29,3.21,2.28,.93,1.06,1.46,2.42,1.48,3.83l-.63-.34c.43-.24,.86-.51,1.32-.75,.48-.2,.95-.45,1.45-.61,5.26-1.8,11.08-.64,15.25,3.04,1.76,1.61,3.06,3.66,3.74,5.95,.58,1.98,.75,4.05,.49,6.1-.33,2.96-1.54,5.75-3.49,8.01-.52,.61-1.11,1.15-1.75,1.63-.21,.18-.45,.33-.7,.45Z"/>
              </g>
              <g id="Group_476" data-name="Group 476">
                <path id="Path_333" data-name="Path 333" class="cls-21" d="M535.9,61.78c-1.02-.54-2.12-.92-3.26-1.12-1.3-.18-2.63-.06-3.87,.35-1.61,.5-3.01,1.52-3.99,2.9l-.39,.56-.24-.63c-1.68-3.94-5.35-6.66-9.6-7.13-3.46-.4-6.61,1.16-9.23,2.67-2.3,1.5-4.75,2.77-7.31,3.78-1.76,.67-3.66,.89-5.54,.65-.5-.08-.99-.21-1.47-.4-.32-.14-.48-.22-.47-.25,.02-.07,.7,.21,1.98,.34,1.81,.11,3.62-.19,5.3-.88,2.49-1.08,4.88-2.38,7.13-3.89,1.4-.86,2.87-1.58,4.41-2.15,1.69-.62,3.49-.85,5.29-.68,4.55,.49,8.46,3.45,10.17,7.69l-.62-.07c1.08-1.48,2.63-2.56,4.4-3.05,1.33-.39,2.74-.46,4.11-.2,.87,.16,1.71,.48,2.46,.94,.51,.33,.75,.55,.73,.57Z"/>
              </g>
              <path id="Path_334" data-name="Path 334" class="cls-16" d="M515.2,116.11c-.76-.66-1.77-.95-2.76-.8-1.12,.24-2.08,.94-2.65,1.93-.01,.02-.03,.04-.04,.06-.02,.04-.07,.08-.09,.13l.04-.03c-.23,.35-.33,.77-.3,1.19,.16,.94,.78,1.74,1.64,2.13,1.36,.69,3.01,.45,4.12-.6,1.06-1.12,1.08-2.87,.04-4.01Z"/>
              <g id="Group_477" data-name="Group 477">
                <path id="Path_335" data-name="Path 335" class="cls-20" d="M515.98,121c-.12,.02-.27-.47-.69-1.12-1.05-1.76-3.09-2.69-5.11-2.32-.77,.12-1.24,.32-1.31,.22-.05-.08,.33-.49,1.17-.78,2.31-.77,4.82,.38,5.76,2.62,.33,.82,.28,1.38,.18,1.39Z"/>
              </g>
              <g id="Group_478" data-name="Group 478">
                <path id="Path_336" data-name="Path 336" class="cls-16" d="M483.87,122.95c.08-.05,.45,.79-.14,1.98-.36,.69-.95,1.23-1.68,1.52-1.7,.57-3.55-.34-4.12-2.04-.07-.21-.12-.43-.15-.65-.06-.78,.17-1.55,.64-2.17,.82-1.05,1.74-1.07,1.73-.98,.05,.12-.69,.36-1.24,1.3-.31,.53-.44,1.15-.37,1.76,.26,1.43,1.63,2.37,3.05,2.11,.07-.01,.14-.03,.21-.05,.58-.2,1.09-.59,1.43-1.1,.61-.9,.5-1.67,.64-1.68Z"/>
              </g>
              <g id="Group_479" data-name="Group 479">
                <path id="Path_337" data-name="Path 337" class="cls-16" d="M478.56,122.34c.09,.04-.05,.54-.73,.87-.41,.19-.87,.24-1.31,.13-1.12-.31-1.77-1.47-1.46-2.59,0-.02,.01-.05,.02-.07,.15-.42,.44-.79,.82-1.02,.65-.39,1.14-.23,1.13-.14,0,.12-.39,.2-.78,.6-.6,.57-.63,1.52-.06,2.12,.37,.39,.92,.56,1.44,.43,.54-.12,.82-.4,.92-.33Z"/>
              </g>
            </g>
            <g id="Group_489" data-name="Group 489">
              <path id="Path_338" data-name="Path 338" class="cls-14" d="M495.86,262.07s38.95,2.26,61.98,2.47c17.83,.16,25.78-4.57,29.35-16.03,2.99-9.62-3.44-28.07-3.44-28.07-12.06,.06-19.5,1.72-27.26,5.36l2.07,8.44-62.8,5.41,.11,22.42Z"/>
              <g id="Group_481" data-name="Group 481">
                <path id="Path_339" data-name="Path 339" class="cls-9" d="M571.64,243.23c-.22,.15-2.05-3.27-5.88-5.84-3.8-2.63-7.64-3.09-7.58-3.34,.84-.12,1.69-.05,2.5,.22,4,.95,7.5,3.34,9.85,6.71,.54,.65,.92,1.42,1.11,2.25Z"/>
              </g>
              <g id="Group_488" data-name="Group 488">
                <path id="Path_340" data-name="Path 340" class="cls-14" d="M481.6,225.74h0s-12.05,2.89-20.9,8.8l9.41,25.59c3.14,8.4,12.77,12.52,20.4,8.17,11.85-6.77,16.02-26.53,16.02-26.53l13.02-56.45-21.57-13.52-16.39,53.93"/>
                <g id="Group_487" data-name="Group 487">
                  <path id="Path_341" data-name="Path 341" class="cls-14" d="M497.98,171.81l.87-18.56-4.82-18.8c-.27-1.04-.4-2.34,.45-2.97,.87-.67,2.08-.63,2.91,.09,1.32,1.35,7.61,17.86,7.61,17.86,0,0,9.55-5.74,11.25-6.02s3.83,4.86,3.96,5.26c.07,1.15,.08,2.3,.02,3.45,0,0,5.9,.18,6.43,.99s.68,5.01,.68,5.01c0,0,2.5,.8,2.9,2.69s1.21,5.01,.03,5.69-3.66,2.05-3.66,2.05c0,0-1,9.63-1.26,10.51s-5.79,6.27-5.79,6.27l-21.57-13.52Z"/>
                  <g id="Group_482" data-name="Group 482">
                    <path id="Path_342" data-name="Path 342" class="cls-9" d="M477.92,268.69c.02-.05,.59,.33,1.81,.73,1.8,.57,3.7,.72,5.56,.44,2.99-.43,5.79-1.72,8.05-3.71,2.99-2.73,5.52-5.93,7.49-9.48,1.15-2.08,2.13-4.26,2.92-6.5,.82-2.47,1.49-4.99,2.02-7.54,1.23-5.3,2.57-11.01,3.98-17.08,2.84-12.14,6.01-25.7,9.43-40.32l.02-.11,.08-.08c1.08-1.06,2.17-2.15,3.25-3.28,.54-.56,1.08-1.13,1.59-1.72,.25-.28,.49-.58,.71-.89,.18-.19,.19-.57,.26-.97,.43-3.15,.76-6.4,1.11-9.68l.02-.21,.18-.1,3-1.68c.23-.13,.57-.3,.71-.41,.15-.14,.25-.32,.28-.53,.1-.54,.1-1.09,.02-1.63-.15-1.16-.39-2.3-.7-3.42-.53-.98-1.43-1.7-2.5-2.02l-.27-.1v-.27c-.05-.91-.11-1.85-.21-2.78-.05-.47-.11-.94-.21-1.38-.04-.2-.1-.4-.18-.58-.05-.1-.03-.02-.1-.09-.08-.05-.17-.08-.26-.11-1.89-.42-3.82-.63-5.76-.65l-.41-.02v-.4c.04-.97,.08-2.05,.04-3.07-.06-.37-.18-.73-.37-1.05-.17-.38-.35-.75-.54-1.12-.37-.73-.8-1.43-1.29-2.08-.22-.3-.49-.57-.8-.78-.23-.2-.56-.24-.84-.1-.76,.29-1.5,.63-2.22,1.02-2.94,1.53-5.79,3.2-8.59,4.86l-.41,.24-.17-.44c-1.49-3.73-2.96-7.4-4.4-11.03l-2.15-5.4c-.22-.83-.89-1.45-1.73-1.62-.77-.26-1.62,.06-2.05,.75-.2,.34-.28,.73-.24,1.12,.05,.35,.22,.88,.32,1.31,.24,.91,.48,1.81,.71,2.71,.47,1.8,.94,3.58,1.4,5.35l2.73,10.39v.05s.01,.06,.01,.06c-.31,6.46-.61,12.66-.9,18.56v.08c-5.96,19.35-10.89,35.39-14.35,46.64-1.73,5.57-3.1,9.96-4.04,12.98-.47,1.47-.83,2.6-1.09,3.4-.25,.77-.41,1.16-.41,1.16,0,0,.09-.41,.3-1.19,.23-.81,.57-1.95,.99-3.43l3.86-13.03c3.39-11.27,8.23-27.34,14.05-46.72v.08c.25-5.9,.54-12.1,.83-18.56v.11c-.89-3.39-1.8-6.85-2.74-10.38-.47-1.77-.94-3.55-1.42-5.34-.24-.9-.48-1.8-.72-2.71-.11-.48-.26-.85-.35-1.43-.06-.56,.06-1.12,.34-1.6,.29-.5,.74-.87,1.27-1.07,.53-.17,1.09-.18,1.63-.05,.54,.12,1.03,.37,1.44,.74,.39,.37,.69,.84,.85,1.36,.71,1.79,1.43,3.59,2.16,5.4,1.45,3.62,2.92,7.3,4.42,11.03l-.59-.2c2.81-1.67,5.66-3.34,8.63-4.89,.76-.4,1.54-.76,2.33-1.07,.25-.1,.52-.14,.79-.11,.27,.04,.52,.14,.75,.3,.38,.26,.72,.59,1,.96,.52,.69,.98,1.43,1.37,2.21,.2,.38,.38,.77,.56,1.16,.23,.41,.37,.87,.44,1.34,.05,1.12,0,2.16-.02,3.16l-.4-.43c2.02,.01,4.04,.25,6.01,.7,.14,.05,.28,.1,.41,.18,.17,.09,.31,.24,.41,.41,.12,.25,.21,.52,.26,.8,.11,.5,.17,.98,.22,1.46,.11,.96,.17,1.91,.21,2.84l-.28-.37c1.3,.38,2.39,1.28,3.01,2.49,.35,1.19,.6,2.41,.75,3.64,.09,.63,.08,1.28-.04,1.91-.07,.38-.27,.72-.57,.97-.26,.17-.52,.33-.8,.48l-3.01,1.68,.21-.31c-.35,3.29-.69,6.52-1.12,9.71l-.1,.61c-.04,.25-.14,.48-.29,.69-.24,.34-.5,.66-.78,.97-.53,.6-1.07,1.18-1.61,1.74-1.09,1.13-2.18,2.23-3.27,3.29l.11-.19c-3.46,14.6-6.67,28.16-9.55,40.29-1.44,6.06-2.8,11.76-4.06,17.06-.54,2.57-1.24,5.1-2.08,7.59-.81,2.27-1.82,4.46-3,6.56-2.01,3.57-4.6,6.79-7.66,9.52-2.33,2.02-5.21,3.3-8.27,3.69-1.9,.26-3.83,.06-5.64-.57-.46-.16-.91-.37-1.34-.61-.15-.08-.29-.16-.43-.27Z"/>
                  </g>
                  <g id="Group_483" data-name="Group 483">
                    <path id="Path_343" data-name="Path 343" class="cls-9" d="M520.22,152.09c0,.12-.53,.18-1.36,.21-1.05,.02-2.1,.14-3.13,.37-.99,.25-1.91,.74-2.67,1.43-.58,.54-.83,.99-.94,.94-.09-.03-.03-.6,.51-1.33,.74-.92,1.76-1.56,2.9-1.83,1.1-.26,2.24-.31,3.36-.16,.84,.11,1.34,.25,1.34,.36Z"/>
                  </g>
                  <g id="Group_484" data-name="Group 484">
                    <path id="Path_344" data-name="Path 344" class="cls-9" d="M515.6,152.26c-.21-.08-.23-.57-.03-1.09s.52-.88,.74-.8,.23,.57,.03,1.09-.52,.88-.74,.8Z"/>
                  </g>
                  <g id="Group_485" data-name="Group 485">
                    <path id="Path_345" data-name="Path 345" class="cls-9" d="M527.59,157.97c0,.24-2.11,.48-4.67,.65-1.02-.02-1.98,.44-2.6,1.25-.42,.64-.28,1.18-.4,1.21-.08,.07-.5-.53-.12-1.47,.22-.53,.62-.97,1.12-1.25,.59-.31,1.23-.5,1.89-.55,2.65-.17,4.78-.05,4.77,.17Z"/>
                  </g>
                  <g id="Group_486" data-name="Group 486">
                    <path id="Path_346" data-name="Path 346" class="cls-9" d="M526.54,163.63c.23,0,.36,1.17,.29,2.6s-.3,2.57-.52,2.56-.36-1.17-.29-2.6,.3-2.57,.52-2.56Z"/>
                  </g>
                </g>
              </g>
            </g>
            <g id="Group_491" data-name="Group 491">
              <path id="Path_347" data-name="Path 347" class="cls-2" d="M533.08,206.01l1.4-4.82c.2-.7,.93-1.1,1.63-.9,.22,.06,.42,.18,.57,.34l1.82,1.86,1.14-4.54c.18-.71,.89-1.13,1.6-.96,.38,.1,.7,.35,.87,.71l2.58,5.37-11.61,2.93Z"/>
              <g id="Group_490" data-name="Group 490">
                <path id="Path_348" data-name="Path 348" class="cls-2" d="M544.72,205.14c.05,.22-2.43,1.02-5.56,1.8s-5.7,1.22-5.75,1,2.43-1.02,5.56-1.8,5.7-1.22,5.75-1Z"/>
              </g>
            </g>
            <g id="Group_492" data-name="Group 492">
              <path id="Path_349" data-name="Path 349" class="cls-2" d="M451.16,178.25s-.58,.6-1.4,1.87c-1.1,1.82-1.82,3.84-2.13,5.94-.44,3.12-.54,6.28-.28,9.43,.17,3.56,.46,7.47,.9,11.56,.75,6.99,1.85,13.93,3.32,20.8,.56,2.64,1.06,4.76,1.41,6.23,.16,.65,.29,1.21,.4,1.69,.09,.39,.12,.6,.12,.6,0,0-.07-.2-.18-.58-.13-.48-.29-1.03-.47-1.68-.39-1.46-.92-3.58-1.51-6.21-1.54-6.87-2.68-13.82-3.42-20.81-.44-4.1-.72-8.02-.87-11.58-.24-3.16-.12-6.34,.36-9.48,.33-2.12,1.1-4.16,2.25-5.97,.43-.66,.93-1.27,1.51-1.8Z"/>
            </g>
            <g id="Group_493" data-name="Group 493">
              <path id="Path_350" data-name="Path 350" class="cls-2" d="M484.27,156.86c-.11,.08-.23,.14-.35,.19l-1.04,.5c-.9,.43-2.2,1.06-3.76,1.93-4.06,2.26-8.01,4.72-11.82,7.39-4.49,3.09-8.48,6.01-11.38,8.09l-3.45,2.45-.95,.65c-.11,.08-.22,.15-.35,.21,.09-.1,.19-.19,.3-.26l.92-.7,3.39-2.53c2.87-2.12,6.84-5.07,11.33-8.17,3.82-2.67,7.79-5.12,11.9-7.32,1.58-.84,2.9-1.44,3.82-1.84l1.07-.44c.12-.06,.25-.11,.38-.14Z"/>
            </g>
            <g id="Group_494" data-name="Group 494">
              <path id="Path_351" data-name="Path 351" class="cls-2" d="M559.3,167.09c-.1-.06-.18-.12-.26-.2l-.71-.61c-.88-.74-1.8-1.43-2.76-2.06-3.19-2.04-6.58-3.76-10.11-5.12-3.53-1.39-7.13-2.59-10.79-3.59-1.4-.39-2.55-.68-3.33-.87-.32-.08-.62-.16-.91-.23-.11-.02-.21-.05-.31-.1,.11,0,.22,.01,.33,.04l.92,.17c.8,.16,1.95,.41,3.37,.77,3.69,.93,7.31,2.1,10.85,3.51,3.56,1.36,6.95,3.12,10.12,5.23,1.32,.87,2.52,1.9,3.6,3.06Z"/>
            </g>
            <g id="Group_495" data-name="Group 495">
              <path id="Path_352" data-name="Path 352" class="cls-2" d="M484.71,287.18c-.21-.04-.42-.11-.61-.21-.54-.23-1.07-.51-1.56-.83-1.71-1.03-2.93-2.7-3.42-4.63-.43-1.93-.22-3.96,.61-5.76,.25-.54,.55-1.05,.91-1.52,.12-.18,.27-.34,.44-.48-.42,.67-.8,1.37-1.14,2.09-.74,1.77-.91,3.72-.5,5.59,.47,1.86,1.63,3.47,3.23,4.51,1.21,.84,2.07,1.18,2.04,1.24Z"/>
            </g>
            <g id="Group_496" data-name="Group 496">
              <path id="Path_353" data-name="Path 353" class="cls-2" d="M479.71,270.15c.6,1.28,1,2.64,1.18,4.04-.6-1.28-1-2.64-1.18-4.04Z"/>
            </g>
            <g id="Group_550" data-name="Group 550">
              <g id="Group_497" data-name="Group 497">
                <path id="Path_354" data-name="Path 354" class="cls-17" d="M500.97,622.88l47.99-.24-.87-165.91-.45-168.76-65-.81-11.67,22.03c-4.79,8.86-7.84,18.55-8.99,28.55-.82,7.62,4.9,32.49,6.89,38.82l17.89,56.73,14.21,189.6Z"/>
                <path id="Path_355" data-name="Path 355" class="cls-17" d="M561.73,288.19l52.73,143.75c6.19,19.26,4.12,38.36-6.5,56.16l-61.22,119.5-34.42-43.06,51.22-107.05-45.16-73.16,7.6-95.98,21.27-.34,14.48,.19Z"/>
              </g>
              <g id="Group_498" data-name="Group 498">
                <path id="Path_356" data-name="Path 356" class="cls-6" d="M543.27,336.35s.04,.25,.07,.74c.03,.52,.08,1.24,.14,2.17,.1,1.94,.25,4.74,.44,8.33,.35,7.28,.86,17.74,1.48,30.66,.6,12.96,1.31,28.37,2.09,45.47,.38,8.56,.79,17.54,1.21,26.85,.3,4.65,.16,9.4,.22,14.21,.01,4.81,.03,9.69,.04,14.64,.07,39.54,.13,75.33,.17,101.27-.02,12.93-.03,23.41-.04,30.69-.02,3.59-.04,6.4-.05,8.34-.01,.92-.02,1.65-.03,2.17-.01,.49-.04,.74-.04,.74,0,0-.03-.25-.04-.74l-.05-2.17c-.02-1.95-.06-4.75-.1-8.34-.05-7.28-.13-17.76-.22-30.69-.11-25.94-.25-61.73-.41-101.26-.01-4.94-.03-9.82-.04-14.64-.05-4.81,.09-9.56-.21-14.21-.4-9.31-.79-18.29-1.16-26.85-.72-17.11-1.37-32.52-1.92-45.47-.51-12.92-.93-23.39-1.22-30.66-.13-3.59-.22-6.39-.29-8.34-.02-.92-.04-1.65-.05-2.17,0-.49,0-.74,0-.74Z"/>
              </g>
              <g id="Group_499" data-name="Group 499">
                <path id="Path_357" data-name="Path 357" class="cls-6" d="M542.07,291.03c.18,.5,.29,1.03,.33,1.56,.16,1.01,.36,2.48,.57,4.3,.42,3.64,.86,8.68,1.12,14.27s.26,10.65,.17,14.31c-.04,1.83-.11,3.31-.18,4.33,0,.53-.06,1.07-.19,1.59-.19-1.97-.26-3.95-.21-5.92-.06-3.66-.16-8.7-.41-14.28s-.6-10.61-.87-14.25c-.23-1.96-.34-3.94-.32-5.91Z"/>
              </g>
              <g id="Group_500" data-name="Group 500">
                <path id="Path_358" data-name="Path 358" class="cls-6" d="M531.49,294.27c-.51,.49-.88,1.11-1.06,1.79-.15,.7,.08,1.43,.61,1.92,.81,.82,2.14,.83,2.96,.02,.44-.43,.66-1.04,.61-1.65-.03-.72-.43-1.37-1.05-1.71-.64-.31-1.35-.44-2.05-.37-.02-.04,.15-.21,.56-.33,1.44-.35,2.89,.54,3.24,1.99,.03,.13,.05,.25,.06,.38,.16,1.55-.96,2.93-2.51,3.09-.87,.09-1.74-.23-2.34-.87-1.03-1.07-1-2.77,.07-3.8,.09-.09,.19-.17,.3-.25,.36-.23,.6-.25,.61-.21Z"/>
              </g>
              <g id="Group_501" data-name="Group 501">
                <path id="Path_359" data-name="Path 359" class="cls-6" d="M506.31,291.42c.23,.47,.37,.98,.43,1.51,.25,1.41,.3,2.85,.14,4.27-.22,2.13-.84,4.2-1.82,6.1-2.38,4.8-6.99,8.11-12.3,8.83-2.11,.32-4.27,.24-6.36-.23-1.4-.31-2.75-.81-4.01-1.5-.48-.22-.91-.52-1.29-.89,1.73,.8,3.55,1.41,5.41,1.82,8.93,1.87,17.68-3.86,19.55-12.79,.1-.47,.17-.94,.23-1.41,.2-1.9,.2-3.81,0-5.71Z"/>
              </g>
              <g id="Group_502" data-name="Group 502">
                <path id="Path_360" data-name="Path 360" class="cls-6" d="M568.04,305.19c-1.02,.13-2.06,0-3.02-.36-4.84-1.52-8.49-5.54-9.54-10.51-.27-.99-.29-2.04-.06-3.04,.15,0,.15,1.16,.63,2.91,1.29,4.62,4.68,8.36,9.16,10.09,1.7,.64,2.85,.76,2.84,.91Z"/>
              </g>
              <g id="Group_503" data-name="Group 503">
                <path id="Path_361" data-name="Path 361" class="cls-6" d="M586.79,460.17c-.79,.9-1.73,1.65-2.78,2.21-1.11,.7-2.31,1.23-3.58,1.56-1.59,.42-3.26,.37-4.83-.13-2.74-1.04-5.09-2.91-6.72-5.35-.76-.92-1.38-1.94-1.84-3.03,.85,.82,1.62,1.71,2.3,2.67,1.67,2.22,3.93,3.92,6.52,4.93,3.08,1.03,6.03-.18,7.87-1.16,.99-.62,2.01-1.2,3.07-1.71Z"/>
              </g>
              <g id="Group_504" data-name="Group 504">
                <path id="Path_362" data-name="Path 362" class="cls-6" d="M574.78,469.35c-.18,.13-2.41-2.68-4.97-6.28s-4.48-6.62-4.3-6.75,2.41,2.68,4.97,6.28,4.48,6.62,4.3,6.75Z"/>
              </g>
              <g id="Group_505" data-name="Group 505">
                <path id="Path_363" data-name="Path 363" class="cls-3" d="M494.15,341.93c-.21,.08-.77-.82-1.25-2.02s-.7-2.24-.49-2.33,.77,.82,1.25,2.02,.7,2.24,.49,2.33Z"/>
              </g>
              <g id="Group_506" data-name="Group 506">
                <path id="Path_364" data-name="Path 364" class="cls-3" d="M524.61,346.28c-.23,0-.41-.78-.41-1.74s.18-1.74,.41-1.74,.41,.78,.41,1.74-.18,1.74-.41,1.74Z"/>
              </g>
              <g id="Group_507" data-name="Group 507">
                <path id="Path_365" data-name="Path 365" class="cls-3" d="M512.09,362.82c-.23,.02-.48-.95-.56-2.15s.04-2.19,.26-2.2,.48,.95,.56,2.15-.03,2.18-.26,2.2Z"/>
              </g>
              <g id="Group_508" data-name="Group 508">
                <path id="Path_366" data-name="Path 366" class="cls-3" d="M489.22,375c-.19,.14-.83-.44-1.68-1.05s-1.59-1.05-1.51-1.27,1.04-.08,1.99,.61,1.38,1.59,1.2,1.71Z"/>
              </g>
              <g id="Group_509" data-name="Group 509">
                <path id="Path_367" data-name="Path 367" class="cls-3" d="M529.54,390.38c-.19-.13,.05-.81,.53-1.53s1.02-1.2,1.21-1.08-.05,.81-.53,1.53-1.02,1.2-1.21,1.08Z"/>
              </g>
              <g id="Group_510" data-name="Group 510">
                <path id="Path_368" data-name="Path 368" class="cls-3" d="M504.59,394.73c-.23,0-.41-1.3-.41-2.9s.18-2.9,.41-2.9,.41,1.3,.41,2.9-.18,2.9-.41,2.9Z"/>
              </g>
              <g id="Group_511" data-name="Group 511">
                <path id="Path_369" data-name="Path 369" class="cls-3" d="M496.51,412.38c-.13,.18-.95-.19-1.84-.83s-1.49-1.31-1.36-1.49,.95,.19,1.84,.83,1.49,1.31,1.35,1.49Z"/>
              </g>
              <g id="Group_512" data-name="Group 512">
                <path id="Path_370" data-name="Path 370" class="cls-3" d="M521.71,418.52c.09,.21-.42,.63-1.14,.95s-1.38,.41-1.47,.21,.42-.63,1.14-.95,1.38-.41,1.47-.21Z"/>
              </g>
              <g id="Group_513" data-name="Group 513">
                <path id="Path_371" data-name="Path 371" class="cls-3" d="M504.59,447.24c-.2,.1-1.02-1.12-1.82-2.72s-1.29-2.98-1.08-3.08,1.02,1.11,1.82,2.72,1.29,2.98,1.08,3.08Z"/>
              </g>
              <g id="Group_514" data-name="Group 514">
                <path id="Path_372" data-name="Path 372" class="cls-3" d="M532.44,444.63c-.2-.11,.16-1.17,.8-2.37s1.32-2.09,1.52-1.98-.16,1.17-.8,2.37-1.32,2.09-1.52,1.98Z"/>
              </g>
              <g id="Group_515" data-name="Group 515">
                <path id="Path_373" data-name="Path 373" class="cls-3" d="M520.26,469c-.23-.04-.21-1.28-.46-2.75-.23-1.48-.62-2.65-.42-2.76,.19-.11,.97,1.01,1.23,2.63s-.14,2.92-.36,2.88Z"/>
              </g>
              <g id="Group_516" data-name="Group 516">
                <path id="Path_374" data-name="Path 374" class="cls-3" d="M507.2,482.92c-.17,.15-.95-.44-1.75-1.32s-1.32-1.72-1.15-1.87,.95,.44,1.75,1.32,1.32,1.72,1.15,1.87Z"/>
              </g>
              <g id="Group_517" data-name="Group 517">
                <path id="Path_375" data-name="Path 375" class="cls-3" d="M538.89,488.21c-.16-.16,.42-1.01,1.29-1.89s1.71-1.48,1.88-1.32-.42,1.01-1.29,1.89-1.71,1.48-1.88,1.32Z"/>
              </g>
              <g id="Group_518" data-name="Group 518">
                <path id="Path_376" data-name="Path 376" class="cls-3" d="M520.67,509.05c-.22-.03-.23-1.23,0-2.68s.58-2.59,.8-2.55,.23,1.23,0,2.68-.58,2.59-.8,2.55Z"/>
              </g>
              <g id="Group_519" data-name="Group 519">
                <path id="Path_377" data-name="Path 377" class="cls-3" d="M508.4,519.17c-.2,.11-.88-.7-1.54-1.81s-1.02-2.11-.83-2.23,.88,.7,1.54,1.81,1.02,2.11,.83,2.23Z"/>
              </g>
              <g id="Group_520" data-name="Group 520">
                <path id="Path_378" data-name="Path 378" class="cls-3" d="M537.94,531.94c.13,.18-.67,.98-1.79,1.79s-2.14,1.3-2.27,1.12,.67-.98,1.79-1.79,2.14-1.3,2.27-1.12Z"/>
              </g>
              <g id="Group_521" data-name="Group 521">
                <path id="Path_379" data-name="Path 379" class="cls-3" d="M513.34,548.51c-.22-.08,.06-1.35,.19-2.91s.09-2.86,.32-2.9c.21-.05,.65,1.29,.5,2.97s-.81,2.92-1.01,2.84Z"/>
              </g>
              <g id="Group_522" data-name="Group 522">
                <path id="Path_380" data-name="Path 380" class="cls-3" d="M523.16,572.28c-.18,.14-.84-.39-1.48-1.19s-1.02-1.57-.84-1.71,.84,.39,1.48,1.2,1.01,1.56,.84,1.7Z"/>
              </g>
              <g id="Group_523" data-name="Group 523">
                <path id="Path_381" data-name="Path 381" class="cls-3" d="M512.43,588.24c-.19,.13-1.05-.81-1.93-2.09s-1.44-2.42-1.26-2.55,1.05,.81,1.93,2.09,1.44,2.42,1.26,2.55Z"/>
              </g>
              <g id="Group_524" data-name="Group 524">
                <path id="Path_382" data-name="Path 382" class="cls-3" d="M542.01,568.22c-.21-.08-.19-.66,.05-1.3s.61-1.1,.82-1.02,.19,.66-.05,1.3-.6,1.1-.82,1.02Z"/>
              </g>
              <g id="Group_525" data-name="Group 525">
                <path id="Path_383" data-name="Path 383" class="cls-3" d="M528.96,606.22c-.21-.11,.19-1.23,.49-2.63s.43-2.58,.67-2.59,.48,1.25,.13,2.77-1.1,2.56-1.29,2.45Z"/>
              </g>
              <g id="Group_526" data-name="Group 526">
                <path id="Path_384" data-name="Path 384" class="cls-3" d="M537.45,363.07c-.21,.1-.7-.54-1.11-1.41s-.58-1.66-.37-1.76,.7,.54,1.11,1.41,.58,1.67,.37,1.76Z"/>
              </g>
              <g id="Group_527" data-name="Group 527">
                <path id="Path_385" data-name="Path 385" class="cls-3" d="M515.62,314.08c.12,.2-.98,1.09-2.15,2.34s-1.99,2.41-2.2,2.3c-.2-.09,.34-1.52,1.6-2.86s2.64-1.97,2.75-1.78Z"/>
              </g>
              <g id="Group_528" data-name="Group 528">
                <path id="Path_386" data-name="Path 386" class="cls-3" d="M535.05,313.5c-.23,.05-.6-.89-1.14-1.97s-1.06-1.94-.89-2.09c.16-.15,1.03,.54,1.62,1.73s.63,2.3,.41,2.33Z"/>
              </g>
              <g id="Group_529" data-name="Group 529">
                <path id="Path_387" data-name="Path 387" class="cls-3" d="M474.49,329.49c-.21-.08,0-1.13,.48-2.33s1.03-2.11,1.24-2.03,0,1.13-.48,2.33-1.03,2.11-1.24,2.03Z"/>
              </g>
              <g id="Group_530" data-name="Group 530">
                <path id="Path_388" data-name="Path 388" class="cls-3" d="M476.45,353.24c-.14,.17-1.04-.33-2-1.14s-1.62-1.59-1.48-1.77,1.04,.33,2,1.14,1.63,1.59,1.48,1.77Z"/>
              </g>
              <g id="Group_531" data-name="Group 531">
                <path id="Path_389" data-name="Path 389" class="cls-3" d="M516.19,295.22c-.21,.08-.64-.5-.96-1.3s-.41-1.52-.2-1.6,.64,.5,.96,1.3,.41,1.51,.2,1.6Z"/>
              </g>
              <g id="Group_532" data-name="Group 532">
                <path id="Path_390" data-name="Path 390" class="cls-3" d="M554.25,306.84c-.22-.05-.2-1,.05-2.12s.62-1.99,.84-1.94,.2,1-.04,2.12-.62,1.99-.84,1.94Z"/>
              </g>
              <g id="Group_533" data-name="Group 533">
                <path id="Path_391" data-name="Path 391" class="cls-3" d="M563.2,324.81c-.21-.09,.08-1.26,.64-2.62s1.19-2.4,1.4-2.31-.08,1.26-.64,2.62-1.19,2.4-1.4,2.31Z"/>
              </g>
              <g id="Group_534" data-name="Group 534">
                <path id="Path_392" data-name="Path 392" class="cls-3" d="M556.81,339.32c-.2,.1-.95-.99-1.67-2.43s-1.14-2.69-.94-2.79,.95,.99,1.67,2.43c.72,1.44,1.14,2.69,.94,2.8Z"/>
              </g>
              <g id="Group_535" data-name="Group 535">
                <path id="Path_393" data-name="Path 393" class="cls-3" d="M570.45,353.82c-.21-.08-.06-.99,.34-2.03s.9-1.82,1.11-1.74,.06,.99-.34,2.03-.9,1.82-1.11,1.74Z"/>
              </g>
              <g id="Group_536" data-name="Group 536">
                <path id="Path_394" data-name="Path 394" class="cls-3" d="M558.26,368.04c-.19,.12-.67-.3-1.07-.94s-.57-1.26-.38-1.38,.67,.3,1.07,.94,.57,1.26,.38,1.38Z"/>
              </g>
              <g id="Group_537" data-name="Group 537">
                <path id="Path_395" data-name="Path 395" class="cls-3" d="M560.86,397.35c-.17,.15-1.14-.63-2.19-1.75s-1.75-2.15-1.59-2.31,1.14,.63,2.19,1.75,1.75,2.15,1.59,2.31Z"/>
              </g>
              <g id="Group_538" data-name="Group 538">
                <path id="Path_396" data-name="Path 396" class="cls-3" d="M576.83,380.51c-.18,.14-1.04-.66-1.92-1.78s-1.45-2.14-1.27-2.28,1.04,.66,1.92,1.78,1.45,2.14,1.27,2.28Z"/>
              </g>
              <g id="Group_539" data-name="Group 539">
                <path id="Path_397" data-name="Path 397" class="cls-3" d="M585.59,403.75c-.2-.1,.15-1.28,.8-2.64s1.33-2.39,1.54-2.29-.15,1.28-.8,2.64-1.33,2.38-1.54,2.29Z"/>
              </g>
              <g id="Group_540" data-name="Group 540">
                <path id="Path_398" data-name="Path 398" class="cls-3" d="M566.97,422.87c-.2,.12-.93-.75-1.94-1.68s-1.93-1.59-1.83-1.8c.09-.2,1.28,.18,2.38,1.2s1.58,2.17,1.39,2.28Z"/>
              </g>
              <g id="Group_541" data-name="Group 541">
                <path id="Path_399" data-name="Path 399" class="cls-3" d="M568.13,442.6c0,.23-.78,.41-1.74,.41s-1.74-.18-1.74-.41,.78-.41,1.74-.41,1.74,.18,1.74,.41Z"/>
              </g>
              <g id="Group_542" data-name="Group 542">
                <path id="Path_400" data-name="Path 400" class="cls-3" d="M587.27,437.09c-.2-.12,.21-1.1,.51-2.34s.42-2.29,.65-2.3c.22-.02,.49,1.12,.14,2.5s-1.12,2.26-1.3,2.14Z"/>
              </g>
              <g id="Group_543" data-name="Group 543">
                <path id="Path_401" data-name="Path 401" class="cls-3" d="M606.29,443.7c-.21,.07-.8-1.03-1.3-2.46s-.74-2.66-.52-2.73,.79,1.03,1.3,2.46,.74,2.66,.52,2.73Z"/>
              </g>
              <g id="Group_544" data-name="Group 544">
                <path id="Path_402" data-name="Path 402" class="cls-3" d="M603.27,470.76c-.2-.1,.28-1.42,1.08-2.95s1.61-2.67,1.81-2.57-.29,1.42-1.08,2.95-1.61,2.67-1.81,2.57Z"/>
              </g>
              <g id="Group_545" data-name="Group 545">
                <path id="Path_403" data-name="Path 403" class="cls-3" d="M585.91,486.66c-.21,.09-.85-1-1.44-2.43s-.9-2.66-.68-2.75,.85,1.01,1.44,2.44,.89,2.66,.68,2.74Z"/>
              </g>
              <g id="Group_546" data-name="Group 546">
                <path id="Path_404" data-name="Path 404" class="cls-3" d="M566.68,492.79c0,.23-.65,.41-1.45,.41s-1.45-.18-1.45-.41,.65-.41,1.45-.41,1.45,.18,1.45,.41Z"/>
              </g>
              <g id="Group_547" data-name="Group 547">
                <path id="Path_405" data-name="Path 405" class="cls-3" d="M577.7,518.03c-.22,.06-.66-.87-.98-2.07s-.4-2.22-.19-2.28,.66,.87,.98,2.07,.4,2.22,.18,2.28Z"/>
              </g>
              <g id="Group_548" data-name="Group 548">
                <path id="Path_406" data-name="Path 406" class="cls-3" d="M563.78,509.62c-.2-.12,.04-.86,.52-1.66s1.03-1.36,1.22-1.24-.04,.86-.52,1.66-1.03,1.36-1.22,1.24Z"/>
              </g>
              <g id="Group_549" data-name="Group 549">
                <path id="Path_407" data-name="Path 407" class="cls-3" d="M563.49,537.47c-.23,.03-.54-1.06-.7-2.42s-.11-2.49,.12-2.51,.54,1.06,.7,2.42,.11,2.49-.12,2.51Z"/>
              </g>
            </g>
          </g>
        </g>
      </g>
    </g>
  </g>
</svg>