<?xml version="1.0" encoding="UTF-8"?>
<svg id="Layer_2" data-name="Layer 2" xmlns="http://www.w3.org/2000/svg" viewBox="0 0 24 24">
  <defs>
    <style>
      .cls-1 {
        fill: #475d75;
      }

      .cls-2 {
        fill: none;
      }
    </style>
  </defs>
  <g id="Layer_1-2" data-name="Layer 1">
    <g>
      <g>
        <path class="cls-1" d="M18.36,19.94c-.23-.23-.23-.6,0-.83,0,0,0,0,0,0l1.35-1.35h-4.07c-.32,0-.59-.26-.59-.59s.26-.59,.59-.59h4.07l-1.35-1.35c-.24-.22-.25-.59-.03-.83,.22-.24,.59-.25,.83-.03,.01,0,.02,.02,.03,.03l2.35,2.35c.23,.23,.23,.6,0,.83l-2.35,2.35c-.23,.22-.6,.22-.83,0Z"/>
        <path id="Vector-3" class="cls-1" d="M17,3H7c-3,0-5,1.5-5,5v7.96c0,2.28,1.85,4.14,4.13,4.14,0,0,0,0,.01,0h6.26c.55,.01,1.01-.43,1.02-.98,0-.03,0-.06,0-.09-.15-1.69,.49-3.35,1.72-4.51,.56-.55,1.25-.97,2-1.21,1.15-.38,2.39-.37,3.53,.02,.52,.18,1.09-.09,1.27-.61,.04-.1,.06-.21,.06-.33v-4.39c0-3.5-2-5-5-5Zm.47,5.59l-3.13,2.5c-1.38,1.05-3.3,1.05-4.68,0l-3.13-2.5c-.32-.26-.37-.73-.12-1.06,.26-.32,.73-.38,1.05-.12l3.13,2.5c.84,.61,1.97,.61,2.81,0l3.13-2.5c.32-.26,.78-.21,1.04,.11,0,0,0,0,.01,.01,.26,.32,.21,.8-.11,1.06Z"/>
      </g>
      <path id="Vector-4" class="cls-2" d="M0,0H24V24H0V0Z"/>
    </g>
  </g>
</svg>