<?xml version="1.0" encoding="UTF-8"?>
<svg id="Layer_2" data-name="Layer 2" xmlns="http://www.w3.org/2000/svg" viewBox="0 0 637.5 181.59">
  <defs>
    <style>
      .cls-1 {
        fill: #289947;
      }

      .cls-1, .cls-2, .cls-3 {
        fill-rule: evenodd;
      }

      .cls-2 {
        fill: #fff;
      }

      .cls-4, .cls-3 {
        fill: #3374b9;
      }
    </style>
  </defs>
  <g id="Layer_1-2" data-name="Layer 1">
    <g>
      <path class="cls-2" d="m535.49,15.98l102.01,84.35-108.03,73.87,78.23-64.82-56.23-46.64c2.99-15.24.09-31.22-15.99-46.76"/>
      <path class="cls-2" d="m547.87,71.18l46.4,38.55-85.1,71.86,63.24-66.01-38.25-31.23c5.04-3.48,9.98-6.8,13.7-13.17"/>
      <path class="cls-2" d="m505.72,101.17c10.11,0,16.9,9.57,15.13,21.32-1.77,11.74-11.45,21.32-21.56,21.32s-16.89-9.58-15.12-21.32c1.77-11.75,11.45-21.32,21.56-21.32m-84.07,5.93c13.71-1.29,18.18-3.95,20.65-10.47h3.46l-7.87,51.43h-6.32l5.56-37.38-15.92-.25c.1-1.1.34-2.22.44-3.32Zm71.32,1.32c1.81,4.03,2.49,8.81,1.69,13.93-.82,5.19-3.03,10.03-6.16,14.07l-.35-.53-.43-.71-.39-.74-.36-.77-.32-.79-.29-.83-.25-.85v-.05c1.41-2.64,2.42-5.58,2.89-8.66.46-3.05.34-5.95-.26-8.58l.5-.84.54-.84.57-.81.6-.78.62-.75.65-.72.67-.69.08-.07Zm-18.46-11.79c5.51,0,10.29,1.98,13.85,5.32l-.26.21-1.03.9-.99.94-.95.98-.65.72c-2.68-2.84-6.34-4.53-10.6-4.53-10.1,0-19.79,9.57-21.56,21.32-1.77,11.74,5.02,21.32,15.13,21.32,4.29,0,8.49-1.72,12.06-4.61l.24.4.65,1,.72.95.75.92.2.21c-4.62,3.37-10.06,5.39-15.62,5.39-13.32,0-22.37-11.57-20.15-25.73,2.21-14.17,14.89-25.73,28.21-25.73Zm31.84,0c13.32,0,22.37,11.56,20.15,25.73-2.22,14.17-14.89,25.73-28.21,25.73s-22.37-11.57-20.15-25.73c2.22-14.17,14.89-25.73,28.21-25.73Z"/>
      <path class="cls-3" d="m535.49,15.99l102.01,84.35-108.03,73.87,78.23-64.82-56.23-46.63c2.99-15.25.09-31.22-15.99-46.76"/>
      <path class="cls-1" d="m547.87,71.18l46.4,38.55-85.1,71.86,63.24-66.01-38.25-31.23c5.04-3.48,9.98-6.8,13.7-13.17"/>
      <path class="cls-1" d="m123.9,105.98c2.58,0,4.64.73,6.19,2.24,1.55,1.48,2.3,3.47,2.3,5.98,0,2.75-.89,5.02-2.71,6.77-1.82,1.78-4.12,2.68-6.98,2.68-2.5,0-4.53-.75-6.05-2.23-1.51-1.48-2.27-3.44-2.27-5.88,0-2.79.89-5.1,2.68-6.88,1.79-1.79,4.05-2.68,6.84-2.68m.04,4.34c-1.41,0-2.55.48-3.41,1.41-.85.96-1.3,2.23-1.3,3.78,0,1.17.34,2.1.96,2.78.65.69,1.54,1.03,2.65,1.03,1.41,0,2.54-.48,3.4-1.41.86-.92,1.3-2.17,1.3-3.68,0-1.23-.31-2.19-.96-2.85-.62-.69-1.52-1.06-2.65-1.06Zm17.56-3.78l-.89,6.88c-.04.21-.07.48-.1.85-.17,1.04-.24,1.75-.24,2.14,0,.99.27,1.74.76,2.26.51.51,1.27.79,2.19.79,1.31,0,2.27-.41,2.92-1.27.62-.86,1.1-2.54,1.45-5.05l.86-6.6h4.74l-.96,7.18c-.31,2.27-.65,3.92-1.03,4.98-.41,1.07-.96,1.96-1.65,2.64-.75.76-1.65,1.34-2.75,1.72-1.07.38-2.3.59-3.68.59-2.34,0-4.2-.55-5.57-1.65-1.37-1.1-2.06-2.58-2.06-4.44,0-.45.03-1.07.1-1.86.07-.79.21-1.85.38-3.16l.79-6.02h4.75Zm27.95,5.32c-.72-.59-1.41-1.03-2.07-1.3-.65-.28-1.31-.41-1.99-.41-1.51,0-2.75.49-3.68,1.48-.92.97-1.41,2.27-1.41,3.89,0,1.24.38,2.2,1.14,2.92.76.69,1.75,1.07,3.06,1.07.69,0,1.41-.1,2.17-.34.76-.21,1.58-.55,2.48-1l-.79,4.54c-.69.34-1.37.59-2.13.72-.75.17-1.55.24-2.4.24-2.54,0-4.58-.72-6.09-2.2-1.51-1.48-2.27-3.44-2.27-5.91,0-2.79.9-5.1,2.68-6.88,1.76-1.79,4.02-2.68,6.77-2.68,1.1,0,2.1.15,3.02.45.96.27,1.83.72,2.65,1.34l-1.14,4.09Zm2.34,11.14l3.44-26.03h4.71l-1.27,9.73c-.07.48-.14.92-.25,1.28-.07.34-.17.68-.3.99.96-1.03,1.92-1.79,2.89-2.26.96-.48,1.99-.73,3.09-.73,1.79,0,3.16.42,4.16,1.31,1,.86,1.48,2.1,1.48,3.64,0,.62-.11,1.62-.27,2.99-.03.18-.03.28-.07.34l-1.13,8.74h-4.75l1.21-9.18c.03-.35.07-.62.07-.86.04-.24.04-.44.04-.58,0-.79-.21-1.38-.65-1.82-.44-.41-1.07-.62-1.86-.62-1.37,0-2.44.42-3.23,1.21-.76.83-1.24,2.07-1.47,3.78l-1.07,8.08h-4.74Zm21.11,0l2.13-16.47h4.74l-2.13,16.47h-4.74Zm2.51-22.83c0-.78.27-1.44.82-1.99.51-.52,1.2-.79,1.96-.79.79,0,1.44.27,1.96.79.56.55.83,1.2.83,1.99,0,.76-.27,1.41-.83,1.96-.51.55-1.16.83-1.95.83s-1.45-.27-1.96-.83c-.55-.52-.83-1.17-.82-1.96Zm6.91,22.83l2.17-16.47h4.4l-.38,2.58c1.03-1.1,2.03-1.9,2.99-2.38.99-.51,2.03-.76,3.13-.76,1.79,0,3.17.42,4.16,1.31,1,.86,1.48,2.1,1.48,3.64,0,.62-.11,1.62-.28,2.99-.04.18-.04.28-.07.34l-1.14,8.74h-4.74l1.21-9.18c.03-.35.07-.62.07-.86.03-.24.03-.45.03-.58,0-.79-.21-1.38-.65-1.82-.45-.41-1.07-.62-1.86-.62-1.38,0-2.44.42-3.24,1.21-.75.83-1.23,2.07-1.48,3.78l-1.07,8.08h-4.74Zm34.62-16.47h4.61l-1.75,13.54c0,.11-.03.27-.07.52-.48,3.71-1.17,6.12-2.03,7.21-.72.93-1.68,1.58-2.88,2.03-1.17.44-2.65.65-4.4.65-2.44,0-4.3-.49-5.61-1.44-1.27-.96-2.03-2.44-2.27-4.4l4.37-.42c.2.89.58,1.59,1.2,2.03.62.42,1.44.66,2.47.66,1.55,0,2.65-.48,3.34-1.45.69-.97,1.1-2.65,1.2-5.02-.62.86-1.34,1.48-2.2,1.93-.85.41-1.85.62-2.99.62-2.13,0-3.78-.66-4.95-1.97-1.17-1.33-1.75-3.19-1.75-5.56,0-2.79.76-5.06,2.24-6.85,1.47-1.75,3.37-2.65,5.67-2.65,1.2,0,2.23.25,3.17.73.93.48,1.68,1.17,2.3,2.13l.34-2.31Zm-.89,7.04c0-1.23-.31-2.2-1-2.89-.65-.68-1.58-1.03-2.75-1.03-1.38,0-2.44.48-3.23,1.45-.82,1-1.21,2.34-1.2,4.05,0,1.14.34,2.07,1.07,2.75.69.72,1.61,1.06,2.75,1.06,1.34,0,2.41-.48,3.2-1.47.79-.96,1.17-2.27,1.17-3.92Zm18.36,9.42l3.24-24.58h5.15l-2.68,20.22h8.52l-.58,4.37h-13.65Zm16.53,0l2.13-16.47h4.75l-2.13,16.47h-4.75Zm2.51-22.83c0-.79.28-1.44.82-1.99.52-.52,1.21-.8,1.96-.79.79,0,1.44.27,1.96.79.56.55.83,1.2.83,1.99,0,.76-.27,1.41-.83,1.96-.51.55-1.17.83-1.96.83s-1.44-.27-1.96-.83c-.55-.52-.82-1.17-.82-1.96Zm10.52,22.83l-4.16-16.47h5.12l1.68,8.66c.1.62.17,1.21.24,1.68.03.52.07,1.01.07,1.45v.37c.24-.78.48-1.48.72-2.05.21-.63.41-1.14.62-1.55l4.22-8.56h5.47l-8.91,16.47h-5.09Zm19.01-7.19v.38c0,1.11.34,1.96,1.04,2.61.72.62,1.68.96,2.88.96.86,0,1.58-.2,2.23-.55.66-.38,1.31-.96,1.89-1.75l3.2,2.64c-.79,1.17-1.85,2.06-3.1,2.65-1.28.59-2.75.9-4.47.9-2.54,0-4.57-.75-6.08-2.23-1.54-1.48-2.3-3.44-2.3-5.92,0-2.75.89-5.06,2.65-6.84,1.75-1.79,3.96-2.68,6.64-2.68,2.48,0,4.43.76,5.84,2.24,1.41,1.51,2.1,3.58,2.1,6.22,0,.28,0,.68-.07,1.27v.11h-12.45Zm.25-2.78h7.77c0-1.14-.31-2-.89-2.61-.58-.62-1.41-.93-2.47-.93-1.13,0-2.06.28-2.78.89-.72.58-1.27,1.48-1.62,2.65h0Zm16.39,4.67c.55.79,1.21,1.41,1.9,1.86.69.45,1.38.69,2.06.69.58,0,1.03-.15,1.37-.45.35-.28.52-.65.52-1.1,0-.69-.65-1.37-1.93-2.1-.51-.31-.89-.55-1.2-.72-1.17-.76-1.99-1.48-2.44-2.17-.45-.69-.68-1.52-.68-2.45,0-1.54.62-2.78,1.82-3.81,1.21-.99,2.75-1.48,4.61-1.48,1.14,0,2.24.21,3.27.69,1,.45,1.92,1.1,2.75,1.99l-2.82,2.55c-.62-.65-1.21-1.14-1.75-1.48-.58-.31-1.17-.48-1.72-.48-.52,0-.93.13-1.28.41-.31.24-.48.63-.48,1.03,0,.62.86,1.38,2.58,2.34.48.27.85.48,1.13.65.9.51,1.58,1.13,1.99,1.82.45.69.65,1.52.65,2.44,0,1.68-.58,3.02-1.79,4.09-1.16,1.06-2.71,1.58-4.6,1.58-1.31,0-2.48-.24-3.61-.79-1.1-.51-2.13-1.27-3.13-2.34l2.78-2.79Zm33.45-11.73c2.58,0,4.65.73,6.19,2.24,1.55,1.48,2.31,3.47,2.31,5.98,0,2.75-.89,5.02-2.72,6.77-1.82,1.78-4.13,2.68-6.98,2.68-2.51,0-4.53-.75-6.06-2.23-1.51-1.48-2.26-3.44-2.26-5.88,0-2.79.89-5.1,2.68-6.88,1.79-1.79,4.06-2.68,6.84-2.68Zm.04,4.34c-1.41,0-2.54.48-3.4,1.41-.86.96-1.31,2.23-1.31,3.78,0,1.17.34,2.1.96,2.78.65.69,1.54,1.03,2.65,1.03,1.41,0,2.54-.48,3.4-1.41.86-.92,1.31-2.17,1.31-3.68,0-1.23-.31-2.2-.97-2.85-.62-.69-1.51-1.06-2.65-1.06Zm14.41,12.68l-4.16-16.47h5.12l1.68,8.66c.1.62.18,1.21.24,1.68.03.52.07,1.01.07,1.45v.37c.24-.78.48-1.47.73-2.05.2-.63.41-1.14.61-1.55l4.23-8.56h5.46l-8.9,16.47h-5.09Zm19.01-7.19v.38c0,1.11.35,1.96,1.03,2.61.72.62,1.69.96,2.89.96.86,0,1.59-.2,2.23-.55.65-.38,1.31-.96,1.89-1.75l3.2,2.64c-.79,1.17-1.86,2.06-3.09,2.66-1.28.58-2.75.89-4.47.89-2.54,0-4.57-.75-6.08-2.23-1.55-1.48-2.3-3.44-2.3-5.92,0-2.75.89-5.06,2.65-6.84,1.75-1.79,3.95-2.68,6.63-2.68,2.48,0,4.43.76,5.84,2.24,1.41,1.51,2.1,3.58,2.1,6.22,0,.28,0,.68-.07,1.27v.11h-12.45Zm.25-2.78h7.77c0-1.14-.31-2-.89-2.61-.58-.62-1.42-.93-2.48-.93-1.14,0-2.06.28-2.78.89-.73.58-1.27,1.48-1.62,2.65h0Zm14.67,9.97l2.17-16.47h4.74l-.41,2.89c.58-1.14,1.31-2,2.16-2.58.83-.58,1.79-.86,2.82-.86.31,0,.55,0,.79.04.24.03.48.07.69.14l-.93,4.74c-.34-.11-.69-.21-1-.25-.31-.06-.61-.1-.92-.1-1.27,0-2.27.44-3.03,1.34-.72.92-1.2,2.27-1.45,4.09l-.89,7.02h-4.74Zm-297.51,0l2.68-20.28h-6.39l.58-4.3h17.43l-.55,4.3h-5.95l-2.64,20.28h-5.16Z"/>
      <rect class="cls-4" y="110.52" width="87.61" height="1.9"/>
      <path class="cls-3" d="m460.58,162.19v.22c0,.68.23,1.2.7,1.61.5.38,1.16.59,1.98.59.58,0,1.08-.13,1.53-.34.44-.23.89-.59,1.29-1.08l2.18,1.63c-.54.72-1.27,1.26-2.11,1.62-.87.37-1.88.55-3.05.55-1.74,0-3.12-.46-4.15-1.37-1.06-.91-1.58-2.11-1.58-3.64,0-1.69.61-3.1,1.81-4.2,1.19-1.1,2.7-1.65,4.53-1.65,1.69,0,3.03.47,4,1.37.96.93,1.42,2.2,1.42,3.83,0,.17,0,.42-.04.78v.07h-8.5Zm.16-1.72h5.3c0-.69-.21-1.22-.61-1.6-.4-.38-.96-.57-1.69-.57-.78,0-1.4.16-1.9.55-.49.36-.86.91-1.1,1.62Zm21.03,6.13h-3.24l.18-1.12c-.37.51-.87.89-1.43,1.14-.58.25-1.25.38-2,.38-1.43,0-2.56-.42-3.36-1.27-.8-.85-1.19-2.03-1.19-3.54,0-1.76.52-3.22,1.53-4.36,1.03-1.12,2.33-1.69,3.9-1.69.8,0,1.5.15,2.11.44.61.28,1.13.72,1.55,1.32l.19-1.42h3.24l-1.48,10.12Zm-2.28-5.62c0-.78-.23-1.39-.68-1.84-.47-.44-1.11-.68-1.9-.67-.94,0-1.66.32-2.21.93-.54.64-.8,1.48-.8,2.58,0,.74.24,1.33.73,1.77.5.43,1.16.66,1.98.66.87,0,1.57-.32,2.09-.95.54-.62.8-1.44.8-2.47Zm5.29,5.62l1.48-10.12h3.24l-.28,1.78c.4-.7.9-1.22,1.48-1.58.56-.36,1.21-.53,1.92-.53.21,0,.38,0,.54.02.17.02.33.04.47.08l-.63,2.92c-.23-.07-.47-.13-.68-.15-.21-.04-.42-.07-.63-.07-.87,0-1.55.28-2.07.83-.49.57-.82,1.39-.99,2.51l-.6,4.31h-3.24Zm10.47-3.26c.38.49.83.86,1.3,1.14.47.28.94.42,1.4.42.41,0,.71-.08.94-.27.23-.17.36-.41.36-.68,0-.43-.45-.85-1.32-1.29-.36-.19-.61-.34-.83-.44-.8-.47-1.36-.91-1.67-1.34-.3-.42-.46-.93-.46-1.5,0-.95.42-1.71,1.24-2.34.82-.61,1.88-.91,3.15-.91.77,0,1.53.13,2.23.42.68.27,1.32.67,1.88,1.22l-1.92,1.56c-.42-.4-.82-.69-1.2-.91-.4-.19-.8-.29-1.18-.29-.35,0-.63.08-.87.25-.21.15-.33.38-.33.64,0,.38.58.84,1.76,1.43.33.17.59.3.78.41.61.31,1.08.7,1.36,1.11.31.42.45.93.45,1.5,0,1.04-.4,1.86-1.22,2.52-.8.66-1.85.97-3.15.97-.88,0-1.68-.14-2.46-.48-.75-.32-1.45-.78-2.13-1.44l1.9-1.71Zm-47.61,2.73l-2.88-9.6h3.49l1.16,5.33c.07.23.14.74.28,1.49,0,.17.02.3.05.38.1-.32.22-.63.33-.98.14-.31.31-.64.47-.97l2.89-5.26h3.73l-8.88,14.73h-3.71l3.08-5.13Z"/>
      <path class="cls-3" d="m505.72,101.17c10.11,0,16.9,9.57,15.13,21.32-1.77,11.74-11.45,21.32-21.56,21.32s-16.89-9.58-15.12-21.32c1.77-11.75,11.45-21.32,21.56-21.32m-84.07,5.93c13.71-1.29,18.18-3.95,20.65-10.47h3.46l-7.87,51.43h-6.32l5.56-37.38-15.92-.25c.1-1.1.34-2.22.44-3.32Zm71.32,1.32c1.81,4.03,2.49,8.81,1.69,13.93-.82,5.19-3.03,10.03-6.16,14.07l-.35-.53-.43-.71-.39-.74-.36-.77-.32-.79-.29-.83-.25-.85v-.05c1.41-2.64,2.42-5.58,2.89-8.66.46-3.05.34-5.95-.26-8.58l.5-.84.54-.84.57-.81.6-.78.62-.75.65-.72.67-.69.08-.07Zm-18.46-11.79c5.51,0,10.29,1.98,13.85,5.32l-.26.21-1.03.9-.99.94-.95.98-.65.72c-2.68-2.84-6.34-4.53-10.6-4.53-10.1,0-19.79,9.57-21.56,21.32-1.77,11.74,5.02,21.32,15.13,21.32,4.29,0,8.49-1.72,12.06-4.61l.24.4.65,1,.72.95.75.92.2.21c-4.62,3.37-10.06,5.39-15.62,5.39-13.32,0-22.37-11.57-20.15-25.73,2.21-14.17,14.89-25.73,28.21-25.73Zm31.84,0c13.32,0,22.37,11.56,20.15,25.73-2.22,14.17-14.89,25.73-28.21,25.73s-22.37-11.57-20.15-25.73c2.22-14.17,14.89-25.73,28.21-25.73Z"/>
      <path class="cls-3" d="m441.14,12.78l2.93-12.78h24.27l-2.87,12.78h-24.33Zm-215.95,64.81l11.39-53.4h23.49l-1.55,8.52c3.7-5.74,15.56-11.29,23.69-10.71,14.05,1,16.42,5.36,19.26,12.63,4.16-6.57,13.18-12.1,24.15-12.37,16.38-.41,23.39,7.75,21.02,18.85l-7.79,36.48h-23.37l7.45-35.23c.51-2.43-3.29-7.13-9.57-7.13-4.2,0-12.13,7-12.75,9.93l-6.99,32.43h-23.15l6.75-31.59c1.29-6-3.5-10.54-7.71-10.54-6.51,0-12.88,6.82-13.94,11.64l-6.7,30.49h-23.68Zm-108.99,0L133.88,0h24.35l-17.68,77.6h-24.35Zm423.1-21.09c-2.21,6.17-8.47,15.29-15.49,18.5-6.45,2.95-14.14,4.49-22.89,5.32-13.25,1.25-30.59-2.91-34.02-8.99-4.8-3.87-8.7-17.58-.73-28.98,2.39-3.42,5.46-7.15,8.65-10.09,3.86-3.53,8.87-5.85,14.21-7.64,5.31-1.78,11.35-2.67,18.12-2.67,9.86,0,20.29,1.7,26.24,5.32,5.94,3.62,9.23,9.76,7.65,17.51l-23.66-.1c-.56-3.77-1.33-9.09-8.08-10.14-5.64-.88-9.58,1.13-13.58,3.89-2.81,1.94-7.84,9.61-7.6,16.38-.17,17.01,13.27,12.3,15.82,12,5.69-.67,10.99-7.14,10.93-10.21l24.44-.09Zm-493.39-7.85h29.28l-8.23-32.02-21.05,32.02ZM1.35,77.6L57.56,0h29.7l24.3,77.6h-28.44l-3.6-14.32h-43.92l-9.93,14.32H1.35Zm176.46-32.62l26.66-.05c.49-2.95.9-7.08-1.91-9.45-1.76-1.5-5.49-3.01-8.44-3.01-3.34,0-8.51,1.4-10.86,3.26-2.35,1.86-4.58,5.86-5.45,9.25Zm46.85,15.72c-6.43,13.93-26.5,22.22-48.22,18.49-13.09-1.65-25.34-3.94-25.34-21.73.61-19.37,14.83-32.91,40.61-35.34,21.74-2.05,35.09,6.66,35.7,19.19.23,4.73-1.43,9.78-2.13,14.84l-49.94.05c-1.31,6.03,1.85,13.03,9.92,13.03,6.17,0,12.29-4.11,14.34-8.51l25.05-.03Zm170.8-26.15c-6.79-1.54-15.65,1.96-19.35,10.75-12.02,23.71,16.12,30.5,25.27,9.96,4.44-9.97.87-19.16-5.92-20.71Zm-51.43,43.05L361.71,0h22.94l-6.98,31.96c6.41-6.59,16.32-9.81,27.66-9.81,23.61,0,26.04,20.62,21.28,33.92-4.49,12.54-19.43,25.61-36.33,23.89-5.89-.6-10.92-1.86-14.77-3.98-2.33-1.28-4.19-3.09-5.81-6.3l-1.54,7.92h-24.12Zm82.95,0l12.15-53.64h24.31l-12.22,53.64h-24.25Z"/>
    </g>
  </g>
</svg>