<?xml version="1.0" encoding="UTF-8"?>
<svg id="Layer_2" data-name="Layer 2" xmlns="http://www.w3.org/2000/svg" viewBox="0 0 24 24">
  <defs>
    <style>
      .cls-1 {
        fill: #475d75;
      }

      .cls-2 {
        fill: none;
      }
    </style>
  </defs>
  <g id="Layer_1-2" data-name="Layer 1">
    <g>
      <path class="cls-1" d="M19.52,4.67l-5.57-2.28c-1.25-.51-2.66-.51-3.91,0l-5.57,2.28c-.8,.38-1.34,1.17-1.38,2.06v4.39c.12,5.06,3.53,9.44,8.4,10.81,.33,.09,.69,.09,1.02,0,4.87-1.37,8.28-5.75,8.4-10.81V6.73c-.04-.89-.58-1.69-1.39-2.06Zm-3.8,5.1s-.02,.02-.04,.04h0s-4.3,4.3-4.3,4.3c-.29,.29-.77,.29-1.06,0,0,0,0,0,0,0l-1.6-1.62c-.28-.3-.27-.78,.04-1.06,.29-.27,.73-.27,1.02,0l1.08,1.08,3.77-3.77c.29-.3,.76-.31,1.06-.03,.3,.29,.31,.76,.03,1.06Z"/>
      <path id="Vector-3" class="cls-2" d="M24,24H0V0H24V24Z"/>
    </g>
  </g>
</svg>