<?xml version="1.0" encoding="UTF-8"?>
<svg id="Layer_2" data-name="Layer 2" xmlns="http://www.w3.org/2000/svg" viewBox="0 0 24 24">
  <defs>
    <style>
      .cls-1 {
        fill: #475d75;
      }

      .cls-2 {
        fill: none;
      }
    </style>
  </defs>
  <g id="Layer_1-2" data-name="Layer 1">
    <g>
      <path id="Vector" class="cls-2" d="M0,0H24V24H0V0Z"/>
      <path id="Vector-3" class="cls-2" d="M24,24H0V0H24V24Z"/>
      <g>
        <path class="cls-1" d="M7.92,13.5c-.07-.05-.16-.08-.26-.08h-.94v1.56h.93c.11,0,.2-.03,.28-.08,.08-.05,.14-.14,.17-.25,.04-.12,.06-.27,.06-.46s-.02-.34-.06-.45c-.04-.11-.1-.19-.17-.24Z"/>
        <path class="cls-1" d="M12.43,13.71c-.07-.11-.15-.18-.25-.23-.1-.04-.21-.06-.34-.06h-.94v2.98h.94c.19,0,.35-.06,.46-.17s.2-.28,.25-.5c.05-.22,.08-.5,.08-.82,0-.3-.02-.55-.05-.75-.03-.2-.08-.35-.15-.46Z"/>
        <path class="cls-1" d="M16,2H8c-3.5,0-5,2-5,5v10c0,3,1.5,5,5,5H16c3.5,0,5-2,5-5V7c0-3-1.5-5-5-5Zm-7.03,13.04c-.08,.22-.19,.38-.32,.5s-.27,.19-.42,.23c-.15,.04-.3,.06-.44,.06-.08,0-.16,0-.26,0-.1,0-.2-.02-.31-.03-.1-.01-.2-.02-.29-.03-.09-.01-.16-.02-.21-.03v1.52h-.93v-4.66h1.96c.15,0,.31,.02,.46,.05,.16,.04,.3,.11,.43,.21,.13,.11,.24,.27,.32,.48,.08,.21,.12,.5,.12,.85s-.04,.64-.12,.86Zm4.41,1.18c-.12,.34-.3,.6-.54,.77-.24,.17-.54,.25-.91,.25h-1.97v-4.66h1.97c.31,0,.58,.06,.79,.17,.21,.11,.38,.27,.5,.48,.12,.21,.21,.45,.26,.74,.05,.29,.08,.6,.08,.94,0,.52-.06,.96-.18,1.3Zm4.15-2.77h-1.76c-.13,0-.23,.03-.29,.1-.07,.07-.1,.16-.1,.27v.79l1.84,.05v.74l-1.84,.05v1.79h-.93v-3.59c0-.21,.03-.38,.09-.52,.06-.14,.15-.25,.25-.33,.1-.08,.22-.14,.35-.17,.13-.03,.25-.05,.37-.05,.15,0,.34,0,.56,0,.22,0,.46,0,.72,.02,.25,.01,.5,.03,.73,.06v.78Zm.97-4.2h-2c-1.52,0-2.75-1.23-2.75-2.75h0v-2c0-.41,.34-.75,.75-.75s.75,.34,.75,.75v2c0,.69,.56,1.25,1.25,1.25h2c.41,0,.75,.34,.75,.75s-.34,.75-.75,.75Z"/>
      </g>
    </g>
  </g>
</svg>