<?xml version="1.0" encoding="UTF-8"?>
<svg id="Layer_2" data-name="Layer 2" xmlns="http://www.w3.org/2000/svg" viewBox="0 0 502.56 296.72">
  <defs>
    <style>
      .cls-1 {
        fill: #fff;
      }

      .cls-2 {
        fill: #7594b3;
      }
    </style>
  </defs>
  <g id="Layer_1-2" data-name="Layer 1">
    <g>
      <path class="cls-2" d="M33.29,296.72l-33.29-.07c1.34-2,39.44-56.36,113.42-64.39,23.73-2.58,49.57-1.7,74.57-.84,65.23,2.22,126.83,4.32,164.36-46.65,15.67-21.28,28.35-43.79,40.61-65.57,27.1-48.13,57.63-98.03,109.6-119.2l-.03,32.98c-43.57,17.75-61.02,53-86.91,98.98-12.64,22.45-25.71,45.67-42.33,68.23-20.63,28.01-48.92,45.35-86.5,53.01-31.92,6.51-66.37,5.33-99.69,4.2-25.2-.86-48.99-1.67-70.88,.71-61.43,6.67-81.84,37.02-82.93,38.62Z"/>
      <path class="cls-2" d="M494.91,261.04c-24.05,0-91.87-5.5-140.23-63.29l20.71-17.33c20.53,24.54,47.79,40.98,81.03,48.88,25.33,6.02,45.92,4.24,46.11,4.22l.03,27.51c-.63,.05-2.63,0-7.65,0Z"/>
      <g>
        <path class="cls-1" d="M24.63,292.92l-5.91-5.54,2.2-2.35c.16-.17,.35-.32,.56-.46,.21-.14,.46-.22,.73-.25,.28-.03,.58,.02,.92,.16,.34,.14,.71,.4,1.12,.78,.42,.39,.71,.76,.87,1.09,.16,.34,.24,.65,.22,.94-.01,.29-.08,.54-.2,.77-.12,.23-.26,.43-.42,.6-.08,.08-.19,.2-.34,.35-.15,.15-.31,.31-.48,.47-.17,.17-.33,.32-.48,.46-.15,.14-.27,.25-.35,.32l2.16,2.02-.6,.64Zm-2.05-3.12l1.5-1.6c.18-.19,.3-.4,.36-.63s.04-.48-.07-.76-.35-.58-.7-.91c-.35-.33-.66-.53-.93-.62s-.51-.1-.72-.02c-.21,.07-.4,.2-.56,.37l-1.55,1.65,2.68,2.51Z"/>
        <path class="cls-1" d="M30.72,286.79c-.45,.43-.86,.7-1.24,.81-.38,.11-.78,.06-1.2-.15-.42-.21-.89-.59-1.41-1.14-.54-.56-.9-1.05-1.09-1.48-.19-.42-.21-.82-.07-1.2,.14-.38,.43-.77,.87-1.19,.38-.36,.72-.61,1.04-.75,.32-.14,.63-.16,.94-.07,.31,.09,.64,.32,.98,.68,.24,.25,.38,.5,.43,.74,.05,.24,0,.49-.11,.73s-.3,.48-.55,.72l-1.55,1.48c.33,.34,.64,.58,.91,.72,.27,.14,.54,.17,.81,.09s.58-.29,.94-.63l1.37-1.31,.37,.38c-.21,.27-.43,.52-.64,.76-.21,.24-.47,.51-.77,.8Zm-3.38-1.23l1.51-1.44c.24-.23,.37-.44,.4-.64,.03-.2-.06-.41-.28-.64-.23-.24-.45-.4-.65-.47-.2-.07-.4-.05-.61,.03-.2,.09-.43,.26-.69,.5-.3,.28-.49,.55-.57,.8s-.06,.52,.09,.81c.14,.29,.41,.64,.8,1.04Z"/>
        <path class="cls-1" d="M33.27,284.32l-3.88-4.41,.5-.44,.83,.63c0-.41,.04-.8,.15-1.17,.11-.37,.32-.69,.64-.97,.08-.07,.15-.13,.23-.18,.07-.05,.15-.1,.22-.14l.59,.67c-.08,.05-.17,.11-.26,.17s-.18,.13-.26,.21c-.2,.18-.36,.36-.48,.55-.12,.19-.2,.4-.26,.62-.06,.23-.1,.48-.13,.76l2.75,3.13-.65,.57Z"/>
        <path class="cls-1" d="M38.26,280.16c-.26,.21-.52,.37-.8,.48s-.57,.15-.87,.11c-.3-.04-.62-.17-.96-.4s-.69-.57-1.07-1.04c-.38-.47-.66-.89-.82-1.27-.16-.37-.23-.71-.21-1.01s.12-.58,.29-.83c.17-.25,.4-.49,.68-.72,.23-.19,.48-.38,.77-.57,.28-.2,.56-.38,.84-.54l.33,.4-1.33,1.08c-.29,.24-.5,.48-.62,.74-.12,.26-.12,.56-.01,.91,.11,.35,.37,.77,.78,1.27,.39,.48,.75,.81,1.06,.98s.61,.22,.89,.15c.28-.07,.56-.22,.84-.45l1.39-1.13,.32,.39c-.11,.13-.25,.28-.4,.44s-.33,.33-.51,.5c-.18,.17-.38,.33-.58,.5Z"/>
        <path class="cls-1" d="M42.48,276.89c-.49,.37-.94,.58-1.33,.65-.39,.07-.79-.03-1.17-.29-.39-.26-.81-.7-1.26-1.31-.46-.62-.76-1.16-.9-1.6-.13-.44-.11-.84,.07-1.2,.18-.36,.52-.72,1.01-1.08,.42-.31,.79-.52,1.12-.62s.65-.08,.94,.05,.59,.4,.89,.8c.21,.28,.32,.54,.33,.79,.02,.25-.05,.49-.2,.71-.15,.22-.36,.44-.64,.65l-1.72,1.28c.29,.38,.56,.65,.81,.83,.25,.17,.51,.24,.79,.19,.28-.05,.62-.22,1.01-.51l1.52-1.13,.32,.42c-.24,.24-.49,.46-.73,.68-.24,.22-.53,.45-.87,.7Zm-3.2-1.63l1.68-1.25c.26-.2,.42-.39,.48-.58,.05-.19-.01-.41-.2-.67-.2-.27-.4-.45-.59-.54-.19-.09-.39-.1-.61-.04-.21,.06-.46,.2-.74,.41-.33,.25-.55,.49-.67,.72s-.12,.51-.01,.81c.11,.3,.33,.68,.67,1.13Z"/>
        <path class="cls-1" d="M46.75,276.91l-4.76-7.02,.58-.39,.48,.41c.06-.15,.14-.33,.25-.54,.11-.21,.25-.41,.41-.61s.34-.37,.54-.5c.32-.21,.63-.33,.94-.34s.62,.05,.92,.18c.3,.14,.58,.33,.84,.59,.26,.26,.5,.55,.73,.88,.37,.55,.62,1.05,.75,1.51,.13,.46,.13,.87,0,1.23-.13,.36-.39,.68-.79,.95-.27,.18-.58,.33-.91,.43s-.67,.16-1,.19l1.73,2.56-.72,.49Zm.28-4.14c.23-.16,.4-.35,.5-.59,.1-.24,.12-.53,.04-.88-.08-.35-.28-.77-.6-1.24-.31-.46-.61-.78-.92-.98-.3-.2-.59-.3-.85-.3-.27,0-.51,.07-.73,.22-.28,.19-.51,.41-.68,.65-.17,.25-.32,.48-.44,.7l2.02,2.98c.29-.03,.58-.09,.87-.18s.55-.21,.79-.38Z"/>
        <path class="cls-1" d="M52.1,270.28c-.32,.2-.62,.32-.9,.34-.28,.03-.54-.05-.79-.22-.25-.17-.49-.46-.73-.85l-1.7-2.78-.79,.5-.3-.48,.72-.63-.75-1.46,.57-.36,.87,1.39,1.44-.9,.38,.61-1.44,.9,1.73,2.76c.14,.22,.27,.38,.4,.48,.13,.1,.25,.16,.37,.18,.12,.02,.23,.02,.34,0,.1-.03,.2-.06,.28-.11l.64-.32,.34,.54-.68,.43Z"/>
        <path class="cls-1" d="M50.38,263.23c-.1,.06-.18,.04-.24-.06l-.44-.74c-.06-.1-.04-.18,.06-.24l.53-.31s.09-.04,.13-.02c.04,.02,.07,.05,.1,.09l.44,.74c.06,.1,.04,.18-.05,.24l-.53,.31Zm3.42,6.02l-3-5.05,.75-.44,3,5.05-.75,.44Z"/>
        <path class="cls-1" d="M57.95,266.94c-.37,.21-.72,.35-1.04,.42-.32,.08-.63,.07-.92-.02-.29-.09-.58-.28-.86-.58-.28-.29-.57-.71-.86-1.24-.3-.54-.5-1-.6-1.4-.1-.39-.11-.74-.03-1.03,.08-.29,.24-.55,.48-.78s.54-.44,.92-.65c.37-.21,.72-.35,1.04-.42,.32-.08,.63-.07,.92,.01,.29,.09,.58,.28,.86,.57,.28,.29,.57,.71,.87,1.24,.3,.54,.49,1.01,.59,1.4s.11,.74,.03,1.03c-.08,.29-.24,.55-.48,.78-.24,.23-.55,.45-.92,.66Zm-.34-.62c.24-.13,.44-.27,.59-.42s.26-.32,.31-.52c.05-.2,.03-.46-.06-.76-.08-.3-.25-.68-.49-1.12-.25-.45-.48-.79-.69-1.02-.21-.23-.41-.38-.61-.44s-.4-.07-.61-.02c-.21,.06-.43,.15-.67,.28-.24,.13-.44,.27-.6,.42-.15,.14-.26,.32-.3,.52-.05,.2-.03,.45,.05,.75s.25,.67,.49,1.12c.24,.44,.47,.78,.69,1.02,.21,.23,.42,.39,.61,.45s.4,.07,.6,.02c.2-.05,.43-.15,.67-.28Z"/>
        <path class="cls-1" d="M61.3,265.06l-2.61-5.26,.61-.3,.46,.5c.16-.3,.38-.6,.65-.9s.58-.54,.94-.72c.39-.19,.74-.26,1.06-.22,.32,.05,.6,.18,.84,.39,.25,.21,.45,.48,.6,.79l1.77,3.58-.78,.39-1.73-3.49c-.11-.22-.25-.4-.43-.53-.17-.13-.37-.2-.58-.22-.21-.02-.43,.03-.67,.15-.22,.11-.41,.23-.58,.36s-.31,.28-.44,.44c-.13,.16-.26,.34-.39,.53l2.04,4.13-.78,.38Z"/>
        <path class="cls-1" d="M69.34,261.18l-2.2-7.85,.83-.34,4.63,5.67-.68-7.28,.84-.34,3.93,7.14-.78,.32-3.43-6.27,.14-.03,.77,7.32-.74,.3-4.61-5.75,.14-.08,1.95,6.86-.78,.32Z"/>
        <path class="cls-1" d="M78.89,257.51c-.41,.14-.79,.14-1.13,0-.35-.15-.6-.45-.75-.89l-.14-.39c-.15-.44-.13-.84,.06-1.21,.19-.37,.58-.66,1.16-.86l1.88-.66-.24-.69c-.08-.23-.19-.41-.33-.54s-.32-.21-.56-.23c-.24-.02-.55,.04-.94,.18l-1.72,.6-.17-.49c.23-.13,.5-.26,.81-.41s.68-.3,1.12-.45c.45-.16,.84-.24,1.18-.23s.62,.12,.85,.33c.23,.2,.42,.51,.56,.92l1.37,3.91-.63,.22-.38-.58s-.09,.12-.2,.23c-.12,.12-.27,.26-.46,.42-.19,.16-.4,.32-.63,.47-.23,.15-.47,.27-.71,.35Zm.13-.73c.13-.04,.26-.1,.41-.19,.15-.09,.3-.19,.45-.29s.29-.2,.41-.3,.23-.18,.3-.25c.08-.07,.12-.1,.13-.1l-.61-1.75-1.67,.67c-.39,.15-.64,.35-.75,.59-.11,.24-.11,.5-.01,.78l.09,.25c.08,.22,.19,.38,.33,.49s.29,.16,.45,.16c.16,0,.32-.01,.46-.06Z"/>
        <path class="cls-1" d="M84.06,258.42l-2.48-8.11,.67-.21,.33,.53c.1-.13,.23-.28,.4-.44,.17-.16,.36-.31,.57-.46,.21-.14,.44-.25,.67-.32,.36-.11,.7-.13,1-.05,.3,.08,.58,.23,.82,.45,.24,.22,.45,.49,.63,.81,.17,.32,.32,.67,.44,1.05,.19,.63,.28,1.18,.27,1.66-.01,.48-.13,.87-.36,1.17-.23,.31-.57,.53-1.04,.67-.32,.1-.65,.14-1,.14s-.69-.04-1.01-.11l.9,2.96-.83,.25Zm1.49-3.87c.27-.08,.48-.22,.65-.42s.27-.47,.3-.83c.03-.36-.04-.81-.21-1.37-.16-.53-.36-.93-.59-1.21-.23-.28-.47-.46-.73-.54-.25-.08-.51-.08-.76,0-.32,.1-.6,.24-.84,.42-.24,.18-.45,.36-.62,.54l1.05,3.44c.29,.06,.58,.09,.88,.09s.59-.04,.86-.13Z"/>
        <path class="cls-1" d="M89.89,256.67l-2.15-8.2,.68-.18,.31,.54c.1-.12,.24-.27,.42-.42,.17-.16,.37-.3,.59-.43,.22-.13,.45-.23,.68-.29,.37-.1,.7-.1,1,0s.57,.25,.8,.48c.23,.23,.43,.5,.59,.83s.29,.68,.39,1.07c.17,.64,.24,1.19,.2,1.67s-.17,.86-.41,1.16c-.24,.3-.59,.51-1.06,.63-.32,.08-.65,.12-1,.1s-.68-.07-1-.15l.78,2.99-.84,.22Zm1.64-3.81c.27-.07,.49-.2,.67-.39,.18-.19,.29-.46,.33-.82,.04-.36,0-.81-.16-1.38-.14-.53-.32-.94-.54-1.23s-.45-.48-.71-.57c-.25-.09-.5-.1-.76-.03-.33,.08-.61,.21-.86,.39-.25,.18-.46,.35-.64,.52l.91,3.48c.28,.07,.58,.11,.88,.12s.59-.02,.87-.09Z"/>
        <path class="cls-1" d="M93.85,245.84c-.11,.03-.18-.02-.21-.13l-.19-.84c-.03-.11,.02-.18,.13-.21l.6-.14c.06-.01,.1,0,.13,.02s.05,.06,.07,.11l.19,.84c.03,.11-.01,.18-.12,.21l-.6,.14Zm1.44,6.77l-1.33-5.72,.85-.2,1.33,5.72-.85,.2Z"/>
        <path class="cls-1" d="M97.64,252.05l-1.17-5.76,.67-.13,.31,.6c.23-.25,.52-.49,.85-.71,.34-.22,.7-.37,1.1-.45,.42-.09,.78-.07,1.08,.06s.53,.33,.72,.59c.18,.27,.31,.58,.38,.92l.8,3.91-.85,.17-.78-3.82c-.05-.24-.14-.45-.28-.62-.14-.17-.3-.29-.5-.36-.2-.07-.43-.08-.69-.03-.24,.05-.45,.12-.65,.21-.2,.09-.38,.19-.54,.31-.17,.12-.34,.26-.52,.41l.92,4.52-.85,.17Z"/>
        <path class="cls-1" d="M105.71,253.25c-.38,.06-.72,.06-1.02,0-.3-.06-.55-.18-.75-.37-.2-.19-.32-.44-.38-.76l-.04-.26c-.05-.33,0-.63,.14-.88s.35-.46,.62-.62,.54-.26,.84-.31l.27,.31c-.22,.04-.41,.1-.59,.2-.18,.1-.31,.24-.41,.41-.09,.17-.12,.38-.08,.62l.04,.24c.06,.35,.21,.58,.47,.69s.58,.13,.98,.07l1.35-.22c.43-.07,.76-.21,.99-.42,.22-.21,.3-.49,.25-.84l-.04-.22c-.03-.2-.1-.37-.2-.5-.1-.13-.25-.22-.45-.27-.2-.05-.46-.05-.8,0l-1.75,.29c-.45,.07-.81,.04-1.09-.12s-.45-.38-.5-.68c-.05-.29,0-.53,.14-.73,.14-.19,.36-.35,.67-.46-.29-.07-.52-.18-.7-.34-.18-.16-.32-.34-.41-.55-.09-.2-.16-.41-.19-.63-.07-.45-.04-.83,.09-1.13s.36-.54,.68-.72,.7-.3,1.16-.38l3.09-.51,.08,.49-1.29,.32c.11,.05,.22,.12,.36,.2,.13,.09,.26,.22,.37,.4s.2,.43,.25,.77c.05,.3,.03,.59-.05,.88-.08,.29-.26,.54-.53,.76-.27,.22-.66,.37-1.18,.46l-.92,.15c-.3,.05-.54,.13-.7,.25s-.22,.29-.19,.53c.03,.17,.11,.29,.26,.34,.14,.05,.29,.06,.43,.04l1.92-.31c.45-.07,.83-.08,1.14,0,.31,.07,.56,.21,.75,.42,.19,.21,.31,.5,.37,.86l.04,.24c.09,.53-.02,.97-.33,1.33-.31,.36-.82,.6-1.53,.71l-1.62,.27Zm-.46-5.35l.65-.11c.37-.06,.64-.16,.81-.31,.17-.14,.28-.31,.32-.5,.04-.19,.05-.39,.01-.6-.05-.33-.15-.58-.28-.75-.14-.17-.31-.29-.51-.34s-.43-.06-.67-.02l-.62,.1c-.41,.07-.72,.21-.93,.44s-.27,.56-.2,1.02c.07,.45,.23,.75,.48,.92s.55,.22,.92,.16Z"/>
        <path class="cls-1" d="M129.13,248.14c-.18,0-.36,0-.56-.02s-.39-.08-.57-.17c-.18-.09-.33-.24-.45-.44-.12-.2-.19-.48-.21-.84l-.25-4.93c-.02-.32,.02-.58,.1-.79,.08-.21,.19-.38,.34-.51,.15-.13,.31-.23,.5-.29,.19-.07,.38-.1,.57-.11,.45-.02,.88-.03,1.26-.04,.39,0,.76-.02,1.11-.02s.69-.01,1.02-.01l.04,.7-3.16,.16c-.29,.01-.51,.1-.67,.27s-.23,.41-.21,.75l.1,1.91,3.62-.13,.03,.67-3.61,.24,.1,1.9c.01,.27,.07,.47,.17,.61s.23,.22,.38,.26c.16,.04,.32,.05,.48,.04l3.12-.16,.04,.7c-.33,.04-.69,.08-1.06,.11-.37,.03-.74,.06-1.11,.09-.37,.03-.73,.05-1.09,.08Z"/>
        <path class="cls-1" d="M137.36,247.76l-4.4-5.73,.89-.03,4.41,5.73-.9,.03Zm-4.2,.14l2.1-3.25,.36,.77-1.58,2.45-.88,.03Zm2.79-2.77l-.41-.68,1.62-2.55,.9-.04-2.11,3.27Z"/>
        <path class="cls-1" d="M139.33,250.31l-.15-8.48h.7s.18,.59,.18,.59c.13-.1,.3-.2,.51-.31,.21-.11,.43-.21,.68-.28s.49-.12,.73-.12c.38,0,.71,.07,.98,.23s.49,.38,.67,.65c.17,.28,.3,.59,.38,.95s.12,.74,.13,1.13c.01,.66-.05,1.22-.2,1.67s-.37,.8-.67,1.03-.7,.35-1.18,.36c-.33,0-.66-.04-1-.14-.34-.1-.65-.23-.94-.38l.06,3.09-.87,.02Zm2.49-3.31c.28,0,.53-.08,.74-.22,.22-.14,.39-.38,.51-.72,.13-.34,.18-.79,.17-1.37,0-.55-.09-.99-.23-1.32-.15-.33-.33-.57-.55-.72s-.47-.22-.73-.21c-.34,0-.65,.07-.93,.18s-.53,.23-.75,.35l.06,3.6c.26,.13,.53,.24,.83,.33s.58,.12,.87,.12Z"/>
        <path class="cls-1" d="M147.82,247.66c-.62,0-1.1-.09-1.46-.27s-.61-.49-.77-.93c-.16-.44-.24-1.04-.24-1.8,0-.78,.07-1.38,.23-1.82,.16-.44,.41-.74,.77-.92s.84-.27,1.45-.27c.52,0,.94,.05,1.27,.17s.57,.31,.73,.6c.16,.28,.24,.67,.24,1.17,0,.34-.07,.62-.2,.83-.13,.21-.33,.36-.58,.45s-.55,.14-.9,.14h-2.15c0,.49,.06,.87,.16,1.16s.27,.5,.53,.62c.25,.13,.63,.19,1.12,.19h1.89s0,.52,0,.52c-.34,.04-.67,.08-.99,.11-.32,.03-.69,.05-1.11,.05Zm-1.61-3.22h2.09c.33-.01,.57-.07,.73-.19s.23-.34,.23-.66c0-.34-.05-.6-.15-.79-.1-.19-.25-.32-.46-.39-.21-.08-.49-.11-.84-.11-.41,0-.73,.06-.97,.19-.23,.12-.4,.34-.49,.64s-.14,.75-.14,1.31Z"/>
        <path class="cls-1" d="M151.5,247.59l.03-5.87h.66s.2,1.03,.2,1.03c.27-.31,.56-.57,.89-.78,.33-.2,.7-.3,1.13-.3,.1,0,.2,0,.29,.01,.09,0,.18,.02,.26,.04v.89c-.1-.01-.2-.03-.31-.04s-.22-.02-.33-.02c-.27,0-.51,.03-.73,.09-.21,.07-.42,.16-.61,.29-.19,.13-.39,.29-.6,.48l-.02,4.17h-.87Z"/>
        <path class="cls-1" d="M158.04,247.65c-.38,0-.7-.07-.94-.2-.25-.13-.43-.33-.54-.61-.11-.28-.16-.65-.15-1.11l.07-3.25h-.93s0-.57,0-.57l.95-.14,.16-1.64h.67s-.02,1.65-.02,1.65l1.69,.02v.71s-1.7-.02-1.7-.02l-.04,3.26c0,.26,.02,.46,.07,.62,.05,.15,.12,.27,.22,.35,.09,.08,.19,.14,.29,.17,.1,.03,.2,.05,.3,.06l.71,.08v.64s-.81,0-.81,0Z"/>
        <path class="cls-1" d="M165.36,247.78l-2.58-8.16,.9,.02,2.27,7.24,2.6-7.12,.89,.02-2.96,8.03-1.12-.03Z"/>
        <path class="cls-1" d="M170.46,247.91l.16-5.87,.87,.02-.16,5.87-.87-.03Zm.32-6.91c-.12,0-.17-.06-.17-.18l.02-.86c0-.12,.06-.17,.18-.17l.62,.02c.06,0,.1,.02,.12,.05,.02,.03,.04,.08,.04,.13l-.02,.86c0,.12-.06,.17-.17,.17l-.62-.02Z"/>
        <path class="cls-1" d="M175.23,248.12c-.62-.02-1.1-.12-1.45-.32s-.59-.51-.74-.96-.2-1.05-.18-1.81c.02-.78,.12-1.38,.29-1.81,.17-.43,.44-.73,.8-.89,.36-.16,.85-.24,1.46-.22,.52,.02,.94,.09,1.26,.21,.32,.13,.56,.33,.71,.62s.22,.68,.2,1.18c-.01,.35-.09,.62-.23,.82-.14,.21-.34,.35-.6,.43-.25,.08-.56,.12-.9,.11l-2.14-.07c0,.48,.03,.86,.12,1.15,.09,.29,.25,.51,.5,.64,.25,.14,.62,.21,1.11,.23l1.89,.06-.02,.53c-.34,.03-.67,.06-.99,.08s-.69,.02-1.11,0Zm-1.5-3.27l2.09,.06c.33,.01,.58-.04,.74-.16,.16-.12,.25-.33,.26-.65,0-.34-.03-.6-.12-.79-.09-.19-.24-.33-.45-.41-.21-.08-.49-.13-.84-.14-.41-.01-.73,.04-.97,.15s-.41,.32-.51,.63-.17,.74-.18,1.3Z"/>
        <path class="cls-1" d="M179.95,248.2l-1.58-5.93,.89,.03,1.27,5.11,1.65-5.01,.76,.03,1.32,5.11,1.57-5.01,.89,.03-1.97,5.81-.96-.03-1.28-4.75-1.61,4.66-.95-.03Z"/>
        <path class="cls-1" d="M207.72,249.08l-2.58-8.16,.9,.02,2.27,7.24,2.6-7.12,.89,.02-2.97,8.03-1.12-.03Z"/>
        <path class="cls-1" d="M212.85,249.2l.11-5.87,.87,.02-.11,5.87-.87-.02Zm.26-6.92c-.12,0-.17-.06-.17-.18l.02-.86c0-.12,.06-.17,.18-.17h.62c.06,.01,.1,.03,.12,.06,.03,.03,.04,.08,.04,.13l-.02,.86c0,.12-.06,.17-.17,.17h-.62Z"/>
        <path class="cls-1" d="M217.66,249.34c-.62,0-1.1-.11-1.45-.29s-.6-.5-.75-.95c-.15-.44-.22-1.04-.21-1.81,.01-.78,.1-1.38,.26-1.82,.16-.43,.43-.74,.79-.91,.36-.17,.85-.25,1.46-.24,.52,0,.94,.07,1.27,.19,.33,.12,.56,.33,.72,.61,.15,.29,.23,.68,.22,1.17,0,.34-.08,.62-.21,.83s-.33,.36-.59,.44-.55,.13-.9,.12l-2.14-.03c0,.48,.05,.86,.14,1.15,.09,.29,.26,.5,.51,.63,.25,.13,.62,.2,1.11,.21l1.89,.03v.53c-.34,.04-.67,.07-1,.1-.32,.02-.69,.03-1.11,.03Zm-1.55-3.25l2.09,.03c.33,0,.58-.05,.73-.17s.24-.34,.25-.65c0-.34-.04-.6-.14-.79s-.25-.32-.46-.4-.49-.12-.84-.13c-.41,0-.73,.05-.97,.17-.24,.12-.4,.33-.5,.64s-.15,.74-.16,1.31Z"/>
        <path class="cls-1" d="M222.45,249.33l-1.77-5.88h.89s1.43,5.07,1.43,5.07l1.5-5.06h.76s1.47,5.07,1.47,5.07l1.41-5.06h.89s-1.79,5.87-1.79,5.87h-.96s-1.43-4.71-1.43-4.71l-1.46,4.7h-.95Z"/>
        <path class="cls-1" d="M230.16,251.93l-.1-8.48h.7s.17,.6,.17,.6c.13-.1,.3-.2,.51-.31,.21-.11,.43-.2,.68-.28,.25-.08,.49-.12,.73-.12,.38,0,.71,.07,.98,.24,.27,.16,.49,.38,.66,.66,.17,.28,.3,.59,.38,.95,.08,.36,.12,.74,.12,1.13,0,.66-.06,1.22-.21,1.67-.15,.45-.37,.79-.68,1.03-.31,.23-.7,.35-1.18,.36-.33,0-.66-.04-1-.15-.34-.1-.65-.23-.93-.39l.04,3.09h-.87Zm2.51-3.29c.28,0,.53-.08,.75-.22,.22-.14,.39-.38,.52-.72,.13-.33,.19-.79,.18-1.37,0-.55-.08-.99-.22-1.32s-.33-.57-.55-.72c-.22-.15-.46-.22-.73-.22-.34,0-.65,.06-.93,.17-.28,.11-.53,.22-.75,.35l.04,3.6c.26,.14,.53,.25,.82,.33,.29,.08,.58,.12,.87,.12Z"/>
        <path class="cls-1" d="M238.87,249.24c-.43,.01-.8-.02-1.12-.1-.32-.08-.59-.23-.81-.44-.22-.21-.38-.52-.5-.91-.11-.39-.18-.89-.19-1.5-.02-.62,.02-1.12,.11-1.52,.09-.39,.24-.7,.45-.92s.47-.38,.79-.47,.69-.14,1.11-.16c.42-.01,.8,.02,1.12,.1,.32,.08,.59,.22,.81,.44,.22,.21,.39,.51,.5,.9s.18,.89,.2,1.5c.02,.62-.02,1.12-.12,1.52-.1,.4-.25,.7-.45,.93-.2,.22-.46,.38-.79,.48-.32,.1-.69,.15-1.12,.16Zm-.02-.71c.27,0,.51-.04,.72-.1,.21-.06,.38-.16,.51-.32,.14-.16,.24-.39,.3-.7,.07-.31,.09-.72,.08-1.22-.01-.51-.06-.92-.14-1.22-.08-.3-.19-.52-.34-.67-.14-.15-.32-.25-.53-.29-.21-.05-.45-.07-.72-.06-.28,0-.52,.04-.72,.1-.2,.06-.37,.16-.51,.32-.14,.16-.24,.39-.3,.69-.07,.3-.09,.71-.08,1.22,.01,.51,.06,.91,.14,1.22,.08,.31,.19,.54,.34,.68,.14,.15,.32,.25,.52,.29,.21,.05,.45,.07,.73,.06Z"/>
        <path class="cls-1" d="M242.8,242.13c-.12,0-.18-.05-.18-.17l-.03-.86c0-.12,.05-.18,.17-.18l.62-.02c.06,0,.1,.01,.13,.04,.03,.03,.04,.07,.04,.12l.03,.86c0,.12-.05,.18-.16,.18l-.62,.02Zm.13,6.92l-.22-5.87,.87-.03,.22,5.87-.87,.03Z"/>
        <path class="cls-1" d="M245.52,248.96l-.29-5.87,.68-.03,.22,.64c.27-.21,.59-.4,.95-.57,.37-.17,.75-.26,1.15-.28,.43-.02,.79,.05,1.06,.22,.27,.17,.48,.4,.62,.7s.22,.62,.24,.97l.2,3.99-.87,.04-.2-3.89c-.01-.25-.07-.47-.18-.66-.11-.19-.26-.33-.44-.44-.19-.1-.41-.14-.67-.13-.24,.01-.47,.05-.67,.11-.21,.06-.4,.13-.58,.23-.18,.09-.37,.21-.57,.33l.23,4.6-.87,.04Z"/>
        <path class="cls-1" d="M253.98,248.48c-.38,.03-.7-.02-.96-.12s-.45-.3-.59-.57c-.14-.27-.21-.64-.24-1.1l-.18-3.25-.93,.06-.04-.56,.93-.22,.03-1.65,.67-.04,.11,1.64,1.69-.11,.05,.71-1.69,.11,.22,3.25c.02,.26,.06,.46,.12,.61s.15,.26,.24,.34c.1,.07,.2,.12,.3,.15s.21,.04,.3,.04l.72,.02,.04,.64-.8,.05Z"/>
        <path class="cls-1" d="M276.46,245.98l-4.03-7.55,.89-.14,3.56,6.7,1.25-7.48,.88-.14-1.44,8.43-1.11,.18Z"/>
        <path class="cls-1" d="M280.43,238.27c-.12,.02-.18-.02-.21-.14l-.16-.84c-.02-.12,.03-.18,.14-.21l.61-.11c.06,0,.1,0,.13,.03,.03,.03,.05,.07,.06,.12l.16,.84c.02,.12-.02,.18-.13,.2l-.61,.11Zm1.14,6.83l-1.08-5.77,.85-.16,1.08,5.77-.85,.16Z"/>
        <path class="cls-1" d="M286.37,244.21c-.6,.13-1.1,.14-1.48,.03-.39-.11-.7-.36-.94-.76-.24-.4-.44-.97-.6-1.72-.16-.76-.21-1.37-.14-1.83,.06-.46,.25-.81,.57-1.06s.77-.43,1.37-.56c.51-.11,.94-.14,1.28-.09,.34,.05,.62,.19,.83,.44,.21,.24,.37,.61,.47,1.1,.07,.34,.06,.62-.03,.85-.09,.23-.25,.42-.48,.56-.23,.14-.51,.25-.85,.32l-2.1,.44c.11,.46,.24,.83,.39,1.09,.15,.26,.37,.43,.64,.5,.27,.07,.65,.06,1.13-.04l1.85-.39,.11,.52c-.32,.11-.64,.22-.95,.31-.31,.1-.67,.19-1.08,.27Zm-2.23-2.82l2.04-.43c.32-.07,.55-.18,.68-.33,.13-.15,.16-.38,.1-.69-.07-.33-.17-.58-.31-.74-.14-.16-.31-.26-.53-.29-.22-.03-.5-.01-.85,.06-.4,.08-.71,.21-.91,.38-.21,.17-.32,.41-.35,.73-.03,.32,.01,.76,.13,1.31Z"/>
        <path class="cls-1" d="M291.17,243.08l-3.18-5.25,.86-.22,2.65,4.55,.19-5.27,.74-.19,2.69,4.54,.1-5.25,.86-.22-.26,6.13-.93,.24-2.56-4.21-.24,4.92-.92,.23Z"/>
        <path class="cls-1" d="M303.44,239.61c-.36,.12-.68,.15-.96,.11s-.51-.18-.71-.41c-.2-.23-.36-.57-.5-1.01l-.96-3.11-.89,.28-.17-.53,.85-.44-.36-1.6,.64-.21,.5,1.56,1.61-.52,.22,.68-1.61,.52,.99,3.1c.08,.24,.17,.43,.27,.56s.21,.22,.32,.27c.11,.05,.22,.07,.33,.07,.11,0,.21-.01,.3-.03l.7-.16,.19,.61-.76,.25Z"/>
        <path class="cls-1" d="M305.57,238.92l-2.85-7.9,.82-.29,1.08,2.98c.19-.28,.43-.55,.74-.82s.65-.47,1.04-.61c.39-.14,.74-.17,1.05-.1,.31,.07,.58,.23,.8,.47,.22,.24,.4,.53,.52,.88l1.36,3.76-.82,.29-1.33-3.67c-.08-.23-.21-.42-.36-.57-.16-.15-.34-.24-.55-.28s-.44-.02-.68,.07c-.23,.08-.43,.18-.61,.29-.18,.12-.34,.24-.49,.39s-.3,.31-.46,.49l1.56,4.33-.82,.29Z"/>
        <path class="cls-1" d="M312.9,236.24c-.4,.17-.78,.18-1.13,.05s-.62-.41-.8-.85l-.16-.39c-.18-.43-.18-.83,0-1.21,.17-.38,.54-.69,1.11-.92l1.84-.76-.28-.67c-.09-.22-.21-.4-.35-.53-.14-.13-.33-.19-.57-.2-.24,0-.54,.07-.92,.23l-1.69,.7-.2-.48c.22-.14,.48-.29,.78-.45,.3-.16,.67-.33,1.09-.51,.44-.19,.83-.29,1.17-.29,.34,0,.63,.09,.87,.28,.24,.19,.44,.48,.61,.88l1.58,3.83-.62,.26-.41-.56s-.08,.12-.19,.24c-.11,.13-.26,.28-.43,.45-.18,.17-.38,.34-.6,.5-.22,.16-.45,.29-.69,.39Zm.09-.74c.12-.04,.26-.11,.4-.21,.14-.1,.28-.2,.43-.31s.28-.22,.4-.32c.12-.1,.22-.19,.29-.26,.07-.07,.12-.11,.12-.11l-.71-1.71-1.63,.76c-.38,.17-.62,.38-.71,.63-.09,.25-.08,.51,.03,.78l.1,.24c.09,.22,.21,.37,.35,.47,.15,.09,.3,.14,.46,.14,.16,0,.31-.03,.46-.08Z"/>
        <path class="cls-1" d="M319.26,233.4c-.35,.16-.66,.23-.94,.22-.28,0-.53-.12-.75-.32-.22-.2-.43-.52-.61-.94l-1.33-2.97-.85,.39-.23-.51,.8-.54-.55-1.55,.61-.28,.68,1.49,1.54-.71,.3,.65-1.54,.71,1.36,2.96c.11,.23,.22,.41,.33,.52,.11,.12,.23,.19,.35,.23,.12,.04,.23,.05,.34,.03,.11-.01,.21-.04,.29-.07l.68-.24,.27,.58-.73,.34Z"/>
        <path class="cls-1" d="M323.93,231.17l-3.14-7.52,.78-.44,5.29,5.06-1.57-7.14,.79-.44,4.77,6.61-.74,.41-4.17-5.8,.13-.05,1.66,7.17-.7,.39-5.28-5.14,.13-.1,2.77,6.57-.74,.41Z"/>
        <path class="cls-1" d="M333.19,225.87c-.36,.24-.73,.32-1.1,.26-.37-.06-.69-.29-.94-.69l-.23-.35c-.25-.39-.33-.79-.22-1.19s.41-.78,.93-1.11l1.67-1.08-.39-.61c-.13-.2-.28-.35-.44-.45-.16-.1-.36-.13-.6-.09s-.52,.17-.87,.39l-1.54,.99-.28-.43c.19-.18,.42-.37,.69-.59s.59-.45,.98-.7c.4-.26,.76-.43,1.09-.5,.33-.07,.63-.03,.91,.12,.27,.14,.52,.4,.76,.76l2.25,3.48-.56,.36-.5-.47s-.06,.13-.14,.28c-.09,.14-.2,.32-.35,.52-.14,.2-.31,.4-.5,.6s-.39,.37-.61,.51Zm-.05-.74c.12-.06,.23-.16,.36-.28,.12-.12,.24-.25,.37-.39,.12-.13,.23-.26,.33-.39,.1-.12,.18-.23,.24-.31,.06-.08,.09-.13,.1-.13l-1-1.55-1.46,1.04c-.34,.24-.54,.49-.59,.74s0,.51,.17,.77l.14,.22c.13,.2,.27,.33,.43,.4,.16,.07,.32,.08,.48,.05s.3-.09,.44-.17Z"/>
        <path class="cls-1" d="M338.94,221.91c-.31,.22-.6,.35-.88,.39s-.54-.02-.8-.18c-.26-.16-.52-.43-.78-.81l-1.86-2.68-.76,.54-.33-.46,.68-.67-.83-1.42,.55-.39,.95,1.34,1.38-.98,.41,.58-1.38,.98,1.88,2.66c.15,.21,.29,.36,.42,.46s.26,.15,.38,.16,.23,0,.34-.03c.1-.03,.2-.07,.28-.12l.62-.36,.37,.52-.66,.46Z"/>
        <path class="cls-1" d="M342.29,219.4c-.3,.23-.59,.37-.87,.43-.27,.05-.54,0-.8-.15-.26-.15-.53-.41-.81-.78l-1.95-2.61-.74,.57-.34-.45,.66-.7-.88-1.39,.53-.41,1,1.3,1.35-1.03,.43,.57-1.35,1.03,1.98,2.59c.16,.2,.3,.35,.44,.44,.14,.09,.27,.14,.39,.15,.12,0,.23,0,.33-.04,.1-.04,.19-.08,.27-.13l.61-.38,.39,.51-.64,.49Z"/>
        <path class="cls-1" d="M345.84,216.63c-.47,.39-.9,.64-1.29,.72-.39,.09-.79,.01-1.19-.23-.4-.24-.84-.65-1.33-1.24-.5-.6-.83-1.11-.99-1.55-.16-.44-.16-.84,0-1.2,.16-.37,.48-.74,.95-1.13,.4-.33,.76-.56,1.09-.68,.33-.12,.64-.12,.94,0s.61,.36,.93,.75c.22,.27,.35,.52,.38,.77,.03,.25-.02,.49-.16,.72s-.33,.46-.6,.68l-1.65,1.38c.31,.36,.6,.62,.85,.78,.26,.16,.53,.21,.8,.15,.28-.06,.6-.25,.98-.57l1.45-1.21,.34,.41c-.23,.25-.46,.49-.69,.72-.23,.23-.5,.48-.82,.75Zm-3.29-1.45l1.6-1.34c.25-.21,.4-.41,.45-.61,.04-.2-.04-.41-.24-.65-.22-.26-.42-.43-.62-.51-.2-.08-.4-.08-.61,0-.21,.08-.45,.23-.72,.45-.32,.26-.52,.52-.63,.76-.1,.24-.09,.51,.03,.81,.12,.3,.37,.66,.73,1.1Z"/>
        <path class="cls-1" d="M348.74,214.04l-3.97-4.33,.49-.45,.84,.61c-.02-.41,.02-.8,.13-1.17,.1-.37,.31-.7,.62-.99,.08-.07,.15-.13,.22-.19s.15-.1,.22-.14l.6,.66c-.08,.05-.17,.11-.25,.18-.09,.07-.17,.14-.25,.21-.2,.18-.36,.37-.47,.56-.11,.19-.19,.4-.25,.63-.05,.23-.09,.48-.11,.76l2.82,3.07-.64,.59Z"/>
        <path class="cls-1" d="M353.68,209.45c-.1,.1-.23,.23-.39,.37-.16,.14-.32,.29-.49,.45-.17,.15-.33,.29-.48,.41-.14,.12-.26,.21-.35,.26l-.37-.37,1.7-1.7c.17-.17,.31-.33,.41-.48s.14-.3,.12-.46c-.02-.16-.12-.33-.29-.5l-.19-.19c-.18-.18-.38-.26-.6-.25-.22,.02-.46,.16-.73,.42l-.58,.58c-.24,.24-.49,.43-.74,.56s-.5,.17-.76,.12c-.25-.05-.51-.2-.78-.47l-.22-.22c-.26-.26-.42-.52-.49-.79-.06-.27-.03-.55,.1-.85,.13-.3,.37-.62,.71-.96,.14-.15,.32-.31,.52-.49,.2-.18,.4-.35,.6-.51,.2-.16,.37-.29,.5-.38l.37,.37-1.6,1.6c-.26,.26-.42,.51-.48,.74-.05,.23,.04,.47,.3,.73l.17,.17c.16,.16,.32,.25,.46,.26,.15,.01,.3-.03,.44-.12,.15-.1,.3-.22,.46-.38l.59-.59c.38-.38,.76-.58,1.14-.61s.74,.12,1.07,.45l.29,.29c.28,.28,.43,.56,.46,.84,.03,.28-.04,.56-.2,.84s-.39,.57-.68,.86Z"/>
        <path class="cls-1" d="M367.75,192.61l-6.59-4.71,1.87-2.62c.14-.19,.3-.37,.5-.53,.19-.16,.42-.28,.69-.35,.27-.07,.58-.06,.93,.04,.35,.09,.75,.3,1.21,.63,.47,.33,.8,.66,1,.97,.21,.31,.32,.61,.35,.9s0,.55-.1,.79c-.09,.24-.21,.46-.34,.65-.06,.09-.16,.22-.29,.39-.13,.17-.27,.35-.42,.54s-.29,.36-.42,.52c-.13,.16-.23,.28-.3,.37l2.41,1.72-.51,.72Zm-2.44-2.83l1.27-1.78c.15-.21,.24-.43,.27-.67,.03-.24-.02-.48-.17-.74s-.42-.52-.82-.81c-.39-.28-.72-.44-1-.5s-.52-.03-.72,.07c-.2,.1-.37,.25-.5,.44l-1.32,1.84,2.99,2.14Z"/>
        <path class="cls-1" d="M372.33,186.24c-.25,.36-.55,.58-.92,.66-.37,.08-.75,0-1.13-.27l-.34-.24c-.38-.26-.6-.6-.67-1.01-.06-.41,.08-.87,.43-1.38l1.13-1.64-.6-.41c-.2-.14-.39-.22-.58-.25-.19-.03-.39,.02-.59,.14-.2,.12-.42,.36-.65,.69l-1.04,1.5-.43-.29c.11-.24,.25-.51,.41-.81,.16-.3,.38-.64,.64-1.02,.26-.4,.54-.69,.82-.88,.28-.19,.58-.27,.88-.24,.31,.03,.64,.16,.99,.41l3.42,2.35-.38,.55-.65-.25s0,.14-.03,.31c-.03,.17-.07,.37-.12,.61s-.13,.49-.23,.75c-.1,.26-.22,.49-.37,.7Zm-.33-.67c.08-.1,.15-.24,.22-.4s.13-.33,.19-.5,.11-.33,.16-.49c.04-.15,.08-.28,.1-.38,.02-.1,.04-.15,.04-.16l-1.52-1.05-.95,1.52c-.23,.35-.31,.66-.26,.91,.06,.26,.21,.47,.45,.64l.22,.15c.19,.13,.38,.2,.55,.2s.33-.05,.46-.14c.13-.09,.25-.2,.34-.32Z"/>
        <path class="cls-1" d="M376.14,180.54c-.21,.32-.44,.54-.68,.68-.24,.14-.51,.18-.81,.12-.3-.06-.63-.22-1.01-.48l-2.69-1.84-.52,.78-.47-.31,.4-.87-1.28-1.03,.37-.56,1.36,.91,.94-1.41,.59,.4-.94,1.41,2.7,1.81c.21,.14,.4,.24,.56,.27,.16,.04,.3,.04,.41,.01,.12-.03,.22-.08,.3-.15,.08-.07,.16-.14,.22-.21l.45-.56,.53,.36-.45,.67Z"/>
        <path class="cls-1" d="M377.32,178.76l-7.02-4.59,.48-.73,2.65,1.73c-.02-.34,.01-.7,.1-1.1s.23-.77,.46-1.11,.48-.58,.78-.71c.29-.13,.6-.16,.92-.11,.32,.06,.64,.19,.94,.39l3.34,2.18-.48,.73-3.27-2.14c-.21-.14-.42-.21-.63-.24-.21-.02-.42,.01-.61,.11-.19,.09-.36,.25-.5,.46-.13,.2-.23,.4-.31,.6s-.13,.4-.16,.61c-.03,.21-.06,.43-.07,.66l3.86,2.52-.48,.73Z"/>
        <path class="cls-1" d="M383.73,168.79l-8.33-1.94,.48-.76,7.39,1.74-4.8-5.87,.47-.76,5.4,6.64-.59,.95Z"/>
        <path class="cls-1" d="M380.6,160.71c-.06,.1-.14,.12-.24,.06l-.73-.45c-.1-.06-.12-.14-.06-.24l.32-.53s.07-.08,.11-.08c.04,0,.08,0,.13,.03l.73,.45c.1,.06,.12,.14,.06,.23l-.32,.53Zm5.83,3.73l-5.01-3.07,.45-.74,5.01,3.07-.45,.74Z"/>
        <path class="cls-1" d="M388.99,160.36c-.32,.53-.65,.9-.99,1.11-.34,.21-.74,.27-1.2,.17s-1.01-.34-1.66-.73c-.67-.4-1.14-.78-1.44-1.14-.29-.36-.42-.74-.39-1.14s.21-.86,.52-1.38c.27-.45,.54-.78,.81-1,.27-.22,.56-.32,.89-.31s.7,.15,1.12,.4c.3,.18,.5,.38,.61,.6,.11,.22,.14,.47,.08,.73-.05,.26-.17,.54-.35,.84l-1.11,1.84c.41,.24,.77,.39,1.06,.46,.3,.07,.57,.03,.81-.12,.24-.15,.49-.44,.74-.86l.98-1.62,.45,.27c-.14,.31-.28,.61-.42,.91-.14,.29-.32,.62-.54,.97Zm-3.58-.3l1.08-1.79c.17-.28,.24-.52,.22-.72-.02-.2-.17-.38-.44-.54-.29-.17-.54-.27-.75-.28-.21-.01-.4,.05-.58,.19-.17,.14-.35,.36-.53,.66-.21,.35-.33,.66-.34,.92-.02,.26,.08,.52,.29,.76,.21,.24,.56,.51,1.05,.8Z"/>
        <path class="cls-1" d="M391.4,156.2l-5.97-1.45,.45-.77,5.09,1.33-3.6-3.85,.38-.65,5.11,1.29-3.65-3.77,.45-.77,4.16,4.51-.49,.82-4.79-1.15,3.32,3.64-.48,.81Z"/>
        <path class="cls-1" d="M404.14,134.09l-7.05-3.98,.43-.77,7.05,3.98-.43,.77Z"/>
        <path class="cls-1" d="M405.4,131.86l-5.12-2.88,.33-.59,.66,.16c-.04-.34-.03-.71,.03-1.11,.05-.4,.18-.78,.38-1.13,.21-.38,.46-.63,.75-.78,.29-.14,.6-.19,.92-.15s.64,.14,.94,.32l3.48,1.96-.43,.76-3.39-1.91c-.22-.12-.43-.19-.65-.2-.22,0-.42,.04-.6,.14-.18,.1-.34,.27-.47,.5-.12,.21-.21,.42-.27,.62-.06,.21-.1,.41-.12,.61-.02,.21-.03,.43-.02,.66l4.02,2.26-.43,.76Z"/>
        <path class="cls-1" d="M409.62,124.5c-.07,.13-.16,.28-.27,.46-.11,.18-.23,.37-.36,.56-.13,.19-.24,.37-.35,.52-.11,.15-.2,.27-.27,.35l-.46-.26,1.18-2.1c.12-.21,.21-.4,.26-.57,.05-.17,.05-.33,0-.48-.06-.15-.2-.28-.42-.4l-.23-.13c-.22-.13-.44-.15-.65-.07-.21,.08-.4,.28-.59,.6l-.4,.72c-.17,.3-.36,.54-.57,.74s-.44,.3-.7,.32c-.26,.02-.55-.06-.88-.24l-.27-.15c-.32-.18-.55-.39-.68-.63-.13-.24-.18-.52-.13-.84,.05-.32,.19-.69,.43-1.12,.1-.18,.22-.38,.37-.61,.14-.23,.29-.45,.44-.66s.28-.38,.38-.51l.46,.26-1.11,1.97c-.18,.33-.27,.61-.26,.84s.17,.44,.48,.62l.21,.12c.2,.11,.37,.15,.52,.13,.15-.03,.28-.11,.39-.24,.12-.13,.23-.3,.34-.5l.41-.73c.26-.47,.58-.77,.94-.9s.75-.08,1.16,.15l.35,.2c.34,.19,.57,.42,.67,.69,.1,.26,.11,.55,.03,.86-.08,.31-.22,.65-.43,1.02Z"/>
        <path class="cls-1" d="M405.31,117.92c-.06,.1-.14,.12-.24,.07l-.75-.42c-.1-.06-.12-.14-.07-.24l.3-.54c.03-.05,.06-.08,.11-.09,.04,0,.08,0,.13,.03l.75,.42c.1,.06,.13,.13,.07,.23l-.3,.54Zm5.96,3.52l-5.12-2.89,.43-.76,5.12,2.89-.43,.76Z"/>
        <path class="cls-1" d="M415.57,119.31c-.19,.33-.4,.6-.64,.8-.24,.2-.49,.32-.76,.35s-.54-.02-.83-.18l-.23-.13c-.29-.17-.49-.39-.6-.66-.11-.27-.14-.56-.09-.87,.04-.3,.14-.59,.29-.85l.41-.02c-.11,.19-.18,.39-.21,.59s-.01,.39,.06,.57c.08,.18,.22,.33,.43,.45l.21,.12c.31,.17,.58,.2,.83,.07,.25-.13,.47-.37,.67-.72l.67-1.19c.22-.38,.31-.73,.29-1.03-.02-.3-.19-.54-.5-.72l-.19-.11c-.18-.1-.35-.15-.52-.16s-.33,.06-.49,.18c-.16,.12-.33,.33-.49,.62l-.87,1.54c-.22,.39-.48,.65-.78,.78-.29,.12-.57,.11-.84-.04-.25-.14-.41-.33-.47-.57-.06-.23-.04-.5,.05-.81-.23,.18-.46,.29-.7,.33-.24,.04-.47,.04-.68-.02-.22-.05-.42-.14-.61-.25-.39-.22-.67-.48-.82-.78-.15-.3-.2-.62-.14-.98,.06-.36,.2-.74,.43-1.14l1.55-2.73,.43,.24-.56,1.2c.1-.05,.23-.1,.38-.15,.15-.05,.33-.06,.54-.04,.21,.02,.46,.12,.76,.28,.26,.15,.48,.35,.65,.59,.17,.25,.26,.54,.26,.89,0,.35-.13,.75-.39,1.21l-.46,.81c-.15,.27-.23,.5-.24,.7,0,.2,.09,.36,.29,.48,.15,.09,.29,.09,.42,.01,.13-.08,.23-.18,.3-.31l.96-1.69c.22-.4,.46-.69,.71-.89,.25-.2,.51-.31,.79-.32,.28-.01,.58,.07,.9,.25l.21,.12c.47,.26,.74,.63,.83,1.1,.08,.47-.05,1.01-.4,1.64l-.81,1.43Zm-4.46-3l.33-.57c.18-.33,.28-.6,.27-.83,0-.22-.07-.41-.19-.57s-.28-.28-.46-.39c-.29-.16-.54-.25-.76-.25-.22,0-.42,.06-.58,.18-.17,.12-.31,.29-.44,.51l-.31,.54c-.21,.36-.29,.7-.24,.99,.04,.3,.27,.56,.67,.79,.4,.22,.73,.29,1.02,.2,.28-.09,.52-.3,.7-.62Z"/>
        <path class="cls-1" d="M415.64,113.73l-7.28-4.18,.43-.75,2.75,1.58c-.04-.33-.03-.7,.03-1.1,.06-.4,.19-.78,.39-1.14,.2-.36,.45-.61,.74-.75,.29-.14,.59-.2,.92-.16,.33,.04,.65,.15,.96,.33l3.46,1.99-.43,.75-3.39-1.94c-.22-.12-.43-.19-.65-.2s-.42,.04-.6,.14c-.19,.1-.34,.27-.47,.49-.12,.21-.21,.42-.27,.62-.06,.2-.1,.41-.12,.61-.02,.21-.03,.43-.03,.67l4,2.29-.43,.75Z"/>
        <path class="cls-1" d="M419.82,106.48c-.19,.33-.4,.57-.64,.72-.23,.15-.5,.21-.8,.17s-.65-.18-1.04-.42l-2.8-1.66-.47,.81-.49-.28,.34-.9-1.34-.95,.34-.58,1.42,.82,.85-1.46,.62,.36-.85,1.46,2.82,1.63c.22,.13,.41,.21,.57,.24s.3,.03,.42-.01,.21-.09,.29-.17,.15-.15,.2-.23l.42-.59,.55,.32-.4,.7Z"/>
        <path class="cls-1" d="M429.88,89.76l-6.31-5.16,.48-.75,7.05,1.98-4.74-5.56,.49-.76,7.32,3.59-.46,.71-6.41-3.16,.1-.11,4.84,5.55-.43,.68-7.08-2.06,.07-.15,5.53,4.49-.46,.71Z"/>
        <path class="cls-1" d="M436.19,80.22c-.34,.51-.69,.86-1.04,1.05-.35,.19-.75,.23-1.2,.11-.45-.12-.99-.39-1.62-.82-.64-.44-1.1-.84-1.38-1.21s-.38-.76-.33-1.16c.05-.4,.25-.85,.59-1.35,.29-.43,.58-.75,.86-.96,.28-.21,.58-.29,.9-.27,.32,.03,.69,.18,1.1,.46,.29,.19,.48,.4,.58,.63,.1,.23,.11,.47,.05,.74-.07,.26-.19,.53-.39,.82l-1.2,1.78c.4,.26,.75,.43,1.04,.52,.29,.08,.56,.05,.81-.08,.25-.14,.51-.41,.78-.82l1.06-1.57,.44,.29c-.15,.3-.31,.6-.46,.88s-.35,.6-.58,.95Zm-3.56-.48l1.17-1.73c.18-.27,.27-.51,.26-.71-.01-.2-.15-.39-.41-.56-.28-.19-.52-.29-.73-.32-.21-.02-.41,.03-.59,.16-.18,.13-.37,.34-.57,.63-.23,.34-.36,.64-.39,.9-.03,.26,.05,.52,.26,.77,.2,.25,.54,.54,1,.85Z"/>
        <path class="cls-1" d="M439.33,75.67c-.28,.39-.59,.66-.94,.79s-.75,.14-1.19,0-.94-.39-1.5-.78c-.59-.42-1.03-.82-1.32-1.2s-.42-.76-.4-1.14c.02-.38,.18-.79,.5-1.24,.19-.27,.41-.51,.65-.73,.24-.22,.47-.4,.68-.54l-2.28-1.61,.5-.71,6.86,4.84-.41,.58-.58-.21c.01,.15,0,.34-.04,.57-.04,.24-.11,.48-.19,.72s-.2,.46-.33,.65Zm-.44-.62c.19-.28,.33-.56,.4-.84s.12-.55,.15-.8l-3.14-2.21c-.22,.17-.42,.34-.6,.5s-.36,.37-.54,.62c-.21,.31-.33,.59-.36,.87-.02,.27,.08,.55,.29,.83,.22,.28,.57,.6,1.06,.95,.44,.31,.83,.53,1.16,.64,.33,.11,.62,.12,.87,.03,.25-.09,.48-.29,.69-.58Z"/>
        <path class="cls-1" d="M436.3,67.9c-.07,.09-.15,.11-.25,.04l-.69-.51c-.09-.07-.11-.15-.04-.25l.36-.5s.07-.07,.11-.07,.08,.01,.12,.04l.69,.51c.09,.07,.11,.15,.04,.24l-.36,.5Zm5.51,4.19l-4.74-3.47,.51-.7,4.74,3.46-.51,.7Z"/>
        <path class="cls-1" d="M444.61,68.42c-.2,.26-.42,.48-.66,.66-.24,.18-.52,.28-.82,.32s-.65-.01-1.03-.16-.81-.39-1.29-.75c-.49-.37-.85-.71-1.1-1.04s-.4-.63-.45-.93c-.05-.3-.02-.59,.08-.88s.27-.57,.49-.86c.18-.23,.38-.48,.61-.74,.23-.26,.46-.5,.69-.72l.41,.31-1.04,1.37c-.23,.3-.37,.59-.42,.87-.06,.28,.01,.58,.21,.89s.55,.66,1.06,1.05c.5,.38,.92,.61,1.27,.7,.35,.09,.65,.07,.9-.07,.25-.13,.49-.34,.71-.64l1.08-1.43,.4,.3c-.08,.15-.17,.33-.29,.52-.11,.2-.24,.4-.38,.61-.14,.21-.29,.41-.44,.62Z"/>
        <path class="cls-1" d="M447.24,65.02c-.27,.34-.59,.54-.97,.6-.38,.06-.75-.06-1.11-.35l-.33-.26c-.36-.29-.56-.64-.59-1.06s.14-.87,.52-1.35l1.24-1.56-.57-.45c-.19-.15-.38-.25-.56-.29-.19-.04-.39,0-.59,.1-.21,.11-.44,.33-.7,.65l-1.14,1.43-.4-.32c.13-.23,.28-.49,.46-.78,.18-.29,.42-.62,.71-.98,.29-.38,.58-.65,.88-.82s.59-.23,.9-.18c.3,.05,.62,.21,.96,.48l3.25,2.58-.42,.53-.63-.29s-.01,.14-.05,.31-.09,.36-.16,.6c-.07,.24-.17,.48-.28,.73s-.25,.48-.41,.68Zm-.28-.69c.09-.1,.17-.23,.25-.38,.08-.15,.15-.32,.22-.48,.07-.17,.14-.33,.19-.48,.05-.15,.1-.27,.13-.37,.03-.1,.05-.15,.05-.15l-1.45-1.15-1.06,1.45c-.25,.34-.36,.63-.32,.89,.04,.26,.17,.48,.41,.67l.21,.16c.18,.15,.36,.23,.54,.24s.33-.02,.47-.1c.14-.08,.26-.18,.36-.29Z"/>
        <path class="cls-1" d="M451.17,60.11c-.22,.26-.44,.44-.68,.54-.24,.1-.5,.1-.79,.02-.29-.08-.61-.28-.97-.58l-5-4.17,.56-.67,4.92,4.1c.27,.22,.5,.37,.68,.43,.18,.06,.34,.07,.47,.02,.13-.05,.26-.13,.39-.25l.43-.41,.48,.4-.48,.57Z"/>
        <path class="cls-1" d="M454.63,56.18c-.14,.15-.3,.3-.5,.44-.2,.14-.37,.25-.52,.32l-.5-.45c.12-.09,.27-.21,.43-.33,.16-.13,.29-.25,.4-.37,.16-.17,.27-.35,.33-.52s.06-.34,0-.53c-.06-.18-.21-.37-.44-.58l-4.63-4.15,.58-.65,4.71,4.22c.33,.29,.55,.58,.66,.86,.11,.28,.12,.56,.04,.84-.09,.28-.27,.58-.55,.89Z"/>
        <path class="cls-1" d="M458.1,52.39c-.39,.41-.79,.62-1.22,.64-.42,.02-.86-.19-1.3-.61l-3-2.85,.6-.63,2.84,2.7c.36,.34,.67,.49,.95,.44s.56-.21,.84-.5c.24-.25,.42-.51,.54-.79,.12-.28,.23-.58,.31-.92l-3.34-3.18,.6-.63,4.25,4.05-.47,.49-.6-.31c-.07,.35-.18,.71-.34,1.08-.16,.37-.38,.71-.67,1.01Z"/>
        <path class="cls-1" d="M462.64,47.78c-.35,.34-.71,.54-1.08,.61s-.76,0-1.17-.21c-.41-.21-.86-.56-1.33-1.05-.51-.52-.86-.99-1.07-1.42-.21-.43-.27-.83-.18-1.2s.33-.75,.72-1.12c.24-.23,.49-.43,.77-.6,.28-.17,.53-.3,.77-.41l-1.95-2,.62-.6,5.84,6.02-.5,.49-.53-.31c-.01,.15-.06,.33-.14,.55s-.19,.45-.33,.68-.28,.42-.44,.58Zm-.32-.69c.24-.23,.42-.49,.55-.75,.12-.27,.22-.52,.3-.76l-2.67-2.75c-.25,.13-.47,.25-.69,.38-.21,.13-.43,.3-.64,.51-.27,.26-.44,.52-.51,.79-.07,.26-.03,.55,.13,.87,.16,.32,.45,.69,.87,1.12,.38,.39,.72,.67,1.03,.84,.31,.17,.59,.24,.85,.19,.26-.04,.52-.19,.78-.44Z"/>
        <path class="cls-1" d="M468.54,45.84c-.28,.25-.57,.44-.86,.55-.29,.11-.56,.14-.83,.09s-.51-.2-.72-.44l-.18-.2c-.22-.25-.34-.52-.35-.82s.05-.58,.19-.85c.14-.28,.32-.51,.54-.71l.4,.12c-.16,.15-.29,.31-.39,.49s-.14,.37-.12,.56c.01,.2,.1,.38,.26,.56l.16,.18c.23,.26,.49,.37,.76,.33,.28-.04,.56-.2,.86-.47l1.02-.91c.33-.29,.53-.59,.61-.88,.08-.29,0-.58-.24-.84l-.15-.16c-.14-.15-.28-.26-.44-.31-.16-.06-.33-.05-.53,.01-.19,.06-.42,.21-.67,.43l-1.32,1.18c-.34,.3-.67,.46-.99,.49-.32,.02-.58-.08-.79-.31-.2-.22-.29-.45-.27-.69,.02-.24,.12-.49,.31-.75-.28,.1-.53,.13-.77,.09s-.45-.12-.64-.24c-.19-.12-.36-.27-.5-.43-.3-.34-.48-.67-.53-1-.05-.33,.01-.66,.18-.98,.17-.32,.43-.63,.77-.94l2.34-2.09,.33,.37-.91,.96c.12-.01,.25-.02,.41-.02,.16,0,.33,.05,.53,.13,.19,.09,.4,.26,.62,.51,.2,.22,.34,.48,.43,.77,.08,.29,.07,.6-.04,.92-.11,.33-.36,.67-.75,1.02l-.7,.62c-.23,.21-.38,.4-.45,.59s-.03,.37,.12,.54c.12,.13,.25,.18,.4,.15s.28-.1,.38-.2l1.45-1.3c.34-.3,.66-.51,.96-.62,.3-.11,.58-.13,.86-.05,.27,.08,.53,.25,.77,.53l.16,.18c.36,.4,.5,.83,.43,1.3s-.37,.94-.91,1.42l-1.22,1.09Zm-3.26-4.27l.49-.44c.28-.25,.45-.48,.52-.7,.07-.21,.07-.41,0-.6-.07-.19-.17-.36-.31-.52-.22-.25-.43-.41-.64-.48-.21-.07-.41-.08-.61-.01-.2,.06-.39,.18-.58,.34l-.47,.42c-.31,.28-.5,.57-.55,.87-.05,.3,.07,.62,.38,.96,.3,.34,.6,.51,.9,.52,.3,0,.58-.12,.86-.36Z"/>
        <path class="cls-1" d="M472.06,39.35c-.48,.39-.91,.63-1.3,.71-.39,.08-.79,0-1.18-.24-.4-.24-.84-.66-1.32-1.25-.49-.6-.82-1.12-.97-1.56-.15-.44-.15-.84,.02-1.2,.17-.36,.49-.74,.96-1.12,.4-.33,.77-.55,1.1-.67,.33-.12,.64-.11,.94,0,.3,.12,.61,.37,.92,.76,.22,.27,.34,.53,.37,.77,.03,.25-.03,.49-.17,.72-.14,.23-.34,.46-.61,.67l-1.66,1.36c.31,.37,.59,.63,.85,.79s.52,.22,.8,.15c.28-.06,.61-.25,.99-.56l1.47-1.2,.33,.41c-.23,.25-.47,.48-.7,.71s-.51,.47-.83,.74Zm-3.28-1.49l1.62-1.32c.25-.21,.41-.41,.45-.6,.04-.19-.03-.41-.23-.66-.21-.26-.42-.43-.61-.52s-.4-.09-.61-.01-.45,.22-.72,.44c-.32,.26-.53,.51-.63,.75s-.1,.51,.02,.81c.12,.3,.36,.67,.72,1.1Z"/>
        <path class="cls-1" d="M474.69,37.08l-3.43-4.77,.55-.4,.53,.42c.12-.34,.28-.67,.49-1s.49-.63,.86-.89c.3-.21,.6-.33,.91-.35,.31-.02,.59,.04,.84,.16,.07-.21,.17-.45,.31-.71,.13-.26,.29-.51,.48-.76s.39-.45,.62-.62c.34-.25,.68-.38,1-.39s.63,.07,.91,.24,.53,.41,.75,.71l2.32,3.21-.71,.51-2.28-3.16c-.15-.2-.32-.35-.51-.45-.19-.1-.4-.14-.61-.12-.21,.02-.43,.11-.64,.26-.27,.19-.51,.44-.71,.74-.21,.3-.38,.61-.51,.93,.09,.07,.18,.14,.26,.21,.08,.08,.15,.16,.22,.26l2.27,3.15-.71,.51-2.28-3.16c-.15-.2-.32-.35-.51-.45-.19-.1-.4-.14-.61-.13-.21,.02-.42,.1-.64,.25-.2,.14-.37,.29-.51,.45s-.26,.33-.37,.51-.2,.37-.3,.59l2.7,3.74-.71,.51Z"/>
        <path class="cls-1" d="M484.95,30.09c-.52,.33-.98,.51-1.38,.54-.4,.03-.78-.09-1.14-.38s-.75-.76-1.16-1.4c-.41-.66-.67-1.21-.77-1.67-.1-.45-.04-.85,.17-1.19,.21-.34,.57-.67,1.09-1,.44-.28,.83-.45,1.17-.53,.34-.07,.65-.03,.93,.12,.28,.15,.56,.44,.82,.87,.18,.29,.27,.56,.27,.81,0,.25-.09,.48-.25,.69-.17,.21-.39,.41-.69,.59l-1.82,1.14c.26,.4,.51,.7,.74,.89,.24,.19,.49,.28,.78,.25,.28-.03,.63-.17,1.05-.43l1.6-1.01,.28,.45c-.26,.22-.52,.42-.78,.62-.26,.2-.56,.41-.92,.63Zm-3.07-1.88l1.77-1.11c.28-.18,.45-.36,.52-.54,.07-.19,.02-.41-.15-.68-.18-.29-.36-.48-.54-.59-.18-.11-.38-.13-.6-.09-.22,.04-.48,.16-.77,.35-.35,.22-.59,.44-.72,.67-.13,.23-.16,.5-.08,.81s.28,.71,.58,1.18Z"/>
        <path class="cls-1" d="M487.89,28.19l-2.88-5.12,.59-.33,.48,.47c.15-.31,.34-.62,.6-.94s.55-.57,.91-.77c.38-.21,.73-.3,1.05-.27,.32,.03,.61,.15,.86,.35,.26,.2,.47,.46,.64,.76l1.96,3.48-.76,.43-1.91-3.39c-.12-.22-.27-.39-.46-.51s-.38-.19-.59-.19c-.21,0-.43,.05-.66,.18-.21,.12-.4,.25-.55,.39-.16,.14-.3,.3-.42,.46-.12,.17-.24,.35-.36,.55l2.26,4.02-.76,.43Z"/>
        <path class="cls-1" d="M495.15,24.26c-.34,.17-.65,.26-.93,.26-.28,0-.53-.09-.76-.29-.23-.19-.45-.5-.65-.91l-1.45-2.92-.83,.42-.25-.5,.77-.57-.62-1.53,.6-.3,.74,1.46,1.51-.77,.32,.64-1.51,.77,1.48,2.9c.12,.23,.23,.4,.35,.51s.24,.18,.36,.21c.12,.03,.23,.04,.34,.02s.2-.04,.29-.08l.67-.27,.29,.57-.71,.36Z"/>
      </g>
      <g>
        <path class="cls-1" d="M384.57,213l2.96-8.03,.7,.57-2.64,7.11,6.42-4.03,.69,.56-7.26,4.53-.87-.71Z"/>
        <path class="cls-1" d="M388.64,216.25l3.58-4.66,.69,.53-3.58,4.66-.69-.53Zm4.32-5.4c-.09-.07-.1-.15-.03-.25l.52-.68c.07-.09,.15-.1,.25-.03l.49,.38s.07,.07,.07,.12c0,.04-.02,.08-.05,.12l-.52,.68c-.07,.09-.15,.11-.24,.04l-.49-.38Z"/>
        <path class="cls-1" d="M392.51,219.23c-.5-.36-.83-.72-1.01-1.08-.18-.36-.2-.76-.06-1.21,.13-.45,.43-.98,.88-1.59,.46-.63,.88-1.07,1.27-1.33s.77-.35,1.17-.28c.39,.07,.84,.28,1.33,.64,.42,.31,.73,.6,.92,.89,.19,.29,.27,.59,.23,.91-.04,.32-.21,.68-.5,1.08-.2,.28-.42,.46-.65,.55-.23,.09-.48,.09-.74,.02-.26-.08-.53-.21-.8-.42l-1.73-1.27c-.28,.39-.46,.73-.55,1.02-.09,.29-.08,.56,.05,.81,.13,.25,.39,.53,.79,.81l1.53,1.12-.31,.43c-.3-.16-.59-.33-.86-.5-.28-.17-.59-.37-.92-.62Zm.62-3.54l1.69,1.23c.27,.19,.5,.29,.7,.29,.2,0,.39-.13,.58-.39,.2-.27,.31-.51,.34-.72,.03-.21-.02-.41-.14-.59s-.33-.38-.61-.59c-.33-.24-.63-.38-.89-.42s-.52,.03-.78,.23-.55,.52-.89,.97Z"/>
        <path class="cls-1" d="M396.56,222.05l1.78-5.87,.74,.5-1.61,5.01,4.05-3.38,.63,.42-1.58,5.03,3.97-3.43,.74,.5-4.74,3.9-.79-.53,1.42-4.71-3.82,3.11-.79-.53Z"/>
        <path class="cls-1" d="M401.72,228.55l4.39-7.26,.6,.36-.17,.6c.16-.01,.36-.01,.59,0,.23,.02,.47,.06,.72,.12,.25,.07,.48,.16,.68,.28,.33,.2,.56,.44,.71,.72,.14,.28,.22,.58,.22,.91s-.06,.66-.18,1.01-.29,.69-.49,1.03c-.34,.57-.69,1-1.06,1.31s-.73,.48-1.12,.51c-.38,.04-.78-.07-1.19-.32-.28-.17-.54-.39-.77-.65s-.43-.54-.59-.83l-1.6,2.65-.74-.45Zm3.87-1.47c.24,.14,.49,.21,.75,.21,.26,0,.53-.12,.82-.33,.29-.22,.58-.57,.88-1.07,.29-.47,.45-.88,.51-1.24,.05-.36,.02-.66-.09-.9-.11-.24-.28-.43-.5-.57-.29-.17-.58-.29-.88-.34-.3-.06-.57-.09-.82-.1l-1.86,3.08c.15,.25,.32,.49,.53,.72,.2,.23,.43,.41,.67,.56Z"/>
        <path class="cls-1" d="M410.67,230.85c-.37-.21-.68-.42-.91-.66-.24-.23-.39-.49-.47-.79-.08-.3-.07-.64,.03-1.03,.1-.39,.3-.86,.59-1.39,.3-.54,.59-.96,.87-1.25,.28-.29,.56-.48,.86-.57,.29-.09,.6-.09,.92,0,.32,.08,.67,.22,1.04,.43,.37,.21,.68,.43,.91,.66,.24,.23,.4,.49,.48,.79,.08,.29,.07,.64-.02,1.03s-.29,.86-.59,1.39c-.3,.54-.59,.96-.87,1.25-.28,.29-.57,.48-.86,.57-.29,.09-.59,.09-.92,.01s-.67-.22-1.05-.43Zm.35-.62c.24,.13,.46,.22,.67,.28s.41,.05,.61-.02c.2-.07,.4-.22,.61-.45,.21-.23,.44-.57,.69-1.02,.25-.45,.41-.82,.5-1.12,.08-.3,.1-.55,.05-.75-.05-.2-.15-.38-.31-.52-.16-.15-.36-.29-.59-.42-.24-.14-.47-.23-.67-.29s-.41-.05-.6,.02-.4,.21-.61,.44-.44,.57-.69,1.02c-.25,.44-.41,.82-.5,1.12-.08,.3-.1,.56-.06,.76,.05,.2,.15,.38,.3,.52,.15,.14,.35,.29,.6,.42Z"/>
        <path class="cls-1" d="M414.34,232.74l2.7-5.22,.77,.4-2.7,5.22-.77-.4Zm3.3-6.08c-.1-.05-.13-.13-.08-.24l.39-.76c.05-.1,.13-.13,.24-.07l.55,.28c.05,.03,.08,.06,.09,.1,0,.04,0,.08-.02,.13l-.39,.76c-.05,.1-.13,.13-.23,.08l-.55-.28Z"/>
        <path class="cls-1" d="M416.7,233.97l2.55-5.29,.61,.3-.11,.67c.34-.06,.71-.07,1.11-.04,.4,.03,.79,.13,1.15,.3,.39,.19,.66,.42,.82,.7,.16,.28,.23,.58,.21,.91-.02,.32-.1,.65-.26,.96l-1.73,3.6-.78-.38,1.69-3.51c.11-.22,.16-.45,.16-.66,0-.22-.06-.42-.18-.59s-.29-.32-.53-.44c-.22-.11-.43-.18-.64-.23s-.42-.07-.62-.08-.43,0-.66,.02l-2,4.15-.78-.38Z"/>
        <path class="cls-1" d="M424.44,237.57c-.35-.15-.61-.34-.79-.55-.18-.21-.26-.47-.26-.78,0-.3,.11-.66,.3-1.08l1.35-2.96-.85-.38,.23-.51,.93,.24,.79-1.44,.61,.27-.66,1.5,1.55,.69-.29,.65-1.55-.69-1.32,2.98c-.1,.24-.16,.43-.17,.6-.01,.16,0,.3,.06,.41,.05,.11,.12,.2,.2,.27,.08,.07,.16,.13,.25,.18l.63,.35-.26,.58-.73-.32Z"/>
        <path class="cls-1" d="M437.92,242.77l2.44-7.72,3.07,.97c.22,.07,.44,.17,.66,.31,.22,.13,.4,.32,.55,.55s.23,.54,.25,.9c.02,.36-.05,.81-.22,1.34-.17,.54-.38,.96-.61,1.25-.23,.29-.48,.49-.75,.61s-.52,.16-.78,.15-.5-.05-.72-.12c-.11-.03-.26-.09-.46-.16-.2-.07-.41-.15-.64-.23-.22-.08-.43-.16-.62-.24-.19-.08-.34-.13-.44-.17l-.89,2.82-.84-.26Zm1.93-3.2l2.09,.66c.25,.08,.49,.09,.72,.05,.24-.04,.45-.17,.65-.4,.2-.22,.37-.56,.51-1.03,.14-.45,.2-.82,.16-1.11-.04-.29-.13-.51-.29-.66-.16-.16-.35-.27-.57-.34l-2.16-.68-1.11,3.5Z"/>
        <path class="cls-1" d="M444.39,244.76l1.56-5.66,.64,.18-.07,1.04c.34-.23,.69-.41,1.06-.52,.37-.11,.76-.11,1.17,0,.1,.03,.19,.06,.28,.09,.09,.03,.17,.07,.24,.11l-.24,.86c-.09-.04-.18-.08-.29-.12-.1-.04-.21-.07-.31-.1-.26-.07-.5-.1-.73-.1-.22,0-.44,.05-.66,.12-.22,.08-.45,.18-.7,.31l-1.11,4.02-.84-.23Z"/>
        <path class="cls-1" d="M451.07,246.58c-.6-.14-1.05-.35-1.35-.61-.3-.26-.48-.62-.53-1.09-.05-.46,.02-1.07,.2-1.81,.18-.76,.4-1.33,.65-1.71,.25-.39,.58-.62,.97-.71,.39-.09,.88-.06,1.47,.08,.51,.12,.9,.28,1.19,.47,.29,.19,.48,.44,.57,.75,.09,.31,.07,.71-.04,1.19-.08,.33-.21,.59-.39,.76s-.4,.27-.67,.3c-.27,.03-.57,0-.9-.08l-2.09-.5c-.1,.47-.14,.85-.12,1.15,.02,.3,.15,.55,.36,.73,.22,.18,.56,.33,1.04,.45l1.84,.44-.12,.51c-.34-.04-.67-.08-.99-.12s-.68-.12-1.09-.22Zm-.8-3.51l2.03,.49c.32,.08,.57,.07,.75,0,.18-.08,.31-.28,.38-.58,.08-.33,.09-.59,.04-.8s-.17-.37-.36-.49c-.18-.12-.45-.23-.79-.31-.4-.1-.73-.11-.98-.05-.26,.06-.47,.23-.63,.51-.16,.28-.31,.69-.44,1.24Z"/>
        <path class="cls-1" d="M456.82,247.84c-.14-.03-.32-.07-.53-.12s-.42-.1-.65-.16-.43-.12-.61-.17c-.18-.05-.32-.1-.41-.14l.1-.52,2.36,.47c.24,.05,.45,.07,.63,.07s.33-.05,.45-.16c.12-.1,.21-.28,.25-.52l.05-.26c.05-.25,0-.46-.13-.64-.14-.17-.39-.3-.76-.37l-.81-.16c-.34-.07-.63-.17-.87-.31-.25-.14-.42-.33-.52-.56-.1-.24-.12-.54-.04-.91l.06-.3c.07-.36,.2-.64,.39-.84s.44-.33,.76-.39,.72-.04,1.19,.06c.2,.04,.43,.09,.69,.16,.26,.07,.51,.14,.76,.21,.25,.08,.45,.14,.6,.21l-.1,.52-2.22-.45c-.37-.07-.66-.07-.88,.01-.22,.08-.37,.3-.44,.65l-.05,.24c-.04,.22-.03,.4,.04,.53,.07,.13,.19,.23,.35,.3,.16,.07,.35,.13,.58,.17l.82,.16c.52,.11,.91,.31,1.14,.61,.24,.3,.31,.68,.22,1.14l-.08,.4c-.08,.39-.23,.67-.45,.85-.22,.18-.49,.28-.81,.3s-.69,0-1.1-.09Z"/>
        <path class="cls-1" d="M462.49,248.86c-.33-.05-.62-.15-.89-.28-.27-.13-.49-.32-.66-.58-.17-.25-.29-.58-.34-.98-.05-.4-.03-.9,.06-1.49,.1-.6,.23-1.09,.4-1.46s.38-.65,.61-.83c.24-.18,.51-.3,.81-.34,.3-.04,.63-.03,.99,.03,.29,.05,.6,.11,.94,.19,.34,.08,.66,.17,.96,.27l-.08,.51-1.69-.28c-.37-.06-.69-.05-.96,.03-.27,.08-.5,.28-.69,.6-.18,.32-.33,.79-.43,1.43-.1,.62-.11,1.1-.02,1.45,.08,.35,.24,.6,.48,.76,.23,.16,.53,.27,.89,.33l1.77,.29-.08,.5c-.17,0-.37,0-.59,0-.23,0-.46-.02-.71-.05-.25-.03-.5-.06-.75-.1Z"/>
        <path class="cls-1" d="M465.81,249.29l.79-5.82,.86,.12-.79,5.82-.86-.12Zm1.06-6.84c-.12-.02-.17-.08-.15-.2l.12-.85c.02-.12,.08-.17,.2-.15l.61,.08c.06,0,.1,.03,.12,.07,.02,.04,.03,.08,.02,.13l-.12,.85c-.02,.12-.08,.17-.19,.15l-.61-.08Z"/>
        <path class="cls-1" d="M470.66,249.95c-.61-.07-1.09-.21-1.42-.43-.33-.22-.55-.56-.66-1.01-.11-.45-.12-1.06-.04-1.82,.08-.77,.23-1.37,.43-1.79s.49-.69,.87-.83c.38-.14,.87-.17,1.47-.11,.52,.05,.93,.16,1.25,.31,.31,.15,.53,.38,.66,.67s.16,.69,.11,1.19c-.04,.34-.13,.61-.29,.8s-.37,.32-.63,.39c-.26,.06-.56,.08-.91,.04l-2.13-.23c-.04,.47-.03,.86,.03,1.16,.06,.3,.21,.52,.45,.68s.6,.26,1.09,.31l1.88,.2-.06,.53c-.34,0-.67,0-1,0s-.69-.03-1.11-.07Zm-1.24-3.37l2.08,.22c.33,.04,.58,0,.75-.1,.17-.1,.27-.31,.3-.63,.04-.33,.01-.6-.06-.8-.08-.2-.22-.34-.42-.44-.2-.1-.47-.17-.82-.2-.41-.04-.74-.02-.98,.08-.25,.09-.43,.29-.56,.59-.13,.3-.22,.73-.28,1.29Z"/>
        <path class="cls-1" d="M474.54,250.26l.37-5.86,.68,.04,.15,.66c.29-.18,.63-.33,1.01-.46,.38-.13,.78-.18,1.18-.15,.43,.03,.77,.14,1.03,.34s.43,.45,.54,.76c.11,.31,.15,.64,.12,.99l-.25,3.98-.87-.05,.25-3.89c.02-.25-.02-.47-.11-.67-.09-.2-.22-.36-.39-.48-.17-.12-.39-.19-.65-.21-.24-.02-.47,0-.68,.03-.21,.03-.41,.09-.61,.16-.19,.07-.39,.16-.61,.26l-.29,4.6-.87-.05Z"/>
        <path class="cls-1" d="M483.29,250.74c-.33,0-.64-.06-.92-.15-.28-.09-.53-.25-.74-.48s-.37-.53-.48-.92c-.11-.39-.16-.89-.15-1.49,.01-.61,.08-1.11,.2-1.5s.28-.69,.49-.91c.21-.21,.46-.36,.76-.45s.62-.12,.98-.11c.29,0,.61,.03,.96,.06,.34,.03,.67,.08,.99,.14v.52s-1.73-.04-1.73-.04c-.37,0-.69,.05-.95,.17-.26,.12-.46,.35-.6,.69-.14,.34-.21,.83-.23,1.48-.01,.62,.05,1.1,.18,1.43,.13,.33,.33,.56,.58,.69,.25,.13,.56,.19,.93,.2l1.79,.04v.51c-.18,.03-.38,.05-.6,.08-.22,.03-.46,.04-.71,.05-.25,0-.5,.01-.76,0Z"/>
        <path class="cls-1" d="M488.98,250.73c-.62,.01-1.1-.07-1.46-.24-.36-.17-.62-.48-.79-.92s-.25-1.04-.27-1.8c-.02-.78,.05-1.39,.2-1.83,.15-.44,.4-.75,.75-.94,.35-.18,.84-.28,1.45-.3,.52-.01,.95,.04,1.27,.15,.33,.11,.58,.3,.74,.58,.16,.28,.25,.67,.26,1.17,0,.34-.05,.62-.18,.83s-.32,.37-.57,.46c-.25,.1-.55,.15-.89,.16l-2.14,.05c.02,.48,.08,.86,.18,1.15,.1,.29,.28,.49,.54,.62,.26,.12,.63,.18,1.12,.17l1.89-.04v.53c-.32,.05-.65,.1-.98,.13-.32,.04-.69,.06-1.11,.07Zm-1.67-3.19l2.09-.05c.33,0,.57-.07,.73-.2,.15-.12,.23-.34,.22-.66,0-.34-.06-.6-.17-.78-.1-.19-.26-.31-.47-.39-.21-.07-.49-.1-.84-.1-.41,0-.73,.08-.96,.2-.23,.13-.39,.34-.48,.65-.09,.31-.13,.75-.11,1.31Z"/>
      </g>
    </g>
  </g>
</svg>