<?xml version="1.0" encoding="UTF-8"?>
<svg id="Layer_2" data-name="Layer 2" xmlns="http://www.w3.org/2000/svg" viewBox="0 0 147.85 63.27">
  <defs>
    <style>
      .cls-1 {
        fill: #fff;
      }

      .cls-2 {
        fill: #7594b3;
      }
    </style>
  </defs>
  <g id="Layer_1-2" data-name="Layer 1">
    <g>
      <path class="cls-2" d="M147.85,63.25h-.03c-.66,.05-2.67,0-7.62,0C116.16,63.25,48.36,57.75,0,0H37.91c17.77,15.09,39.15,25.65,63.8,31.51,25.33,6.02,45.92,4.25,46.11,4.23l.03,27.51Z"/>
      <g>
        <path class="cls-1" d="M26.93,12.81c-.13-.11-.27-.25-.4-.4s-.23-.33-.3-.52c-.07-.19-.08-.4-.03-.63,.05-.23,.19-.48,.43-.76l3.19-3.77c.2-.24,.41-.41,.61-.51,.21-.1,.41-.15,.6-.14,.2,0,.38,.05,.57,.13,.18,.08,.34,.18,.49,.31,.34,.3,.66,.58,.95,.84,.29,.26,.56,.51,.82,.74,.26,.23,.51,.46,.75,.69l-.46,.54-2.42-2.05c-.22-.18-.44-.27-.67-.26-.23,0-.45,.14-.67,.4l-1.24,1.46,2.72,2.38-.43,.51-2.8-2.3-1.23,1.45c-.18,.21-.27,.39-.29,.56-.02,.17,.01,.31,.1,.45,.09,.13,.19,.25,.32,.36l2.38,2.02-.46,.54c-.27-.2-.55-.42-.85-.64s-.58-.46-.87-.69c-.29-.23-.57-.46-.85-.69Z"/>
        <path class="cls-1" d="M30.23,15.53l3.71-1.12-.23,.82-2.79,.85-.69-.55Zm3.29,2.61l.35-7.21,.7,.55-.35,7.22-.71-.56Zm.62-2.92l.13-.78,2.89-.9,.71,.55-3.73,1.13Z"/>
        <path class="cls-1" d="M33.63,21.52l5.04-6.82,.57,.42-.23,.58c.16,0,.36,.02,.59,.06,.23,.04,.47,.1,.71,.19s.46,.2,.65,.35c.31,.23,.52,.49,.64,.78,.12,.29,.16,.6,.13,.92s-.12,.65-.28,.99c-.16,.33-.35,.66-.58,.98-.39,.53-.78,.93-1.17,1.21-.39,.27-.77,.41-1.16,.41-.38,0-.77-.14-1.16-.43-.27-.2-.5-.44-.71-.72-.21-.28-.38-.58-.51-.88l-1.84,2.49-.7-.52Zm3.99-1.11c.22,.17,.47,.26,.73,.28s.54-.07,.85-.26,.63-.52,.97-.98c.33-.44,.53-.84,.62-1.19,.09-.35,.08-.65,0-.9-.09-.25-.24-.46-.45-.61-.27-.2-.55-.34-.84-.42s-.56-.14-.81-.18l-2.14,2.89c.12,.26,.28,.52,.46,.76s.39,.45,.62,.62Z"/>
        <path class="cls-1" d="M42.24,24.58c-.51-.35-.86-.7-1.05-1.05-.19-.35-.22-.75-.1-1.2,.12-.45,.4-.99,.83-1.62,.44-.64,.85-1.1,1.22-1.37,.38-.27,.76-.38,1.16-.32,.4,.06,.84,.26,1.35,.6,.43,.29,.75,.58,.95,.86,.2,.28,.29,.58,.26,.91s-.19,.69-.47,1.1c-.2,.29-.41,.47-.64,.57-.23,.1-.47,.11-.74,.04s-.53-.2-.82-.39l-1.77-1.21c-.26,.4-.44,.74-.52,1.04-.09,.29-.06,.56,.08,.81,.14,.25,.41,.51,.81,.79l1.56,1.07-.3,.44c-.3-.15-.6-.31-.88-.47-.28-.16-.6-.36-.94-.59Zm.5-3.56l1.72,1.18c.27,.19,.51,.27,.71,.26s.39-.15,.57-.41c.19-.28,.3-.52,.32-.73,.02-.21-.03-.41-.16-.59s-.34-.37-.63-.57c-.34-.23-.64-.36-.9-.4s-.52,.05-.77,.25c-.25,.2-.54,.53-.86,1Z"/>
        <path class="cls-1" d="M45.49,26.67l3.17-4.95,.56,.36-.38,.97c.39-.12,.78-.18,1.17-.18,.39,0,.76,.12,1.12,.35,.09,.06,.17,.11,.24,.17s.14,.11,.19,.18l-.48,.75c-.07-.06-.15-.13-.24-.2-.09-.07-.18-.13-.27-.19-.23-.15-.45-.25-.67-.31-.21-.06-.44-.08-.67-.08-.23,0-.49,.04-.76,.09l-2.25,3.51-.73-.47Z"/>
        <path class="cls-1" d="M51.16,30.21c-.33-.2-.56-.41-.71-.65-.15-.24-.2-.5-.16-.8,.04-.3,.19-.64,.43-1.04l1.71-2.77-.8-.48,.29-.48,.89,.36,.97-1.33,.57,.35-.85,1.4,1.45,.88-.37,.61-1.45-.88-1.68,2.79c-.13,.22-.22,.41-.25,.57s-.03,.3,0,.42c.04,.12,.09,.22,.16,.3s.15,.15,.22,.21l.58,.43-.33,.55-.69-.42Z"/>
        <path class="cls-1" d="M57.75,33.95l1.36-8.45,.8,.42-1.23,7.49,5.53-5.19,.79,.42-6.26,5.84-.99-.53Z"/>
        <path class="cls-1" d="M62.38,36.35l2.6-5.27,.78,.38-2.6,5.27-.78-.38Zm3.18-6.14c-.11-.05-.13-.13-.08-.24l.38-.77c.05-.11,.13-.13,.24-.08l.55,.27c.05,.03,.08,.06,.09,.1,0,.04,0,.08-.02,.13l-.38,.77c-.05,.11-.13,.13-.23,.08l-.55-.27Z"/>
        <path class="cls-1" d="M66.78,38.52c-.56-.26-.96-.54-1.21-.86s-.35-.71-.3-1.17c.04-.46,.23-1.04,.55-1.74,.33-.71,.65-1.22,.98-1.55,.33-.33,.69-.5,1.09-.51,.4,0,.88,.11,1.43,.37,.47,.22,.83,.45,1.08,.69,.25,.24,.38,.53,.41,.85,.02,.32-.07,.71-.28,1.16-.14,.31-.32,.54-.53,.67-.21,.13-.45,.19-.72,.17-.27-.02-.56-.11-.87-.25l-1.95-.9c-.19,.44-.31,.81-.34,1.11-.04,.3,.04,.57,.21,.79,.18,.22,.49,.44,.93,.64l1.72,.79-.22,.48c-.32-.1-.64-.21-.95-.32-.3-.11-.65-.25-1.03-.42Zm-.1-3.59l1.9,.88c.3,.14,.55,.19,.74,.14,.19-.04,.36-.21,.49-.5,.14-.31,.21-.56,.19-.78-.01-.21-.1-.4-.25-.55-.16-.16-.4-.31-.72-.46-.37-.17-.69-.25-.96-.24s-.5,.14-.72,.38c-.22,.24-.44,.62-.68,1.13Z"/>
        <path class="cls-1" d="M71.32,40.48l.56-6.11,.83,.34-.57,5.23,3.28-4.13,.7,.29-.53,5.25,3.2-4.16,.83,.33-3.85,4.77-.89-.36,.44-4.9-3.12,3.81-.88-.36Z"/>
        <path class="cls-1" d="M92.41,47.71l-.62-8.54,.87,.23,.54,7.57,4.18-6.33,.86,.23-4.74,7.12-1.08-.29Z"/>
        <path class="cls-1" d="M97.5,48.98l1.31-5.73,.85,.19-1.31,5.73-.85-.19Zm1.67-6.72c-.11-.03-.16-.1-.13-.21l.19-.84c.03-.11,.1-.16,.21-.13l.6,.14c.06,.01,.09,.04,.11,.08,.02,.04,.02,.08,0,.13l-.19,.84c-.03,.11-.09,.16-.2,.13l-.6-.14Z"/>
        <path class="cls-1" d="M102.28,50.07c-.6-.12-1.06-.3-1.38-.55-.31-.25-.5-.6-.57-1.07-.06-.46-.02-1.07,.13-1.81,.15-.76,.35-1.34,.59-1.74,.24-.4,.55-.65,.94-.75s.88-.09,1.48,.03c.51,.1,.91,.24,1.21,.42,.3,.18,.5,.42,.59,.73s.1,.71,0,1.19c-.07,.34-.19,.6-.36,.78-.17,.18-.39,.29-.66,.33-.27,.04-.57,.03-.91-.04l-2.1-.42c-.09,.47-.11,.85-.07,1.16s.17,.54,.39,.72c.22,.17,.58,.31,1.06,.41l1.86,.37-.1,.52c-.34-.02-.67-.05-.99-.09-.32-.03-.69-.09-1.1-.17Zm-.94-3.47l2.05,.41c.32,.06,.58,.05,.75-.04,.18-.09,.3-.29,.36-.6,.07-.33,.07-.6,0-.8-.06-.2-.19-.36-.38-.48-.19-.12-.46-.21-.8-.28-.4-.08-.73-.08-.98-.01-.25,.07-.46,.25-.61,.53-.15,.28-.29,.7-.4,1.26Z"/>
        <path class="cls-1" d="M107.17,50.91l-.89-6.07,.88,.13,.68,5.22,2.21-4.79,.75,.11,.72,5.22,2.13-4.8,.88,.13-2.62,5.55-.95-.14-.73-4.87-2.13,4.44-.94-.14Z"/>
        <path class="cls-1" d="M114.65,54.58l.82-8.44,.7,.07,.11,.62c.14-.08,.32-.17,.54-.25,.22-.09,.45-.15,.71-.2,.25-.05,.5-.06,.74-.04,.38,.04,.69,.15,.94,.34,.25,.19,.45,.43,.59,.73,.14,.29,.23,.62,.27,.99,.04,.37,.04,.74,0,1.14-.06,.66-.19,1.2-.39,1.64s-.45,.75-.78,.95c-.33,.2-.73,.27-1.22,.22-.33-.03-.65-.12-.98-.26-.32-.14-.62-.3-.89-.49l-.3,3.08-.86-.08Zm2.86-3c.28,.03,.53-.02,.77-.13,.23-.12,.43-.34,.59-.66s.27-.77,.33-1.34c.05-.55,.03-.99-.08-1.34s-.26-.6-.47-.77c-.21-.17-.44-.27-.7-.29-.34-.03-.65,0-.94,.07-.29,.08-.55,.17-.78,.26l-.35,3.58c.24,.16,.5,.3,.78,.42,.28,.12,.56,.19,.85,.21Z"/>
        <path class="cls-1" d="M123.73,52.77c-.42-.02-.79-.09-1.11-.19-.31-.1-.57-.27-.77-.5-.2-.23-.34-.54-.42-.94s-.11-.9-.08-1.51c.03-.62,.11-1.12,.23-1.5,.12-.39,.3-.68,.52-.89,.22-.21,.5-.34,.82-.41,.32-.07,.7-.09,1.12-.07s.79,.09,1.11,.19c.31,.1,.57,.27,.77,.5,.2,.23,.34,.54,.43,.94,.09,.4,.11,.9,.08,1.51-.03,.62-.11,1.12-.24,1.5-.13,.39-.3,.68-.52,.89-.22,.21-.49,.34-.82,.41-.33,.07-.7,.09-1.13,.07Zm.04-.71c.27,.01,.51,0,.72-.04,.21-.04,.39-.13,.54-.28,.15-.15,.27-.37,.36-.68s.15-.71,.17-1.21c.03-.51,.01-.92-.05-1.23-.06-.3-.15-.54-.28-.7-.13-.16-.3-.27-.51-.34-.21-.06-.44-.1-.72-.11-.28-.01-.52,0-.73,.04-.21,.04-.39,.13-.53,.28-.15,.15-.27,.37-.36,.66-.09,.3-.15,.7-.17,1.21-.03,.5-.01,.91,.05,1.23,.06,.31,.15,.55,.28,.71s.3,.27,.5,.33c.2,.06,.44,.1,.72,.12Z"/>
        <path class="cls-1" d="M127.88,52.87l.12-5.87,.87,.02-.12,5.87-.87-.02Zm.28-6.92c-.12,0-.17-.06-.17-.18l.02-.86c0-.12,.06-.17,.18-.17h.62c.06,.01,.1,.03,.12,.07,.03,.03,.04,.08,.04,.13l-.02,.86c0,.12-.06,.17-.17,.17h-.62Z"/>
        <path class="cls-1" d="M130.57,52.92l-.08-5.87h.68s.2,.64,.2,.64c.28-.2,.6-.38,.97-.54,.37-.16,.76-.24,1.16-.24,.43,0,.78,.08,1.05,.26s.46,.42,.59,.72,.2,.62,.2,.98l.05,3.99h-.87s-.05-3.88-.05-3.88c0-.25-.06-.47-.16-.66-.1-.19-.24-.34-.42-.45-.18-.11-.4-.16-.67-.16-.24,0-.47,.03-.67,.08-.21,.05-.41,.12-.59,.21-.19,.09-.38,.19-.58,.31l.06,4.61h-.87Z"/>
        <path class="cls-1" d="M139.16,52.66c-.38,.02-.7-.02-.96-.13s-.45-.3-.58-.57c-.13-.27-.21-.64-.23-1.1l-.15-3.25-.93,.05-.03-.56,.94-.21,.05-1.64,.67-.04,.09,1.64,1.69-.1,.04,.71-1.69,.1,.18,3.25c.01,.26,.05,.46,.12,.61,.06,.15,.14,.26,.24,.34,.1,.08,.2,.13,.3,.15s.21,.04,.3,.04l.72,.03,.04,.64-.8,.05Z"/>
      </g>
    </g>
  </g>
</svg>