<?xml version="1.0" encoding="UTF-8"?>
<svg id="Layer_2" data-name="Layer 2" xmlns="http://www.w3.org/2000/svg" viewBox="0 0 1155.08 859.96">
  <defs>
    <style>
      .cls-1 {
        fill: #fff;
      }

      .cls-2 {
        fill: #3d3d3d;
      }

      .cls-3 {
        fill: #202a45;
      }

      .cls-4, .cls-5, .cls-6, .cls-7, .cls-8, .cls-9, .cls-10, .cls-11 {
        fill: none;
      }

      .cls-4, .cls-5, .cls-6, .cls-7, .cls-8, .cls-10 {
        stroke-miterlimit: 10;
      }

      .cls-4, .cls-5, .cls-8 {
        stroke-width: .75px;
      }

      .cls-4, .cls-8 {
        stroke: #475d75;
      }

      .cls-12 {
        fill: #a59aa5;
      }

      .cls-5 {
        stroke: #000;
      }

      .cls-13 {
        fill: #dd9c83;
      }

      .cls-14 {
        fill: #222023;
      }

      .cls-15 {
        fill: #475d75;
      }

      .cls-16 {
        fill: #dbd5db;
      }

      .cls-6 {
        stroke: #2c2c2c;
      }

      .cls-17 {
        fill: #e6e1e7;
      }

      .cls-18 {
        fill: #ffbe9d;
      }

      .cls-7 {
        stroke-width: 2.2px;
      }

      .cls-7, .cls-9, .cls-11 {
        stroke: #fff;
      }

      .cls-8 {
        isolation: isolate;
        opacity: .9;
      }

      .cls-19 {
        fill: #7594b3;
      }

      .cls-20 {
        fill: #2c2c2c;
      }

      .cls-21 {
        fill: #ffac9d;
      }

      .cls-9 {
        stroke-width: 9.03px;
      }

      .cls-9, .cls-11 {
        opacity: .2;
        stroke-linecap: round;
        stroke-linejoin: round;
      }

      .cls-22 {
        fill: #c2b8c2;
      }

      .cls-23 {
        fill: #efa987;
      }

      .cls-24 {
        fill: #fdbc9b;
      }

      .cls-10 {
        stroke: #efa987;
        stroke-width: .48px;
      }

      .cls-11 {
        stroke-width: 13.14px;
      }
    </style>
  </defs>
  <g id="Layer_1-2" data-name="Layer 1">
    <g id="icn_landing_page_element" data-name="icn landing page element">
      <g id="Group_561" data-name="Group 561">
        <path id="Path_1" data-name="Path 1" class="cls-17" d="M1048.85,452.56C1048.85,202.62,846.24,0,596.29,0S143.73,202.62,143.73,452.56c0,142.58,65.95,269.73,168.99,352.68H879.87c103.04-82.95,168.99-210.11,168.99-352.68Z"/>
        <g id="Group_7" data-name="Group 7">
          <g id="Group_3" data-name="Group 3">
            <path id="Rectangle_7" data-name="Rectangle 7" class="cls-14" d="M533.52,720.48h107.84v69.15c0,7.9-6.41,14.31-14.31,14.31h-79.23c-7.9,0-14.31-6.41-14.31-14.31v-69.15h0Z"/>
            <path id="Rectangle_8" data-name="Rectangle 8" class="cls-12" d="M501.93,603.27h171.96v148.17c0,5.95-4.82,10.77-10.77,10.77h-150.43c-5.95,0-10.77-4.82-10.77-10.77v-148.17h0Z"/>
            <path id="Path_2" data-name="Path 2" class="cls-22" d="M674.44,676.61h-174.25c-11.44,0-20.71-9.28-20.72-20.72h0c0-11.44,9.28-20.71,20.72-20.72h174.25c11.44,0,20.71,9.28,20.71,20.72h0c0,11.44-9.27,20.72-20.71,20.72Z"/>
            <path id="Path_3" data-name="Path 3" class="cls-16" d="M570.01,676.61h-36.49c-11.44,0-20.72-9.27-20.72-20.71h0c0-11.44,9.27-20.72,20.71-20.72h36.49c11.44,0,20.72,9.27,20.72,20.71h0c0,11.44-9.27,20.72-20.71,20.72h0Z"/>
            <path id="Path_4" data-name="Path 4" class="cls-22" d="M674.44,739.41h-174.25c-11.44,0-20.72-9.27-20.72-20.72h0c0-11.44,9.28-20.71,20.72-20.72h174.25c11.44,0,20.71,9.28,20.71,20.72h0c0,11.44-9.27,20.71-20.71,20.72h0Z"/>
            <path id="Path_5" data-name="Path 5" class="cls-16" d="M552.81,739.41h-2.09c-11.44,0-20.71-9.27-20.71-20.71h0c0-11.44,9.27-20.72,20.71-20.72h2.09c11.44,0,20.71,9.28,20.71,20.72h0c0,11.44-9.27,20.71-20.71,20.72h0Z"/>
          </g>
          <g id="Group_6" data-name="Group 6">
            <path id="Path_6" data-name="Path 6" class="cls-15" d="M832.57,318.4c0-124.83-109.49-226.03-244.55-226.03s-244.55,101.2-244.55,226.03c0,74.81,39.33,141.11,99.91,182.25h-.02s28.4,15.62,31.56,57.97v30.42c0,14.27,12.52,25.84,27.96,25.84h170.61c15.44,0,27.96-11.57,27.96-25.84v-30.69c3.24-42.19,31.02-57.55,31.02-57.55h-.01c60.7-41.14,100.11-107.51,100.11-182.4Z"/>
            <circle id="Ellipse_1" data-name="Ellipse 1" class="cls-19" cx="590.82" cy="339.64" r="176.66"/>
            <g id="Group_4" data-name="Group 4">
              <path id="Path_7" data-name="Path 7" class="cls-7" d="M562.22,614.88v-254.82c0-18.85-15.28-34.13-34.14-34.13h0c-18.85,0-34.13,15.28-34.13,34.13h0v19.08c0,18.85,15.28,34.13,34.13,34.13h0l58.93,.16"/>
              <path id="Path_8" data-name="Path 8" class="cls-7" d="M612.4,614.88v-254.82c0-18.85,15.28-34.13,34.13-34.13h0c18.85,0,34.14,15.28,34.14,34.13h0v19.08c0,18.85-15.28,34.13-34.14,34.13l-63.45,.16"/>
            </g>
            <g id="Group_5" data-name="Group 5">
              <path id="Path_9" data-name="Path 9" class="cls-11" d="M442.25,211.35c16.2-19.88,36.22-36.33,58.88-48.36"/>
              <path id="Path_10" data-name="Path 10" class="cls-9" d="M403.26,371.58c-2.68-12.91-4.03-26.07-4.03-39.26"/>
              <path id="Path_11" data-name="Path 11" class="cls-9" d="M782.41,332.32c.02,17.51-2.37,34.94-7.08,51.81"/>
            </g>
          </g>
        </g>
        <g id="Group_8" data-name="Group 8">
          <line id="Line_1" data-name="Line 1" class="cls-6" x1="1.54" y1="803.98" x2="1155.08" y2="803.98"/>
          <line id="Line_2" data-name="Line 2" class="cls-6" x1="193.27" y1="859.46" x2="513.86" y2="859.46"/>
        </g>
        <g id="Group_24" data-name="Group 24">
          <g id="Group_10" data-name="Group 10">
            <path id="Path_12" data-name="Path 12" class="cls-19" d="M1126.43,523.57l-53.31,.11c-3.54,0-6.42-2.87-6.43-6.41h0c0-3.54,2.86-6.42,6.41-6.43l53.32-.12c3.54,0,6.42,2.86,6.43,6.4h0c0,3.55-2.86,6.43-6.41,6.44,0,0,0,0,0,0Z"/>
            <path id="Path_13" data-name="Path 13" class="cls-19" d="M171.09,93.98l-109.03,.11c-3.54,0-6.42-2.86-6.43-6.41h0c0-3.54,2.86-6.42,6.41-6.43h0l109.03-.12c3.54,0,6.42,2.86,6.43,6.41h0c0,3.54-2.86,6.42-6.41,6.43h0Z"/>
            <rect id="Rectangle_9" data-name="Rectangle 9" class="cls-19" x="998.13" y="89.73" width="19.86" height="19.23" rx="1.52" ry="1.52"/>
            <rect id="Rectangle_10" data-name="Rectangle 10" class="cls-19" x="0" y="489.65" width="19.86" height="19.23" rx="1.52" ry="1.52"/>
            <rect id="Rectangle_11" data-name="Rectangle 11" class="cls-1" x="214.85" y="390.99" width="17.45" height="16.9" rx="1.34" ry="1.34" transform="translate(-.54 .3) rotate(-.08)"/>
            <path id="Path_14" data-name="Path 14" class="cls-1" d="M566.1,50.19h-53.12c-3.49,0-6.32-2.83-6.32-6.32h0c0-3.49,2.83-6.32,6.32-6.32h53.12c3.49,0,6.32,2.83,6.32,6.32h0c0,3.49-2.83,6.32-6.32,6.32h0Z"/>
          </g>
          <g id="Group_23" data-name="Group 23">
            <g id="Group_14" data-name="Group 14">
              <g id="Group_13" data-name="Group 13">
                <g id="Group_11" data-name="Group 11">
                  <path id="Path_15" data-name="Path 15" class="cls-15" d="M1125.71,307.93h-50.57c-6.75,0-12.22-5.47-12.22-12.22h0c0-6.75,5.47-12.22,12.22-12.22h50.58c6.75,0,12.22,5.47,12.22,12.22h0c0,6.76-5.47,12.23-12.22,12.23h0Z"/>
                </g>
                <g id="Group_12" data-name="Group 12">
                  <path id="Path_16" data-name="Path 16" class="cls-1" d="M1090.14,295.74c0,1.73-1.39,3.13-3.12,3.14h0c-1.73,0-3.13-1.39-3.14-3.12,0-1.73,1.39-3.13,3.11-3.14,0,0,0,0,0,0,1.73,0,3.13,1.39,3.14,3.12h0Z"/>
                  <path id="Path_17" data-name="Path 17" class="cls-1" d="M1103.56,295.7c0,1.73-1.39,3.13-3.12,3.14,0,0,0,0,0,0-1.73,0-3.13-1.39-3.14-3.12,0-1.73,1.39-3.13,3.12-3.14,0,0,0,0,0,0,1.73,0,3.13,1.39,3.14,3.12h0Z"/>
                  <path id="Path_18" data-name="Path 18" class="cls-1" d="M1116.97,295.66c0,1.72-1.39,3.13-3.11,3.13,0,0,0,0,0,0-1.73,0-3.13-1.39-3.14-3.11h0c0-1.73,1.39-3.14,3.12-3.14h0c1.73,0,3.13,1.39,3.13,3.12h0Z"/>
                </g>
              </g>
            </g>
            <g id="Group_17" data-name="Group 17">
              <g id="Group_15" data-name="Group 15">
                <circle id="Ellipse_2" data-name="Ellipse 2" class="cls-15" cx="179.24" cy="244.78" r="44.88"/>
              </g>
              <g id="Group_16" data-name="Group 16">
                <path id="Path_19" data-name="Path 19" class="cls-1" d="M178.99,244.34c6.04,0,10.93-4.9,10.94-10.94v-5.67c0-6.04-4.9-10.93-10.94-10.94-6.04,0-10.93,4.9-10.94,10.94v5.67c0,6.04,4.9,10.93,10.94,10.94Z"/>
                <path id="Path_20" data-name="Path 20" class="cls-1" d="M203.11,258.59c-3.51-5.98-9.14-10.42-15.77-12.46-.15-.05-.32,0-.44,.11-2.41,2.29-5.06,4.3-7.91,6.02-2.81-1.77-5.47-3.78-7.93-6.02-.12-.11-.28-.15-.44-.11-6.63,2.04-12.25,6.48-15.76,12.46-.08,.14-.08,.31,0,.44,5.05,8.52,14.21,13.74,24.11,13.74,9.9,0,19.07-5.22,24.12-13.73,.08-.14,.08-.31,0-.44Zm-17.09,3.69h-3.09c-.24,0-.44-.18-.44-.42,0,0,0,0,0,0v-2.64c0-.24,.2-.44,.44-.44h3.09c.23,0,.41-.19,.41-.41,0,0,0-.01,0-.02v-3.07c.02-.25,.22-.44,.47-.43h2.63c.22,0,.4,.18,.4,.4,0,.01,0,.02,0,.03v3.07c.02,.25,.23,.44,.47,.43h2.99c.25,0,.46,.2,.47,.44v2.63c-.02,.25-.23,.43-.47,.43h-2.96c-.26,0-.48,.19-.51,.45v3.06c.03,.2-.12,.39-.32,.42-.02,0-.03,0-.05,0h-2.66c-.24,0-.45-.18-.47-.42v-3.06c.01-.23-.17-.43-.4-.44,0,0,0,0,0,0h0Z"/>
              </g>
            </g>
            <g id="Group_22" data-name="Group 22">
              <g id="Group_20" data-name="Group 20">
                <g id="Group_19" data-name="Group 19">
                  <g id="Group_18" data-name="Group 18">
                    <path id="Rectangle_12" data-name="Rectangle 12" class="cls-3" d="M838.27,54.2h102.91c1.85,0,3.35,1.5,3.35,3.35v90.74c0,1.85-1.5,3.35-3.35,3.35h-101.97c-2.37,0-4.29-1.92-4.29-4.29V57.55c0-1.85,1.5-3.35,3.35-3.35h0Z"/>
                  </g>
                </g>
              </g>
              <g id="Group_21" data-name="Group 21">
                <path id="Path_21" data-name="Path 21" class="cls-1" d="M875.38,101.89h28.37c.71,0,1.29-.58,1.29-1.29h0c0-.71-.58-1.29-1.29-1.29h-28.37c-.71,0-1.29,.58-1.29,1.29h0c0,.71,.57,1.29,1.29,1.29h0Z"/>
                <path id="Path_22" data-name="Path 22" class="cls-1" d="M890.86,114.79h-15.47c-.71,0-1.29,.58-1.29,1.29h0c0,.71,.57,1.29,1.29,1.29h15.48c.71,0,1.29-.58,1.29-1.29h0c0-.71-.58-1.29-1.29-1.29h0Z"/>
                <path id="Path_23" data-name="Path 23" class="cls-1" d="M918.16,91.57c-.08,0-.15,.02-.22,.02v-10.34c0-2.85-2.31-5.16-5.16-5.16h-46.42c-2.85,0-5.16,2.31-5.16,5.16v46.42c0,2.85,2.31,5.16,5.16,5.16h46.42c2.85,0,5.16-2.31,5.16-5.16v-23.96l3.71-3.71h0c.92-.93,1.44-2.18,1.44-3.49,0-2.72-2.21-4.93-4.93-4.94Zm-2.05,10.32l-3.33-3.33,1.82-1.82,3.33,3.33-1.82,1.82Zm-38.15-20.63c.71,0,1.29,.58,1.29,1.29,0,.71-.58,1.29-1.29,1.29-.71,0-1.29-.58-1.29-1.29h0c0-.71,.58-1.29,1.29-1.29h0Zm-5.16,0c.71,0,1.29,.58,1.29,1.29h0c0,.71-.58,1.29-1.29,1.29h0c-.71,0-1.29-.58-1.29-1.29h0c0-.71,.57-1.29,1.29-1.29h0Zm-5.16,0c.71,0,1.29,.58,1.29,1.29h0c0,.71-.57,1.29-1.29,1.29h0c-.71,0-1.29-.58-1.29-1.29h0c0-.71,.57-1.29,1.28-1.29h0Zm45.13,46.42h-46.42v-38.68h46.42v5.91l-12.14,12.14h-25.25c-.71,0-1.29,.58-1.29,1.29h0c0,.71,.57,1.29,1.29,1.29h23.19l-1.24,6.2c-.09,.42,.05,.86,.35,1.17,.24,.24,.57,.38,.91,.38,.08,0,.17,0,.25-.02l6.45-1.3c.25-.05,.48-.17,.66-.35l6.82-6.83v18.81Z"/>
              </g>
            </g>
          </g>
        </g>
        <g id="Group_99" data-name="Group 99">
          <g id="Group_51" data-name="Group 51">
            <g id="Group_26" data-name="Group 26">
              <path id="Path_24" data-name="Path 24" class="cls-15" d="M1048.97,805.25c-1.85,0-3.5-1.16-4.13-2.89l-119.74-328.77-119.73,328.77c-.87,2.27-3.41,3.41-5.68,2.54-2.22-.85-3.36-3.31-2.59-5.55l123.86-340.12c.63-1.74,2.29-2.89,4.13-2.89,1.85,0,3.5,1.16,4.13,2.89l123.86,340.12c.83,2.28-.34,4.81-2.63,5.64-.48,.18-.99,.27-1.5,.27h0Z"/>
              <path id="Path_25" data-name="Path 25" class="cls-15" d="M939.39,504.34h-65.18c-2.43,0-4.4-1.97-4.4-4.4h0c0-2.43,1.97-4.4,4.4-4.4h65.18c2.43,0,4.4,1.97,4.4,4.4h0c0,2.43-1.97,4.4-4.4,4.4h0Z"/>
              <path id="Path_26" data-name="Path 26" class="cls-15" d="M956.17,552.31h-62.12c-2.43,0-4.4-1.97-4.4-4.4s1.97-4.4,4.4-4.4h62.12c2.43,0,4.4,1.97,4.4,4.4s-1.97,4.4-4.4,4.4Z"/>
              <path id="Path_27" data-name="Path 27" class="cls-15" d="M887.19,552.31h-59.5c-2.38-.05-4.27-2.02-4.22-4.4-.05-2.38,1.84-4.35,4.22-4.4h59.5c2.38,.05,4.26,2.02,4.21,4.4,.05,2.38-1.84,4.35-4.21,4.4Z"/>
              <path id="Path_28" data-name="Path 28" class="cls-15" d="M972.94,600.27h-62.12c-2.43,0-4.4-1.97-4.4-4.4,0-2.43,1.97-4.4,4.4-4.4h62.12c2.43,0,4.4,1.97,4.4,4.4,0,2.43-1.97,4.4-4.4,4.4h0Z"/>
              <path id="Path_29" data-name="Path 29" class="cls-15" d="M874.21,600.27h-62.12c-2.43,0-4.4-1.97-4.4-4.4,0-2.43,1.97-4.4,4.4-4.4h62.12c2.43,0,4.4,1.97,4.4,4.4,0,2.43-1.97,4.4-4.4,4.4Z"/>
              <path id="Path_30" data-name="Path 30" class="cls-15" d="M989.72,648.23h-62.12c-2.43,0-4.4-1.97-4.4-4.4,0-2.43,1.97-4.4,4.4-4.4h62.12c2.43,0,4.4,1.97,4.4,4.4,0,2.43-1.97,4.4-4.4,4.4h0Z"/>
              <path id="Path_31" data-name="Path 31" class="cls-15" d="M855.95,648.23h-62.12c-2.43,0-4.4-1.97-4.4-4.4,0-2.43,1.97-4.4,4.4-4.4h62.12c2.43,0,4.4,1.97,4.4,4.4,0,2.43-1.97,4.4-4.4,4.4Z"/>
              <path id="Path_32" data-name="Path 32" class="cls-15" d="M1006.49,696.19h-62.12c-2.43,0-4.4-1.97-4.4-4.4,0-2.43,1.97-4.4,4.4-4.4h62.12c2.43,0,4.4,1.97,4.4,4.4,0,2.43-1.97,4.4-4.4,4.4h0Z"/>
              <path id="Path_33" data-name="Path 33" class="cls-15" d="M839.1,696.19h-62.12c-2.43,0-4.4-1.97-4.4-4.4,0-2.43,1.97-4.4,4.4-4.4h62.12c2.43,0,4.4,1.97,4.4,4.4,0,2.43-1.97,4.4-4.4,4.4h0Z"/>
              <path id="Path_34" data-name="Path 34" class="cls-15" d="M1023.27,744.16h-62.12c-2.43,0-4.4-1.97-4.4-4.4s1.97-4.4,4.4-4.4h62.12c2.43,0,4.4,1.97,4.4,4.4s-1.97,4.4-4.4,4.4Z"/>
              <path id="Path_35" data-name="Path 35" class="cls-15" d="M821.83,744.16h-62.12c-2.43,0-4.4-1.97-4.4-4.4s1.97-4.4,4.4-4.4h62.12c2.43,0,4.4,1.97,4.4,4.4s-1.97,4.4-4.4,4.4Z"/>
              <path id="Path_36" data-name="Path 36" class="cls-15" d="M924.78,465.13h-65.18c-2.43,0-4.4-1.97-4.4-4.4h0c0-2.43,1.97-4.4,4.4-4.4h65.18c2.43,0,4.4,1.97,4.4,4.4h0c0,2.43-1.97,4.4-4.4,4.4h0Z"/>
            </g>
            <g id="Group_50" data-name="Group 50">
              <g id="Group_34" data-name="Group 34">
                <g id="Group_29" data-name="Group 29">
                  <g id="Group_28" data-name="Group 28">
                    <path id="Path_37" data-name="Path 37" class="cls-18" d="M944.36,671.56l2-35.26,18.92,2.49-3.72,37.03-18.1-3.21,.9-1.06Z"/>
                    <g id="Group_27" data-name="Group 27">
                      <path id="Path_38" data-name="Path 38" d="M964.2,666.81s-12.74,6.56-19.81-3.19l-34.34,18.46,58.82-.37-4.67-14.89Z"/>
                      <rect id="Rectangle_13" data-name="Rectangle 13" class="cls-12" x="910.06" y="681.88" width="58.82" height="5.32" transform="translate(-4.32 5.97) rotate(-.36)"/>
                    </g>
                  </g>
                  <path id="Path_39" data-name="Path 39" class="cls-20" d="M964.76,435.47s-16.98,10.03-19,66.05c-2.02,56.02-5.52,150.12-5.52,150.12h28.62l14.72-182.56-3.86-33.62h-14.96Z"/>
                </g>
                <g id="Group_33" data-name="Group 33">
                  <g id="Group_31" data-name="Group 31">
                    <path id="Path_40" data-name="Path 40" class="cls-18" d="M993.78,671.56l-1.86-35.26,18.92,2.49,.14,37.03-18.1-3.21,.9-1.06Z"/>
                    <g id="Group_30" data-name="Group 30">
                      <path id="Path_41" data-name="Path 41" d="M1013.62,666.81s-12.74,6.56-19.81-3.19l-34.34,18.46,58.82-.37-4.67-14.89Z"/>
                      <rect id="Rectangle_14" data-name="Rectangle 14" class="cls-12" x="959.49" y="681.88" width="58.82" height="5.32" transform="translate(-4.32 6.28) rotate(-.36)"/>
                    </g>
                  </g>
                  <g id="Group_32" data-name="Group 32">
                    <path id="Path_42" data-name="Path 42" class="cls-20" d="M1003.56,442.74s17.17,19.88,14.65,54.7l-.84,154.6-32.54-.85-10.29-210.41,29.02,1.97Z"/>
                    <path id="Path_43" data-name="Path 43" class="cls-5" d="M978.65,532.15l-1.83-44.8-12.3-17.1"/>
                  </g>
                </g>
              </g>
              <g id="Group_47" data-name="Group 47">
                <g id="Group_38" data-name="Group 38">
                  <g id="Group_37" data-name="Group 37">
                    <g id="Group_36" data-name="Group 36">
                      <path id="Path_44" data-name="Path 44" class="cls-18" d="M858.28,372.54l36.6,34.78c4,3.8,10.33,3.64,14.14-.36,.6-.64,1.12-1.35,1.54-2.12l3.53-6.49-49.48-35.9-6.31,10.09Z"/>
                      <g id="Group_35" data-name="Group 35">
                        <path id="Path_45" data-name="Path 45" class="cls-18" d="M865.42,367.66c-1.9,5.87-8.21,9.09-14.08,7.19,0,0,0,0,0,0-5.87-1.9-9.09-8.21-7.19-14.08,0,0,0,0,0,0,1.9-5.87,8.21-9.09,14.08-7.19,0,0,0,0,0,0,5.87,1.9,9.09,8.21,7.19,14.08,0,0,0,0,0,0Z"/>
                        <path id="Path_46" data-name="Path 46" class="cls-18" d="M857.67,353.41l-10.3-6.35c-.84-.59-2-.42-2.63,.38h0c-.53,.69-.43,1.67,.21,2.24l9.77,8.67,2.95-4.96Z"/>
                      </g>
                    </g>
                    <path id="Path_47" data-name="Path 47" class="cls-18" d="M900.52,391.45l47.12-17.41-2.21,22.27s-25.38,11.05-41.36,13.55-3.55-18.41-3.55-18.41Z"/>
                  </g>
                  <path id="Path_48" data-name="Path 48" class="cls-19" d="M959.97,373.18s-4.33-6.73-15.46-2.05-31.57,11.55-31.57,11.55l17.71,30.37,33.56-12.6-4.24-27.27Z"/>
                </g>
                <g id="Group_39" data-name="Group 39">
                  <path id="Path_49" data-name="Path 49" class="cls-19" d="M1004.85,366.44l-24.86-2.36-31.18,5.7s-2.06,44.89,3.13,67.95c.9,4.04,4.61,6.81,8.73,6.53l44.52,.63c4.06-3.36,6.4-8.37,6.35-13.65l-3.2-61.16c-.1-1.91-1.59-3.46-3.5-3.64Z"/>
                  <line id="Line_3" data-name="Line 3" class="cls-4" x1="947.27" y1="405.41" x2="945.75" y2="388.26"/>
                </g>
                <g id="Group_46" data-name="Group 46">
                  <path id="Path_50" data-name="Path 50" class="cls-15" d="M1080.97,473.28l-145.04-15.1c-3.24-.32-5.61-3.21-5.29-6.46,0,0,0,0,0,0l1.75-17.48c.32-3.24,3.21-5.61,6.46-5.29,0,0,0,0,0,0l145.04,15.1c3.24,.32,5.61,3.21,5.29,6.46,0,0,0,0,0,0l-1.75,17.48c-.32,3.24-3.21,5.61-6.46,5.29,0,0,0,0,0,0Z"/>
                  <g id="Group_45" data-name="Group 45">
                    <g id="Group_41" data-name="Group 41">
                      <path id="Path_51" data-name="Path 51" class="cls-18" d="M1040.64,443.5c-.12-.83,5.7-10.81,5.7-10.81l-16.32-33.67c-2.26-6.72-16.44-30.03-22.24-25.97-4.26,2.99-1.48,29.14,.78,33.82l17.31,33.03,14.76,3.59Z"/>
                      <g id="Group_40" data-name="Group 40">
                        <path id="Path_52" data-name="Path 52" class="cls-19" d="M1002.44,366.17s14.32,1.05,19.88,9.78c7.04,11.05,19.21,28.95,19.21,28.95l-36.58,13.7-2.51-52.44Z"/>
                        <line id="Line_4" data-name="Line 4" class="cls-4" x1="1009.92" y1="416.74" x2="996.22" y2="393.2"/>
                      </g>
                    </g>
                    <g id="Group_44" data-name="Group 44">
                      <g id="Group_42" data-name="Group 42">
                        <path id="Path_53" data-name="Path 53" class="cls-18" d="M1030.3,426.5l-39.93,28.86,6.35,9.35,43.27-18.75c5.52-2.39,8.05-8.8,5.66-14.32-.44-1.02-1.04-1.97-1.77-2.81h0c-3.4-3.91-9.08-4.88-13.58-2.33Z"/>
                      </g>
                      <g id="Group_43" data-name="Group 43">
                        <path id="Path_54" data-name="Path 54" class="cls-18" d="M997.85,463.24s-5.41,12.94-15.67,11.66c-11.84-1.49-12.86-10.87-7.46-12.77l8,.6c.23-3.21,2.19-6.05,5.12-7.39,1.35-.58,2.8-.9,4.27-.95l5.74,8.85Z"/>
                        <path id="Path_55" data-name="Path 55" class="cls-18" d="M989.65,454.73l-11.04,2c-.73,.16-1.24,.8-1.24,1.54h0c0,.82,.62,1.5,1.44,1.57l10.68,.89,.17-6Z"/>
                      </g>
                    </g>
                  </g>
                </g>
              </g>
              <g id="Group_49" data-name="Group 49">
                <path id="Path_56" data-name="Path 56" class="cls-20" d="M944.15,331.73c3.38-2.85,7.32-9.22,7.32-9.22l3.34-8.53,10.55,2.89-5.1,10.49-2.9,2.02,21.31,24.83s-15.43,14.91-30.32,5.49c-12.54-7.94-10.51-22.67-4.2-27.98Z"/>
                <path id="Path_57" data-name="Path 57" class="cls-20" d="M1002.44,319.61s1.23,7.76,7.75,12.12c6.48,4.33,8.33,20.04-4.21,27.98-14.88,9.42-30.32-5.49-30.32-5.49l26.78-34.6Z"/>
                <path id="Path_58" data-name="Path 58" class="cls-20" d="M960.4,305.53s29.97-12.9,40.17,6.95c6,11.67-1.17,32.13-15.89,37.96-14.03,5.56-10.05-40.14-10.05-40.14l-14.23-4.77Z"/>
                <path id="Path_59" data-name="Path 59" class="cls-13" d="M964.19,333.65c.32,3.77-2.48,7.09-6.25,7.41,0,0,0,0,0,0-3.77,.32-7.09-2.48-7.4-6.26-.32-3.77,2.48-7.09,6.25-7.41,0,0,0,0,0,0,3.77-.32,7.09,2.48,7.41,6.26Z"/>
                <path id="Path_60" data-name="Path 60" class="cls-18" d="M966.33,352.81l1.17,14.9c.4,5.24,3.83,7.78,8.98,7.35h0c4.39-.37,8.33-2.99,8.51-7.39l-2.96-23.35-15.69,8.49Z"/>
                <path id="Path_61" data-name="Path 61" class="cls-13" d="M967.15,363.57l17.2-15.66-18.17,3.37,.97,12.29Z"/>
                <path id="Path_62" data-name="Path 62" class="cls-18" d="M970.9,355.16h0c-8.81,.15-16.18-6.68-16.55-13.86l-.77-16.97c-.46-9.01,6.31-16.77,15.3-17.52h0c9.21-.78,18.91,5.92,19.68,15.12l.47,13.65c.36,10.56-7.61,18.69-18.14,19.58Z"/>
                <path id="Path_63" data-name="Path 63" class="cls-20" d="M986.35,334.03s-.68-6.1-5.82-9.12-19.18-7.4-17.75-18.28c0,0,21.77-6.39,29.79,7.85s-6.22,19.54-6.22,19.54Z"/>
                <g id="Group_48" data-name="Group 48">
                  <path id="Path_64" data-name="Path 64" class="cls-18" d="M997.45,334.24c.31,3.77-2.49,7.08-6.26,7.4-3.77,.32-7.09-2.48-7.41-6.26h0c-.32-3.77,2.49-7.08,6.26-7.4,3.77-.32,7.09,2.48,7.41,6.25,0,0,0,0,0,0Z"/>
                </g>
                <path id="Path_65" data-name="Path 65" class="cls-20" d="M968.52,306.63s-1.58,8.94-15.42,14.92c0,0-3.44-6.49,5.77-15.07,.85-.8,1.97-1.24,3.14-1.24l10.67-.04-4.16,1.43Z"/>
                <path id="Path_66" data-name="Path 66" class="cls-18" d="M992.23,365.19l-13.87-1.49-18.37,4.03s.06,13.21,14.93,12.31,17.31-14.85,17.31-14.85Z"/>
              </g>
            </g>
            <path id="Path_67" data-name="Path 67" class="cls-19" d="M982.87,805.25c-1.85,0-3.5-1.16-4.13-2.89l-119.73-328.77-119.73,328.77c-.9,2.26-3.46,3.36-5.72,2.46-2.16-.86-3.28-3.26-2.55-5.47l123.86-340.12c.63-1.74,2.28-2.89,4.13-2.89,1.85,0,3.5,1.16,4.13,2.89l123.86,340.12c.83,2.28-.34,4.81-2.63,5.64-.48,.18-.99,.27-1.51,.27h0Z"/>
          </g>
          <g id="Group_74" data-name="Group 74">
            <g id="Group_59" data-name="Group 59">
              <g id="Group_54" data-name="Group 54">
                <path id="Path_68" data-name="Path 68" class="cls-24" d="M184.49,745.45l-2.46,36.25-16.7-.72,.58-36.71,18.59,1.18Z"/>
                <g id="Group_53" data-name="Group 53">
                  <g id="Group_52" data-name="Group 52">
                    <path id="Path_69" data-name="Path 69" d="M183.26,777.68l30.45,13.88c2,1,3.04,3.24,2.54,5.41h-53.7l1.99-19.52,18.72,.22Z"/>
                    <rect id="Rectangle_15" data-name="Rectangle 15" class="cls-22" x="161.59" y="796.97" width="55.34" height="5.78"/>
                  </g>
                </g>
              </g>
              <g id="Group_57" data-name="Group 57">
                <path id="Path_70" data-name="Path 70" class="cls-24" d="M130.09,745.45l-2.46,36.25-16.7-.72,.58-36.71,18.59,1.18Z"/>
                <g id="Group_56" data-name="Group 56">
                  <g id="Group_55" data-name="Group 55">
                    <path id="Path_71" data-name="Path 71" d="M128.87,777.68l30.45,13.88c1.99,1,3.04,3.24,2.53,5.41h-53.7l2-19.52,18.72,.22Z"/>
                    <rect id="Rectangle_16" data-name="Rectangle 16" class="cls-22" x="107.2" y="796.97" width="55.34" height="5.78"/>
                  </g>
                </g>
              </g>
              <g id="Group_58" data-name="Group 58">
                <path id="Path_72" data-name="Path 72" class="cls-20" d="M174.84,575.2l-64.09,4.88-8.5,180.05h35.11l11.37-135.8,15.24,58.03-5.19,79.97,29.9,.09,10.32-88.42-24.16-98.79Z"/>
                <line id="Line_5" data-name="Line 5" class="cls-5" x1="163.06" y1="616.5" x2="148.73" y2="624.33"/>
              </g>
            </g>
            <g id="Group_70" data-name="Group 70">
              <g id="Group_60" data-name="Group 60">
                <path id="Path_73" data-name="Path 73" class="cls-21" d="M174.01,520.27l-.42,17.67,10.03,.13-.74-19.02-8.88,1.22Z"/>
                <path id="Path_74" data-name="Path 74" class="cls-19" d="M174.63,490.28s16.07,9.52,13.77,39.8l-14.92-3.34,1.16-36.46Z"/>
              </g>
              <g id="Group_61" data-name="Group 61">
                <path id="Path_75" data-name="Path 75" class="cls-19" d="M142.3,480.32c-16.13,0-34.42,5.57-34.42,5.57l.69,102.6,68.14-5.23-.72-89.74c-.01-1.59-.89-3.04-2.28-3.8l-18.84-8.06s-9.28-1.34-12.57-1.34Z"/>
                <line id="Line_6" data-name="Line 6" class="cls-4" x1="176.24" y1="527.35" x2="176.24" y2="507.55"/>
              </g>
              <g id="Group_67" data-name="Group 67">
                <g id="Group_63" data-name="Group 63">
                  <path id="Path_76" data-name="Path 76" class="cls-18" d="M115.96,520.47l-4.38,50.75s-4.84,10.21-13.4-.41-1.23-52.09-1.23-52.09l19.02,1.75Z"/>
                  <g id="Group_62" data-name="Group 62">
                    <path id="Path_77" data-name="Path 77" class="cls-19" d="M118.23,531.14s5.54-43.12-6.32-45.32c-12.29-2.28-23.89,26.75-23.89,50.76l30.21-5.44Z"/>
                    <path id="Path_78" data-name="Path 78" class="cls-8" d="M114.96,531.42l4.58-1.35,.86-20.36"/>
                  </g>
                </g>
                <g id="Group_66" data-name="Group 66">
                  <g id="Group_64" data-name="Group 64">
                    <path id="Path_79" data-name="Path 79" class="cls-18" d="M145.06,523.7s2.47-8.95,11.43-9.82c8.95-.87,11.59,6.16,9.9,10.79-1.69,4.63-7.51,12.17-16.34,8.31s-4.99-9.28-4.99-9.28Z"/>
                    <path id="Path_80" data-name="Path 80" class="cls-18" d="M159.46,513.9s8.79,1.01,15.34,4.2c.66,.33,1.04,1.05,.93,1.79h0c-.12,.95-1,1.63-1.95,1.5-.03,0-.06,0-.1-.02l-12.14-2.27-2.08-5.21Z"/>
                  </g>
                  <g id="Group_65" data-name="Group 65">
                    <path id="Path_81" data-name="Path 81" class="cls-18" d="M109.68,573.81l40.37-40.83-4.99-9.28-39.26,24.95,3.89,25.16Z"/>
                    <line id="Line_7" data-name="Line 7" class="cls-10" x1="113.98" y1="543.45" x2="105.8" y2="548.65"/>
                  </g>
                </g>
              </g>
              <g id="Group_69" data-name="Group 69">
                <g id="Group_68" data-name="Group 68">
                  <path id="Path_82" data-name="Path 82" class="cls-15" d="M200.19,533.98l-16.98,50.4c-.58,1.73-2.31,2.81-4.12,2.57l-41.27-5.42c-2.1-.28-3.57-2.2-3.29-4.29,.03-.26,.09-.51,.18-.76l17.48-50.33c.6-1.71,2.31-2.78,4.11-2.54l40.76,5.36c2.09,.27,3.57,2.19,3.3,4.29-.03,.25-.09,.49-.17,.72Z"/>
                  <path id="Path_83" data-name="Path 83" class="cls-15" d="M199.46,530.24l2.16,2.8-64.29,49.64-2.31-3.01,64.44-49.44Z"/>
                  <path id="Path_84" data-name="Path 84" class="cls-19" d="M202.13,536.48l-16.98,50.4c-.59,1.73-2.31,2.81-4.13,2.57l-41.26-5.42c-2.1-.27-3.57-2.2-3.3-4.29,.03-.26,.09-.51,.18-.76l17.48-50.33c.6-1.72,2.31-2.78,4.11-2.54l40.77,5.35c2.1,.28,3.57,2.2,3.3,4.3-.03,.25-.09,.49-.17,.72Z"/>
                </g>
                <path id="Path_85" data-name="Path 85" class="cls-18" d="M200.21,551.13l-3.86,10.43c-.47,1.27-1.76,2.05-3.11,1.87h0c-3.53-.46-6.01-3.7-5.55-7.22,.05-.37,.13-.73,.24-1.08l1.09-3.5c.87-2.8,3.52-4.66,6.45-4.52l2.15,.1c1.6,.07,2.84,1.44,2.77,3.04-.01,.3-.08,.6-.18,.89Z"/>
              </g>
            </g>
            <g id="Group_73" data-name="Group 73">
              <path id="Path_86" data-name="Path 86" class="cls-18" d="M157.18,465.07l-2.05,16.54c-.71,5.81-4.55,8.48-10.08,7.74h0c-4.72-.64-9.63-3.57-8.79-8.66l2.44-25.97,18.48,10.36Z"/>
              <path id="Path_87" data-name="Path 87" class="cls-23" d="M155.3,480.32s-18.63-6.76-17.07-23.46c.47-4.97,19.04,7.47,19.04,7.47l-1.98,15.98Z"/>
              <path id="Path_88" data-name="Path 88" class="cls-18" d="M159.28,483.55l-8.04-3.74-14.18,.41-8.31,1.16s-3.1,12.45,17.93,13.15c16.81,.55,12.6-10.98,12.6-10.98Z"/>
              <g id="Group_72" data-name="Group 72">
                <path id="Path_89" data-name="Path 89" class="cls-20" d="M168.27,443.58s16.18-12.04,8.78-23.2c-7.4-11.16-20.82-1.49-20.82-1.49l12.04,24.69Z"/>
                <path id="Path_90" data-name="Path 90" class="cls-20" d="M155.29,415.93s-45.57-6.45-25.51,28.85l5.19-14.32,20.32-14.53Z"/>
                <path id="Path_91" data-name="Path 91" class="cls-20" d="M169.14,425.57s7.63,6.38-1.94,20.39l-2.55-17.87,4.49-2.51Z"/>
                <path id="Path_92" data-name="Path 92" class="cls-13" d="M160.57,450.09c-.49,3.78,2.16,7.24,5.93,7.76,3.77,.39,7.14-2.34,7.53-6.11,0-.01,0-.03,0-.04,.49-3.78-2.16-7.24-5.93-7.76-3.77-.39-7.14,2.34-7.54,6.11,0,.01,0,.02,0,.04Z"/>
                <path id="Path_93" data-name="Path 93" class="cls-18" d="M150.15,470.91h0c9.54,.48,17.79-6.9,18.46-14.93l1.31-16.81c.84-10.07-6.21-18.98-15.92-20.15h0c-9.95-1.19-20.71,5.96-21.9,16.23l-.86,13.11c-.79,11.8,7.54,21.18,18.92,22.54Z"/>
                <path id="Path_94" data-name="Path 94" class="cls-20" d="M169.98,435.17s.63-4.42-8.04-5.49-19.82-.35-25.99,7.37l-.14,12.15-7.73-7.64,4.07-18.09,23.14-7.55,13.85,9.64,.84,9.6Z"/>
                <g id="Group_71" data-name="Group 71">
                  <path id="Path_95" data-name="Path 95" class="cls-18" d="M122.48,447.6c-.49,3.74,2.14,7.18,5.87,7.69,3.73,.39,7.07-2.32,7.46-6.05,0-.01,0-.03,0-.04,.49-3.74-2.14-7.17-5.87-7.69-3.73-.39-7.07,2.32-7.46,6.05,0,.01,0,.02,0,.03Z"/>
                </g>
                <path id="Path_96" data-name="Path 96" class="cls-20" d="M162.15,419.44s2.06-5.27-5.2-8.2c-6.24-2.52-12.7-1.44-26.64,7.99l31.84,.21Z"/>
                <path id="Path_97" data-name="Path 97" class="cls-20" d="M166.98,463.35c-.02-1.08-.67-2.06-1.66-2.48-2.25-.95-4.62-1.61-7.04-1.94-4.19-.66-10.24,.68-13.5,1.53-1.4,.37-2.87-.29-3.53-1.58-2.16-4.32-6.12-14.44-3.11-26.19l-4.82,3.49,.63,7.41s3.76,8.02-2.12,11.58c0,0-.28,16.59,15.1,19.59,4.61,.8,9.36,.17,13.61-1.8,3.39-1.62,6.44-5.32,6.46-9.59Z"/>
                <path id="Path_98" data-name="Path 98" class="cls-20" d="M136.35,440.67s10.11-2.36,6.21-12.22c-3.9-9.87-8.65,2.68-8.65,2.68l2.44,9.54Z"/>
              </g>
            </g>
          </g>
          <g id="Group_98" data-name="Group 98">
            <g id="Group_86" data-name="Group 86">
              <g id="Group_79" data-name="Group 79">
                <g id="Group_77" data-name="Group 77">
                  <path id="Path_99" data-name="Path 99" class="cls-24" d="M269.54,810.62l16.22-25.8,19.09,9.67-19.58,30.02-15.33-6.91-.4-6.98Z"/>
                  <g id="Group_76" data-name="Group 76">
                    <g id="Group_75" data-name="Group 75">
                      <path id="Path_100" data-name="Path 100" d="M269.21,808.61s9.33,15.06,21.79,10.96l14.31,35.63-50.27-36.35,14.17-10.25Z"/>
                      <rect id="Rectangle_17" data-name="Rectangle 17" class="cls-22" x="275.9" y="808.2" width="5.39" height="62.04" transform="translate(-564.73 573.31) rotate(-54.13)"/>
                    </g>
                  </g>
                </g>
                <g id="Group_78" data-name="Group 78">
                  <path id="Path_101" data-name="Path 101" class="cls-20" d="M322.49,655.97l-19.59,82.99-32.91,55.28,31.27,18.12,39.54-70.39,13.09-53.03-31.41-32.97Z"/>
                  <path id="Path_102" data-name="Path 102" class="cls-2" d="M301.37,814.1l-33.76-20.02,9.69-16.01,33.71,21.22-9.65,14.81Z"/>
                </g>
              </g>
              <g id="Group_85" data-name="Group 85">
                <g id="Group_82" data-name="Group 82">
                  <path id="Path_103" data-name="Path 103" class="cls-24" d="M420.36,836.02l-12.26-27.9,18.72-10.38,13.87,33.05-14.32,8.82-6.01-3.59Z"/>
                  <g id="Group_81" data-name="Group 81">
                    <g id="Group_80" data-name="Group 80">
                      <path id="Path_104" data-name="Path 104" d="M418.51,835.16s17.7,.73,21.3-11.89l37.53,8.14-58.05,20.71-.77-16.97Z"/>
                      <rect id="Rectangle_18" data-name="Rectangle 18" class="cls-22" x="418.1" y="841.86" width="62.04" height="5.39" transform="translate(-261.94 204.73) rotate(-20.02)"/>
                    </g>
                  </g>
                </g>
                <g id="Group_84" data-name="Group 84">
                  <g id="Group_83" data-name="Group 83">
                    <path id="Path_105" data-name="Path 105" class="cls-20" d="M360.36,633.14v18.84l49.54,76.56,31,83.81-30.32,12.14-31.28-76.76-59.15-76.22s-19.89-25.74,3.96-48.35l36.26,9.97Z"/>
                    <line id="Line_8" data-name="Line 8" class="cls-5" x1="349.02" y1="708.71" x2="319.13" y2="670.2"/>
                  </g>
                  <path id="Path_106" data-name="Path 106" class="cls-2" d="M443.22,811.59l-35.26,14.48-6.75-17.46,36.18-13.71,5.82,16.69Z"/>
                </g>
              </g>
            </g>
            <g id="Group_94" data-name="Group 94">
              <g id="Group_88" data-name="Group 88">
                <g id="Group_87" data-name="Group 87">
                  <path id="Path_107" data-name="Path 107" class="cls-13" d="M363.85,565.25l23,16.75,27.76-35.54,8.57,4.72s-10.29,35.03-24.01,52.71c-2.42,3.07-6.57,4.17-10.2,2.72-7.43-2.92-21.26-9.69-38.46-24.3l13.33-17.06Z"/>
                  <path id="Path_108" data-name="Path 108" class="cls-15" d="M370.76,570.28l-17.42,29.01-17.07-13.14c-6.97-5.36-8.62-15.19-3.79-22.54h0c5.46-8.3,16.7-10.76,24.42-4.51l13.85,11.19Z"/>
                </g>
              </g>
              <path id="Path_109" data-name="Path 109" class="cls-19" d="M356.91,559.09l-27.19-9.36s-23.37,20.85-5.62,73.44l36.25,9.97c1.86-10.43,3.01-20.98,3.43-31.57,13.83-19.35-6.88-42.48-6.88-42.48Z"/>
              <g id="Group_93" data-name="Group 93">
                <g id="Group_89" data-name="Group 89">
                  <rect id="Rectangle_19" data-name="Rectangle 19" class="cls-19" x="406.88" y="490.79" width="100.74" height="99.44" rx="4.95" ry="4.95"/>
                  <path id="Path_110" data-name="Path 110" class="cls-1" d="M476.44,536.75l-3.18-.56c-.37-1.39-.93-2.72-1.64-3.96l1.85-2.64c.68-.97,.57-2.29-.27-3.13l-1.9-1.9c-.85-.82-2.17-.92-3.13-.22l-2.64,1.85c-1.24-.72-2.58-1.27-3.96-1.64l-.55-3.26c-.2-1.15-1.19-2-2.36-2.03h-2.75c-1.19,0-2.21,.85-2.41,2.03l-.56,3.17c-1.39,.37-2.72,.92-3.96,1.64l-2.64-1.78c-.97-.68-2.29-.57-3.13,.27l-1.91,1.9c-.84,.84-.95,2.16-.27,3.13l1.85,2.64c-.72,1.24-1.27,2.58-1.64,3.96l-3.17,.56c-1.17,.2-2.03,1.22-2.03,2.41v2.7c0,1.19,.86,2.21,2.03,2.41l3.17,.56c.37,1.39,.92,2.72,1.64,3.96l-1.85,2.64c-.68,.97-.57,2.29,.27,3.13l1.91,1.9c.84,.84,2.16,.96,3.13,.27l2.64-1.85c1.24,.72,2.58,1.27,3.96,1.64l.55,3.18c.2,1.17,1.22,2.03,2.41,2.03h2.74c1.19,0,2.21-.85,2.41-2.03l.56-3.17c1.39-.37,2.72-.92,3.96-1.64l2.58,1.81c.97,.68,2.29,.56,3.13-.28l1.9-1.9c.84-.84,.96-2.16,.27-3.13l-1.85-2.67c.72-1.24,1.27-2.58,1.64-3.96l3.18-.56c1.17-.2,2.03-1.22,2.03-2.41v-2.69c0-1.19-.85-2.2-2.02-2.4Zm-19.19,11.02c-4.02,0-7.27-3.26-7.27-7.28s3.26-7.27,7.28-7.27c4.02,0,7.27,3.26,7.27,7.27v.04c-.03,4-3.28,7.23-7.28,7.23h0Z"/>
                </g>
                <g id="Group_92" data-name="Group 92">
                  <g id="Group_91" data-name="Group 91">
                    <g id="Group_90" data-name="Group 90">
                      <path id="Path_111" data-name="Path 111" class="cls-18" d="M357.73,575.16l19.98,24.18,33.86-29.78,7.13,6.7s-18.67,31.37-36.35,45.1c-3.11,2.37-7.4,2.41-10.55,.11-6.48-4.68-18.18-14.67-31.22-33.09l17.15-13.22Z"/>
                      <path id="Path_112" data-name="Path 112" class="cls-18" d="M436.3,559.49c-.49-.5-1.27-.59-1.85-.2l-5.01,3.12-.39-.3,5.24-5.28c.63-.6,.65-1.6,.05-2.23,0,0,0,0-.01-.01-.68-.67-1.76-.69-2.47-.05l-5.83,5.22-.54-.41,5.52-7.59c.43-.6,.33-1.44-.23-1.92-.68-.56-1.68-.5-2.28,.16l-6.27,6.84h0c-.22-.17-.42-.32-.62-.48l3.47-6.28c.37-.67,.16-1.51-.49-1.91-.76-.49-1.78-.27-2.28,.49l-3.57,5.62c.02,.11-1.28,2.91-2.78,6.07l-1.01-5.55c-.11-.55-.55-.98-1.1-1.08-.8-.18-1.59,.32-1.77,1.12-.01,.05-.02,.11-.03,.16-.26,3.52-.05,13.87-.5,14.58l7.13,6.7,13.81-11.45,3.72-3.5c.52-.48,.56-1.29,.08-1.81,0,0,0,0-.01-.01Z"/>
                    </g>
                    <path id="Path_113" data-name="Path 113" class="cls-19" d="M363.49,581.43l-24.4,24.09-13.27-16.97c-5.42-6.93-4.57-16.86,1.93-22.77h0c6.87-6.24,17.49-5.73,23.73,1.13,.37,.41,.72,.83,1.04,1.27l10.96,13.25Z"/>
                    <path id="Path_114" data-name="Path 114" class="cls-4" d="M347.59,597.68l-8.5,7.84-13.27-16.97"/>
                    <line id="Line_9" data-name="Line 9" class="cls-4" x1="363.49" y1="581.42" x2="350.76" y2="566.17"/>
                  </g>
                </g>
              </g>
            </g>
            <g id="Group_97" data-name="Group 97">
              <path id="Path_115" data-name="Path 115" class="cls-20" d="M353.61,524.5l13.44-3.42c9.19,5.36,10.6,20.39,10.6,20.39h-23.37l-.68-16.97Z"/>
              <path id="Path_116" data-name="Path 116" class="cls-18" d="M358.15,534.54l-7.25,21.55-19.7-8.03,10.93-32.37,16.02,18.85Z"/>
              <path id="Path_117" data-name="Path 117" class="cls-13" d="M353.9,547.16c.13-.38-3.71-13.42-3.71-13.42l8.18,3.74-4.47,9.68Z"/>
              <g id="Group_95" data-name="Group 95">
                <path id="Path_118" data-name="Path 118" class="cls-18" d="M364,489.78s10.23,1.71,10.78,14.57c0,0,.3,9.32,.62,22.75,.17,7.1-6.26,12.85-13.19,11.32-4.77-.99-9.27-3.01-13.17-5.94l-5.92-5.54c-13.8-15.45-1.14-40.16,19.39-37.39,.49,.07,.99,.14,1.5,.23Z"/>
                <path id="Path_119" data-name="Path 119" class="cls-18" d="M373.67,517.73l4.66,4.43c.41,.39,.43,1.05,.04,1.46-.17,.18-.4,.29-.64,.32l-4.64,.49,.58-6.7Z"/>
              </g>
              <path id="Path_120" data-name="Path 120" class="cls-20" d="M350.39,512.85s-6.06-31.25,20.92-18.53c0,0-10.46-17.08-34.2-6.76-4.97,2.16-10.12,8.23-11.04,13.58-1.5,8.64,3.31,16.02,10.98,29.6l9.04-10.5c.54-2.16,4.29-7.38,4.29-7.38Z"/>
              <path id="Path_121" data-name="Path 121" class="cls-20" d="M341.71,503.68l5.4,12.89c34.56-10.79,18.8-26.97,18.8-26.97,0,0-27.94-8.3-24.2,14.08Z"/>
              <path id="Path_122" data-name="Path 122" class="cls-20" d="M359.07,509.83l-4.85,7.22-6.08-8.44,10.93,1.22Z"/>
              <path id="Path_123" data-name="Path 123" class="cls-20" d="M360.93,491.3s11.83,1.97,13.55,10.19c0,0,9.34-9.61-9.94-13.6-11.48-2.38-3.6,3.41-3.6,3.41Z"/>
              <path id="Path_124" data-name="Path 124" class="cls-20" d="M348.33,520.23s-2.22,15.66-.75,21.24l-28.94-1.57s5.33-10.21,5.77-18.04c.35-6.2-2.79-20.37,6.78-29.98l4.78,18.6,12.36,9.75Z"/>
              <g id="Group_96" data-name="Group 96">
                <path id="Path_125" data-name="Path 125" class="cls-18" d="M340.78,517.11c-.31,3.76,2.49,7.06,6.25,7.37,3.76,.31,7.06-2.49,7.37-6.25,.31-3.76-2.49-7.06-6.25-7.37-3.76-.31-7.06,2.49-7.37,6.25,0,0,0,0,0,0Z"/>
              </g>
              <path id="Path_126" data-name="Path 126" class="cls-18" d="M329.72,549.73c7.59,6.39,17.28,9.72,27.19,9.36l-11.83-13.95-11.52-2.43-3.84,7.02Z"/>
            </g>
          </g>
        </g>
      </g>
    </g>
  </g>
</svg>