<?xml version="1.0" encoding="UTF-8"?>
<svg id="Layer_2" data-name="Layer 2" xmlns="http://www.w3.org/2000/svg" viewBox="0 0 710.67 625.84">
  <defs>
    <style>
      .cls-1 {
        fill: #fff;
      }

      .cls-2 {
        fill: #202a45;
      }

      .cls-3 {
        opacity: .5;
      }

      .cls-4 {
        fill: #f5f5f5;
      }

      .cls-5 {
        fill: #455a64;
      }

      .cls-6 {
        fill: #e0e0e0;
      }

      .cls-7 {
        isolation: isolate;
      }

      .cls-7, .cls-8 {
        font-family: Montserrat-Regular, Montserrat;
        font-size: 18px;
      }

      .cls-7, .cls-9 {
        fill: #2c2c2c;
      }

      .cls-10 {
        letter-spacing: -.02em;
      }

      .cls-11 {
        fill: #314859;
      }

      .cls-12 {
        fill: #dd9c83;
      }

      .cls-13 {
        letter-spacing: 0em;
      }

      .cls-8, .cls-14 {
        fill: #475d75;
      }

      .cls-8, .cls-15, .cls-16 {
        opacity: .3;
      }

      .cls-17 {
        opacity: .4;
      }

      .cls-18 {
        letter-spacing: 0em;
      }

      .cls-19 {
        fill: #e6e1e7;
      }

      .cls-20 {
        letter-spacing: 0em;
      }

      .cls-21 {
        fill: #ffbe9d;
      }

      .cls-22, .cls-15 {
        fill: #7594b3;
      }

      .cls-23 {
        fill: #ebebeb;
      }

      .cls-24 {
        letter-spacing: -.01em;
      }

      .cls-25 {
        fill: #263238;
      }

      .cls-26 {
        fill: #dfdfdf;
      }
    </style>
  </defs>
  <g id="Layer_1-2" data-name="Layer 1">
    <g id="icn_account" data-name="icn account">
      <g id="Group_1052" data-name="Group 1052">
        <g id="Background_Complete-2" data-name="Background Complete-2">
          <g id="Group_720" data-name="Group 720">
            <g id="Group_694" data-name="Group 694">
              <g id="Group_693" data-name="Group 693">
                <g id="Group_692" data-name="Group 692">
                  <g id="Group_691" data-name="Group 691">
                    <path id="Path_615" data-name="Path 615" class="cls-22" d="M182.97,162.06c22.65-22.37,22.79-56.72,16.64-86.53-1.02-4.98-1.38-10.35-4.51-14.33s-9.2-6.04-13.32-3.16c-3.42,2.39-4.3,6.99-5.77,10.92-1.96,5.24-5.37,9.82-9.82,13.22-2.9,2.2-6.67,3.88-10.12,2.69-4.72-1.65-6.25-7.52-7.07-12.51-1.53-9.29-3.05-18.57-4.58-27.86-.82-4.98-1.67-10.07-4.03-14.53s-6.53-8.26-11.49-8.78-10.35,3.21-10.52,8.26c-.07,2.1,.7,4.13,.92,6.22s-.36,4.54-2.22,5.45c-1.89,.92-4.12-.15-5.86-1.35-6-4.15-10.59-10.03-14.95-15.91s-8.65-11.93-14.25-16.62S69.24-.69,62.05,.13s-14.04,6.51-14.65,13.82c-.61,7.33,4.7,13.75,10.13,18.67,8.05,7.3,17.11,13.39,26.9,18.1,1.76,.85,3.67,1.76,4.58,3.5,1.65,3.13-.93,6.97-4.02,8.62-3.5,1.87-7.59,2.17-11.39,3.29s-7.72,3.55-8.56,7.47c-1.17,5.43,4,10.04,8.78,12.82,9.58,5.56,20.05,9.44,30.95,11.45,3.89,.71,7.94,1.23,11.34,3.3s5.94,6.24,4.76,10.05-5.57,5.72-9.53,5.66-7.75-1.55-11.64-2.31c-7.28-1.41-16.04,.57-19.41,7.23-2.22,4.38-1.54,9.83,.7,14.22s5.88,7.87,9.65,11.01c13.16,10.99,28.97,18.95,45.78,21.74s31.77,1.77,46.55-6.7"/>
                  </g>
                </g>
              </g>
            </g>
            <g id="Group_699" data-name="Group 699" class="cls-17">
              <g id="Group_698" data-name="Group 698">
                <g id="Group_697" data-name="Group 697">
                  <g id="Group_696" data-name="Group 696">
                    <g id="Group_695" data-name="Group 695">
                      <path id="Path_616" data-name="Path 616" class="cls-26" d="M53.42,5.89c.18,.15,.36,.28,.56,.39,.42,.26,.99,.62,1.7,1.07,1.5,.93,3.71,2.3,6.52,4.15,7.93,5.19,15.46,10.96,22.52,17.28,4.49,3.98,9.23,8.55,14.24,13.54s10.3,10.39,15.66,16.25c5.65,6.1,10.96,12.5,15.92,19.17,2.57,3.48,4.96,7.17,7.4,10.93s4.9,7.58,7.39,11.44c9.93,15.48,18.9,30.56,25.93,44.87,6.31,12.64,11.43,25.84,15.28,39.43,2.56,9.18,4.33,18.56,5.27,28.04,.31,3.36,.49,5.97,.55,7.75,.05,.85,.08,1.52,.11,2.02,0,.23,.03,.46,.07,.69,.03-.23,.04-.46,.03-.69,0-.5,0-1.17-.02-2.02,0-1.78-.13-4.4-.38-7.77-.81-9.52-2.48-18.96-5-28.18-3.77-13.67-8.84-26.94-15.15-39.64-7-14.38-15.98-29.5-25.91-45-2.5-3.86-4.96-7.68-7.4-11.45-2.44-3.75-4.85-7.47-7.44-10.96-4.98-6.7-10.33-13.11-16.02-19.21-5.39-5.86-10.72-11.24-15.74-16.22s-9.81-9.52-14.35-13.48c-7.12-6.29-14.73-12-22.76-17.08-2.83-1.8-5.08-3.12-6.61-4l-1.75-.99c-.19-.12-.4-.23-.61-.31Z"/>
                    </g>
                  </g>
                </g>
              </g>
            </g>
            <g id="Group_704" data-name="Group 704" class="cls-17">
              <g id="Group_703" data-name="Group 703">
                <g id="Group_702" data-name="Group 702">
                  <g id="Group_701" data-name="Group 701">
                    <g id="Group_700" data-name="Group 700">
                      <path id="Path_617" data-name="Path 617" class="cls-26" d="M131,77.19c.12-.73,.16-1.47,.12-2.21,.03-1.42,0-3.47-.08-6.01-.14-5.08-.58-12.08-1.09-19.8s-.85-14.71-.91-19.78c-.04-2.53-.05-4.58-.04-6,.05-.74,.02-1.48-.09-2.21-.17,.72-.26,1.45-.27,2.19-.12,1.42-.21,3.47-.25,6.01-.1,5.08,.13,12.11,.64,19.84,.52,7.62,1,14.51,1.36,19.77,.15,2.38,.27,4.38,.37,5.99,0,.74,.08,1.48,.24,2.2Z"/>
                    </g>
                  </g>
                </g>
              </g>
            </g>
            <g id="Group_709" data-name="Group 709" class="cls-17">
              <g id="Group_708" data-name="Group 708">
                <g id="Group_707" data-name="Group 707">
                  <g id="Group_706" data-name="Group 706">
                    <g id="Group_705" data-name="Group 705">
                      <path id="Path_618" data-name="Path 618" class="cls-26" d="M64.96,76.17c.87,.04,1.74,0,2.6-.13,1.67-.14,4.08-.34,7.07-.5,5.97-.37,14.24-.59,23.36-.43,9.13,.17,17.39,.68,23.35,1.22,2.98,.25,5.39,.51,7.06,.69,.86,.14,1.73,.2,2.6,.19-.83-.26-1.69-.45-2.55-.55-1.66-.28-4.06-.65-7.04-.99-5.96-.71-14.24-1.32-23.4-1.5-7.82-.16-15.63,.08-23.43,.71-2.99,.25-5.4,.56-7.06,.8-.87,.08-1.72,.25-2.55,.5Z"/>
                    </g>
                  </g>
                </g>
              </g>
            </g>
            <g id="Group_714" data-name="Group 714" class="cls-17">
              <g id="Group_713" data-name="Group 713">
                <g id="Group_712" data-name="Group 712">
                  <g id="Group_711" data-name="Group 711">
                    <g id="Group_710" data-name="Group 710">
                      <path id="Path_619" data-name="Path 619" class="cls-26" d="M171.03,143.55c.14-.27,.24-.56,.3-.85,.19-.68,.42-1.5,.7-2.5,.6-2.18,1.38-5.35,2.29-9.28,1.84-7.86,4.03-18.8,6.29-30.9s4.35-23.05,6.01-30.93c.82-3.84,1.5-6.99,2-9.34,.21-1.02,.39-1.86,.53-2.54,.08-.29,.12-.6,.12-.9-.14,.27-.24,.56-.3,.86-.19,.68-.42,1.5-.7,2.5-.6,2.18-1.38,5.35-2.29,9.28-1.83,7.86-4.03,18.8-6.28,30.9s-4.35,23.04-6.01,30.93c-.82,3.83-1.5,6.99-2,9.33-.21,1.02-.39,1.86-.53,2.54-.08,.29-.12,.6-.12,.9Z"/>
                    </g>
                  </g>
                </g>
              </g>
            </g>
            <g id="Group_719" data-name="Group 719" class="cls-17">
              <g id="Group_718" data-name="Group 718">
                <g id="Group_717" data-name="Group 717">
                  <g id="Group_716" data-name="Group 716">
                    <g id="Group_715" data-name="Group 715">
                      <path id="Path_620" data-name="Path 620" class="cls-26" d="M81.3,130.67c.29,.11,.59,.17,.9,.2l2.61,.4,9.61,1.4c8.11,1.18,19.31,2.94,31.67,4.9s23.58,3.62,31.73,4.63c4.07,.51,7.37,.88,9.65,1.1,1.05,.09,1.92,.17,2.63,.23,.31,.05,.62,.05,.93,.02-.29-.11-.59-.17-.9-.2l-2.61-.4-9.61-1.4c-8.12-1.18-19.31-2.94-31.67-4.9s-23.58-3.62-31.72-4.63c-4.07-.51-7.37-.88-9.65-1.1l-2.63-.23c-.31-.05-.62-.06-.93-.02Z"/>
                    </g>
                  </g>
                </g>
              </g>
            </g>
          </g>
          <g id="Group_744" data-name="Group 744">
            <g id="Group_722" data-name="Group 722">
              <g id="Group_721" data-name="Group 721">
                <path id="Path_621" data-name="Path 621" class="cls-14" d="M683.17,77.34s-16.22-8-29.92,30.11c-13.7,38.1-17.99,59.62-17.99,59.62,0,0-3.87,8.11-9.64,3.86s-14.59-17.26-23.03-13.64c-8.75,3.75-10.45,14.26-6.83,28.93s10.38,47.11,10.98,50.04c.59,2.88-.53,7.38-4.93,5.12s-30.95-25.22-41.09-11.97,6.67,52.47,8.42,56.79,1.12,6.34-.86,7.72-10.18-7.18-18-13.4-17.98-12.06-23.19-3.92-3.3,38.92,32.05,84.82l17.77,20.2,26.58-4.88c56.24-13.92,76.9-36.81,77.89-46.42s-10.6-11.36-20.59-11.36-21.73,1.59-22.43-.72,.07-4.29,4.13-6.58,41.63-22.52,41.94-39.2-34.76-15.25-39.6-16.21-2.93-5.18-.67-7.07c2.3-1.92,27.78-23.1,39.74-32.33,11.97-9.23,17.18-18.51,12.66-26.9-4.35-8.08-19.35-3.39-26.52-3.66s-5.14-9.03-5.14-9.03c0,0,10.04-19.51,23.04-57.86,13-38.35-5.13-42.2-5.13-42.2"/>
              </g>
            </g>
            <g id="Group_725" data-name="Group 725" class="cls-16">
              <g id="Group_724" data-name="Group 724">
                <g id="Group_723" data-name="Group 723">
                  <path id="Path_622" data-name="Path 622" class="cls-23" d="M670.85,111.45s-.07,.28-.23,.82c-.18,.57-.43,1.36-.76,2.37-.7,2.11-1.71,5.17-3,9.09-2.62,7.89-6.49,19.29-11.32,33.35-9.66,28.12-23.33,66.86-38.57,109.6-15.24,42.74-29,81.46-38.8,109.53-4.88,14.02-8.83,25.37-11.57,33.26-1.36,3.9-2.42,6.94-3.15,9.04-.36,1.01-.64,1.79-.84,2.34-.19,.53-.31,.79-.31,.79,0,0,.07-.28,.23-.82,.18-.57,.43-1.35,.76-2.37,.7-2.11,1.71-5.17,3-9.09,2.62-7.89,6.49-19.29,11.32-33.35,9.66-28.12,23.33-66.87,38.57-109.62,15.24-42.75,28.99-81.44,38.8-109.51,4.88-14.02,8.83-25.37,11.58-33.26l3.15-9.04,.84-2.35c.18-.53,.31-.79,.31-.79Z"/>
                </g>
              </g>
            </g>
            <g id="Group_728" data-name="Group 728" class="cls-16">
              <g id="Group_727" data-name="Group 727">
                <g id="Group_726" data-name="Group 726">
                  <path id="Path_623" data-name="Path 623" class="cls-23" d="M614.2,175.99c.36,.54,.67,1.12,.9,1.72,.54,1.13,1.26,2.79,2.14,4.84,1.75,4.11,4.02,9.86,6.42,16.24,2.34,6.3,4.45,12,6.07,16.36,.74,1.96,1.37,3.62,1.87,4.95,.27,.59,.48,1.21,.61,1.85-.37-.54-.67-1.11-.92-1.72-.53-1.13-1.26-2.79-2.12-4.86-1.71-4.13-3.91-9.9-6.3-16.29l-6.18-16.31c-.75-1.96-1.38-3.61-1.89-4.94-.27-.59-.47-1.21-.61-1.85Z"/>
                </g>
              </g>
            </g>
            <g id="Group_731" data-name="Group 731" class="cls-16">
              <g id="Group_730" data-name="Group 730">
                <g id="Group_729" data-name="Group 729">
                  <path id="Path_624" data-name="Path 624" class="cls-23" d="M634.73,222.11c-.09-.21,11.54-5.42,25.98-11.63s26.23-11.07,26.32-10.86-11.54,5.42-25.99,11.63-26.22,11.07-26.31,10.86Z"/>
                </g>
              </g>
            </g>
            <g id="Group_734" data-name="Group 734" class="cls-16">
              <g id="Group_733" data-name="Group 733">
                <g id="Group_732" data-name="Group 732">
                  <path id="Path_625" data-name="Path 625" class="cls-23" d="M608.37,286.7c.64-.18,1.29-.3,1.96-.34l5.36-.66c4.52-.56,10.77-1.37,17.62-2.51s13.03-2.36,17.49-3.29l5.29-1.1c.64-.17,1.3-.28,1.96-.31-.6,.28-1.24,.49-1.89,.63-1.23,.35-3.02,.82-5.23,1.36-4.44,1.08-10.61,2.41-17.49,3.54s-13.15,1.86-17.69,2.28c-2.27,.2-4.12,.34-5.39,.4-.66,.08-1.33,.08-1.99,.02Z"/>
                </g>
              </g>
            </g>
            <g id="Group_737" data-name="Group 737" class="cls-16">
              <g id="Group_736" data-name="Group 736">
                <g id="Group_735" data-name="Group 735">
                  <path id="Path_626" data-name="Path 626" class="cls-23" d="M580.62,249.07c.46,.4,.88,.86,1.23,1.36l3.12,3.9c2.6,3.31,5.13,9.25,10.04,13.05,3.88,5.13,7.36,9.8,9.84,13.2l2.91,4.06c.39,.48,.71,1,.98,1.56-.46-.4-.88-.86-1.23-1.36l-3.12-3.9c-2.6-3.31-6.16-7.93-10.04-13.05s-7.36-9.8-9.84-13.2l-2.91-4.06c-.38-.48-.71-1-.97-1.56Z"/>
                </g>
              </g>
            </g>
            <g id="Group_740" data-name="Group 740" class="cls-16">
              <g id="Group_739" data-name="Group 739">
                <g id="Group_738" data-name="Group 738">
                  <path id="Path_627" data-name="Path 627" class="cls-23" d="M550.1,303.12c.57,.54,1.1,1.13,1.56,1.76,1.05,1.3,2.39,2.97,4.02,4.98,3.36,4.23,7.96,10.1,13,16.63s9.57,12.46,12.81,16.78c1.54,2.08,2.81,3.8,3.8,5.14,.49,.61,.93,1.26,1.3,1.96-.57-.54-1.1-1.13-1.56-1.76l-4.01-4.98c-3.36-4.23-7.96-10.1-13-16.63s-9.56-12.45-12.8-16.78c-1.54-2.07-2.81-3.8-3.8-5.14-.5-.61-.93-1.26-1.31-1.96Z"/>
                </g>
              </g>
            </g>
            <g id="Group_743" data-name="Group 743" class="cls-16">
              <g id="Group_742" data-name="Group 742">
                <g id="Group_741" data-name="Group 741">
                  <path id="Path_628" data-name="Path 628" class="cls-23" d="M586.04,348.99c.81-.24,1.63-.4,2.47-.49l6.77-1.08c5.71-.92,13.59-2.22,22.25-3.91s16.46-3.39,22.1-4.67c2.71-.61,4.96-1.12,6.68-1.51,.81-.23,1.64-.38,2.47-.46-.77,.33-1.57,.59-2.39,.78-1.56,.45-3.82,1.06-6.62,1.77-5.61,1.43-13.4,3.24-22.08,4.92s-16.58,2.9-22.32,3.67c-2.87,.38-5.2,.66-6.81,.82-.83,.13-1.67,.19-2.51,.17Z"/>
                </g>
              </g>
            </g>
          </g>
        </g>
        <g id="Floor-2">
          <g id="Group_746" data-name="Group 746">
            <g id="Group_745" data-name="Group 745">
              <path id="Path_629" data-name="Path 629" class="cls-25" d="M690.83,623.39c0,.23-154.66,.41-345.4,.41s-345.43-.18-345.43-.41,154.62-.42,345.43-.42c190.74,0,345.4,.19,345.4,.42Z"/>
            </g>
          </g>
        </g>
        <g id="Login">
          <g id="Group_787" data-name="Group 787">
            <g id="Group_750" data-name="Group 750">
              <g id="Group_747" data-name="Group 747">
                <rect id="Rectangle_255" data-name="Rectangle 255" class="cls-19" x="182.71" y="7.63" width="404.88" height="507.93"/>
              </g>
              <g id="Group_749" data-name="Group 749">
                <g id="Group_748" data-name="Group 748">
                  <path id="Path_630" data-name="Path 630" class="cls-25" d="M182.7,7.63l404.88-.34h.34v.35c.02,145.09,.04,319.85,.07,507.88v.46h-.41l-404.88-.04h-.37v-.37c.22-301.84,.37-504.68,.37-507.93,0,3.24,.15,206.09,.37,507.93l-.37-.37,404.87-.04-.41,.41v-.04c.03-188.03,.05-362.8,.07-507.88l.34,.34-404.87-.34Z"/>
                </g>
              </g>
            </g>
            <g id="Group_768" data-name="Group 768">
              <g id="Group_767" data-name="Group 767">
                <g id="Group_753" data-name="Group 753">
                  <g id="Group_752" data-name="Group 752">
                    <path id="Path_636" data-name="Path 636" class="cls-22" d="M452.56,36.64c1.06,1.96,1.27,4.27,.59,6.39-.69,2.1-1.85,4.01-3.39,5.59-2.88,3.13-7.34,5.15-11.42,6.35-1.04-4.61,1.5-9.47,2.94-11.85,2.28-3.77,8.69-9.19,11.28-6.48"/>
                  </g>
                </g>
                <g id="Group_755" data-name="Group 755">
                  <g id="Group_754" data-name="Group 754">
                    <path id="Path_637" data-name="Path 637" class="cls-14" d="M437.55,63.05c1.05-2.28,3.25-3.81,5.74-4.03,2.48-.17,4.93,.66,6.79,2.32,.94,.67,1.53,1.71,1.63,2.86-.09,1.08-.76,2.03-1.75,2.47-.98,.42-2.05,.58-3.11,.46-3.63-.26-7.1-1.18-9.3-4.08"/>
                  </g>
                </g>
                <g id="Group_758" data-name="Group 758">
                  <g id="Group_757" data-name="Group 757">
                    <g id="Group_756" data-name="Group 756">
                      <path id="Path_638" data-name="Path 638" class="cls-9" d="M428.38,68.45c.61-.72,1.29-1.37,2.02-1.95,.79-.66,1.65-1.23,2.57-1.69,1.1-.59,2.24-1.11,3.41-1.56,2.15-.81,4.47-1.08,6.75-.78,.68,.11,1.35,.28,2,.53,.24,.08,.47,.19,.68,.35-.03,.08-1.02-.35-2.72-.54-2.22-.19-4.46,.11-6.55,.89-1.15,.44-2.28,.94-3.37,1.5-.9,.43-1.76,.95-2.55,1.56-.7,.61-1.45,1.18-2.23,1.69Z"/>
                    </g>
                  </g>
                </g>
                <g id="Group_761" data-name="Group 761">
                  <g id="Group_760" data-name="Group 760">
                    <g id="Group_759" data-name="Group 759">
                      <path id="Path_639" data-name="Path 639" class="cls-9" d="M448.04,41.2c-.2,.43-.45,.84-.72,1.23-.49,.77-1.21,1.88-2.12,3.24-1.82,2.72-4.36,6.45-7.28,10.5s-5.66,7.64-7.7,10.2c-1.02,1.28-1.86,2.3-2.45,3-.29,.38-.61,.73-.96,1.05,.24-.41,.51-.8,.81-1.17l2.33-3.09c1.97-2.61,4.67-6.23,7.58-10.27l7.39-10.42,2.25-3.15c.26-.4,.55-.77,.87-1.12Z"/>
                    </g>
                  </g>
                </g>
                <g id="Group_763" data-name="Group 763">
                  <g id="Group_762" data-name="Group 762">
                    <path id="Path_640" data-name="Path 640" class="cls-14" d="M432.26,61.18c1.7-4.99,.88-10.49-2.18-14.77-.78-1.07-1.97-2.13-3.25-1.81s-1.84,1.82-2,3.13c-.59,5.61,2.25,11.02,7.2,13.72"/>
                  </g>
                </g>
                <g id="Group_766" data-name="Group 766">
                  <g id="Group_765" data-name="Group 765">
                    <g id="Group_764" data-name="Group 764">
                      <path id="Path_641" data-name="Path 641" class="cls-9" d="M429.03,50.13s.18,.2,.42,.62,.57,1.03,.95,1.8c1.01,2.02,1.64,4.21,1.86,6.46,.09,1.25-.03,2.51-.35,3.72-.46,1.65-1.28,3.17-2.41,4.45-.32,.36-.51,.55-.53,.53-.08-.06,.63-.86,1.45-2.34,1.06-1.93,1.54-4.13,1.37-6.32-.22-2.2-.79-4.34-1.69-6.36-.41-.83-.76-1.68-1.07-2.55Z"/>
                    </g>
                  </g>
                </g>
              </g>
            </g>
            <path id="Path_671" data-name="Path 671" class="cls-15" d="M554.32,177.46c.66-.03,1.29-.29,1.77-.75,1.17-.9,.68-3.05,.76-5.55-.02-5.13-.04-12.66-.08-22.35,0-2.43-.01-4.99-.02-7.68v-2.04c.05-.68,0-1.36-.12-2.02-.21-.64-.68-1.16-1.28-1.44-.67-.23-1.37-.3-2.07-.22l-19.21,.04-46.84,.06c-69.43,.03-165.31,.07-271.22,.12-.71,0-1.38,.33-1.8,.91-.39,.64-.54,1.39-.42,2.13v34.27c.02,.77-.04,1.69,.04,2.34,.13,.68,.56,1.26,1.18,1.56,.3,.15,.64,.23,.98,.24h32.06l72.01,.02,121.93,.09,82.2,.13,22.35,.08,5.81,.04c1.31,.01,1.98,.04,1.98,.04,0,0-.67,.03-1.98,.04l-5.81,.04-22.35,.08-82.2,.13c-34.71,.02-76.04,.05-121.93,.09l-72.01,.02c-6.24,0-12.54,0-18.89,0h-13.17c-.47,0-.93-.11-1.34-.32-.85-.42-1.45-1.22-1.62-2.15-.1-.95-.03-1.65-.05-2.49v-34.27c-.01-.43,0-.87,.04-1.3,.07-.48,.26-.93,.54-1.32,.57-.79,1.49-1.25,2.46-1.25,105.91,.05,201.79,.09,271.22,.12l46.84,.06,19.21,.03c.76-.08,1.52,.01,2.24,.27,.7,.33,1.24,.94,1.48,1.68,.14,.7,.19,1.42,.13,2.14v2.04c0,2.69-.01,5.25-.02,7.68-.03,9.69-.06,17.23-.08,22.35,0,1.27-.01,2.4-.02,3.37,.07,.84-.24,1.66-.85,2.24-.48,.48-1.15,.73-1.83,.7Z"/>
            <text class="cls-7" transform="translate(212.73 125)"><tspan class="cls-24" x="0" y="0">P</tspan><tspan x="12.13" y="0">ass</tspan><tspan class="cls-18" x="40.91" y="0">w</tspan><tspan x="57.2" y="0">ord</tspan></text>
            <text class="cls-8" transform="translate(234.73 162)"><tspan x="0" y="0">E</tspan><tspan class="cls-18" x="11.77" y="0">n</tspan><tspan x="23.27" y="0">ter </tspan><tspan class="cls-24" x="54" y="0">P</tspan><tspan x="66.13" y="0">ass</tspan><tspan class="cls-20" x="94.91" y="0">w</tspan><tspan x="111.2" y="0">ord</tspan></text>
            <text class="cls-8" transform="translate(234.73 259.41)"><tspan x="0" y="0">E</tspan><tspan class="cls-18" x="11.77" y="0">n</tspan><tspan x="23.27" y="0">ter </tspan><tspan class="cls-24" x="54" y="0">P</tspan><tspan x="66.13" y="0">ass</tspan><tspan class="cls-20" x="94.91" y="0">w</tspan><tspan x="111.2" y="0">ord</tspan></text>
            <path id="Path_700" data-name="Path 700" class="cls-15" d="M554.32,274.67c.66-.03,1.29-.29,1.77-.75,1.17-.9,.68-3.05,.76-5.55-.02-5.13-.04-12.66-.08-22.35,0-2.43-.01-4.99-.02-7.68v-2.04c.05-.68,0-1.36-.12-2.02-.21-.64-.68-1.16-1.28-1.44-.67-.23-1.37-.3-2.07-.22l-19.21,.04-46.84,.06-271.22,.12c-.71,0-1.38,.33-1.8,.91-.39,.64-.54,1.39-.42,2.13v34.27c.02,.77-.04,1.69,.04,2.34,.13,.68,.56,1.26,1.18,1.57,.3,.15,.64,.23,.98,.23h32.06l72.01,.02,121.93,.09,82.2,.13c9.69,.04,17.22,.06,22.35,.08l5.81,.04c1.31,.01,1.98,.04,1.98,.04,0,0-.67,.03-1.98,.04l-5.81,.04-22.35,.08-82.2,.13-121.93,.09-72.01,.02h-32.06c-1.45,0-2.7-1.04-2.96-2.47-.1-.95-.03-1.65-.05-2.49v-34.27c-.01-.43,0-.87,.04-1.3,.07-.48,.26-.93,.54-1.31,.57-.79,1.49-1.25,2.46-1.25l271.22,.12,46.84,.06,19.21,.03c.76-.08,1.52,.01,2.24,.27,.7,.33,1.24,.94,1.48,1.68,.14,.7,.19,1.42,.13,2.14v2.04c0,2.69-.01,5.25-.02,7.68-.03,9.69-.06,17.23-.08,22.35,0,1.27-.01,2.4-.02,3.37,.07,.84-.24,1.66-.85,2.24-.48,.48-1.15,.73-1.82,.7Z"/>
            <text class="cls-7" transform="translate(212.73 224)"><tspan class="cls-10" x="0" y="0">C</tspan><tspan x="12.98" y="0">o</tspan><tspan class="cls-13" x="24.71" y="0">n</tspan><tspan x="36.25" y="0">firm </tspan><tspan class="cls-24" x="78.46" y="0">P</tspan><tspan x="90.59" y="0">ass</tspan><tspan class="cls-20" x="119.37" y="0">w</tspan><tspan x="135.66" y="0">ord</tspan></text>
            <path id="Path_707" data-name="Path 707" class="cls-25" d="M554.1,445.68c.66-.03,1.29-.29,1.77-.75,1.17-.9,.68-3.05,.76-5.55-.02-5.13-.04-12.66-.08-22.35,0-2.43-.01-4.99-.02-7.68v-2.05c.05-.68,0-1.36-.12-2.02-.21-.64-.68-1.16-1.28-1.44-.67-.23-1.37-.3-2.07-.22l-19.21,.03-46.84,.06-271.22,.12c-.71,0-1.38,.33-1.8,.91-.39,.64-.54,1.39-.42,2.13v34.27c.02,.77-.04,1.69,.04,2.34,.19,1.04,1.1,1.8,2.16,1.8h32.06l72.01,.02,121.93,.09,82.2,.13c9.69,.03,17.22,.06,22.35,.08l5.81,.04c1.31,.01,1.98,.04,1.98,.04,0,0-.67,.03-1.98,.04-1.33,0-3.27,.02-5.81,.04-5.12,.02-12.65,.05-22.35,.08l-82.2,.13-121.93,.09-72.01,.02h-32.06c-1.45,0-2.7-1.04-2.96-2.47-.1-.95-.03-1.65-.05-2.49v-34.27c-.01-.43,0-.87,.04-1.3,.07-.48,.26-.93,.54-1.31,.57-.79,1.49-1.25,2.46-1.25l271.22,.12,46.84,.06,19.21,.03c.76-.08,1.52,.01,2.24,.27,.7,.33,1.24,.94,1.48,1.67,.14,.7,.19,1.42,.13,2.14v2.05c0,2.69-.01,5.25-.02,7.68-.03,9.7-.06,17.23-.08,22.35,0,1.28-.01,2.4-.02,3.37,.07,.84-.24,1.67-.85,2.24-.48,.48-1.15,.73-1.82,.7Z"/>
            <text class="cls-7" transform="translate(346.73 430)"><tspan x="0" y="0">CANCEL</tspan></text>
            <g id="Group_786" data-name="Group 786">
              <g id="Group_784" data-name="Group 784">
                <rect id="Rectangle_256" data-name="Rectangle 256" class="cls-14" x="213.73" y="324" width="343.57" height="42.27" rx="11.07" ry="11.07"/>
              </g>
            </g>
          </g>
        </g>
        <g id="Character-2">
          <g id="Group_1037" data-name="Group 1037">
            <g id="Group_855" data-name="Group 855">
              <g id="Group_854" data-name="Group 854">
                <g id="Group_794" data-name="Group 794">
                  <g id="Group_790" data-name="Group 790">
                    <g id="Group_789" data-name="Group 789">
                      <g id="Group_788" data-name="Group 788">
                        <path id="Path_713" data-name="Path 713" d="M34.35,604.02l-2.06,11.69,1.74,.39c7.75,1.64,39.52,7.79,44.99,7.02,6.1-.87-17.13-10-17.13-10l.73-4.94-28.26-4.15Z"/>
                      </g>
                    </g>
                  </g>
                  <g id="Group_793" data-name="Group 793" class="cls-3">
                    <g id="Group_792" data-name="Group 792">
                      <g id="Group_791" data-name="Group 791">
                        <path id="Path_714" data-name="Path 714" class="cls-1" d="M42.59,617.07c-.05-2.46-1-4.81-2.68-6.6-1.64-1.78-3.89-2.88-6.3-3.08l-1.23,7.92,10.21,1.77Z"/>
                      </g>
                    </g>
                  </g>
                </g>
                <g id="Group_797" data-name="Group 797">
                  <g id="Group_796" data-name="Group 796">
                    <g id="Group_795" data-name="Group 795" class="cls-3">
                      <path id="Path_715" data-name="Path 715" class="cls-1" d="M73.17,617.99s8.06,3.73,6.79,4.96-33.6-3.78-47.68-7.24l.15-.63,37.67,6.17s1.41-3.44,3.07-3.26Z"/>
                    </g>
                  </g>
                </g>
                <g id="Group_801" data-name="Group 801">
                  <g id="Group_800" data-name="Group 800">
                    <g id="Group_799" data-name="Group 799">
                      <g id="Group_798" data-name="Group 798">
                        <path id="Path_716" data-name="Path 716" class="cls-25" d="M31.99,615c.16,.06,.32,.1,.48,.13l1.39,.3,5.11,1.02c4.32,.83,10.31,1.9,16.95,2.93,6.64,1.03,12.67,1.84,17.04,2.36l5.18,.58,1.41,.14c.16,.02,.33,.03,.49,.02-.16-.05-.32-.08-.49-.09l-1.4-.2-5.17-.69c-4.36-.59-10.38-1.43-17.02-2.46s-12.63-2.06-16.96-2.83l-5.13-.91-1.4-.24c-.16-.03-.33-.05-.5-.06Z"/>
                      </g>
                    </g>
                  </g>
                </g>
                <g id="Group_805" data-name="Group 805">
                  <g id="Group_804" data-name="Group 804">
                    <g id="Group_803" data-name="Group 803">
                      <g id="Group_802" data-name="Group 802">
                        <path id="Path_717" data-name="Path 717" class="cls-25" d="M70.02,621.69c.36-.82,.81-1.59,1.34-2.31,.62-.64,1.31-1.21,2.06-1.7-1.86,.5-3.21,2.09-3.4,4.01h0Z"/>
                      </g>
                    </g>
                  </g>
                </g>
                <g id="Group_809" data-name="Group 809">
                  <g id="Group_808" data-name="Group 808">
                    <g id="Group_807" data-name="Group 807">
                      <g id="Group_806" data-name="Group 806">
                        <path id="Path_718" data-name="Path 718" class="cls-25" d="M62.32,616.15c.07,.06,.55-.36,1.06-.95s.87-1.11,.8-1.18-.55,.36-1.06,.95-.87,1.11-.8,1.18Z"/>
                      </g>
                    </g>
                  </g>
                </g>
                <g id="Group_813" data-name="Group 813">
                  <g id="Group_812" data-name="Group 812">
                    <g id="Group_811" data-name="Group 811">
                      <g id="Group_810" data-name="Group 810">
                        <path id="Path_719" data-name="Path 719" class="cls-25" d="M60.22,614.59c.05,.08,.54-.15,1.1-.51,.55-.36,.97-.72,.91-.8s-.55,.15-1.1,.51-.96,.72-.91,.8Z"/>
                      </g>
                    </g>
                  </g>
                </g>
                <g id="Group_817" data-name="Group 817">
                  <g id="Group_816" data-name="Group 816">
                    <g id="Group_815" data-name="Group 815">
                      <g id="Group_814" data-name="Group 814">
                        <path id="Path_720" data-name="Path 720" class="cls-25" d="M59.18,611.69c.45,.25,.94,.39,1.45,.42,.49,.14,1,.16,1.5,.07-.45-.24-.94-.39-1.45-.42-.49-.14-1-.16-1.5-.08Z"/>
                      </g>
                    </g>
                  </g>
                </g>
                <g id="Group_821" data-name="Group 821">
                  <g id="Group_820" data-name="Group 820">
                    <g id="Group_819" data-name="Group 819">
                      <g id="Group_818" data-name="Group 818">
                        <path id="Path_721" data-name="Path 721" class="cls-25" d="M58.97,609.73c.95,.71,2.15,.99,3.31,.77-.54-.18-1.1-.3-1.66-.38-.54-.18-1.09-.32-1.65-.4Z"/>
                      </g>
                    </g>
                  </g>
                </g>
                <g id="Group_825" data-name="Group 825">
                  <g id="Group_824" data-name="Group 824">
                    <g id="Group_823" data-name="Group 823">
                      <g id="Group_822" data-name="Group 822">
                        <path id="Path_722" data-name="Path 722" class="cls-25" d="M63.67,613.83c.59,.2,1.2,.29,1.82,.27,.67,.02,1.34-.02,2-.13,.4-.05,.8-.15,1.18-.28,.24-.09,.43-.27,.54-.5,.1-.27,.04-.57-.16-.77-1.32-.93-3.12-.78-4.28,.33-.34,.32-.6,.7-.78,1.12-.08,.15-.12,.32-.12,.48,.27-.53,.63-1.02,1.07-1.42,.49-.41,1.08-.68,1.71-.77,.75-.13,1.52,.04,2.15,.48,.26,.26,.09,.58-.26,.72-.35,.13-.72,.22-1.09,.28-.64,.12-1.3,.18-1.95,.2-1.12,.03-1.81-.08-1.82-.02Z"/>
                      </g>
                    </g>
                  </g>
                </g>
                <g id="Group_829" data-name="Group 829">
                  <g id="Group_828" data-name="Group 828">
                    <g id="Group_827" data-name="Group 827">
                      <g id="Group_826" data-name="Group 826">
                        <path id="Path_723" data-name="Path 723" class="cls-25" d="M64.12,614c.28-.35,.43-.79,.4-1.23,.02-.49-.08-.97-.29-1.41-.22-.6-.74-1.04-1.37-1.16-.4,.02-.7,.36-.69,.76,0,.3,.06,.59,.18,.86,.18,.44,.41,.85,.69,1.23,.49,.65,.9,.93,.93,.9s-.31-.38-.72-1.04c-.24-.38-.44-.79-.59-1.21-.19-.42-.25-1.14,.21-1.15,.46,.03,.86,.55,1.08,.96,.2,.39,.31,.82,.33,1.26-.02,.41-.07,.83-.16,1.23Z"/>
                      </g>
                    </g>
                  </g>
                </g>
                <g id="Group_833" data-name="Group 833">
                  <g id="Group_832" data-name="Group 832">
                    <g id="Group_831" data-name="Group 831">
                      <g id="Group_830" data-name="Group 830">
                        <path id="Path_724" data-name="Path 724" class="cls-25" d="M33.77,607.34c0,.07,.82,.05,2.08,.4,3.35,.9,5.88,3.65,6.5,7.06,.24,1.28,.16,2.1,.22,2.11,.06-.18,.09-.38,.09-.57,.03-.53,0-1.05-.07-1.58-.51-3.57-3.17-6.46-6.68-7.26-.51-.12-1.04-.19-1.56-.2-.19-.02-.39,0-.57,.04Z"/>
                      </g>
                    </g>
                  </g>
                </g>
                <g id="Group_837" data-name="Group 837">
                  <g id="Group_836" data-name="Group 836">
                    <g id="Group_835" data-name="Group 835">
                      <g id="Group_834" data-name="Group 834">
                        <path id="Path_725" data-name="Path 725" class="cls-25" d="M46.58,614.86c1.31,.53,2.67,.88,4.07,1.05,1.38,.28,2.79,.39,4.19,.31,0-.1-1.86-.27-4.14-.65s-4.1-.81-4.13-.71Z"/>
                      </g>
                    </g>
                  </g>
                </g>
                <g id="Group_841" data-name="Group 841">
                  <g id="Group_840" data-name="Group 840">
                    <g id="Group_839" data-name="Group 839">
                      <g id="Group_838" data-name="Group 838">
                        <path id="Path_726" data-name="Path 726" class="cls-25" d="M41.03,613.99c-.08,.06,.09,.42,.21,.87s.17,.85,.27,.85,.22-.42,.07-.95-.48-.83-.55-.77Z"/>
                      </g>
                    </g>
                  </g>
                </g>
                <g id="Group_845" data-name="Group 845">
                  <g id="Group_844" data-name="Group 844">
                    <g id="Group_843" data-name="Group 843">
                      <g id="Group_842" data-name="Group 842">
                        <path id="Path_727" data-name="Path 727" class="cls-25" d="M39.34,611.07c-.08,.06,.06,.38,.31,.72s.51,.58,.59,.52-.06-.38-.31-.72-.51-.58-.59-.52Z"/>
                      </g>
                    </g>
                  </g>
                </g>
                <g id="Group_849" data-name="Group 849">
                  <g id="Group_848" data-name="Group 848">
                    <g id="Group_847" data-name="Group 847">
                      <g id="Group_846" data-name="Group 846">
                        <path id="Path_728" data-name="Path 728" class="cls-25" d="M36.53,609.41c0,.1,.38,.15,.78,.37s.66,.48,.74,.43-.09-.48-.58-.73-.95-.15-.94-.06Z"/>
                      </g>
                    </g>
                  </g>
                </g>
                <g id="Group_853" data-name="Group 853">
                  <g id="Group_852" data-name="Group 852">
                    <g id="Group_851" data-name="Group 851">
                      <g id="Group_850" data-name="Group 850">
                        <path id="Path_729" data-name="Path 729" class="cls-25" d="M34.49,608.52c-.05,.08,.09,.25,.31,.38s.44,.16,.49,.08-.09-.25-.31-.38-.44-.16-.49-.08Z"/>
                      </g>
                    </g>
                  </g>
                </g>
              </g>
            </g>
            <g id="Group_923" data-name="Group 923">
              <g id="Group_922" data-name="Group 922">
                <g id="Group_862" data-name="Group 862">
                  <g id="Group_858" data-name="Group 858">
                    <g id="Group_857" data-name="Group 857">
                      <g id="Group_856" data-name="Group 856">
                        <path id="Path_730" data-name="Path 730" d="M183.4,614.02l1.06,11.82,1.78-.08c7.91-.44,40.18-2.8,45.26-4.98,5.66-2.43-19.15-5.18-19.15-5.18l-.59-4.96-28.37,3.38Z"/>
                      </g>
                    </g>
                  </g>
                  <g id="Group_861" data-name="Group 861" class="cls-3">
                    <g id="Group_860" data-name="Group 860">
                      <g id="Group_859" data-name="Group 859">
                        <path id="Path_731" data-name="Path 731" class="cls-1" d="M194.76,624.46c-.69-2.36-2.23-4.38-4.31-5.67-2.05-1.29-4.51-1.76-6.89-1.33l.88,7.96,10.32-.96Z"/>
                      </g>
                    </g>
                  </g>
                </g>
                <g id="Group_865" data-name="Group 865">
                  <g id="Group_864" data-name="Group 864">
                    <g id="Group_863" data-name="Group 863" class="cls-3">
                      <path id="Path_732" data-name="Path 732" class="cls-1" d="M224.52,617.36s8.76,1.5,7.85,3.02-33.43,5.12-47.91,5.46l-.02-.64,37.97-3.89s.46-3.69,2.11-3.95Z"/>
                    </g>
                  </g>
                </g>
                <g id="Group_869" data-name="Group 869">
                  <g id="Group_868" data-name="Group 868">
                    <g id="Group_867" data-name="Group 867">
                      <g id="Group_866" data-name="Group 866">
                        <path id="Path_733" data-name="Path 733" class="cls-25" d="M183.99,625.23c.16,.01,.33,.01,.49,0l1.42-.07,5.2-.35c4.39-.33,10.45-.86,17.13-1.6s12.71-1.54,17.07-2.17l5.15-.79,1.4-.24c.16-.02,.33-.06,.49-.11-.17,0-.33,0-.49,.04l-1.41,.17-5.17,.68c-4.36,.57-10.4,1.33-17.07,2.07s-12.73,1.3-17.11,1.7l-5.19,.46-1.41,.14c-.17,0-.33,.03-.49,.07Z"/>
                      </g>
                    </g>
                  </g>
                </g>
                <g id="Group_873" data-name="Group 873">
                  <g id="Group_872" data-name="Group 872">
                    <g id="Group_871" data-name="Group 871">
                      <g id="Group_870" data-name="Group 870">
                        <path id="Path_734" data-name="Path 734" class="cls-25" d="M222.45,621.75c.15-1.8,.95-3.49,2.24-4.76-1.66,.97-2.55,2.86-2.24,4.76Z"/>
                      </g>
                    </g>
                  </g>
                </g>
                <g id="Group_877" data-name="Group 877">
                  <g id="Group_876" data-name="Group 876">
                    <g id="Group_875" data-name="Group 875">
                      <g id="Group_874" data-name="Group 874">
                        <path id="Path_735" data-name="Path 735" class="cls-25" d="M213.58,618.42c.09,.04,.43-.49,.78-1.19s.55-1.3,.46-1.35-.43,.49-.78,1.19-.55,1.3-.46,1.35Z"/>
                      </g>
                    </g>
                  </g>
                </g>
                <g id="Group_881" data-name="Group 881">
                  <g id="Group_880" data-name="Group 880">
                    <g id="Group_879" data-name="Group 879">
                      <g id="Group_878" data-name="Group 878">
                        <path id="Path_736" data-name="Path 736" class="cls-25" d="M211.13,617.46c.07,.06,.49-.29,.93-.78s.74-.95,.67-1.01-.49,.29-.93,.78-.74,.95-.67,1.01Z"/>
                      </g>
                    </g>
                  </g>
                </g>
                <g id="Group_885" data-name="Group 885">
                  <g id="Group_884" data-name="Group 884">
                    <g id="Group_883" data-name="Group 883">
                      <g id="Group_882" data-name="Group 882">
                        <path id="Path_737" data-name="Path 737" class="cls-25" d="M209.38,614.93c1,.13,2.02,.03,2.98-.3-1-.13-2.02-.03-2.98,.3Z"/>
                      </g>
                    </g>
                  </g>
                </g>
                <g id="Group_889" data-name="Group 889">
                  <g id="Group_888" data-name="Group 888">
                    <g id="Group_887" data-name="Group 887">
                      <g id="Group_886" data-name="Group 886">
                        <path id="Path_738" data-name="Path 738" class="cls-25" d="M208.66,613.09c1.1,.44,2.33,.4,3.4-.12-.57-.03-1.14,0-1.7,.07-.57-.04-1.14-.02-1.7,.05Z"/>
                      </g>
                    </g>
                  </g>
                </g>
                <g id="Group_893" data-name="Group 893">
                  <g id="Group_892" data-name="Group 892">
                    <g id="Group_891" data-name="Group 891">
                      <g id="Group_890" data-name="Group 890">
                        <path id="Path_739" data-name="Path 739" class="cls-25" d="M214.26,615.83c.62,.03,1.24-.04,1.83-.21,.65-.16,1.29-.37,1.9-.65,.38-.15,.73-.35,1.07-.58,.2-.15,.34-.37,.39-.62,.03-.28-.11-.56-.36-.7-1.52-.55-3.21,.06-4.04,1.44-.24,.39-.4,.83-.46,1.29-.04,.16-.04,.34,0,.5,.12-.59,.35-1.14,.66-1.65,.36-.53,.86-.94,1.45-1.19,.69-.32,1.48-.36,2.2-.09,.32,.18,.24,.54-.06,.77-.31,.22-.64,.4-.98,.55-.59,.28-1.2,.51-1.83,.7-1.08,.31-1.77,.39-1.77,.45Z"/>
                      </g>
                    </g>
                  </g>
                </g>
                <g id="Group_897" data-name="Group 897">
                  <g id="Group_896" data-name="Group 896">
                    <g id="Group_895" data-name="Group 895">
                      <g id="Group_894" data-name="Group 894">
                        <path id="Path_740" data-name="Path 740" class="cls-25" d="M214.75,615.87c.18-.41,.21-.87,.07-1.3-.11-.47-.33-.91-.65-1.28-.37-.52-.99-.81-1.63-.76-.38,.13-.58,.53-.47,.91,.07,.29,.21,.55,.4,.78,.29,.38,.62,.72,.99,1.01,.32,.3,.71,.51,1.13,.62,.03-.05-.4-.29-.97-.81-.33-.31-.63-.64-.89-1.01-.29-.36-.54-1.04-.09-1.17,.45-.1,.97,.31,1.29,.64,.3,.33,.52,.71,.65,1.13,.09,.41,.15,.82,.17,1.24Z"/>
                      </g>
                    </g>
                  </g>
                </g>
                <g id="Group_901" data-name="Group 901">
                  <g id="Group_900" data-name="Group 900">
                    <g id="Group_899" data-name="Group 899">
                      <g id="Group_898" data-name="Group 898">
                        <path id="Path_741" data-name="Path 741" class="cls-25" d="M183.7,617.37c.01,.06,.81-.17,2.11-.16,3.47,0,6.63,1.99,8.12,5.12,.57,1.17,.7,1.99,.77,1.97,.01-.19,0-.39-.06-.58-.11-.52-.27-1.02-.48-1.5-1.43-3.31-4.74-5.4-8.35-5.26-.53,.02-1.05,.09-1.56,.21-.19,.03-.38,.09-.55,.19Z"/>
                      </g>
                    </g>
                  </g>
                </g>
                <g id="Group_905" data-name="Group 905">
                  <g id="Group_904" data-name="Group 904">
                    <g id="Group_903" data-name="Group 903">
                      <g id="Group_902" data-name="Group 902">
                        <path id="Path_742" data-name="Path 742" class="cls-25" d="M198.04,621.29c2.81,.22,5.63-.07,8.33-.85-.02-.1-1.87,.22-4.16,.45s-4.17,.29-4.17,.39Z"/>
                      </g>
                    </g>
                  </g>
                </g>
                <g id="Group_909" data-name="Group 909">
                  <g id="Group_908" data-name="Group 908">
                    <g id="Group_907" data-name="Group 907">
                      <g id="Group_906" data-name="Group 906">
                        <path id="Path_743" data-name="Path 743" class="cls-25" d="M192.45,621.9c-.06,.08,.2,.38,.43,.78s.38,.77,.48,.76,.1-.47-.18-.93-.67-.68-.73-.6Z"/>
                      </g>
                    </g>
                  </g>
                </g>
                <g id="Group_913" data-name="Group 913">
                  <g id="Group_912" data-name="Group 912">
                    <g id="Group_911" data-name="Group 911">
                      <g id="Group_910" data-name="Group 910">
                        <path id="Path_744" data-name="Path 744" class="cls-25" d="M190.06,619.51c-.06,.08,.16,.35,.49,.62s.64,.42,.7,.35-.16-.35-.49-.62-.64-.42-.7-.35Z"/>
                      </g>
                    </g>
                  </g>
                </g>
                <g id="Group_917" data-name="Group 917">
                  <g id="Group_916" data-name="Group 916">
                    <g id="Group_915" data-name="Group 915">
                      <g id="Group_914" data-name="Group 914">
                        <path id="Path_745" data-name="Path 745" class="cls-25" d="M186.92,618.65c.03,.1,.41,.05,.84,.15s.76,.29,.83,.22-.21-.44-.75-.56-.96,.11-.92,.19Z"/>
                      </g>
                    </g>
                  </g>
                </g>
                <g id="Group_921" data-name="Group 921">
                  <g id="Group_920" data-name="Group 920">
                    <g id="Group_919" data-name="Group 919">
                      <g id="Group_918" data-name="Group 918">
                        <path id="Path_746" data-name="Path 746" class="cls-25" d="M184.71,618.32c-.02,.09,.15,.22,.4,.29s.47,.04,.49-.05-.15-.22-.4-.29-.47-.04-.49,.05Z"/>
                      </g>
                    </g>
                  </g>
                </g>
              </g>
            </g>
            <g id="Group_924" data-name="Group 924">
              <path id="Path_747" data-name="Path 747" class="cls-9" d="M191.7,165.74c-2.28-12.16-15.71-18.92-20.96-30.12-2.04-4.36-2.77-9.27-5.01-13.52-4.82-9.12-16.98-13.53-26.52-9.62l-.84,1.3c5.42,11.4,10.84,19.23,16.26,30.64,1.9,3.99,3.82,8.08,4.32,12.48s-.68,9.23-4.09,12.05c-2.72,2.26-6.44,2.93-9.37,4.91-4.48,3.01-6.56,8.83-5.99,14.2s3.43,10.28,7.07,14.27c3.5,3.83,9.04,7.12,13.65,4.74,2.33-1.2,3.77-3.56,5.49-5.54,3.52-4.05,8.4-6.64,12.73-9.81,8.29-6.05,15.15-15.89,13.26-25.98Z"/>
            </g>
            <g id="Group_951" data-name="Group 951">
              <g id="Group_947" data-name="Group 947">
                <g id="Group_940" data-name="Group 940">
                  <g id="Group_925" data-name="Group 925">
                    <path id="Path_748" data-name="Path 748" class="cls-21" d="M308.55,222.22c-3.04,2.78-19.65,16.72-19.65,16.72l-16.47-14.99c.43-1.23,4.46-8.15,4.93-9.89,.4-1.5,.54-3.05,.41-4.59-.08-1.92-.42-3.83-1.03-5.66-.72-1.62,.9-3.27,2.29-2.47s3.5,5.2,3.43,10.9,22.32-7.39,25.5-4.18l.59,14.16Z"/>
                  </g>
                  <g id="Group_927" data-name="Group 927">
                    <path id="Path_750" data-name="Path 750" class="cls-14" d="M166.89,199.83l54.68,65.43,50.2-45.39,21.89,21.36s-63.01,69.33-72.62,68.84-42.26-22.08-42.26-22.08l-11.88-88.16Z"/>
                  </g>
                  <g id="Group_931" data-name="Group 931">
                    <g id="Group_930" data-name="Group 930">
                      <g id="Group_928" data-name="Group 928">
                        <path id="Path_751" data-name="Path 751" class="cls-25" d="M290.97,190.09c-.45-.15-.94,.08-1.12,.52l-14.85,37.47c-.28,.7,.03,1.5,.71,1.82l17.65,8.41c.71,.34,1.56,.04,1.9-.67,0-.02,.02-.03,.02-.05l16.7-38.84c.31-.72-.03-1.56-.75-1.87-.03-.01-.06-.03-.1-.04l-20.15-6.75Z"/>
                      </g>
                      <g id="Group_929" data-name="Group 929">
                        <path id="Path_752" data-name="Path 752" class="cls-4" d="M290.49,192.8l-13.66,33.43,18.49,8.37,14-35.45-18.82-6.35Z"/>
                      </g>
                    </g>
                  </g>
                  <g id="Group_933" data-name="Group 933">
                    <g id="Group_932" data-name="Group 932">
                      <path id="Path_753" data-name="Path 753" class="cls-25" d="M285.16,250.97c-1.38-.78-2.69-1.71-3.88-2.76-6-4.78-11.5-10.14-16.43-16.01-1.08-1.17-2.04-2.44-2.86-3.81,1.18,1.06,2.28,2.2,3.29,3.42,1.99,2.15,4.76,5.09,7.96,8.21s6.21,5.81,8.41,7.74c1.25,.98,2.42,2.05,3.51,3.2Z"/>
                    </g>
                  </g>
                  <g id="Group_935" data-name="Group 935">
                    <g id="Group_934" data-name="Group 934">
                      <path id="Path_754" data-name="Path 754" class="cls-25" d="M269.45,226.26c.1,.09-.57,.63-.5,1.79,.03,.64,.33,1.23,.82,1.64,.97,.59,2.24,.27,2.83-.7,.2-.33,.3-.7,.29-1.09-.1-.63-.47-1.18-1-1.53-.97-.65-1.77-.34-1.8-.47-.02-.04,.14-.19,.51-.28,.54-.1,1.1-.02,1.58,.25,.76,.38,1.3,1.09,1.46,1.93,.14,1.52-.99,2.86-2.5,3-.65,.06-1.31-.12-1.84-.5-.64-.56-.98-1.39-.93-2.23,.02-.55,.22-1.07,.59-1.49,.26-.28,.48-.34,.5-.31Z"/>
                    </g>
                  </g>
                  <g id="Group_937" data-name="Group 937">
                    <g id="Group_936" data-name="Group 936">
                      <path id="Path_755" data-name="Path 755" class="cls-25" d="M219.41,284.36c-.44-.89-.72-1.85-.81-2.84-.78-4.73-.23-9.58,1.59-14.01,.31-.94,.79-1.82,1.42-2.58,.24,.1-1.78,4.14-2.37,9.57-.65,5.42,.42,9.81,.16,9.86Z"/>
                    </g>
                  </g>
                  <g id="Group_939" data-name="Group 939">
                    <g id="Group_938" data-name="Group 938">
                      <path id="Path_756" data-name="Path 756" class="cls-25" d="M227.2,283.87c-.73-.71-1.33-1.54-1.77-2.45-2.44-4.25-3.82-9.02-4.04-13.92-.12-1.01-.06-2.03,.18-3.02,.26,0,.21,4.61,1.8,9.99,1.54,5.39,4.05,9.27,3.83,9.4Z"/>
                    </g>
                  </g>
                </g>
                <g id="Group_941" data-name="Group 941">
                  <path id="Path_757" data-name="Path 757" class="cls-23" d="M290.81,199.03l-9.04,22.48,13.54,5.54,9.44-22.98-13.94-5.04Z"/>
                </g>
                <g id="Group_942" data-name="Group 942">
                  <path id="Rectangle_257" data-name="Rectangle 257" class="cls-22" d="M286.2,217.68l8.79,3.68c.37,.16,.55,.58,.39,.96l-.49,1.16c-.16,.37-.58,.55-.96,.39l-8.79-3.68c-.37-.16-.55-.58-.39-.96l.49-1.16c.16-.37,.58-.55,.96-.39h0Z"/>
                </g>
                <g id="Group_943" data-name="Group 943">
                  <rect id="Rectangle_258" data-name="Rectangle 258" class="cls-5" x="295.74" y="199.97" width="1.57" height="10.72" transform="translate(-.13 410.48) rotate(-69.37)"/>
                </g>
                <g id="Group_944" data-name="Group 944">
                  <rect id="Rectangle_259" data-name="Rectangle 259" class="cls-6" x="292.83" y="204.97" width="3.07" height="11.86" transform="translate(-6.74 412.05) rotate(-69.37)"/>
                </g>
                <g id="Group_945" data-name="Group 945">
                  <rect id="Rectangle_260" data-name="Rectangle 260" class="cls-6" x="291" y="209.58" width="3.07" height="11.86" transform="translate(-12.24 413.33) rotate(-69.37)"/>
                </g>
                <g id="Group_946" data-name="Group 946">
                  <path id="Path_758" data-name="Path 758" class="cls-21" d="M307.96,208.06c-2.55,.42-5.68,.67-8.23,1.09-.73,.06-1.44,.3-2.06,.69-.63,.42-.87,1.23-.58,1.93,.41,.73,1.41,.79,2.25,.77,1.88-.06,3.76-.12,5.64-.18-2.41,.11-4.79,.51-7.1,1.18-1.06,.36-2.24,1.06-2.26,2.18,.09,.99,.88,1.77,1.87,1.87,.98,.08,1.97,.1,2.96,.05,0,0,3.86,.06,4.03,.56-2.41-.02-5.59,.5-8,.72-.66,.06-.96,.96-1.12,1.6-.19,.66,.1,1.36,.7,1.68,.3,.11,.63,.14,.95,.11l9.34-.29"/>
                </g>
              </g>
              <g id="Group_950" data-name="Group 950">
                <g id="Group_948" data-name="Group 948">
                  <path id="Path_759" data-name="Path 759" class="cls-14" d="M147.54,195.92s11.37-1.34,19.34,3.9c7.21,4.74,32.46,77.14,31.49,98.63s1.75,59.36,6.18,74.98,7.76,151.01-27.08,215.44l-64.75-9.09,20.24-173.89-2.07-157.75,16.65-52.21Z"/>
                </g>
                <g id="Group_949" data-name="Group 949">
                  <path id="Path_760" data-name="Path 760" class="cls-11" d="M143.82,195.92s11.37-1.34,19.34,3.9c7.21,4.74,32.46,77.14,31.49,98.63s1.75,59.36,6.18,74.98,7.76,151.01-27.08,215.44l-59.18-9.09,14.67-173.89-2.07-157.75,16.65-52.21Z"/>
                </g>
              </g>
            </g>
            <g id="Group_952" data-name="Group 952">
              <path id="Path_761" data-name="Path 761" class="cls-2" d="M120,192.59s-35.61-3.84-26.09,47.06l9.15,53.55,58.15,35.18c7.85,2.12,1.18-36.61,13-54.45,4.43-6.69,4.82-11.69,4.43-14.78,1.12-11.67-8.23-18.96-9.56-30.76-1.46-17.1-1.4-26.57-8.84-28.48l-40.25-7.32"/>
            </g>
            <g id="Group_954" data-name="Group 954">
              <g id="Group_953" data-name="Group 953">
                <path id="Path_762" data-name="Path 762" class="cls-14" d="M169.76,224.34c-.6,2.46-.6,5.03,0,7.5,.69,2.66,1.74,5.22,3.12,7.6,1.75,2.94,3.27,6.01,4.54,9.18,2.07,5.96,2.15,12.43,.25,18.44-.57,1.8-1.33,3.54-2.27,5.18-.32,.62-.71,1.19-1.17,1.71,1.14-2.27,2.11-4.63,2.88-7.05,1.7-5.9,1.53-12.19-.47-17.99-1.26-3.14-2.74-6.18-4.43-9.1-1.38-2.45-2.39-5.09-3.02-7.83-.41-1.86-.44-3.79-.09-5.66,.1-.51,.24-1,.43-1.48,.13-.33,.22-.49,.24-.49Z"/>
              </g>
            </g>
            <g id="Group_990" data-name="Group 990">
              <g id="Group_989" data-name="Group 989">
                <g id="Group_988" data-name="Group 988">
                  <g id="Group_957" data-name="Group 957">
                    <g id="Group_956" data-name="Group 956">
                      <g id="Group_955" data-name="Group 955">
                        <path id="Path_763" data-name="Path 763" class="cls-21" d="M151.92,196.26c-.83-8.76-1.55-18-1.55-18,0,0,11.1-2.98,11.99-17.93,.85-14.26-3.46-39.09-3.46-39.09v-1.25c-16.89-5.02-36.88-4.83-47.18,9.31h0l7.96,71.04c.92,8.25,8.75,14.02,17.57,12.96h0c8.91-1.07,15.49-8.69,14.69-17.04Z"/>
                      </g>
                    </g>
                  </g>
                  <g id="Group_965" data-name="Group 965">
                    <g id="Group_960" data-name="Group 960">
                      <g id="Group_959" data-name="Group 959">
                        <g id="Group_958" data-name="Group 958">
                          <path id="Path_764" data-name="Path 764" class="cls-25" d="M158.88,139.27c.11,1.02-.62,1.94-1.63,2.08-.99,.18-1.93-.48-2.11-1.46,0-.02,0-.03,0-.05-.11-1.02,.61-1.94,1.63-2.09,.99-.18,1.93,.48,2.11,1.47,0,.02,0,.03,0,.05Z"/>
                        </g>
                      </g>
                    </g>
                    <g id="Group_964" data-name="Group 964">
                      <g id="Group_963" data-name="Group 963">
                        <g id="Group_962" data-name="Group 962">
                          <g id="Group_961" data-name="Group 961">
                            <path id="Path_765" data-name="Path 765" class="cls-25" d="M158.87,137.2c-.21,.27-1.75-.65-3.78-.44-2.03,.18-3.42,1.37-3.66,1.14-.12-.1,.07-.57,.68-1.1,.82-.7,1.83-1.12,2.9-1.22,1.06-.11,2.12,.12,3.04,.66,.68,.42,.93,.84,.83,.96Z"/>
                          </g>
                        </g>
                      </g>
                    </g>
                  </g>
                  <g id="Group_973" data-name="Group 973">
                    <g id="Group_968" data-name="Group 968">
                      <g id="Group_967" data-name="Group 967">
                        <g id="Group_966" data-name="Group 966">
                          <path id="Path_766" data-name="Path 766" class="cls-25" d="M137.76,142.02c.11,1.02-.62,1.94-1.63,2.08-.99,.18-1.93-.48-2.11-1.46,0-.02,0-.03,0-.05-.11-1.02,.61-1.95,1.63-2.09,.99-.18,1.93,.48,2.11,1.47,0,.02,0,.03,0,.05Z"/>
                        </g>
                      </g>
                    </g>
                    <g id="Group_972" data-name="Group 972">
                      <g id="Group_971" data-name="Group 971">
                        <g id="Group_970" data-name="Group 970">
                          <g id="Group_969" data-name="Group 969">
                            <path id="Path_767" data-name="Path 767" class="cls-25" d="M137.75,140.02c-.21,.27-1.75-.65-3.78-.44-2.03,.18-3.42,1.37-3.66,1.14-.12-.1,.07-.57,.68-1.1,.82-.7,1.83-1.12,2.9-1.22,1.06-.11,2.12,.12,3.04,.66,.67,.41,.93,.84,.83,.96Z"/>
                          </g>
                        </g>
                      </g>
                    </g>
                  </g>
                  <g id="Group_977" data-name="Group 977">
                    <g id="Group_976" data-name="Group 976">
                      <g id="Group_975" data-name="Group 975">
                        <g id="Group_974" data-name="Group 974">
                          <path id="Path_768" data-name="Path 768" class="cls-25" d="M146.61,154.36c1.04-.44,2.13-.75,3.24-.92,.51-.1,1-.26,1.05-.62-.01-.54-.18-1.06-.5-1.5-.61-1.21-1.25-2.47-1.92-3.8-2.68-5.41-4.68-9.89-4.46-9.99s2.57,4.2,5.26,9.61c.65,1.34,1.27,2.61,1.86,3.83,.39,.59,.55,1.31,.47,2.01-.12,.39-.4,.7-.78,.84-.28,.11-.57,.18-.87,.21-1.09,.25-2.22,.36-3.34,.33Z"/>
                        </g>
                      </g>
                    </g>
                  </g>
                  <g id="Group_980" data-name="Group 980">
                    <g id="Group_979" data-name="Group 979">
                      <g id="Group_978" data-name="Group 978">
                        <path id="Path_769" data-name="Path 769" class="cls-12" d="M150.38,178.26c-6.92,.79-13.92-.36-20.23-3.32,0,0,5.78,9.64,20.37,6.81l-.14-3.49Z"/>
                      </g>
                    </g>
                  </g>
                  <g id="Group_983" data-name="Group 983">
                    <g id="Group_982" data-name="Group 982">
                      <g id="Group_981" data-name="Group 981">
                        <path id="Path_770" data-name="Path 770" class="cls-22" d="M146.23,159.34c-.88-.91-2.18-1.3-3.42-1.04-.9,.17-1.69,.7-2.18,1.46-.49,.75-.46,1.72,.08,2.44,.74,.68,1.82,.84,2.73,.41,.93-.43,1.76-1.05,2.44-1.8,.21-.19,.39-.41,.52-.66,.13-.24,.1-.54-.08-.76"/>
                      </g>
                    </g>
                  </g>
                  <g id="Group_987" data-name="Group 987">
                    <g id="Group_986" data-name="Group 986">
                      <g id="Group_985" data-name="Group 985">
                        <g id="Group_984" data-name="Group 984">
                          <path id="Path_771" data-name="Path 771" class="cls-25" d="M140.77,156.35c.33-.05,.55,2.15,2.59,3.53s4.36,.91,4.41,1.21c.04,.13-.48,.48-1.47,.6-1.29,.15-2.59-.17-3.67-.89-1.04-.69-1.77-1.76-2.03-2.98-.18-.91,.02-1.48,.17-1.48Z"/>
                        </g>
                      </g>
                    </g>
                  </g>
                </g>
              </g>
            </g>
            <g id="Group_991" data-name="Group 991">
              <path id="Path_772" data-name="Path 772" class="cls-9" d="M82.19,396.41l-22.57,93.04s-26.93,111.44-27.78,114.37l-.85,3.47,37.94,2.86,65.69-206.7-52.42-7.05Z"/>
            </g>
            <g id="Group_992" data-name="Group 992">
              <path id="Path_773" data-name="Path 773" class="cls-9" d="M150.47,461.72c6.14,29.68,28.65,154.16,28.65,154.16l38.47-3.95-21.88-158.77c-.34-4.14-1.18-8.23-2.5-12.18l-35.96-107.82-67.68-43.03c-.67,.04-10.96,27.78-9.47,47.05,.72,8.62,3.7,16.89,8.64,23.99,4.3,6.28,10.29,15.04,11.63,17.06,2.14,3.24,50.11,83.48,50.11,83.48Z"/>
            </g>
            <g id="Group_1005" data-name="Group 1005">
              <g id="Group_993" data-name="Group 993">
                <path id="Path_774" data-name="Path 774" class="cls-14" d="M73.55,327.52c-1.86,6.7-3.39,13.48-4.58,20.34-4.33,24.92-15.32,85.59-22.45,101.63-9.04,20.34-23.73,97.17-19.21,111.29s102.81,28.25,102.81,28.25c0,0,5.65-92.08,11.3-115.25s17.51-74.01,19.21-103.95,1.13-81.92-8.48-114.12-31.69-66.02-31.69-66.02c0,0-18.88,5.2-25.31,12.69,0,0-7.86,9.63-8.01,18.8s-4.35,52.76-7.2,78.09c-.81,7.27-4.01,19.64-6.39,28.24Z"/>
              </g>
              <g id="Group_995" data-name="Group 995">
                <g id="Group_994" data-name="Group 994">
                  <path id="Path_775" data-name="Path 775" class="cls-25" d="M160.72,368.33c-.04-.15-.06-.3-.06-.46-.02-.35-.05-.8-.08-1.35-.06-1.25-.15-2.98-.25-5.19-.24-6.36-.85-12.7-1.83-18.98-.72-4.32-1.87-8.56-3.44-12.65-1.86-4.67-4.41-9.03-7.58-12.93-3.27-4.19-7.14-8.24-10.88-12.7-1.92-2.26-3.72-4.62-5.38-7.08-1.69-2.57-3.1-5.31-4.18-8.19-2.2-5.78-2.9-12.21-.98-17.87,.89-2.87,2.75-5.19,4.15-7.54,.72-1.14,1.27-2.37,1.65-3.66,.16-.61,.21-1.25,.15-1.88-.08-.61-.3-1.19-.64-1.71-.73-1.01-1.77-1.76-2.96-2.12-1.18-.46-2.44-.78-3.63-1.34-1.21-.53-2.24-1.39-2.98-2.49-.67-1.07-1.1-2.26-1.28-3.51-.28-2.31-.22-4.65,.18-6.94,.31-2.18,.62-4.27,.91-6.27,1.17-7.94,2.11-14.38,2.78-18.91,.34-2.18,.61-3.9,.8-5.13l.23-1.33c.02-.15,.05-.3,.1-.45,.01,.15,0,.31-.02,.46-.04,.35-.09,.79-.15,1.34-.15,1.24-.37,2.96-.64,5.16-.6,4.53-1.46,10.99-2.52,18.95-.27,2-.55,4.09-.85,6.28-.37,2.23-.42,4.5-.14,6.74,.17,1.15,.57,2.25,1.19,3.23,.67,.98,1.6,1.75,2.69,2.22,1.11,.51,2.35,.83,3.59,1.3,1.34,.41,2.52,1.26,3.33,2.4,.4,.61,.66,1.31,.76,2.03,.07,.72,.01,1.45-.16,2.16-.39,1.37-.97,2.68-1.72,3.88-1.44,2.44-3.23,4.66-4.06,7.4-1.83,5.42-1.17,11.66,.99,17.32,2.09,5.75,5.7,10.62,9.41,15.04s7.58,8.51,10.86,12.75c3.2,3.97,5.76,8.4,7.62,13.15,1.56,4.14,2.7,8.43,3.38,12.8,.93,6.32,1.46,12.68,1.57,19.07,.04,2.21,.07,3.95,.1,5.2v1.35c0,.15,0,.31-.03,.46Z"/>
                </g>
              </g>
              <g id="Group_997" data-name="Group 997">
                <g id="Group_996" data-name="Group 996">
                  <path id="Path_776" data-name="Path 776" class="cls-25" d="M148.18,380.91s.09-.26,.47-.5c.56-.33,1.22-.45,1.86-.33,1.02,.15,1.85,.89,2.13,1.88,.48,1.49-.34,3.08-1.83,3.56-1,.32-2.09,.06-2.84-.67-.76-.69-1.04-1.78-.7-2.75,.19-.62,.61-1.15,1.17-1.48,.4-.22,.65-.21,.67-.17-.61,.45-1.05,1.09-1.27,1.81-.19,.74,.06,1.53,.64,2.02,.84,.79,2.16,.74,2.95-.1,.51-.54,.69-1.32,.47-2.03-.18-.75-.77-1.32-1.51-1.5-.74-.14-1.51-.06-2.2,.25Z"/>
                </g>
              </g>
              <g id="Group_999" data-name="Group 999">
                <g id="Group_998" data-name="Group 998">
                  <path id="Path_777" data-name="Path 777" class="cls-25" d="M137.66,435.67s.09-.26,.47-.5c.56-.33,1.22-.45,1.86-.33,1.02,.15,1.85,.89,2.13,1.88,.48,1.49-.34,3.08-1.83,3.56-1,.32-2.09,.06-2.84-.67-.76-.69-1.04-1.78-.7-2.75,.19-.62,.61-1.15,1.17-1.48,.4-.22,.65-.21,.67-.17-.61,.45-1.05,1.09-1.27,1.81-.19,.74,.06,1.53,.64,2.02,.84,.79,2.16,.74,2.95-.1,.51-.54,.69-1.32,.47-2.03-.18-.75-.77-1.33-1.51-1.5-.74-.15-1.51-.06-2.2,.25Z"/>
                </g>
              </g>
              <g id="Group_1004" data-name="Group 1004">
                <g id="Group_1001" data-name="Group 1001">
                  <g id="Group_1000" data-name="Group 1000">
                    <path id="Path_778" data-name="Path 778" class="cls-25" d="M137.32,367.16c0,.18,0,.36-.02,.53-.04,.4-.08,.91-.14,1.56-.16,1.42-.37,3.43-.65,5.98-.61,5.19-1.52,12.7-2.92,21.95-.7,4.62-1.52,9.68-2.65,15.07-.53,2.82-1.3,5.58-2.3,8.27-.14,.36-.3,.7-.49,1.04-.22,.34-.49,.65-.79,.91-.59,.52-1.25,.94-1.96,1.27-1.41,.64-2.88,1.15-4.39,1.51-6.36,1.33-12.82,2.06-19.32,2.19-6.95,.29-13.92,.2-20.86-.25-.29-.02-.58-.06-.88-.1-.41-.07-.77-.33-.96-.7-.28-.57-.45-1.18-.5-1.8-.12-1.15-.15-2.32-.1-3.48,.08-2.29,.3-4.53,.55-6.75,.52-4.43,1.2-8.73,1.91-12.92,1.44-8.36,3.01-16.22,4.56-23.43l.06-.26,.26-.02c12.7-1.1,25.28-3.28,37.61-6.53,4.47-1.18,7.95-2.23,10.32-2.95l2.74-.84c.61-.18,.91-.27,.9-.26-.08,.04-.16,.07-.25,.1l-.69,.26c-.62,.22-1.46,.55-2.63,.95-2.35,.8-5.82,1.91-10.28,3.15-12.32,3.4-24.92,5.69-37.66,6.84l.32-.28c-1.52,7.2-3.06,15.06-4.48,23.41-.7,4.17-1.37,8.47-1.89,12.88-.25,2.2-.47,4.43-.54,6.68-.05,1.12-.01,2.24,.1,3.35,.04,.52,.17,1.02,.39,1.49,.13,.2,.19,.27,.36,.29,.27,.04,.55,.07,.84,.09,6.91,.45,13.83,.53,20.75,.26,6.44-.11,12.85-.82,19.16-2.12,1.46-.34,2.88-.83,4.25-1.44,1.33-.48,2.39-1.52,2.91-2.84,.99-2.63,1.76-5.35,2.29-8.11,1.15-5.36,2-10.41,2.74-15.02,1.47-9.23,2.47-16.72,3.18-21.9,.35-2.55,.62-4.55,.81-5.96,.09-.64,.17-1.16,.22-1.55,.06-.32,.1-.51,.1-.52Z"/>
                  </g>
                </g>
                <g id="Group_1003" data-name="Group 1003">
                  <g id="Group_1002" data-name="Group 1002">
                    <path id="Path_779" data-name="Path 779" class="cls-25" d="M136.3,378.75c-.6,.39-1.24,.72-1.9,.98-1.24,.59-3.07,1.36-5.37,2.22-12.04,4.46-24.82,6.59-37.66,6.27-2.46-.07-4.44-.2-5.8-.36-.71-.03-1.42-.14-2.11-.31,.71-.08,1.42-.08,2.13-.01,1.37,.06,3.35,.1,5.79,.09,12.74,0,25.4-2.11,37.46-6.23,2.31-.79,4.17-1.47,5.45-1.96,.65-.29,1.33-.52,2.02-.68Z"/>
                  </g>
                </g>
              </g>
            </g>
            <g id="Group_1015" data-name="Group 1015">
              <g id="Group_1007" data-name="Group 1007">
                <g id="Group_1006" data-name="Group 1006">
                  <path id="Path_780" data-name="Path 780" class="cls-2" d="M47.13,333.93s.03-.26,.14-.75c.12-.53,.28-1.25,.48-2.18,.46-1.95,1.12-4.76,1.97-8.36,1.75-7.25,4.4-17.71,7.85-30.58,1.75-6.44,3.65-13.48,5.7-21.04,2.07-7.56,4.24-15.65,6.83-24.08,2.65-8.85,5.93-17.5,9.8-25.89,2.09-4.43,4.44-8.72,7.05-12.86,1.3-2.16,2.76-4.2,4.39-6.12,1.65-2,3.69-3.63,6-4.81,2.39-1.19,5.14-1.4,7.68-.59,2.45,.86,4.58,2.43,6.15,4.49,3.18,4.09,3.96,9.24,4.42,13.97,.81,9.56,1.6,18.78,2.34,27.56,1.47,17.56,2.79,33.37,3.9,46.66,1.08,13.26,1.95,24,2.56,31.46,.28,3.69,.5,6.56,.65,8.56,.06,.95,.11,1.69,.15,2.23,.03,.5,.02,.76,.02,.76,0,0-.05-.25-.11-.76-.06-.54-.13-1.27-.23-2.22-.19-1.99-.46-4.86-.81-8.54-.67-7.46-1.63-18.2-2.82-31.44-1.16-13.29-2.54-29.1-4.08-46.65-.76-8.78-1.56-17.99-2.39-27.55-.46-4.7-1.26-9.69-4.26-13.54-1.46-1.94-3.47-3.4-5.75-4.22-2.34-.74-4.88-.54-7.07,.55-2.21,1.13-4.16,2.7-5.73,4.61-1.6,1.89-3.04,3.9-4.32,6.02-2.59,4.11-4.94,8.37-7.01,12.76-3.87,8.35-7.14,16.96-9.8,25.77-2.61,8.41-4.8,16.49-6.9,24.04-2.08,7.55-4.03,14.59-5.8,21.01-3.52,12.85-6.26,23.29-8.1,30.51-.91,3.58-1.63,6.38-2.12,8.32-.24,.92-.43,1.64-.56,2.16-.13,.49-.22,.73-.22,.73Z"/>
                </g>
              </g>
              <g id="Group_1014" data-name="Group 1014">
                <g id="Group_1008" data-name="Group 1008">
                  <path id="Path_781" data-name="Path 781" class="cls-9" d="M43.22,328.45c-.62,2.48-12.18,68.22-12.18,68.22l85.96,2.78,11.83-68.18-85.61-2.83Z"/>
                </g>
                <g id="Group_1010" data-name="Group 1010">
                  <g id="Group_1009" data-name="Group 1009">
                    <path id="Path_782" data-name="Path 782" class="cls-14" d="M127.96,332.53c-.23,.22-.49,.42-.77,.59-.52,.36-1.3,.88-2.32,1.53-2.03,1.3-5.01,3.13-8.76,5.26s-8.28,4.57-13.44,7.02c-2.6,1.21-5.28,2.49-8.25,3.56-3.1,1.01-6.34,1.48-9.59,1.4-6.26-.28-12.38-1.86-17.99-4.65-4.55-2.26-8.83-5.03-12.74-8.28-3.36-2.72-5.9-5.13-7.64-6.8-.86-.84-1.53-1.5-1.96-1.97-.24-.22-.46-.46-.64-.73,.27,.17,.53,.38,.76,.61l2.07,1.85c1.8,1.6,4.39,3.93,7.78,6.58,3.92,3.14,8.18,5.84,12.7,8.04,5.52,2.7,11.54,4.24,17.68,4.52,3.16,.08,6.31-.38,9.32-1.34,2.87-1.02,5.61-2.3,8.18-3.48,5.15-2.4,9.7-4.79,13.48-6.84s6.8-3.81,8.88-5.02l2.4-1.4c.27-.18,.56-.33,.86-.45Z"/>
                  </g>
                </g>
                <g id="Group_1012" data-name="Group 1012">
                  <g id="Group_1011" data-name="Group 1011">
                    <path id="Path_783" data-name="Path 783" class="cls-14" d="M122.7,335.46c.23,.04-2.08,14.36-5.14,31.98s-5.74,31.88-5.96,31.84,2.08-14.36,5.14-31.98,5.74-31.87,5.96-31.84Z"/>
                  </g>
                </g>
                <g id="Group_1013" data-name="Group 1013">
                  <path id="Path_784" data-name="Path 784" class="cls-14" d="M82.26,349.32c-.23,2.13-.46,4.27-.69,6.4-.11,.67-.1,1.36,.03,2.02,.13,.91,.97,1.55,1.89,1.42,.62-.09,1.14-.51,1.35-1.11,.31-.73,.47-1.51,.46-2.3l.37-6.86-2.82,.02"/>
                </g>
              </g>
            </g>
            <g id="Group_1035" data-name="Group 1035">
              <g id="Group_1021" data-name="Group 1021">
                <g id="Group_1016" data-name="Group 1016">
                  <path id="Path_785" data-name="Path 785" class="cls-14" d="M99.98,198.38c6.98-2.34,12.81,6.72,13.62,14.03,.83,8.43,.99,16.91,.48,25.36-1.27,25.04-12.6,49-12.6,49l71.89,10.74-2.64,27.65-90.91-9.75c-11.83-1.26-20.41-11.88-19.15-23.71,.15-1.37,.42-2.72,.82-4.03,8.12-26.41,21.4-64.5,24.39-70.82,4.02-8.5,4.47-15.26,14.1-18.48Z"/>
                </g>
                <g id="Group_1018" data-name="Group 1018">
                  <g id="Group_1017" data-name="Group 1017">
                    <path id="Path_786" data-name="Path 786" class="cls-25" d="M76.39,314.77c.16,0,.31,.01,.47,.04,.35,.05,.79,.11,1.37,.19l5.27,.78c4.6,.64,11.3,1.58,19.7,2.56,16.81,1.99,40.43,4.35,67.56,6.44l-.42,.36c.84-8.8,1.72-18.08,2.62-27.61v-.04l.35,.45-71.87-10.82-.39-.06,.12-.37c4.68-14.46,8.26-26.43,10.39-34.85,1.07-4.21,1.82-7.51,2.29-9.77l.53-2.58c.12-.58,.21-.88,.21-.88,0,0-.02,.31-.11,.9s-.21,1.46-.43,2.6c-.41,2.27-1.1,5.6-2.12,9.82-2.02,8.46-5.51,20.47-10.12,34.96l-.27-.43,71.91,10.67,.39,.06-.04,.39v.04c-.91,9.53-1.8,18.81-2.65,27.61l-.04,.4-.39-.03c-27.15-2.13-50.76-4.59-67.56-6.72-8.4-1.04-15.09-2.07-19.68-2.8l-5.25-.92-1.36-.26c-.16-.02-.31-.06-.46-.11Z"/>
                  </g>
                </g>
                <g id="Group_1020" data-name="Group 1020">
                  <g id="Group_1019" data-name="Group 1019">
                    <path id="Path_787" data-name="Path 787" class="cls-25" d="M156.57,324.02c-.23-.02,.18-6.44,.92-14.35s1.51-14.29,1.74-14.27-.18,6.44-.92,14.35-1.51,14.29-1.74,14.27Z"/>
                  </g>
                </g>
              </g>
              <g id="Group_1023" data-name="Group 1023">
                <g id="Group_1022" data-name="Group 1022">
                  <path id="Path_788" data-name="Path 788" class="cls-25" d="M165.72,300.11s.19-.13,.54-.07c.51,.11,.95,.41,1.24,.83,.49,.67,.53,1.56,.12,2.27-.51,.88-1.52,1.35-2.53,1.18-.98-.23-1.74-1.03-1.91-2.03-.14-.79,.15-1.6,.76-2.13,1.03-.87,1.93-.57,1.88-.49,.02,.13-.77,.11-1.47,.9-.39,.42-.55,1.01-.42,1.57,.15,.67,.66,1.19,1.32,1.37,.67,.1,1.34-.2,1.71-.76,.31-.47,.32-1.07,.04-1.56-.5-.92-1.31-.96-1.28-1.08Z"/>
                </g>
              </g>
              <g id="Group_1034" data-name="Group 1034">
                <g id="Group_1032" data-name="Group 1032">
                  <g id="Group_1025" data-name="Group 1025">
                    <g id="Group_1024" data-name="Group 1024">
                      <path id="Path_789" data-name="Path 789" class="cls-22" d="M188.86,289.45l3.29,34.06h16.6l3.98-34.06h-23.86Z"/>
                    </g>
                  </g>
                  <g id="Group_1027" data-name="Group 1027">
                    <g id="Group_1026" data-name="Group 1026">
                      <path id="Path_790" data-name="Path 790" class="cls-19" d="M188.86,285.05c-1.02,1.28-1.57,2.87-1.56,4.5h26.97c.27-1.67-.31-3.36-1.56-4.5h-23.86Z"/>
                    </g>
                  </g>
                  <g id="Group_1029" data-name="Group 1029">
                    <g id="Group_1028" data-name="Group 1028">
                      <path id="Path_791" data-name="Path 791" class="cls-19" d="M191.94,281.93l-.91,3.37,20.36,.15-1.34-3.56-18.1,.04Z"/>
                    </g>
                  </g>
                  <g id="Group_1031" data-name="Group 1031">
                    <g id="Group_1030" data-name="Group 1030">
                      <path id="Path_792" data-name="Path 792" class="cls-19" d="M188.52,297.98c0,.32,1.98,17.14,1.98,17.14h20.29l1.93-17.15h-24.2Z"/>
                    </g>
                  </g>
                </g>
                <g id="Group_1033" data-name="Group 1033">
                  <path id="Path_793" data-name="Path 793" class="cls-21" d="M189.78,294.97l-.52,5.7,19.65,.46s0,6.63-1.99,8.62c0,0,1.99,3.98-.22,6.18s-3.53,1.55-3.53,1.55c0,0,.88,4.42-1.32,5.52s-30.85-.61-30.85-.61l1.76-18.44,6.4-.57c.22-6.1,6.55-9.13,10.63-8.42Z"/>
                </g>
              </g>
            </g>
            <g id="Group_1036" data-name="Group 1036">
              <path id="Path_794" data-name="Path 794" class="cls-9" d="M164.93,121.38c-1.08-3.3-3.3-6.1-6.26-7.91-2.02-1.15-4.35-1.63-6.65-1.37l.02-.05-.04-.48c-2.14-3.83-6.36-4.66-10.71-3.94-4.33,.72-8.64,3.91-12.52,5.98-5.24,2.79-10.26,5.99-15.27,9.19-4.16,2.65-8.43,5.41-11.3,9.43-3.03,4.29-4.22,9.61-3.29,14.78,1.03,5.57,4.47,11.22,2.43,16.5-1.36,3.52-4.82,5.73-7.09,8.75-3.54,4.7-3.82,11.75-.3,16.47,2.31,3.1,5.87,4.98,9.1,7.11,5.14,3.39,9.74,7.65,15.27,10.36s12.53,3.6,17.62,.14c5.24-3.56,6.92-10.74,5.98-17.01s-3.96-12-6.39-17.86c-3.16-7.63-5.35-15.63-6.52-23.81-.47-3.26-.73-6.77,.83-9.67,1.4-2.61,4.01-4.28,6.37-6.05,5.56-4.2,10.21-9.5,13.63-15.57,1.18,2.94,3.04,5.55,5.44,7.62,3.21,2.99,6.81,5.54,10.7,7.57,.36-3.43,0-6.89-1.06-10.17Z"/>
            </g>
          </g>
        </g>
        <g id="Plant-2">
          <g id="Group_1051" data-name="Group 1051">
            <g id="Group_1038" data-name="Group 1038">
              <path id="Path_795" data-name="Path 795" class="cls-14" d="M666.27,593.45c-1.06-4.21,1.72-8.41,4.82-11.44s6.82-5.74,8.44-9.76c2.64-6.52-.81-14.99,3.66-20.42,2.63-3.19,7.32-4.24,9.66-7.65,1.23-1.79,1.63-3.99,2.12-6.11,2.53-10.84,7.93-20.8,15.62-28.84,.46,9.67-1.69,19.29-6.22,27.85-1.82,3.42-4.05,6.74-4.66,10.56-1,6.2,2.42,12.62,.87,18.71-1.79,6.96-9.64,11.58-10.05,18.76-.35,6.07,4.91,11.42,4.48,17.48-.33,2.58-1.27,5.04-2.74,7.18-4.73,7.77-11.66,13.11-22.1,12.87l-12.8,.38,8.9-29.57Z"/>
            </g>
            <g id="Group_1050" data-name="Group 1050">
              <g id="Group_1045" data-name="Group 1045">
                <g id="Group_1042" data-name="Group 1042">
                  <g id="Group_1041" data-name="Group 1041">
                    <path id="Path_797" data-name="Path 797" class="cls-25" d="M654.78,623.34c-1.17,.17-2.36,.14-3.52-.1-1.42-.22-2.81-.58-4.15-1.07-1.85-.65-3.58-1.61-5.12-2.84-.92-.75-1.65-1.72-2.1-2.83-.38-1.24-.58-2.53-.58-3.83-.02-1.38-.11-2.77-.28-4.14-.24-1.46-.76-2.86-1.54-4.12-1.49-2.66-3.98-5.18-4.77-8.78-.86-3.55-.2-7.37,.41-11.21s1.22-8.01-.23-12.02c-1.35-4.01-4.14-7.64-5.51-12.16-1.37-4.57-.69-9.46-.96-14.3-.08-2.45-.63-4.87-1.63-7.11-1.02-2.27-2.45-4.41-3.55-6.8-2.24-4.83-2.61-10.3-3.2-15.66-.29-2.7-.58-5.43-.87-8.18-.17-2.77-.63-5.52-1.38-8.19-.85-2.7-1.86-5.35-3.02-7.94-.6-1.34-1.09-2.72-1.46-4.14-.21-1.46-.34-2.93-.39-4.4-.12-2.96,0-5.92,.39-8.86,.37-2.95,.91-5.88,1.25-8.83l.06-.51,.07-.59,.53,.27c2.71,1.4,5.05,3.4,6.86,5.85,1.76,2.4,3.17,5.03,4.19,7.83,2.11,5.51,2.84,11.27,3.89,16.78,1.02,5.5,2.38,10.92,5.17,15.5,1.39,2.29,3.07,4.38,4.55,6.61,1.57,2.17,2.64,4.67,3.13,7.31,.73,5.42-2.28,10.15-1.69,14.95,.28,2.36,1.07,4.62,2.3,6.65,1.15,2.05,2.5,3.95,3.79,5.87,1.31,1.87,2.45,3.85,3.4,5.92,.89,2.03,1.41,4.21,1.54,6.42,.29,4.32-.35,8.41-.05,12.27,.33,3.68,1.39,7.26,3.1,10.53,1.53,3.16,3.23,6.01,4.66,8.78,.71,1.33,1.35,2.69,1.92,4.09,.51,1.31,.88,2.67,1.1,4.05,.37,2.42,.38,4.88,.05,7.3-.36,3.38-1.64,6.6-3.71,9.29-.31,.4-.66,.77-1.04,1.12-.26,.27-.54,.5-.84,.71-.48,.35-.73,.51-.73,.51,.91-.72,1.75-1.54,2.49-2.44,1.99-2.7,3.21-5.89,3.52-9.23,.3-2.39,.26-4.82-.12-7.2-.23-1.35-.6-2.68-1.11-3.96-.54-1.32-1.2-2.67-1.93-4.03-1.44-2.74-3.16-5.59-4.73-8.77-1.76-3.33-2.85-6.97-3.21-10.72-.32-3.95,.3-8.05,0-12.27-.13-2.14-.64-4.24-1.51-6.2-.94-2.03-2.07-3.97-3.36-5.8-1.28-1.9-2.65-3.81-3.84-5.9-1.29-2.11-2.1-4.47-2.4-6.93-.59-5.11,2.4-9.88,1.66-14.91-.48-2.53-1.51-4.91-3.03-6.99-1.45-2.19-3.14-4.28-4.57-6.63-2.88-4.72-4.26-10.24-5.29-15.76-1.05-5.54-1.79-11.24-3.86-16.64-.99-2.72-2.36-5.28-4.08-7.62-1.73-2.35-3.97-4.27-6.57-5.61l.6-.33-.06,.52c-.34,2.99-.89,5.92-1.25,8.84-.38,2.89-.51,5.81-.39,8.72,.05,1.43,.17,2.85,.37,4.27,.36,1.37,.83,2.71,1.41,4,1.17,2.61,2.18,5.29,3.04,8.02,.75,2.72,1.22,5.51,1.39,8.33,.29,2.76,.58,5.49,.86,8.19,.58,5.38,.95,10.76,3.11,15.42,1.07,2.32,2.49,4.47,3.54,6.82,1.03,2.33,1.6,4.83,1.67,7.38,.25,4.94-.42,9.76,.89,14.14,1.3,4.36,4.07,8.01,5.46,12.14,1.49,4.18,.84,8.5,.2,12.32-.64,3.85-1.28,7.59-.48,11,.72,3.44,3.14,5.94,4.66,8.67,.79,1.31,1.32,2.77,1.56,4.29,.16,1.39,.24,2.79,.25,4.19,0,1.26,.17,2.51,.52,3.72,.42,1.05,1.1,1.98,1.97,2.7,1.5,1.22,3.18,2.18,4.99,2.85,1.32,.51,2.7,.89,4.09,1.14,.86,.16,1.73,.25,2.6,.27,.59-.02,.9,0,.9,0Z"/>
                  </g>
                </g>
                <g id="Group_1044" data-name="Group 1044">
                  <g id="Group_1043" data-name="Group 1043">
                    <path id="Path_798" data-name="Path 798" class="cls-25" d="M615.21,472.38c.06,.12,.1,.25,.12,.39l.28,1.15c.25,1.01,.54,2.53,1.01,4.43,.49,1.9,1.64,4.05,2.62,6.7,1.02,2.63,2.05,5.67,2.99,9.09s1.8,7.21,2.68,11.28c.91,4.06,1.82,8.41,4.02,12.52,1.04,2.08,2.21,4.2,3.13,6.5,.91,2.37,1.51,4.84,1.8,7.35,.62,5.21,1.51,10.38,2.67,15.49,2.51,10.5,4.89,20.5,7.07,29.61,2.23,9.08,4.23,17.25,5.93,24.15,1.65,6.83,2.98,12.38,3.93,16.3,.43,1.88,.78,3.36,1.03,4.44,.1,.47,.18,.85,.25,1.16,.04,.13,.06,.26,.06,.4-.06-.12-.11-.25-.14-.38l-.33-1.14c-.29-1.07-.68-2.54-1.18-4.4l-4.18-16.23c-1.74-6.88-3.81-15.04-6.1-24.1-2.2-9.11-4.61-19.11-7.14-29.61-1.17-5.13-2.06-10.33-2.67-15.56-.28-2.45-.86-4.86-1.73-7.17-.89-2.25-2.04-4.35-3.08-6.45-2.23-4.19-3.14-8.67-4.01-12.71-.85-4.07-1.66-7.86-2.57-11.27s-1.89-6.45-2.86-9.08c-.93-2.64-2.04-4.82-2.5-6.78-.43-1.95-.67-3.46-.86-4.48-.08-.47-.14-.86-.2-1.17-.03-.14-.04-.28-.03-.41Z"/>
                  </g>
                </g>
              </g>
              <g id="Group_1049" data-name="Group 1049">
                <g id="Group_1046" data-name="Group 1046">
                  <path id="Path_799" data-name="Path 799" class="cls-22" d="M652.52,623.36c-8.33-5.01-10.64-20.11-7.1-29.16s9.68-17.31,10.68-26.98c.77-7.43-1.63-15.08,.15-22.34,2.39-9.8,12.02-17.34,11.96-27.43-.03-5.66-3.22-11-2.93-16.65,.35-6.93,5.71-12.4,9.04-18.49,5.1-9.32,5.49-20.38,7.28-30.85s5.85-21.68,15.17-26.78c1.32,8.91,3.63,15.02,2.83,27.07-.29,4.33-5.37,12.59-6.1,22.08-.44,5.67-.76,11.35-1.14,17.02-.37,5.52-.76,11.14-2.77,16.3-1.54,3.95-4,7.54-5.15,11.62-2.16,7.68,.58,16.03-1.18,23.81-1.49,6.6-6.09,12.25-7.06,18.94-1.36,9.4,4.67,19.21,1.5,28.16-1.57,4.44-5.25,8-6.32,12.59-.83,3.56,.03,7.34-.72,10.92-1.21,5.77-12.25,10.19-18.13,9.8"/>
                </g>
                <g id="Group_1048" data-name="Group 1048">
                  <g id="Group_1047" data-name="Group 1047">
                    <path id="Path_800" data-name="Path 800" class="cls-25" d="M694.4,433.49c0,.17,0,.34-.04,.5-.05,.37-.12,.86-.2,1.46-.2,1.29-.42,3.17-.87,5.61-.48,2.45-1.76,5.21-2.79,8.53-1.08,3.32-2.17,7.14-3.13,11.43s-1.8,9.02-2.67,14.13c-.89,5.06-1.81,10.66-4.38,15.96-1.19,2.67-2.52,5.33-3.52,8.17-.98,2.92-1.59,5.95-1.81,9.02-.5,6.53-1.36,13.02-2.56,19.45-2.64,13.17-5.14,25.72-7.43,37.14-2.4,11.38-4.57,21.62-6.39,30.25-1.84,8.56-3.33,15.51-4.38,20.38-.52,2.36-.94,4.21-1.23,5.53-.14,.59-.25,1.07-.34,1.43-.03,.17-.08,.33-.14,.48,0-.17,.02-.34,.06-.5,.07-.37,.15-.85,.26-1.45,.26-1.33,.62-3.19,1.08-5.56,.98-4.88,2.39-11.85,4.12-20.43,1.77-8.64,3.88-18.9,6.22-30.29,2.26-11.42,4.75-23.96,7.36-37.13,1.2-6.41,2.06-12.89,2.57-19.39,.24-3.13,.87-6.22,1.88-9.2,1.03-2.9,2.38-5.58,3.57-8.22,2.55-5.23,3.46-10.69,4.39-15.77,.9-5.09,1.76-9.85,2.78-14.14,1-4.29,2.13-8.13,3.26-11.44,1.08-3.34,2.4-6.07,2.91-8.46,.49-2.39,.77-4.3,1.02-5.57,.12-.6,.21-1.08,.28-1.45,.02-.17,.06-.33,.12-.48Z"/>
                  </g>
                </g>
              </g>
            </g>
          </g>
        </g>
      </g>
    </g>
  </g>
</svg>