<?xml version="1.0" encoding="UTF-8"?>
<svg id="Layer_2" data-name="Layer 2" xmlns="http://www.w3.org/2000/svg" xmlns:xlink="http://www.w3.org/1999/xlink" viewBox="0 0 819.53 635.01">
  <defs>
    <style>
      .cls-1, .cls-2, .cls-3, .cls-4, .cls-5, .cls-6, .cls-7, .cls-8 {
        isolation: isolate;
      }

      .cls-1, .cls-4, .cls-9 {
        fill: #7594b3;
      }

      .cls-1, .cls-5, .cls-7 {
        opacity: .35;
      }

      .cls-10 {
        fill: url(#linear-gradient-2);
      }

      .cls-11 {
        fill: #fff;
      }

      .cls-12 {
        fill: #3d3d3d;
      }

      .cls-13 {
        fill: url(#New_Gradient_Swatch_1-9);
      }

      .cls-14 {
        fill: #202a45;
      }

      .cls-15 {
        opacity: .2;
        stroke: #fff;
      }

      .cls-15, .cls-16, .cls-17, .cls-18, .cls-19, .cls-6, .cls-20 {
        stroke-miterlimit: 10;
      }

      .cls-15, .cls-16, .cls-18, .cls-19, .cls-6, .cls-20 {
        fill: none;
      }

      .cls-21 {
        fill: url(#New_Gradient_Swatch_1-10);
      }

      .cls-2 {
        opacity: .03;
      }

      .cls-2, .cls-17, .cls-22 {
        fill: #2c2c2c;
      }

      .cls-16 {
        stroke-dasharray: 0 4;
      }

      .cls-16, .cls-19 {
        stroke: #475d75;
      }

      .cls-23 {
        fill: url(#New_Gradient_Swatch_1-3);
      }

      .cls-24 {
        fill: url(#New_Gradient_Swatch_1-5);
      }

      .cls-3, .cls-25 {
        fill: #e6e1e7;
      }

      .cls-17 {
        stroke: #000;
      }

      .cls-17, .cls-18, .cls-6, .cls-20 {
        stroke-width: .5px;
      }

      .cls-4 {
        opacity: .55;
      }

      .cls-26 {
        fill: url(#New_Gradient_Swatch_1-7);
      }

      .cls-27 {
        fill: #fc8975;
      }

      .cls-28 {
        fill: #475d75;
      }

      .cls-5 {
        fill: url(#linear-gradient-5);
      }

      .cls-29 {
        fill: url(#New_Gradient_Swatch_1-6);
      }

      .cls-30 {
        fill: url(#New_Gradient_Swatch_1-11);
      }

      .cls-31 {
        fill: #ffbe9d;
      }

      .cls-32 {
        fill: #75a1e9;
      }

      .cls-18 {
        stroke: #4a578e;
      }

      .cls-33 {
        fill: url(#linear-gradient-7);
      }

      .cls-34 {
        fill: url(#New_Gradient_Swatch_1);
      }

      .cls-35 {
        fill: url(#New_Gradient_Swatch_1-2);
      }

      .cls-6 {
        stroke: #707070;
      }

      .cls-6, .cls-8 {
        opacity: .75;
      }

      .cls-36 {
        fill: #352e72;
      }

      .cls-20 {
        stroke: #e59977;
      }

      .cls-37 {
        fill: url(#linear-gradient-3);
      }

      .cls-38 {
        fill: url(#New_Gradient_Swatch_1-8);
      }

      .cls-39 {
        fill: url(#linear-gradient);
      }

      .cls-7 {
        fill: url(#linear-gradient-6);
      }

      .cls-8 {
        fill: url(#linear-gradient-4);
      }

      .cls-40 {
        fill: url(#New_Gradient_Swatch_1-4);
      }
    </style>
    <linearGradient id="linear-gradient" x1="-298.36" y1="3156.33" x2="-298.36" y2="3157.33" gradientTransform="translate(40356.95 827708.32) scale(132.92 -262.06)" gradientUnits="userSpaceOnUse">
      <stop offset="0" stop-color="#202a45"/>
      <stop offset=".25" stop-color="#7594b3"/>
    </linearGradient>
    <linearGradient id="New_Gradient_Swatch_1" data-name="New Gradient Swatch 1" x1="-299.51" y1="3158.19" x2="-299.51" y2="3159.19" gradientTransform="translate(36023.64 577811.6) scale(117.78 -182.78)" gradientUnits="userSpaceOnUse">
      <stop offset="0" stop-color="#202a45"/>
      <stop offset="1" stop-color="#7594b3"/>
    </linearGradient>
    <linearGradient id="New_Gradient_Swatch_1-2" data-name="New Gradient Swatch 1" x1="-303.05" y1="3157.17" x2="-304.51" y2="3157.7" gradientTransform="translate(25231.71 718891.37) scale(82.28 -227.54)" xlink:href="#New_Gradient_Swatch_1"/>
    <linearGradient id="New_Gradient_Swatch_1-3" data-name="New Gradient Swatch 1" x1="-296.92" y1="3157.03" x2="-296.92" y2="3158.03" gradientTransform="translate(47239.44 712015.91) scale(158.69 -225.36)" xlink:href="#New_Gradient_Swatch_1"/>
    <linearGradient id="New_Gradient_Swatch_1-4" data-name="New Gradient Swatch 1" x1="-296.93" y1="3160.79" x2="-296.93" y2="3161.74" gradientTransform="translate(47130.44 441672.67) scale(158.46 -139.59)" xlink:href="#New_Gradient_Swatch_1"/>
    <linearGradient id="New_Gradient_Swatch_1-5" data-name="New Gradient Swatch 1" x1="-304.87" y1="3166.55" x2="-304.38" y2="3167.41" gradientTransform="translate(23816.9 244519.72) scale(77.89 -77.04)" xlink:href="#New_Gradient_Swatch_1"/>
    <linearGradient id="linear-gradient-2" x1="-315.66" y1="3157.05" x2="-315.66" y2="3158.05" gradientTransform="translate(14601.34 684060.73) scale(45.18 -216.52)" gradientUnits="userSpaceOnUse">
      <stop offset="0" stop-color="#29225e"/>
      <stop offset="1" stop-color="#3f368c"/>
    </linearGradient>
    <linearGradient id="linear-gradient-3" x1="-317.19" y1="3157.04" x2="-317.19" y2="3158.04" gradientTransform="translate(13857.47 685763.65) scale(42.69 -217.06)" xlink:href="#linear-gradient-2"/>
    <linearGradient id="New_Gradient_Swatch_1-6" data-name="New Gradient Swatch 1" x1="-298.88" y1="3160.07" x2="-298.1" y2="3160.39" gradientTransform="translate(38057.62 465537.47) scale(126.15 -147.26)" xlink:href="#New_Gradient_Swatch_1"/>
    <linearGradient id="New_Gradient_Swatch_1-7" data-name="New Gradient Swatch 1" x1="-310.21" y1="3168.45" x2="-311.25" y2="3167.69" gradientTransform="translate(17670.01 226747.24) scale(55.91 -71.51)" xlink:href="#New_Gradient_Swatch_1"/>
    <linearGradient id="New_Gradient_Swatch_1-8" data-name="New Gradient Swatch 1" x1="-297.5" y1="3160.22" x2="-297.5" y2="3159.68" gradientTransform="translate(44493.92 467194.7) scale(147.28 -147.74)" xlink:href="#New_Gradient_Swatch_1"/>
    <linearGradient id="linear-gradient-4" x1="-307.55" y1="3164.5" x2="-306.55" y2="3164.5" gradientTransform="translate(21380.21 297660.41) scale(67.3 -93.96)" gradientUnits="userSpaceOnUse">
      <stop offset="0" stop-color="#7594b3"/>
      <stop offset="1" stop-color="#202a45"/>
    </linearGradient>
    <linearGradient id="New_Gradient_Swatch_1-9" data-name="New Gradient Swatch 1" x1="-310.36" y1="3164.46" x2="-310.36" y2="3163.75" gradientTransform="translate(18304.89 302580.39) scale(56.64 -95.52)" xlink:href="#New_Gradient_Swatch_1"/>
    <linearGradient id="New_Gradient_Swatch_1-10" data-name="New Gradient Swatch 1" x1="-387.66" y1="3241.54" x2="-387.66" y2="3242.54" gradientTransform="translate(5385.92 41001.19) scale(12.06 -12.56)" xlink:href="#New_Gradient_Swatch_1"/>
    <linearGradient id="New_Gradient_Swatch_1-11" data-name="New Gradient Swatch 1" x1="-484.65" y1="3246.34" x2="-484.65" y2="3247.34" gradientTransform="translate(3642.74 38985.93) scale(6.07 -11.92)" xlink:href="#New_Gradient_Swatch_1"/>
    <linearGradient id="linear-gradient-5" x1="-444.27" y1="3170.98" x2="-444.27" y2="3171.98" gradientTransform="translate(3549.93 188627.67) scale(7.65 -59.34)" xlink:href="#linear-gradient-2"/>
    <linearGradient id="linear-gradient-6" x1="-309.88" y1="3196.14" x2="-309.88" y2="3197.14" gradientTransform="translate(18122.61 81813.98) scale(57.98 -25.49)" xlink:href="#linear-gradient-2"/>
    <linearGradient id="linear-gradient-7" x1="-295.24" y1="3163.35" x2="-295.24" y2="3162.65" gradientTransform="translate(60632.64 334793.51) scale(204.85 -105.75)" gradientUnits="userSpaceOnUse">
      <stop offset="0" stop-color="#475d75"/>
      <stop offset="1" stop-color="#7594b3"/>
    </linearGradient>
  </defs>
  <g id="Layer_1-2" data-name="Layer 1">
    <g id="icn_email_update" data-name="icn email update">
      <g id="Group_689" data-name="Group 689">
        <path id="Path_492" data-name="Path 492" class="cls-25" d="M54.75,563.73H812.18c24.68,0-19.49,12.88-33.96,27.35s-13.63,20.49-49.63,31.44c-77.44,23.55-110.58-22.55-233.53-4.4-52.39,7.73-119.19,22.5-171.88,14.65-44.38-6.61-55.15-36.88-88.69-39.33-51.49-3.76-77.18-.07-124.15-2.36-40.25-1.97-119.95-27.36-55.58-27.36Z"/>
        <g id="Group_640" data-name="Group 640">
          <g id="Group_637" data-name="Group 637">
            <path id="Path_493" data-name="Path 493" class="cls-39" d="M633.08,563.73c-2.42-83.37,16.43-184.55,82.1-241.98,10.54-9.22,23.43-21.09,38.39-20.01,6.96,.5,10.41,8.47,11.46,14.37,1.87,10.54,.05,21.39-2.52,31.79-14.22,57.41-61.1,157.91-73.09,215.83"/>
            <path id="Path_494" data-name="Path 494" class="cls-15" d="M743.99,324.21c-65.28,85.32-77.03,191.94-74.96,238.09"/>
            <g id="Group_636" data-name="Group 636">
              <path id="Path_495" data-name="Path 495" class="cls-34" d="M689.41,563.73c8.79-53.95,18.03-98.02,48.95-143.09,12.72-18.55,37.22-41.47,56.72-39.57,20.92,2.03,6.07,33.64-6.33,57.23-16.56,31.47-28.62,65.71-34.32,100.82,1.72-10.58,9.06-40.68,30.74-54.06,6.37-3.93,22.03-6.22,22.03,6.81,0,22.9-22.26,50.4-27.82,71.88"/>
              <path id="Path_496" data-name="Path 496" class="cls-15" d="M788.68,397.71c-20.06,25.46-60.04,113.54-64.95,164.42"/>
              <path id="Path_497" data-name="Path 497" class="cls-15" d="M795.07,493.76c-15.41,15.41-24.86,43.66-30.21,69.97"/>
            </g>
          </g>
          <g id="Group_638" data-name="Group 638">
            <path id="Path_498" data-name="Path 498" class="cls-35" d="M194.88,563.73c-12.72-105.18-3.48-151.02,8.5-180.16,5.58-13.58,13.6-27.03,24.95-36.6,45.41-38.33,44.03,36.19,41.9,58.78-4.86,51.46-17.76,106.46-18.92,157.99"/>
            <path id="Path_499" data-name="Path 499" class="cls-23" d="M153.95,563.73c-1.44-33.09-16.21-65.37-35.02-92.08-18.92-26.86-44.94-48.28-61.98-76.49-9.13-15.11-23.57-38.88-2.21-51.27,23.68-13.74,58.46,.67,77.51,16.38,20.71,17.09,34.32,41.29,45.68,65.2,20.07,42.22,24.09,91.52,24.41,138.27"/>
            <path id="Path_500" data-name="Path 500" class="cls-40" d="M158.46,563.73c.09-33.68-17.07-69.24-44.17-95.55-17.71-17.19-38.89-33.3-63.04-40.39-12.54-3.68-47.59-9.51-51.1,11.33-1.33,7.9,5.8,22.74,22.87,36.26,23.73,18.79,89.3,48.02,97.21,88.35"/>
            <path id="Path_501" data-name="Path 501" class="cls-15" d="M16.32,440.13c45.42,12.35,108.74,53.81,120.78,122.79"/>
            <path id="Path_502" data-name="Path 502" class="cls-15" d="M66.23,356.99c45.52,24.01,101.04,98.98,107.25,205.93"/>
            <path id="Path_503" data-name="Path 503" class="cls-15" d="M245.68,346.36c-25.59,62.14-30.05,149.38-28.56,216.57"/>
          </g>
          <g id="Group_639" data-name="Group 639">
            <path id="Path_504" data-name="Path 504" class="cls-24" d="M126.35,563.73c-4.07-18.17-7.64-37.1-18.47-52.76-7.08-10.24-21.53-24.5-34.38-24.28-9.56,.17-11.73,9.36-10.62,17.64,2.92,21.69,14.95,28.31,19.61,51.77-2.33-8.88-16.67-39.65-29.26-27.89-13.85,12.94,6.8,35.52,6.8,35.52"/>
            <path id="Path_505" data-name="Path 505" class="cls-15" d="M58.65,533.94c6.59,7.54,15.04,18.3,18.45,29.79"/>
            <path id="Path_506" data-name="Path 506" class="cls-15" d="M78.55,500.01c17.44,17.44,29.62,54.24,32.77,63.72"/>
          </g>
        </g>
        <g id="Group_646" data-name="Group 646">
          <path id="Path_507" data-name="Path 507" class="cls-16" d="M495.46,392.23h236.67c36.6,0,66.28-29.67,66.28-66.28h0c0-36.61-29.67-66.28-66.28-66.28H226.85c-19.42,0-35.16-15.74-35.16-35.16h0c0-19.42,15.74-35.16,35.16-35.16h424.56c17.19,0,31.13-13.94,31.13-31.13h0c0-17.19-13.93-31.13-31.13-31.13H262.89c-9.46,0-17.13-7.67-17.13-17.13h0c0-9.46,7.67-17.13,17.12-17.13h112.96"/>
          <g id="Group_641" data-name="Group 641">
            <path id="Path_508" data-name="Path 508" class="cls-3" d="M402.59,37.49c-19.63-3.32-38.23,9.91-41.55,29.54-1.97,11.66,1.9,23.55,10.37,31.81l-4.87,9.89,10.93-5.1c16.88,10.57,39.13,5.45,49.7-11.44,10.57-16.88,5.45-39.13-11.44-49.7-4.01-2.51-8.47-4.21-13.14-4.99Z"/>
            <path id="Path_509" data-name="Path 509" class="cls-28" d="M380.52,89.96l-3.73-4.47c-1.44-1.72-1.21-4.28,.52-5.72l4.29-3.58c1.72-1.44,4.28-1.21,5.72,.52,0,0,0,0,0,0,0,0,1.98,2.98,4.31,2.45,2.65-.6,8.4-4.8,11.5-8.06,2.18-2.29-1.49-6.33-1.49-6.33-1.44-1.72-1.21-4.28,.51-5.72,0,0,0,0,0,0l4.29-3.58c1.72-1.44,4.28-1.21,5.71,.52,0,0,0,0,0,0l3.73,4.47c8.4,10.07-28.05,38.28-35.37,29.51Z"/>
          </g>
          <path id="Path_510" data-name="Path 510" class="cls-2" d="M559.71,92.15c5.35-5.13,7.56-10.4,14.92-12.04,1.53-.2,3.02-.65,4.4-1.33,3.58-2.23,2.85-7.31,3.66-11.33,1.58-7.92,11.94-12.93,19.52-9.45,3.18,1.46,6.06,4.15,9.57,3.91,7.03-.48,6.18-9.15,10.98-14.09,4.54-4.67,13.77-5.28,19.67-2.32,4.03,2,7.57,4.87,10.35,8.41,2.86,3.7,2.73,9.42,4.84,13.5,2.01,3.94,6.82,5.66,8.92,9.54,1.82,3.36,2.38,6.94,.9,10.5-3,7.2-11.8,12.4-19.79,12.4h-107.83s13.94-1.99,19.89-7.7Z"/>
          <path id="Path_511" data-name="Path 511" class="cls-2" d="M301.47,40.95c-4.52-4.33-6.39-8.79-12.61-10.18-1.29-.17-2.55-.55-3.71-1.13-3.03-1.88-2.41-6.17-3.09-9.57-1.34-6.69-10.09-10.93-16.5-7.98-2.69,1.23-5.12,3.51-8.09,3.31-5.94-.4-5.23-7.73-9.29-11.91-3.83-3.95-11.64-4.46-16.62-1.96-3.41,1.69-6.4,4.11-8.75,7.1-2.41,3.13-2.3,7.96-4.09,11.41-1.7,3.33-5.77,4.78-7.54,8.06-1.63,2.68-1.91,5.96-.76,8.87,2.54,6.09,9.98,10.48,16.72,10.48h91.13s-11.78-1.68-16.81-6.5Z"/>
          <g id="Group_643" data-name="Group 643">
            <g id="Group_642" data-name="Group 642">
              <path id="Path_512" data-name="Path 512" class="cls-9" d="M722.82,137.36l-63.33-33.89,16.68-49.51,77.09,39.91-30.43,43.49Z"/>
              <path id="Path_513" data-name="Path 513" class="cls-9" d="M753.24,93.88l-77.09-39.91,54.95-11.73,22.14,51.64Z"/>
              <rect id="Rectangle_198" data-name="Rectangle 198" class="cls-25" x="673.66" y="61.24" width="58.7" height="69.49" transform="translate(294.54 676.15) rotate(-62.63)"/>
              <path id="Path_514" data-name="Path 514" class="cls-28" d="M676.16,53.97l-25.95,50.12,50.6-3.33-24.65-46.78Z"/>
              <path id="Path_515" data-name="Path 515" class="cls-28" d="M753.24,93.88l-25.95,50.12-26.48-43.24,52.43-6.87Z"/>
              <path id="Path_516" data-name="Path 516" class="cls-9" d="M727.3,143.99l-77.09-39.91,58.62-18.57,18.47,58.48Z"/>
              <path id="Path_517" data-name="Path 517" class="cls-28" d="M727.3,143.99l-77.09-39.91,54.95-11.73,22.14,51.64Z"/>
            </g>
          </g>
          <g id="Group_690" data-name="Group 690">
            <g id="Group_642-2" data-name="Group 642-2">
              <path id="Path_512-2" data-name="Path 512-2" class="cls-9" d="M214.05,154.84l-50.45,21.25-21.32-33.62,60.61-26.51,11.16,38.88Z"/>
              <path id="Path_513-2" data-name="Path 513-2" class="cls-9" d="M202.89,115.97l-60.61,26.51,19.4-38.17,41.2,11.66Z"/>
              <rect id="Rectangle_198-2" data-name="Rectangle 198-2" class="cls-25" x="153.57" y="124.36" width="52.96" height="44.73" transform="translate(-43.71 84.46) rotate(-23.63)"/>
              <path id="Path_514-2" data-name="Path 514-2" class="cls-28" d="M142.28,142.48l17.23,39.41,22.29-31.57-39.53-7.84Z"/>
              <path id="Path_515-2" data-name="Path 515-2" class="cls-28" d="M202.89,115.97l17.24,39.4-38.31-5.05,21.08-34.35Z"/>
              <path id="Path_516-2" data-name="Path 516-2" class="cls-9" d="M220.12,155.37l-60.6,26.52,17.11-43.62,43.49,17.1Z"/>
              <path id="Path_517-2" data-name="Path 517-2" class="cls-28" d="M220.12,155.37l-60.61,26.52,19.4-38.17,41.21,11.65Z"/>
            </g>
          </g>
        </g>
        <g id="Group_655" data-name="Group 655">
          <g id="Group_647" data-name="Group 647">
            <path id="Path_524" data-name="Path 524" class="cls-31" d="M416.59,89.75l1.92-2.99c-.37-1.58-.55-3.2-.55-4.83,0-1.2,.4-4.38,.88-4.64s.7,2.68,.91,2.57,1.74-5.9,2.61-5.82c.44,.04-1.06,5.65-1.06,5.65,0,0,1.48-6.09,2.17-5.88s-.94,6.02-.94,6.02c0,0,1.43-5.52,2.01-5.34s-.92,5.55-.92,5.55c0,0,1.42-4.78,1.73-4.51,.48,.41-.06,3.71-1.44,8.36-.24,.81-1.4,3.47-1.46,3.69s-1.37,5.03-1.37,5.03"/>
            <path id="Path_525" data-name="Path 525" class="cls-20" d="M419.95,80.45c.85,1.08,1.38,2.37,1.55,3.74-.01,.83-.2,1.64-.54,2.39"/>
          </g>
          <g id="Group_648" data-name="Group 648">
            <path id="Path_526" data-name="Path 526" class="cls-36" d="M350.72,450.24s11.19,4.09,11.27,7.4c.04,1.9-16.23,1.84-17.25,.59-1.62-2.01,1.2-7.57,1.2-7.57l4.78-.42Z"/>
            <path id="Path_527" data-name="Path 527" class="cls-27" d="M350.48,440.99l.25,9.53c-.25,.94-1.04,1.64-2,1.77-1.65,.22-2.79-1.64-2.79-1.64l-.49-11.92"/>
            <path id="Path_528" data-name="Path 528" class="cls-10" d="M358.13,228.95s6.09,36.98,3.03,107.94c-2.09,48.46-8.64,107.04-11.04,107.11-1.52,.03-3.04-.04-4.54-.23,0,0-15.26-70.22-16.3-109.77-1.6-60.9-17.66-74.87-10.7-106.52"/>
            <path id="Path_529" data-name="Path 529" class="cls-32" d="M351.7,440.13l-.45,4.2-6.69,.18-.32-4.17,7.45-.21Z"/>
          </g>
          <g id="Group_649" data-name="Group 649">
            <path id="Path_530" data-name="Path 530" class="cls-36" d="M316.2,451.18s11.19,4.09,11.27,7.4c.04,1.9-16.24,1.85-17.25,.59-1.62-2.01,1.2-7.57,1.2-7.57l4.78-.42Z"/>
            <path id="Path_531" data-name="Path 531" class="cls-27" d="M315.95,441.94l.25,9.53c-.25,.94-1.04,1.64-2,1.77-1.65,.22-2.79-1.64-2.79-1.64l-.49-11.92"/>
            <path id="Path_532" data-name="Path 532" class="cls-37" d="M338.39,229.49s-2.87,47.03-6.48,101.33c-1.43,21.45-13.75,111.13-15.49,114.1-2.4,.07-6.09,.17-6.09,.17,0,0-9.26-77.61-10.3-117.16-1.6-60.9-8.15-68.26-1.19-99.9"/>
            <path id="Path_533" data-name="Path 533" class="cls-32" d="M317.34,441.08l-.45,4.2-6.69,.18-.32-4.17,7.45-.21Z"/>
            <path id="Path_534" data-name="Path 534" class="cls-18" d="M336.91,253.29s-2.37,60.1-6.76,95.3"/>
          </g>
          <path id="Path_535" data-name="Path 535" class="cls-22" d="M344.78,104.26c-3.82-6.73-14.17-5.71-20.09-2.63-8.4,4.37-10.39,16.84-18.24,22.17-3.47,2.36-7.67,3.75-10.45,6.92-3.24,3.7-3.88,9.33-2.26,14.01,1.78,4.64,5.1,8.52,9.41,10.99,4.25,2.4,8.86,4.11,13.65,5.06,7.56,1.74,15.62,2.68,22.96,.12s13.71-9.4,13.69-17.33c-.02-6.71-4.43-12.98-3.66-19.65"/>
          <path id="Path_536" data-name="Path 536" class="cls-29" d="M417.18,87.47s-20.04,28.76-24.63,35.3c-7.13,10.18-36.43,12.15-52.1,21.42l-10.86,1.18c-5.16,1.05-22.96,13.72-24.63,18.83-3.8,11.65-7.63,23.47-8.31,35.73-.23,4.16-.1,8.33,.04,12.49,.2,6.02,.39,12.04,.59,18.07-.03,.4,.07,.8,.28,1.15,.3,.3,.69,.5,1.11,.55,19.67,4.54,40.16,2.1,60.18-.37,.71-.01,1.4-.26,1.96-.69,.54-.69,.8-1.56,.72-2.43,.11-3.85-.11-7.7-.27-11.56-.66-16.68-.08-33.38,1.76-49.96,6.2-3.89,31.85-11.94,40.43-23.92,19.21-26.8,19.21-54.42,19.21-54.42l-5.49-1.36Z"/>
          <path id="Path_537" data-name="Path 537" class="cls-31" d="M340.45,144.2l-.39-13.76-6.1,.84-4.37,13.96s2.01,2.89,6.51,2.27c3.89-.54,4.35-3.3,4.35-3.3Z"/>
          <path id="Path_538" data-name="Path 538" class="cls-31" d="M327.44,124.82c-.31-5.39,1.28-11.19,4.13-14.36s8.16-3.62,12.08-3.09c1.36,.15,2.65,.67,3.73,1.51,3.87,3.22,3.61,10.63,3.34,15.17-.12,3.88-1.44,7.63-3.78,10.73-.72,.97-1.68,1.75-2.77,2.26-4.1,1.46-8.65,.78-12.15-1.81-3.08-2.45-4.37-6.57-4.59-10.42Z"/>
          <path id="Path_539" data-name="Path 539" class="cls-22" d="M325.7,129.16c-1.43,.67-3.66,1.16-4.78-.42-.89-1.26-.11-3.15,.2-4.48,1.01-4.34,2.27-8.62,3.76-12.83,.69-2.2,1.69-4.29,2.97-6.2,2.64-3.63,10.14-5.32,14.54-4.9,4.85-.32,12.56,7.57,8.34,16.75-.63-2.25-1.52-2.06-3.17-3.95-1.64,1.56-3.77,2.5-6.03,2.66-2.93,.27-6.31-.4-8.46,1.65-2.2,2.1-1.75,5.85-3.34,8.47-.99,1.45-2.39,2.59-4.03,3.25Z"/>
          <path id="Path_540" data-name="Path 540" class="cls-27" d="M330.71,125.74c.23-.93-.33-1.88-1.27-2.11-.05-.01-.11-.02-.17-.03-2.23-.23-2.89,3.26-2.03,4.85,.64,1.18,2.26,2.15,3.1,.73"/>
          <g id="Group_654" data-name="Group 654">
            <g id="Group_652" data-name="Group 652">
              <g id="Group_650" data-name="Group 650">
                <path id="Path_541" data-name="Path 541" class="cls-9" d="M334.45,133.94c-.55-.05-1.1-.14-1.64-.27-1.67-.38-3.16-1.35-4.17-2.73-.39-.5-.62-1.11-.67-1.75-.02-.14,.07-.27,.21-.29,.14-.02,.27,.07,.29,.21,0,.02,0,.04,0,.06,.04,.53,.24,1.04,.57,1.47,.95,1.28,2.33,2.18,3.88,2.53,1.53,.31,3.1,.4,4.66,.26,.14,0,.26,.11,.26,.25,0,.14-.1,.25-.24,.26-1.05,.08-2.11,.08-3.16,0Z"/>
              </g>
              <g id="Group_651" data-name="Group 651">
                <path id="Path_542" data-name="Path 542" class="cls-9" d="M338.74,133.04c-.44-.21-.96-.24-1.42-.08-1.6,.52,.14,2.6,1.58,1.53,.12-.08,.22-.19,.29-.32,.17-.44-.03-.94-.46-1.14Z"/>
              </g>
            </g>
            <g id="Group_653" data-name="Group 653">
              <path id="Path_543" data-name="Path 543" class="cls-9" d="M323.75,116.68c.35-3.78,1.69-7.39,3.88-10.48,2.82-3.61,6.6-6.58,10.22-6.58,1.55-.07,3.09,.17,4.54,.71-3.8,.91-7.24,2.95-9.87,5.84-2.98,3.2-4.68,7.38-4.77,11.75"/>
            </g>
            <path id="Path_544" data-name="Path 544" class="cls-9" d="M332.9,122.64c.41,4.05-2.23,7.66-5.9,8.05s-6.98-2.58-7.39-6.64,2.23-7.66,5.9-8.05,6.98,2.58,7.39,6.64Z"/>
            <path id="Path_545" data-name="Path 545" class="cls-28" d="M329.75,123.29c.28,2.78-1.43,5.24-3.83,5.5s-4.57-1.79-4.85-4.57,1.43-5.24,3.83-5.49,4.57,1.79,4.85,4.57Z"/>
          </g>
        </g>
        <g id="Group_657" data-name="Group 657">
          <path id="Path_546" data-name="Path 546" class="cls-28" d="M463.04,111.34l-224.38,196.47v270.17h448.76V307.81L463.04,111.34Z"/>
          <rect id="Rectangle_200" data-name="Rectangle 200" class="cls-25" x="261.34" y="180.45" width="403.4" height="369.64"/>
          <g id="Group_656" data-name="Group 656">
            <rect id="Rectangle_201" data-name="Rectangle 201" class="cls-11" x="284.44" y="228.48" width="357.2" height="31.56"/>
            <rect id="Rectangle_202" data-name="Rectangle 202" class="cls-11" x="284.44" y="274.83" width="357.2" height="31.56"/>
            <rect id="Rectangle_203" data-name="Rectangle 203" class="cls-11" x="284.44" y="321.18" width="357.2" height="187.68"/>
          </g>
          <path id="Path_547" data-name="Path 547" class="cls-4" d="M463.04,479.32l-224.38-171.52v242.29h448.76v-242.29l-224.38,171.52Z"/>
          <path id="Path_548" data-name="Path 548" class="cls-14" d="M463.04,507.25l-224.38-199.44v270.17h448.76V307.81l-224.38,199.44Z"/>
          <path id="Path_549" data-name="Path 549" class="cls-1" d="M463.04,366.45l-224.38,211.53h448.76l-224.38-211.53Z"/>
          <path id="Path_550" data-name="Path 550" class="cls-14" d="M463.04,387.06l-224.38,190.92h448.76l-224.38-190.92Z"/>
        </g>
        <g id="Group_658" data-name="Group 658">
          <path id="Path_551" data-name="Path 551" class="cls-9" d="M609.8,591.09c-4.54-23.67,.2-47.97,9.66-68.21,6.19-13.23,20.44-31.68,36.33-31.39,11.82,.22,16.78,12.1,17.46,22.8,1.79,28.04-11.39,36.6-11.32,66.92,.67-11.48,11.77-48.78,29.12-36.05,16.99,12.46,.44,45.92,.44,45.92"/>
          <path id="Path_552" data-name="Path 552" class="cls-19" d="M686.47,552.57c-5.81,9.75-13.02,23.66-14.14,38.52"/>
          <path id="Path_553" data-name="Path 553" class="cls-19" d="M654.82,508.71c-16.03,22.54-21.12,70.12-22.45,82.38"/>
        </g>
        <g id="Group_660" data-name="Group 660">
          <g id="Group_659" data-name="Group 659">
            <path id="Path_554" data-name="Path 554" class="cls-31" d="M313.25,209.29s2.84,2.01,3.83,2.07,3.24-.68,6.04-.4c1.25,.12,4.47,.84,4.65,1.35s-2.92,.43-2.84,.65,5.8,2.35,5.55,3.21c-.13,.43-5.67-1.64-5.67-1.64,0,0,6.04,2.11,5.69,2.77s-6.07-1.56-6.07-1.56c0,0,5.46,1.99,5.16,2.56s-5.63-.86-5.63-.86c0,0,4.64,1.02,4.39,1.57-.13,.29-5.22-.36-9.58-2-2.61-1.03-5.08-2.38-7.35-4.03"/>
          </g>
          <path id="Path_555" data-name="Path 555" class="cls-26" d="M315.25,168.39c-5.03,7.67-16.68,16.52-23.11,21.95,3.69,5.01,24.58,20.6,24.58,20.6l-1.94,4.65s-39.81-7.14-41.08-26.8c-.76-11.76,14.13-29.09,25.69-37.23,10.83-7.63,23.52-8.88,30.19-6.17"/>
        </g>
        <g id="Group_673" data-name="Group 673">
          <path id="Path_556" data-name="Path 556" class="cls-31" d="M606.74,254.14c-4.39-1.8-10.64-7.15-9.92-10.2,.31-1.3,3.4,2.23,4.27,1.36,.57-.57,.1-3.18-1.48-4.45s-4.87-3.6-4.06-4.41,8.85,.98,10.65,3.71c1.14,1.72,2.39,5.54,3.16,9.68l3.33,4.3"/>
          <g id="Group_661" data-name="Group 661">
            <path id="Path_557" data-name="Path 557" class="cls-22" d="M690.96,595.75s-13.7,4.15-13.68,7.27c0,1.79,20.12,1.32,21.33,.11,1.94-1.94-1.72-7.11-1.72-7.11l-5.93-.27Z"/>
            <path id="Path_558" data-name="Path 558" class="cls-27" d="M690.96,587.02v9c.45,.99,1.44,1.63,2.53,1.62,1.32,.02,2.57-.58,3.39-1.62l.22-11.26"/>
            <path id="Path_559" data-name="Path 559" class="cls-22" d="M674.62,387.11s-6.33,35.06-.24,101.94c4.16,45.68,14.15,100.8,17.11,100.8,1.87,0,3.75-.12,5.61-.34,0,0,16.58-66.67,16.58-104.02,0-57.51,19.39-71.11,9.76-100.8"/>
            <path id="Path_560" data-name="Path 560" class="cls-12" d="M689.42,586.24l.69,3.95h8.27l.26-3.95h-9.22Z"/>
          </g>
          <g id="Group_662" data-name="Group 662">
            <path id="Path_561" data-name="Path 561" class="cls-22" d="M733.65,595.75s-13.7,4.15-13.68,7.27c0,1.79,20.12,1.32,21.33,.11,1.94-1.94-1.72-7.11-1.72-7.11l-5.93-.27Z"/>
            <path id="Path_562" data-name="Path 562" class="cls-27" d="M733.65,587.02v9c.45,.99,1.44,1.63,2.53,1.62,1.32,.02,2.57-.58,3.39-1.62l.22-11.26"/>
            <path id="Path_563" data-name="Path 563" class="cls-22" d="M699.03,387.11s5.07,44.31,11.3,95.46c2.46,20.21,20.59,104.52,22.84,107.28h7.53s8.93-73.48,8.93-110.84c0-57.51,7.85-64.63-1.78-94.31"/>
            <path id="Path_564" data-name="Path 564" class="cls-12" d="M731.92,586.24l.69,3.95h8.27l.26-3.95h-9.22Z"/>
            <path id="Path_565" data-name="Path 565" class="cls-17" d="M701.63,409.53s4.88,56.66,11.45,89.76"/>
          </g>
          <g id="Group_663" data-name="Group 663">
            <path id="Path_566" data-name="Path 566" class="cls-38" d="M749.79,379.75c0-3.66,2.85-66.84-8.12-81.13-3.1-6.65-14.58-14.18-23.73-17.45-8.06-2.88-13.14-.63-16.81-.11-15.42-4.43-50.7-1.47-60.48-6.49-5.38-2.77-30.57-24.59-30.57-24.59l-4.71,3.66s15.05,31.44,31.97,42.43c11.9,7.73,29.55,12.02,38.99,13.89-.13,1.73-.25,3.63-.35,5.75-.52,11.28-1.81,31.1-.5,64.05,.13,3.14-3.27,7.14-3.27,9.24s4.08,8.71,38,8.71c28.77,0,42.44-4.22,42.44-9.02,0-4.95-2.85-5.28-2.85-8.95Z"/>
            <path id="Path_567" data-name="Path 567" class="cls-6" d="M677.1,297.03s-.64,10.81-.79,12.93"/>
          </g>
          <path id="Path_568" data-name="Path 568" class="cls-31" d="M699.03,242.37c-1.29,5.07-4.42,19-1.54,23.37,2.84,4.31,9.07,5.55,13.84,3.55s8.06-6.61,9.58-11.55,1.48-10.21,1.16-15.37"/>
          <path id="Path_569" data-name="Path 569" class="cls-31" d="M704.57,260.81l-1.99,16.89s.72,4.73,3.31,6.54c6.35-.14,9.43-6.19,9.43-6.19l-1.9-21.75"/>
          <path id="Path_570" data-name="Path 570" class="cls-22" d="M715.69,247.06c-3.27-1.18-7.77-.76-11.87-1.45-2.85-.48-5.9-.55-8.58-1.72-4.89-2.14-4.44-9.52-.46-12.33,1.05-.74,2.5-1.51,3.83-1.21,1.43,.33,1.96,1.84,3.22,2.41,.69,.29,1.44,.39,2.18,.3,.55-.03,1.07-.23,1.5-.57,.69-.6,.98-1.56,1.65-2.21,.67-.61,1.49-1.03,2.38-1.21,1.93-.51,3.99-.19,5.69,.87,.51,.46,1.09,.84,1.72,1.13,1.06,.34,2.25,.28,3.24,.83,2.74,1.51,4.51,5.39,4.74,8.38,.04,.47,.82,.94,1.1,1.27,2.72,3.17,2.91,7.62,2.17,11.56s-2.09,7.68-5.3,10.27c-1.28,.81-2.69,1.42-4.16,1.79-5.66,2-2.79-13.61-3.05-18.1"/>
          <path id="Path_571" data-name="Path 571" class="cls-27" d="M716.46,255.72c.17-1.02,1.13-1.72,2.16-1.55,.23,.04,.45,.12,.65,.24,.64,.37,1.06,1.03,1.14,1.77,.11,1.57-.94,3.94-2.88,4.3-.74,.14-1.53-.8-1.57-1.51"/>
          <g id="Group_668" data-name="Group 668">
            <g id="Group_666" data-name="Group 666">
              <g id="Group_664" data-name="Group 664">
                <path id="Path_572" data-name="Path 572" class="cls-9" d="M710.52,265.83c.55-.05,1.1-.13,1.64-.26,1.66-.36,3.14-1.31,4.17-2.67,.39-.49,.62-1.09,.67-1.71,0-.14-.1-.26-.24-.26-.14,0-.26,.1-.26,.24-.04,.52-.24,1.02-.57,1.43-.96,1.26-2.34,2.14-3.89,2.47-1.53,.31-3.1,.39-4.66,.25-.14,.01-.24,.14-.23,.27,.01,.11,.09,.2,.2,.23,1.05,.08,2.11,.08,3.17,0Z"/>
              </g>
              <g id="Group_665" data-name="Group 665">
                <path id="Path_573" data-name="Path 573" class="cls-9" d="M706.22,264.95c.45-.21,.96-.24,1.42-.08,1.6,.51-.13,2.55-1.58,1.5-.12-.08-.22-.19-.29-.31-.17-.43,.03-.92,.45-1.11Z"/>
              </g>
            </g>
            <g id="Group_667" data-name="Group 667">
              <path id="Path_574" data-name="Path 574" class="cls-9" d="M721.22,248.96c-.35-3.7-1.69-7.24-3.89-10.25-2.82-3.53-6.6-6.43-10.22-6.43-1.55-.07-3.09,.17-4.54,.7,3.79,.88,7.22,2.87,9.88,5.71,2.97,3.1,4.67,7.19,4.77,11.48"/>
            </g>
            <path id="Path_575" data-name="Path 575" class="cls-9" d="M712.06,254.79c-.1,3.7,2.82,6.78,6.52,6.87,3.7,.1,6.78-2.82,6.87-6.52,.09-3.5-2.52-6.48-6-6.84-3.83-.24-7.14,2.66-7.39,6.49Z"/>
            <path id="Path_576" data-name="Path 576" class="cls-28" d="M715.22,255.42c.05,2.43,2.06,4.36,4.49,4.31,2.43-.05,4.36-2.06,4.31-4.49-.05-2.22-1.74-4.05-3.94-4.28-2.57-.1-4.74,1.9-4.86,4.47Z"/>
          </g>
          <g id="Group_671" data-name="Group 671">
            <g id="Group_669" data-name="Group 669">
              <path id="Path_577" data-name="Path 577" class="cls-28" d="M705.88,375.13h-67.73l-6.63-40.92c-.25-1.56,.81-3.04,2.37-3.29,.15-.02,.31-.04,.46-.04h60.36c2.3,0,4.26,1.67,4.63,3.94l6.53,40.31Z"/>
              <path id="Path_578" data-name="Path 578" class="cls-9" d="M703.92,375.13h-67.73l-6.64-40.92c-.25-1.56,.81-3.04,2.38-3.29,.15-.02,.3-.04,.46-.04h60.36c2.3,0,4.26,1.67,4.63,3.94l6.54,40.31Z"/>
              <path id="Path_579" data-name="Path 579" class="cls-28" d="M670.22,351.92c-.74-3.45-3.37-5.89-5.86-5.46s-3.92,3.59-3.18,7.04,3.37,5.89,5.86,5.46,3.92-3.59,3.18-7.04Z"/>
            </g>
            <g id="Group_670" data-name="Group 670">
              <path id="Path_580" data-name="Path 580" class="cls-8" d="M741.66,298.62c-3.1-6.65-11.31-9.46-20.45-12.73l-2.51,30.9c1.13,14.09,6.22,34.45,6.22,34.45l-28.32,21.43,.04,.08c-.35,.25-.73,.46-1.14,.61-.39,0-3.13-1.55-4.59-1.3s-3.13,.35-3.13,.88,2.23,.58,2.23,1.08-1.5,1.5-2.19,1.5-4.72-.29-4.97,0,.86,2.12,1.97,3.11c1.06,.72,2.3,1.14,3.58,1.23,2.61-.06,5.2-.54,7.66-1.43,.47-.34,1.64-.99,2.78-1.6l.96,1.77s38.59-3.08,50.21-8.37c.36-19.03,.27-60.38-8.35-71.6Z"/>
              <path id="Path_581" data-name="Path 581" class="cls-31" d="M699.03,371.15c-1.13,.71-2.3,1.33-3.52,1.88-.39,0-3.13-1.33-4.59-1.12s-3.13,.3-3.13,.75,2.23,.49,2.23,.92-1.5,1.28-2.19,1.28-4.72-.25-4.97,0,.86,1.82,1.97,2.66c1.1,.62,2.32,.98,3.58,1.05,2.6-.04,5.17-.46,7.66-1.22,1.03-.63,5.45-2.57,5.45-2.57"/>
              <path id="Path_582" data-name="Path 582" class="cls-13" d="M717.94,281.17s19.82,1.25,29.24,19.57,6.48,57.35,.72,63.1-49.61,12.85-49.61,12.85l-1.68-4.03,30.87-19.29s-9.62-32.23-9.62-45.31"/>
            </g>
          </g>
          <g id="Group_672" data-name="Group 672">
            <path id="Path_583" data-name="Path 583" class="cls-21" d="M705.87,284.24c1.43,1.42,2.03,3.45,3.41,6.37,6.58-2.17,8.65-9.44,8.65-9.44l-2.63-3.12s-5.17,5.35-9.43,6.19Z"/>
            <path id="Path_584" data-name="Path 584" class="cls-30" d="M705.88,284.24c-1.46,1.55-2.59,3.38-3.31,5.38-1.68-1.68-2.91-7.72-2.74-8.46,.85-1.2,1.77-2.36,2.74-3.46,.41,2.46,1.57,4.74,3.31,6.54Z"/>
          </g>
        </g>
        <g id="Group_687" data-name="Group 687">
          <g id="Group_676" data-name="Group 676">
            <g id="Group_674" data-name="Group 674">
              <path id="Path_585" data-name="Path 585" d="M129.23,593.88s-13.7,4.15-13.68,7.27c0,1.79,20.12,1.32,21.33,.11,1.94-1.94-1.51-7.81-1.51-7.81l-6.14,.43Z"/>
              <path id="Path_586" data-name="Path 586" class="cls-27" d="M129.23,585.15v9c.45,.99,1.44,1.63,2.53,1.62,1.32,.02,2.58-.58,3.4-1.62l.22-11.26"/>
              <path id="Path_587" data-name="Path 587" class="cls-22" d="M133.78,337.86c-9.2,11.9-20.02,45.58-20.02,109.51,0,45.18,14.65,139.81,14.65,139.81l8.37,.7c26.77-169.13,17.74-167.38,24.42-197.45,4.19-18.84-4.32-66.34-4.32-66.34"/>
              <path id="Path_588" data-name="Path 588" class="cls-5" d="M155.94,444.06s-5.77-32.09-5.77-38.65c-2.5,13.12-2.5,30.11,0,42.03,1.83,8.75,3.74,17.31,3.74,17.31l2.04-20.69Z"/>
              <path id="Path_589" data-name="Path 589" class="cls-12" d="M128.06,584.83v3.58s8.75,1.47,8.75,.93,.4-4.11,.4-4.11l-9.15-.39Z"/>
            </g>
            <g id="Group_675" data-name="Group 675">
              <path id="Path_590" data-name="Path 590" d="M202.28,593.88s13.7,4.15,13.68,7.27c0,1.79-20.12,1.32-21.33,.11-1.94-1.94,1.51-7.81,1.51-7.81l6.14,.43Z"/>
              <path id="Path_591" data-name="Path 591" class="cls-27" d="M200.75,585.15l1.53,9c-.45,.99-1.44,1.63-2.53,1.62-1.32,.02-2.57-.58-3.39-1.62l-1.75-11.26"/>
              <path id="Path_592" data-name="Path 592" class="cls-22" d="M178.32,332.5c9.07,15.26,25.15,46.72,25.15,110.65,0,45.18-1.19,143.99-1.19,143.99l-7.18,.73c-23.13-64.57-42.38-146.85-46.9-194.78-1.81-19.21,1.65-69.01,1.65-69.01"/>
              <path id="Path_593" data-name="Path 593" class="cls-7" d="M179.39,334.32c-9.77-2.94-19.7-5.3-29.75-7.06-.02,.37-.05,.76-.08,1.19l-15.78,9.41c-2.3,3.12-4.21,6.5-5.71,10.06,6.49,2.48,13.3,4.01,20.23,4.53,13.06,1.16,29.37-1.39,37.74-5.3-2.35-5.13-4.64-9.36-6.65-12.84Z"/>
              <path id="Path_594" data-name="Path 594" class="cls-12" d="M203.47,584.16v3.58s-9.19,1.47-9.19,.93-.41-4.12-.41-4.12l9.6-.39Z"/>
            </g>
          </g>
          <g id="Group_680" data-name="Group 680">
            <g id="Group_677" data-name="Group 677">
              <path id="Path_595" data-name="Path 595" class="cls-31" d="M250.21,298.85l2.96-1.61c.39-1.48,.96-2.92,1.69-4.27,.54-1,2.29-3.46,2.81-3.46s-.6,2.55-.38,2.55,4.11-4.11,4.81-3.65c.35,.23-3.43,4.21-3.43,4.21,0,0,3.98-4.39,4.46-3.9s-3.49,4.58-3.49,4.58c0,0,3.68-3.94,4.09-3.53s-3.26,4.2-3.26,4.2c0,0,3.34-3.33,3.49-2.96,.23,.56-1.71,3.06-4.95,6.3-.56,.56-2.74,2.25-2.89,2.4s-3.41,3.57-3.41,3.57"/>
              <path id="Path_596" data-name="Path 596" class="cls-20" d="M257.22,292.64c.24,1.28,.12,2.6-.35,3.82-.38,.68-.9,1.28-1.53,1.74"/>
            </g>
            <g id="Group_678" data-name="Group 678">
              <path id="Path_597" data-name="Path 597" class="cls-31" d="M56.41,242.38l-2.07-2.66c.23-1.52,.28-3.06,.16-4.58-.09-1.13-.72-4.09-1.2-4.3s-.47,2.58-.68,2.49-2.13-5.41-2.95-5.27c-.42,.07,1.46,5.23,1.46,5.23,0,0-1.89-5.61-2.53-5.36s1.37,5.59,1.37,5.59c0,0-1.8-5.08-2.34-4.87s1.31,5.16,1.31,5.16c0,0-1.73-4.39-2.01-4.11-.43,.43,.34,3.48,2.02,7.76,.29,.74,1.61,3.16,1.69,3.35s1.71,4.63,1.71,4.63"/>
              <path id="Path_598" data-name="Path 598" class="cls-20" d="M52.46,233.89c-.73,1.08-1.15,2.34-1.21,3.64,.07,.78,.31,1.53,.71,2.21"/>
            </g>
            <g id="Group_679" data-name="Group 679">
              <path id="Path_599" data-name="Path 599" class="cls-33" d="M252.31,297.58s-30.01,11.06-36.82,11.06c-5.63,0-15.21-15.2-28.47-25.55-5.4-4.1-11.32-7.44-17.61-9.96l-25.04-.52c-7.61,.17-15.21,.78-22.75,1.82-12.46,1.69-24.14,1.14-29.57-1.3-10.52-4.71-36.83-32.99-36.83-32.99-1.78-.23-3.56,.42-4.77,1.74,0,1.4,13.54,40.06,31.4,51.63,13.14,8.52,32.27,9.91,44.22,9.83v7.96c0,3.92-4.69,23.27,.85,28.81,5.09,5.09,24.53,5.72,32.11,5.72,11.25,0,22.76-1.78,25.64-5.72,1.44-1.98,1.22-10.78,.78-18.85,9,5.66,17.14,11.31,27.52,11.31,19.45,0,42.32-30.42,42.32-30.42l-2.99-4.58Z"/>
              <path id="Path_600" data-name="Path 600" class="cls-14" d="M185.7,326.88l-.25-5.61-8.4-8.51,8.65,14.12Z"/>
              <path id="Path_601" data-name="Path 601" class="cls-14" d="M126.06,303.35c0-1,1.69-10.63,1.69-12.17-2.53,5.44-6.35,12.12-6.35,12.12l4.66,.05Z"/>
            </g>
          </g>
          <g id="Group_686" data-name="Group 686">
            <path id="Path_602" data-name="Path 602" class="cls-22" d="M165.13,228.09c7.07,4.4,5.86,13.41,8.72,19.04,2.06,4.07,5.3,7.52,5.61,12.35,.33,5.28-6.53,7.74-10.2,7.17-7.2-1.11-13.38,2.55-20.63,1.67-4.94-.6-3.08-3.08-6.3-6.87-1.88-2.36-2.98-5.25-3.16-8.26-.17-3,.05-6,.64-8.94"/>
            <path id="Path_603" data-name="Path 603" class="cls-31" d="M152.06,258.67l-1.41,12.96-6.29,.97s4.38,7.91,11.36,7.91,13.68-7.39,13.68-7.39l-6.81-2.11-2.59-18.21"/>
            <path id="Path_604" data-name="Path 604" class="cls-31" d="M141.75,237.53c-.41,4.33-.81,8.75,.14,13s3.49,8.38,7.48,10.11c1.84,.73,3.79,1.11,5.77,1.13,3.31,.15,6.84-.24,9.47-2.25,3.07-2.35,4.28-6.52,4.03-10.38s-1.75-7.51-3.23-11.08c-1.38-3.33-2.75-6.65-4.13-9.98"/>
            <path id="Path_605" data-name="Path 605" class="cls-22" d="M125.61,254.79c-1.38,1.7-3.04,3.39-3.27,5.56-.14,2.21,1.1,4.28,3.12,5.18,1.74,.79,3.39,.52,5.22,.4,2.02-.18,4.05-.1,6.04,.24,1.69,.33,3.32,.95,4.97,1.42,2.44,.78,5.01,1,7.55,.66,.44-.02,.86-.24,1.12-.6,.14-.47,.05-.98-.22-1.38-1.55-3.27-1.57-7.05-1.28-10.65,.11-1.86,.41-3.7,.89-5.5,.46-1.49,1.03-2.95,1.7-4.36,1.23-2.71,2.77-5.31,3.94-8.03,1.14-2.72,1.85-6.92,5.66-6.37,2.45,.36,3.49,4.31,5.12,6.71,2.42-2.77,5.14-4.44-.02-10.98-2.58-3.28-6.97-3.1-10.87-2.39-2.19-.15-2.04-1-4.23-1.15-7.15-.48-14.84,4.39-17.97,10.93-3.5,7.31-2.69,14.41-7.46,20.3Z"/>
            <g id="Group_685" data-name="Group 685">
              <g id="Group_683" data-name="Group 683">
                <g id="Group_681" data-name="Group 681">
                  <path id="Path_606" data-name="Path 606" class="cls-9" d="M150.16,257.1c-.55-.05-1.1-.13-1.64-.26-1.66-.37-3.14-1.31-4.17-2.67-.39-.49-.62-1.09-.67-1.71,0-.14,.1-.26,.24-.26,0,0,0,0,0,0,.14,0,.25,.1,.26,.24,0,0,0,0,0,0,.04,.52,.24,1.02,.57,1.43,.96,1.26,2.34,2.14,3.88,2.47,1.53,.31,3.1,.39,4.66,.25,.14,0,.25,.09,.26,.23,0,0,0,0,0,0,0,.14-.1,.26-.24,.27-1.05,.07-2.11,.07-3.17,0Z"/>
                </g>
                <g id="Group_682" data-name="Group 682">
                  <path id="Path_607" data-name="Path 607" class="cls-9" d="M154.46,256.22c-.44-.21-.95-.24-1.42-.08-1.6,.51,.13,2.55,1.58,1.5,.12-.08,.22-.19,.29-.31,.17-.43-.03-.93-.46-1.11Z"/>
                </g>
              </g>
              <g id="Group_684" data-name="Group 684">
                <path id="Path_608" data-name="Path 608" class="cls-9" d="M139.47,240.23c.35-3.7,1.69-7.24,3.89-10.25,2.82-3.53,6.6-6.43,10.22-6.43,1.54-.07,3.09,.17,4.54,.7-3.79,.88-7.22,2.87-9.87,5.71-2.97,3.1-4.67,7.19-4.77,11.48"/>
              </g>
              <path id="Path_609" data-name="Path 609" class="cls-9" d="M148.62,246.06c.1,3.7-2.82,6.78-6.52,6.87-3.7,.1-6.78-2.82-6.87-6.52-.09-3.5,2.52-6.48,6-6.84,3.83-.24,7.14,2.66,7.39,6.49Z"/>
              <path id="Path_610" data-name="Path 610" class="cls-28" d="M145.46,246.69c-.05,2.43-2.06,4.36-4.49,4.3s-4.36-2.06-4.3-4.49c.05-2.22,1.74-4.05,3.94-4.28,2.57-.1,4.74,1.9,4.85,4.47Z"/>
            </g>
          </g>
        </g>
        <g id="Group_688" data-name="Group 688">
          <path id="Path_611" data-name="Path 611" class="cls-19" d="M559.18,73.95l-10.52,4.4c-.87,.36-1.28,1.36-.91,2.22,.1,.24,.26,.46,.46,.64l7.54,6.49c.71,.61,1.78,.54,2.4-.17,.17-.19,.29-.42,.35-.66l2.98-10.89c.25-.91-.28-1.84-1.19-2.09-.37-.1-.76-.08-1.11,.07Z"/>
          <path id="Path_612" data-name="Path 612" class="cls-19" d="M107.11,211.28l3.08,10.97c.25,.9,1.19,1.43,2.09,1.18,.26-.07,.49-.2,.69-.38l7.36-6.69c.69-.63,.75-1.71,.12-2.4-.17-.19-.38-.33-.62-.43l-10.44-4.28c-.87-.36-1.86,.06-2.22,.93-.14,.35-.17,.74-.06,1.11Z"/>
          <path id="Path_613" data-name="Path 613" class="cls-19" d="M776.05,343l8.08-8.04c.67-.66,.67-1.74,.01-2.4-.19-.19-.42-.33-.67-.42l-9.43-3.16c-.89-.3-1.85,.18-2.15,1.07-.08,.24-.11,.5-.08,.75l1.35,11.2c.11,.93,.95,1.6,1.88,1.49,.38-.04,.74-.22,1.01-.49Z"/>
          <path id="Path_614" data-name="Path 614" class="cls-19" d="M738.21,218.43l2.97,11.01c.24,.91,1.18,1.44,2.08,1.2,.26-.07,.49-.2,.69-.37l7.43-6.61c.7-.62,.77-1.7,.14-2.4-.17-.19-.38-.34-.61-.44l-10.4-4.39c-.86-.37-1.86,.04-2.23,.9-.15,.35-.17,.74-.08,1.1Z"/>
          <rect id="Rectangle_204" data-name="Rectangle 204" class="cls-9" x="699.59" y="197.18" width="6.52" height="6.52" transform="translate(22.71 467.99) rotate(-37.39)"/>
          <rect id="Rectangle_205" data-name="Rectangle 205" class="cls-9" x="650.13" y="151.3" width="6.52" height="6.52" transform="translate(-6.17 28.9) rotate(-2.52)"/>
          <rect id="Rectangle_206" data-name="Rectangle 206" class="cls-9" x="232.93" y="236.48" width="6.52" height="6.52" transform="translate(-70.91 102.06) rotate(-21.28)"/>
          <rect id="Rectangle_207" data-name="Rectangle 207" class="cls-9" x="295.3" y="77.77" width="6.52" height="6.52" transform="translate(116.04 330.8) rotate(-69.03)"/>
          <rect id="Rectangle_208" data-name="Rectangle 208" class="cls-9" x="40.21" y="402.16" width="6.52" height="6.52" transform="translate(-17.8 2.31) rotate(-2.52)"/>
        </g>
      </g>
    </g>
  </g>
</svg>