<?xml version="1.0" encoding="UTF-8"?>
<svg id="Layer_2" data-name="Layer 2" xmlns="http://www.w3.org/2000/svg" viewBox="0 0 285.2 500.22">
  <defs>
    <style>
      .cls-1 {
        fill: #e6e1e7;
      }
    </style>
  </defs>
  <g id="Layer_1-2" data-name="Layer 1">
    <g>
      <g>
        <path class="cls-1" d="M134.64,57.9c0-17.73,10.78-32.43,19.81-41.63C164.62,5.92,174.95,0,176.18,0s11.63,5.78,21.76,15.87c9.13,9.1,20,23.77,20,42.04s-10.41,32.53-19.14,41.61c-9.72,10.11-20.17,16.29-22.62,16.29-1.55,0-11.82-5.68-21.97-16.02-8.92-9.09-19.56-23.73-19.56-41.88Zm82.91,0C217.56,22.98,178.08,.38,176.18,.38c-1.15,0-11.54,6.07-21.45,16.16-8.99,9.15-19.7,23.76-19.7,41.36,0,33.83,37.81,57.52,41.15,57.52,2.33,0,12.85-6.3,22.34-16.17,8.68-9.03,19.03-23.54,19.03-41.35Z"/>
        <path class="cls-1" d="M150.23,57.9c0-10.99,6.87-20.86,12.63-27.2,6.18-6.81,12.73-11.38,13.23-11.38,.27,0,6.81,4.02,13.3,10.87,5.89,6.21,12.9,16.05,12.9,27.71s-6.78,21.29-12.46,27.49c-6.18,6.74-12.82,11.09-13.74,11.09-.84,0-7.45-4.51-13.48-11.16-5.65-6.24-12.38-16.05-12.38-27.42Zm25.84-38.19c-1.49,.51-25.46,17.95-25.46,38.19,0,11.23,6.66,20.95,12.25,27.13,6.44,7.12,12.68,11.05,13.23,11.07,.71,0,7.18-4.12,13.46-10.97,5.64-6.15,12.36-15.87,12.36-27.23,0-22.22-24.92-37.7-25.84-38.19Z"/>
      </g>
      <g>
        <path class="cls-1" d="M201.91,57.9c0-17.73,10.78-32.43,19.81-41.63C231.89,5.92,242.22,0,243.44,0s11.63,5.78,21.76,15.87c9.13,9.1,20,23.77,20,42.04s-10.41,32.53-19.14,41.61c-9.72,10.11-20.17,16.29-22.62,16.29-1.55,0-11.82-5.68-21.97-16.02-8.92-9.09-19.56-23.73-19.56-41.88Zm82.91,0C284.82,22.98,245.35,.38,243.44,.38c-1.15,0-11.54,6.07-21.45,16.16-8.99,9.15-19.7,23.76-19.7,41.36,0,33.83,37.81,57.52,41.15,57.52,2.33,0,12.85-6.3,22.34-16.17,8.68-9.03,19.03-23.54,19.03-41.35Z"/>
        <path class="cls-1" d="M217.5,57.9c0-10.99,6.87-20.86,12.63-27.2,6.18-6.81,12.73-11.38,13.23-11.38,.27,0,6.81,4.02,13.3,10.87,5.89,6.21,12.9,16.05,12.9,27.71s-6.78,21.29-12.46,27.49c-6.18,6.74-12.82,11.09-13.74,11.09-.84,0-7.45-4.51-13.48-11.16-5.65-6.24-12.38-16.05-12.38-27.42Zm25.84-38.19c-1.49,.51-25.46,17.95-25.46,38.19,0,11.23,6.66,20.95,12.25,27.13,6.44,7.12,12.68,11.05,13.23,11.07,.71,0,7.18-4.12,13.46-10.97,5.64-6.15,12.36-15.87,12.36-27.23,0-22.22-24.92-37.7-25.84-38.19Z"/>
      </g>
      <g>
        <path class="cls-1" d="M67.32,57.9c0-17.73,10.78-32.43,19.81-41.63C97.3,5.92,107.63,0,108.86,0s11.63,5.78,21.76,15.87c9.13,9.1,20,23.77,20,42.04s-10.41,32.53-19.14,41.61c-9.72,10.11-20.17,16.29-22.62,16.29-1.55,0-11.82-5.68-21.97-16.02-8.92-9.09-19.56-23.73-19.56-41.88Zm82.91,0C150.23,22.98,110.76,.38,108.86,.38c-1.15,0-11.54,6.07-21.45,16.16-8.99,9.15-19.7,23.76-19.7,41.36,0,33.83,37.81,57.52,41.15,57.52,2.33,0,12.85-6.3,22.34-16.17,8.68-9.03,19.03-23.54,19.03-41.35Z"/>
        <path class="cls-1" d="M82.91,57.9c0-10.99,6.87-20.86,12.63-27.2,6.18-6.81,12.73-11.38,13.23-11.38,.27,0,6.81,4.02,13.3,10.87,5.89,6.21,12.9,16.05,12.9,27.71s-6.78,21.29-12.46,27.49c-6.18,6.74-12.82,11.09-13.74,11.09-.84,0-7.45-4.51-13.48-11.16-5.65-6.24-12.38-16.05-12.38-27.42Zm25.84-38.19c-1.49,.51-25.46,17.95-25.46,38.19,0,11.23,6.66,20.95,12.25,27.13,6.44,7.12,12.68,11.05,13.23,11.07,.71,0,7.18-4.12,13.46-10.97,5.64-6.15,12.36-15.87,12.36-27.23,0-22.22-24.92-37.7-25.84-38.19Z"/>
      </g>
      <g>
        <path class="cls-1" d="M134.64,154.01c0-17.73,10.78-32.43,19.81-41.63,10.16-10.35,20.49-16.27,21.72-16.27s11.63,5.78,21.76,15.87c9.13,9.1,20,23.77,20,42.04s-10.41,32.53-19.14,41.61c-9.72,10.11-20.17,16.29-22.62,16.29-1.55,0-11.82-5.68-21.97-16.02-8.92-9.09-19.56-23.73-19.56-41.88Zm82.91,0c0-34.93-39.47-57.52-41.38-57.52-1.15,0-11.54,6.07-21.45,16.16-8.99,9.15-19.7,23.76-19.7,41.36,0,33.83,37.81,57.52,41.15,57.52,2.33,0,12.85-6.3,22.34-16.17,8.68-9.03,19.03-23.54,19.03-41.35Z"/>
        <path class="cls-1" d="M150.23,154.01c0-10.99,6.87-20.86,12.63-27.2,6.18-6.81,12.73-11.38,13.23-11.38,.27,0,6.81,4.02,13.3,10.87,5.89,6.21,12.9,16.05,12.9,27.71s-6.78,21.29-12.46,27.49c-6.18,6.74-12.82,11.09-13.74,11.09-.84,0-7.45-4.51-13.48-11.16-5.65-6.24-12.38-16.05-12.38-27.42Zm25.84-38.19c-1.49,.51-25.46,17.95-25.46,38.19,0,11.23,6.66,20.95,12.25,27.13,6.44,7.12,12.68,11.05,13.23,11.07,.71,0,7.18-4.12,13.46-10.97,5.64-6.15,12.36-15.87,12.36-27.23,0-22.22-24.92-37.7-25.84-38.19Z"/>
      </g>
      <g>
        <path class="cls-1" d="M201.91,154.01c0-17.73,10.78-32.43,19.81-41.63,10.16-10.35,20.49-16.27,21.72-16.27s11.63,5.78,21.76,15.87c9.13,9.1,20,23.77,20,42.04s-10.41,32.53-19.14,41.61c-9.72,10.11-20.17,16.29-22.62,16.29-1.55,0-11.82-5.68-21.97-16.02-8.92-9.09-19.56-23.73-19.56-41.88Zm82.91,0c0-34.93-39.47-57.52-41.38-57.52-1.15,0-11.54,6.07-21.45,16.16-8.99,9.15-19.7,23.76-19.7,41.36,0,33.83,37.81,57.52,41.15,57.52,2.33,0,12.85-6.3,22.34-16.17,8.68-9.03,19.03-23.54,19.03-41.35Z"/>
        <path class="cls-1" d="M217.5,154.01c0-10.99,6.87-20.86,12.63-27.2,6.18-6.81,12.73-11.38,13.23-11.38,.27,0,6.81,4.02,13.3,10.87,5.89,6.21,12.9,16.05,12.9,27.71s-6.78,21.29-12.46,27.49c-6.18,6.74-12.82,11.09-13.74,11.09-.84,0-7.45-4.51-13.48-11.16-5.65-6.24-12.38-16.05-12.38-27.42Zm25.84-38.19c-1.49,.51-25.46,17.95-25.46,38.19,0,11.23,6.66,20.95,12.25,27.13,6.44,7.12,12.68,11.05,13.23,11.07,.71,0,7.18-4.12,13.46-10.97,5.64-6.15,12.36-15.87,12.36-27.23,0-22.22-24.92-37.7-25.84-38.19Z"/>
      </g>
      <g>
        <path class="cls-1" d="M67.32,154.01c0-17.73,10.78-32.43,19.81-41.63,10.16-10.35,20.49-16.27,21.72-16.27s11.63,5.78,21.76,15.87c9.13,9.1,20,23.77,20,42.04s-10.41,32.53-19.14,41.61c-9.72,10.11-20.17,16.29-22.62,16.29-1.55,0-11.82-5.68-21.97-16.02-8.92-9.09-19.56-23.73-19.56-41.88Zm82.91,0c0-34.93-39.47-57.52-41.38-57.52-1.15,0-11.54,6.07-21.45,16.16-8.99,9.15-19.7,23.76-19.7,41.36,0,33.83,37.81,57.52,41.15,57.52,2.33,0,12.85-6.3,22.34-16.17,8.68-9.03,19.03-23.54,19.03-41.35Z"/>
        <path class="cls-1" d="M82.91,154.01c0-10.99,6.87-20.86,12.63-27.2,6.18-6.81,12.73-11.38,13.23-11.38,.27,0,6.81,4.02,13.3,10.87,5.89,6.21,12.9,16.05,12.9,27.71s-6.78,21.29-12.46,27.49c-6.18,6.74-12.82,11.09-13.74,11.09-.84,0-7.45-4.51-13.48-11.16-5.65-6.24-12.38-16.05-12.38-27.42Zm25.84-38.19c-1.49,.51-25.46,17.95-25.46,38.19,0,11.23,6.66,20.95,12.25,27.13,6.44,7.12,12.68,11.05,13.23,11.07,.71,0,7.18-4.12,13.46-10.97,5.64-6.15,12.36-15.87,12.36-27.23,0-22.22-24.92-37.7-25.84-38.19Z"/>
      </g>
      <g>
        <path class="cls-1" d="M134.64,250.11c0-17.73,10.78-32.43,19.81-41.63,10.16-10.35,20.49-16.27,21.72-16.27s11.63,5.78,21.76,15.87c9.13,9.1,20,23.77,20,42.04s-10.41,32.53-19.14,41.61c-9.72,10.11-20.17,16.29-22.62,16.29-1.55,0-11.82-5.68-21.97-16.02-8.92-9.09-19.56-23.73-19.56-41.88Zm82.91,0c0-34.93-39.47-57.52-41.38-57.52-1.15,0-11.54,6.07-21.45,16.16-8.99,9.15-19.7,23.76-19.7,41.36,0,33.83,37.81,57.52,41.15,57.52,2.33,0,12.85-6.3,22.34-16.17,8.68-9.03,19.03-23.54,19.03-41.35Z"/>
        <path class="cls-1" d="M150.23,250.11c0-10.99,6.87-20.86,12.63-27.2,6.18-6.81,12.73-11.38,13.23-11.38,.27,0,6.81,4.02,13.3,10.87,5.89,6.21,12.9,16.05,12.9,27.71s-6.78,21.29-12.46,27.49c-6.18,6.74-12.82,11.09-13.74,11.09-.84,0-7.45-4.51-13.48-11.16-5.65-6.24-12.38-16.05-12.38-27.42Zm25.84-38.19c-1.49,.51-25.46,17.95-25.46,38.19,0,11.23,6.66,20.95,12.25,27.13,6.44,7.12,12.68,11.05,13.23,11.07,.71,0,7.18-4.12,13.46-10.97,5.64-6.15,12.36-15.87,12.36-27.23,0-22.22-24.92-37.7-25.84-38.19Z"/>
      </g>
      <g>
        <path class="cls-1" d="M201.91,250.11c0-17.73,10.78-32.43,19.81-41.63,10.16-10.35,20.49-16.27,21.72-16.27s11.63,5.78,21.76,15.87c9.13,9.1,20,23.77,20,42.04s-10.41,32.53-19.14,41.61c-9.72,10.11-20.17,16.29-22.62,16.29-1.55,0-11.82-5.68-21.97-16.02-8.92-9.09-19.56-23.73-19.56-41.88Zm82.91,0c0-34.93-39.47-57.52-41.38-57.52-1.15,0-11.54,6.07-21.45,16.16-8.99,9.15-19.7,23.76-19.7,41.36,0,33.83,37.81,57.52,41.15,57.52,2.33,0,12.85-6.3,22.34-16.17,8.68-9.03,19.03-23.54,19.03-41.35Z"/>
        <path class="cls-1" d="M217.5,250.11c0-10.99,6.87-20.86,12.63-27.2,6.18-6.81,12.73-11.38,13.23-11.38,.27,0,6.81,4.02,13.3,10.87,5.89,6.21,12.9,16.05,12.9,27.71s-6.78,21.29-12.46,27.49c-6.18,6.74-12.82,11.09-13.74,11.09-.84,0-7.45-4.51-13.48-11.16-5.65-6.24-12.38-16.05-12.38-27.42Zm25.84-38.19c-1.49,.51-25.46,17.95-25.46,38.19,0,11.23,6.66,20.95,12.25,27.13,6.44,7.12,12.68,11.05,13.23,11.07,.71,0,7.18-4.12,13.46-10.97,5.64-6.15,12.36-15.87,12.36-27.23,0-22.22-24.92-37.7-25.84-38.19Z"/>
      </g>
      <g>
        <path class="cls-1" d="M67.32,250.11c0-17.73,10.78-32.43,19.81-41.63,10.16-10.35,20.49-16.27,21.72-16.27s11.63,5.78,21.76,15.87c9.13,9.1,20,23.77,20,42.04s-10.41,32.53-19.14,41.61c-9.72,10.11-20.17,16.29-22.62,16.29-1.55,0-11.82-5.68-21.97-16.02-8.92-9.09-19.56-23.73-19.56-41.88Zm82.91,0c0-34.93-39.47-57.52-41.38-57.52-1.15,0-11.54,6.07-21.45,16.16-8.99,9.15-19.7,23.76-19.7,41.36,0,33.83,37.81,57.52,41.15,57.52,2.33,0,12.85-6.3,22.34-16.17,8.68-9.03,19.03-23.54,19.03-41.35Z"/>
        <path class="cls-1" d="M82.91,250.11c0-10.99,6.87-20.86,12.63-27.2,6.18-6.81,12.73-11.38,13.23-11.38,.27,0,6.81,4.02,13.3,10.87,5.89,6.21,12.9,16.05,12.9,27.71s-6.78,21.29-12.46,27.49c-6.18,6.74-12.82,11.09-13.74,11.09-.84,0-7.45-4.51-13.48-11.16-5.65-6.24-12.38-16.05-12.38-27.42Zm25.84-38.19c-1.49,.51-25.46,17.95-25.46,38.19,0,11.23,6.66,20.95,12.25,27.13,6.44,7.12,12.68,11.05,13.23,11.07,.71,0,7.18-4.12,13.46-10.97,5.64-6.15,12.36-15.87,12.36-27.23,0-22.22-24.92-37.7-25.84-38.19Z"/>
      </g>
      <g>
        <path class="cls-1" d="M134.64,346.22c0-17.73,10.78-32.43,19.81-41.63,10.16-10.35,20.49-16.27,21.72-16.27s11.63,5.78,21.76,15.87c9.13,9.1,20,23.77,20,42.04s-10.41,32.53-19.14,41.61c-9.72,10.11-20.17,16.29-22.62,16.29-1.55,0-11.82-5.68-21.97-16.02-8.92-9.09-19.56-23.73-19.56-41.88Zm82.91,0c0-34.93-39.47-57.52-41.38-57.52-1.15,0-11.54,6.07-21.45,16.16-8.99,9.15-19.7,23.76-19.7,41.36,0,33.83,37.81,57.52,41.15,57.52,2.33,0,12.85-6.3,22.34-16.17,8.68-9.03,19.03-23.54,19.03-41.35Z"/>
        <path class="cls-1" d="M150.23,346.22c0-10.99,6.87-20.86,12.63-27.2,6.18-6.81,12.73-11.38,13.23-11.38,.27,0,6.81,4.02,13.3,10.87,5.89,6.21,12.9,16.05,12.9,27.71s-6.78,21.29-12.46,27.49c-6.18,6.74-12.82,11.09-13.74,11.09-.84,0-7.45-4.51-13.48-11.16-5.65-6.24-12.38-16.05-12.38-27.42Zm25.84-38.19c-1.49,.51-25.46,17.95-25.46,38.19,0,11.23,6.66,20.95,12.25,27.13,6.44,7.12,12.68,11.05,13.23,11.07,.71,0,7.18-4.12,13.46-10.97,5.64-6.15,12.36-15.87,12.36-27.23,0-22.22-24.92-37.7-25.84-38.19Z"/>
      </g>
      <g>
        <path class="cls-1" d="M201.91,346.22c0-17.73,10.78-32.43,19.81-41.63,10.16-10.35,20.49-16.27,21.72-16.27s11.63,5.78,21.76,15.87c9.13,9.1,20,23.77,20,42.04s-10.41,32.53-19.14,41.61c-9.72,10.11-20.17,16.29-22.62,16.29-1.55,0-11.82-5.68-21.97-16.02-8.92-9.09-19.56-23.73-19.56-41.88Zm82.91,0c0-34.93-39.47-57.52-41.38-57.52-1.15,0-11.54,6.07-21.45,16.16-8.99,9.15-19.7,23.76-19.7,41.36,0,33.83,37.81,57.52,41.15,57.52,2.33,0,12.85-6.3,22.34-16.17,8.68-9.03,19.03-23.54,19.03-41.35Z"/>
        <path class="cls-1" d="M217.5,346.22c0-10.99,6.87-20.86,12.63-27.2,6.18-6.81,12.73-11.38,13.23-11.38,.27,0,6.81,4.02,13.3,10.87,5.89,6.21,12.9,16.05,12.9,27.71s-6.78,21.29-12.46,27.49c-6.18,6.74-12.82,11.09-13.74,11.09-.84,0-7.45-4.51-13.48-11.16-5.65-6.24-12.38-16.05-12.38-27.42Zm25.84-38.19c-1.49,.51-25.46,17.95-25.46,38.19,0,11.23,6.66,20.95,12.25,27.13,6.44,7.12,12.68,11.05,13.23,11.07,.71,0,7.18-4.12,13.46-10.97,5.64-6.15,12.36-15.87,12.36-27.23,0-22.22-24.92-37.7-25.84-38.19Z"/>
      </g>
      <g>
        <path class="cls-1" d="M67.32,346.22c0-17.73,10.78-32.43,19.81-41.63,10.16-10.35,20.49-16.27,21.72-16.27s11.63,5.78,21.76,15.87c9.13,9.1,20,23.77,20,42.04s-10.41,32.53-19.14,41.61c-9.72,10.11-20.17,16.29-22.62,16.29-1.55,0-11.82-5.68-21.97-16.02-8.92-9.09-19.56-23.73-19.56-41.88Zm82.91,0c0-34.93-39.47-57.52-41.38-57.52-1.15,0-11.54,6.07-21.45,16.16-8.99,9.15-19.7,23.76-19.7,41.36,0,33.83,37.81,57.52,41.15,57.52,2.33,0,12.85-6.3,22.34-16.17,8.68-9.03,19.03-23.54,19.03-41.35Z"/>
        <path class="cls-1" d="M82.91,346.22c0-10.99,6.87-20.86,12.63-27.2,6.18-6.81,12.73-11.38,13.23-11.38,.27,0,6.81,4.02,13.3,10.87,5.89,6.21,12.9,16.05,12.9,27.71s-6.78,21.29-12.46,27.49c-6.18,6.74-12.82,11.09-13.74,11.09-.84,0-7.45-4.51-13.48-11.16-5.65-6.24-12.38-16.05-12.38-27.42Zm25.84-38.19c-1.49,.51-25.46,17.95-25.46,38.19,0,11.23,6.66,20.95,12.25,27.13,6.44,7.12,12.68,11.05,13.23,11.07,.71,0,7.18-4.12,13.46-10.97,5.64-6.15,12.36-15.87,12.36-27.23,0-22.22-24.92-37.7-25.84-38.19Z"/>
      </g>
      <g>
        <path class="cls-1" d="M134.64,442.32c0-17.73,10.78-32.43,19.81-41.63,10.16-10.35,20.49-16.27,21.72-16.27s11.63,5.78,21.76,15.87c9.13,9.1,20,23.77,20,42.04s-10.41,32.53-19.14,41.61c-9.72,10.11-20.17,16.29-22.62,16.29-1.55,0-11.82-5.68-21.97-16.02-8.92-9.09-19.56-23.73-19.56-41.88Zm82.91,0c0-34.93-39.47-57.52-41.38-57.52-1.15,0-11.54,6.07-21.45,16.16-8.99,9.15-19.7,23.76-19.7,41.36,0,33.83,37.81,57.52,41.15,57.52,2.33,0,12.85-6.3,22.34-16.17,8.68-9.03,19.03-23.54,19.03-41.35Z"/>
        <path class="cls-1" d="M150.23,442.32c0-10.99,6.87-20.86,12.63-27.2,6.18-6.81,12.73-11.38,13.23-11.38,.27,0,6.81,4.02,13.3,10.87,5.89,6.21,12.9,16.05,12.9,27.71s-6.78,21.29-12.46,27.49c-6.18,6.74-12.82,11.09-13.74,11.09-.84,0-7.45-4.51-13.48-11.16-5.65-6.24-12.38-16.05-12.38-27.42Zm25.84-38.19c-1.49,.51-25.46,17.95-25.46,38.19,0,11.23,6.66,20.95,12.25,27.13,6.44,7.12,12.68,11.05,13.23,11.07,.71,0,7.18-4.12,13.46-10.97,5.64-6.15,12.36-15.87,12.36-27.23,0-22.22-24.92-37.7-25.84-38.19Z"/>
      </g>
      <g>
        <path class="cls-1" d="M201.91,442.32c0-17.73,10.78-32.43,19.81-41.63,10.16-10.35,20.49-16.27,21.72-16.27s11.63,5.78,21.76,15.87c9.13,9.1,20,23.77,20,42.04s-10.41,32.53-19.14,41.61c-9.72,10.11-20.17,16.29-22.62,16.29-1.55,0-11.82-5.68-21.97-16.02-8.92-9.09-19.56-23.73-19.56-41.88Zm82.91,0c0-34.93-39.47-57.52-41.38-57.52-1.15,0-11.54,6.07-21.45,16.16-8.99,9.15-19.7,23.76-19.7,41.36,0,33.83,37.81,57.52,41.15,57.52,2.33,0,12.85-6.3,22.34-16.17,8.68-9.03,19.03-23.54,19.03-41.35Z"/>
        <path class="cls-1" d="M217.5,442.32c0-10.99,6.87-20.86,12.63-27.2,6.18-6.81,12.73-11.38,13.23-11.38,.27,0,6.81,4.02,13.3,10.87,5.89,6.21,12.9,16.05,12.9,27.71s-6.78,21.29-12.46,27.49c-6.18,6.74-12.82,11.09-13.74,11.09-.84,0-7.45-4.51-13.48-11.16-5.65-6.24-12.38-16.05-12.38-27.42Zm25.84-38.19c-1.49,.51-25.46,17.95-25.46,38.19,0,11.23,6.66,20.95,12.25,27.13,6.44,7.12,12.68,11.05,13.23,11.07,.71,0,7.18-4.12,13.46-10.97,5.64-6.15,12.36-15.87,12.36-27.23,0-22.22-24.92-37.7-25.84-38.19Z"/>
      </g>
      <g>
        <path class="cls-1" d="M67.32,442.32c0-17.73,10.78-32.43,19.81-41.63,10.16-10.35,20.49-16.27,21.72-16.27s11.63,5.78,21.76,15.87c9.13,9.1,20,23.77,20,42.04s-10.41,32.53-19.14,41.61c-9.72,10.11-20.17,16.29-22.62,16.29-1.55,0-11.82-5.68-21.97-16.02-8.92-9.09-19.56-23.73-19.56-41.88Zm82.91,0c0-34.93-39.47-57.52-41.38-57.52-1.15,0-11.54,6.07-21.45,16.16-8.99,9.15-19.7,23.76-19.7,41.36,0,33.83,37.81,57.52,41.15,57.52,2.33,0,12.85-6.3,22.34-16.17,8.68-9.03,19.03-23.54,19.03-41.35Z"/>
        <path class="cls-1" d="M82.91,442.32c0-10.99,6.87-20.86,12.63-27.2,6.18-6.81,12.73-11.38,13.23-11.38,.27,0,6.81,4.02,13.3,10.87,5.89,6.21,12.9,16.05,12.9,27.71s-6.78,21.29-12.46,27.49c-6.18,6.74-12.82,11.09-13.74,11.09-.84,0-7.45-4.51-13.48-11.16-5.65-6.24-12.38-16.05-12.38-27.42Zm25.84-38.19c-1.49,.51-25.46,17.95-25.46,38.19,0,11.23,6.66,20.95,12.25,27.13,6.44,7.12,12.68,11.05,13.23,11.07,.71,0,7.18-4.12,13.46-10.97,5.64-6.15,12.36-15.87,12.36-27.23,0-22.22-24.92-37.7-25.84-38.19Z"/>
      </g>
      <g>
        <path class="cls-1" d="M0,57.9C0,40.17,10.78,25.48,19.81,16.27,29.98,5.92,40.31,0,41.53,0s11.63,5.78,21.76,15.87c9.13,9.1,20,23.77,20,42.04s-10.41,32.53-19.14,41.61c-9.72,10.11-20.17,16.29-22.62,16.29-1.55,0-11.82-5.68-21.97-16.02C10.64,90.7,0,76.06,0,57.9Zm82.91,0C82.91,22.98,43.44,.38,41.53,.38c-1.15,0-11.54,6.07-21.45,16.16C11.1,25.69,.38,40.3,.38,57.9c0,33.83,37.81,57.52,41.15,57.52,2.33,0,12.85-6.3,22.34-16.17,8.68-9.03,19.03-23.54,19.03-41.35Z"/>
        <path class="cls-1" d="M15.59,57.9c0-10.99,6.87-20.86,12.63-27.2,6.18-6.81,12.73-11.38,13.23-11.38,.27,0,6.81,4.02,13.3,10.87,5.89,6.21,12.9,16.05,12.9,27.71s-6.78,21.29-12.46,27.49c-6.18,6.74-12.82,11.09-13.74,11.09-.84,0-7.45-4.51-13.48-11.16-5.65-6.24-12.38-16.05-12.38-27.42ZM41.43,19.71c-1.49,.51-25.46,17.95-25.46,38.19,0,11.23,6.66,20.95,12.25,27.13,6.44,7.12,12.68,11.05,13.23,11.07,.71,0,7.18-4.12,13.46-10.97,5.64-6.15,12.36-15.87,12.36-27.23,0-22.22-24.92-37.7-25.84-38.19Z"/>
      </g>
      <g>
        <path class="cls-1" d="M0,154.01c0-17.73,10.78-32.43,19.81-41.63,10.16-10.35,20.49-16.27,21.72-16.27s11.63,5.78,21.76,15.87c9.13,9.1,20,23.77,20,42.04s-10.41,32.53-19.14,41.61c-9.72,10.11-20.17,16.29-22.62,16.29-1.55,0-11.82-5.68-21.97-16.02C10.64,186.8,0,172.16,0,154.01Zm82.91,0c0-34.93-39.47-57.52-41.38-57.52-1.15,0-11.54,6.07-21.45,16.16C11.1,121.8,.38,136.4,.38,154.01c0,33.83,37.81,57.52,41.15,57.52,2.33,0,12.85-6.3,22.34-16.17,8.68-9.03,19.03-23.54,19.03-41.35Z"/>
        <path class="cls-1" d="M15.59,154.01c0-10.99,6.87-20.86,12.63-27.2,6.18-6.81,12.73-11.38,13.23-11.38,.27,0,6.81,4.02,13.3,10.87,5.89,6.21,12.9,16.05,12.9,27.71s-6.78,21.29-12.46,27.49c-6.18,6.74-12.82,11.09-13.74,11.09-.84,0-7.45-4.51-13.48-11.16-5.65-6.24-12.38-16.05-12.38-27.42Zm25.84-38.19c-1.49,.51-25.46,17.95-25.46,38.19,0,11.23,6.66,20.95,12.25,27.13,6.44,7.12,12.68,11.05,13.23,11.07,.71,0,7.18-4.12,13.46-10.97,5.64-6.15,12.36-15.87,12.36-27.23,0-22.22-24.92-37.7-25.84-38.19Z"/>
      </g>
      <g>
        <path class="cls-1" d="M0,250.11c0-17.73,10.78-32.43,19.81-41.63,10.16-10.35,20.49-16.27,21.72-16.27s11.63,5.78,21.76,15.87c9.13,9.1,20,23.77,20,42.04s-10.41,32.53-19.14,41.61c-9.72,10.11-20.17,16.29-22.62,16.29-1.55,0-11.82-5.68-21.97-16.02-8.92-9.09-19.56-23.73-19.56-41.88Zm82.91,0c0-34.93-39.47-57.52-41.38-57.52-1.15,0-11.54,6.07-21.45,16.16C11.1,217.9,.38,232.51,.38,250.11c0,33.83,37.81,57.52,41.15,57.52,2.33,0,12.85-6.3,22.34-16.17,8.68-9.03,19.03-23.54,19.03-41.35Z"/>
        <path class="cls-1" d="M15.59,250.11c0-10.99,6.87-20.86,12.63-27.2,6.18-6.81,12.73-11.38,13.23-11.38,.27,0,6.81,4.02,13.3,10.87,5.89,6.21,12.9,16.05,12.9,27.71s-6.78,21.29-12.46,27.49c-6.18,6.74-12.82,11.09-13.74,11.09-.84,0-7.45-4.51-13.48-11.16-5.65-6.24-12.38-16.05-12.38-27.42Zm25.84-38.19c-1.49,.51-25.46,17.95-25.46,38.19,0,11.23,6.66,20.95,12.25,27.13,6.44,7.12,12.68,11.05,13.23,11.07,.71,0,7.18-4.12,13.46-10.97,5.64-6.15,12.36-15.87,12.36-27.23,0-22.22-24.92-37.7-25.84-38.19Z"/>
      </g>
      <g>
        <path class="cls-1" d="M0,346.22c0-17.73,10.78-32.43,19.81-41.63,10.16-10.35,20.49-16.27,21.72-16.27s11.63,5.78,21.76,15.87c9.13,9.1,20,23.77,20,42.04s-10.41,32.53-19.14,41.61c-9.72,10.11-20.17,16.29-22.62,16.29-1.55,0-11.82-5.68-21.97-16.02-8.92-9.09-19.56-23.73-19.56-41.88Zm82.91,0c0-34.93-39.47-57.52-41.38-57.52-1.15,0-11.54,6.07-21.45,16.16C11.1,314,.38,328.61,.38,346.22c0,33.83,37.81,57.52,41.15,57.52,2.33,0,12.85-6.3,22.34-16.17,8.68-9.03,19.03-23.54,19.03-41.35Z"/>
        <path class="cls-1" d="M15.59,346.22c0-10.99,6.87-20.86,12.63-27.2,6.18-6.81,12.73-11.38,13.23-11.38,.27,0,6.81,4.02,13.3,10.87,5.89,6.21,12.9,16.05,12.9,27.71s-6.78,21.29-12.46,27.49c-6.18,6.74-12.82,11.09-13.74,11.09-.84,0-7.45-4.51-13.48-11.16-5.65-6.24-12.38-16.05-12.38-27.42Zm25.84-38.19c-1.49,.51-25.46,17.95-25.46,38.19,0,11.23,6.66,20.95,12.25,27.13,6.44,7.12,12.68,11.05,13.23,11.07,.71,0,7.18-4.12,13.46-10.97,5.64-6.15,12.36-15.87,12.36-27.23,0-22.22-24.92-37.7-25.84-38.19Z"/>
      </g>
      <g>
        <path class="cls-1" d="M0,442.32c0-17.73,10.78-32.43,19.81-41.63,10.16-10.35,20.49-16.27,21.72-16.27s11.63,5.78,21.76,15.87c9.13,9.1,20,23.77,20,42.04s-10.41,32.53-19.14,41.61c-9.72,10.11-20.17,16.29-22.62,16.29-1.55,0-11.82-5.68-21.97-16.02-8.92-9.09-19.56-23.73-19.56-41.88Zm82.91,0c0-34.93-39.47-57.52-41.38-57.52-1.15,0-11.54,6.07-21.45,16.16C11.1,410.11,.38,424.71,.38,442.32c0,33.83,37.81,57.52,41.15,57.52,2.33,0,12.85-6.3,22.34-16.17,8.68-9.03,19.03-23.54,19.03-41.35Z"/>
        <path class="cls-1" d="M15.59,442.32c0-10.99,6.87-20.86,12.63-27.2,6.18-6.81,12.73-11.38,13.23-11.38,.27,0,6.81,4.02,13.3,10.87,5.89,6.21,12.9,16.05,12.9,27.71s-6.78,21.29-12.46,27.49c-6.18,6.74-12.82,11.09-13.74,11.09-.84,0-7.45-4.51-13.48-11.16-5.65-6.24-12.38-16.05-12.38-27.42Zm25.84-38.19c-1.49,.51-25.46,17.95-25.46,38.19,0,11.23,6.66,20.95,12.25,27.13,6.44,7.12,12.68,11.05,13.23,11.07,.71,0,7.18-4.12,13.46-10.97,5.64-6.15,12.36-15.87,12.36-27.23,0-22.22-24.92-37.7-25.84-38.19Z"/>
      </g>
    </g>
  </g>
</svg>