<?xml version="1.0" standalone="no"?>
<!DOCTYPE svg PUBLIC "-//W3C//DTD SVG 1.1//EN" "http://www.w3.org/Graphics/SVG/1.1/DTD/svg11.dtd" >
<svg xmlns="http://www.w3.org/2000/svg" xmlns:xlink="http://www.w3.org/1999/xlink" version="1.1">
<metadata>
Created by FontForge 20170731 at Fri Sep 17 12:26:27 2021
 By Aleksey,,,
(c) 2010 - 2021 Adobe (http://www.adobe.com/), with Reserved Font Name `Source'
</metadata>
<defs>
<font id="SourceSans3-Medium" horiz-adv-x="0" >
  <font-face 
    font-family="Source Sans 3 Medium"
    font-weight="500"
    font-stretch="normal"
    units-per-em="1000"
    panose-1="2 11 3 3 3 4 3 2 2 4"
    ascent="800"
    descent="-200"
    x-height="488"
    cap-height="655"
    bbox="-622 -400 2158 1000"
    underline-thickness="50"
    underline-position="-125"
    unicode-range="U+0021-1F916"
  />
<missing-glyph horiz-adv-x="663" 
d="M86 0v660h490v-660h-490zM213 67h234l-65 118l-49 101h-4l-50 -101zM329 394h4l48 94l57 104h-214l57 -104zM160 122l119 218l-119 221v-439zM502 122v439l-118 -221z" />
    <glyph glyph-name="uniFB00" unicode="ff" horiz-adv-x="597" 
d="M94 0v542q0 51 17.5 89t53 59t90.5 21q26 0 50.5 -5t41.5 -13l-19 -74q-15 7 -30 10t-33 3q-34 0 -53 -23t-19 -68v-541h-99zM387 0v552q0 51 16 89t49.5 59t87.5 21q24 0 46.5 -5t38.5 -12l-20 -74q-13 7 -27 9.5t-27 2.5q-32 0 -48.5 -22t-16.5 -67v-553h-99zM22 409
v75l73 5h490v-80h-563z" />
    <glyph glyph-name="f_t.liga" unicode="ft" horiz-adv-x="618" 
d="M94 0v552q0 51 16 89t49.5 59t87.5 21q24 0 46.5 -5t38.5 -12l-20 -74q-13 7 -27 9.5t-27 2.5q-32 0 -48.5 -22t-16.5 -67v-553h-99zM509 -12q-81 0 -114 47t-33 123v251h-340v75l73 5h272l11 135h82v-135h129v-80h-129v-252q0 -43 17 -66.5t56 -23.5q13 0 27.5 4t25.5 8
l18 -73q-20 -7 -44.5 -12.5t-50.5 -5.5z" />
    <glyph glyph-name="f_f_t.liga" unicode="fft" horiz-adv-x="911" 
d="M94 0v542q0 51 17.5 89t53 59t90.5 21q26 0 50.5 -5t41.5 -13l-19 -74q-15 7 -30 10t-33 3q-34 0 -53 -23t-19 -68v-541h-99zM387 0v552q0 51 16 89t49.5 59t87.5 21q24 0 46.5 -5t38.5 -12l-20 -74q-13 7 -27 9.5t-27 2.5q-32 0 -48.5 -22t-16.5 -67v-553h-99zM801 -12
q-81 0 -113.5 47t-32.5 123v251h-633v75l73 5h564l12 135h82v-135h129v-80h-129v-252q0 -43 17 -66.5t56 -23.5q13 0 27.5 4t25.5 8l18 -73q-20 -7 -45 -12.5t-51 -5.5z" />
    <glyph glyph-name=".notdef" horiz-adv-x="663" 
d="M86 0v660h490v-660h-490zM213 67h234l-65 118l-49 101h-4l-50 -101zM329 394h4l48 94l57 104h-214l57 -104zM160 122l119 218l-119 221v-439zM502 122v439l-118 -221z" />
    <glyph glyph-name=".null" 
 />
    <glyph glyph-name="nonmarkingreturn" horiz-adv-x="333" 
 />
    <glyph glyph-name="uni00A0" unicode="&#xa0;" horiz-adv-x="200" 
 />
    <glyph glyph-name="uni00A0" unicode=" " horiz-adv-x="200" 
 />
    <glyph glyph-name="exclam" unicode="!" horiz-adv-x="302" 
d="M118 207l-14 359l-3 104h100l-3 -104l-14 -359h-66zM151 -12q-27 0 -47 20t-20 50q0 32 20 51.5t47 19.5q29 0 48 -19.5t19 -51.5q0 -30 -19 -50t-48 -20z" />
    <glyph glyph-name="quotedbl" unicode="&#x22;" horiz-adv-x="454" 
d="M102 412l-20 175l-3 102h103l-3 -102l-19 -175h-58zM294 412l-20 175l-3 102h103l-3 -102l-19 -175h-58z" />
    <glyph glyph-name="numbersign" unicode="#" horiz-adv-x="505" 
d="M86 0l24 195h-77v75h85l17 131h-82v75h90l23 174h70l-23 -174h115l24 174h69l-23 -174h79v-75h-87l-17 -131h84v-75h-92l-24 -195h-69l23 195h-115l-24 -195h-70zM187 270h116l17 131h-115z" />
    <glyph glyph-name="dollar" unicode="$" horiz-adv-x="505" 
d="M245 -12q-57 0 -109 21.5t-88 60.5l47 61q32 -30 69.5 -46t80.5 -16q52 0 78 27t26 72q0 32 -20 55t-51.5 42t-66.5 38t-66.5 42t-51.5 54t-20 76q0 52 23.5 91.5t65.5 61t97 21.5q60 0 102 -22t73 -59l-52 -53q-24 26 -53 39.5t-68 13.5q-42 0 -67 -24t-25 -64
q0 -30 20 -51.5t51.5 -39t66.5 -36t66.5 -41.5t51.5 -56t20 -81q0 -55 -24.5 -97.5t-69 -66t-106.5 -23.5zM220 -110v135h70v-135h-70zM220 615v132h70v-132h-70z" />
    <glyph glyph-name="percent" unicode="%" horiz-adv-x="833" 
d="M185 253q-46 0 -80 24.5t-53.5 71t-19.5 112.5q0 99 42.5 152.5t110.5 53.5t110 -53.5t42 -152.5q0 -66 -19 -112.5t-53.5 -71t-79.5 -24.5zM185 312q35 0 57.5 36.5t22.5 112.5t-22.5 111.5t-57.5 35.5t-57.5 -35.5t-22.5 -111.5t22.5 -112.5t57.5 -36.5zM205 -12
l359 679h63l-359 -679h-63zM648 -12q-46 0 -80 24.5t-53.5 71t-19.5 112.5q0 99 42.5 152.5t110.5 53.5t110 -53.5t42 -152.5q0 -66 -19 -112.5t-53.5 -71t-79.5 -24.5zM648 47q35 0 57.5 36.5t22.5 112.5t-22.5 111.5t-57.5 35.5t-57.5 -35.5t-22.5 -111.5t22.5 -112.5
t57.5 -36.5z" />
    <glyph glyph-name="ampersand" unicode="&#x26;" horiz-adv-x="624" 
d="M239 -12q-61 0 -108.5 22.5t-74 63.5t-26.5 97q0 50 22 87t56 65t72.5 51.5t73 46.5t56 50t21.5 61q0 27 -13.5 47t-44.5 20q-32 0 -53 -25.5t-21 -64.5q0 -45 23 -94.5t61 -99t85 -93.5t94 -79q40 -29 79 -47t67 -27l-25 -81q-42 11 -87.5 33.5t-92.5 57.5
q-56 41 -107.5 93.5t-92.5 110.5t-64.5 115.5t-23.5 109.5q0 44 19.5 80t55 57.5t83.5 21.5q64 0 100 -37t36 -97q0 -43 -20.5 -76.5t-52.5 -61t-68.5 -52.5t-69 -50t-53 -53.5t-20.5 -62.5q0 -36 16.5 -60.5t44 -38t60.5 -13.5q40 0 77.5 21t69.5 54q40 42 69.5 97
t47.5 120h91q-20 -72 -55 -139t-85 -124q-41 -47 -94.5 -76.5t-127.5 -29.5z" />
    <glyph glyph-name="quotesingle" unicode="'" horiz-adv-x="262" 
d="M102 412l-20 175l-3 102h103l-3 -102l-19 -175h-58z" />
    <glyph glyph-name="parenleft" unicode="(" horiz-adv-x="314" 
d="M211 -177q-62 102 -97 212.5t-35 242.5t35 243t97 212l62 -28q-57 -95 -84.5 -205t-27.5 -222t27.5 -221.5t84.5 -205.5z" />
    <glyph glyph-name="parenright" unicode=")" horiz-adv-x="314" 
d="M102 -177l-61 28q57 96 84.5 205.5t27.5 221.5t-27.5 222t-84.5 205l61 28q63 -101 97.5 -212t34.5 -243t-34.5 -242.5t-97.5 -212.5z" />
    <glyph glyph-name="asterisk" unicode="*" horiz-adv-x="428" 
d="M141 402l-46 33l57 96l-99 43l17 52l106 -25l10 111h56l10 -110l106 24l17 -52l-100 -43l57 -96l-45 -33l-73 86z" />
    <glyph glyph-name="plus" unicode="+" horiz-adv-x="505" 
d="M214 101v193h-180v72h180v193h77v-193h180v-72h-180v-193h-77z" />
    <glyph glyph-name="comma" unicode="," horiz-adv-x="262" 
d="M70 -176l-23 56q46 19 71 51.5t25 72.5l-7 80l42 -66q-9 -9 -20.5 -13t-24.5 -4q-26 0 -46.5 16.5t-20.5 47.5q0 29 21 46.5t48 17.5q38 0 58 -28.5t20 -79.5q0 -68 -38 -120t-105 -77z" />
    <glyph glyph-name="uni2011" unicode="&#x2011;" horiz-adv-x="316" 
d="M42 215v73h233v-73h-233z" />
    <glyph glyph-name="uni2011" unicode="&#x2010;" horiz-adv-x="316" 
d="M42 215v73h233v-73h-233z" />
    <glyph glyph-name="uni2011" unicode="&#xad;" horiz-adv-x="316" 
d="M42 215v73h233v-73h-233z" />
    <glyph glyph-name="uni2011" unicode="-" horiz-adv-x="316" 
d="M42 215v73h233v-73h-233z" />
    <glyph glyph-name="period" unicode="." horiz-adv-x="262" 
d="M131 -12q-27 0 -47 20t-20 50q0 32 20 51.5t47 19.5q29 0 48 -19.5t19 -51.5q0 -30 -19 -50t-48 -20z" />
    <glyph glyph-name="slash" unicode="/" horiz-adv-x="347" 
d="M11 -160l250 870h69l-250 -870h-69z" />
    <glyph glyph-name="zero" unicode="0" horiz-adv-x="505" 
d="M252 -12q-97 0 -153.5 86t-56.5 247t56.5 244.5t153.5 83.5q98 0 154.5 -84t56.5 -244q0 -161 -56.5 -247t-154.5 -86zM252 66q34 0 60 25.5t41 81.5t15 148t-15 147t-41 79t-60 24q-33 0 -59.5 -24t-41 -79t-14.5 -147t14.5 -148t41 -81.5t59.5 -25.5z" />
    <glyph glyph-name="one" unicode="1" horiz-adv-x="505" 
d="M76 0v81h145v444h-117v62q45 9 79 21t62 29h74v-556h129v-81h-372z" />
    <glyph glyph-name="two" unicode="2" horiz-adv-x="505" 
d="M39 0v61q92 87 157.5 157.5t101 127.5t35.5 107q0 53 -28 85t-85 32q-38 0 -70.5 -21.5t-59.5 -52.5l-54 53q41 47 87.5 73.5t109.5 26.5q59 0 103.5 -23.5t68.5 -66.5t24 -100q0 -61 -33.5 -120.5t-91.5 -123t-130 -137.5q26 3 54.5 4.5t52.5 1.5h179v-84h-421z" />
    <glyph glyph-name="three" unicode="3" horiz-adv-x="505" 
d="M238 -12q-51 0 -91 12.5t-70 33t-52 44.5l48 64q29 -29 67 -51t90 -22q55 0 90 29t35 78q0 35 -18 61.5t-60.5 41t-116.5 14.5v74q65 0 102.5 14.5t54 39t16.5 56.5q0 43 -27.5 68t-74.5 25q-38 0 -70.5 -17t-61.5 -46l-52 62q40 36 85.5 58t102.5 22q58 0 102.5 -19.5
t70 -56t25.5 -89.5q0 -55 -31 -92t-83 -57v-4q38 -9 69 -30.5t49 -54t18 -75.5q0 -58 -29.5 -98.5t-78.5 -62.5t-109 -22z" />
    <glyph glyph-name="four" unicode="4" horiz-adv-x="505" 
d="M301 0v412q0 26 2 63.5t3 63.5h-4q-12 -23 -25 -46t-27 -48l-132 -198h360v-77h-460v66l262 401h114v-637h-93z" />
    <glyph glyph-name="five" unicode="5" horiz-adv-x="505" 
d="M238 -12q-52 0 -91.5 12.5t-69.5 32.5t-53 43l47 64q29 -28 66 -49.5t89 -21.5q37 0 67 16.5t47 46t17 71.5q0 61 -34.5 95t-91.5 34q-31 0 -54 -9t-52 -28l-49 32l20 310h330v-84h-244l-15 -172q22 12 43 18t48 6q55 0 100 -21.5t72 -65.5t27 -112q0 -70 -31 -118.5
t-81 -74t-107 -25.5z" />
    <glyph glyph-name="six" unicode="6" horiz-adv-x="505" 
d="M272 -12q-47 0 -88 19t-71.5 57t-48.5 96t-18 137q0 94 20.5 161t55 109t78.5 62t93 20q54 0 94 -20t68 -50l-54 -60q-19 22 -46.5 35.5t-56.5 13.5q-44 0 -80 -26t-58 -85t-22 -160q0 -79 16 -130.5t46 -77t71 -25.5q28 0 51.5 16t37.5 45t14 70q0 39 -12.5 67t-37 42.5
t-59.5 14.5q-30 0 -64 -19t-64 -66l-4 73q29 40 70 62.5t79 22.5q55 0 96.5 -22t64.5 -65.5t23 -109.5q0 -63 -27 -109t-71 -72t-96 -26z" />
    <glyph glyph-name="seven" unicode="7" horiz-adv-x="505" 
d="M166 0q4 87 16 160.5t34 138.5t56 127t82 127h-310v84h419v-60q-57 -72 -94 -136.5t-57.5 -130.5t-30.5 -141t-14 -169h-101z" />
    <glyph glyph-name="eight" unicode="8" horiz-adv-x="505" 
d="M254 -12q-61 0 -109.5 22.5t-76 62t-27.5 90.5q0 41 17 72.5t43.5 55.5t56.5 40v4q-35 25 -61.5 61t-26.5 87q0 50 24.5 87.5t66.5 58t95 20.5q85 0 134.5 -47.5t49.5 -123.5q0 -32 -13.5 -61t-33 -51.5t-40.5 -37.5v-4q29 -16 54.5 -38t41 -53t15.5 -73q0 -49 -26 -87.5
t-73.5 -61.5t-110.5 -23zM297 353q29 28 44.5 57.5t15.5 61.5q0 30 -12 54t-35 38t-55 14q-41 0 -68.5 -26t-27.5 -69q0 -35 19 -58.5t50.5 -40t68.5 -31.5zM255 60q34 0 60 12.5t40.5 35.5t14.5 55q0 38 -22 62t-59 41.5t-81 35.5q-34 -23 -56.5 -56t-22.5 -73
q0 -34 16.5 -59.5t45.5 -39.5t64 -14z" />
    <glyph glyph-name="nine" unicode="9" horiz-adv-x="505" 
d="M211 -12q-54 0 -94 20.5t-68 49.5l54 60q19 -21 46.5 -35t56.5 -14q44 0 80 26t58 85t22 160q0 79 -16 130.5t-46 77t-71 25.5q-29 0 -52 -16t-37 -45t-14 -70q0 -39 12.5 -67t37 -42.5t59.5 -14.5q30 0 64 19.5t64 65.5l4 -73q-29 -39 -70 -62t-79 -23q-55 0 -96.5 22
t-64.5 65.5t-23 109.5q0 63 26.5 109.5t71 72t96.5 25.5q47 0 88 -18.5t71.5 -57t48.5 -96.5t18 -137q0 -94 -20.5 -161t-55 -109t-78.5 -62t-93 -20z" />
    <glyph glyph-name="colon" unicode=":" horiz-adv-x="262" 
d="M131 339q-27 0 -47 20t-20 50q0 32 20 51.5t47 19.5q29 0 48 -19.5t19 -51.5q0 -30 -19 -50t-48 -20zM131 -12q-27 0 -47 20t-20 50q0 32 20 51.5t47 19.5q29 0 48 -19.5t19 -51.5q0 -30 -19 -50t-48 -20z" />
    <glyph glyph-name="semicolon" unicode=";" horiz-adv-x="262" 
d="M131 339q-27 0 -47 20t-20 50q0 32 20 51.5t47 19.5q29 0 48 -19.5t19 -51.5q0 -30 -19 -50t-48 -20zM70 -176l-23 56q46 19 71 51.5t25 72.5l-7 80l42 -66q-9 -9 -20.5 -13t-24.5 -4q-26 0 -46.5 16.5t-20.5 47.5q0 29 21 46.5t48 17.5q38 0 58 -28.5t20 -79.5
q0 -68 -38 -120t-105 -77z" />
    <glyph glyph-name="less" unicode="&#x3c;" horiz-adv-x="505" 
d="M471 124l-437 171v74l437 171v-84l-202 -73l-134 -49v-4l134 -49l202 -73v-84z" />
    <glyph glyph-name="equal" unicode="=" horiz-adv-x="505" 
d="M34 404v72h437v-72h-437zM34 184v72h437v-72h-437z" />
    <glyph glyph-name="greater" unicode="&#x3e;" horiz-adv-x="505" 
d="M34 124v84l202 73l134 49v4l-134 49l-202 73v84l437 -171v-74z" />
    <glyph glyph-name="question" unicode="?" horiz-adv-x="435" 
d="M158 207q-6 45 5.5 80.5t32.5 64.5t43 54.5t38 51t16 55.5q0 25 -10.5 45t-30.5 31.5t-48 11.5q-32 0 -59 -14.5t-50 -40.5l-56 51q33 37 77 61t99 24q52 0 91 -19t60.5 -55.5t21.5 -88.5q0 -38 -15.5 -69t-38.5 -58t-45 -54.5t-35 -59t-9 -71.5h-87zM203 -12
q-27 0 -47 20t-20 50q0 32 20 51.5t47 19.5q29 0 48 -19.5t19 -51.5q0 -30 -19 -50t-48 -20z" />
    <glyph glyph-name="at" unicode="@" horiz-adv-x="861" 
d="M409 -160q-73 0 -138 23t-114.5 69t-78 114.5t-28.5 157.5q0 101 34 184t93 142t136 90.5t163 31.5q103 0 178 -42.5t116 -118.5t41 -177q0 -67 -18.5 -117.5t-48.5 -85t-66.5 -51.5t-73.5 -17q-42 0 -71.5 20t-35.5 60h-2q-22 -33 -55 -52.5t-67 -19.5q-54 0 -90 39
t-36 108q0 42 14.5 84t40.5 77t62.5 56t80.5 21q27 0 46.5 -12.5t33.5 -38.5h2l12 42h63l-40 -207q-12 -56 1 -81.5t50 -25.5q29 0 57 24.5t46.5 68.5t18.5 105q0 56 -16.5 104.5t-50 85t-83.5 56.5t-117 20q-64 0 -124.5 -26t-108.5 -74.5t-76.5 -116.5t-28.5 -153
q0 -70 22 -124.5t61 -92t91 -56.5t112 -19q44 0 84 11t73 28l28 -63q-45 -25 -92 -38t-100 -13zM394 123q19 0 40.5 12.5t45.5 41.5l27 152q-12 19 -26.5 27.5t-33.5 8.5q-35 0 -61 -25.5t-40 -62.5t-14 -73q0 -43 17 -62t45 -19z" />
    <glyph glyph-name="A" unicode="A" horiz-adv-x="551" 
d="M0 0l218 655h115l217 -655h-105l-107 357q-17 54 -32.5 109t-29.5 110h-4q-14 -56 -29.5 -110.5t-32.5 -108.5l-108 -357h-102zM122 188v79h305v-79h-305z" />
    <glyph glyph-name="B" unicode="B" horiz-adv-x="592" 
d="M86 0v655h202q67 0 119 -15.5t81.5 -51t29.5 -94.5q0 -50 -24 -88.5t-69 -53.5v-4q59 -11 94 -49t35 -103q0 -67 -32 -110t-88.5 -64.5t-129.5 -21.5h-218zM186 381h90q76 0 110 27t34 73q0 52 -35.5 74t-105.5 22h-93v-196zM186 78h106q79 0 121.5 29t42.5 90
q0 56 -42 82t-122 26h-106v-227z" />
    <glyph glyph-name="C" unicode="C" horiz-adv-x="573" 
d="M343 -12q-83 0 -149.5 39.5t-105 115.5t-38.5 183q0 80 22.5 143.5t63 107.5t94 67t115.5 23q61 0 108 -24t77 -58l-54 -61q-25 27 -57 41.5t-71 14.5q-57 0 -101 -31t-69 -87t-25 -133q0 -79 24 -136t68.5 -87.5t103.5 -30.5q44 0 79 17.5t64 48.5l51 -59
q-39 -45 -88.5 -69.5t-111.5 -24.5z" />
    <glyph glyph-name="D" unicode="D" horiz-adv-x="620" 
d="M86 0v655h170q100 0 170 -37t107 -109.5t37 -178.5t-36.5 -179.5t-105.5 -112t-167 -38.5h-175zM186 81h63q71 0 120 28.5t73.5 83.5t24.5 137t-24.5 136t-73.5 81t-120 27h-63v-493z" />
    <glyph glyph-name="E" unicode="E" horiz-adv-x="532" 
d="M86 0v655h386v-84h-286v-187h242v-84h-242v-216h296v-84h-396z" />
    <glyph glyph-name="F" unicode="F" horiz-adv-x="502" 
d="M86 0v655h387v-84h-287v-203h244v-85h-244v-283h-100z" />
    <glyph glyph-name="G" unicode="G" horiz-adv-x="622" 
d="M352 -12q-87 0 -155.5 39.5t-107.5 115.5t-39 183q0 80 23.5 143t64.5 107.5t97 67.5t121 23q69 0 116.5 -25t76.5 -57l-54 -61q-24 25 -56.5 40.5t-79.5 15.5q-63 0 -109 -30.5t-71.5 -86.5t-25.5 -134t24 -135t70.5 -88t114.5 -31q32 0 60.5 9t45.5 25v156h-131v82h221
v-282q-32 -33 -85.5 -55t-120.5 -22z" />
    <glyph glyph-name="H" unicode="H" horiz-adv-x="657" 
d="M86 0v655h100v-269h285v269h100v-655h-100v299h-285v-299h-100z" />
    <glyph glyph-name="I" unicode="I" horiz-adv-x="272" 
d="M86 0v655h100v-655h-100z" />
    <glyph glyph-name="J" unicode="J" horiz-adv-x="487" 
d="M210 -12q-62 0 -107 27t-74 82l66 45q19 -34 46.5 -50.5t60.5 -16.5q52 0 76.5 31t24.5 105v444h100v-453q0 -59 -20 -107.5t-62.5 -77.5t-110.5 -29z" />
    <glyph glyph-name="K" unicode="K" horiz-adv-x="588" 
d="M86 0v655h100v-313h3l253 313h112l-204 -252l236 -403h-110l-187 324l-103 -125v-199h-100z" />
    <glyph glyph-name="L" unicode="L" horiz-adv-x="494" 
d="M86 0v655h100v-571h279v-84h-379z" />
    <glyph glyph-name="M" unicode="M" horiz-adv-x="736" 
d="M86 0v655h122l118 -335q12 -32 22 -64t19 -69h4q10 37 19.5 69t19.5 64l118 335h122v-655h-93v329q0 30 2 68t5.5 76t7.5 67h-4l-52 -162l-115 -315h-69l-115 315l-50 162h-4q4 -29 7 -67t5 -76t2 -68v-329h-91z" />
    <glyph glyph-name="N" unicode="N" horiz-adv-x="652" 
d="M86 0v655h109l215 -384q18 -33 35 -70t33 -74h4q-4 52 -8 107t-4 108v313h95v-655h-109l-215 384q-18 33 -35.5 70t-33.5 74h-4q5 -50 9.5 -104.5t4.5 -108.5v-315h-96z" />
    <glyph glyph-name="O" unicode="O" horiz-adv-x="669" 
d="M334 -12q-83 0 -147 41.5t-100.5 118.5t-36.5 182q0 106 36.5 181.5t100.5 115.5t147 40q85 0 149 -40t100 -115.5t36 -181.5q0 -105 -36 -182t-100 -118.5t-149 -41.5zM334 75q56 0 96.5 31.5t63 89t22.5 134.5q0 78 -22.5 133.5t-63 86t-96.5 30.5q-54 0 -95 -30.5
t-63.5 -86t-22.5 -133.5q0 -77 22.5 -134.5t63.5 -89t95 -31.5z" />
    <glyph glyph-name="P" unicode="P" horiz-adv-x="574" 
d="M86 0v655h197q73 0 129 -18.5t88.5 -62t32.5 -116.5q0 -71 -31.5 -117t-87.5 -68.5t-127 -22.5h-101v-250h-100zM186 331h91q80 0 118.5 31t38.5 96q0 66 -40.5 91.5t-120.5 25.5h-87v-244z" />
    <glyph glyph-name="Q" unicode="Q" horiz-adv-x="669" 
d="M335 -12q-84 0 -148 41.5t-100.5 118.5t-36.5 182q0 106 36.5 181.5t100.5 115.5t148 40q83 0 147.5 -40t100.5 -115.5t36 -181.5q0 -105 -36 -182t-100.5 -118.5t-147.5 -41.5zM335 70q55 0 95.5 32t63 90t22.5 138q0 78 -22.5 134t-63 86t-95.5 30t-96 -30t-63.5 -86
t-22.5 -134q0 -80 22.5 -138t63.5 -90t96 -32zM539 -169q-97 0 -162.5 49t-93.5 123l102 9q13 -34 38 -56t57.5 -32.5t69.5 -10.5q22 0 39 2.5t31 6.5l18 -74q-15 -7 -41 -12t-58 -5z" />
    <glyph glyph-name="R" unicode="R" horiz-adv-x="580" 
d="M86 0v655h213q68 0 121 -17.5t84 -59.5t31 -112q0 -68 -31 -112t-84 -65.5t-121 -21.5h-113v-267h-100zM186 347h101q73 0 111 29.5t38 89.5t-38 84.5t-111 24.5h-101v-228zM445 0l-165 293l75 57l202 -350h-112z" />
    <glyph glyph-name="S" unicode="S" horiz-adv-x="539" 
d="M273 -12q-69 0 -128 25.5t-105 71.5l55 65q35 -35 82.5 -55t97.5 -20q60 0 92.5 26t32.5 70q0 30 -13.5 48.5t-37.5 31t-54 25.5l-92 40q-32 14 -62.5 36t-50.5 55t-20 81q0 51 27.5 91.5t75.5 64t111 23.5q59 0 110 -22t87 -58l-53 -64q-31 26 -67.5 41.5t-76.5 15.5
q-51 0 -82 -23t-31 -63q0 -29 15.5 -47t40.5 -30l50 -24l91 -39q40 -16 70 -39t47 -55.5t17 -81.5q0 -52 -27 -95.5t-78.5 -69t-123.5 -25.5z" />
    <glyph glyph-name="T" unicode="T" horiz-adv-x="541" 
d="M221 0v571h-194v84h487v-84h-194v-571h-99z" />
    <glyph glyph-name="U" unicode="U" horiz-adv-x="650" 
d="M325 -12q-53 0 -97.5 15t-76.5 49t-50 89t-18 133v381h100v-386q0 -74 18.5 -116t51 -60t72.5 -18q42 0 75 18t52 60t19 116v386h96v-381q0 -78 -17.5 -133t-50 -89t-76.5 -49t-98 -15z" />
    <glyph glyph-name="V" unicode="V" horiz-adv-x="526" 
d="M201 0l-203 655h106l95 -342q10 -38 20 -72.5t19.5 -69t20.5 -72.5h4q11 38 20.5 72.5t19.5 69t21 72.5l102 342h101l-209 -655h-117z" />
    <glyph glyph-name="W" unicode="W" horiz-adv-x="793" 
d="M151 0l-131 655h107l62 -343q8 -53 16 -105.5t16 -109.5h4q9 57 20 109.5t22 105.5l82 343h99l81 -343q11 -52 22.5 -105t21.5 -110h4q7 57 15 109.5t16 105.5l63 343h101l-131 -655h-130l-85 369q-7 37 -14 74.5t-13 81.5h-4q-5 -44 -12 -81.5t-15 -74.5l-86 -369h-131z
" />
    <glyph glyph-name="X" unicode="X" horiz-adv-x="527" 
d="M14 0l189 338l-177 317h111l81 -156q12 -22 23.5 -45.5t26.5 -52.5h4q13 29 23.5 52.5t21.5 45.5l78 156h106l-176 -322l188 -333h-110l-89 166q-12 25 -25.5 50t-28.5 55h-4q-13 -30 -25.5 -55t-24.5 -50l-86 -166h-106z" />
    <glyph glyph-name="Y" unicode="Y" horiz-adv-x="488" 
d="M194 0v249l-196 406h106l78 -176q15 -37 29.5 -71.5t31.5 -72.5h4q16 38 32 72.5t30 71.5l78 176h104l-197 -406v-249h-100z" />
    <glyph glyph-name="Z" unicode="Z" horiz-adv-x="540" 
d="M42 0v60l331 511h-301v84h425v-59l-331 -512h334v-84h-458z" />
    <glyph glyph-name="bracketleft" unicode="[" horiz-adv-x="314" 
d="M92 -152v860h187v-55h-112v-750h112v-55h-187z" />
    <glyph glyph-name="backslash" unicode="\" horiz-adv-x="347" 
d="M268 -160l-251 870h69l251 -870h-69z" />
    <glyph glyph-name="bracketright" unicode="]" horiz-adv-x="314" 
d="M34 -152v55h113v750h-113v55h187v-860h-187z" />
    <glyph glyph-name="asciicircum" unicode="^" horiz-adv-x="505" 
d="M57 281l153 389h85l153 -389h-85l-60 164l-49 134h-4l-48 -134l-60 -164h-85z" />
    <glyph glyph-name="underscore" unicode="_" horiz-adv-x="500" 
d="M12 -129v62h476v-62h-476z" />
    <glyph glyph-name="grave" unicode="`" horiz-adv-x="546" 
d="M274 570l-159 159l5 10h107l126 -169h-79z" />
    <glyph glyph-name="a" unicode="a" horiz-adv-x="510" 
d="M193 -12q-42 0 -74.5 17t-51 49t-18.5 75q0 83 70.5 125t223.5 59q0 27 -8.5 51.5t-29.5 39t-57 14.5q-39 0 -74.5 -14t-67.5 -33l-37 67q25 16 56 30.5t66.5 23t74.5 8.5q60 0 99 -24.5t58 -70.5t19 -111v-294h-82l-7 56h-4q-34 -28 -72.5 -48t-83.5 -20zM223 69
q32 0 60.5 14.5t59.5 41.5v118q-74 -9 -117.5 -23.5t-62 -35t-18.5 -48.5q0 -36 22.5 -51.5t55.5 -15.5z" />
    <glyph glyph-name="b" unicode="b" horiz-adv-x="558" 
d="M304 -12q-34 0 -69 16.5t-67 46.5h-3l-9 -51h-78v709h98v-188l-3 -85q33 28 70.5 46.5t77.5 18.5q62 0 105 -31t65.5 -86.5t22.5 -131.5q0 -83 -29.5 -142.5t-77.5 -90.5t-103 -31zM285 70q36 0 65 21t45.5 61.5t16.5 98.5q0 51 -12 88.5t-38 58t-67 20.5
q-28 0 -57.5 -14.5t-61.5 -45.5v-242q29 -25 58 -35.5t51 -10.5z" />
    <glyph glyph-name="c" unicode="c" horiz-adv-x="459" 
d="M278 -12q-67 0 -120 30.5t-83.5 87.5t-30.5 138t33 138.5t88 87.5t118 30q48 0 83 -15.5t61 -39.5l-48 -62q-17 17 -39.5 26.5t-51.5 9.5q-41 0 -73 -22t-51 -61t-19 -92t18 -92t49.5 -61t74.5 -22q31 0 58 12t48 31l42 -61q-31 -29 -71 -46t-86 -17z" />
    <glyph glyph-name="d" unicode="d" horiz-adv-x="559" 
d="M246 -12q-91 0 -146 67.5t-55 188.5q0 79 29.5 136.5t77.5 89t102 31.5q43 0 73 -14.5t60 -41.5l-4 82v182h99v-709h-81l-8 55h-3q-28 -27 -65 -47t-79 -20zM269 70q32 0 59.5 15t54.5 46v242q-28 25 -54.5 35t-54.5 10q-35 0 -64 -21t-46 -60t-17 -92q0 -84 32 -129.5
t90 -45.5z" />
    <glyph glyph-name="e" unicode="e" horiz-adv-x="501" 
d="M282 -12q-68 0 -122 30.5t-85.5 87.5t-31.5 138q0 80 32 137.5t83 88t108 30.5q65 0 109 -29t66.5 -80.5t22.5 -120.5q0 -14 -1 -28t-4 -27h-344v77h261q0 62 -27 96t-81 34q-31 0 -60 -17t-48 -55.5t-19 -104.5q0 -60 21 -99.5t55.5 -58.5t75.5 -19q34 0 63.5 9t54.5 26
l35 -64q-33 -23 -74.5 -37t-89.5 -14z" />
    <glyph glyph-name="f" unicode="f" horiz-adv-x="304" 
d="M94 0v552q0 51 16 89t49.5 59t87.5 21q24 0 47 -5t38 -12l-21 -71q-27 9 -53 9q-32 0 -48.5 -22t-16.5 -67v-553h-99zM22 409v75l78 5h192v-80h-270z" />
    <glyph glyph-name="g" unicode="g" horiz-adv-x="512" 
d="M245 -220q-59 0 -105 14.5t-72 43t-26 71.5q0 31 19 58.5t52 48.5v4q-18 13 -31 32.5t-13 48.5q0 30 17.5 53.5t36.5 37.5v4q-24 19 -43.5 53t-19.5 77q0 55 26 94t68.5 60t93.5 21q20 0 38.5 -3.5t31.5 -8.5h173v-75h-97v-4q16 -15 26 -37t10 -51q0 -53 -24.5 -90
t-65.5 -57t-92 -20q-17 0 -35 4t-35 11q-11 -10 -19 -22t-8 -31q0 -21 18 -34.5t64 -13.5h91q87 0 131 -28.5t44 -90.5q0 -47 -31 -85.5t-88 -61.5t-135 -23zM248 219q26 0 47 13t34 37t13 57q0 50 -27.5 77.5t-66.5 27.5q-40 0 -67.5 -27.5t-27.5 -77.5q0 -33 13 -57
t34.5 -37t47.5 -13zM260 -155q43 0 75 12.5t50 33t18 44.5q0 31 -23.5 42.5t-68.5 11.5h-76q-16 0 -32.5 2t-32.5 5q-22 -16 -32.5 -34.5t-10.5 -38.5q0 -36 35.5 -57t97.5 -21z" />
    <glyph glyph-name="h" unicode="h" horiz-adv-x="551" 
d="M78 0v709h98v-188l-4 -98q33 31 71.5 54.5t88.5 23.5q78 0 114 -50t36 -143v-308h-99v295q0 65 -20 93t-64 28q-35 0 -62 -17.5t-61 -50.5v-348h-98z" />
    <glyph glyph-name="i" unicode="i" horiz-adv-x="254" 
d="M77 0v488h99v-488h-99zM126 582q-27 0 -44.5 16.5t-17.5 43.5q0 26 17.5 42.5t44.5 16.5q28 0 45 -16.5t17 -42.5q0 -27 -17 -43.5t-45 -16.5z" />
    <glyph glyph-name="j" unicode="j" horiz-adv-x="255" 
d="M33 -211q-24 0 -43 4t-33 10l19 73q10 -3 22 -6t22 -3q35 0 46.5 24.5t11.5 67.5v529h100v-528q0 -51 -14.5 -89.5t-46 -60t-84.5 -21.5zM127 582q-27 0 -44.5 16.5t-17.5 43.5q0 26 17.5 42.5t44.5 16.5q28 0 45 -16.5t17 -42.5q0 -27 -17 -43.5t-45 -16.5z" />
    <glyph glyph-name="k" unicode="k" horiz-adv-x="508" 
d="M78 0v709h97v-460h3l193 240h110l-165 -199l184 -290h-108l-134 223l-83 -96v-127h-97z" />
    <glyph glyph-name="l" unicode="l" horiz-adv-x="263" 
d="M177 -10q-36 0 -58 15t-32 42.5t-10 66.5v595h99v-601q0 -21 7.5 -28.5t17.5 -7.5q4 0 7.5 0.5t9.5 1.5l13 -74q-9 -4 -22.5 -7t-31.5 -3z" />
    <glyph glyph-name="m" unicode="m" horiz-adv-x="836" 
d="M78 0v489h81l8 -69h3q31 34 68.5 57.5t82.5 23.5q55 0 87 -24.5t48 -66.5q36 40 74.5 65.5t84.5 25.5q77 0 113 -50t36 -143v-308h-98v295q0 65 -20 93t-63 28q-26 0 -53.5 -17t-59.5 -51v-348h-98v295q0 65 -20 93t-63 28q-51 0 -113 -68v-348h-98z" />
    <glyph glyph-name="n" unicode="n" horiz-adv-x="553" 
d="M78 0v489h81l8 -69h3q34 34 73 57.5t89 23.5q78 0 114 -50t36 -143v-308h-99v295q0 65 -20 93t-64 28q-35 0 -62 -17.5t-61 -50.5v-348h-98z" />
    <glyph glyph-name="o" unicode="o" horiz-adv-x="546" 
d="M273 -12q-61 0 -113 30t-84.5 87.5t-32.5 138.5t32.5 138.5t84.5 88t113 30.5q60 0 112 -30.5t84.5 -88t32.5 -138.5t-32.5 -138.5t-84.5 -87.5t-112 -30zM273 69q39 0 67.5 22t44.5 61t16 92q0 52 -16 91.5t-44.5 61.5t-67.5 22t-67.5 -22t-44.5 -61.5t-16 -91.5
q0 -53 16 -92t44.5 -61t67.5 -22z" />
    <glyph glyph-name="p" unicode="p" horiz-adv-x="559" 
d="M78 -200v689h81l8 -55h3q32 28 71 47.5t80 19.5q62 0 105 -31t65.5 -87t22.5 -131q0 -84 -29.5 -143t-77.5 -90t-103 -31q-33 0 -66 14.5t-65 40.5l3 -83v-160h-98zM285 70q36 0 65 21t45.5 61.5t16.5 98.5q0 51 -12 88.5t-38 58t-67 20.5q-28 0 -57 -14.5t-62 -45.5
v-242q30 -25 58.5 -35.5t50.5 -10.5z" />
    <glyph glyph-name="q" unicode="q" horiz-adv-x="559" 
d="M383 -200v168l4 84q-28 -26 -64 -45t-77 -19q-91 0 -146 67.5t-55 188.5q0 79 29.5 136.5t77.5 89t102 31.5q43 0 75 -15t63 -44h3l8 47h79v-689h-99zM269 70q32 0 59.5 15t54.5 46v242q-28 25 -54.5 35t-54.5 10q-35 0 -64 -21t-46 -60t-17 -92q0 -84 32 -129.5
t90 -45.5z" />
    <glyph glyph-name="r" unicode="r" horiz-adv-x="360" 
d="M78 0v489h81l8 -88h3q25 47 61 73.5t78 26.5q17 0 29.5 -2.5t23.5 -7.5l-20 -84q-11 3 -21 4.5t-25 1.5q-30 0 -63 -24t-57 -83v-306h-98z" />
    <glyph glyph-name="s" unicode="s" horiz-adv-x="425" 
d="M210 -12q-53 0 -101 18.5t-83 52.5l44 57q33 -26 67 -39.5t76 -13.5q44 0 65.5 20t21.5 48q0 22 -15.5 37.5t-39.5 26t-51 20.5q-36 13 -68.5 31.5t-52.5 45.5t-20 66q0 62 46.5 102.5t126.5 40.5q48 0 88.5 -16t69.5 -41l-45 -57q-25 19 -52 28.5t-59 9.5
q-41 0 -61 -18.5t-20 -43.5q0 -20 12.5 -33.5t35 -23.5t53.5 -21q38 -13 71.5 -31t54 -46t20.5 -72q0 -40 -21 -74t-62 -54t-101 -20z" />
    <glyph glyph-name="t" unicode="t" horiz-adv-x="350" 
d="M241 -10q-82 0 -115 47.5t-33 123.5v249h-71v74l76 4l12 156h82v-156h129v-78h-129v-250q0 -44 17 -67t55 -23q14 0 27 2.5t26 8.5l20 -69q-19 -10 -44 -16t-52 -6z" />
    <glyph glyph-name="u" unicode="u" horiz-adv-x="550" 
d="M222 -12q-78 0 -114 49.5t-36 142.5v308h98v-295q0 -64 20 -92t64 -28q35 0 62 18t58 57v340h98v-488h-80l-9 74h-2q-33 -39 -71 -62.5t-88 -23.5z" />
    <glyph glyph-name="v" unicode="v" horiz-adv-x="481" 
d="M185 0l-173 489h101l85 -266q10 -35 21 -72l22 -74h4l22 74t21 72l85 266h96l-169 -489h-115z" />
    <glyph glyph-name="w" unicode="w" horiz-adv-x="733" 
d="M157 0l-133 488h102l64 -267q9 -33 15.5 -67t11.5 -76h4q7 42 14 76t15 67l66 267h105l68 -267q8 -33 15.5 -67t14.5 -76h4q7 42 13.5 76t13.5 67l64 267h95l-128 -488h-126l-58 244q-8 34 -14.5 67.5t-13.5 78.5h-4q-7 -45 -13.5 -79t-15.5 -67l-57 -244h-122z" />
    <glyph glyph-name="x" unicode="x" horiz-adv-x="464" 
d="M14 0l157 255l-146 234h107l59 -100q11 -20 23 -41t24 -41h4l20.5 41l20.5 41l53 100h103l-147 -245l158 -244h-107l-66 105q-12 22 -25 44t-26 43h-4q-12 -21 -23.5 -42.5t-22.5 -44.5l-59 -105h-103z" />
    <glyph glyph-name="y" unicode="y" horiz-adv-x="481" 
d="M98 -206q-18 0 -33 3t-28 8l20 76q10 -3 18.5 -4.5t16.5 -1.5q40 0 65.5 27t38.5 67l10 34l-194 486h101l92 -255q11 -32 22.5 -67.5t22.5 -70.5h4q10 34 20 69.5t19 68.5l80 255h96l-180 -520q-19 -52 -44 -91t-60.5 -61.5t-86.5 -22.5z" />
    <glyph glyph-name="z" unicode="z" horiz-adv-x="434" 
d="M33 0v53l243 356h-216v80h341v-53l-244 -357h252v-79h-376z" />
    <glyph glyph-name="braceleft" unicode="{" horiz-adv-x="314" 
d="M230 -152q-62 0 -91 28.5t-29 107.5q0 36 2.5 66t4.5 58.5t2 61.5q0 30 -17.5 53.5t-68.5 24.5v60q34 1 52.5 12t26 28.5t7.5 36.5q0 33 -2 62t-4.5 59t-2.5 66q0 79 29 107.5t91 28.5h49v-55h-24q-38 0 -51.5 -19.5t-13.5 -66.5q0 -43 2.5 -84.5t2.5 -91.5
q0 -51 -14.5 -76.5t-48.5 -34.5v-4q34 -9 48.5 -35t14.5 -76q0 -49 -2.5 -90.5t-2.5 -85.5q0 -47 13.5 -66.5t51.5 -19.5h24v-55h-49z" />
    <glyph glyph-name="bar" unicode="|" horiz-adv-x="248" 
d="M90 -250v1000h68v-1000h-68z" />
    <glyph glyph-name="braceright" unicode="}" horiz-adv-x="314" 
d="M34 -152v55h25q38 0 51 19.5t13 66.5q0 44 -2.5 85.5t-2.5 90.5q0 50 15 76t49 35v4q-34 9 -49 34.5t-15 76.5q0 50 2.5 91.5t2.5 84.5q0 47 -13 66.5t-51 19.5h-25v55h50q61 0 90 -28.5t29 -107.5q0 -36 -2 -66t-4.5 -59t-2.5 -62q0 -19 7.5 -36.5t26.5 -28.5t52 -12
v-60q-50 -1 -68 -24.5t-18 -53.5q0 -33 2.5 -61.5t4.5 -58.5t2 -66q0 -79 -29 -107.5t-90 -28.5h-50z" />
    <glyph glyph-name="asciitilde" unicode="~" horiz-adv-x="505" 
d="M340 253q-30 0 -53.5 12.5t-44 28.5t-39.5 28.5t-40 12.5q-20 0 -39 -14.5t-36 -45.5l-54 39q30 50 64 71.5t67 21.5q31 0 54 -12.5t43 -28.5t39.5 -28.5t40.5 -12.5t39.5 15t35.5 45l54 -40q-30 -49 -64 -70.5t-67 -21.5z" />
    <glyph glyph-name="exclamdown" unicode="&#xa1;" horiz-adv-x="302" 
d="M101 -181l3 103l14 360h66l14 -360l3 -103h-100zM151 360q-27 0 -47 20t-20 51q0 30 20 50t47 20q29 0 48 -20t19 -50q0 -31 -19 -51t-48 -20z" />
    <glyph glyph-name="cent" unicode="&#xa2;" horiz-adv-x="505" 
d="M303 65q-71 0 -125.5 28.5t-85.5 83t-31 132.5t34 133t90.5 83.5t125.5 28.5q47 0 82.5 -17t60.5 -42l-47 -61q-20 19 -42.5 28.5t-48.5 9.5q-49 0 -84.5 -20t-54.5 -57t-19 -86q0 -74 41.5 -118.5t113.5 -44.5q33 0 60 13.5t48 30.5l42 -62q-34 -30 -75.5 -46.5
t-84.5 -16.5zM266 -35v689h59v-689h-59z" />
    <glyph glyph-name="sterling" unicode="&#xa3;" horiz-adv-x="505" 
d="M52 0v61q50 25 78 71t28 101q0 39 -11.5 77t-23.5 75.5t-12 74.5q0 58 24.5 100.5t67.5 65.5t100 23q56 0 95.5 -22t64.5 -58l-52 -50q-19 25 -42.5 37t-55.5 12q-51 0 -78.5 -31t-27.5 -81q0 -36 10 -71.5t19.5 -72.5t9.5 -79q0 -49 -14.5 -81.5t-42.5 -63.5v-4h275v-84
h-412zM53 281v61l67 4h264v-65h-331z" />
    <glyph glyph-name="currency" unicode="&#xa4;" horiz-adv-x="505" 
d="M76 98l-51 52l63 64q-17 24 -26.5 52.5t-9.5 62.5q0 35 9.5 63.5t25.5 51.5l-62 65l51 52l68 -69q49 34 108 34q60 0 109 -34l68 69l51 -52l-63 -65q17 -23 26.5 -51.5t9.5 -63.5q0 -34 -10 -62.5t-26 -52.5l63 -64l-51 -52l-69 69q-23 -17 -51 -25.5t-57 -8.5
q-60 0 -108 34zM252 205q31 0 56 15.5t40 43.5t15 65t-15 65.5t-40 44t-56 15.5q-30 0 -54.5 -15.5t-40 -44t-15.5 -65.5t15.5 -65t40 -43.5t54.5 -15.5z" />
    <glyph glyph-name="yen" unicode="&#xa5;" horiz-adv-x="505" 
d="M202 0v147h-160v61h160v62h-160v60h137l-158 307h102l71 -161q15 -33 28.5 -66t29.5 -68h4q15 35 29.5 68t28.5 66l71 161h99l-159 -307h137v-60h-160v-62h160v-61h-160v-147h-100z" />
    <glyph glyph-name="brokenbar" unicode="&#xa6;" horiz-adv-x="248" 
d="M90 296v454h68v-454h-68zM90 -250v461h68v-461h-68z" />
    <glyph glyph-name="section" unicode="&#xa7;" horiz-adv-x="505" 
d="M237 -69q-53 0 -100 19.5t-78 54.5l58 53q25 -24 54 -38t66 -14q38 0 58.5 18t20.5 44t-19.5 44t-50.5 32t-66.5 29t-66.5 36t-50.5 52.5t-19.5 77.5q0 49 31.5 85.5t79.5 55.5l48 -46q-34 -15 -54 -35.5t-20 -53.5q0 -31 20 -52t52 -36.5t67.5 -30.5t67 -34.5
t51.5 -47.5t20 -71q0 -41 -21 -73t-59 -50.5t-89 -18.5zM353 140l-55 46q39 16 58.5 35.5t19.5 54.5q0 33 -20 54.5t-52 37.5t-68 31t-67.5 33.5t-52 47t-20.5 70.5q0 37 18.5 68t53.5 49.5t86 18.5t92 -18t70 -42l-47 -63q-24 20 -51 33.5t-59 13.5q-38 0 -55.5 -16.5
t-17.5 -39.5q0 -25 20 -42.5t51.5 -31.5t66.5 -29.5t66.5 -37t51.5 -52.5t20 -77q0 -36 -13.5 -62t-38.5 -46t-57 -36z" />
    <glyph glyph-name="dieresis" unicode="&#xa8;" horiz-adv-x="546" 
d="M173 583q-23 0 -39 16t-16 39q0 24 16 39.5t39 15.5q25 0 40.5 -15.5t15.5 -39.5q0 -23 -15.5 -39t-40.5 -16zM373 583q-24 0 -40 16t-16 39q0 24 16 39.5t40 15.5t39.5 -15.5t15.5 -39.5q0 -23 -15.5 -39t-39.5 -16z" />
    <glyph glyph-name="copyright" unicode="&#xa9;" horiz-adv-x="746" 
d="M373 -10q-66 0 -124.5 23t-103.5 66.5t-71 105.5t-26 139q0 76 26 137t71 104t103.5 66t124.5 23t124.5 -23t103.5 -66t71 -104t26 -137q0 -77 -26 -139t-71 -105.5t-103.5 -66.5t-124.5 -23zM373 36q56 0 105.5 20.5t87 59t58.5 91t21 117.5q0 64 -21 116.5t-58.5 90
t-87 57.5t-105.5 20q-57 0 -106 -20t-86.5 -57.5t-59 -90t-21.5 -116.5q0 -65 21.5 -117.5t59 -91t86.5 -59t106 -20.5zM382 129q-53 0 -94.5 23t-66 66t-24.5 103t26.5 103.5t69 67.5t91.5 24q43 0 74 -17t54 -42l-41 -43q-17 19 -37 29t-45 10q-35 0 -61 -17t-40.5 -47
t-14.5 -68q0 -60 30.5 -94.5t81.5 -34.5q33 0 53 11t41 29l36 -47q-27 -25 -58.5 -40.5t-74.5 -15.5z" />
    <glyph glyph-name="ordfeminine" unicode="&#xaa;" horiz-adv-x="349" 
d="M134 381q-44 0 -71 26.5t-27 69.5q0 54 46.5 83.5t148.5 38.5q-1 29 -13.5 45.5t-45.5 16.5q-25 0 -50.5 -10t-47.5 -23l-27 49q27 17 62.5 30.5t74.5 13.5q61 0 90.5 -35t29.5 -101v-195h-59l-8 36h-4q-19 -18 -44 -31.5t-55 -13.5zM157 439q19 0 36.5 9t37.5 27v74
q-68 -7 -95.5 -24.5t-27.5 -41.5q0 -22 13 -33t36 -11z" />
    <glyph glyph-name="guillemotleft" unicode="&#xab;" horiz-adv-x="442" 
d="M182 63l-136 153v72l136 153l40 -34l-116 -155l116 -156zM348 63l-136 153v72l136 153l40 -34l-116 -155l116 -156z" />
    <glyph glyph-name="logicalnot" unicode="&#xac;" horiz-adv-x="505" 
d="M394 101v193h-360v72h437v-265h-77z" />
    <glyph glyph-name="registered" unicode="&#xae;" horiz-adv-x="433" 
d="M216 317q-52 0 -95.5 25.5t-69 70t-25.5 102.5q0 59 25.5 103.5t69 70t95.5 25.5q53 0 96.5 -25.5t69 -70t25.5 -103.5q0 -58 -25.5 -102.5t-69 -70t-96.5 -25.5zM216 357q42 0 75.5 20t52.5 55.5t19 82.5t-19 83t-52.5 56t-75.5 20t-75 -20t-52.5 -56t-19.5 -83
t19.5 -82.5t52.5 -55.5t75 -20zM142 417v201h79q33 0 56 -14.5t23 -50.5q0 -17 -10 -32.5t-27 -22.5l45 -81h-49l-35 67h-37v-67h-45zM187 519h24q19 0 30 8t11 23q0 14 -9 23t-30 9h-26v-63z" />
    <glyph glyph-name="macron" unicode="&#xaf;" horiz-adv-x="546" 
d="M137 598v67h272v-67h-272z" />
    <glyph glyph-name="degree" unicode="&#xb0;" horiz-adv-x="340" 
d="M170 421q-35 0 -64.5 16.5t-47.5 46t-18 69.5q0 39 18 69t47.5 46.5t64.5 16.5q36 0 65.5 -16.5t47.5 -46.5t18 -69q0 -40 -18 -69.5t-47.5 -46t-65.5 -16.5zM170 473q33 0 53.5 22.5t20.5 57.5t-20.5 57.5t-53.5 22.5q-32 0 -52.5 -22.5t-20.5 -57.5t20.5 -57.5
t52.5 -22.5z" />
    <glyph glyph-name="plusminus" unicode="&#xb1;" horiz-adv-x="505" 
d="M214 140v163h-180v73h180v183h77v-183h180v-73h-180v-163h-77zM34 0v73h437v-73h-437z" />
    <glyph glyph-name="uni00B2" unicode="&#xb2;" horiz-adv-x="370" 
d="M50 390v42q58 51 98.5 90.5t62 70.5t21.5 60q0 35 -19 55.5t-52 20.5q-23 0 -43 -15.5t-37 -38.5l-45 40q25 35 60 56t76 21q60 0 96.5 -32.5t36.5 -95.5q0 -36 -18 -69t-48 -67.5t-68 -73.5h152v-64h-273z" />
    <glyph glyph-name="uni00B3" unicode="&#xb3;" horiz-adv-x="370" 
d="M182 378q-49 0 -87 21.5t-62 55.5l48 37q18 -26 42.5 -40.5t52.5 -14.5q30 0 51.5 16.5t21.5 47.5q0 32 -29.5 48t-84.5 16v47q47 0 73 18t26 46q0 27 -17.5 42t-47.5 15q-21 0 -40 -13t-36 -32l-44 39q28 31 59 48t73 17q34 0 63 -12.5t46.5 -36.5t17.5 -57t-17.5 -56.5
t-47.5 -37.5q33 -9 56.5 -33.5t23.5 -62.5q0 -36 -19 -62.5t-51.5 -41t-70.5 -14.5z" />
    <glyph glyph-name="acute" unicode="&#xb4;" horiz-adv-x="546" 
d="M193 570l126 169h107l5 -10l-159 -159h-79z" />
    <glyph glyph-name="uni03BC" unicode="&#x3bc;" horiz-adv-x="570" 
d="M78 -178v667h98v-296q0 -61 19.5 -90.5t62.5 -29.5q21 0 40 7t38.5 26t39.5 54v329h100q-2 -64 -3.5 -131t-2.5 -130t-1 -117q0 -21 10.5 -30.5t26.5 -9.5q7 0 14.5 1.5t15.5 4.5l13 -74q-12 -5 -27.5 -9t-38.5 -4q-44 0 -67.5 22t-29.5 67h-3q-25 -44 -57.5 -66
t-69.5 -22q-27 0 -48.5 8t-38.5 33q1 -45 1.5 -78.5t2 -64t4.5 -67.5h-99z" />
    <glyph glyph-name="uni03BC" unicode="&#xb5;" horiz-adv-x="570" 
d="M78 -178v667h98v-296q0 -61 19.5 -90.5t62.5 -29.5q21 0 40 7t38.5 26t39.5 54v329h100q-2 -64 -3.5 -131t-2.5 -130t-1 -117q0 -21 10.5 -30.5t26.5 -9.5q7 0 14.5 1.5t15.5 4.5l13 -74q-12 -5 -27.5 -9t-38.5 -4q-44 0 -67.5 22t-29.5 67h-3q-25 -44 -57.5 -66
t-69.5 -22q-27 0 -48.5 8t-38.5 33q1 -45 1.5 -78.5t2 -64t4.5 -67.5h-99z" />
    <glyph glyph-name="paragraph" unicode="&#xb6;" horiz-adv-x="579" 
d="M384 -80v735h99v-735h-99zM294 219q-72 0 -129.5 23.5t-91 72.5t-33.5 124q0 80 32.5 127.5t88 68t124.5 20.5h44v-436h-35z" />
    <glyph glyph-name="periodcentered" unicode="&#xb7;" horiz-adv-x="262" 
d="M131 251q-27 0 -47 20t-20 50q0 32 20 51.5t47 19.5q29 0 48 -19.5t19 -51.5q0 -30 -19 -50t-48 -20z" />
    <glyph glyph-name="cedilla" unicode="&#xb8;" horiz-adv-x="546" 
d="M188 -230l-9 46q61 4 84 15t23 33q0 19 -16.5 29.5t-60.5 16.5l45 93h62l-29 -66q35 -8 54 -24.5t19 -47.5q0 -45 -44.5 -68t-127.5 -27z" />
    <glyph glyph-name="uni00B9" unicode="&#xb9;" horiz-adv-x="370" 
d="M170 390v301h-86v48q36 6 58 16t43 25h61v-390h-76z" />
    <glyph glyph-name="ordmasculine" unicode="&#xba;" horiz-adv-x="367" 
d="M183 382q-42 0 -77 20t-56.5 58t-21.5 91q0 54 21.5 92t56.5 58t77 20q41 0 76.5 -20t56.5 -58t21 -92q0 -53 -21 -91t-56.5 -58t-76.5 -20zM183 441q38 0 59 30.5t21 79.5q0 50 -21 81t-59 31q-39 0 -59.5 -31t-20.5 -81q0 -49 20.5 -79.5t59.5 -30.5z" />
    <glyph glyph-name="guillemotright" unicode="&#xbb;" horiz-adv-x="442" 
d="M94 63l-40 33l116 156l-116 155l40 34l136 -153v-72zM260 63l-40 33l116 156l-116 155l40 34l136 -153v-72z" />
    <glyph glyph-name="onequarter" unicode="&#xbc;" horiz-adv-x="788" 
d="M144 265v301h-86v48q36 6 58 16t43 25h61v-390h-76zM182 -12l359 679h63l-359 -679h-63zM636 0v215l5 110h-4l-47 -80l-57 -93h229v-52h-304v38l158 252h88v-390h-68z" />
    <glyph glyph-name="onehalf" unicode="&#xbd;" horiz-adv-x="818" 
d="M144 265v301h-86v48q36 6 58 16t43 25h61v-390h-76zM163 -12l359 679h63l-359 -679h-63zM498 0v42q58 51 98.5 90.5t62 70.5t21.5 60q0 35 -19 55.5t-52 20.5q-23 0 -43 -15.5t-37 -38.5l-45 40q25 35 60 56t76 21q60 0 96.5 -32.5t36.5 -95.5q0 -36 -18 -69t-48 -67.5
t-68 -73.5h152v-64h-273z" />
    <glyph glyph-name="threequarters" unicode="&#xbe;" horiz-adv-x="801" 
d="M180 253q-49 0 -87 21.5t-62 55.5l48 37q18 -26 42.5 -40.5t52.5 -14.5q30 0 51.5 16.5t21.5 47.5q0 32 -29.5 48t-84.5 16v47q47 0 73 18t26 46q0 27 -17.5 42t-47.5 15q-21 0 -40 -13t-36 -32l-44 39q28 31 59 48t73 17q34 0 63 -12.5t46.5 -36.5t17.5 -57t-17.5 -56.5
t-47.5 -37.5q33 -9 56.5 -33.5t23.5 -62.5q0 -36 -19 -62.5t-51.5 -41t-70.5 -14.5zM215 -12l359 679h63l-359 -679h-63zM650 0v215l5 110h-4l-47 -80l-57 -93h229v-52h-304v38l158 252h88v-390h-68z" />
    <glyph glyph-name="questiondown" unicode="&#xbf;" horiz-adv-x="435" 
d="M219 -193q-51 0 -90 19t-61 55.5t-22 87.5q0 39 16 70t39 58t44.5 54.5t35 59t8.5 71.5h87q7 -45 -5 -80.5t-32.5 -64.5t-43 -54.5t-38 -51.5t-15.5 -55q0 -25 10.5 -45t30 -31.5t48.5 -11.5q32 0 59.5 15t49.5 39l56 -51q-33 -36 -77 -60t-100 -24zM231 360
q-27 0 -47 20t-20 51q0 30 20 50t47 20q29 0 48 -20t19 -50q0 -31 -19 -51t-48 -20z" />
    <glyph glyph-name="Agrave" unicode="&#xc0;" horiz-adv-x="551" 
d="M0 0l218 655h115l217 -655h-105l-107 357q-17 54 -32.5 109t-29.5 110h-4q-14 -56 -29.5 -110.5t-32.5 -108.5l-108 -357h-102zM122 188v79h305v-79h-305zM268 705l-166 129l6 11h116l131 -140h-87z" />
    <glyph glyph-name="Aacute" unicode="&#xc1;" horiz-adv-x="551" 
d="M0 0l218 655h115l217 -655h-105l-107 357q-17 54 -32.5 109t-29.5 110h-4q-14 -56 -29.5 -110.5t-32.5 -108.5l-108 -357h-102zM122 188v79h305v-79h-305zM195 705l131 140h116l6 -11l-166 -129h-87z" />
    <glyph glyph-name="Acircumflex" unicode="&#xc2;" horiz-adv-x="551" 
d="M0 0l218 655h115l217 -655h-105l-107 357q-17 54 -32.5 109t-29.5 110h-4q-14 -56 -29.5 -110.5t-32.5 -108.5l-108 -357h-102zM122 188v79h305v-79h-305zM91 705l135 140h98l135 -140h-81l-101 79h-4l-101 -79h-81z" />
    <glyph glyph-name="Atilde" unicode="&#xc3;" horiz-adv-x="551" 
d="M0 0l218 655h115l217 -655h-105l-107 357q-17 54 -32.5 109t-29.5 110h-4q-14 -56 -29.5 -110.5t-32.5 -108.5l-108 -357h-102zM122 188v79h305v-79h-305zM349 705q-27 0 -47.5 10t-36.5 23t-30.5 23.5t-30.5 10.5q-18 0 -30.5 -15t-15.5 -47l-65 5q3 63 32 96t76 33
q27 0 47.5 -10.5t36.5 -23.5t30.5 -23.5t30.5 -10.5q18 0 30 15.5t16 46.5l65 -5q-2 -62 -31.5 -95t-76.5 -33z" />
    <glyph glyph-name="Adieresis" unicode="&#xc4;" horiz-adv-x="551" 
d="M0 0l218 655h115l217 -655h-105l-107 357q-17 54 -32.5 109t-29.5 110h-4q-14 -56 -29.5 -110.5t-32.5 -108.5l-108 -357h-102zM122 188v79h305v-79h-305zM170 712q-23 0 -38.5 15t-15.5 39t15.5 39t38.5 15q24 0 39.5 -15t15.5 -39t-15.5 -39t-39.5 -15zM380 712
q-23 0 -39 15t-16 39t16 39t39 15q24 0 39 -15t15 -39t-15 -39t-39 -15z" />
    <glyph glyph-name="Aring" unicode="&#xc5;" horiz-adv-x="551" 
d="M0 0l218 655h115l217 -655h-105l-107 357q-17 54 -32.5 109t-29.5 110h-4q-14 -56 -29.5 -110.5t-32.5 -108.5l-108 -357h-102zM122 188v79h305v-79h-305zM275 698q-53 0 -84.5 25t-31.5 68t31.5 67.5t84.5 24.5q54 0 85 -24.5t31 -67.5t-31 -68t-85 -25zM275 738
q24 0 38.5 14t14.5 39t-14.5 38.5t-38.5 13.5q-23 0 -38 -13.5t-15 -38.5t15 -39t38 -14z" />
    <glyph glyph-name="AE" unicode="&#xc6;" horiz-adv-x="828" 
d="M3 0l335 655h430v-84h-271v-187h227v-84h-227v-216h281v-84h-380v578h-4l-50 -104t-50 -103l-187 -371h-104zM153 181v78h302v-78h-302z" />
    <glyph glyph-name="Ccedilla" unicode="&#xc7;" horiz-adv-x="574" 
d="M343 -12q-83 0 -149.5 39.5t-105 115.5t-38.5 183q0 80 22.5 143.5t63 107.5t94 67t115.5 23q61 0 108 -24t77 -58l-54 -61q-25 27 -57 41.5t-71 14.5q-57 0 -101 -31t-69 -87t-25 -133q0 -79 24 -136t68.5 -87.5t103.5 -30.5q44 0 79 17.5t64 48.5l51 -59
q-39 -45 -88.5 -69.5t-111.5 -24.5zM255 -230l-9 46q61 4 84 15t23 33q0 19 -16.5 29.5t-60.5 16.5l45 93h62l-29 -66q35 -8 54 -24.5t19 -47.5q0 -45 -44.5 -68t-127.5 -27z" />
    <glyph glyph-name="Egrave" unicode="&#xc8;" horiz-adv-x="532" 
d="M86 0v655h386v-84h-286v-187h242v-84h-242v-216h296v-84h-396zM283 705l-166 129l6 11h116l131 -140h-87z" />
    <glyph glyph-name="Eacute" unicode="&#xc9;" horiz-adv-x="532" 
d="M86 0v655h386v-84h-286v-187h242v-84h-242v-216h296v-84h-396zM210 705l131 140h116l6 -11l-166 -129h-87z" />
    <glyph glyph-name="Ecircumflex" unicode="&#xca;" horiz-adv-x="532" 
d="M86 0v655h386v-84h-286v-187h242v-84h-242v-216h296v-84h-396zM106 705l135 140h98l135 -140h-81l-101 79h-4l-101 -79h-81z" />
    <glyph glyph-name="Edieresis" unicode="&#xcb;" horiz-adv-x="532" 
d="M86 0v655h386v-84h-286v-187h242v-84h-242v-216h296v-84h-396zM185 712q-23 0 -38.5 15t-15.5 39t15.5 39t38.5 15q24 0 39.5 -15t15.5 -39t-15.5 -39t-39.5 -15zM395 712q-23 0 -39 15t-16 39t16 39t39 15q24 0 39 -15t15 -39t-15 -39t-39 -15z" />
    <glyph glyph-name="Igrave" unicode="&#xcc;" horiz-adv-x="273" 
d="M86 0v655h100v-655h-100zM130 705l-166 129l6 11h116l131 -140h-87z" />
    <glyph glyph-name="Iacute" unicode="&#xcd;" horiz-adv-x="273" 
d="M86 0v655h100v-655h-100zM57 705l131 140h116l6 -11l-166 -129h-87z" />
    <glyph glyph-name="Icircumflex" unicode="&#xce;" horiz-adv-x="273" 
d="M86 0v655h100v-655h-100zM-47 705l135 140h98l135 -140h-81l-101 79h-4l-101 -79h-81z" />
    <glyph glyph-name="Idieresis" unicode="&#xcf;" horiz-adv-x="273" 
d="M86 0v655h100v-655h-100zM32 712q-23 0 -38.5 15t-15.5 39t15.5 39t38.5 15q24 0 39.5 -15t15.5 -39t-15.5 -39t-39.5 -15zM242 712q-23 0 -39 15t-16 39t16 39t39 15q24 0 39 -15t15 -39t-15 -39t-39 -15z" />
    <glyph glyph-name="Eth" unicode="&#xd0;" horiz-adv-x="645" 
d="M28 306v71l84 5h242v-76h-326zM111 0v655h170q100 0 170 -37t107 -109.5t37 -178.5t-36.5 -179.5t-105.5 -112t-167 -38.5h-175zM211 81h63q71 0 120 28.5t73.5 83.5t24.5 137t-24.5 136t-73.5 81t-120 27h-63v-493z" />
    <glyph glyph-name="Ntilde" unicode="&#xd1;" horiz-adv-x="651" 
d="M86 0v655h109l215 -384q18 -33 35 -70t33 -74h4q-4 52 -8 107t-4 108v313h95v-655h-109l-215 384q-18 33 -35.5 70t-33.5 74h-4q5 -50 9.5 -104.5t4.5 -108.5v-315h-96zM409 705q-27 0 -47.5 10t-36.5 23t-30.5 23.5t-30.5 10.5q-18 0 -30.5 -15t-15.5 -47l-65 5
q3 63 32 96t76 33q27 0 47.5 -10.5t36.5 -23.5t30.5 -23.5t30.5 -10.5q18 0 30 15.5t16 46.5l65 -5q-2 -62 -31.5 -95t-76.5 -33z" />
    <glyph glyph-name="Ograve" unicode="&#xd2;" horiz-adv-x="669" 
d="M334 -12q-83 0 -147 41.5t-100.5 118.5t-36.5 182q0 106 36.5 181.5t100.5 115.5t147 40q85 0 149 -40t100 -115.5t36 -181.5q0 -105 -36 -182t-100 -118.5t-149 -41.5zM334 75q56 0 96.5 31.5t63 89t22.5 134.5q0 78 -22.5 133.5t-63 86t-96.5 30.5q-54 0 -95 -30.5
t-63.5 -86t-22.5 -133.5q0 -77 22.5 -134.5t63.5 -89t95 -31.5zM328 705l-166 129l6 11h116l131 -140h-87z" />
    <glyph glyph-name="Oacute" unicode="&#xd3;" horiz-adv-x="669" 
d="M334 -12q-83 0 -147 41.5t-100.5 118.5t-36.5 182q0 106 36.5 181.5t100.5 115.5t147 40q85 0 149 -40t100 -115.5t36 -181.5q0 -105 -36 -182t-100 -118.5t-149 -41.5zM334 75q56 0 96.5 31.5t63 89t22.5 134.5q0 78 -22.5 133.5t-63 86t-96.5 30.5q-54 0 -95 -30.5
t-63.5 -86t-22.5 -133.5q0 -77 22.5 -134.5t63.5 -89t95 -31.5zM255 705l131 140h116l6 -11l-166 -129h-87z" />
    <glyph glyph-name="Ocircumflex" unicode="&#xd4;" horiz-adv-x="669" 
d="M334 -12q-83 0 -147 41.5t-100.5 118.5t-36.5 182q0 106 36.5 181.5t100.5 115.5t147 40q85 0 149 -40t100 -115.5t36 -181.5q0 -105 -36 -182t-100 -118.5t-149 -41.5zM334 75q56 0 96.5 31.5t63 89t22.5 134.5q0 78 -22.5 133.5t-63 86t-96.5 30.5q-54 0 -95 -30.5
t-63.5 -86t-22.5 -133.5q0 -77 22.5 -134.5t63.5 -89t95 -31.5zM151 705l135 140h98l135 -140h-81l-101 79h-4l-101 -79h-81z" />
    <glyph glyph-name="Otilde" unicode="&#xd5;" horiz-adv-x="669" 
d="M334 -12q-83 0 -147 41.5t-100.5 118.5t-36.5 182q0 106 36.5 181.5t100.5 115.5t147 40q85 0 149 -40t100 -115.5t36 -181.5q0 -105 -36 -182t-100 -118.5t-149 -41.5zM334 75q56 0 96.5 31.5t63 89t22.5 134.5q0 78 -22.5 133.5t-63 86t-96.5 30.5q-54 0 -95 -30.5
t-63.5 -86t-22.5 -133.5q0 -77 22.5 -134.5t63.5 -89t95 -31.5zM409 705q-27 0 -47.5 10t-36.5 23t-30.5 23.5t-30.5 10.5q-18 0 -30.5 -15t-15.5 -47l-65 5q3 63 32 96t76 33q27 0 47.5 -10.5t36.5 -23.5t30.5 -23.5t30.5 -10.5q18 0 30 15.5t16 46.5l65 -5
q-2 -62 -31.5 -95t-76.5 -33z" />
    <glyph glyph-name="Odieresis" unicode="&#xd6;" horiz-adv-x="669" 
d="M334 -12q-83 0 -147 41.5t-100.5 118.5t-36.5 182q0 106 36.5 181.5t100.5 115.5t147 40q85 0 149 -40t100 -115.5t36 -181.5q0 -105 -36 -182t-100 -118.5t-149 -41.5zM334 75q56 0 96.5 31.5t63 89t22.5 134.5q0 78 -22.5 133.5t-63 86t-96.5 30.5q-54 0 -95 -30.5
t-63.5 -86t-22.5 -133.5q0 -77 22.5 -134.5t63.5 -89t95 -31.5zM230 712q-23 0 -38.5 15t-15.5 39t15.5 39t38.5 15q24 0 39.5 -15t15.5 -39t-15.5 -39t-39.5 -15zM440 712q-23 0 -39 15t-16 39t16 39t39 15q24 0 39 -15t15 -39t-15 -39t-39 -15z" />
    <glyph glyph-name="multiply" unicode="&#xd7;" horiz-adv-x="505" 
d="M101 123l-51 52l151 155l-151 154l51 53l151 -156l152 156l51 -53l-151 -154l151 -155l-51 -52l-152 155z" />
    <glyph glyph-name="Oslash" unicode="&#xd8;" horiz-adv-x="669" 
d="M104 -36l-60 48l528 679l61 -48zM337 -12q-84 0 -148 41.5t-100 118.5t-36 182q0 106 36 181.5t100 115.5t148 40t148.5 -40t100.5 -115.5t36 -181.5q0 -105 -36 -182t-100.5 -118.5t-148.5 -41.5zM337 75q55 0 95.5 31.5t63 89t22.5 134.5q0 78 -22.5 133.5t-63 86
t-95.5 30.5t-95.5 -30.5t-63.5 -86t-23 -133.5q0 -77 23 -134.5t63.5 -89t95.5 -31.5z" />
    <glyph glyph-name="Ugrave" unicode="&#xd9;" horiz-adv-x="650" 
d="M325 -12q-53 0 -97.5 15t-76.5 49t-50 89t-18 133v381h100v-386q0 -74 18.5 -116t51 -60t72.5 -18q42 0 75 18t52 60t19 116v386h96v-381q0 -78 -17.5 -133t-50 -89t-76.5 -49t-98 -15zM318 705l-166 129l6 11h116l131 -140h-87z" />
    <glyph glyph-name="Uacute" unicode="&#xda;" horiz-adv-x="650" 
d="M325 -12q-53 0 -97.5 15t-76.5 49t-50 89t-18 133v381h100v-386q0 -74 18.5 -116t51 -60t72.5 -18q42 0 75 18t52 60t19 116v386h96v-381q0 -78 -17.5 -133t-50 -89t-76.5 -49t-98 -15zM245 705l131 140h116l6 -11l-166 -129h-87z" />
    <glyph glyph-name="Ucircumflex" unicode="&#xdb;" horiz-adv-x="650" 
d="M325 -12q-53 0 -97.5 15t-76.5 49t-50 89t-18 133v381h100v-386q0 -74 18.5 -116t51 -60t72.5 -18q42 0 75 18t52 60t19 116v386h96v-381q0 -78 -17.5 -133t-50 -89t-76.5 -49t-98 -15zM141 705l135 140h98l135 -140h-81l-101 79h-4l-101 -79h-81z" />
    <glyph glyph-name="Udieresis" unicode="&#xdc;" horiz-adv-x="650" 
d="M325 -12q-53 0 -97.5 15t-76.5 49t-50 89t-18 133v381h100v-386q0 -74 18.5 -116t51 -60t72.5 -18q42 0 75 18t52 60t19 116v386h96v-381q0 -78 -17.5 -133t-50 -89t-76.5 -49t-98 -15zM220 712q-23 0 -38.5 15t-15.5 39t15.5 39t38.5 15q24 0 39.5 -15t15.5 -39
t-15.5 -39t-39.5 -15zM430 712q-23 0 -39 15t-16 39t16 39t39 15q24 0 39 -15t15 -39t-15 -39t-39 -15z" />
    <glyph glyph-name="Yacute" unicode="&#xdd;" horiz-adv-x="488" 
d="M194 0v249l-196 406h106l78 -176q15 -37 29.5 -71.5t31.5 -72.5h4q16 38 32 72.5t30 71.5l78 176h104l-197 -406v-249h-100zM164 705l131 140h116l6 -11l-166 -129h-87z" />
    <glyph glyph-name="Thorn" unicode="&#xde;" horiz-adv-x="592" 
d="M86 0v655h100v-107h111q72 0 127.5 -19t87 -62t31.5 -117q0 -70 -31.5 -116t-87.5 -68.5t-127 -22.5h-111v-143h-100zM186 223h101q80 0 118.5 31.5t38.5 95.5q0 67 -39 92t-118 25h-101v-244z" />
    <glyph glyph-name="germandbls" unicode="&#xdf;" horiz-adv-x="590" 
d="M396 -12q-40 0 -75.5 11.5t-67.5 38.5l36 61q25 -20 51 -28t53 -8q37 0 57 22t20 51q0 26 -13 43.5t-33.5 30.5t-43.5 26t-43.5 28.5t-33.5 38.5t-13 58q0 32 14 55.5t32 44t32 43.5t14 53q0 37 -24 60.5t-65 23.5q-53 0 -85.5 -38.5t-32.5 -112.5v-490h-97v506
q0 63 25.5 111.5t73.5 75t117 26.5q58 0 99.5 -20.5t63 -55t21.5 -75.5q0 -37 -14.5 -63.5t-33.5 -47.5t-33.5 -40.5t-14.5 -44.5q0 -22 13 -37t33.5 -27t43.5 -25t43.5 -31t33.5 -44.5t13 -67.5q0 -42 -20 -76.5t-57 -55t-89 -20.5z" />
    <glyph glyph-name="agrave" unicode="&#xe0;" horiz-adv-x="510" 
d="M193 -12q-42 0 -74.5 17t-51 49t-18.5 75q0 83 70.5 125t223.5 59q0 27 -8.5 51.5t-29.5 39t-57 14.5q-39 0 -74.5 -14t-67.5 -33l-37 67q25 16 56 30.5t66.5 23t74.5 8.5q60 0 99 -24.5t58 -70.5t19 -111v-294h-82l-7 56h-4q-34 -28 -72.5 -48t-83.5 -20zM223 69
q32 0 60.5 14.5t59.5 41.5v118q-74 -9 -117.5 -23.5t-62 -35t-18.5 -48.5q0 -36 22.5 -51.5t55.5 -15.5zM271 570l-159 159l5 10h107l126 -169h-79z" />
    <glyph glyph-name="aacute" unicode="&#xe1;" horiz-adv-x="510" 
d="M193 -12q-42 0 -74.5 17t-51 49t-18.5 75q0 83 70.5 125t223.5 59q0 27 -8.5 51.5t-29.5 39t-57 14.5q-39 0 -74.5 -14t-67.5 -33l-37 67q25 16 56 30.5t66.5 23t74.5 8.5q60 0 99 -24.5t58 -70.5t19 -111v-294h-82l-7 56h-4q-34 -28 -72.5 -48t-83.5 -20zM223 69
q32 0 60.5 14.5t59.5 41.5v118q-74 -9 -117.5 -23.5t-62 -35t-18.5 -48.5q0 -36 22.5 -51.5t55.5 -15.5zM190 570l126 169h107l5 -10l-159 -159h-79z" />
    <glyph glyph-name="acircumflex" unicode="&#xe2;" horiz-adv-x="510" 
d="M193 -12q-42 0 -74.5 17t-51 49t-18.5 75q0 83 70.5 125t223.5 59q0 27 -8.5 51.5t-29.5 39t-57 14.5q-39 0 -74.5 -14t-67.5 -33l-37 67q25 16 56 30.5t66.5 23t74.5 8.5q60 0 99 -24.5t58 -70.5t19 -111v-294h-82l-7 56h-4q-34 -28 -72.5 -48t-83.5 -20zM223 69
q32 0 60.5 14.5t59.5 41.5v118q-74 -9 -117.5 -23.5t-62 -35t-18.5 -48.5q0 -36 22.5 -51.5t55.5 -15.5zM91 570l135 169h88l135 -169h-78l-99 99h-4l-99 -99h-78z" />
    <glyph glyph-name="atilde" unicode="&#xe3;" horiz-adv-x="510" 
d="M193 -12q-42 0 -74.5 17t-51 49t-18.5 75q0 83 70.5 125t223.5 59q0 27 -8.5 51.5t-29.5 39t-57 14.5q-39 0 -74.5 -14t-67.5 -33l-37 67q25 16 56 30.5t66.5 23t74.5 8.5q60 0 99 -24.5t58 -70.5t19 -111v-294h-82l-7 56h-4q-34 -28 -72.5 -48t-83.5 -20zM223 69
q32 0 60.5 14.5t59.5 41.5v118q-74 -9 -117.5 -23.5t-62 -35t-18.5 -48.5q0 -36 22.5 -51.5t55.5 -15.5zM341 576q-26 0 -45.5 12t-35 27.5t-29.5 27.5t-30 12q-21 0 -31 -19.5t-13 -53.5l-64 4q1 42 13 73.5t35 48.5t59 17q26 0 45 -11.5t34.5 -27.5t30 -27.5t30.5 -11.5
q20 0 30.5 19.5t12.5 52.5l64 -3q-1 -42 -12.5 -73.5t-34.5 -49t-59 -17.5z" />
    <glyph glyph-name="adieresis" unicode="&#xe4;" horiz-adv-x="510" 
d="M193 -12q-42 0 -74.5 17t-51 49t-18.5 75q0 83 70.5 125t223.5 59q0 27 -8.5 51.5t-29.5 39t-57 14.5q-39 0 -74.5 -14t-67.5 -33l-37 67q25 16 56 30.5t66.5 23t74.5 8.5q60 0 99 -24.5t58 -70.5t19 -111v-294h-82l-7 56h-4q-34 -28 -72.5 -48t-83.5 -20zM223 69
q32 0 60.5 14.5t59.5 41.5v118q-74 -9 -117.5 -23.5t-62 -35t-18.5 -48.5q0 -36 22.5 -51.5t55.5 -15.5zM170 583q-23 0 -39 16t-16 39q0 24 16 39.5t39 15.5q25 0 40.5 -15.5t15.5 -39.5q0 -23 -15.5 -39t-40.5 -16zM370 583q-24 0 -40 16t-16 39q0 24 16 39.5t40 15.5
t39.5 -15.5t15.5 -39.5q0 -23 -15.5 -39t-39.5 -16z" />
    <glyph glyph-name="aring" unicode="&#xe5;" horiz-adv-x="510" 
d="M193 -12q-42 0 -74.5 17t-51 49t-18.5 75q0 83 70.5 125t223.5 59q0 27 -8.5 51.5t-29.5 39t-57 14.5q-39 0 -74.5 -14t-67.5 -33l-37 67q25 16 56 30.5t66.5 23t74.5 8.5q60 0 99 -24.5t58 -70.5t19 -111v-294h-82l-7 56h-4q-34 -28 -72.5 -48t-83.5 -20zM223 69
q32 0 60.5 14.5t59.5 41.5v118q-74 -9 -117.5 -23.5t-62 -35t-18.5 -48.5q0 -36 22.5 -51.5t55.5 -15.5zM270 557q-54 0 -84.5 28.5t-30.5 71.5q0 42 30.5 70.5t84.5 28.5t84.5 -28.5t30.5 -70.5q0 -43 -30.5 -71.5t-84.5 -28.5zM270 598q23 0 38 16t15 43q0 26 -15 42
t-38 16q-22 0 -37.5 -16t-15.5 -43q0 -26 15.5 -42t37.5 -16z" />
    <glyph glyph-name="ae" unicode="&#xe6;" horiz-adv-x="779" 
d="M193 -12q-42 0 -74.5 17t-51 49t-18.5 75q0 83 70 125t220 59q-1 28 -9 52.5t-28 38.5t-57 14q-36 0 -71.5 -14t-67.5 -33l-37 66q25 17 55 31.5t64 23t69 8.5q53 0 89 -25.5t51 -70.5q28 45 67 70.5t88 25.5q63 0 105.5 -29t63.5 -81t21 -122q0 -15 -1 -28.5t-3 -24.5
h-308q3 -45 22 -78t50.5 -51t70.5 -18q34 0 62 9t54 26l34 -64q-33 -23 -73.5 -37t-89.5 -14q-39 0 -70.5 12t-56 31.5t-44.5 43.5q-50 -43 -99 -65t-97 -22zM223 69q32 0 68 16t65 47q-7 18 -11 42t-6 49l-2 20q-104 -13 -147 -38.5t-43 -68.5q0 -36 21.5 -51.5t54.5 -15.5
zM432 290h221q0 65 -27.5 98.5t-74.5 33.5q-31 0 -56 -16.5t-41.5 -46t-21.5 -69.5z" />
    <glyph glyph-name="ccedilla" unicode="&#xe7;" horiz-adv-x="459" 
d="M278 -12q-67 0 -120 30.5t-83.5 87.5t-30.5 138t33 138.5t88 87.5t118 30q48 0 83 -15.5t61 -39.5l-48 -62q-17 17 -39.5 26.5t-51.5 9.5q-41 0 -73 -22t-51 -61t-19 -92t18 -92t49.5 -61t74.5 -22q31 0 58 12t48 31l42 -61q-31 -29 -71 -46t-86 -17zM175 -230l-9 46
q61 4 84 15t23 33q0 19 -16.5 29.5t-60.5 16.5l45 93h62l-29 -66q35 -8 54 -24.5t19 -47.5q0 -45 -44.5 -68t-127.5 -27z" />
    <glyph glyph-name="egrave" unicode="&#xe8;" horiz-adv-x="501" 
d="M282 -12q-68 0 -122 30.5t-85.5 87.5t-31.5 138q0 80 32 137.5t83 88t108 30.5q65 0 109 -29t66.5 -80.5t22.5 -120.5q0 -14 -1 -28t-4 -27h-344v77h261q0 62 -27 96t-81 34q-31 0 -60 -17t-48 -55.5t-19 -104.5q0 -60 21 -99.5t55.5 -58.5t75.5 -19q34 0 63.5 9t54.5 26
l35 -64q-33 -23 -74.5 -37t-89.5 -14zM266 570l-159 159l5 10h107l126 -169h-79z" />
    <glyph glyph-name="eacute" unicode="&#xe9;" horiz-adv-x="501" 
d="M282 -12q-68 0 -122 30.5t-85.5 87.5t-31.5 138q0 80 32 137.5t83 88t108 30.5q65 0 109 -29t66.5 -80.5t22.5 -120.5q0 -14 -1 -28t-4 -27h-344v77h261q0 62 -27 96t-81 34q-31 0 -60 -17t-48 -55.5t-19 -104.5q0 -60 21 -99.5t55.5 -58.5t75.5 -19q34 0 63.5 9t54.5 26
l35 -64q-33 -23 -74.5 -37t-89.5 -14zM185 570l126 169h107l5 -10l-159 -159h-79z" />
    <glyph glyph-name="ecircumflex" unicode="&#xea;" horiz-adv-x="501" 
d="M282 -12q-68 0 -122 30.5t-85.5 87.5t-31.5 138q0 80 32 137.5t83 88t108 30.5q65 0 109 -29t66.5 -80.5t22.5 -120.5q0 -14 -1 -28t-4 -27h-344v77h261q0 62 -27 96t-81 34q-31 0 -60 -17t-48 -55.5t-19 -104.5q0 -60 21 -99.5t55.5 -58.5t75.5 -19q34 0 63.5 9t54.5 26
l35 -64q-33 -23 -74.5 -37t-89.5 -14zM86 570l135 169h88l135 -169h-78l-99 99h-4l-99 -99h-78z" />
    <glyph glyph-name="edieresis" unicode="&#xeb;" horiz-adv-x="501" 
d="M282 -12q-68 0 -122 30.5t-85.5 87.5t-31.5 138q0 80 32 137.5t83 88t108 30.5q65 0 109 -29t66.5 -80.5t22.5 -120.5q0 -14 -1 -28t-4 -27h-344v77h261q0 62 -27 96t-81 34q-31 0 -60 -17t-48 -55.5t-19 -104.5q0 -60 21 -99.5t55.5 -58.5t75.5 -19q34 0 63.5 9t54.5 26
l35 -64q-33 -23 -74.5 -37t-89.5 -14zM165 583q-23 0 -39 16t-16 39q0 24 16 39.5t39 15.5q25 0 40.5 -15.5t15.5 -39.5q0 -23 -15.5 -39t-40.5 -16zM365 583q-24 0 -40 16t-16 39q0 24 16 39.5t40 15.5t39.5 -15.5t15.5 -39.5q0 -23 -15.5 -39t-39.5 -16z" />
    <glyph glyph-name="igrave" unicode="&#xec;" horiz-adv-x="254" 
d="M77 0v488h99v-488h-99zM127 570l-159 159l5 10h107l126 -169h-79z" />
    <glyph glyph-name="iacute" unicode="&#xed;" horiz-adv-x="254" 
d="M77 0v488h99v-488h-99zM46 570l126 169h107l5 -10l-159 -159h-79z" />
    <glyph glyph-name="icircumflex" unicode="&#xee;" horiz-adv-x="254" 
d="M77 0v488h99v-488h-99zM-53 570l135 169h88l135 -169h-78l-99 99h-4l-99 -99h-78z" />
    <glyph glyph-name="idieresis" unicode="&#xef;" horiz-adv-x="254" 
d="M77 0v488h99v-488h-99zM26 583q-23 0 -39 16t-16 39q0 24 16 39.5t39 15.5q25 0 40.5 -15.5t15.5 -39.5q0 -23 -15.5 -39t-40.5 -16zM226 583q-24 0 -40 16t-16 39q0 24 16 39.5t40 15.5t39.5 -15.5t15.5 -39.5q0 -23 -15.5 -39t-39.5 -16z" />
    <glyph glyph-name="eth" unicode="&#xf0;" horiz-adv-x="548" 
d="M270 -12q-58 0 -108 28.5t-80.5 81.5t-30.5 126q0 69 28 119t75 78t103 28q42 0 80.5 -20.5t62.5 -67.5l1 -61q-31 44 -63 58.5t-66 14.5q-40 0 -69.5 -19t-45 -52.5t-15.5 -77.5q0 -47 18 -82t48 -54t64 -19q42 0 69.5 23t41.5 64.5t14 98.5q0 86 -20 150.5t-58.5 113
t-93.5 86t-124 67.5l43 62q68 -29 130.5 -69.5t111.5 -96.5t77 -131.5t28 -176.5q0 -80 -27.5 -141.5t-76.5 -96t-117 -34.5zM127 485l-34 65l342 176l38 -66z" />
    <glyph glyph-name="ntilde" unicode="&#xf1;" horiz-adv-x="553" 
d="M78 0v489h81l8 -69h3q34 34 73 57.5t89 23.5q78 0 114 -50t36 -143v-308h-99v295q0 65 -20 93t-64 28q-35 0 -62 -17.5t-61 -50.5v-348h-98zM370 576q-26 0 -45.5 12t-35 27.5t-29.5 27.5t-30 12q-21 0 -31 -19.5t-13 -53.5l-64 4q1 42 13 73.5t35 48.5t59 17
q26 0 45 -11.5t34.5 -27.5t30 -27.5t30.5 -11.5q20 0 30.5 19.5t12.5 52.5l64 -3q-1 -42 -12.5 -73.5t-34.5 -49t-59 -17.5z" />
    <glyph glyph-name="ograve" unicode="&#xf2;" horiz-adv-x="546" 
d="M273 -12q-61 0 -113 30t-84.5 87.5t-32.5 138.5t32.5 138.5t84.5 88t113 30.5q60 0 112 -30.5t84.5 -88t32.5 -138.5t-32.5 -138.5t-84.5 -87.5t-112 -30zM273 69q39 0 67.5 22t44.5 61t16 92q0 52 -16 91.5t-44.5 61.5t-67.5 22t-67.5 -22t-44.5 -61.5t-16 -91.5
q0 -53 16 -92t44.5 -61t67.5 -22zM274 570l-159 159l5 10h107l126 -169h-79z" />
    <glyph glyph-name="oacute" unicode="&#xf3;" horiz-adv-x="546" 
d="M273 -12q-61 0 -113 30t-84.5 87.5t-32.5 138.5t32.5 138.5t84.5 88t113 30.5q60 0 112 -30.5t84.5 -88t32.5 -138.5t-32.5 -138.5t-84.5 -87.5t-112 -30zM273 69q39 0 67.5 22t44.5 61t16 92q0 52 -16 91.5t-44.5 61.5t-67.5 22t-67.5 -22t-44.5 -61.5t-16 -91.5
q0 -53 16 -92t44.5 -61t67.5 -22zM193 570l126 169h107l5 -10l-159 -159h-79z" />
    <glyph glyph-name="ocircumflex" unicode="&#xf4;" horiz-adv-x="546" 
d="M273 -12q-61 0 -113 30t-84.5 87.5t-32.5 138.5t32.5 138.5t84.5 88t113 30.5q60 0 112 -30.5t84.5 -88t32.5 -138.5t-32.5 -138.5t-84.5 -87.5t-112 -30zM273 69q39 0 67.5 22t44.5 61t16 92q0 52 -16 91.5t-44.5 61.5t-67.5 22t-67.5 -22t-44.5 -61.5t-16 -91.5
q0 -53 16 -92t44.5 -61t67.5 -22zM94 570l135 169h88l135 -169h-78l-99 99h-4l-99 -99h-78z" />
    <glyph glyph-name="otilde" unicode="&#xf5;" horiz-adv-x="546" 
d="M273 -12q-61 0 -113 30t-84.5 87.5t-32.5 138.5t32.5 138.5t84.5 88t113 30.5q60 0 112 -30.5t84.5 -88t32.5 -138.5t-32.5 -138.5t-84.5 -87.5t-112 -30zM273 69q39 0 67.5 22t44.5 61t16 92q0 52 -16 91.5t-44.5 61.5t-67.5 22t-67.5 -22t-44.5 -61.5t-16 -91.5
q0 -53 16 -92t44.5 -61t67.5 -22zM344 576q-26 0 -45.5 12t-35 27.5t-29.5 27.5t-30 12q-21 0 -31 -19.5t-13 -53.5l-64 4q1 42 13 73.5t35 48.5t59 17q26 0 45 -11.5t34.5 -27.5t30 -27.5t30.5 -11.5q20 0 30.5 19.5t12.5 52.5l64 -3q-1 -42 -12.5 -73.5t-34.5 -49
t-59 -17.5z" />
    <glyph glyph-name="odieresis" unicode="&#xf6;" horiz-adv-x="546" 
d="M273 -12q-61 0 -113 30t-84.5 87.5t-32.5 138.5t32.5 138.5t84.5 88t113 30.5q60 0 112 -30.5t84.5 -88t32.5 -138.5t-32.5 -138.5t-84.5 -87.5t-112 -30zM273 69q39 0 67.5 22t44.5 61t16 92q0 52 -16 91.5t-44.5 61.5t-67.5 22t-67.5 -22t-44.5 -61.5t-16 -91.5
q0 -53 16 -92t44.5 -61t67.5 -22zM173 583q-23 0 -39 16t-16 39q0 24 16 39.5t39 15.5q25 0 40.5 -15.5t15.5 -39.5q0 -23 -15.5 -39t-40.5 -16zM373 583q-24 0 -40 16t-16 39q0 24 16 39.5t40 15.5t39.5 -15.5t15.5 -39.5q0 -23 -15.5 -39t-39.5 -16z" />
    <glyph glyph-name="divide" unicode="&#xf7;" horiz-adv-x="505" 
d="M34 294v72h437v-72h-437zM252 90q-25 0 -43 17t-18 43t18 42.5t43 16.5q27 0 44 -16.5t17 -42.5t-17 -43t-44 -17zM252 450q-25 0 -43 17t-18 43t18 42.5t43 16.5q27 0 44 -16.5t17 -42.5t-17 -43t-44 -17z" />
    <glyph glyph-name="oslash" unicode="&#xf8;" horiz-adv-x="546" 
d="M274 -12q-61 0 -114 30t-85 87t-32 138q0 82 32 139.5t84.5 87.5t112.5 30q61 0 113.5 -30t85.5 -87.5t33 -139.5q0 -81 -33 -138t-85 -87t-112 -30zM274 66q38 0 68 21.5t47 60.5t17 90q0 59 -17 100.5t-47 63t-70 21.5q-38 0 -68 -22t-46.5 -61t-16.5 -91
q0 -58 16.5 -99t46.5 -62.5t70 -21.5zM92 -32l-54 46l416 507l55 -46z" />
    <glyph glyph-name="ugrave" unicode="&#xf9;" horiz-adv-x="550" 
d="M222 -12q-78 0 -114 49.5t-36 142.5v308h98v-295q0 -64 20 -92t64 -28q35 0 62 18t58 57v340h98v-488h-80l-9 74h-2q-33 -39 -71 -62.5t-88 -23.5zM276 570l-159 159l5 10h107l126 -169h-79z" />
    <glyph glyph-name="uacute" unicode="&#xfa;" horiz-adv-x="550" 
d="M222 -12q-78 0 -114 49.5t-36 142.5v308h98v-295q0 -64 20 -92t64 -28q35 0 62 18t58 57v340h98v-488h-80l-9 74h-2q-33 -39 -71 -62.5t-88 -23.5zM195 570l126 169h107l5 -10l-159 -159h-79z" />
    <glyph glyph-name="ucircumflex" unicode="&#xfb;" horiz-adv-x="550" 
d="M222 -12q-78 0 -114 49.5t-36 142.5v308h98v-295q0 -64 20 -92t64 -28q35 0 62 18t58 57v340h98v-488h-80l-9 74h-2q-33 -39 -71 -62.5t-88 -23.5zM96 570l135 169h88l135 -169h-78l-99 99h-4l-99 -99h-78z" />
    <glyph glyph-name="udieresis" unicode="&#xfc;" horiz-adv-x="550" 
d="M222 -12q-78 0 -114 49.5t-36 142.5v308h98v-295q0 -64 20 -92t64 -28q35 0 62 18t58 57v340h98v-488h-80l-9 74h-2q-33 -39 -71 -62.5t-88 -23.5zM175 583q-23 0 -39 16t-16 39q0 24 16 39.5t39 15.5q25 0 40.5 -15.5t15.5 -39.5q0 -23 -15.5 -39t-40.5 -16zM375 583
q-24 0 -40 16t-16 39q0 24 16 39.5t40 15.5t39.5 -15.5t15.5 -39.5q0 -23 -15.5 -39t-39.5 -16z" />
    <glyph glyph-name="yacute" unicode="&#xfd;" horiz-adv-x="481" 
d="M98 -206q-18 0 -33 3t-28 8l20 76q10 -3 18.5 -4.5t16.5 -1.5q40 0 65.5 27t38.5 67l10 34l-194 486h101l92 -255q11 -32 22.5 -67.5t22.5 -70.5h4q10 34 20 69.5t19 68.5l80 255h96l-180 -520q-19 -52 -44 -91t-60.5 -61.5t-86.5 -22.5zM167 570l126 169h107l5 -10
l-159 -159h-79z" />
    <glyph glyph-name="thorn" unicode="&#xfe;" horiz-adv-x="559" 
d="M78 -200v909h98v-187l-2 -81q31 25 67.5 42.5t74.5 17.5q64 0 108 -31t67 -87t23 -131q0 -84 -29.5 -143t-77.5 -90t-103 -31q-35 0 -66.5 14t-63.5 38l2 -80v-160h-98zM285 70q36 0 65 21t45.5 61.5t16.5 98.5q0 51 -12 88.5t-38 58t-67 20.5q-28 0 -57 -14.5t-62 -45.5
v-242q30 -25 58.5 -35.5t50.5 -10.5z" />
    <glyph glyph-name="ydieresis" unicode="&#xff;" horiz-adv-x="481" 
d="M98 -206q-18 0 -33 3t-28 8l20 76q10 -3 18.5 -4.5t16.5 -1.5q40 0 65.5 27t38.5 67l10 34l-194 486h101l92 -255q11 -32 22.5 -67.5t22.5 -70.5h4q10 34 20 69.5t19 68.5l80 255h96l-180 -520q-19 -52 -44 -91t-60.5 -61.5t-86.5 -22.5zM147 583q-23 0 -39 16t-16 39
q0 24 16 39.5t39 15.5q25 0 40.5 -15.5t15.5 -39.5q0 -23 -15.5 -39t-40.5 -16zM347 583q-24 0 -40 16t-16 39q0 24 16 39.5t40 15.5t39.5 -15.5t15.5 -39.5q0 -23 -15.5 -39t-39.5 -16z" />
    <glyph glyph-name="Amacron" unicode="&#x100;" horiz-adv-x="551" 
d="M0 0l218 655h115l217 -655h-105l-107 357q-17 54 -32.5 109t-29.5 110h-4q-14 -56 -29.5 -110.5t-32.5 -108.5l-108 -357h-102zM122 188v79h305v-79h-305zM136 731v67h278v-67h-278z" />
    <glyph glyph-name="amacron" unicode="&#x101;" horiz-adv-x="510" 
d="M193 -12q-42 0 -74.5 17t-51 49t-18.5 75q0 83 70.5 125t223.5 59q0 27 -8.5 51.5t-29.5 39t-57 14.5q-39 0 -74.5 -14t-67.5 -33l-37 67q25 16 56 30.5t66.5 23t74.5 8.5q60 0 99 -24.5t58 -70.5t19 -111v-294h-82l-7 56h-4q-34 -28 -72.5 -48t-83.5 -20zM223 69
q32 0 60.5 14.5t59.5 41.5v118q-74 -9 -117.5 -23.5t-62 -35t-18.5 -48.5q0 -36 22.5 -51.5t55.5 -15.5zM134 598v67h272v-67h-272z" />
    <glyph glyph-name="Abreve" unicode="&#x102;" horiz-adv-x="551" 
d="M0 0l218 655h115l217 -655h-105l-107 357q-17 54 -32.5 109t-29.5 110h-4q-14 -56 -29.5 -110.5t-32.5 -108.5l-108 -357h-102zM122 188v79h305v-79h-305zM275 704q-47 0 -79 17t-49.5 47t-21.5 67l58 10q6 -34 29 -57t63 -23t63 23t29 57l58 -10q-4 -37 -21.5 -67
t-49.5 -47t-79 -17z" />
    <glyph glyph-name="abreve" unicode="&#x103;" horiz-adv-x="510" 
d="M193 -12q-42 0 -74.5 17t-51 49t-18.5 75q0 83 70.5 125t223.5 59q0 27 -8.5 51.5t-29.5 39t-57 14.5q-39 0 -74.5 -14t-67.5 -33l-37 67q25 16 56 30.5t66.5 23t74.5 8.5q60 0 99 -24.5t58 -70.5t19 -111v-294h-82l-7 56h-4q-34 -28 -72.5 -48t-83.5 -20zM223 69
q32 0 60.5 14.5t59.5 41.5v118q-74 -9 -117.5 -23.5t-62 -35t-18.5 -48.5q0 -36 22.5 -51.5t55.5 -15.5zM270 569q-54 0 -88.5 22t-51.5 57t-20 74l60 10q4 -25 15.5 -47.5t32.5 -36.5t52 -14t52 14t32.5 36.5t15.5 47.5l60 -10q-3 -39 -20 -74t-51 -57t-89 -22z" />
    <glyph glyph-name="Aogonek" unicode="&#x104;" horiz-adv-x="551" 
d="M496 -221q-46 0 -78.5 23.5t-32.5 70.5q0 29 12.5 53.5t31 43.5t35.5 30h-19l-107 357q-17 54 -32 108.5t-30 110.5h-4q-15 -56 -30 -110.5t-32 -108.5l-108 -357h-102l218 655h115l218 -655q-37 -13 -61.5 -42t-24.5 -59q0 -25 15.5 -36t35.5 -11q15 0 27 5t22 12
l26 -57q-17 -13 -43 -23t-52 -10zM122 189v78h305v-78h-305z" />
    <glyph glyph-name="aogonek" unicode="&#x105;" horiz-adv-x="510" 
d="M392 -216q-44 0 -75 23.5t-31 71.5q0 27 11.5 51t28.5 42t34 30l-7 54h-4q-34 -28 -72.5 -48t-83.5 -20q-42 0 -74.5 17t-51 49t-18.5 75q0 83 70.5 125t223.5 59q0 27 -8.5 51.5t-29.5 39t-57 14.5q-39 0 -74.5 -14t-67.5 -33l-37 67q25 16 56 30.5t66.5 23t74.5 8.5
q60 0 99 -24.5t58 -70.5t19 -111v-294q-37 -15 -58 -44t-21 -56q0 -24 15 -35t33 -11q15 0 27 4t23 12l24 -54q-18 -13 -43 -22.5t-50 -9.5zM223 69q32 0 60.5 14.5t59.5 41.5v118q-74 -9 -117.5 -23.5t-62 -35t-18.5 -48.5q0 -36 22.5 -51.5t55.5 -15.5z" />
    <glyph glyph-name="Cacute" unicode="&#x106;" horiz-adv-x="574" 
d="M343 -12q-83 0 -149.5 39.5t-105 115.5t-38.5 183q0 80 22.5 143.5t63 107.5t94 67t115.5 23q61 0 108 -24t77 -58l-54 -61q-25 27 -57 41.5t-71 14.5q-57 0 -101 -31t-69 -87t-25 -133q0 -79 24 -136t68.5 -87.5t103.5 -30.5q44 0 79 17.5t64 48.5l51 -59
q-39 -45 -88.5 -69.5t-111.5 -24.5zM255 705l131 140h116l6 -11l-166 -129h-87z" />
    <glyph glyph-name="cacute" unicode="&#x107;" horiz-adv-x="459" 
d="M278 -12q-67 0 -120 30.5t-83.5 87.5t-30.5 138t33 138.5t88 87.5t118 30q48 0 83 -15.5t61 -39.5l-48 -62q-17 17 -39.5 26.5t-51.5 9.5q-41 0 -73 -22t-51 -61t-19 -92t18 -92t49.5 -61t74.5 -22q31 0 58 12t48 31l42 -61q-31 -29 -71 -46t-86 -17zM195 570l126 169
h107l5 -10l-159 -159h-79z" />
    <glyph glyph-name="Ccircumflex" unicode="&#x108;" horiz-adv-x="574" 
d="M343 -12q-83 0 -149.5 39.5t-105 115.5t-38.5 183q0 80 22.5 143.5t63 107.5t94 67t115.5 23q61 0 108 -24t77 -58l-54 -61q-25 27 -57 41.5t-71 14.5q-57 0 -101 -31t-69 -87t-25 -133q0 -79 24 -136t68.5 -87.5t103.5 -30.5q44 0 79 17.5t64 48.5l51 -59
q-39 -45 -88.5 -69.5t-111.5 -24.5zM151 705l135 140h98l135 -140h-81l-101 79h-4l-101 -79h-81z" />
    <glyph glyph-name="ccircumflex" unicode="&#x109;" horiz-adv-x="459" 
d="M278 -12q-67 0 -120 30.5t-83.5 87.5t-30.5 138t33 138.5t88 87.5t118 30q48 0 83 -15.5t61 -39.5l-48 -62q-17 17 -39.5 26.5t-51.5 9.5q-41 0 -73 -22t-51 -61t-19 -92t18 -92t49.5 -61t74.5 -22q31 0 58 12t48 31l42 -61q-31 -29 -71 -46t-86 -17zM96 570l135 169h88
l135 -169h-78l-99 99h-4l-99 -99h-78z" />
    <glyph glyph-name="Cdotaccent" unicode="&#x10a;" horiz-adv-x="574" 
d="M343 -12q-83 0 -149.5 39.5t-105 115.5t-38.5 183q0 80 22.5 143.5t63 107.5t94 67t115.5 23q61 0 108 -24t77 -58l-54 -61q-25 27 -57 41.5t-71 14.5q-57 0 -101 -31t-69 -87t-25 -133q0 -79 24 -136t68.5 -87.5t103.5 -30.5q44 0 79 17.5t64 48.5l51 -59
q-39 -45 -88.5 -69.5t-111.5 -24.5zM335 710q-27 0 -45.5 17t-18.5 44q0 26 18.5 42.5t45.5 16.5q28 0 46 -16.5t18 -42.5q0 -27 -18 -44t-46 -17z" />
    <glyph glyph-name="cdotaccent" unicode="&#x10b;" horiz-adv-x="459" 
d="M278 -12q-67 0 -120 30.5t-83.5 87.5t-30.5 138t33 138.5t88 87.5t118 30q48 0 83 -15.5t61 -39.5l-48 -62q-17 17 -39.5 26.5t-51.5 9.5q-41 0 -73 -22t-51 -61t-19 -92t18 -92t49.5 -61t74.5 -22q31 0 58 12t48 31l42 -61q-31 -29 -71 -46t-86 -17zM275 582
q-27 0 -44.5 16.5t-17.5 43.5q0 26 17.5 42.5t44.5 16.5q28 0 45 -16.5t17 -42.5q0 -27 -17 -43.5t-45 -16.5z" />
    <glyph glyph-name="Ccaron" unicode="&#x10c;" horiz-adv-x="574" 
d="M343 -12q-83 0 -149.5 39.5t-105 115.5t-38.5 183q0 80 22.5 143.5t63 107.5t94 67t115.5 23q61 0 108 -24t77 -58l-54 -61q-25 27 -57 41.5t-71 14.5q-57 0 -101 -31t-69 -87t-25 -133q0 -79 24 -136t68.5 -87.5t103.5 -30.5q44 0 79 17.5t64 48.5l51 -59
q-39 -45 -88.5 -69.5t-111.5 -24.5zM286 706l-135 139h81l101 -75h4l101 75h81l-135 -139h-98z" />
    <glyph glyph-name="ccaron" unicode="&#x10d;" horiz-adv-x="459" 
d="M278 -12q-67 0 -120 30.5t-83.5 87.5t-30.5 138t33 138.5t88 87.5t118 30q48 0 83 -15.5t61 -39.5l-48 -62q-17 17 -39.5 26.5t-51.5 9.5q-41 0 -73 -22t-51 -61t-19 -92t18 -92t49.5 -61t74.5 -22q31 0 58 12t48 31l42 -61q-31 -29 -71 -46t-86 -17zM231 570l-135 169
h78l99 -98h4l99 98h78l-135 -169h-88z" />
    <glyph glyph-name="Dcaron" unicode="&#x10e;" horiz-adv-x="620" 
d="M86 0v655h170q100 0 170 -37t107 -109.5t37 -178.5t-36.5 -179.5t-105.5 -112t-167 -38.5h-175zM186 81h63q71 0 120 28.5t73.5 83.5t24.5 137t-24.5 136t-73.5 81t-120 27h-63v-493zM266 706l-135 139h81l101 -75h4l101 75h81l-135 -139h-98z" />
    <glyph glyph-name="dcaron" unicode="&#x10f;" horiz-adv-x="584" 
d="M246 -12q-91 0 -146 67.5t-55 188.5q0 79 29.5 136.5t77.5 89t102 31.5q43 0 73 -14.5t60 -41.5l-4 82v182h99v-709h-81l-8 55h-3q-28 -27 -65 -47t-79 -20zM269 70q32 0 59.5 15t54.5 46v242q-28 25 -54.5 35t-54.5 10q-35 0 -64 -21t-46 -60t-17 -92q0 -84 32 -129.5
t90 -45.5zM535 548l-4 215h68l-1 -61l-17 -154h-46z" />
    <glyph glyph-name="Dcroat" unicode="&#x110;" horiz-adv-x="640" 
d="M28 306v71l84 5h242v-76h-326zM111 0v655h170q100 0 170 -37t107 -109.5t37 -178.5t-36.5 -179.5t-105.5 -112t-167 -38.5h-175zM211 81h63q71 0 120 28.5t73.5 83.5t24.5 137t-24.5 136t-73.5 81t-120 27h-63v-493z" />
    <glyph glyph-name="dcroat" unicode="&#x111;" horiz-adv-x="563" 
d="M247 -12q-61 0 -107 28t-71 81t-25 127q0 72 30 125t78 82t102 29q43 0 73 -14.5t60 -41.5l-4 82v223h99v-709h-83l-8 53h-3q-28 -28 -63 -46.5t-78 -18.5zM269 70q32 0 59 15t55 46v199q-28 26 -54.5 37t-54.5 11q-35 0 -63.5 -19.5t-46 -53.5t-17.5 -80q0 -71 32 -113
t90 -42zM204 549v76h353v-71l-79 -5h-274z" />
    <glyph glyph-name="Emacron" unicode="&#x112;" horiz-adv-x="532" 
d="M86 0v655h386v-84h-286v-187h242v-84h-242v-216h296v-84h-396zM151 731v67h278v-67h-278z" />
    <glyph glyph-name="emacron" unicode="&#x113;" horiz-adv-x="501" 
d="M282 -12q-68 0 -122 30.5t-85.5 87.5t-31.5 138q0 80 32 137.5t83 88t108 30.5q65 0 109 -29t66.5 -80.5t22.5 -120.5q0 -14 -1 -28t-4 -27h-344v77h261q0 62 -27 96t-81 34q-31 0 -60 -17t-48 -55.5t-19 -104.5q0 -60 21 -99.5t55.5 -58.5t75.5 -19q34 0 63.5 9t54.5 26
l35 -64q-33 -23 -74.5 -37t-89.5 -14zM129 598v67h272v-67h-272z" />
    <glyph glyph-name="Ebreve" unicode="&#x114;" horiz-adv-x="532" 
d="M86 0v655h386v-84h-286v-187h242v-84h-242v-216h296v-84h-396zM290 704q-47 0 -79 17t-49.5 47t-21.5 67l58 10q6 -34 29 -57t63 -23t63 23t29 57l58 -10q-4 -37 -21.5 -67t-49.5 -47t-79 -17z" />
    <glyph glyph-name="ebreve" unicode="&#x115;" horiz-adv-x="501" 
d="M282 -12q-68 0 -122 30.5t-85.5 87.5t-31.5 138q0 80 32 137.5t83 88t108 30.5q65 0 109 -29t66.5 -80.5t22.5 -120.5q0 -14 -1 -28t-4 -27h-344v77h261q0 62 -27 96t-81 34q-31 0 -60 -17t-48 -55.5t-19 -104.5q0 -60 21 -99.5t55.5 -58.5t75.5 -19q34 0 63.5 9t54.5 26
l35 -64q-33 -23 -74.5 -37t-89.5 -14zM265 569q-54 0 -88.5 22t-51.5 57t-20 74l60 10q4 -25 15.5 -47.5t32.5 -36.5t52 -14t52 14t32.5 36.5t15.5 47.5l60 -10q-3 -39 -20 -74t-51 -57t-89 -22z" />
    <glyph glyph-name="Edotaccent" unicode="&#x116;" horiz-adv-x="532" 
d="M86 0v655h386v-84h-286v-187h242v-84h-242v-216h296v-84h-396zM290 710q-27 0 -45.5 17t-18.5 44q0 26 18.5 42.5t45.5 16.5q28 0 46 -16.5t18 -42.5q0 -27 -18 -44t-46 -17z" />
    <glyph glyph-name="edotaccent" unicode="&#x117;" horiz-adv-x="501" 
d="M282 -12q-68 0 -122 30.5t-85.5 87.5t-31.5 138q0 80 32 137.5t83 88t108 30.5q65 0 109 -29t66.5 -80.5t22.5 -120.5q0 -14 -1 -28t-4 -27h-344v77h261q0 62 -27 96t-81 34q-31 0 -60 -17t-48 -55.5t-19 -104.5q0 -60 21 -99.5t55.5 -58.5t75.5 -19q34 0 63.5 9t54.5 26
l35 -64q-33 -23 -74.5 -37t-89.5 -14zM265 582q-27 0 -44.5 16.5t-17.5 43.5q0 26 17.5 42.5t44.5 16.5q28 0 45 -16.5t17 -42.5q0 -27 -17 -43.5t-45 -16.5z" />
    <glyph glyph-name="Eogonek" unicode="&#x118;" horiz-adv-x="532" 
d="M411 -221q-46 0 -78.5 24t-32.5 70q0 43 25 76t55 51h-294v655h386v-84h-286v-187h242v-84h-242v-216h296v-84h-7q-21 0 -43 -15t-37 -38.5t-15 -47.5q0 -25 15.5 -36t36.5 -11q14 0 26.5 5t22.5 12l25 -57q-16 -13 -42 -23t-53 -10z" />
    <glyph glyph-name="eogonek" unicode="&#x119;" horiz-adv-x="501" 
d="M362 -215q-44 0 -75.5 23t-31.5 71q0 36 22 68t61 58l3 -5q-14 -6 -30 -9t-29 -3q-68 0 -122 30.5t-85.5 87.5t-31.5 138q0 80 32 137.5t83 88t108 30.5q65 0 109 -29t66.5 -80.5t22.5 -120.5q0 -14 -1 -28t-4 -27h-344v77h261q0 62 -27 96t-81 34q-31 0 -60 -17
t-48 -55.5t-19 -104.5q0 -60 21 -99.5t55.5 -58.5t75.5 -19q34 0 63.5 9t54.5 26l35 -64q-40 -25 -65.5 -49t-37 -46t-11.5 -44q0 -25 15.5 -35t33.5 -10q15 0 27.5 3.5t22.5 11.5l24 -54q-17 -14 -42.5 -22.5t-50.5 -8.5z" />
    <glyph glyph-name="Ecaron" unicode="&#x11a;" horiz-adv-x="532" 
d="M86 0v655h386v-84h-286v-187h242v-84h-242v-216h296v-84h-396zM241 706l-135 139h81l101 -75h4l101 75h81l-135 -139h-98z" />
    <glyph glyph-name="ecaron" unicode="&#x11b;" horiz-adv-x="501" 
d="M282 -12q-68 0 -122 30.5t-85.5 87.5t-31.5 138q0 80 32 137.5t83 88t108 30.5q65 0 109 -29t66.5 -80.5t22.5 -120.5q0 -14 -1 -28t-4 -27h-344v77h261q0 62 -27 96t-81 34q-31 0 -60 -17t-48 -55.5t-19 -104.5q0 -60 21 -99.5t55.5 -58.5t75.5 -19q34 0 63.5 9t54.5 26
l35 -64q-33 -23 -74.5 -37t-89.5 -14zM221 570l-135 169h78l99 -98h4l99 98h78l-135 -169h-88z" />
    <glyph glyph-name="Gcircumflex" unicode="&#x11c;" horiz-adv-x="622" 
d="M352 -12q-87 0 -155.5 39.5t-107.5 115.5t-39 183q0 80 23.5 143t64.5 107.5t97 67.5t121 23q69 0 116.5 -25t76.5 -57l-54 -61q-24 25 -56.5 40.5t-79.5 15.5q-63 0 -109 -30.5t-71.5 -86.5t-25.5 -134t24 -135t70.5 -88t114.5 -31q32 0 60.5 9t45.5 25v156h-131v82h221
v-282q-32 -33 -85.5 -55t-120.5 -22zM171 705l135 140h98l135 -140h-81l-101 79h-4l-101 -79h-81z" />
    <glyph glyph-name="gcircumflex" unicode="&#x11d;" horiz-adv-x="512" 
d="M245 -220q-59 0 -105 14.5t-72 43t-26 71.5q0 31 19 58.5t52 48.5v4q-18 13 -31 32.5t-13 48.5q0 30 17.5 53.5t36.5 37.5v4q-24 19 -43.5 53t-19.5 77q0 55 26 94t68.5 60t93.5 21q20 0 38.5 -3.5t31.5 -8.5h173v-75h-97v-4q16 -15 26 -37t10 -51q0 -53 -24.5 -90
t-65.5 -57t-92 -20q-17 0 -35 4t-35 11q-11 -10 -19 -22t-8 -31q0 -21 18 -34.5t64 -13.5h91q87 0 131 -28.5t44 -90.5q0 -47 -31 -85.5t-88 -61.5t-135 -23zM248 219q26 0 47 13t34 37t13 57q0 50 -27.5 77.5t-66.5 27.5q-40 0 -67.5 -27.5t-27.5 -77.5q0 -33 13 -57
t34.5 -37t47.5 -13zM260 -155q43 0 75 12.5t50 33t18 44.5q0 31 -23.5 42.5t-68.5 11.5h-76q-16 0 -32.5 2t-32.5 5q-22 -16 -32.5 -34.5t-10.5 -38.5q0 -36 35.5 -57t97.5 -21zM84 570l135 169h88l135 -169h-78l-99 99h-4l-99 -99h-78z" />
    <glyph glyph-name="Gbreve" unicode="&#x11e;" horiz-adv-x="622" 
d="M352 -12q-87 0 -155.5 39.5t-107.5 115.5t-39 183q0 80 23.5 143t64.5 107.5t97 67.5t121 23q69 0 116.5 -25t76.5 -57l-54 -61q-24 25 -56.5 40.5t-79.5 15.5q-63 0 -109 -30.5t-71.5 -86.5t-25.5 -134t24 -135t70.5 -88t114.5 -31q32 0 60.5 9t45.5 25v156h-131v82h221
v-282q-32 -33 -85.5 -55t-120.5 -22zM355 704q-47 0 -79 17t-49.5 47t-21.5 67l58 10q6 -34 29 -57t63 -23t63 23t29 57l58 -10q-4 -37 -21.5 -67t-49.5 -47t-79 -17z" />
    <glyph glyph-name="gbreve" unicode="&#x11f;" horiz-adv-x="512" 
d="M245 -220q-59 0 -105 14.5t-72 43t-26 71.5q0 31 19 58.5t52 48.5v4q-18 13 -31 32.5t-13 48.5q0 30 17.5 53.5t36.5 37.5v4q-24 19 -43.5 53t-19.5 77q0 55 26 94t68.5 60t93.5 21q20 0 38.5 -3.5t31.5 -8.5h173v-75h-97v-4q16 -15 26 -37t10 -51q0 -53 -24.5 -90
t-65.5 -57t-92 -20q-17 0 -35 4t-35 11q-11 -10 -19 -22t-8 -31q0 -21 18 -34.5t64 -13.5h91q87 0 131 -28.5t44 -90.5q0 -47 -31 -85.5t-88 -61.5t-135 -23zM248 219q26 0 47 13t34 37t13 57q0 50 -27.5 77.5t-66.5 27.5q-40 0 -67.5 -27.5t-27.5 -77.5q0 -33 13 -57
t34.5 -37t47.5 -13zM260 -155q43 0 75 12.5t50 33t18 44.5q0 31 -23.5 42.5t-68.5 11.5h-76q-16 0 -32.5 2t-32.5 5q-22 -16 -32.5 -34.5t-10.5 -38.5q0 -36 35.5 -57t97.5 -21zM263 569q-54 0 -88.5 22t-51.5 57t-20 74l60 10q4 -25 15.5 -47.5t32.5 -36.5t52 -14t52 14
t32.5 36.5t15.5 47.5l60 -10q-3 -39 -20 -74t-51 -57t-89 -22z" />
    <glyph glyph-name="Gdotaccent" unicode="&#x120;" horiz-adv-x="622" 
d="M352 -12q-87 0 -155.5 39.5t-107.5 115.5t-39 183q0 80 23.5 143t64.5 107.5t97 67.5t121 23q69 0 116.5 -25t76.5 -57l-54 -61q-24 25 -56.5 40.5t-79.5 15.5q-63 0 -109 -30.5t-71.5 -86.5t-25.5 -134t24 -135t70.5 -88t114.5 -31q32 0 60.5 9t45.5 25v156h-131v82h221
v-282q-32 -33 -85.5 -55t-120.5 -22zM355 710q-27 0 -45.5 17t-18.5 44q0 26 18.5 42.5t45.5 16.5q28 0 46 -16.5t18 -42.5q0 -27 -18 -44t-46 -17z" />
    <glyph glyph-name="gdotaccent" unicode="&#x121;" horiz-adv-x="512" 
d="M245 -220q-59 0 -105 14.5t-72 43t-26 71.5q0 31 19 58.5t52 48.5v4q-18 13 -31 32.5t-13 48.5q0 30 17.5 53.5t36.5 37.5v4q-24 19 -43.5 53t-19.5 77q0 55 26 94t68.5 60t93.5 21q20 0 38.5 -3.5t31.5 -8.5h173v-75h-97v-4q16 -15 26 -37t10 -51q0 -53 -24.5 -90
t-65.5 -57t-92 -20q-17 0 -35 4t-35 11q-11 -10 -19 -22t-8 -31q0 -21 18 -34.5t64 -13.5h91q87 0 131 -28.5t44 -90.5q0 -47 -31 -85.5t-88 -61.5t-135 -23zM248 219q26 0 47 13t34 37t13 57q0 50 -27.5 77.5t-66.5 27.5q-40 0 -67.5 -27.5t-27.5 -77.5q0 -33 13 -57
t34.5 -37t47.5 -13zM260 -155q43 0 75 12.5t50 33t18 44.5q0 31 -23.5 42.5t-68.5 11.5h-76q-16 0 -32.5 2t-32.5 5q-22 -16 -32.5 -34.5t-10.5 -38.5q0 -36 35.5 -57t97.5 -21zM263 582q-27 0 -44.5 16.5t-17.5 43.5q0 26 17.5 42.5t44.5 16.5q28 0 45 -16.5t17 -42.5
q0 -27 -17 -43.5t-45 -16.5z" />
    <glyph glyph-name="uni0122" unicode="&#x122;" horiz-adv-x="622" 
d="M352 -12q-87 0 -155.5 39.5t-107.5 115.5t-39 183q0 80 23.5 143t64.5 107.5t97 67.5t121 23q69 0 116.5 -25t76.5 -57l-54 -61q-24 25 -56.5 40.5t-79.5 15.5q-63 0 -109 -30.5t-71.5 -86.5t-25.5 -134t24 -135t70.5 -88t114.5 -31q32 0 60.5 9t45.5 25v156h-131v82h221
v-282q-32 -33 -85.5 -55t-120.5 -22zM265 -230l-9 46q61 4 84 15t23 30q0 18 -17.5 27.5t-51.5 12.5l20 43q70 -8 96.5 -26t26.5 -53q0 -45 -44.5 -68t-127.5 -27z" />
    <glyph glyph-name="uni0123" unicode="&#x123;" horiz-adv-x="512" 
d="M245 -220q-59 0 -105 14.5t-72 43t-26 71.5q0 31 19 58.5t52 48.5v4q-18 13 -31 32.5t-13 48.5q0 30 17.5 53.5t36.5 37.5v4q-24 19 -43.5 53t-19.5 77q0 55 26 94t68.5 60t93.5 21q20 0 38.5 -3.5t31.5 -8.5h173v-75h-97v-4q16 -15 26 -37t10 -51q0 -53 -24.5 -90
t-65.5 -57t-92 -20q-17 0 -35 4t-35 11q-11 -10 -19 -22t-8 -31q0 -21 18 -34.5t64 -13.5h91q87 0 131 -28.5t44 -90.5q0 -47 -31 -85.5t-88 -61.5t-135 -23zM248 219q26 0 47 13t34 37t13 57q0 50 -27.5 77.5t-66.5 27.5q-40 0 -67.5 -27.5t-27.5 -77.5q0 -33 13 -57
t34.5 -37t47.5 -13zM260 -155q43 0 75 12.5t50 33t18 44.5q0 31 -23.5 42.5t-68.5 11.5h-76q-16 0 -32.5 2t-32.5 5q-22 -16 -32.5 -34.5t-10.5 -38.5q0 -36 35.5 -57t97.5 -21zM304 573q-69 8 -96 26.5t-27 52.5q0 46 45 68.5t127 26.5l9 -46q-61 -3 -84 -14t-23 -31
q0 -18 17.5 -27.5t51.5 -12.5z" />
    <glyph glyph-name="Hcircumflex" unicode="&#x124;" horiz-adv-x="657" 
d="M86 0v655h100v-269h285v269h100v-655h-100v299h-285v-299h-100zM144 705l135 140h98l135 -140h-81l-101 79h-4l-101 -79h-81z" />
    <glyph glyph-name="hcircumflex" unicode="&#x125;" horiz-adv-x="551" 
d="M78 0v709h98v-188l-4 -98q33 31 71.5 54.5t88.5 23.5q78 0 114 -50t36 -143v-308h-99v295q0 65 -20 93t-64 28q-35 0 -62 -17.5t-61 -50.5v-348h-98zM115 755l135 140h98l135 -140h-81l-101 79h-4l-101 -79h-81z" />
    <glyph glyph-name="Hbar" unicode="&#x126;" horiz-adv-x="697" 
d="M22 480v71l89 5h562v-76h-651zM106 0v655h100v-269h285v269h100v-655h-100v299h-285v-299h-100z" />
    <glyph glyph-name="hbar" unicode="&#x127;" horiz-adv-x="561" 
d="M88 0v709h98v-228l-3 -98q33 31 71 54t87 23q79 0 115 -49.5t36 -142.5v-268h-99v254q0 64 -19.5 92.5t-64.5 28.5q-34 0 -61.5 -17.5t-61.5 -50.5v-307h-98zM7 549v70l85 6h273v-76h-358z" />
    <glyph glyph-name="Itilde" unicode="&#x128;" horiz-adv-x="273" 
d="M86 0v655h100v-655h-100zM211 705q-27 0 -47.5 10t-36.5 23t-30.5 23.5t-30.5 10.5q-18 0 -30.5 -15t-15.5 -47l-65 5q3 63 32 96t76 33q27 0 47.5 -10.5t36.5 -23.5t30.5 -23.5t30.5 -10.5q18 0 30 15.5t16 46.5l65 -5q-2 -62 -31.5 -95t-76.5 -33z" />
    <glyph glyph-name="itilde" unicode="&#x129;" horiz-adv-x="254" 
d="M77 0v488h99v-488h-99zM197 576q-26 0 -45.5 12t-35 27.5t-29.5 27.5t-30 12q-21 0 -31 -19.5t-13 -53.5l-64 4q1 42 13 73.5t35 48.5t59 17q26 0 45 -11.5t34.5 -27.5t30 -27.5t30.5 -11.5q20 0 30.5 19.5t12.5 52.5l64 -3q-1 -42 -12.5 -73.5t-34.5 -49t-59 -17.5z" />
    <glyph glyph-name="Imacron" unicode="&#x12a;" horiz-adv-x="273" 
d="M86 0v655h100v-655h-100zM-2 731v67h278v-67h-278z" />
    <glyph glyph-name="imacron" unicode="&#x12b;" horiz-adv-x="254" 
d="M77 0v488h99v-488h-99zM-10 598v67h272v-67h-272z" />
    <glyph glyph-name="Ibreve" unicode="&#x12c;" horiz-adv-x="273" 
d="M86 0v655h100v-655h-100zM137 704q-47 0 -79 17t-49.5 47t-21.5 67l58 10q6 -34 29 -57t63 -23t63 23t29 57l58 -10q-4 -37 -21.5 -67t-49.5 -47t-79 -17z" />
    <glyph glyph-name="ibreve" unicode="&#x12d;" horiz-adv-x="254" 
d="M77 0v488h99v-488h-99zM126 569q-54 0 -88.5 22t-51.5 57t-20 74l60 10q4 -25 15.5 -47.5t32.5 -36.5t52 -14t52 14t32.5 36.5t15.5 47.5l60 -10q-3 -39 -20 -74t-51 -57t-89 -22z" />
    <glyph glyph-name="Iogonek" unicode="&#x12e;" horiz-adv-x="273" 
d="M144 -221q-46 0 -78.5 24t-32.5 70q0 41 24 73.5t51 53.5h-22v655h100v-655q-34 -21 -53.5 -47.5t-19.5 -53.5q0 -25 15.5 -36t36.5 -11q14 0 26.5 5t22.5 12l25 -57q-16 -13 -42 -23t-53 -10z" />
    <glyph glyph-name="iogonek" unicode="&#x12f;" horiz-adv-x="254" 
d="M136 -216q-43 0 -74 23t-31 72q0 27 10.5 49.5t26 40.5t30.5 31h-20v489h98v-489q-33 -20 -51.5 -47t-18.5 -54q0 -24 15.5 -35t33.5 -11q15 0 27 4.5t23 11.5l24 -53q-17 -13 -42 -22.5t-51 -9.5zM127 582q-27 0 -44.5 16.5t-17.5 43.5q0 26 17.5 42.5t44.5 16.5
q28 0 45 -16.5t17 -42.5q0 -27 -17 -43.5t-45 -16.5z" />
    <glyph glyph-name="Idotaccent" unicode="&#x130;" horiz-adv-x="273" 
d="M86 0v655h100v-655h-100zM137 710q-27 0 -45.5 17t-18.5 44q0 26 18.5 42.5t45.5 16.5q28 0 46 -16.5t18 -42.5q0 -27 -18 -44t-46 -17z" />
    <glyph glyph-name="dotlessi" unicode="&#x131;" horiz-adv-x="254" 
d="M77 0v488h99v-488h-99z" />
    <glyph glyph-name="IJ" unicode="&#x132;" horiz-adv-x="545" 
d="M86 0v655h100v-655h-100zM313 -169q-24 0 -42.5 4t-32.5 9l19 76q10 -3 21 -5.5t23 -2.5q35 0 46.5 24t11.5 67v652h100v-653q0 -51 -14 -89.5t-46 -60t-86 -21.5z" />
    <glyph glyph-name="ij" unicode="&#x133;" horiz-adv-x="509" 
d="M77 0v488h99v-488h-99zM126 582q-27 0 -44.5 16.5t-17.5 43.5q0 26 17.5 42.5t44.5 16.5q28 0 45 -16.5t17 -42.5q0 -27 -17 -43.5t-45 -16.5zM287 -211q-24 0 -43 4t-33 10l19 73q10 -3 22 -6t22 -3q35 0 46.5 24.5t11.5 67.5v529h100v-528q0 -51 -14.5 -89.5t-46 -60
t-84.5 -21.5zM381 582q-27 0 -44.5 16.5t-17.5 43.5q0 26 17.5 42.5t44.5 16.5q28 0 45 -16.5t17 -42.5q0 -27 -17 -43.5t-45 -16.5z" />
    <glyph glyph-name="Jcircumflex" unicode="&#x134;" horiz-adv-x="487" 
d="M210 -12q-62 0 -107 27t-74 82l66 45q19 -34 46.5 -50.5t60.5 -16.5q52 0 76.5 31t24.5 105v444h100v-453q0 -59 -20 -107.5t-62.5 -77.5t-110.5 -29zM167 705l135 140h98l135 -140h-81l-101 79h-4l-101 -79h-81z" />
    <glyph glyph-name="jcircumflex" unicode="&#x135;" horiz-adv-x="255" 
d="M33 -211q-24 0 -43 4t-33 10l19 73q10 -3 22 -6t22 -3q35 0 46.5 24.5t11.5 67.5v529h100v-528q0 -51 -14.5 -89.5t-46 -60t-84.5 -21.5zM-51 570l135 169h88l135 -169h-78l-99 99h-4l-99 -99h-78z" />
    <glyph glyph-name="uni0136" unicode="&#x136;" horiz-adv-x="588" 
d="M86 0v655h100v-313h3l253 313h112l-204 -252l236 -403h-110l-187 324l-103 -125v-199h-100zM239 -230l-9 46q61 4 84 15t23 30q0 18 -17.5 27.5t-51.5 12.5l20 43q70 -8 96.5 -26t26.5 -53q0 -45 -44.5 -68t-127.5 -27z" />
    <glyph glyph-name="uni0137" unicode="&#x137;" horiz-adv-x="508" 
d="M78 0v709h97v-460h3l193 240h110l-165 -199l184 -290h-108l-134 223l-83 -96v-127h-97zM189 -230l-9 46q61 4 84 15t23 30q0 18 -17.5 27.5t-51.5 12.5l20 43q70 -8 96.5 -26t26.5 -53q0 -45 -44.5 -68t-127.5 -27z" />
    <glyph glyph-name="kgreenlandic" unicode="&#x138;" horiz-adv-x="508" 
d="M78 0v489h98v-243h3l193 243h109l-164 -198l183 -291h-108l-134 221l-82 -98v-123h-98z" />
    <glyph glyph-name="Lacute" unicode="&#x139;" horiz-adv-x="494" 
d="M86 0v655h100v-571h279v-84h-379zM58 705l131 140h116l6 -11l-166 -129h-87z" />
    <glyph glyph-name="lacute" unicode="&#x13a;" horiz-adv-x="263" 
d="M177 -10q-36 0 -58 15t-32 42.5t-10 66.5v595h99v-601q0 -21 7.5 -28.5t17.5 -7.5q4 0 7.5 0.5t9.5 1.5l13 -74q-9 -4 -22.5 -7t-31.5 -3zM49 755l131 140h116l6 -11l-166 -129h-87z" />
    <glyph glyph-name="uni013B" unicode="&#x13b;" horiz-adv-x="494" 
d="M86 0v655h100v-571h279v-84h-379zM199 -230l-9 46q61 4 84 15t23 30q0 18 -17.5 27.5t-51.5 12.5l20 43q70 -8 96.5 -26t26.5 -53q0 -45 -44.5 -68t-127.5 -27z" />
    <glyph glyph-name="uni013C" unicode="&#x13c;" horiz-adv-x="263" 
d="M177 -10q-36 0 -58 15t-32 42.5t-10 66.5v595h99v-601q0 -21 7.5 -28.5t17.5 -7.5q4 0 7.5 0.5t9.5 1.5l13 -74q-9 -4 -22.5 -7t-31.5 -3zM59 -230l-9 46q61 4 84 15t23 30q0 18 -17.5 27.5t-51.5 12.5l20 43q70 -8 96.5 -26t26.5 -53q0 -45 -44.5 -68t-127.5 -27z" />
    <glyph glyph-name="Lcaron" unicode="&#x13d;" horiz-adv-x="494" 
d="M86 0v655h100v-571h279v-84h-379zM338 513l-4 215h68l-1 -61l-17 -154h-46z" />
    <glyph glyph-name="lcaron" unicode="&#x13e;" horiz-adv-x="278" 
d="M177 -10q-36 0 -58 15t-32 42.5t-10 66.5v595h99v-601q0 -21 7.5 -28.5t17.5 -7.5q4 0 7.5 0.5t9.5 1.5l13 -74q-9 -4 -22.5 -7t-31.5 -3zM230 548l-4 215h68l-1 -61l-17 -154h-46z" />
    <glyph glyph-name="Ldot" unicode="&#x13f;" horiz-adv-x="494" 
d="M86 0v655h100v-571h279v-84h-379zM385 256q-27 0 -47 20t-20 50q0 32 20 51.5t47 19.5q29 0 48 -19.5t19 -51.5q0 -30 -19 -50t-48 -20z" />
    <glyph glyph-name="ldot" unicode="&#x140;" horiz-adv-x="385" 
d="M177 -10q-36 0 -58 15t-32 42.5t-10 66.5v595h99v-601q0 -21 7.5 -28.5t17.5 -7.5q4 0 7.5 0.5t9.5 1.5l13 -74q-9 -4 -22.5 -7t-31.5 -3zM319 256q-27 0 -47 20t-20 50q0 32 20 51.5t47 19.5q29 0 48 -19.5t19 -51.5q0 -30 -19 -50t-48 -20z" />
    <glyph glyph-name="Lslash" unicode="&#x141;" horiz-adv-x="511" 
d="M27 200l-38 75l119 51l78 36l198 88l38 -74l-229 -100l-79 -35zM106 0v655h100v-571h279v-84h-379z" />
    <glyph glyph-name="lslash" unicode="&#x142;" horiz-adv-x="314" 
d="M27 299l-38 74l119 53l78 37l94 45l38 -74l-125 -56l-79 -37zM202 -10q-36 0 -58 15t-32 42.5t-10 66.5v595h99v-601q0 -21 7.5 -28.5t17.5 -7.5q4 0 7.5 0.5t9.5 1.5l13 -74q-9 -4 -23 -7t-31 -3z" />
    <glyph glyph-name="Nacute" unicode="&#x143;" horiz-adv-x="651" 
d="M86 0v655h109l215 -384q18 -33 35 -70t33 -74h4q-4 52 -8 107t-4 108v313h95v-655h-109l-215 384q-18 33 -35.5 70t-33.5 74h-4q5 -50 9.5 -104.5t4.5 -108.5v-315h-96zM255 705l131 140h116l6 -11l-166 -129h-87z" />
    <glyph glyph-name="nacute" unicode="&#x144;" horiz-adv-x="553" 
d="M78 0v489h81l8 -69h3q34 34 73 57.5t89 23.5q78 0 114 -50t36 -143v-308h-99v295q0 65 -20 93t-64 28q-35 0 -62 -17.5t-61 -50.5v-348h-98zM219 570l126 169h107l5 -10l-159 -159h-79z" />
    <glyph glyph-name="uni0145" unicode="&#x145;" horiz-adv-x="651" 
d="M86 0v655h109l215 -384q18 -33 35 -70t33 -74h4q-4 52 -8 107t-4 108v313h95v-655h-109l-215 384q-18 33 -35.5 70t-33.5 74h-4q5 -50 9.5 -104.5t4.5 -108.5v-315h-96zM245 -230l-9 46q61 4 84 15t23 30q0 18 -17.5 27.5t-51.5 12.5l20 43q70 -8 96.5 -26t26.5 -53
q0 -45 -44.5 -68t-127.5 -27z" />
    <glyph glyph-name="uni0146" unicode="&#x146;" horiz-adv-x="553" 
d="M78 0v489h81l8 -69h3q34 34 73 57.5t89 23.5q78 0 114 -50t36 -143v-308h-99v295q0 65 -20 93t-64 28q-35 0 -62 -17.5t-61 -50.5v-348h-98zM190 -230l-9 46q61 4 84 15t23 30q0 18 -17.5 27.5t-51.5 12.5l20 43q70 -8 96.5 -26t26.5 -53q0 -45 -44.5 -68t-127.5 -27z
" />
    <glyph glyph-name="Ncaron" unicode="&#x147;" horiz-adv-x="651" 
d="M86 0v655h109l215 -384q18 -33 35 -70t33 -74h4q-4 52 -8 107t-4 108v313h95v-655h-109l-215 384q-18 33 -35.5 70t-33.5 74h-4q5 -50 9.5 -104.5t4.5 -108.5v-315h-96zM286 706l-135 139h81l101 -75h4l101 75h81l-135 -139h-98z" />
    <glyph glyph-name="ncaron" unicode="&#x148;" horiz-adv-x="553" 
d="M78 0v489h81l8 -69h3q34 34 73 57.5t89 23.5q78 0 114 -50t36 -143v-308h-99v295q0 65 -20 93t-64 28q-35 0 -62 -17.5t-61 -50.5v-348h-98zM255 570l-135 169h78l99 -98h4l99 98h78l-135 -169h-88z" />
    <glyph glyph-name="napostrophe" unicode="&#x149;" horiz-adv-x="790" 
d="M91 418l-26 50q33 15 53.5 35t29 42t8.5 42q0 12 -2 19.5t-8 14.5h15q-7 -11 -21 -17.5t-29 -6.5q-22 0 -41.5 15t-19.5 43q0 30 21.5 48t50.5 18q44 0 74 -29.5t30 -84.5q0 -40 -13 -76t-42.5 -65t-79.5 -48zM315 0v489h81l8 -69h3q34 34 73 57.5t89 23.5q78 0 114 -50
t36 -143v-308h-99v295q0 65 -20 93t-64 28q-35 0 -62 -17.5t-61 -50.5v-348h-98z" />
    <glyph glyph-name="Eng" unicode="&#x14a;" horiz-adv-x="643" 
d="M408 -12q-20 0 -43.5 4t-38.5 12l24 87q10 -4 21 -6.5t26 -2.5q26 0 47 21.5t33.5 76.5t12.5 154q0 93 -18.5 146.5t-52.5 76.5t-80 23q-24 0 -52.5 -12t-55 -32.5t-45.5 -48.5v-487h-100v655h97v-78q24 26 53.5 46.5t62.5 32t67 11.5q65 0 116 -32t81 -105.5t30 -195.5
q0 -123 -22 -199.5t-63.5 -111.5t-99.5 -35z" />
    <glyph glyph-name="eng" unicode="&#x14b;" horiz-adv-x="553" 
d="M337 -212q-23 0 -42 4t-33 10l18 74q10 -3 22 -5.5t23 -2.5q34 0 46 24t12 67v336q0 65 -20 93t-64 28q-35 0 -62 -17.5t-61 -50.5v-348h-98v489h81l8 -69h3q34 34 73 57.5t89 23.5q78 0 114 -50t36 -143v-348q0 -51 -14 -89.5t-46 -60.5t-85 -22z" />
    <glyph glyph-name="Omacron" unicode="&#x14c;" horiz-adv-x="669" 
d="M334 -12q-83 0 -147 41.5t-100.5 118.5t-36.5 182q0 106 36.5 181.5t100.5 115.5t147 40q85 0 149 -40t100 -115.5t36 -181.5q0 -105 -36 -182t-100 -118.5t-149 -41.5zM334 75q56 0 96.5 31.5t63 89t22.5 134.5q0 78 -22.5 133.5t-63 86t-96.5 30.5q-54 0 -95 -30.5
t-63.5 -86t-22.5 -133.5q0 -77 22.5 -134.5t63.5 -89t95 -31.5zM196 731v67h278v-67h-278z" />
    <glyph glyph-name="omacron" unicode="&#x14d;" horiz-adv-x="546" 
d="M273 -12q-61 0 -113 30t-84.5 87.5t-32.5 138.5t32.5 138.5t84.5 88t113 30.5q60 0 112 -30.5t84.5 -88t32.5 -138.5t-32.5 -138.5t-84.5 -87.5t-112 -30zM273 69q39 0 67.5 22t44.5 61t16 92q0 52 -16 91.5t-44.5 61.5t-67.5 22t-67.5 -22t-44.5 -61.5t-16 -91.5
q0 -53 16 -92t44.5 -61t67.5 -22zM137 598v67h272v-67h-272z" />
    <glyph glyph-name="Obreve" unicode="&#x14e;" horiz-adv-x="669" 
d="M334 -12q-83 0 -147 41.5t-100.5 118.5t-36.5 182q0 106 36.5 181.5t100.5 115.5t147 40q85 0 149 -40t100 -115.5t36 -181.5q0 -105 -36 -182t-100 -118.5t-149 -41.5zM334 75q56 0 96.5 31.5t63 89t22.5 134.5q0 78 -22.5 133.5t-63 86t-96.5 30.5q-54 0 -95 -30.5
t-63.5 -86t-22.5 -133.5q0 -77 22.5 -134.5t63.5 -89t95 -31.5zM335 704q-47 0 -79 17t-49.5 47t-21.5 67l58 10q6 -34 29 -57t63 -23t63 23t29 57l58 -10q-4 -37 -21.5 -67t-49.5 -47t-79 -17z" />
    <glyph glyph-name="obreve" unicode="&#x14f;" horiz-adv-x="546" 
d="M273 -12q-61 0 -113 30t-84.5 87.5t-32.5 138.5t32.5 138.5t84.5 88t113 30.5q60 0 112 -30.5t84.5 -88t32.5 -138.5t-32.5 -138.5t-84.5 -87.5t-112 -30zM273 69q39 0 67.5 22t44.5 61t16 92q0 52 -16 91.5t-44.5 61.5t-67.5 22t-67.5 -22t-44.5 -61.5t-16 -91.5
q0 -53 16 -92t44.5 -61t67.5 -22zM273 569q-54 0 -88.5 22t-51.5 57t-20 74l60 10q4 -25 15.5 -47.5t32.5 -36.5t52 -14t52 14t32.5 36.5t15.5 47.5l60 -10q-3 -39 -20 -74t-51 -57t-89 -22z" />
    <glyph glyph-name="Ohungarumlaut" unicode="&#x150;" horiz-adv-x="669" 
d="M334 -12q-83 0 -147 41.5t-100.5 118.5t-36.5 182q0 106 36.5 181.5t100.5 115.5t147 40q85 0 149 -40t100 -115.5t36 -181.5q0 -105 -36 -182t-100 -118.5t-149 -41.5zM334 75q56 0 96.5 31.5t63 89t22.5 134.5q0 78 -22.5 133.5t-63 86t-96.5 30.5q-54 0 -95 -30.5
t-63.5 -86t-22.5 -133.5q0 -77 22.5 -134.5t63.5 -89t95 -31.5zM191 705l101 140h92l6 -11l-133 -129h-66zM380 705l102 140h92l6 -11l-134 -129h-66z" />
    <glyph glyph-name="ohungarumlaut" unicode="&#x151;" horiz-adv-x="546" 
d="M273 -12q-61 0 -113 30t-84.5 87.5t-32.5 138.5t32.5 138.5t84.5 88t113 30.5q60 0 112 -30.5t84.5 -88t32.5 -138.5t-32.5 -138.5t-84.5 -87.5t-112 -30zM273 69q39 0 67.5 22t44.5 61t16 92q0 52 -16 91.5t-44.5 61.5t-67.5 22t-67.5 -22t-44.5 -61.5t-16 -91.5
q0 -53 16 -92t44.5 -61t67.5 -22zM154 570l83 169h80l6 -10l-112 -159h-57zM318 570l84 169h79l6 -10l-112 -159h-57z" />
    <glyph glyph-name="OE" unicode="&#x152;" horiz-adv-x="853" 
d="M370 0q-98 0 -170 38t-111 112t-39 180t39.5 178.5t112.5 109.5t173 37h418v-84h-270v-187h226v-84h-226v-216h280v-84h-433zM382 81h41v493h-41q-74 0 -125 -26.5t-77.5 -81t-26.5 -136.5t26.5 -137t77.5 -83.5t125 -28.5z" />
    <glyph glyph-name="oe" unicode="&#x153;" horiz-adv-x="834" 
d="M264 -12q-59 0 -109.5 30.5t-81 87.5t-30.5 138t31 138.5t81 87.5t109 30t105 -29t70 -83q26 54 69.5 83t96.5 29q62 0 105 -29.5t65.5 -81.5t22.5 -121q0 -15 -1 -28.5t-3 -24.5h-308q3 -44 22 -77t49.5 -51.5t67.5 -18.5q34 0 64 9.5t54 25.5l35 -64q-32 -23 -73.5 -37
t-82.5 -14q-59 0 -106 29t-75 84q-28 -56 -72.5 -84.5t-104.5 -28.5zM267 71q37 0 64.5 21.5t43 60.5t15.5 91q0 53 -15.5 92t-43 60.5t-64.5 21.5t-64.5 -21.5t-43 -60.5t-15.5 -92q0 -52 15.5 -91t43 -60.5t64.5 -21.5zM486 291h224q0 62 -28 96.5t-80 34.5q-29 0 -54 -17
t-41.5 -46t-20.5 -68z" />
    <glyph glyph-name="Racute" unicode="&#x154;" horiz-adv-x="580" 
d="M86 0v655h213q68 0 121 -17.5t84 -59.5t31 -112q0 -68 -31 -112t-84 -65.5t-121 -21.5h-113v-267h-100zM186 347h101q73 0 111 29.5t38 89.5t-38 84.5t-111 24.5h-101v-228zM445 0l-165 293l75 57l202 -350h-112zM218 705l131 140h116l6 -11l-166 -129h-87z" />
    <glyph glyph-name="racute" unicode="&#x155;" horiz-adv-x="360" 
d="M78 0v489h81l8 -88h3q25 47 61 73.5t78 26.5q17 0 29.5 -2.5t23.5 -7.5l-20 -84q-11 3 -21 4.5t-25 1.5q-30 0 -63 -24t-57 -83v-306h-98zM149 570l126 169h107l5 -10l-159 -159h-79z" />
    <glyph glyph-name="uni0156" unicode="&#x156;" horiz-adv-x="580" 
d="M86 0v655h213q68 0 121 -17.5t84 -59.5t31 -112q0 -68 -31 -112t-84 -65.5t-121 -21.5h-113v-267h-100zM186 347h101q73 0 111 29.5t38 89.5t-38 84.5t-111 24.5h-101v-228zM445 0l-165 293l75 57l202 -350h-112zM224 -230l-9 46q61 4 84 15t23 30q0 18 -17.5 27.5
t-51.5 12.5l20 43q70 -8 96.5 -26t26.5 -53q0 -45 -44.5 -68t-127.5 -27z" />
    <glyph glyph-name="uni0157" unicode="&#x157;" horiz-adv-x="360" 
d="M78 0v489h81l8 -88h3q25 47 61 73.5t78 26.5q17 0 29.5 -2.5t23.5 -7.5l-20 -84q-11 3 -21 4.5t-25 1.5q-30 0 -63 -24t-57 -83v-306h-98zM35 -230l-9 46q61 4 84 15t23 30q0 18 -17.5 27.5t-51.5 12.5l20 43q70 -8 96.5 -26t26.5 -53q0 -45 -44.5 -68t-127.5 -27z" />
    <glyph glyph-name="Rcaron" unicode="&#x158;" horiz-adv-x="580" 
d="M86 0v655h213q68 0 121 -17.5t84 -59.5t31 -112q0 -68 -31 -112t-84 -65.5t-121 -21.5h-113v-267h-100zM186 347h101q73 0 111 29.5t38 89.5t-38 84.5t-111 24.5h-101v-228zM445 0l-165 293l75 57l202 -350h-112zM249 706l-135 139h81l101 -75h4l101 75h81l-135 -139h-98
z" />
    <glyph glyph-name="rcaron" unicode="&#x159;" horiz-adv-x="360" 
d="M78 0v489h81l8 -88h3q25 47 61 73.5t78 26.5q17 0 29.5 -2.5t23.5 -7.5l-20 -84q-11 3 -21 4.5t-25 1.5q-30 0 -63 -24t-57 -83v-306h-98zM185 570l-135 169h78l99 -98h4l99 98h78l-135 -169h-88z" />
    <glyph glyph-name="Sacute" unicode="&#x15a;" horiz-adv-x="539" 
d="M273 -12q-69 0 -128 25.5t-105 71.5l55 65q35 -35 82.5 -55t97.5 -20q60 0 92.5 26t32.5 70q0 30 -13.5 48.5t-37.5 31t-54 25.5l-92 40q-32 14 -62.5 36t-50.5 55t-20 81q0 51 27.5 91.5t75.5 64t111 23.5q59 0 110 -22t87 -58l-53 -64q-31 26 -67.5 41.5t-76.5 15.5
q-51 0 -82 -23t-31 -63q0 -29 15.5 -47t40.5 -30l50 -24l91 -39q40 -16 70 -39t47 -55.5t17 -81.5q0 -52 -27 -95.5t-78.5 -69t-123.5 -25.5zM203 705l131 140h116l6 -11l-166 -129h-87z" />
    <glyph glyph-name="sacute" unicode="&#x15b;" horiz-adv-x="425" 
d="M210 -12q-53 0 -101 18.5t-83 52.5l44 57q33 -26 67 -39.5t76 -13.5q44 0 65.5 20t21.5 48q0 22 -15.5 37.5t-39.5 26t-51 20.5q-36 13 -68.5 31.5t-52.5 45.5t-20 66q0 62 46.5 102.5t126.5 40.5q48 0 88.5 -16t69.5 -41l-45 -57q-25 19 -52 28.5t-59 9.5
q-41 0 -61 -18.5t-20 -43.5q0 -20 12.5 -33.5t35 -23.5t53.5 -21q38 -13 71.5 -31t54 -46t20.5 -72q0 -40 -21 -74t-62 -54t-101 -20zM140 570l126 169h107l5 -10l-159 -159h-79z" />
    <glyph glyph-name="Scircumflex" unicode="&#x15c;" horiz-adv-x="539" 
d="M273 -12q-69 0 -128 25.5t-105 71.5l55 65q35 -35 82.5 -55t97.5 -20q60 0 92.5 26t32.5 70q0 30 -13.5 48.5t-37.5 31t-54 25.5l-92 40q-32 14 -62.5 36t-50.5 55t-20 81q0 51 27.5 91.5t75.5 64t111 23.5q59 0 110 -22t87 -58l-53 -64q-31 26 -67.5 41.5t-76.5 15.5
q-51 0 -82 -23t-31 -63q0 -29 15.5 -47t40.5 -30l50 -24l91 -39q40 -16 70 -39t47 -55.5t17 -81.5q0 -52 -27 -95.5t-78.5 -69t-123.5 -25.5zM99 705l135 140h98l135 -140h-81l-101 79h-4l-101 -79h-81z" />
    <glyph glyph-name="scircumflex" unicode="&#x15d;" horiz-adv-x="425" 
d="M210 -12q-53 0 -101 18.5t-83 52.5l44 57q33 -26 67 -39.5t76 -13.5q44 0 65.5 20t21.5 48q0 22 -15.5 37.5t-39.5 26t-51 20.5q-36 13 -68.5 31.5t-52.5 45.5t-20 66q0 62 46.5 102.5t126.5 40.5q48 0 88.5 -16t69.5 -41l-45 -57q-25 19 -52 28.5t-59 9.5
q-41 0 -61 -18.5t-20 -43.5q0 -20 12.5 -33.5t35 -23.5t53.5 -21q38 -13 71.5 -31t54 -46t20.5 -72q0 -40 -21 -74t-62 -54t-101 -20zM40 570l135 169h88l135 -169h-78l-99 99h-4l-99 -99h-78z" />
    <glyph glyph-name="Scedilla" unicode="&#x15e;" horiz-adv-x="539" 
d="M273 -12q-69 0 -128 25.5t-105 71.5l55 65q35 -35 82.5 -55t97.5 -20q60 0 92.5 26t32.5 70q0 30 -13.5 48.5t-37.5 31t-54 25.5l-92 40q-32 14 -62.5 36t-50.5 55t-20 81q0 51 27.5 91.5t75.5 64t111 23.5q59 0 110 -22t87 -58l-53 -64q-31 26 -67.5 41.5t-76.5 15.5
q-51 0 -82 -23t-31 -63q0 -29 15.5 -47t40.5 -30l50 -24l91 -39q40 -16 70 -39t47 -55.5t17 -81.5q0 -52 -27 -95.5t-78.5 -69t-123.5 -25.5zM185 -230l-9 46q61 4 84 15t23 33q0 19 -16.5 29.5t-60.5 16.5l45 93h62l-29 -66q35 -8 54 -24.5t19 -47.5q0 -45 -44.5 -68
t-127.5 -27z" />
    <glyph glyph-name="scedilla" unicode="&#x15f;" horiz-adv-x="425" 
d="M210 -12q-53 0 -101 18.5t-83 52.5l44 57q33 -26 67 -39.5t76 -13.5q44 0 65.5 20t21.5 48q0 22 -15.5 37.5t-39.5 26t-51 20.5q-36 13 -68.5 31.5t-52.5 45.5t-20 66q0 62 46.5 102.5t126.5 40.5q48 0 88.5 -16t69.5 -41l-45 -57q-25 19 -52 28.5t-59 9.5
q-41 0 -61 -18.5t-20 -43.5q0 -20 12.5 -33.5t35 -23.5t53.5 -21q38 -13 71.5 -31t54 -46t20.5 -72q0 -40 -21 -74t-62 -54t-101 -20zM125 -230l-9 46q61 4 84 15t23 33q0 19 -16.5 29.5t-60.5 16.5l45 93h62l-29 -66q35 -8 54 -24.5t19 -47.5q0 -45 -44.5 -68t-127.5 -27z
" />
    <glyph glyph-name="Scaron" unicode="&#x160;" horiz-adv-x="539" 
d="M273 -12q-69 0 -128 25.5t-105 71.5l55 65q35 -35 82.5 -55t97.5 -20q60 0 92.5 26t32.5 70q0 30 -13.5 48.5t-37.5 31t-54 25.5l-92 40q-32 14 -62.5 36t-50.5 55t-20 81q0 51 27.5 91.5t75.5 64t111 23.5q59 0 110 -22t87 -58l-53 -64q-31 26 -67.5 41.5t-76.5 15.5
q-51 0 -82 -23t-31 -63q0 -29 15.5 -47t40.5 -30l50 -24l91 -39q40 -16 70 -39t47 -55.5t17 -81.5q0 -52 -27 -95.5t-78.5 -69t-123.5 -25.5zM234 706l-135 139h81l101 -75h4l101 75h81l-135 -139h-98z" />
    <glyph glyph-name="scaron" unicode="&#x161;" horiz-adv-x="425" 
d="M210 -12q-53 0 -101 18.5t-83 52.5l44 57q33 -26 67 -39.5t76 -13.5q44 0 65.5 20t21.5 48q0 22 -15.5 37.5t-39.5 26t-51 20.5q-36 13 -68.5 31.5t-52.5 45.5t-20 66q0 62 46.5 102.5t126.5 40.5q48 0 88.5 -16t69.5 -41l-45 -57q-25 19 -52 28.5t-59 9.5
q-41 0 -61 -18.5t-20 -43.5q0 -20 12.5 -33.5t35 -23.5t53.5 -21q38 -13 71.5 -31t54 -46t20.5 -72q0 -40 -21 -74t-62 -54t-101 -20zM175 570l-135 169h78l99 -98h4l99 98h78l-135 -169h-88z" />
    <glyph glyph-name="uni0162" unicode="&#x162;" horiz-adv-x="541" 
d="M221 0v571h-194v84h487v-84h-194v-571h-99zM175 -230l-9 46q61 4 84 15t23 33q0 19 -16.5 29.5t-60.5 16.5l45 93h62l-29 -66q35 -8 54 -24.5t19 -47.5q0 -45 -44.5 -68t-127.5 -27z" />
    <glyph glyph-name="uni0163" unicode="&#x163;" horiz-adv-x="349" 
d="M241 -10q-82 0 -115 47.5t-33 123.5v249h-71v74l76 4l12 156h82v-156h129v-78h-129v-250q0 -44 17 -67t55 -23q14 0 27 2.5t26 8.5l20 -69q-19 -10 -44 -16t-52 -6zM129 -230l-9 46q61 4 84 15t23 33q0 19 -16.5 29.5t-60.5 16.5l45 93h62l-29 -66q35 -8 54 -24.5
t19 -47.5q0 -45 -44.5 -68t-127.5 -27z" />
    <glyph glyph-name="Tcaron" unicode="&#x164;" horiz-adv-x="541" 
d="M221 0v571h-194v84h487v-84h-194v-571h-99zM221 706l-135 139h81l101 -75h4l101 75h81l-135 -139h-98z" />
    <glyph glyph-name="tcaron" unicode="&#x165;" horiz-adv-x="349" 
d="M241 -10q-82 0 -115 47.5t-33 123.5v249h-71v74l76 4l12 156h82v-156h129v-78h-129v-250q0 -44 17 -67t55 -23q14 0 27 2.5t26 8.5l20 -69q-19 -10 -44 -16t-52 -6zM262 548l-4 215h68l-1 -61l-17 -154h-46z" />
    <glyph glyph-name="Tbar" unicode="&#x166;" horiz-adv-x="541" 
d="M98 292v73l91 4h254v-77h-345zM221 0v571h-194v84h487v-84h-194v-571h-99z" />
    <glyph glyph-name="tbar" unicode="&#x167;" horiz-adv-x="350" 
d="M22 212v71l76 6h224v-77h-300zM241 -10q-82 0 -115 47.5t-33 123.5v249h-71v74l76 4l12 156h82v-156h129v-78h-129v-250q0 -44 17 -67t55 -23q14 0 27 2.5t26 8.5l20 -69q-19 -10 -44 -16t-52 -6z" />
    <glyph glyph-name="Utilde" unicode="&#x168;" horiz-adv-x="650" 
d="M325 -12q-53 0 -97.5 15t-76.5 49t-50 89t-18 133v381h100v-386q0 -74 18.5 -116t51 -60t72.5 -18q42 0 75 18t52 60t19 116v386h96v-381q0 -78 -17.5 -133t-50 -89t-76.5 -49t-98 -15zM399 705q-27 0 -47.5 10t-36.5 23t-30.5 23.5t-30.5 10.5q-18 0 -30.5 -15
t-15.5 -47l-65 5q3 63 32 96t76 33q27 0 47.5 -10.5t36.5 -23.5t30.5 -23.5t30.5 -10.5q18 0 30 15.5t16 46.5l65 -5q-2 -62 -31.5 -95t-76.5 -33z" />
    <glyph glyph-name="utilde" unicode="&#x169;" horiz-adv-x="550" 
d="M222 -12q-78 0 -114 49.5t-36 142.5v308h98v-295q0 -64 20 -92t64 -28q35 0 62 18t58 57v340h98v-488h-80l-9 74h-2q-33 -39 -71 -62.5t-88 -23.5zM346 576q-26 0 -45.5 12t-35 27.5t-29.5 27.5t-30 12q-21 0 -31 -19.5t-13 -53.5l-64 4q1 42 13 73.5t35 48.5t59 17
q26 0 45 -11.5t34.5 -27.5t30 -27.5t30.5 -11.5q20 0 30.5 19.5t12.5 52.5l64 -3q-1 -42 -12.5 -73.5t-34.5 -49t-59 -17.5z" />
    <glyph glyph-name="Umacron" unicode="&#x16a;" horiz-adv-x="650" 
d="M325 -12q-53 0 -97.5 15t-76.5 49t-50 89t-18 133v381h100v-386q0 -74 18.5 -116t51 -60t72.5 -18q42 0 75 18t52 60t19 116v386h96v-381q0 -78 -17.5 -133t-50 -89t-76.5 -49t-98 -15zM186 731v67h278v-67h-278z" />
    <glyph glyph-name="umacron" unicode="&#x16b;" horiz-adv-x="550" 
d="M222 -12q-78 0 -114 49.5t-36 142.5v308h98v-295q0 -64 20 -92t64 -28q35 0 62 18t58 57v340h98v-488h-80l-9 74h-2q-33 -39 -71 -62.5t-88 -23.5zM139 598v67h272v-67h-272z" />
    <glyph glyph-name="Ubreve" unicode="&#x16c;" horiz-adv-x="650" 
d="M325 -12q-53 0 -97.5 15t-76.5 49t-50 89t-18 133v381h100v-386q0 -74 18.5 -116t51 -60t72.5 -18q42 0 75 18t52 60t19 116v386h96v-381q0 -78 -17.5 -133t-50 -89t-76.5 -49t-98 -15zM325 704q-47 0 -79 17t-49.5 47t-21.5 67l58 10q6 -34 29 -57t63 -23t63 23t29 57
l58 -10q-4 -37 -21.5 -67t-49.5 -47t-79 -17z" />
    <glyph glyph-name="ubreve" unicode="&#x16d;" horiz-adv-x="550" 
d="M222 -12q-78 0 -114 49.5t-36 142.5v308h98v-295q0 -64 20 -92t64 -28q35 0 62 18t58 57v340h98v-488h-80l-9 74h-2q-33 -39 -71 -62.5t-88 -23.5zM275 569q-54 0 -88.5 22t-51.5 57t-20 74l60 10q4 -25 15.5 -47.5t32.5 -36.5t52 -14t52 14t32.5 36.5t15.5 47.5l60 -10
q-3 -39 -20 -74t-51 -57t-89 -22z" />
    <glyph glyph-name="Uring" unicode="&#x16e;" horiz-adv-x="650" 
d="M325 -12q-53 0 -97.5 15t-76.5 49t-50 89t-18 133v381h100v-386q0 -74 18.5 -116t51 -60t72.5 -18q42 0 75 18t52 60t19 116v386h96v-381q0 -78 -17.5 -133t-50 -89t-76.5 -49t-98 -15zM325 698q-53 0 -84.5 25t-31.5 68t31.5 67.5t84.5 24.5q54 0 85 -24.5t31 -67.5
t-31 -68t-85 -25zM325 738q24 0 38.5 14t14.5 39t-14.5 38.5t-38.5 13.5q-23 0 -38 -13.5t-15 -38.5t15 -39t38 -14z" />
    <glyph glyph-name="uring" unicode="&#x16f;" horiz-adv-x="550" 
d="M222 -12q-78 0 -114 49.5t-36 142.5v308h98v-295q0 -64 20 -92t64 -28q35 0 62 18t58 57v340h98v-488h-80l-9 74h-2q-33 -39 -71 -62.5t-88 -23.5zM275 557q-54 0 -84.5 28.5t-30.5 71.5q0 42 30.5 70.5t84.5 28.5t84.5 -28.5t30.5 -70.5q0 -43 -30.5 -71.5t-84.5 -28.5z
M275 598q23 0 38 16t15 43q0 26 -15 42t-38 16q-22 0 -37.5 -16t-15.5 -43q0 -26 15.5 -42t37.5 -16z" />
    <glyph glyph-name="Uhungarumlaut" unicode="&#x170;" horiz-adv-x="650" 
d="M325 -12q-53 0 -97.5 15t-76.5 49t-50 89t-18 133v381h100v-386q0 -74 18.5 -116t51 -60t72.5 -18q42 0 75 18t52 60t19 116v386h96v-381q0 -78 -17.5 -133t-50 -89t-76.5 -49t-98 -15zM181 705l101 140h92l6 -11l-133 -129h-66zM370 705l102 140h92l6 -11l-134 -129h-66
z" />
    <glyph glyph-name="uhungarumlaut" unicode="&#x171;" horiz-adv-x="550" 
d="M222 -12q-78 0 -114 49.5t-36 142.5v308h98v-295q0 -64 20 -92t64 -28q35 0 62 18t58 57v340h98v-488h-80l-9 74h-2q-33 -39 -71 -62.5t-88 -23.5zM156 570l83 169h80l6 -10l-112 -159h-57zM320 570l84 169h79l6 -10l-112 -159h-57z" />
    <glyph glyph-name="Uogonek" unicode="&#x172;" horiz-adv-x="650" 
d="M340 -221q-47 0 -79.5 24t-32.5 70q0 41 24.5 75.5t52.5 54.5l21 -15q-54 0 -98.5 16t-76.5 50t-50 90t-18 135v376h100v-382q0 -76 18.5 -119.5t50.5 -62t74 -18.5q41 0 74 18.5t52 62t19 119.5v382h96v-376q0 -87 -21 -146t-61 -93t-100 -49q-23 -6 -40 -21t-26.5 -34
t-9.5 -37q0 -25 15 -36t36 -11q15 0 27 5t22 12l26 -57q-17 -13 -43 -23t-52 -10z" />
    <glyph glyph-name="uogonek" unicode="&#x173;" horiz-adv-x="550" 
d="M422 -216q-43 0 -74 23t-31 72q0 27 11.5 50.5t29 42.5t34.5 30l-9 72h-2q-34 -39 -71.5 -62.5t-88.5 -23.5q-77 0 -113 50t-36 143v308h98v-296q0 -64 20 -92t64 -28q35 0 62 18t58 57v341h99v-489q-39 -16 -60 -45t-21 -56q0 -24 15.5 -35t33.5 -11q15 0 27 4.5
t23 11.5l24 -53q-17 -13 -42 -22.5t-51 -9.5z" />
    <glyph glyph-name="Wcircumflex" unicode="&#x174;" horiz-adv-x="793" 
d="M151 0l-131 655h107l62 -343q8 -53 16 -105.5t16 -109.5h4q9 57 20 109.5t22 105.5l82 343h99l81 -343q11 -52 22.5 -105t21.5 -110h4q7 57 15 109.5t16 105.5l63 343h101l-131 -655h-130l-85 369q-7 37 -14 74.5t-13 81.5h-4q-5 -44 -12 -81.5t-15 -74.5l-86 -369h-131z
M213 705l135 140h98l135 -140h-81l-101 79h-4l-101 -79h-81z" />
    <glyph glyph-name="wcircumflex" unicode="&#x175;" horiz-adv-x="733" 
d="M157 0l-133 488h102l64 -267q9 -33 15.5 -67t11.5 -76h4q7 42 14 76t15 67l66 267h105l68 -267q8 -33 15.5 -67t14.5 -76h4q7 42 13.5 76t13.5 67l64 267h95l-128 -488h-126l-58 244q-8 34 -14.5 67.5t-13.5 78.5h-4q-7 -45 -13.5 -79t-15.5 -67l-57 -244h-122zM188 570
l135 169h88l135 -169h-78l-99 99h-4l-99 -99h-78z" />
    <glyph glyph-name="Ycircumflex" unicode="&#x176;" horiz-adv-x="488" 
d="M194 0v249l-196 406h106l78 -176q15 -37 29.5 -71.5t31.5 -72.5h4q16 38 32 72.5t30 71.5l78 176h104l-197 -406v-249h-100zM60 705l135 140h98l135 -140h-81l-101 79h-4l-101 -79h-81z" />
    <glyph glyph-name="ycircumflex" unicode="&#x177;" horiz-adv-x="481" 
d="M98 -206q-18 0 -33 3t-28 8l20 76q10 -3 18.5 -4.5t16.5 -1.5q40 0 65.5 27t38.5 67l10 34l-194 486h101l92 -255q11 -32 22.5 -67.5t22.5 -70.5h4q10 34 20 69.5t19 68.5l80 255h96l-180 -520q-19 -52 -44 -91t-60.5 -61.5t-86.5 -22.5zM68 570l135 169h88l135 -169h-78
l-99 99h-4l-99 -99h-78z" />
    <glyph glyph-name="Ydieresis" unicode="&#x178;" horiz-adv-x="488" 
d="M194 0v249l-196 406h106l78 -176q15 -37 29.5 -71.5t31.5 -72.5h4q16 38 32 72.5t30 71.5l78 176h104l-197 -406v-249h-100zM139 712q-23 0 -38.5 15t-15.5 39t15.5 39t38.5 15q24 0 39.5 -15t15.5 -39t-15.5 -39t-39.5 -15zM349 712q-23 0 -39 15t-16 39t16 39t39 15
q24 0 39 -15t15 -39t-15 -39t-39 -15z" />
    <glyph glyph-name="Zacute" unicode="&#x179;" horiz-adv-x="540" 
d="M42 0v60l331 511h-301v84h425v-59l-331 -512h334v-84h-458zM201 705l131 140h116l6 -11l-166 -129h-87z" />
    <glyph glyph-name="zacute" unicode="&#x17a;" horiz-adv-x="434" 
d="M33 0v53l243 356h-216v80h341v-53l-244 -357h252v-79h-376zM155 570l126 169h107l5 -10l-159 -159h-79z" />
    <glyph glyph-name="Zdotaccent" unicode="&#x17b;" horiz-adv-x="540" 
d="M42 0v60l331 511h-301v84h425v-59l-331 -512h334v-84h-458zM281 710q-27 0 -45.5 17t-18.5 44q0 26 18.5 42.5t45.5 16.5q28 0 46 -16.5t18 -42.5q0 -27 -18 -44t-46 -17z" />
    <glyph glyph-name="zdotaccent" unicode="&#x17c;" horiz-adv-x="434" 
d="M33 0v53l243 356h-216v80h341v-53l-244 -357h252v-79h-376zM235 582q-27 0 -44.5 16.5t-17.5 43.5q0 26 17.5 42.5t44.5 16.5q28 0 45 -16.5t17 -42.5q0 -27 -17 -43.5t-45 -16.5z" />
    <glyph glyph-name="Zcaron" unicode="&#x17d;" horiz-adv-x="540" 
d="M42 0v60l331 511h-301v84h425v-59l-331 -512h334v-84h-458zM232 706l-135 139h81l101 -75h4l101 75h81l-135 -139h-98z" />
    <glyph glyph-name="zcaron" unicode="&#x17e;" horiz-adv-x="434" 
d="M33 0v53l243 356h-216v80h341v-53l-244 -357h252v-79h-376zM191 570l-135 169h78l99 -98h4l99 98h78l-135 -169h-88z" />
    <glyph glyph-name="longs" unicode="&#x17f;" horiz-adv-x="281" 
d="M94 0v552q0 51 16 89t49.5 59t87.5 21q24 0 47 -5t38 -12l-20 -73q-28 11 -54 11q-32 0 -48.5 -22t-16.5 -67v-553h-99zM28 409v75l71 5h78v-80h-149z" />
    <glyph glyph-name="uni0180" unicode="&#x180;" horiz-adv-x="569" 
d="M315 -12q-34 0 -69.5 16.5t-66.5 46.5h-4l-9 -51h-78v709h98v-228l-3 -86q34 29 71.5 47t75.5 18q63 0 106.5 -28t66 -79.5t22.5 -120.5q0 -76 -29.5 -130.5t-77.5 -84t-103 -29.5zM295 70q37 0 65.5 19.5t45 56t16.5 86.5q0 43 -12 76t-37.5 51.5t-66.5 18.5
q-29 0 -58.5 -15.5t-61.5 -45.5v-201q29 -25 57.5 -35.5t51.5 -10.5zM7 549v71l86 5h272v-76h-358z" />
    <glyph glyph-name="uni0181" unicode="&#x181;" horiz-adv-x="756" 
d="M273 0v616h99v-235h70q76 0 110 27.5t34 75.5q0 53 -39 76t-116 23h-78q-78 0 -127.5 -21t-73 -56t-23.5 -79t18.5 -71t54.5 -47l-42 -68q-54 25 -86.5 69t-32.5 114q0 71 37 125.5t115.5 86t204.5 31.5q97 0 159.5 -17.5t93.5 -55t31 -97.5q0 -51 -24 -90.5t-70 -54.5
v-4q60 -11 95 -49t35 -103q0 -67 -32 -110t-87.5 -64.5t-128.5 -21.5h-197zM372 78h86q78 0 121 29t43 90q0 56 -42 82t-122 26h-86v-227z" />
    <glyph glyph-name="uni0186" unicode="&#x186;" horiz-adv-x="574" 
d="M242 -12q-66 0 -118.5 24t-94.5 71l54 59q31 -34 69.5 -50.5t87.5 -16.5q84 0 132.5 63.5t48.5 193.5q0 82 -23 137t-63.5 83t-94.5 28q-41 0 -78 -14t-66 -42l-49 61q34 36 84.5 59t113.5 23q79 0 142 -38.5t99.5 -114t36.5 -188.5q0 -112 -36.5 -187.5t-100 -113
t-144.5 -37.5z" />
    <glyph glyph-name="uni018A" unicode="&#x18a;" horiz-adv-x="791" 
d="M273 0v616h99v-535h52q66 0 113 29t71.5 85.5t24.5 141.5q0 80 -25 134t-78 81.5t-136 27.5h-41q-78 0 -127.5 -20.5t-73 -55t-23.5 -77.5q0 -44 18.5 -71t54.5 -47l-42 -68q-54 25 -86.5 69t-32.5 114q0 71 36 125.5t113 86t203 31.5q115 0 191 -38t114 -111.5
t38 -180.5q0 -109 -37 -184t-106.5 -114t-167.5 -39h-152z" />
    <glyph glyph-name="uni018D" unicode="&#x18d;" horiz-adv-x="538" 
d="M271 721q61 0 111 -28.5t80 -82t30 -127.5q0 -68 -30 -123t-85 -87.5t-130 -34.5l-44 62q69 3 112 28t64 65t21 88q0 50 -17.5 85.5t-46.5 54.5t-65 19q-59 0 -92.5 -46t-33.5 -130q0 -42 17 -83.5t47 -80.5t70.5 -76t88 -72t97.5 -67v-85h-386v79h257q-39 25 -79.5 56.5
t-77 67.5t-65 77t-45.5 86.5t-17 94.5q0 79 26.5 137.5t75.5 90.5t117 32z" />
    <glyph glyph-name="uni018E" unicode="&#x18e;" horiz-adv-x="532" 
d="M50 0v84h296v216h-242v84h242v187h-286v84h386v-655h-396z" />
    <glyph glyph-name="uni018F" unicode="&#x18f;" horiz-adv-x="652" 
d="M329 -12q-125 0 -199 84.5t-74 246.5q0 9 1 18.5t2 18.5h468v-74h-371q1 -70 23.5 -117.5t61.5 -71t89 -23.5q81 0 127 64t46 195q0 126 -47.5 191t-134.5 65q-55 0 -99 -19.5t-79 -50.5l-51 60q43 41 100.5 66.5t133.5 25.5q127 0 201.5 -86.5t74.5 -251.5
q0 -112 -34 -188t-95.5 -114.5t-143.5 -38.5z" />
    <glyph glyph-name="uni0190" unicode="&#x190;" horiz-adv-x="542" 
d="M293 -12q-73 0 -130 23t-90 68t-33 109q0 44 18 76.5t48 53.5t67 29v4q-46 20 -72.5 58t-26.5 90q0 54 29.5 91.5t79.5 57t112 19.5q56 0 106.5 -21.5t86.5 -57.5l-47 -62q-29 25 -65 39.5t-78 14.5q-55 0 -90.5 -24.5t-35.5 -72.5q0 -49 34.5 -75.5t109.5 -26.5h62v-76
h-78q-78 0 -120 -27t-42 -84q0 -38 21.5 -64.5t58.5 -40.5t83 -14q50 0 88.5 14.5t75.5 49.5l50 -61q-45 -46 -96 -68t-126 -22z" />
    <glyph glyph-name="florin" unicode="&#x192;" horiz-adv-x="304" 
d="M48 -212q-23 0 -42 4t-33 10l19 74q10 -3 21.5 -5.5t22.5 -2.5q35 0 46.5 24t11.5 67v593q0 51 16 89t49.5 59t87.5 21q24 0 47 -5t38 -12l-21 -71q-27 9 -53 9q-32 0 -48.5 -22t-16.5 -67v-593q0 -51 -14 -89.5t-45.5 -60.5t-85.5 -22zM24 409v75l71 5h197v-80h-268z
" />
    <glyph glyph-name="uni0193" unicode="&#x193;" horiz-adv-x="622" 
d="M352 -12q-87 0 -155.5 39.5t-107.5 115.5t-39 183q0 80 23.5 143t64.5 107.5t97 67.5t121 23q28 0 55 -6t58 -20l-10 -18q-21 29 -26.5 47.5t-5.5 34.5q0 29 14 51.5t40 36t60 13.5q24 0 40.5 -4.5t30.5 -11.5l-20 -70q-8 4 -15.5 6t-19.5 2q-22 0 -36 -14.5t-14 -36.5
q0 -23 12 -38t30 -39l-54 -64q-24 18 -56.5 31t-79.5 13q-63 0 -109 -30.5t-71.5 -86.5t-25.5 -134t24 -135t70.5 -88t114.5 -31q32 0 60.5 9t45.5 25v156h-131v82h221v-282q-32 -33 -85.5 -55t-120.5 -22z" />
    <glyph glyph-name="uni0194" unicode="&#x194;" horiz-adv-x="526" 
d="M261 -220q-66 0 -98.5 33t-32.5 86q0 26 8.5 52.5t25 59t40.5 76.5l-10 -52l-196 620h106l95 -331q11 -38 20.5 -72t19 -69t20.5 -75h4q12 40 21 75t18.5 69t21.5 72l102 331h101l-202 -620l-8 51q24 -43 41 -76t25.5 -59t8.5 -52q0 -53 -32.5 -86t-98.5 -33zM261 -155
q22 0 33 14.5t11 36.5q0 25 -11 53t-31 64h-5q-18 -36 -29 -64t-11 -53q0 -22 11 -36.5t32 -14.5z" />
    <glyph glyph-name="uni0196" unicode="&#x196;" horiz-adv-x="273" 
d="M191 -10q-37 0 -60 15t-34 43.5t-11 68.5v538h100v-539q0 -23 9 -31.5t20 -8.5q5 0 9.5 1t10.5 2l14 -78q-9 -4 -24 -7.5t-34 -3.5z" />
    <glyph glyph-name="uni0197" unicode="&#x197;" horiz-adv-x="312" 
d="M22 306v71l89 5h179v-76h-268zM106 0v655h100v-655h-100z" />
    <glyph glyph-name="uni019A" unicode="&#x19a;" horiz-adv-x="303" 
d="M22 347v71l81 6h175v-77h-256zM202 -10q-36 0 -58 15t-32 42.5t-10 66.5v595h99v-601q0 -21 7.5 -28.5t17.5 -7.5q4 0 7.5 0.5t9.5 1.5l13 -74q-9 -4 -22.5 -7t-31.5 -3z" />
    <glyph glyph-name="uni019B" unicode="&#x19b;" horiz-adv-x="481" 
d="M73 436l-35 65l342 176l38 -65zM14 0l194 486l-20 61q-13 41 -38.5 67.5t-65.5 26.5q-9 0 -19 -2.5t-17 -4.5l-18 77q13 5 27.5 7.5t32.5 2.5q52 0 87 -21.5t60 -61t44 -91.5l190 -547h-100l-80 255q-10 33 -19.5 69t-18.5 69h-4q-12 -34 -23.5 -70t-22.5 -68l-93 -255
h-96z" />
    <glyph glyph-name="uni019E" unicode="&#x19e;" horiz-adv-x="553" 
d="M383 -200v495q0 65 -20 93t-64 28q-35 0 -62 -17.5t-61 -50.5v-348h-98v489h81l8 -69h3q34 34 73 57.5t89 23.5q78 0 114 -50t36 -143v-508h-99z" />
    <glyph glyph-name="Ohorn" unicode="&#x1a0;" horiz-adv-x="669" 
d="M519 597l-53 38q40 9 59.5 27.5t19.5 52.5q0 16 -4 32t-11 28l77 33q10 -16 17 -38.5t7 -47.5q0 -50 -29 -80t-83 -45zM337 -12q-84 0 -148 41.5t-100.5 118.5t-36.5 182q0 106 36.5 181.5t100.5 115.5t148 40t148 -40t100 -115.5t36 -181.5q0 -105 -36 -182t-100 -118.5
t-148 -41.5zM337 75q55 0 95.5 31.5t63 88.5t22.5 135t-22.5 134t-63 86t-95.5 30t-96 -30t-63.5 -86t-22.5 -134t22.5 -135t63.5 -88.5t96 -31.5z" />
    <glyph glyph-name="ohorn" unicode="&#x1a1;" horiz-adv-x="546" 
d="M418 442l-53 37q40 8 62 30.5t22 64.5q0 15 -4 29t-11 26l75 34q10 -15 18 -37t8 -45q0 -40 -16.5 -68t-43 -45t-57.5 -26zM273 -12q-61 0 -113 30t-84.5 87.5t-32.5 138.5t32.5 138.5t84.5 88t113 30.5q60 0 112 -30.5t84.5 -88t32.5 -138.5t-32.5 -138.5t-84.5 -87.5
t-112 -30zM273 69q39 0 67.5 22t44.5 61t16 92q0 52 -16 91.5t-44.5 61.5t-67.5 22t-67.5 -22t-44.5 -61.5t-16 -91.5q0 -53 16 -92t44.5 -61t67.5 -22z" />
    <glyph glyph-name="Uhorn" unicode="&#x1af;" horiz-adv-x="665" 
d="M567 614l-54 41q25 3 45 11t31.5 24.5t11.5 44.5q0 16 -4 32t-11 28l76 33q11 -16 18 -38.5t7 -47.5q0 -39 -15.5 -64.5t-42.5 -40.5t-62 -23zM326 -12q-54 0 -98.5 15.5t-76.5 49t-50 88.5t-18 133v381h100v-386q0 -74 18.5 -116t50.5 -60t74 -18q41 0 74 18t52 60
t19 116v386h96v-381q0 -78 -17.5 -133t-49.5 -88.5t-76.5 -49t-97.5 -15.5z" />
    <glyph glyph-name="uhorn" unicode="&#x1b0;" horiz-adv-x="550" 
d="M471 453l-69 36q22 3 41 11.5t30.5 28.5t11.5 55q0 14 -4 28.5t-11 26.5l74 34q12 -16 19 -37.5t7 -44.5q0 -40 -14 -68t-37 -44.5t-48 -25.5zM221 -12q-77 0 -113 50t-36 143v308h98v-296q0 -64 20.5 -92t63.5 -28q35 0 62 18t58 57v341h99v-489h-82l-8 74h-2
q-34 -39 -71.5 -62.5t-88.5 -23.5z" />
    <glyph glyph-name="uni01B1" unicode="&#x1b1;" horiz-adv-x="687" 
d="M642 655v-81h-126v-4q27 -26 52.5 -64.5t42.5 -89.5t17 -114q0 -91 -35.5 -162t-99.5 -111.5t-149 -40.5q-86 0 -150 40.5t-99.5 111.5t-35.5 162q0 63 17 114t42.5 89.5t52.5 64.5v4h-126v81h242v-72q-37 -30 -65 -69t-44 -89.5t-16 -114.5q0 -68 21.5 -121t62.5 -83.5
t98 -30.5t97.5 30.5t62 83.5t21.5 121q0 64 -16 114.5t-44 89.5t-65 69v72h242z" />
    <glyph glyph-name="uni01B7" unicode="&#x1b7;" horiz-adv-x="552" 
d="M282 -12q-77 0 -136.5 21.5t-110.5 76.5l54 62q41 -41 86.5 -57t95.5 -16q41 0 74 13.5t52 40.5t19 66q0 57 -38 86.5t-95 29.5q-28 0 -44.5 -3t-36.5 -10l-36 57l205 216h-295v84h424v-63l-199 -214q66 2 114 -20t73.5 -63t25.5 -97q0 -67 -32 -114.5t-85 -71.5
t-115 -24z" />
    <glyph glyph-name="uni01BF" unicode="&#x1bf;" horiz-adv-x="549" 
d="M78 -200v689h81l8 -76h3q37 43 76.5 65.5t91.5 22.5q51 0 88 -21t57.5 -59.5t20.5 -89.5q0 -59 -22.5 -113t-65.5 -99t-104 -78.5t-138 -52.5l2 -80v-108h-98zM176 72q67 20 117.5 57t79.5 85.5t29 99.5q0 47 -22.5 75.5t-69.5 28.5q-21 0 -41.5 -7.5t-43 -26.5
t-49.5 -54v-258z" />
    <glyph glyph-name="uni01C0" unicode="&#x1c0;" horiz-adv-x="254" 
d="M77 0v709h99v-709h-99z" />
    <glyph glyph-name="uni01C1" unicode="&#x1c1;" horiz-adv-x="468" 
d="M77 0v709h99v-709h-99zM291 0v709h99v-709h-99z" />
    <glyph glyph-name="uni01C2" unicode="&#x1c2;" horiz-adv-x="405" 
d="M28 232v70l78 6h270v-76h-348zM28 399v71l78 6h270v-77h-348zM158 0v709h99v-709h-99z" />
    <glyph glyph-name="uni01C3" unicode="&#x1c3;" horiz-adv-x="248" 
d="M91 207l-15 359l-3 143h102l-3 -143l-15 -359h-66zM124 -12q-28 0 -47.5 20t-19.5 50q0 32 19.5 51.5t47.5 19.5q29 0 48 -19.5t19 -51.5q0 -30 -19 -50t-48 -20z" />
    <glyph glyph-name="uni01CD" unicode="&#x1cd;" horiz-adv-x="551" 
d="M0 0l218 655h115l217 -655h-105l-107 357q-17 54 -32.5 109t-29.5 110h-4q-14 -56 -29.5 -110.5t-32.5 -108.5l-108 -357h-102zM122 188v79h305v-79h-305zM226 706l-135 139h81l101 -75h4l101 75h81l-135 -139h-98z" />
    <glyph glyph-name="uni01CE" unicode="&#x1ce;" horiz-adv-x="510" 
d="M193 -12q-42 0 -74.5 17t-51 49t-18.5 75q0 83 70.5 125t223.5 59q0 27 -8.5 51.5t-29.5 39t-57 14.5q-39 0 -74.5 -14t-67.5 -33l-37 67q25 16 56 30.5t66.5 23t74.5 8.5q60 0 99 -24.5t58 -70.5t19 -111v-294h-82l-7 56h-4q-34 -28 -72.5 -48t-83.5 -20zM223 69
q32 0 60.5 14.5t59.5 41.5v118q-74 -9 -117.5 -23.5t-62 -35t-18.5 -48.5q0 -36 22.5 -51.5t55.5 -15.5zM226 570l-135 169h78l99 -98h4l99 98h78l-135 -169h-88z" />
    <glyph glyph-name="uni01CF" unicode="&#x1cf;" horiz-adv-x="273" 
d="M86 0v655h100v-655h-100zM88 706l-135 139h81l101 -75h4l101 75h81l-135 -139h-98z" />
    <glyph glyph-name="uni01D0" unicode="&#x1d0;" horiz-adv-x="254" 
d="M77 0v488h99v-488h-99zM82 570l-135 169h78l99 -98h4l99 98h78l-135 -169h-88z" />
    <glyph glyph-name="uni01D1" unicode="&#x1d1;" horiz-adv-x="669" 
d="M334 -12q-83 0 -147 41.5t-100.5 118.5t-36.5 182q0 106 36.5 181.5t100.5 115.5t147 40q85 0 149 -40t100 -115.5t36 -181.5q0 -105 -36 -182t-100 -118.5t-149 -41.5zM334 75q56 0 96.5 31.5t63 89t22.5 134.5q0 78 -22.5 133.5t-63 86t-96.5 30.5q-54 0 -95 -30.5
t-63.5 -86t-22.5 -133.5q0 -77 22.5 -134.5t63.5 -89t95 -31.5zM286 706l-135 139h81l101 -75h4l101 75h81l-135 -139h-98z" />
    <glyph glyph-name="uni01D2" unicode="&#x1d2;" horiz-adv-x="546" 
d="M273 -12q-61 0 -113 30t-84.5 87.5t-32.5 138.5t32.5 138.5t84.5 88t113 30.5q60 0 112 -30.5t84.5 -88t32.5 -138.5t-32.5 -138.5t-84.5 -87.5t-112 -30zM273 69q39 0 67.5 22t44.5 61t16 92q0 52 -16 91.5t-44.5 61.5t-67.5 22t-67.5 -22t-44.5 -61.5t-16 -91.5
q0 -53 16 -92t44.5 -61t67.5 -22zM229 570l-135 169h78l99 -98h4l99 98h78l-135 -169h-88z" />
    <glyph glyph-name="uni01D3" unicode="&#x1d3;" horiz-adv-x="650" 
d="M325 -12q-53 0 -97.5 15t-76.5 49t-50 89t-18 133v381h100v-386q0 -74 18.5 -116t51 -60t72.5 -18q42 0 75 18t52 60t19 116v386h96v-381q0 -78 -17.5 -133t-50 -89t-76.5 -49t-98 -15zM276 706l-135 139h81l101 -75h4l101 75h81l-135 -139h-98z" />
    <glyph glyph-name="uni01D4" unicode="&#x1d4;" horiz-adv-x="550" 
d="M222 -12q-78 0 -114 49.5t-36 142.5v308h98v-295q0 -64 20 -92t64 -28q35 0 62 18t58 57v340h98v-488h-80l-9 74h-2q-33 -39 -71 -62.5t-88 -23.5zM231 570l-135 169h78l99 -98h4l99 98h78l-135 -169h-88z" />
    <glyph glyph-name="uni01D5" unicode="&#x1d5;" horiz-adv-x="650" 
d="M325 -12q-53 0 -97.5 15t-76.5 49t-50 89t-18 133v381h100v-386q0 -74 18.5 -116t51 -60t72.5 -18q42 0 75 18t52 60t19 116v386h96v-381q0 -78 -17.5 -133t-50 -89t-76.5 -49t-98 -15zM220 712q-22 0 -37 14.5t-15 37.5t15 37.5t37 14.5q23 0 38 -14.5t15 -37.5
t-15 -37.5t-38 -14.5zM430 712q-23 0 -38 14.5t-15 37.5t15 37.5t38 14.5t37.5 -14.5t14.5 -37.5t-14.5 -37.5t-37.5 -14.5zM187 864v56h276v-56h-276z" />
    <glyph glyph-name="uni01D6" unicode="&#x1d6;" horiz-adv-x="550" 
d="M222 -12q-78 0 -114 49.5t-36 142.5v308h98v-295q0 -64 20 -92t64 -28q35 0 62 18t58 57v340h98v-488h-80l-9 74h-2q-33 -39 -71 -62.5t-88 -23.5zM175 583q-22 0 -37.5 15.5t-15.5 37.5q0 23 15.5 38t37.5 15q24 0 39 -15t15 -38q0 -22 -15 -37.5t-39 -15.5zM375 583
q-23 0 -38.5 15.5t-15.5 37.5q0 23 15.5 38t38.5 15t38 -15t15 -38q0 -22 -15 -37.5t-38 -15.5zM138 752v56h273v-56h-273z" />
    <glyph glyph-name="uni01D7" unicode="&#x1d7;" horiz-adv-x="650" 
d="M325 -12q-53 0 -97.5 15t-76.5 49t-50 89t-18 133v381h100v-386q0 -74 18.5 -116t51 -60t72.5 -18q42 0 75 18t52 60t19 116v386h96v-381q0 -78 -17.5 -133t-50 -89t-76.5 -49t-98 -15zM220 712q-22 0 -37 14.5t-15 37.5t15 37.5t37 14.5q23 0 38 -14.5t15 -37.5
t-15 -37.5t-38 -14.5zM430 712q-23 0 -38 14.5t-15 37.5t15 37.5t38 14.5t37.5 -14.5t14.5 -37.5t-14.5 -37.5t-37.5 -14.5zM266 840l85 119h92l6 -11l-115 -108h-68z" />
    <glyph glyph-name="uni01D8" unicode="&#x1d8;" horiz-adv-x="550" 
d="M222 -12q-78 0 -114 49.5t-36 142.5v308h98v-295q0 -64 20 -92t64 -28q35 0 62 18t58 57v340h98v-488h-80l-9 74h-2q-33 -39 -71 -62.5t-88 -23.5zM175 583q-22 0 -37.5 15.5t-15.5 37.5q0 23 15.5 38t37.5 15q24 0 39 -15t15 -38q0 -22 -15 -37.5t-39 -15.5zM375 583
q-23 0 -38.5 15.5t-15.5 37.5q0 23 15.5 38t38.5 15t38 -15t15 -38q0 -22 -15 -37.5t-38 -15.5zM210 715l92 129h91l6 -11l-121 -118h-68z" />
    <glyph glyph-name="uni01D9" unicode="&#x1d9;" horiz-adv-x="650" 
d="M325 -12q-53 0 -97.5 15t-76.5 49t-50 89t-18 133v381h100v-386q0 -74 18.5 -116t51 -60t72.5 -18q42 0 75 18t52 60t19 116v386h96v-381q0 -78 -17.5 -133t-50 -89t-76.5 -49t-98 -15zM220 712q-22 0 -37 14.5t-15 37.5t15 37.5t37 14.5q23 0 38 -14.5t15 -37.5
t-15 -37.5t-38 -14.5zM430 712q-23 0 -38 14.5t-15 37.5t15 37.5t38 14.5t37.5 -14.5t14.5 -37.5t-14.5 -37.5t-37.5 -14.5zM281 843l-120 109h75l87 -54h4l87 54h75l-120 -109h-88z" />
    <glyph glyph-name="uni01DA" unicode="&#x1da;" horiz-adv-x="550" 
d="M222 -12q-78 0 -114 49.5t-36 142.5v308h98v-295q0 -64 20 -92t64 -28q35 0 62 18t58 57v340h98v-488h-80l-9 74h-2q-33 -39 -71 -62.5t-88 -23.5zM175 583q-22 0 -37.5 15.5t-15.5 37.5q0 23 15.5 38t37.5 15q24 0 39 -15t15 -38q0 -22 -15 -37.5t-39 -15.5zM375 583
q-23 0 -38.5 15.5t-15.5 37.5q0 23 15.5 38t38.5 15t38 -15t15 -38q0 -22 -15 -37.5t-38 -15.5zM231 708l-120 111h75l87 -57h4l87 57h75l-120 -111h-88z" />
    <glyph glyph-name="uni01DB" unicode="&#x1db;" horiz-adv-x="650" 
d="M325 -12q-53 0 -97.5 15t-76.5 49t-50 89t-18 133v381h100v-386q0 -74 18.5 -116t51 -60t72.5 -18q42 0 75 18t52 60t19 116v386h96v-381q0 -78 -17.5 -133t-50 -89t-76.5 -49t-98 -15zM220 712q-22 0 -37 14.5t-15 37.5t15 37.5t37 14.5q23 0 38 -14.5t15 -37.5
t-15 -37.5t-38 -14.5zM430 712q-23 0 -38 14.5t-15 37.5t15 37.5t38 14.5t37.5 -14.5t14.5 -37.5t-14.5 -37.5t-37.5 -14.5zM316 840l-115 108l6 11h92l85 -119h-68z" />
    <glyph glyph-name="uni01DC" unicode="&#x1dc;" horiz-adv-x="550" 
d="M222 -12q-78 0 -114 49.5t-36 142.5v308h98v-295q0 -64 20 -92t64 -28q35 0 62 18t58 57v340h98v-488h-80l-9 74h-2q-33 -39 -71 -62.5t-88 -23.5zM175 583q-22 0 -37.5 15.5t-15.5 37.5q0 23 15.5 38t37.5 15q24 0 39 -15t15 -38q0 -22 -15 -37.5t-39 -15.5zM375 583
q-23 0 -38.5 15.5t-15.5 37.5q0 23 15.5 38t38.5 15t38 -15t15 -38q0 -22 -15 -37.5t-38 -15.5zM272 715l-121 118l6 11h91l92 -129h-68z" />
    <glyph glyph-name="uni01DD" unicode="&#x1dd;" horiz-adv-x="501" 
d="M244 -12q-67 0 -113.5 30t-70.5 83.5t-24 123.5q0 15 1.5 28.5t4.5 25.5h343v-76h-261q0 -63 30.5 -99t88.5 -36q29 0 56 16.5t44 55.5t17 104q0 60 -18.5 99t-49 58t-68.5 19q-35 0 -64.5 -9t-56.5 -26l-35 64q34 24 76 37.5t91 13.5q64 0 114 -30t79.5 -87t29.5 -139
q0 -80 -30 -137.5t-79 -88t-105 -30.5z" />
    <glyph glyph-name="uni01E2" unicode="&#x1e2;" horiz-adv-x="828" 
d="M3 0l335 655h430v-84h-271v-187h227v-84h-227v-216h281v-84h-380v578h-4l-50 -104t-50 -103l-187 -371h-104zM153 181v78h302v-78h-302zM417 731v67h278v-67h-278z" />
    <glyph glyph-name="uni01E3" unicode="&#x1e3;" horiz-adv-x="779" 
d="M193 -12q-42 0 -74.5 17t-51 49t-18.5 75q0 83 70 125t220 59q-1 28 -9 52.5t-28 38.5t-57 14q-36 0 -71.5 -14t-67.5 -33l-37 66q25 17 55 31.5t64 23t69 8.5q53 0 89 -25.5t51 -70.5q28 45 67 70.5t88 25.5q63 0 105.5 -29t63.5 -81t21 -122q0 -15 -1 -28.5t-3 -24.5
h-308q3 -45 22 -78t50.5 -51t70.5 -18q34 0 62 9t54 26l34 -64q-33 -23 -73.5 -37t-89.5 -14q-39 0 -70.5 12t-56 31.5t-44.5 43.5q-50 -43 -99 -65t-97 -22zM223 69q32 0 68 16t65 47q-7 18 -11 42t-6 49l-2 20q-104 -13 -147 -38.5t-43 -68.5q0 -36 21.5 -51.5t54.5 -15.5
zM432 290h221q0 65 -27.5 98.5t-74.5 33.5q-31 0 -56 -16.5t-41.5 -46t-21.5 -69.5zM276 598v67h272v-67h-272z" />
    <glyph glyph-name="uni01E4" unicode="&#x1e4;" horiz-adv-x="665" 
d="M353 -12q-88 0 -156.5 39.5t-107.5 115.5t-39 183q0 80 23 143.5t64.5 107.5t97 67t120.5 23q70 0 117 -25.5t77 -56.5l-54 -61q-25 25 -57 40.5t-79 15.5q-63 0 -109 -30.5t-71.5 -86.5t-25.5 -134q0 -79 24 -136t70.5 -87.5t114.5 -30.5q32 0 60 9t46 25v238h90v-282
q-32 -33 -85.5 -55t-119.5 -22zM336 193v71l136 6h168v-77h-304z" />
    <glyph glyph-name="uni01E5" unicode="&#x1e5;" horiz-adv-x="584" 
d="M276 222v71l107 5h177v-76h-284zM257 -215q-44 0 -91 14t-87 39l35 68q36 -23 72.5 -33t70.5 -10q63 0 94 33.5t32 87.5l2 84q-27 -26 -62.5 -43.5t-76.5 -17.5q-60 0 -105.5 30t-70.5 85t-25 130q0 76 30.5 132t78.5 86t103 30q40 0 71.5 -14t61.5 -42h3l8 44h81v-501
q0 -95 -58.5 -148.5t-166.5 -53.5zM269 88q32 0 59 15t55 47v223q-28 25 -54.5 35t-54.5 10q-36 0 -65 -20.5t-46 -57.5t-17 -87q0 -76 32.5 -120.5t90.5 -44.5z" />
    <glyph glyph-name="Gcaron" unicode="&#x1e6;" horiz-adv-x="622" 
d="M352 -12q-87 0 -155.5 39.5t-107.5 115.5t-39 183q0 80 23.5 143t64.5 107.5t97 67.5t121 23q69 0 116.5 -25t76.5 -57l-54 -61q-24 25 -56.5 40.5t-79.5 15.5q-63 0 -109 -30.5t-71.5 -86.5t-25.5 -134t24 -135t70.5 -88t114.5 -31q32 0 60.5 9t45.5 25v156h-131v82h221
v-282q-32 -33 -85.5 -55t-120.5 -22zM306 706l-135 139h81l101 -75h4l101 75h81l-135 -139h-98z" />
    <glyph glyph-name="gcaron" unicode="&#x1e7;" horiz-adv-x="512" 
d="M245 -220q-59 0 -105 14.5t-72 43t-26 71.5q0 31 19 58.5t52 48.5v4q-18 13 -31 32.5t-13 48.5q0 30 17.5 53.5t36.5 37.5v4q-24 19 -43.5 53t-19.5 77q0 55 26 94t68.5 60t93.5 21q20 0 38.5 -3.5t31.5 -8.5h173v-75h-97v-4q16 -15 26 -37t10 -51q0 -53 -24.5 -90
t-65.5 -57t-92 -20q-17 0 -35 4t-35 11q-11 -10 -19 -22t-8 -31q0 -21 18 -34.5t64 -13.5h91q87 0 131 -28.5t44 -90.5q0 -47 -31 -85.5t-88 -61.5t-135 -23zM248 219q26 0 47 13t34 37t13 57q0 50 -27.5 77.5t-66.5 27.5q-40 0 -67.5 -27.5t-27.5 -77.5q0 -33 13 -57
t34.5 -37t47.5 -13zM260 -155q43 0 75 12.5t50 33t18 44.5q0 31 -23.5 42.5t-68.5 11.5h-76q-16 0 -32.5 2t-32.5 5q-22 -16 -32.5 -34.5t-10.5 -38.5q0 -36 35.5 -57t97.5 -21zM219 570l-135 169h78l99 -98h4l99 98h78l-135 -169h-88z" />
    <glyph glyph-name="uni01EA" unicode="&#x1ea;" horiz-adv-x="669" 
d="M350 -221q-47 0 -79.5 24t-32.5 70q0 34 23 71t65 59l9 -15q-84 0 -148 41.5t-100.5 118.5t-36.5 182q0 106 36.5 181.5t100.5 115.5t148 40q83 0 147.5 -40t100.5 -115.5t36 -181.5q0 -94 -26.5 -161.5t-72.5 -109.5t-105 -60q-35 -12 -56.5 -29.5t-30.5 -36.5t-9 -34
q0 -25 15 -36t36 -11q15 0 27 5t22 12l26 -57q-17 -13 -43 -23t-52 -10zM335 73q55 0 95.5 32t63 89.5t22.5 135.5t-22.5 134t-63 86t-95.5 30t-96 -30t-63.5 -86t-22.5 -134t22.5 -135.5t63.5 -89.5t96 -32z" />
    <glyph glyph-name="uni01EB" unicode="&#x1eb;" horiz-adv-x="546" 
d="M286 -216q-44 0 -75 23t-31 72q0 35 22 69t60 55l11 -15q-61 0 -113 30t-84.5 87.5t-32.5 138.5t32.5 138.5t84.5 88t113 30.5q60 0 112 -30.5t84.5 -88t32.5 -138.5q0 -67 -22 -116t-58.5 -81.5t-79.5 -49.5q-48 -18 -67 -44t-19 -54q0 -24 15.5 -35t32.5 -11
q16 0 27.5 4.5t22.5 11.5l24 -53q-17 -13 -41.5 -22.5t-50.5 -9.5zM273 67q39 0 67.5 22.5t44.5 62t16 92.5q0 52 -16 91.5t-44.5 61.5t-67.5 22t-67.5 -22t-44.5 -61.5t-16 -91.5q0 -53 16 -92.5t44.5 -62t67.5 -22.5z" />
    <glyph glyph-name="uni01EE" unicode="&#x1ee;" horiz-adv-x="552" 
d="M282 -12q-77 0 -136.5 21.5t-110.5 76.5l54 62q41 -41 86.5 -57t95.5 -16q41 0 74 13.5t52 40.5t19 66q0 57 -38 86.5t-95 29.5q-28 0 -44.5 -3t-36.5 -10l-36 57l205 216h-295v84h424v-63l-199 -214q66 2 114 -20t73.5 -63t25.5 -97q0 -67 -32 -114.5t-85 -71.5
t-115 -24zM236 706l-135 139h81l101 -75h4l101 75h81l-135 -139h-98z" />
    <glyph glyph-name="uni01EF" unicode="&#x1ef;" horiz-adv-x="434" 
d="M203 -212q-72 0 -119.5 24.5t-79.5 54.5l47 62q26 -23 59.5 -41t82.5 -18q34 0 62 16.5t44 47.5t16 73q0 58 -32.5 90t-91.5 32q-21 0 -33 -3.5t-29 -11.5l-37 52l182 243h-232v80h351v-53l-178 -239q62 5 107 -18.5t69 -67.5t24 -101q0 -71 -30 -120.5t-78 -75.5
t-104 -26zM176 570l-135 169h78l99 -98h4l99 98h78l-135 -169h-88z" />
    <glyph glyph-name="uni01F0" unicode="&#x1f0;" horiz-adv-x="255" 
d="M33 -211q-24 0 -43 4t-33 10l19 73q10 -3 22 -6t22 -3q35 0 46.5 24.5t11.5 67.5v529h100v-528q0 -51 -14.5 -89.5t-46 -60t-84.5 -21.5zM84 570l-135 169h78l99 -98h4l99 98h78l-135 -169h-88z" />
    <glyph glyph-name="uni01F4" unicode="&#x1f4;" horiz-adv-x="622" 
d="M352 -12q-87 0 -155.5 39.5t-107.5 115.5t-39 183q0 80 23.5 143t64.5 107.5t97 67.5t121 23q69 0 116.5 -25t76.5 -57l-54 -61q-24 25 -56.5 40.5t-79.5 15.5q-63 0 -109 -30.5t-71.5 -86.5t-25.5 -134t24 -135t70.5 -88t114.5 -31q32 0 60.5 9t45.5 25v156h-131v82h221
v-282q-32 -33 -85.5 -55t-120.5 -22zM275 705l131 140h116l6 -11l-166 -129h-87z" />
    <glyph glyph-name="uni01F5" unicode="&#x1f5;" horiz-adv-x="512" 
d="M245 -220q-59 0 -105 14.5t-72 43t-26 71.5q0 31 19 58.5t52 48.5v4q-18 13 -31 32.5t-13 48.5q0 30 17.5 53.5t36.5 37.5v4q-24 19 -43.5 53t-19.5 77q0 55 26 94t68.5 60t93.5 21q20 0 38.5 -3.5t31.5 -8.5h173v-75h-97v-4q16 -15 26 -37t10 -51q0 -53 -24.5 -90
t-65.5 -57t-92 -20q-17 0 -35 4t-35 11q-11 -10 -19 -22t-8 -31q0 -21 18 -34.5t64 -13.5h91q87 0 131 -28.5t44 -90.5q0 -47 -31 -85.5t-88 -61.5t-135 -23zM248 219q26 0 47 13t34 37t13 57q0 50 -27.5 77.5t-66.5 27.5q-40 0 -67.5 -27.5t-27.5 -77.5q0 -33 13 -57
t34.5 -37t47.5 -13zM260 -155q43 0 75 12.5t50 33t18 44.5q0 31 -23.5 42.5t-68.5 11.5h-76q-16 0 -32.5 2t-32.5 5q-22 -16 -32.5 -34.5t-10.5 -38.5q0 -36 35.5 -57t97.5 -21zM183 570l126 169h107l5 -10l-159 -159h-79z" />
    <glyph glyph-name="uni01F7" unicode="&#x1f7;" horiz-adv-x="574" 
d="M86 -157v812h97v-78q24 25 51.5 45.5t59 32.5t65.5 12q52 0 91 -21.5t61 -68.5t22 -123q0 -77 -33 -155.5t-109 -154.5t-205 -146v-155h-100zM186 87q96 62 150 122.5t76 120t22 116.5q0 50 -13.5 79.5t-36.5 42t-53 12.5q-24 0 -50.5 -12t-51 -33t-43.5 -48v-400z" />
    <glyph glyph-name="uni01F8" unicode="&#x1f8;" horiz-adv-x="651" 
d="M86 0v655h109l215 -384q18 -33 35 -70t33 -74h4q-4 52 -8 107t-4 108v313h95v-655h-109l-215 384q-18 33 -35.5 70t-33.5 74h-4q5 -50 9.5 -104.5t4.5 -108.5v-315h-96zM328 705l-166 129l6 11h116l131 -140h-87z" />
    <glyph glyph-name="uni01F9" unicode="&#x1f9;" horiz-adv-x="553" 
d="M78 0v489h81l8 -69h3q34 34 73 57.5t89 23.5q78 0 114 -50t36 -143v-308h-99v295q0 65 -20 93t-64 28q-35 0 -62 -17.5t-61 -50.5v-348h-98zM300 570l-159 159l5 10h107l126 -169h-79z" />
    <glyph glyph-name="Aringacute" unicode="&#x1fa;" horiz-adv-x="551" 
d="M0 0l218 655h115l217 -655h-105l-107 357q-17 54 -32.5 109t-29.5 110h-4q-14 -56 -29.5 -110.5t-32.5 -108.5l-108 -357h-102zM122 188v79h305v-79h-305zM275 698q-54 0 -85 25t-31 65q0 23 9 39t27 32l115 100h93l6 -11l-131 -86l6 11q47 0 77 -21.5t30 -63.5
q0 -40 -30.5 -65t-85.5 -25zM275 738q24 0 38.5 13.5t14.5 36.5t-14.5 36.5t-38.5 13.5q-23 0 -38 -13.5t-15 -36.5t15 -36.5t38 -13.5z" />
    <glyph glyph-name="aringacute" unicode="&#x1fb;" horiz-adv-x="510" 
d="M193 -12q-42 0 -74.5 17t-51 49t-18.5 75q0 83 70.5 125t223.5 59q0 27 -8.5 51.5t-29.5 39t-57 14.5q-39 0 -74.5 -14t-67.5 -33l-37 67q25 16 56 30.5t66.5 23t74.5 8.5q60 0 99 -24.5t58 -70.5t19 -111v-294h-82l-7 56h-4q-34 -28 -72.5 -48t-83.5 -20zM223 69
q32 0 60.5 14.5t59.5 41.5v118q-74 -9 -117.5 -23.5t-62 -35t-18.5 -48.5q0 -36 22.5 -51.5t55.5 -15.5zM272 557q-54 0 -84.5 27.5t-30.5 68.5q0 31 14 50t40 43l97 98h92l6 -11l-127 -94l2 6q56 0 81 -28t25 -64q0 -41 -30.5 -68.5t-84.5 -27.5zM272 598q23 0 38 15.5
t15 39.5q0 27 -15 42t-38 15q-22 0 -37.5 -15t-15.5 -42q0 -24 15.5 -39.5t37.5 -15.5z" />
    <glyph glyph-name="AEacute" unicode="&#x1fc;" horiz-adv-x="828" 
d="M3 0l335 655h430v-84h-271v-187h227v-84h-227v-216h281v-84h-380v578h-4l-50 -104t-50 -103l-187 -371h-104zM153 181v78h302v-78h-302zM476 705l131 140h116l6 -11l-166 -129h-87z" />
    <glyph glyph-name="aeacute" unicode="&#x1fd;" horiz-adv-x="779" 
d="M193 -12q-42 0 -74.5 17t-51 49t-18.5 75q0 83 70 125t220 59q-1 28 -9 52.5t-28 38.5t-57 14q-36 0 -71.5 -14t-67.5 -33l-37 66q25 17 55 31.5t64 23t69 8.5q53 0 89 -25.5t51 -70.5q28 45 67 70.5t88 25.5q63 0 105.5 -29t63.5 -81t21 -122q0 -15 -1 -28.5t-3 -24.5
h-308q3 -45 22 -78t50.5 -51t70.5 -18q34 0 62 9t54 26l34 -64q-33 -23 -73.5 -37t-89.5 -14q-39 0 -70.5 12t-56 31.5t-44.5 43.5q-50 -43 -99 -65t-97 -22zM223 69q32 0 68 16t65 47q-7 18 -11 42t-6 49l-2 20q-104 -13 -147 -38.5t-43 -68.5q0 -36 21.5 -51.5t54.5 -15.5
zM432 290h221q0 65 -27.5 98.5t-74.5 33.5q-31 0 -56 -16.5t-41.5 -46t-21.5 -69.5zM332 570l126 169h107l5 -10l-159 -159h-79z" />
    <glyph glyph-name="Oslashacute" unicode="&#x1fe;" horiz-adv-x="669" 
d="M104 -36l-60 48l528 679l61 -48zM337 -12q-84 0 -148 41.5t-100 118.5t-36 182q0 106 36 181.5t100 115.5t148 40t148.5 -40t100.5 -115.5t36 -181.5q0 -105 -36 -182t-100.5 -118.5t-148.5 -41.5zM337 75q55 0 95.5 31.5t63 89t22.5 134.5q0 78 -22.5 133.5t-63 86
t-95.5 30.5t-95.5 -30.5t-63.5 -86t-23 -133.5q0 -77 23 -134.5t63.5 -89t95.5 -31.5zM253 705l131 140h116l6 -11l-166 -129h-87z" />
    <glyph glyph-name="oslashacute" unicode="&#x1ff;" horiz-adv-x="546" 
d="M274 -12q-61 0 -114 30t-85 87t-32 138q0 82 32 139.5t84.5 87.5t112.5 30q61 0 113.5 -30t85.5 -87.5t33 -139.5q0 -81 -33 -138t-85 -87t-112 -30zM274 66q38 0 68 21.5t47 60.5t17 90q0 59 -17 100.5t-47 63t-70 21.5q-38 0 -68 -22t-46.5 -61t-16.5 -91
q0 -58 16.5 -99t46.5 -62.5t70 -21.5zM92 -32l-54 46l416 507l55 -46zM193 570l126 169h107l5 -10l-159 -159h-79z" />
    <glyph glyph-name="uni0200" unicode="&#x200;" horiz-adv-x="551" 
d="M0 0l218 655h115l217 -655h-105l-107 357q-17 54 -32.5 109t-29.5 110h-4q-14 -56 -29.5 -110.5t-32.5 -108.5l-108 -357h-102zM122 188v79h305v-79h-305zM164 706l-134 128l6 11h92l102 -139h-66zM353 706l-133 128l6 11h92l101 -139h-66z" />
    <glyph glyph-name="uni0201" unicode="&#x201;" horiz-adv-x="510" 
d="M193 -12q-42 0 -74.5 17t-51 49t-18.5 75q0 83 70.5 125t223.5 59q0 27 -8.5 51.5t-29.5 39t-57 14.5q-39 0 -74.5 -14t-67.5 -33l-37 67q25 16 56 30.5t66.5 23t74.5 8.5q60 0 99 -24.5t58 -70.5t19 -111v-294h-82l-7 56h-4q-34 -28 -72.5 -48t-83.5 -20zM223 69
q32 0 60.5 14.5t59.5 41.5v118q-74 -9 -117.5 -23.5t-62 -35t-18.5 -48.5q0 -36 22.5 -51.5t55.5 -15.5zM168 571l-112 160l6 11h79l84 -171h-57zM332 571l-112 160l6 11h80l83 -171h-57z" />
    <glyph glyph-name="uni0204" unicode="&#x204;" horiz-adv-x="532" 
d="M86 0v655h386v-84h-286v-187h242v-84h-242v-216h296v-84h-396zM179 706l-134 128l6 11h92l102 -139h-66zM368 706l-133 128l6 11h92l101 -139h-66z" />
    <glyph glyph-name="uni0205" unicode="&#x205;" horiz-adv-x="501" 
d="M282 -12q-68 0 -122 30.5t-85.5 87.5t-31.5 138q0 80 32 137.5t83 88t108 30.5q65 0 109 -29t66.5 -80.5t22.5 -120.5q0 -14 -1 -28t-4 -27h-344v77h261q0 62 -27 96t-81 34q-31 0 -60 -17t-48 -55.5t-19 -104.5q0 -60 21 -99.5t55.5 -58.5t75.5 -19q34 0 63.5 9t54.5 26
l35 -64q-33 -23 -74.5 -37t-89.5 -14zM163 571l-112 160l6 11h79l84 -171h-57zM327 571l-112 160l6 11h80l83 -171h-57z" />
    <glyph glyph-name="uni0208" unicode="&#x208;" horiz-adv-x="273" 
d="M86 0v655h100v-655h-100zM26 706l-134 128l6 11h92l102 -139h-66zM215 706l-133 128l6 11h92l101 -139h-66z" />
    <glyph glyph-name="uni0209" unicode="&#x209;" horiz-adv-x="254" 
d="M77 0v488h99v-488h-99zM24 571l-112 160l6 11h79l84 -171h-57zM188 571l-112 160l6 11h80l83 -171h-57z" />
    <glyph glyph-name="uni020C" unicode="&#x20c;" horiz-adv-x="669" 
d="M334 -12q-83 0 -147 41.5t-100.5 118.5t-36.5 182q0 106 36.5 181.5t100.5 115.5t147 40q85 0 149 -40t100 -115.5t36 -181.5q0 -105 -36 -182t-100 -118.5t-149 -41.5zM334 75q56 0 96.5 31.5t63 89t22.5 134.5q0 78 -22.5 133.5t-63 86t-96.5 30.5q-54 0 -95 -30.5
t-63.5 -86t-22.5 -133.5q0 -77 22.5 -134.5t63.5 -89t95 -31.5zM224 706l-134 128l6 11h92l102 -139h-66zM413 706l-133 128l6 11h92l101 -139h-66z" />
    <glyph glyph-name="uni020D" unicode="&#x20d;" horiz-adv-x="546" 
d="M273 -12q-61 0 -113 30t-84.5 87.5t-32.5 138.5t32.5 138.5t84.5 88t113 30.5q60 0 112 -30.5t84.5 -88t32.5 -138.5t-32.5 -138.5t-84.5 -87.5t-112 -30zM273 69q39 0 67.5 22t44.5 61t16 92q0 52 -16 91.5t-44.5 61.5t-67.5 22t-67.5 -22t-44.5 -61.5t-16 -91.5
q0 -53 16 -92t44.5 -61t67.5 -22zM171 571l-112 160l6 11h79l84 -171h-57zM335 571l-112 160l6 11h80l83 -171h-57z" />
    <glyph glyph-name="uni0218" unicode="&#x218;" horiz-adv-x="539" 
d="M273 -12q-69 0 -128 25.5t-105 71.5l55 65q35 -35 82.5 -55t97.5 -20q60 0 92.5 26t32.5 70q0 30 -13.5 48.5t-37.5 31t-54 25.5l-92 40q-32 14 -62.5 36t-50.5 55t-20 81q0 51 27.5 91.5t75.5 64t111 23.5q59 0 110 -22t87 -58l-53 -64q-31 26 -67.5 41.5t-76.5 15.5
q-51 0 -82 -23t-31 -63q0 -29 15.5 -47t40.5 -30l50 -24l91 -39q40 -16 70 -39t47 -55.5t17 -81.5q0 -52 -27 -95.5t-78.5 -69t-123.5 -25.5zM185 -230l-9 46q61 4 84 15t23 30q0 18 -17.5 27.5t-51.5 12.5l20 43q70 -8 96.5 -26t26.5 -53q0 -45 -44.5 -68t-127.5 -27z" />
    <glyph glyph-name="uni0219" unicode="&#x219;" horiz-adv-x="425" 
d="M210 -12q-53 0 -101 18.5t-83 52.5l44 57q33 -26 67 -39.5t76 -13.5q44 0 65.5 20t21.5 48q0 22 -15.5 37.5t-39.5 26t-51 20.5q-36 13 -68.5 31.5t-52.5 45.5t-20 66q0 62 46.5 102.5t126.5 40.5q48 0 88.5 -16t69.5 -41l-45 -57q-25 19 -52 28.5t-59 9.5
q-41 0 -61 -18.5t-20 -43.5q0 -20 12.5 -33.5t35 -23.5t53.5 -21q38 -13 71.5 -31t54 -46t20.5 -72q0 -40 -21 -74t-62 -54t-101 -20zM125 -230l-9 46q61 4 84 15t23 30q0 18 -17.5 27.5t-51.5 12.5l20 43q70 -8 96.5 -26t26.5 -53q0 -45 -44.5 -68t-127.5 -27z" />
    <glyph glyph-name="uni021A" unicode="&#x21a;" horiz-adv-x="541" 
d="M221 0v571h-194v84h487v-84h-194v-571h-99zM180 -230l-9 46q61 4 84 15t23 30q0 18 -17.5 27.5t-51.5 12.5l20 43q70 -8 96.5 -26t26.5 -53q0 -45 -44.5 -68t-127.5 -27z" />
    <glyph glyph-name="uni021B" unicode="&#x21b;" horiz-adv-x="349" 
d="M241 -10q-82 0 -115 47.5t-33 123.5v249h-71v74l76 4l12 156h82v-156h129v-78h-129v-250q0 -44 17 -67t55 -23q14 0 27 2.5t26 8.5l20 -69q-19 -10 -44 -16t-52 -6zM129 -230l-9 46q61 4 84 15t23 30q0 18 -17.5 27.5t-51.5 12.5l20 43q70 -8 96.5 -26t26.5 -53
q0 -45 -44.5 -68t-127.5 -27z" />
    <glyph glyph-name="uni021C" unicode="&#x21c;" horiz-adv-x="501" 
d="M107 -169l-38 72q109 46 173 90.5t91.5 86.5t27.5 81q0 46 -27 71t-71 25q-27 0 -53 -6t-62 -26l-35 60q66 38 107.5 66.5t63.5 52t30 45.5t8 45q0 41 -23.5 63.5t-62.5 22.5q-46 0 -82.5 -20t-82.5 -63l-49 59q38 38 73.5 62.5t74 36.5t85.5 12q51 0 88.5 -18t58 -51
t20.5 -77q0 -59 -31.5 -105t-98.5 -89q75 1 122 -38.5t47 -114.5q0 -72 -37.5 -131.5t-115.5 -111t-201 -100.5z" />
    <glyph glyph-name="uni021D" unicode="&#x21d;" horiz-adv-x="439" 
d="M87 -212l-31 67q94 38 148.5 75t78 72.5t23.5 68.5q0 38 -23.5 58.5t-63.5 20.5q-22 0 -44 -6t-51 -22l-32 55q75 42 113.5 71t52 53.5t13.5 49.5q0 35 -20 53.5t-53 18.5q-38 0 -70.5 -17.5t-71.5 -52.5l-44 52q51 50 99 73t110 23q66 0 106 -34.5t40 -90.5
q0 -49 -28.5 -86t-86.5 -74q66 -1 108 -34.5t42 -101.5q0 -60 -33 -110.5t-102 -94.5t-180 -87z" />
    <glyph glyph-name="uni021E" unicode="&#x21e;" horiz-adv-x="657" 
d="M86 0v655h100v-269h285v269h100v-655h-100v299h-285v-299h-100zM279 706l-135 139h81l101 -75h4l101 75h81l-135 -139h-98z" />
    <glyph glyph-name="uni021F" unicode="&#x21f;" horiz-adv-x="551" 
d="M78 0v709h98v-188l-4 -98q33 31 71.5 54.5t88.5 23.5q78 0 114 -50t36 -143v-308h-99v295q0 65 -20 93t-64 28q-35 0 -62 -17.5t-61 -50.5v-348h-98zM250 756l-135 139h81l101 -75h4l101 75h81l-135 -139h-98z" />
    <glyph glyph-name="uni0220" unicode="&#x220;" horiz-adv-x="664" 
d="M481 -157v517q0 83 -16.5 131t-48 68.5t-77.5 20.5q-24 0 -52.5 -12t-55 -32.5t-45.5 -48.5v-487h-100v655h97v-78q24 26 53.5 46.5t62.5 32t68 11.5q66 0 114 -30t73.5 -95t25.5 -172v-527h-99z" />
    <glyph glyph-name="uni0222" unicode="&#x222;" horiz-adv-x="669" 
d="M335 -12q-85 0 -149 25.5t-100 73.5t-36 116q0 55 25.5 95.5t68.5 65.5t99 35v-25q-56 14 -89 42t-47 69.5t-14 95.5v74h99v-65q0 -62 18.5 -98.5t50.5 -52t74 -15.5q41 0 74 15.5t52 52t19 98.5v65h96v-74q0 -54 -14 -95.5t-47 -69.5t-90 -42v25q56 -10 99.5 -35
t69 -65.5t25.5 -95.5q0 -68 -36 -116t-100 -73.5t-148 -25.5zM335 75q53 0 94 15t64 45.5t23 74.5t-23 73.5t-64 44.5t-94 15t-94.5 -15t-64.5 -44.5t-23 -73.5t23 -74.5t64.5 -45.5t94.5 -15z" />
    <glyph glyph-name="uni0223" unicode="&#x223;" horiz-adv-x="540" 
d="M274 69q36 0 64 15.5t43.5 43t15.5 63.5q0 45 -18 76t-53 54t-85 42q-51 -28 -77 -69.5t-26 -92.5q0 -40 18 -69.5t49 -46t69 -16.5zM271 -12q-66 0 -118 26t-82 72.5t-30 107.5q0 74 40 125.5t102 74.5v4q-53 35 -85 81.5t-32 109.5q0 43 9 73.5t27 58.5l85 -25
q-13 -24 -19.5 -47t-6.5 -54q0 -43 18.5 -72t50 -50.5t71.5 -37.5q42 31 63 70.5t21 84.5q0 26 -6 49.5t-18 44.5l79 28q19 -32 26.5 -59t7.5 -60q0 -63 -33 -110.5t-77 -74.5v-4q36 -18 66.5 -46t49.5 -68t19 -95q0 -62 -28.5 -108.5t-79.5 -72.5t-120 -26z" />
    <glyph glyph-name="uni0226" unicode="&#x226;" horiz-adv-x="551" 
d="M0 0l218 655h115l217 -655h-105l-107 357q-17 54 -32.5 109t-29.5 110h-4q-14 -56 -29.5 -110.5t-32.5 -108.5l-108 -357h-102zM122 188v79h305v-79h-305zM275 710q-27 0 -45.5 17t-18.5 44q0 26 18.5 42.5t45.5 16.5q28 0 46 -16.5t18 -42.5q0 -27 -18 -44t-46 -17z" />
    <glyph glyph-name="uni0227" unicode="&#x227;" horiz-adv-x="510" 
d="M193 -12q-42 0 -74.5 17t-51 49t-18.5 75q0 83 70.5 125t223.5 59q0 27 -8.5 51.5t-29.5 39t-57 14.5q-39 0 -74.5 -14t-67.5 -33l-37 67q25 16 56 30.5t66.5 23t74.5 8.5q60 0 99 -24.5t58 -70.5t19 -111v-294h-82l-7 56h-4q-34 -28 -72.5 -48t-83.5 -20zM223 69
q32 0 60.5 14.5t59.5 41.5v118q-74 -9 -117.5 -23.5t-62 -35t-18.5 -48.5q0 -36 22.5 -51.5t55.5 -15.5zM270 582q-27 0 -44.5 16.5t-17.5 43.5q0 26 17.5 42.5t44.5 16.5q28 0 45 -16.5t17 -42.5q0 -27 -17 -43.5t-45 -16.5z" />
    <glyph glyph-name="uni0237" unicode="&#x237;" horiz-adv-x="255" 
d="M33 -211q-24 0 -43 4t-33 10l19 73q10 -3 22 -6t22 -3q35 0 46.5 24.5t11.5 67.5v529h100v-528q0 -51 -14.5 -89.5t-46 -60t-84.5 -21.5z" />
    <glyph glyph-name="uni023A" unicode="&#x23a;" horiz-adv-x="551" 
d="M190 -53l-42 11l211 750l43 -11zM0 0l218 655h115l217 -655h-105l-107 357q-17 54 -32.5 109t-29.5 110h-4q-14 -56 -29.5 -110.5t-32.5 -108.5l-108 -357h-102zM122 188v79h305v-79h-305z" />
    <glyph glyph-name="uni023B" unicode="&#x23b;" horiz-adv-x="573" 
d="M227 -53l-45 11l230 750l46 -11zM343 -12q-83 0 -149.5 39.5t-105 115.5t-38.5 183q0 80 22.5 143.5t63 107.5t94 67t115.5 23q61 0 108 -24t77 -58l-54 -61q-25 27 -57 41.5t-71 14.5q-57 0 -101 -31t-69 -87t-25 -133q0 -79 24 -136t68.5 -87.5t103.5 -30.5
q44 0 79 17.5t64 48.5l51 -59q-39 -45 -88.5 -69.5t-111.5 -24.5z" />
    <glyph glyph-name="uni023C" unicode="&#x23c;" horiz-adv-x="459" 
d="M184 -53l-43 12l217 588l43 -12zM278 -12q-67 0 -120 30.5t-83.5 87.5t-30.5 138t33 138.5t88 87.5t118 30q48 0 83 -15.5t61 -39.5l-48 -62q-17 17 -39.5 26.5t-51.5 9.5q-41 0 -73 -22t-51 -61t-19 -92t18 -92t49.5 -61t74.5 -22q31 0 58 12t48 31l42 -61
q-31 -29 -71 -46t-86 -17z" />
    <glyph glyph-name="uni023D" unicode="&#x23d;" horiz-adv-x="511" 
d="M22 318v71l86 6h276v-77h-362zM106 0v655h100v-571h279v-84h-379z" />
    <glyph glyph-name="uni023E" unicode="&#x23e;" horiz-adv-x="541" 
d="M70 -35l-38 24l493 714l38 -23zM221 0v571h-194v84h487v-84h-194v-571h-99z" />
    <glyph glyph-name="uni0241" unicode="&#x241;" horiz-adv-x="494" 
d="M173 0v272q102 39 144 86t42 105q0 54 -37.5 85.5t-101.5 31.5q-48 0 -92 -21t-75 -50l-53 64q39 39 96.5 66.5t129.5 27.5q65 0 118 -22.5t85.5 -66t32.5 -108.5q0 -57 -24 -103t-66.5 -81t-98.5 -60v-226h-100z" />
    <glyph glyph-name="uni0242" unicode="&#x242;" horiz-adv-x="438" 
d="M149 0v188q54 23 85 45t44.5 46.5t13.5 56.5q0 38 -26.5 60.5t-68.5 22.5q-43 0 -75 -16.5t-59 -41.5l-47 58q32 33 77.5 57.5t107.5 24.5q52 0 95.5 -18.5t69 -54.5t25.5 -89q0 -67 -40 -111t-103 -76v-152h-99z" />
    <glyph glyph-name="uni0243" unicode="&#x243;" horiz-adv-x="610" 
d="M106 0v655h202q68 0 120 -16t81 -50.5t29 -91.5q0 -47 -28 -84t-85 -52v-4q72 -12 110.5 -51.5t38.5 -108.5q0 -67 -32.5 -111t-88.5 -65t-129 -21h-218zM206 389h90q76 0 111 24.5t35 75.5q0 48 -37 68t-106 20h-93v-188zM206 78h106q78 0 121.5 30t43.5 95q0 60 -42 86
t-123 26h-106v-237zM22 165v69l86 6h243v-75h-329z" />
    <glyph glyph-name="uni0244" unicode="&#x244;" horiz-adv-x="690" 
d="M18 325v72l87 4h565v-76h-652zM345 -12q-53 0 -97.5 15t-76.5 49t-50 89t-18 133v381h100v-386q0 -74 18.5 -116t51 -60t72.5 -18q42 0 75 18t52 60t19 116v386h96v-381q0 -78 -17.5 -133t-50 -89t-76.5 -49t-98 -15z" />
    <glyph glyph-name="uni0245" unicode="&#x245;" horiz-adv-x="526" 
d="M-2 0l206 655h117l206 -655h-105l-99 342q-16 57 -29.5 107.5t-31.5 107.5h-4q-17 -57 -30 -107.5t-30 -107.5l-98 -342h-102z" />
    <glyph glyph-name="uni0248" unicode="&#x248;" horiz-adv-x="507" 
d="M171 325v71l98 5h215v-76h-313zM210 -12q-62 0 -107 27t-74 82l66 45q19 -34 46.5 -50.5t60.5 -16.5q52 0 76.5 31t24.5 105v444h100v-453q0 -59 -20 -107.5t-62.5 -77.5t-110.5 -29z" />
    <glyph glyph-name="uni0249" unicode="&#x249;" horiz-adv-x="305" 
d="M22 215v71l81 6h178v-77h-259zM58 -211q-24 0 -43.5 4t-32.5 10l19 73q10 -3 22 -6t22 -3q35 0 46.5 24.5t11.5 67.5v529h99v-528q0 -51 -14 -89.5t-45.5 -60t-84.5 -21.5zM152 582q-27 0 -44.5 16.5t-17.5 43.5q0 26 17.5 42.5t44.5 16.5q28 0 45 -16.5t17 -42.5
q0 -27 -17 -43.5t-45 -16.5z" />
    <glyph glyph-name="uni0250" unicode="&#x250;" horiz-adv-x="510" 
d="M271 -12q-70 0 -115 26t-66.5 74t-21.5 113v287h82l8 -65h3q34 35 76.5 56t91.5 21q60 0 96 -34t36 -94q0 -83 -69.5 -130t-223.5 -65q0 -21 6 -40t19.5 -34.5t35 -24.5t54.5 -9q36 0 71.5 15t64.5 33l37 -65q-25 -16 -55 -30.5t-63 -24t-67 -9.5zM168 246q74 10 117 25
t61.5 36.5t18.5 49.5q0 34 -20 49.5t-50 15.5q-31 0 -62.5 -17.5t-64.5 -54.5v-104z" />
    <glyph glyph-name="uni0251" unicode="&#x251;" horiz-adv-x="563" 
d="M246 -12q-91 0 -146 67.5t-55 188.5q0 79 30 136.5t78 89t103 31.5q41 0 73 -15t63 -45h3l7 48h80v-381q0 -20 6.5 -28.5t16.5 -8.5q3 0 6 0.5t8 1.5l13 -73q-8 -3 -21 -6.5t-29 -3.5q-35 0 -56.5 16.5t-29.5 51.5h-3q-27 -27 -64.5 -48.5t-82.5 -21.5zM269 70
q32 0 59.5 15t54.5 46v242q-28 25 -54.5 35t-54.5 10q-35 0 -64 -21t-46 -60t-17 -92q0 -84 32 -129.5t90 -45.5z" />
    <glyph glyph-name="uni0252" unicode="&#x252;" horiz-adv-x="568" 
d="M313 -12q-33 0 -68 15t-68 45h-3l-8 -48h-79v381q0 20 -6.5 28t-16.5 8h-6t-8 -2l-13 74q8 3 21 6.5t28 3.5q36 0 57.5 -16.5t29.5 -52.5h3q31 29 71 50t83 21q62 0 105 -31t65.5 -87t22.5 -131q0 -84 -29.5 -143t-77.5 -90t-103 -31zM294 70q36 0 65 21t45.5 61.5
t16.5 98.5q0 51 -12 88.5t-38 58t-67 20.5q-28 0 -57 -14.5t-62 -45.5v-242q30 -25 58 -35.5t51 -10.5z" />
    <glyph glyph-name="uni0253" unicode="&#x253;" horiz-adv-x="558" 
d="M304 -12q-34 0 -69 16t-67 45h-3l-9 -49h-78v527q0 57 18.5 100.5t58 68.5t100.5 25q25 0 48 -5t39 -12l-21 -74q-14 7 -27.5 9.5t-26.5 2.5q-45 0 -67 -29.5t-25 -84.5l-2 -101q33 28 70.5 46t77.5 18q62 0 105 -30t65.5 -85t22.5 -129q0 -82 -29.5 -139.5t-77.5 -88.5
t-103 -31zM285 70q36 0 65 20.5t45.5 60t16.5 95.5q0 50 -12 86.5t-38 56.5t-67 20q-28 0 -57.5 -15t-61.5 -46v-232q29 -25 58 -35.5t51 -10.5z" />
    <glyph glyph-name="uni0254" unicode="&#x254;" horiz-adv-x="459" 
d="M188 -12q-44 0 -86.5 14t-77.5 47l41 65q22 -20 51.5 -32.5t61.5 -12.5q40 0 70.5 22t48 61t17.5 92t-17.5 92.5t-48 61t-68.5 21.5q-32 0 -55 -9.5t-44 -28.5l-49 64q29 25 67 40.5t92 15.5q60 0 111 -30t82 -87.5t31 -139.5q0 -81 -30.5 -138.5t-82 -87.5t-114.5 -30z
" />
    <glyph glyph-name="uni0255" unicode="&#x255;" horiz-adv-x="464" 
d="M126 -71l-69 28q49 130 123.5 201.5t161.5 71.5q52 0 79.5 -29.5t27.5 -77.5q0 -37 -20.5 -67.5t-59.5 -49t-93 -18.5q-64 0 -117 30.5t-84.5 87.5t-31.5 138q0 82 33.5 139t88 87t118.5 30q48 0 82 -15.5t61 -39.5l-46 -59q-18 18 -41 27.5t-52 9.5q-42 0 -75.5 -22.5
t-52 -62.5t-18.5 -94q0 -53 19 -93t51 -62.5t72 -22.5q41 0 66 17.5t25 41.5q0 33 -42 33q-38 0 -75.5 -28t-71 -79.5t-59.5 -121.5z" />
    <glyph glyph-name="uni0256" unicode="&#x256;" horiz-adv-x="559" 
d="M517 -212q-45 0 -74 18t-43 49.5t-14 73.5l1 123q-29 -26 -64.5 -45t-76.5 -19q-91 0 -146 67.5t-55 188.5q0 79 29.5 136.5t77.5 89t102 31.5q43 0 73 -14.5t60 -41.5l-4 82v194h99v-770q0 -39 10.5 -61t37.5 -22q10 0 18.5 2.5t15.5 5.5l19 -75q-11 -5 -27.5 -9
t-38.5 -4zM269 70q32 0 59.5 15t54.5 46v242q-28 25 -54.5 35t-54.5 10q-35 0 -64 -21t-46 -60t-17 -92q0 -84 32 -129.5t90 -45.5z" />
    <glyph glyph-name="uni0257" unicode="&#x257;" horiz-adv-x="559" 
d="M246 -12q-91 0 -146 67.5t-55 188.5q0 79 29.5 136.5t77.5 89t102 31.5q43 0 73 -14.5t60 -41.5l-1 120q0 48 14.5 83t46 54.5t79.5 19.5q20 0 34.5 -2.5t25.5 -7.5l-19 -74q-6 3 -12.5 4t-15.5 1q-32 0 -44.5 -22.5t-12.5 -64.5v-556h-81l-8 55h-3q-28 -27 -65 -47
t-79 -20zM269 70q32 0 59.5 15t54.5 46v242q-28 25 -54.5 35t-54.5 10q-35 0 -64 -21t-46 -60t-17 -92q0 -84 32 -129.5t90 -45.5z" />
    <glyph glyph-name="uni0258" unicode="&#x258;" horiz-adv-x="502" 
d="M229 -12q-51 0 -95.5 13.5t-78.5 37.5l35 64q27 -18 59 -26.5t68 -8.5q39 0 71.5 19t52 58.5t19.5 99.5q0 66 -17 104.5t-44 55.5t-56 17q-57 0 -88 -34t-31 -96h261v-77h-343q-3 13 -4.5 27t-1.5 28q0 69 24.5 120.5t70.5 80.5t114 29q55 0 104 -30.5t79 -88t30 -137.5
q0 -81 -30.5 -138t-82.5 -87.5t-116 -30.5z" />
    <glyph glyph-name="uni0259" unicode="&#x259;" horiz-adv-x="502" 
d="M244 -12q-67 0 -113.5 30t-70.5 83.5t-24 123.5q0 15 1.5 28.5t4.5 25.5h343v-76h-261q0 -63 30.5 -99t88.5 -36q29 0 56 16.5t44 55.5t17 104q0 60 -18.5 99t-49 58t-68.5 19q-35 0 -64.5 -9t-56.5 -26l-35 64q34 24 76 37.5t91 13.5q64 0 114 -30t79.5 -87t29.5 -139
q0 -80 -30 -137.5t-79 -88t-105 -30.5z" />
    <glyph glyph-name="uni025A" unicode="&#x25a;" horiz-adv-x="683" 
d="M249 -12q-69 0 -115 28.5t-69.5 78t-28.5 110.5l538 211l12 -10q-1 -15 -2.5 -28t-1.5 -26q0 -55 14 -75.5t38 -20.5q14 0 23 3.5t16 7.5l25 -49q-13 -9 -31 -16.5t-45 -7.5q-25 0 -46.5 11.5t-35 37t-13.5 67.5v12l-401 -158q10 -45 41.5 -70.5t81.5 -25.5q36 0 61 21.5
t37.5 58.5t12.5 84q0 65 -17 106.5t-47.5 61.5t-71.5 20q-35 0 -64.5 -9.5t-56.5 -27.5l-35 65q36 26 78.5 39t88.5 13q68 0 118 -31.5t77.5 -89.5t27.5 -139q0 -69 -25.5 -126t-72 -91.5t-111.5 -34.5z" />
    <glyph glyph-name="uni025B" unicode="&#x25b;" horiz-adv-x="436" 
d="M243 -12q-54 0 -99.5 17t-72.5 49t-27 77q0 36 14.5 61.5t39 41.5t53.5 23v4q-39 14 -60.5 43.5t-21.5 63.5q0 45 24.5 74.5t65.5 43.5t90 14q46 0 84 -12t69 -35l-37 -62q-26 18 -51.5 25t-57.5 7q-38 0 -63.5 -17t-25.5 -48t25 -49.5t76 -18.5h53v-75h-67
q-55 0 -83.5 -19t-28.5 -53q0 -35 32 -56t85 -21q31 0 61 9t61 30l35 -60q-36 -31 -78.5 -44t-94.5 -13z" />
    <glyph glyph-name="uni025C" unicode="&#x25c;" horiz-adv-x="445" 
d="M203 -12q-54 0 -95 13t-79 44l35 60q31 -21 61 -30t61 -9q53 0 84.5 21t31.5 56q0 36 -28 54t-83 18h-68v75h53q52 0 77 19t25 50t-24 47.5t-61 16.5q-32 0 -58.5 -7t-54.5 -25l-37 60q32 24 71.5 36.5t85.5 12.5q48 0 87.5 -14t64 -43.5t24.5 -73.5q0 -34 -21 -64
t-60 -44v-4q29 -7 53 -23t38.5 -40.5t14.5 -59.5q0 -46 -27 -78.5t-72 -50t-99 -17.5z" />
    <glyph glyph-name="uni025D" unicode="&#x25d;" horiz-adv-x="589" 
d="M202 -12q-53 0 -94.5 13t-79.5 44l36 59q31 -21 61 -30t61 -9q53 0 85 22t32 59q0 35 -28.5 54t-83.5 19h-68v68h53q51 0 76.5 19.5t25.5 50.5q0 32 -24 49t-61 17q-32 0 -58.5 -7t-54.5 -25l-37 61q32 24 71.5 36.5t84.5 12.5q48 0 87.5 -14.5t63 -44.5t23.5 -74
q0 -21 -7 -40.5t-23 -36.5l-6 58l143 64l11 -8q-1 -16 -1.5 -28.5t-0.5 -24.5q0 -56 13.5 -76.5t38.5 -20.5q13 0 22.5 4t16.5 9l25 -50q-13 -9 -31.5 -16.5t-44.5 -7.5q-25 0 -46.5 11t-35 36.5t-13.5 68.5v15l-140 -64v-4q29 -8 53 -23.5t39 -40.5t15 -60
q0 -45 -27.5 -77.5t-72.5 -50t-99 -17.5z" />
    <glyph glyph-name="uni025E" unicode="&#x25e;" horiz-adv-x="551" 
d="M286 -12q-69 0 -124 26t-87 78t-32 131q0 91 35 153t92 93t124 31q50 0 92 -14t67 -43.5t25 -74.5q0 -34 -20.5 -63.5t-60.5 -43.5v-4q28 -7 52.5 -22t39 -40t14.5 -59q0 -47 -27 -80t-76.5 -50.5t-113.5 -17.5zM290 66q57 0 86 21.5t29 55.5q0 36 -27 54t-80 18h-43v75
h28q50 0 74 18t24 48q0 33 -25.5 50t-61.5 17q-43 0 -77 -21t-53.5 -65t-19.5 -109q0 -56 19 -92t51.5 -53t75.5 -17z" />
    <glyph glyph-name="uni025F" unicode="&#x25f;" horiz-adv-x="305" 
d="M22 215v71l81 6h178v-77h-259zM58 -211q-24 0 -43.5 4t-32.5 10l19 73q10 -3 22 -6t22 -3q35 0 46.5 24.5t11.5 67.5v529h99v-528q0 -51 -14 -89.5t-45.5 -60t-84.5 -21.5z" />
    <glyph glyph-name="uni0260" unicode="&#x260;" horiz-adv-x="559" 
d="M257 -216q-44 0 -91 14t-87 40l36 68q35 -23 71.5 -33t70.5 -10q64 0 94.5 33t31.5 88l2 84q-27 -26 -62.5 -43.5t-76.5 -17.5q-61 0 -106 30t-70 85t-25 130q0 76 30.5 131.5t78.5 86.5t102 31q41 0 70.5 -14.5t59.5 -41.5l-1 126q0 42 15 76t46 54t80 20
q18 0 33.5 -3.5t26.5 -8.5l-19 -74q-7 3 -15 5t-20 2q-18 0 -29.5 -16t-16 -41t-4.5 -52v-545q0 -96 -58.5 -150t-166.5 -54zM269 88q32 0 59 15t55 47v223q-28 25 -54.5 35t-54.5 10q-36 0 -65 -20.5t-46 -57.5t-17 -87q0 -76 32.5 -120.5t90.5 -44.5z" />
    <glyph glyph-name="uni0261" unicode="&#x261;" horiz-adv-x="559" 
d="M257 -215q-44 0 -91 14t-87 39l35 68q36 -23 72.5 -33t70.5 -10q63 0 94 33.5t32 87.5l2 84q-27 -26 -62.5 -43.5t-76.5 -17.5q-60 0 -105.5 30t-70.5 85t-25 130q0 76 30.5 132t78.5 86t103 30q40 0 71.5 -14t61.5 -42h3l8 44h81v-501q0 -95 -58.5 -148.5t-166.5 -53.5z
M269 88q32 0 59 15t55 47v223q-28 25 -54.5 35t-54.5 10q-36 0 -65 -20.5t-46 -57.5t-17 -87q0 -76 32.5 -120.5t90.5 -44.5z" />
    <glyph glyph-name="uni0262" unicode="&#x262;" horiz-adv-x="502" 
d="M282 -12q-66 0 -120.5 29t-86.5 86.5t-32 141.5q0 60 19 107.5t52.5 80t78 50t93.5 17.5q59 0 96 -18t64 -42l-47 -60q-19 18 -44.5 29t-63.5 11q-40 0 -73.5 -20t-53.5 -59t-20 -96q0 -83 40.5 -129.5t104.5 -46.5q26 0 46 6.5t34 18.5v104h-103v76h189v-224
q-29 -25 -73 -43.5t-100 -18.5z" />
    <glyph glyph-name="uni0263" unicode="&#x263;" horiz-adv-x="481" 
d="M243 -220q-58 0 -91.5 34t-33.5 87q0 25 8 51.5t24.5 59t39.5 75.5v-52l-178 454h101l85 -246q10 -33 21 -61t22 -62h4q11 34 22 62t21 61l85 246h96l-174 -454v51q24 -43 40.5 -75t24.5 -58.5t8 -51.5q0 -53 -33 -87t-92 -34zM243 -155q21 0 31 14.5t10 36.5
q0 25 -9.5 54.5t-30.5 65.5h-4q-19 -36 -28.5 -65.5t-9.5 -54.5q0 -22 10.5 -36.5t30.5 -14.5z" />
    <glyph glyph-name="uni0264" unicode="&#x264;" horiz-adv-x="526" 
d="M263 -12q-57 0 -97.5 20.5t-61 58t-20.5 87.5q0 49 31.5 103t84.5 103q-26 27 -52.5 43t-54.5 16t-47 -13l-30 71q15 11 36.5 17.5t43.5 6.5q40 0 81.5 -22t85.5 -64q44 42 86 64t80 22q23 0 45 -6.5t36 -17.5l-30 -71q-19 13 -47 13t-54.5 -16t-52.5 -43q35 -33 61 -68
t40.5 -70.5t14.5 -67.5q0 -50 -21 -87.5t-61 -58t-97 -20.5zM263 65q43 0 64 27t21 66t-24 80.5t-61 74.5q-36 -33 -60.5 -74.5t-24.5 -80.5t21 -66t64 -27z" />
    <glyph glyph-name="uni0265" unicode="&#x265;" horiz-adv-x="553" 
d="M377 -200v168l5 103q-33 -36 -71.5 -59.5t-89.5 -23.5q-77 0 -113 50t-36 143v308h98v-296q0 -64 20.5 -92t63.5 -28q35 0 63 17.5t60 57.5v341h98v-689h-98z" />
    <glyph glyph-name="uni0266" unicode="&#x266;" horiz-adv-x="551" 
d="M78 0v527q0 57 18.5 100.5t58 68.5t100.5 25q25 0 48 -5t39 -12l-21 -74q-14 7 -27.5 9.5t-26.5 2.5q-45 0 -67 -29.5t-25 -84.5l-3 -114q33 31 71.5 54t88.5 23q78 0 114 -50t36 -143v-298h-99v286q0 64 -20 92t-64 28q-35 0 -62 -17.5t-61 -50.5v-338h-98z" />
    <glyph glyph-name="uni0267" unicode="&#x267;" horiz-adv-x="551" 
d="M337 -212q-24 0 -42.5 4t-32.5 9l18 75q10 -3 21 -5.5t24 -2.5q34 0 46 24t12 67v327q0 64 -20 92t-64 28q-35 0 -62 -17.5t-61 -50.5v-338h-98v527q0 57 18.5 100.5t58 68.5t100.5 25q25 0 48 -5t39 -12l-21 -74q-14 7 -27.5 9.5t-26.5 2.5q-45 0 -67 -29.5t-25 -84.5
l-3 -114q33 31 71.5 54t88.5 23q78 0 114 -50t36 -143v-338q0 -51 -14 -89.5t-46 -60.5t-85 -22z" />
    <glyph glyph-name="uni0268" unicode="&#x268;" horiz-adv-x="304" 
d="M22 215v71l80 6h178v-77h-258zM102 0v488h99v-488h-99zM151 582q-27 0 -44.5 16.5t-17.5 43.5q0 26 17.5 42.5t44.5 16.5q28 0 45 -16.5t17 -42.5q0 -27 -17 -43.5t-45 -16.5z" />
    <glyph glyph-name="uni0269" unicode="&#x269;" horiz-adv-x="263" 
d="M177 -10q-36 0 -58 15t-31.5 42.5t-9.5 66.5v375h98v-381q0 -20 8 -28.5t17 -8.5q4 0 7.5 0.5t9.5 1.5l13 -73q-8 -3 -22 -6.5t-32 -3.5z" />
    <glyph glyph-name="uni026A" unicode="&#x26a;" horiz-adv-x="355" 
d="M48 0v79h80v330h-80v80h259v-80h-80v-330h80v-79h-259z" />
    <glyph glyph-name="uni026B" unicode="&#x26b;" horiz-adv-x="371" 
d="M234 -10q-36 0 -58 15t-32 42.5t-10 66.5v595h99v-601q0 -21 7.5 -28.5t17.5 -7.5q4 0 7.5 0.5t9.5 1.5l13 -74q-9 -4 -22.5 -7t-31.5 -3zM286 306q-34 0 -60 11.5t-47.5 27.5t-41.5 27.5t-42 11.5q-20 0 -30.5 -19t-12.5 -52l-65 12q2 39 13 68t32.5 45.5t54.5 16.5
q34 0 60 -12t47 -27.5t41 -27.5t42 -12q20 0 30.5 19.5t12.5 51.5l65 -12q-2 -38 -13 -67t-32 -45.5t-54 -16.5z" />
    <glyph glyph-name="uni026C" unicode="&#x26c;" horiz-adv-x="362" 
d="M132 305q-70 0 -103 31t-33 77q0 39 25.5 63.5t63.5 24.5q34 0 57 -18t34.5 -47.5t11.5 -61.5l-45 13q0 28 -13 44t-35 16q-17 0 -25 -8.5t-8 -20.5q0 -16 15 -26t44 -10h233v-77h-222zM143 0v709h99v-709h-99z" />
    <glyph glyph-name="uni026D" unicode="&#x26d;" horiz-adv-x="263" 
d="M212 -212q-50 0 -79.5 20.5t-42 57.5t-12.5 86v757h98v-758q0 -40 10.5 -61.5t38.5 -21.5q9 0 18 2t16 5l18 -74q-10 -5 -27 -9t-38 -4z" />
    <glyph glyph-name="uni026E" unicode="&#x26e;" horiz-adv-x="583" 
d="M78 0v709h98v-709h-98zM357 -212q-66 0 -110 25t-74 54l47 62q23 -22 53.5 -40.5t73.5 -18.5q33 0 59.5 16.5t42 47.5t15.5 73q0 58 -29.5 90t-84.5 32q-21 0 -33 -3.5t-29 -11.5l-37 52l172 243h-262v80h381v-53l-178 -253l-36 18q65 7 109.5 -5.5t72.5 -40t41 -65
t13 -80.5q0 -71 -29 -120.5t-76 -75.5t-102 -26z" />
    <glyph glyph-name="uni026F" unicode="&#x26f;" horiz-adv-x="836" 
d="M223 -12q-76 0 -113 50t-37 143v308h99v-296q0 -64 20.5 -92t62.5 -28q26 0 54 17t59 51v348h98v-296q0 -64 20.5 -92t62.5 -28q51 0 113 68v348h98v-489h-81l-8 69h-3q-31 -33 -68.5 -57t-82.5 -24q-54 0 -86.5 24t-48.5 66q-36 -38 -74.5 -64t-84.5 -26z" />
    <glyph glyph-name="uni0270" unicode="&#x270;" horiz-adv-x="836" 
d="M662 -200v168l5 100q-35 -37 -71.5 -58.5t-78.5 -21.5q-54 0 -86.5 24t-48.5 66q-36 -38 -74.5 -64t-84.5 -26q-76 0 -113 50t-37 143v308h99v-296q0 -64 20.5 -92t62.5 -28q26 0 54 17t59 51v348h98v-296q0 -64 20.5 -92t62.5 -28q51 0 113 68v348h98v-689h-98z" />
    <glyph glyph-name="uni0271" unicode="&#x271;" horiz-adv-x="836" 
d="M625 -212q-22 0 -40 4t-31 9l19 75q8 -3 18.5 -5.5t20.5 -2.5q33 0 43.5 24t10.5 67v336q0 65 -20 93t-63 28q-26 0 -53.5 -17t-59.5 -51v-348h-98v295q0 65 -20 93t-63 28q-51 0 -113 -68v-348h-98v489h81l8 -69h3q31 34 68.5 57.5t82.5 23.5q55 0 87 -24.5t48 -66.5
q36 40 74.5 65.5t84.5 25.5q77 0 113 -50t36 -143v-348q0 -51 -13.5 -89.5t-44 -60.5t-81.5 -22z" />
    <glyph glyph-name="uni0272" unicode="&#x272;" horiz-adv-x="553" 
d="M42 -212q-21 0 -37.5 4t-28.5 9l19 75q8 -3 16.5 -5.5t17.5 -2.5q28 0 38.5 21.5t10.5 61.5v538h83l6 -69h3q34 34 73 57.5t89 23.5q78 0 114 -50t36 -143v-308h-99v295q0 65 -20 93t-64 28q-35 0 -62 -17.5t-61 -50.5v-396q0 -49 -12.5 -86t-42 -57.5t-79.5 -20.5z" />
    <glyph glyph-name="uni0273" unicode="&#x273;" horiz-adv-x="553" 
d="M517 -212q-50 0 -79 20.5t-42 57.5t-13 86v343q0 65 -20 93t-64 28q-35 0 -62 -17.5t-61 -50.5v-348h-98v489h81l8 -69h3q34 34 73 57.5t89 23.5q78 0 114 -50t36 -143v-357q0 -40 10 -61.5t38 -21.5q9 0 18 2.5t16 5.5l19 -75q-11 -5 -28 -9t-38 -4z" />
    <glyph glyph-name="uni0274" unicode="&#x274;" horiz-adv-x="547" 
d="M77 0v488h102l149 -249q15 -23 28 -52t27 -65h4q-4 47 -7 94.5t-3 86.5v185h93v-488h-103l-150 252q-12 22 -25 51t-27 63h-4q4 -47 6.5 -94t2.5 -86v-186h-93z" />
    <glyph glyph-name="uni0275" unicode="&#x275;" horiz-adv-x="546" 
d="M273 -12q-62 0 -114 29t-83.5 86t-31.5 141q0 85 31.5 142t83.5 85.5t114 28.5q61 0 113.5 -28.5t84 -85.5t31.5 -142q0 -84 -31.5 -141t-84 -86t-113.5 -29zM273 68q41 0 71.5 21t47.5 60t17 95t-17 95.5t-47.5 61t-71.5 21.5t-71.5 -21.5t-47.5 -61t-17 -95.5t17 -95
t47.5 -60t71.5 -21zM117 215v77h308v-77h-308z" />
    <glyph glyph-name="uni0276" unicode="&#x276;" horiz-adv-x="707" 
d="M287 -12q-49 0 -93 16t-78 48.5t-53.5 81t-19.5 111.5t19.5 110.5t53 80t78 48.5t93.5 16q28 0 51.5 -2t55.5 -10h281v-75h-223v-123h187v-75h-187v-140h233v-75h-291q-32 -7 -55.5 -9.5t-51.5 -2.5zM292 68q16 0 31.5 2.5t29.5 6.5v334q-14 5 -29.5 7t-31.5 2
q-40 0 -73 -18.5t-53 -57.5t-20 -99q0 -62 20 -101t53 -57.5t73 -18.5z" />
    <glyph glyph-name="uni0277" unicode="&#x277;" horiz-adv-x="715" 
d="M220 -12q-51 0 -90 26t-60.5 77.5t-21.5 128.5q0 54 20 104t59 90t97 63.5t134 23.5q78 0 136 -23t96.5 -63t57.5 -90.5t19 -104.5q0 -71 -20 -123t-57.5 -80.5t-90.5 -28.5q-32 0 -61 12t-50 35.5t-29 56.5h-4q-13 -50 -50 -77t-85 -27zM231 65q22 0 40 11.5t29 37.5
t11 69v104h91v-104q0 -45 12 -70.5t30.5 -36.5t38.5 -11q40 0 64.5 36.5t24.5 114.5q0 59 -24.5 106t-72.5 74t-119 27q-73 0 -120.5 -30t-70.5 -78t-23 -103q0 -73 25.5 -110t63.5 -37z" />
    <glyph glyph-name="uni0278" unicode="&#x278;" horiz-adv-x="695" 
d="M302 -200v909h91v-909h-91zM313 -9q-71 0 -132.5 29.5t-99.5 86t-38 138.5q0 81 38 137.5t99.5 85.5t132.5 30l-5 -76q-45 0 -82.5 -21t-59 -60.5t-21.5 -95.5t21.5 -96t59 -61t82.5 -22zM382 -9l5 75q46 1 83 22t58.5 61t21.5 96t-20.5 95.5t-57.5 60.5t-85 21l-5 76
q73 -1 134 -30t98.5 -85.5t37.5 -137.5q0 -82 -38 -138.5t-99.5 -86t-132.5 -29.5z" />
    <glyph glyph-name="uni0279" unicode="&#x279;" horiz-adv-x="360" 
d="M282 489v-489h-81l-8 88h-3q-25 -47 -61 -73.5t-78 -26.5q-17 0 -29.5 2.5t-23.5 7.5l20 84q11 -3 21 -4.5t25 -1.5q30 0 63 24t57 83v306h98z" />
    <glyph glyph-name="uni027A" unicode="&#x27a;" horiz-adv-x="360" 
d="M52 -12q-18 0 -30.5 2.5t-23.5 7.5l21 84q11 -3 21 -4.5t24 -1.5q30 0 63.5 24t56.5 83v526h99v-709h-82l-7 88h-3q-25 -47 -61.5 -73.5t-77.5 -26.5z" />
    <glyph glyph-name="uni027B" unicode="&#x27b;" horiz-adv-x="360" 
d="M318 -212q-46 0 -73 19t-39 53t-12 79v149h-3q-25 -47 -61.5 -73.5t-77.5 -26.5q-18 0 -30.5 2.5t-23.5 7.5l21 84q11 -3 21 -4.5t24 -1.5q30 0 63.5 24t56.5 83v306h99v-538q0 -40 10 -61.5t38 -21.5q9 0 18 2.5t16 5.5l19 -75q-11 -5 -27.5 -9t-38.5 -4z" />
    <glyph glyph-name="uni027D" unicode="&#x27d;" horiz-adv-x="360" 
d="M212 -212q-50 0 -79.5 20.5t-42 57.5t-12.5 86v537h81l8 -88h3q25 47 61 73.5t78 26.5q17 0 29.5 -2.5t23.5 -7.5l-17 -86q-13 4 -23.5 6t-25.5 2q-30 0 -63 -24t-57 -83v-355q0 -40 10.5 -61.5t38.5 -21.5q9 0 18 2.5t16 5.5l18 -75q-10 -5 -27 -9t-38 -4z" />
    <glyph glyph-name="uni027E" unicode="&#x27e;" horiz-adv-x="343" 
d="M76 0v311q0 57 20.5 100t60 66.5t96.5 23.5q31 0 54 -3.5t38 -10.5l-16 -83q-18 7 -31 9t-33 2q-23 0 -44 -13.5t-34 -41t-13 -69.5v-291h-98z" />
    <glyph glyph-name="uni027F" unicode="&#x27f;" horiz-adv-x="278" 
d="M107 -200v530q0 44 -13 67.5t-50 23.5q-9 0 -17 -2t-16 -5l-20 74q12 5 28 9t38 4q55 0 87.5 -22t47 -60.5t14.5 -89.5v-529h-99z" />
    <glyph glyph-name="uni0280" unicode="&#x280;" horiz-adv-x="505" 
d="M77 0v488h181q54 0 96.5 -14t67.5 -46.5t25 -87.5q0 -42 -16 -72t-43 -48.5t-60.5 -27t-67.5 -8.5h-84v-184h-99zM176 257h67q51 0 78.5 21t27.5 59q0 39 -28 57.5t-78 18.5h-67v-156zM368 0l-124 207l80 28l154 -235h-110z" />
    <glyph glyph-name="uni0281" unicode="&#x281;" horiz-adv-x="506" 
d="M77 0v488h99v-177h87q34 0 66.5 -8.5t59 -28t42.5 -50t16 -73.5q0 -56 -25 -89t-67.5 -47.5t-96.5 -14.5h-181zM176 76h67q50 0 78 19t28 59q0 38 -28 60t-78 22h-67v-160zM324 255l-80 28l124 205h110z" />
    <glyph glyph-name="uni0282" unicode="&#x282;" horiz-adv-x="425" 
d="M161 -212q-49 0 -78.5 22t-43 60.5t-13.5 89.5v150l4 2q55 -29 98 -39t82 -10q46 0 68 20t22 48q0 22 -16 37.5t-41 26.5t-51 21q-33 13 -65 30t-53 44t-21 68q0 62 46.5 102.5t126.5 40.5q49 0 89 -17t69 -40l-46 -62q-26 19 -52.5 31t-57.5 12q-41 0 -61 -18.5
t-20 -43.5q0 -21 14.5 -34.5t37.5 -24t50 -20.5q35 -13 68 -29.5t55 -44.5t22 -74q0 -40 -21 -74t-62 -54t-101 -20q-25 0 -56 5t-65 19l20 27v-78q0 -49 13.5 -72t46.5 -23q12 0 23 2.5t21 5.5l19 -73q-13 -4 -30.5 -8.5t-40.5 -4.5z" />
    <glyph glyph-name="uni0283" unicode="&#x283;" horiz-adv-x="255" 
d="M33 -211q-25 0 -43.5 4t-32.5 8l20 75q10 -3 21 -6t22 -3q35 0 46.5 24.5t11.5 67.5v591q0 50 15 89t49 60.5t91 21.5q21 0 37.5 -4t28.5 -9l-20 -73q-7 3 -15.5 5t-17.5 2q-40 0 -54 -24t-14 -68v-590q0 -51 -14.5 -89.5t-46 -60t-84.5 -21.5z" />
    <glyph glyph-name="uni0284" unicode="&#x284;" horiz-adv-x="303" 
d="M22 215v72l81 5h178v-77h-259zM58 -211q-25 0 -44 4t-32 8l20 75q10 -3 20.5 -6t22.5 -3q35 0 46.5 24.5t11.5 67.5v591q0 50 15 89t49 60.5t91 21.5q21 0 37 -4t29 -9l-20 -73q-7 3 -15.5 5t-18.5 2q-40 0 -54 -24t-14 -68v-590q0 -51 -14 -89.5t-45.5 -60t-84.5 -21.5z
" />
    <glyph glyph-name="uni0285" unicode="&#x285;" horiz-adv-x="293" 
d="M242 -212q-50 0 -79.5 20.5t-42.5 57.5t-13 86v378q0 44 -13 67.5t-50 23.5q-9 0 -17 -2t-16 -5l-20 74q12 5 28 9t38 4q55 0 87.5 -22t47 -60.5t14.5 -89.5v-378q0 -40 10.5 -61.5t37.5 -21.5q10 0 19 2t16 5l18 -74q-11 -5 -27.5 -9t-37.5 -4z" />
    <glyph glyph-name="uni0287" unicode="&#x287;" horiz-adv-x="349" 
d="M108 499q82 0 115 -47.5t33 -123.5v-249h71v-74l-76 -4l-12 -156h-82v156h-129v78h129v250q0 44 -17 67t-55 23q-14 0 -27 -2.5t-26 -8.5l-20 69q19 10 44 16t52 6z" />
    <glyph glyph-name="uni0288" unicode="&#x288;" horiz-adv-x="349" 
d="M240 -212q-81 0 -114 47.5t-33 122.5v451h-71v75l76 5l12 155h82v-155h129v-80h-129v-451q0 -44 17 -67t56 -23q13 0 27.5 3.5t25.5 8.5l18 -74q-20 -6 -45 -12t-51 -6z" />
    <glyph glyph-name="uni0289" unicode="&#x289;" horiz-adv-x="593" 
d="M15 253v71l82 6h480v-77h-562zM246 -12q-77 0 -113 49.5t-36 142.5v308h98v-295q0 -64 20 -92t64 -28q35 0 61.5 18t58.5 57v340h98v-488h-81l-8 74h-2q-33 -39 -71.5 -62.5t-88.5 -23.5z" />
    <glyph glyph-name="uni028A" unicode="&#x28a;" horiz-adv-x="551" 
d="M275 -12q-71 0 -121.5 31.5t-77 81.5t-26.5 106q0 47 12 85t31 66.5t38 48.5v3h-93v78h193v-63q-37 -34 -59.5 -81t-22.5 -116q0 -42 14 -78.5t42.5 -58.5t69.5 -22q43 0 71 22t42 58.5t14 78.5q0 69 -22.5 116t-59.5 81v63h193v-78h-94v-3q21 -20 39.5 -48.5t31 -66.5
t12.5 -85q0 -56 -26.5 -106t-77 -81.5t-123.5 -31.5z" />
    <glyph glyph-name="uni028B" unicode="&#x28b;" horiz-adv-x="535" 
d="M265 -12q-57 0 -100.5 23.5t-68 72t-24.5 122.5v283h98v-277q0 -51 13 -82.5t35.5 -46t50.5 -14.5q38 0 64.5 26.5t40 73t13.5 106.5q0 72 -17 109.5t-55 37.5q-6 0 -12.5 -1t-13.5 -4l-14 76q13 5 27.5 6.5t33.5 1.5q45 0 80 -22.5t54 -69.5t19 -119q0 -88 -25.5 -156.5
t-75 -107t-123.5 -38.5z" />
    <glyph glyph-name="uni028C" unicode="&#x28c;" horiz-adv-x="481" 
d="M296 489l173 -489h-101l-85 266q-10 35 -21 72l-22 74h-4l-22 -74t-21 -72l-85 -266h-96l169 489h115z" />
    <glyph glyph-name="uni028D" unicode="&#x28d;" horiz-adv-x="733" 
d="M576 489l133 -488h-102l-64 267q-9 33 -15.5 67t-11.5 76h-4q-7 -42 -14 -76t-15 -67l-66 -267h-105l-68 267q-8 33 -15.5 67t-14.5 76h-4q-7 -42 -13.5 -76t-13.5 -67l-64 -267h-95l128 488h126l58 -244q8 -34 14.5 -67.5t13.5 -78.5h4q7 45 13.5 79t15.5 67l57 244h122
z" />
    <glyph glyph-name="uni028E" unicode="&#x28e;" horiz-adv-x="481" 
d="M12 0l190 547q19 52 44 91t60.5 61t86.5 22q19 0 33.5 -2.5t27.5 -7.5l-19 -77q-7 3 -16.5 5t-19.5 2q-40 0 -65 -26.5t-39 -67.5l-20 -61l194 -486h-101l-92 255q-11 32 -22 68t-23 70h-4q-10 -34 -19.5 -69.5t-19.5 -68.5l-80 -255h-96z" />
    <glyph glyph-name="uni028F" unicode="&#x28f;" horiz-adv-x="428" 
d="M165 0v161l-168 328h105l61 -130q12 -30 24.5 -57t25.5 -57h4q13 30 25.5 57t24.5 57l60 130h104l-167 -328v-161h-99z" />
    <glyph glyph-name="uni0290" unicode="&#x290;" horiz-adv-x="434" 
d="M436 -212q-46 0 -74 20.5t-40.5 55t-12.5 78.5v58h-276v53l243 356h-216v80h341v-53l-244 -357h242v-128q0 -40 10 -61.5t38 -21.5q10 0 18.5 2.5t15.5 5.5l19 -75q-11 -5 -27.5 -9t-36.5 -4z" />
    <glyph glyph-name="uni0291" unicode="&#x291;" horiz-adv-x="475" 
d="M264 -82l-69 11q15 69 33 123.5t41 93t53 59t68 20.5q44 0 69.5 -25.5t25.5 -69.5q0 -37 -18 -67.5t-55.5 -49t-95.5 -18.5q-31 0 -67 0.5t-74.5 1t-74.5 1.5t-68 2v53l244 357h-216v78h334v-53l-241 -354q47 -2 94 -3.5t95 -1.5q37 0 56 17t19 37q0 13 -8 21.5t-23 8.5
q-31 0 -63.5 -56.5t-58.5 -185.5z" />
    <glyph glyph-name="uni0292" unicode="&#x292;" horiz-adv-x="434" 
d="M203 -212q-72 0 -119.5 24.5t-79.5 54.5l47 62q26 -23 59.5 -41t82.5 -18q34 0 62 16.5t44 47.5t16 73q0 58 -32.5 90t-91.5 32q-21 0 -33 -3.5t-29 -11.5l-37 52l182 243h-232v80h351v-53l-178 -239q62 5 107 -18.5t69 -67.5t24 -101q0 -71 -30 -120.5t-78 -75.5
t-104 -26z" />
    <glyph glyph-name="uni0294" unicode="&#x294;" horiz-adv-x="425" 
d="M141 0v327q87 49 126 93t39 103q0 54 -30.5 85.5t-86.5 31.5q-46 0 -79.5 -20t-59.5 -46l-48 59q23 24 50.5 44t63.5 32t82 12q58 0 104.5 -22t74.5 -64.5t28 -105.5q0 -56 -21 -98.5t-58.5 -76.5t-85.5 -66v-288h-99z" />
    <glyph glyph-name="uni0295" unicode="&#x295;" horiz-adv-x="425" 
d="M184 0v288q-47 32 -84.5 66t-59 76.5t-21.5 98.5q0 63 28.5 105.5t77.5 64.5t108 22q45 0 79.5 -12t61.5 -32t49 -44l-48 -59q-25 26 -57.5 46t-76.5 20q-57 0 -89.5 -31.5t-32.5 -85.5q0 -59 39 -103t126 -93v-327h-100z" />
    <glyph glyph-name="uni0298" unicode="&#x298;" horiz-adv-x="533" 
d="M266 -12q-64 0 -111 39.5t-72.5 121t-25.5 209.5q0 120 25.5 200.5t72.5 121.5t111 41q65 0 112 -41t73 -122t26 -200q0 -128 -26 -209.5t-73 -121t-112 -39.5zM266 71q34 0 61 27.5t42.5 90t15.5 169.5q0 98 -15.5 160t-42.5 91t-61 29q-32 0 -59 -29t-43 -91t-16 -160
q0 -107 16 -169.5t43 -90t59 -27.5zM266 292q-26 0 -44.5 18.5t-18.5 47.5t18.5 47t44.5 18q28 0 46 -18t18 -47t-18 -47.5t-46 -18.5z" />
    <glyph glyph-name="uni0299" unicode="&#x299;" horiz-adv-x="513" 
d="M77 0v488h193q55 0 96 -12t65 -39.5t24 -73.5q0 -38 -21 -65t-60 -38v-4q28 -6 51 -20t36.5 -37.5t13.5 -57.5q0 -49 -25.5 -80.5t-69.5 -46t-101 -14.5h-202zM174 290h84q53 0 77 17.5t24 45.5q0 32 -23 49.5t-74 17.5h-88v-130zM174 68h97q55 0 80.5 21t25.5 57
q0 33 -27.5 51t-83.5 18h-92v-147z" />
    <glyph glyph-name="uni029B" unicode="&#x29b;" horiz-adv-x="502" 
d="M282 -12q-65 0 -119.5 29t-87 86.5t-32.5 141.5q0 60 19.5 107.5t53 80.5t77.5 50.5t93 17.5q24 0 47 -5.5t42 -16.5l-23 -13q-24 39 -39 77t-15 75q0 47 31.5 75t82.5 28q24 0 41 -4.5t30 -11.5l-19 -69q-8 4 -16 6t-19 2q-24 0 -37.5 -15.5t-13.5 -43.5q0 -32 16.5 -66
t51.5 -78l-46 -59q-22 19 -47 30t-61 11q-40 0 -74 -20.5t-54.5 -60t-20.5 -97.5q0 -85 40.5 -132.5t106.5 -47.5q24 0 45 7.5t34 18.5v111h-102v69h188v-221q-28 -26 -73 -44t-100 -18z" />
    <glyph glyph-name="uni029C" unicode="&#x29c;" horiz-adv-x="567" 
d="M78 0v489h98v-193h215v193h99v-489h-99v209h-215v-209h-98z" />
    <glyph glyph-name="uni029D" unicode="&#x29d;" horiz-adv-x="354" 
d="M304 -254q-31 64 -65 109.5t-68 69t-66 23.5q-24 0 -37.5 -10.5t-13.5 -28.5q0 -17 14 -29t37 -12q27 0 42.5 13.5t23 37t7.5 52.5v517h99v-501q0 -57 -16.5 -102t-53.5 -70.5t-99 -25.5t-97.5 35t-35.5 84q0 51 34 81.5t89 30.5q82 0 147.5 -61t122.5 -181zM227 582
q-27 0 -44.5 16.5t-17.5 43.5q0 26 17.5 42.5t44.5 16.5q28 0 45 -16.5t17 -42.5q0 -27 -17 -43.5t-45 -16.5z" />
    <glyph glyph-name="uni029E" unicode="&#x29e;" horiz-adv-x="509" 
d="M334 -200v440h-4l-208 -240h-114l326 359v130h98v-689h-98zM210 206l-183 283h103l142 -225z" />
    <glyph glyph-name="uni029F" unicode="&#x29f;" horiz-adv-x="416" 
d="M78 0v489h98v-410h214v-79h-312z" />
    <glyph glyph-name="uni02A1" unicode="&#x2a1;" horiz-adv-x="435" 
d="M34 128v71l92 5h236v-76h-328zM151 0v327q87 49 126 93t39 103q0 54 -30.5 85.5t-86.5 31.5q-46 0 -79.5 -20t-59.5 -46l-48 59q23 24 50.5 44t63.5 32t82 12q58 0 104.5 -22t74.5 -64.5t28 -105.5q0 -56 -21 -98.5t-58.5 -76.5t-85.5 -66v-288h-99z" />
    <glyph glyph-name="uni02A2" unicode="&#x2a2;" horiz-adv-x="435" 
d="M68 128v71l90 5h238v-76h-328zM184 0v288q-47 32 -84.5 66t-59 76.5t-21.5 98.5q0 63 28.5 105.5t77.5 64.5t108 22q45 0 79.5 -12t61.5 -32t49 -44l-48 -59q-25 26 -57.5 46t-76.5 20q-57 0 -89.5 -31.5t-32.5 -85.5q0 -59 39 -103t126 -93v-327h-100z" />
    <glyph glyph-name="uni02A3" unicode="&#x2a3;" horiz-adv-x="851" 
d="M236 -12q-86 0 -138.5 67.5t-52.5 188.5q0 79 28 136.5t73.5 89t97.5 31.5q40 0 67 -15.5t56 -40.5l-4 82v182h99v-709h-81l-8 55h-3q-27 -27 -61 -47t-73 -20zM259 70q29 0 53.5 15.5t50.5 45.5v242q-26 24 -50 34.5t-49 10.5q-33 0 -59.5 -21t-42 -60t-15.5 -92
q0 -84 29.5 -129.5t82.5 -45.5zM510 0v53l196 356h-254v80h366v-53l-196 -357h204v-79h-316z" />
    <glyph glyph-name="uni02A4" unicode="&#x2a4;" horiz-adv-x="858" 
d="M236 -12q-86 0 -138.5 67.5t-52.5 188.5q0 79 28 136.5t73.5 89t97.5 31.5q40 0 67 -15.5t56 -40.5l-4 82v182h99v-709h-81l-8 55h-3q-27 -27 -61 -47t-73 -20zM259 70q29 0 53.5 15.5t50.5 45.5v242q-26 24 -50 34.5t-49 10.5q-33 0 -59.5 -21t-42 -60t-15.5 -92
q0 -84 29.5 -129.5t82.5 -45.5zM637 -212q-43 0 -76 12t-58 30t-45 37l47 62q23 -22 52 -40.5t70 -18.5q32 0 57 16.5t40.5 47.5t15.5 73q0 58 -27.5 90t-77.5 32q-20 0 -32 -3.5t-30 -11.5l-36 52l161 243h-252v80h371v-53l-167 -252l-36 17q62 6 104.5 -6.5t69.5 -39.5
t39 -64.5t12 -80.5q0 -71 -28.5 -120.5t-74.5 -75.5t-99 -26z" />
    <glyph glyph-name="uni02A5" unicode="&#x2a5;" horiz-adv-x="914" 
d="M236 -12q-87 0 -139 67.5t-52 188.5q0 79 28 136.5t74 88.5t97 31q39 0 66 -15t57 -40l-4 81v183h99v-709h-82l-7 55h-4q-26 -26 -60 -46.5t-73 -20.5zM259 70q29 0 53.5 15.5t50.5 45.5v242q-27 24 -50.5 34.5t-48.5 10.5q-33 0 -59 -21t-42 -60t-16 -93
q0 -82 29.5 -128t82.5 -46zM705 -82l-71 11q14 68 32.5 123t42 93t53 59t65.5 21q44 0 69.5 -25.5t25.5 -70.5q0 -36 -18.5 -66t-57 -48t-98.5 -18q-35 0 -77.5 0.5t-84.5 1t-76 1.5v53l196 357h-253v78h365v-52l-196 -356q41 -3 79.5 -3.5t77.5 -0.5q37 0 56 16.5t19 36.5
q0 14 -7 22.5t-23 8.5q-32 0 -63.5 -57.5t-55.5 -184.5z" />
    <glyph glyph-name="uni02A6" unicode="&#x2a6;" horiz-adv-x="668" 
d="M363 -12q-80 0 -132.5 15.5t-82.5 43.5t-42.5 64t-12.5 77v221h-71v75l76 5l12 155h82v-155h223l-69 -80h-154v-221q0 -36 17.5 -64t55.5 -44.5t101 -16.5q57 0 91.5 5.5t53.5 14.5t25.5 21.5t6.5 26.5q0 22 -15 37.5t-39.5 26.5t-50.5 21q-33 13 -64 30t-51.5 44
t-20.5 68q0 62 45.5 102.5t124.5 40.5q47 0 86.5 -16t68.5 -41l-44 -57q-26 19 -52.5 28.5t-56.5 9.5q-40 0 -59 -18.5t-19 -43.5q0 -21 14 -34.5t36.5 -24t49.5 -20.5q33 -12 66 -29t54 -45t21 -74q0 -30 -12 -57t-41.5 -47.5t-83 -32t-137.5 -11.5z" />
    <glyph glyph-name="uni02A7" unicode="&#x2a7;" horiz-adv-x="562" 
d="M240 -10q-81 0 -114 47t-33 123v249h-71v75l76 5l12 155h82v-155h246v-80h-246v-250q0 -43 15.5 -66.5t52.5 -23.5q10 0 20.5 2.5t22.5 8.5l19 -72q-17 -7 -37.5 -12.5t-44.5 -5.5zM340 -212q-25 0 -43.5 4t-32.5 9l20 75q10 -3 20.5 -5.5t22.5 -2.5q35 0 46.5 24
t11.5 67v591q0 51 15 89.5t49 60t91 21.5q22 0 37.5 -3.5t27.5 -9.5l-19 -73q-7 3 -15.5 5t-18.5 2q-40 0 -54 -23.5t-14 -67.5v-591q0 -51 -13.5 -89.5t-45.5 -60.5t-85 -22z" />
    <glyph glyph-name="uni02A8" unicode="&#x2a8;" horiz-adv-x="759" 
d="M240 -10q-81 0 -114 47t-33 123v249h-71v75l76 5l12 155h82v-155h320v-80h-320v-250q0 -43 15.5 -66.5t52.5 -23.5q10 0 20.5 2.5t22.5 8.5l19 -72q-17 -7 -37.5 -12.5t-44.5 -5.5zM420 -70l-61 24q50 128 122 200.5t157 72.5q51 0 79 -29t28 -75q0 -37 -20.5 -67.5
t-59.5 -49t-92 -18.5q-65 0 -118 30t-84.5 87.5t-31.5 138.5q0 82 33.5 139t88.5 87.5t118 30.5q48 0 82.5 -16t60.5 -40l-45 -59q-19 17 -42.5 27t-50.5 10q-43 0 -76.5 -22.5t-52.5 -62.5t-19 -94t19 -94t51.5 -62.5t71.5 -22.5q41 0 66.5 17.5t25.5 42.5q0 33 -42 33
q-38 0 -76.5 -27.5t-72 -79t-59.5 -121.5z" />
    <glyph glyph-name="uni02B0" unicode="&#x2b0;" horiz-adv-x="371" 
d="M49 390v467h73v-123l-4 -65q20 21 47 36.5t60 15.5q56 0 79 -35t23 -93v-203h-72v193q0 36 -10.5 56.5t-45.5 20.5q-18 0 -36.5 -11t-40.5 -32v-227h-73z" />
    <glyph glyph-name="uni02B1" unicode="&#x2b1;" horiz-adv-x="371" 
d="M49 390v347q0 37 13 67t39 47.5t69 17.5q18 0 33 -3t27 -8l-15 -52q-6 2 -15.5 3.5t-21.5 1.5q-27 0 -41.5 -17.5t-15.5 -48.5l-3 -76q20 21 47 36.5t60 15.5q56 0 79 -35t23 -93v-203h-72v193q0 36 -10.5 56.5t-45.5 20.5q-18 0 -36.5 -11t-40.5 -32v-227h-73z" />
    <glyph glyph-name="uni02B2" unicode="&#x2b2;" horiz-adv-x="174" 
d="M24 247q-18 0 -29 2.5t-23 5.5l14 56q7 -2 13 -3.5t15 -1.5q22 0 29.5 14.5t7.5 43.5v349h73v-345q0 -36 -10 -63t-32 -42.5t-58 -15.5zM89 771q-21 0 -34 12t-13 31q0 18 13 30t34 12q20 0 33 -12t13 -30q0 -19 -13 -31t-33 -12z" />
    <glyph glyph-name="uni02B3" unicode="&#x2b3;" horiz-adv-x="248" 
d="M49 390v323h59l7 -57h3q19 33 42.5 49t49.5 16q13 0 22.5 -2t16.5 -5l-14 -63q-5 2 -14 3.5t-19 1.5q-20 0 -41.5 -15t-37.5 -52v-199h-74z" />
    <glyph glyph-name="uni02B4" unicode="&#x2b4;" horiz-adv-x="248" 
d="M38 382q-13 0 -23 2t-16 5l14 63q6 -1 15 -3t18 -2q20 0 41.5 15t37.5 52v199h74v-323h-59l-7 57h-3q-19 -32 -42.5 -48.5t-49.5 -16.5z" />
    <glyph glyph-name="uni02B7" unicode="&#x2b7;" horiz-adv-x="496" 
d="M103 390l-87 323h74l40 -171l18 -93h4l20 93l46 171h63l47 -171l21 -93h4l20 93l39 171h68l-85 -323h-86l-39 154l-21 91h-2l-19 -91l-39 -154h-86z" />
    <glyph glyph-name="uni02B8" unicode="&#x2b8;" horiz-adv-x="328" 
d="M69 258q-12 0 -22 1.5t-20 4.5l13 57q8 -3 13.5 -4t11.5 -1q26 0 42.5 17t24.5 42l6 19l-130 319h74l58 -161q8 -22 15 -45t14 -48h4q7 24 14 47l14 46l48 161h71l-117 -337q-14 -36 -31 -62t-42 -41t-61 -15z" />
    <glyph glyph-name="uni02B9" unicode="&#x2b9;" horiz-adv-x="262" 
d="M141 463l-65 5l33 254l97 -8l-21 -98z" />
    <glyph glyph-name="uni02BB" unicode="&#x2bb;" horiz-adv-x="268" 
d="M146 426q-42 0 -73 30t-31 84q0 40 13 76t42.5 65t79.5 48l27 -50q-34 -15 -54 -34.5t-29 -41.5t-9 -43q0 -10 2.5 -18t7.5 -16h-14q8 12 21 18t28 6q22 0 41.5 -14.5t19.5 -43.5t-21 -47.5t-51 -18.5z" />
    <glyph glyph-name="uni02BC" unicode="&#x2bc;" horiz-adv-x="268" 
d="M91 418l-26 50q33 15 53.5 35t29 42t8.5 42q0 12 -2 19.5t-8 14.5h15q-7 -11 -21 -17.5t-29 -6.5q-22 0 -41.5 15t-19.5 43q0 30 21.5 48t50.5 18q44 0 74 -29.5t30 -84.5q0 -40 -13 -76t-42.5 -65t-79.5 -48z" />
    <glyph glyph-name="uni02BD" unicode="&#x2bd;" horiz-adv-x="268" 
d="M177 418q-75 29 -105 76.5t-30 103.5q0 60 31 91.5t73 31.5q30 0 51 -18t21 -48q0 -28 -19.5 -43t-41.5 -15q-15 0 -28 6.5t-21 17.5h14q-5 -7 -7.5 -15.5t-2.5 -20.5q0 -20 9 -41.5t29.5 -41t53.5 -34.5z" />
    <glyph glyph-name="uni02BE" unicode="&#x2be;" horiz-adv-x="249" 
d="M46 438v58q49 0 71.5 20.5t22.5 59.5t-22.5 60t-71.5 21v58q82 3 125 -32.5t43 -106.5q0 -69 -43 -105t-125 -33z" />
    <glyph glyph-name="uni02BF" unicode="&#x2bf;" horiz-adv-x="249" 
d="M203 438q-82 -3 -125 33t-43 105q0 71 43 106.5t125 32.5v-58q-48 0 -71 -21t-23 -60t23 -59.5t71 -20.5v-58z" />
    <glyph glyph-name="uni02C0" unicode="&#x2c0;" horiz-adv-x="319" 
d="M106 390v104q61 22 85 45.5t24 57.5q0 30 -20 47.5t-55 17.5q-29 0 -50 -11.5t-39 -30.5l-38 41q20 24 53.5 42t77.5 18q64 0 104.5 -31.5t40.5 -92.5q0 -48 -30.5 -79.5t-79.5 -53.5v-74h-73z" />
    <glyph glyph-name="uni02C1" unicode="&#x2c1;" horiz-adv-x="319" 
d="M140 390v74q-48 22 -79 53.5t-31 79.5q0 61 41 92.5t103 31.5q46 0 79 -18t53 -42l-38 -41q-18 19 -39 30.5t-50 11.5q-34 0 -55 -17.5t-21 -47.5q0 -34 24.5 -57.5t85.5 -45.5v-104h-73z" />
    <glyph glyph-name="circumflex" unicode="&#x2c6;" horiz-adv-x="546" 
d="M94 570l135 169h88l135 -169h-78l-99 99h-4l-99 -99h-78z" />
    <glyph glyph-name="caron" unicode="&#x2c7;" horiz-adv-x="546" 
d="M229 570l-135 169h78l99 -98h4l99 98h78l-135 -169h-88z" />
    <glyph glyph-name="uni02C8" unicode="&#x2c8;" horiz-adv-x="193" 
d="M61 431l-6 278h83l-6 -278h-71z" />
    <glyph glyph-name="uni02C9" unicode="&#x2c9;" horiz-adv-x="285" 
d="M6 598v67h272v-67h-272z" />
    <glyph glyph-name="uni02CA" unicode="&#x2ca;" horiz-adv-x="228" 
d="M33 570l126 169h107l5 -10l-159 -159h-79z" />
    <glyph glyph-name="uni02CB" unicode="&#x2cb;" horiz-adv-x="228" 
d="M114 570l-159 159l5 10h107l126 -169h-79z" />
    <glyph glyph-name="uni02CC" unicode="&#x2cc;" horiz-adv-x="123" 
d="M20 -270l6 201h70l6 -201h-82z" />
    <glyph glyph-name="uni02D0" unicode="&#x2d0;" horiz-adv-x="262" 
d="M48 0l77 154h12l77 -154h-166zM125 335l-77 154h166l-77 -154h-12z" />
    <glyph glyph-name="uni02D1" unicode="&#x2d1;" horiz-adv-x="262" 
d="M125 335l-77 154h166l-77 -154h-12z" />
    <glyph glyph-name="uni02D2" unicode="&#x2d2;" horiz-adv-x="249" 
d="M46 127v58q49 0 71.5 20.5t22.5 59.5t-22.5 60t-71.5 21v58q82 3 125 -32.5t43 -106.5q0 -69 -43 -105t-125 -33z" />
    <glyph glyph-name="uni02D3" unicode="&#x2d3;" horiz-adv-x="249" 
d="M203 127q-82 -3 -125 33t-43 105q0 71 43 106.5t125 32.5v-58q-48 0 -71 -21t-23 -60t23 -59.5t71 -20.5v-58z" />
    <glyph glyph-name="uni02D4" unicode="&#x2d4;" horiz-adv-x="370" 
d="M29 103v61h123v269h64v-269h125v-61h-312z" />
    <glyph glyph-name="uni02D5" unicode="&#x2d5;" horiz-adv-x="370" 
d="M152 103v269h-123v61h312v-61h-125v-269h-64z" />
    <glyph glyph-name="uni02D6" unicode="&#x2d6;" horiz-adv-x="370" 
d="M152 103v135h-123v61h123v134h64v-134h125v-61h-125v-135h-64z" />
    <glyph glyph-name="uni02D7" unicode="&#x2d7;" horiz-adv-x="370" 
d="M29 238v61h312v-61h-312z" />
    <glyph glyph-name="breve" unicode="&#x2d8;" horiz-adv-x="546" 
d="M273 569q-54 0 -88.5 22t-51.5 57t-20 74l60 10q4 -25 15.5 -47.5t32.5 -36.5t52 -14t52 14t32.5 36.5t15.5 47.5l60 -10q-3 -39 -20 -74t-51 -57t-89 -22z" />
    <glyph glyph-name="dotaccent" unicode="&#x2d9;" horiz-adv-x="546" 
d="M273 582q-27 0 -44.5 16.5t-17.5 43.5q0 26 17.5 42.5t44.5 16.5q28 0 45 -16.5t17 -42.5q0 -27 -17 -43.5t-45 -16.5z" />
    <glyph glyph-name="ring" unicode="&#x2da;" horiz-adv-x="546" 
d="M273 557q-54 0 -84.5 28.5t-30.5 71.5q0 42 30.5 70.5t84.5 28.5t84.5 -28.5t30.5 -70.5q0 -43 -30.5 -71.5t-84.5 -28.5zM273 598q23 0 38 16t15 43q0 26 -15 42t-38 16q-22 0 -37.5 -16t-15.5 -43q0 -26 15.5 -42t37.5 -16z" />
    <glyph glyph-name="ogonek" unicode="&#x2db;" horiz-adv-x="546" 
d="M286 -216q-44 0 -74.5 23t-30.5 72q0 27 11 50.5t27.5 42t32.5 31.5h68q-28 -23 -46 -50t-18 -54q0 -24 15.5 -35t32.5 -11q16 0 28 4.5t23 11.5l23 -53q-17 -13 -41.5 -22.5t-50.5 -9.5z" />
    <glyph glyph-name="tilde" unicode="&#x2dc;" horiz-adv-x="546" 
d="M344 576q-26 0 -45.5 12t-35 27.5t-29.5 27.5t-30 12q-21 0 -31 -19.5t-13 -53.5l-64 4q1 42 13 73.5t35 48.5t59 17q26 0 45 -11.5t34.5 -27.5t30 -27.5t30.5 -11.5q20 0 30.5 19.5t12.5 52.5l64 -3q-1 -42 -12.5 -73.5t-34.5 -49t-59 -17.5z" />
    <glyph glyph-name="hungarumlaut" unicode="&#x2dd;" horiz-adv-x="546" 
d="M154 570l83 169h80l6 -10l-112 -159h-57zM318 570l84 169h79l6 -10l-112 -159h-57z" />
    <glyph glyph-name="uni02DE" unicode="&#x2de;" horiz-adv-x="182" 
d="M121 194q-25 0 -46.5 11t-35 36.5t-13.5 68.5v15l-130 -53v71l176 70l11 -8q-1 -16 -1.5 -28.5t-0.5 -24.5q0 -56 14 -76.5t38 -20.5q13 0 23 4t16 9l25 -50q-13 -9 -31 -16.5t-45 -7.5z" />
    <glyph glyph-name="uni02E0" unicode="&#x2e0;" horiz-adv-x="327" 
d="M123 420l-115 293h73l55 -158q6 -21 13.5 -39.5t14.5 -40.5h3q7 22 14 40.5t14 39.5l55 158h69l-112 -293h-84zM165 245q-40 0 -64 23t-24 61q0 27 14 54t38 71h72q25 -44 38.5 -71t13.5 -54q0 -38 -23.5 -61t-64.5 -23zM165 292q13 0 20.5 9t7.5 23q0 16 -7 34.5
t-20 41.5h-3q-11 -23 -18 -42t-7 -34q0 -14 7 -23t20 -9z" />
    <glyph glyph-name="uni02E1" unicode="&#x2e1;" horiz-adv-x="179" 
d="M122 382q-40 0 -56.5 24t-16.5 65v386h73v-391q0 -13 5 -19t12 -6q3 0 6 0.5t7 1.5l10 -54q-7 -3 -16 -5t-24 -2z" />
    <glyph glyph-name="uni02E2" unicode="&#x2e2;" horiz-adv-x="287" 
d="M144 382q-35 0 -68 12.5t-58 31.5l34 47q22 -16 45 -26t48 -10q26 0 40 11.5t14 28.5q0 21 -22 32t-50 21q-22 8 -43.5 20t-35.5 30.5t-14 45.5q0 40 31 67.5t85 27.5q35 0 62 -11t47 -26l-34 -46q-18 13 -35 20.5t-39 7.5q-23 0 -35.5 -11t-12.5 -25q0 -20 21.5 -30
t48.5 -21q22 -8 44 -19t36 -29t14 -48q0 -44 -33 -72.5t-90 -28.5z" />
    <glyph glyph-name="uni02E3" unicode="&#x2e3;" horiz-adv-x="318" 
d="M8 390l107 169l-99 154h80l37 -62l30 -51h4l25 51l34 62h76l-98 -162l105 -161h-79l-39 64l-35 54h-4l-31 -54l-36 -64h-77z" />
    <glyph glyph-name="uni02E4" unicode="&#x2e4;" horiz-adv-x="313" 
d="M135 390v182q-49 34 -80.5 70t-31.5 88q0 65 41.5 100t104.5 35q46 0 79 -18t53 -42l-37 -40q-17 18 -39 29t-51 11q-36 0 -57 -20.5t-21 -54.5q0 -37 26 -66.5t86 -63.5v-210h-73z" />
    <glyph glyph-name="uni207C" unicode="&#x207c;" horiz-adv-x="370" 
d="M29 643v61h312v-61h-312zM29 473v61h312v-61h-312z" />
    <glyph glyph-name="uni207C" unicode="&#x2ed;" horiz-adv-x="370" 
d="M29 643v61h312v-61h-312zM29 473v61h312v-61h-312z" />
    <glyph glyph-name="gravecomb" unicode="&#x300;" 
d="M1 570l-159 159l5 10h107l126 -169h-79z" />
    <glyph glyph-name="acutecomb" unicode="&#x301;" 
d="M-80 570l126 169h107l5 -10l-159 -159h-79z" />
    <glyph glyph-name="uni0302" unicode="&#x302;" 
d="M-179 570l135 169h88l135 -169h-78l-99 99h-4l-99 -99h-78z" />
    <glyph glyph-name="tildecomb" unicode="&#x303;" 
d="M71 576q-26 0 -45.5 12t-35 27.5t-29.5 27.5t-30 12q-21 0 -31 -19.5t-13 -53.5l-64 4q1 42 13 73.5t35 48.5t59 17q26 0 45 -11.5t34.5 -27.5t30 -27.5t30.5 -11.5q20 0 30.5 19.5t12.5 52.5l64 -3q-1 -42 -12.5 -73.5t-34.5 -49t-59 -17.5z" />
    <glyph glyph-name="uni0304" unicode="&#x304;" 
d="M-136 598v67h272v-67h-272z" />
    <glyph glyph-name="uni0305" unicode="&#x305;" 
d="M-136 598v67h272v-67h-272z" />
    <glyph glyph-name="uni0306" unicode="&#x306;" 
d="M0 569q-54 0 -88.5 22t-51.5 57t-20 74l60 10q4 -25 15.5 -47.5t32.5 -36.5t52 -14t52 14t32.5 36.5t15.5 47.5l60 -10q-3 -39 -20 -74t-51 -57t-89 -22z" />
    <glyph glyph-name="uni0307" unicode="&#x307;" 
d="M0 582q-27 0 -44.5 16.5t-17.5 43.5q0 26 17.5 42.5t44.5 16.5q28 0 45 -16.5t17 -42.5q0 -27 -17 -43.5t-45 -16.5z" />
    <glyph glyph-name="uni0308" unicode="&#x308;" 
d="M-100 583q-23 0 -39 16t-16 39q0 24 16 39.5t39 15.5q25 0 40.5 -15.5t15.5 -39.5q0 -23 -15.5 -39t-40.5 -16zM100 583q-24 0 -40 16t-16 39q0 24 16 39.5t40 15.5t39.5 -15.5t15.5 -39.5q0 -23 -15.5 -39t-39.5 -16z" />
    <glyph glyph-name="hookabovecomb" unicode="&#x309;" 
d="M-35 561l-10 44q24 6 39 20t15 34q0 21 -20 32.5t-62 13.5l6 59q50 -1 83.5 -11.5t50.5 -30.5t17 -49q0 -33 -16.5 -56.5t-43.5 -37.5t-59 -18z" />
    <glyph glyph-name="uni030A" unicode="&#x30a;" 
d="M0 557q-54 0 -84.5 28.5t-30.5 71.5q0 42 30.5 70.5t84.5 28.5t84.5 -28.5t30.5 -70.5q0 -43 -30.5 -71.5t-84.5 -28.5zM0 598q23 0 38 16t15 43q0 26 -15 42t-38 16q-22 0 -37.5 -16t-15.5 -43q0 -26 15.5 -42t37.5 -16z" />
    <glyph glyph-name="uni030B" unicode="&#x30b;" 
d="M-119 570l83 169h80l6 -10l-112 -159h-57zM45 570l84 169h79l6 -10l-112 -159h-57z" />
    <glyph glyph-name="uni030C" unicode="&#x30c;" 
d="M-44 570l-135 169h78l99 -98h4l99 98h78l-135 -169h-88z" />
    <glyph glyph-name="uni030D" unicode="&#x30d;" 
d="M-35 567l-6 187h82l-6 -187h-70z" />
    <glyph glyph-name="uni030F" unicode="&#x30f;" 
d="M-102 571l-112 160l6 11h79l84 -171h-57zM62 571l-112 160l6 11h80l83 -171h-57z" />
    <glyph glyph-name="uni0310" unicode="&#x310;" 
d="M0 571q-55 0 -91 22t-54 57t-21 74l55 10q4 -27 17.5 -50t37 -38t56.5 -15q34 0 57 15t37 38t17 50l55 -10q-3 -39 -21 -74t-53.5 -57t-91.5 -22zM0 721q-23 0 -39.5 16t-16.5 39q0 24 16.5 39.5t39.5 15.5q24 0 40 -15.5t16 -39.5q0 -23 -16 -39t-40 -16z" />
    <glyph glyph-name="uni0311" unicode="&#x311;" 
d="M-100 567l-60 10q3 39 20 74t51.5 57t88.5 22q55 0 89 -22t51 -57t20 -74l-60 -10q-4 25 -15.5 47.5t-32.5 36.5t-52 14t-52 -14t-32.5 -36.5t-15.5 -47.5z" />
    <glyph glyph-name="uni0312" unicode="&#x312;" 
d="M5 560q-32 0 -53 22t-21 59q0 46 24.5 79.5t77.5 53.5l20 -40q-37 -15 -53 -34.5t-16 -48.5q6 5 14 8t20 3q18 0 33.5 -13t15.5 -36q0 -25 -17.5 -39t-44.5 -14z" />
    <glyph glyph-name="uni0313" unicode="&#x313;" 
d="M-33 560l-20 40q37 16 53 35.5t16 47.5q-5 -4 -13.5 -7t-20.5 -3q-18 0 -33.5 12.5t-15.5 35.5q0 25 18 39t44 14q33 0 53.5 -21.5t20.5 -59.5q0 -46 -24.5 -79.5t-77.5 -53.5z" />
    <glyph glyph-name="uni0315" unicode="&#x315;" 
d="M-33 560l-20 40q37 16 53 35.5t16 47.5q-5 -4 -13.5 -7t-20.5 -3q-18 0 -33.5 12.5t-15.5 35.5q0 25 18 39t44 14q33 0 53.5 -21.5t20.5 -59.5q0 -46 -24.5 -79.5t-77.5 -53.5z" />
    <glyph glyph-name="uni0318" unicode="&#x318;" 
d="M31 -251v70h-110v54h110v70h58v-194h-58z" />
    <glyph glyph-name="uni0319" unicode="&#x319;" 
d="M-89 -251v194h58v-70h110v-54h-110v-70h-58z" />
    <glyph glyph-name="uni031A" unicode="&#x31a;" 
d="M31 573v90h-110v54h168v-144h-58z" />
    <glyph glyph-name="uni031B" unicode="&#x31b;" 
d="M0 432l-9 46q39 7 59.5 26t20.5 54q0 16 -4.5 29.5t-10.5 26.5l75 34q11 -17 18 -37.5t7 -45.5q0 -41 -21 -69t-56.5 -43.5t-78.5 -20.5z" />
    <glyph glyph-name="uni031C" unicode="&#x31c;" 
d="M69 -255q-73 -3 -108 23.5t-35 76.5q0 49 35 76t108 24v-42q-40 1 -57.5 -15.5t-17.5 -42.5q0 -27 17.5 -43t57.5 -16v-41z" />
    <glyph glyph-name="uni031D" unicode="&#x31d;" 
d="M-99 -215v53h70v105h58v-105h70v-53h-198z" />
    <glyph glyph-name="uni031E" unicode="&#x31e;" 
d="M-29 -251v105h-70v53h198v-53h-70v-105h-58z" />
    <glyph glyph-name="uni031F" unicode="&#x31f;" 
d="M-29 -251v70h-70v54h70v70h58v-70h70v-54h-70v-70h-58z" />
    <glyph glyph-name="uni0320" unicode="&#x320;" 
d="M-99 -181v54h198v-54h-198z" />
    <glyph glyph-name="dotbelowcomb" unicode="&#x323;" 
d="M0 -211q-27 0 -44.5 16.5t-17.5 43.5q0 26 17.5 42.5t44.5 16.5q28 0 45 -16.5t17 -42.5q0 -27 -17 -43.5t-45 -16.5z" />
    <glyph glyph-name="uni0324" unicode="&#x324;" 
d="M-100 -205q-23 0 -39 16t-16 39q0 24 16 39.5t39 15.5q25 0 40.5 -15.5t15.5 -39.5q0 -23 -15.5 -39t-40.5 -16zM100 -205q-24 0 -40 16t-16 39q0 24 16 39.5t40 15.5t39.5 -15.5t15.5 -39.5q0 -23 -15.5 -39t-39.5 -16z" />
    <glyph glyph-name="uni0325" unicode="&#x325;" 
d="M0 -255q-54 0 -84.5 28.5t-30.5 71.5q0 42 30.5 70.5t84.5 28.5t84.5 -28.5t30.5 -70.5q0 -43 -30.5 -71.5t-84.5 -28.5zM0 -214q23 0 38 16t15 43q0 26 -15 42t-38 16q-22 0 -37.5 -16t-15.5 -43q0 -26 15.5 -42t37.5 -16z" />
    <glyph glyph-name="uni0326" unicode="&#x326;" 
d="M-90 -230l-9 46q61 4 84 15t23 30q0 18 -17.5 27.5t-51.5 12.5l20 43q70 -8 96.5 -26t26.5 -53q0 -45 -44.5 -68t-127.5 -27z" />
    <glyph glyph-name="uni0327" unicode="&#x327;" 
d="M-90 -230l-9 46q61 4 84 15t23 33q0 19 -16.5 29.5t-60.5 16.5l45 93h62l-29 -66q35 -8 54 -24.5t19 -47.5q0 -45 -44.5 -68t-127.5 -27z" />
    <glyph glyph-name="uni0328" unicode="&#x328;" 
d="M13 -216q-44 0 -74.5 23t-30.5 72q0 27 11 50.5t27.5 42t32.5 31.5h68q-28 -23 -46 -50t-18 -54q0 -24 15.5 -35t32.5 -11q16 0 28 4.5t23 11.5l23 -53q-17 -13 -41.5 -22.5t-50.5 -9.5z" />
    <glyph glyph-name="uni0329" unicode="&#x329;" 
d="M-41 -270l6 201h70l6 -201h-82z" />
    <glyph glyph-name="uni032A" unicode="&#x32a;" 
d="M-123 -224v143h246v-143h-53v90h-140v-90h-53z" />
    <glyph glyph-name="uni032C" unicode="&#x32c;" 
d="M-44 -229l-135 169h78l99 -98h4l99 98h78l-135 -169h-88z" />
    <glyph glyph-name="uni032E" unicode="&#x32e;" 
d="M0 -234q-54 0 -88.5 22t-51.5 57t-20 74l60 10q4 -25 15.5 -47.5t32.5 -36.5t52 -14t52 14t32.5 36.5t15.5 47.5l60 -10q-3 -39 -20 -74t-51 -57t-89 -22z" />
    <glyph glyph-name="uni032F" unicode="&#x32f;" 
d="M-100 -240l-60 10q3 39 20 74t51.5 57t88.5 22q55 0 89 -22t51 -57t20 -74l-60 -10q-4 25 -15.5 47.5t-32.5 36.5t-52 14t-52 -14t-32.5 -36.5t-15.5 -47.5z" />
    <glyph glyph-name="uni0330" unicode="&#x330;" 
d="M71 -224q-26 0 -45.5 12t-35 27.5t-29.5 27.5t-30 12q-21 0 -31 -19.5t-13 -53.5l-64 4q1 42 13 73.5t35 48.5t59 17q26 0 45 -11.5t34.5 -27.5t30 -27.5t30.5 -11.5q20 0 30.5 19.5t12.5 52.5l64 -3q-1 -42 -12.5 -73.5t-34.5 -49t-59 -17.5z" />
    <glyph glyph-name="uni0331" unicode="&#x331;" 
d="M-136 -167v67h272v-67h-272z" />
    <glyph glyph-name="uni0332" unicode="&#x332;" 
d="M-280 -167v67h560v-67h-560z" />
    <glyph glyph-name="uni0334" unicode="&#x334;" 
d="M100 181q-34 0 -60 11.5t-47.5 27.5t-41.5 27.5t-42 11.5q-20 0 -30.5 -19t-12.5 -52l-65 12q2 39 13 68t32.5 45.5t54.5 16.5q34 0 60 -12t47 -27.5t41 -27.5t42 -12q20 0 30.5 19.5t12.5 51.5l65 -12q-2 -38 -13 -67t-32 -45.5t-54 -16.5z" />
    <glyph glyph-name="uni0337" unicode="&#x337;" 
d="M-458 -24l-42 33l413 504l41 -33z" />
    <glyph glyph-name="uni0338" unicode="&#x338;" 
d="M-568 -33l-54 42l528 679l54 -41z" />
    <glyph glyph-name="uni0339" unicode="&#x339;" 
d="M-69 -255v41q40 0 57.5 16t17.5 43q0 26 -17.5 42.5t-57.5 15.5v42q74 3 108.5 -24t34.5 -76q0 -50 -34.5 -76.5t-108.5 -23.5z" />
    <glyph glyph-name="uni033A" unicode="&#x33a;" 
d="M-123 -222v143h53v-90h140v90h53v-143h-246z" />
    <glyph glyph-name="uni033B" unicode="&#x33b;" 
d="M-123 -242v168h246v-168h-246zM-70 -198h140v81h-140v-81z" />
    <glyph glyph-name="uni033C" unicode="&#x33c;" 
d="M-173 -230q0 79 25 115t73 36q26 0 46 -13t28 -44h2q8 31 28 44t46 13q49 0 73.5 -36t24.5 -115l-55 -7q0 57 -12.5 76t-34.5 19q-23 0 -33.5 -19.5t-10.5 -54.5v-20h-54v20q0 35 -10.5 54.5t-33.5 19.5q-22 0 -34.5 -19t-12.5 -76z" />
    <glyph glyph-name="uni033D" unicode="&#x33d;" 
d="M-51 552l-37 37l51 51l-51 51l37 37l51 -51l51 51l37 -37l-51 -51l51 -51l-37 -37l-51 51z" />
    <glyph glyph-name="uni0340" unicode="&#x340;" 
d="M-21 567l-73 181l6 11h100l37 -192h-70z" />
    <glyph glyph-name="uni0342" unicode="&#x342;" 
d="M71 576q-26 0 -45.5 12t-35 27.5t-29.5 27.5t-30 12q-21 0 -31 -19.5t-13 -53.5l-64 4q1 42 13 73.5t35 48.5t59 17q26 0 45 -11.5t34.5 -27.5t30 -27.5t30.5 -11.5q20 0 30.5 19.5t12.5 52.5l64 -3q-1 -42 -12.5 -73.5t-34.5 -49t-59 -17.5z" />
    <glyph glyph-name="uni0343" unicode="&#x343;" 
d="M-35 561l-10 44q24 6 39 20t15 34q0 21 -20 32.5t-62 13.5l6 59q50 -1 83.5 -11.5t50.5 -30.5t17 -49q0 -33 -16.5 -56.5t-43.5 -37.5t-59 -18z" />
    <glyph glyph-name="uni0344" unicode="&#x344;" 
d="M-120 584q-23 0 -38 15t-15 37q0 23 15 37.5t38 14.5t37.5 -14.5t14.5 -37.5q0 -22 -14.5 -37t-37.5 -15zM120 584q-22 0 -37 15t-15 37q0 23 15 37.5t37 14.5q23 0 38 -14.5t15 -37.5q0 -22 -15 -37t-38 -15zM-45 566l38 195h75l6 -11l-72 -184h-47z" />
    <glyph glyph-name="uni0345" unicode="&#x345;" 
d="M47 -204q-46 0 -66 26.5t-20 74.5v43h74q-1 -12 -1.5 -26t-0.5 -24q0 -17 9.5 -24t22.5 -7h8.5t12.5 2l11 -57q-10 -4 -21.5 -6t-28.5 -2z" />
    <glyph glyph-name="uni034F" unicode="&#x34f;" 
 />
    <glyph glyph-name="uni0357" unicode="&#x357;" 
d="M-69 557v41q40 0 57.5 16t17.5 43q0 26 -17.5 42.5t-57.5 15.5v42q74 3 108.5 -24t34.5 -76q0 -50 -34.5 -76.5t-108.5 -23.5z" />
    <glyph glyph-name="uni0358" unicode="&#x358;" 
d="M0 582q-27 0 -44.5 16.5t-17.5 43.5q0 26 17.5 42.5t44.5 16.5q28 0 45 -16.5t17 -42.5q0 -27 -17 -43.5t-45 -16.5z" />
    <glyph glyph-name="uni035C" unicode="&#x35c;" 
d="M0 -232q-125 0 -239 32t-216 94l28 48q64 -38 136 -61.5t146.5 -34.5t144.5 -11t144.5 11t146.5 34.5t136 61.5l28 -48q-101 -62 -215.5 -94t-239.5 -32z" />
    <glyph glyph-name="uni035E" unicode="&#x35e;" 
d="M-448 601v60h896v-60h-896z" />
    <glyph glyph-name="uni035F" unicode="&#x35f;" 
d="M-448 -171v60h896v-60h-896z" />
    <glyph glyph-name="uni0361" unicode="&#x361;" 
d="M-427 547l-28 48q102 62 216 94t239 32t239.5 -32t215.5 -94l-28 -48q-64 38 -136 61.5t-146.5 34.5t-144.5 11t-144.5 -11t-146.5 -34.5t-136 -61.5z" />
    <glyph glyph-name="uni0374" unicode="&#x374;" horiz-adv-x="262" 
d="M82 433l21 256h98l-17 -101l-37 -155h-65z" />
    <glyph glyph-name="uni0375" unicode="&#x375;" horiz-adv-x="262" 
d="M61 0l17 101l38 155h64l-21 -256h-98z" />
    <glyph glyph-name="uni037A" unicode="&#x37a;" horiz-adv-x="546" 
d="M325 -204q-46 0 -66 26.5t-20 74.5v43h74q-1 -12 -1.5 -26t-0.5 -24q0 -17 9.5 -24t22.5 -7h8.5t12.5 2l11 -57q-10 -4 -21.5 -6t-28.5 -2z" />
    <glyph glyph-name="uni037E" unicode="&#x37e;" horiz-adv-x="262" 
d="M131 339q-27 0 -47 20t-20 50q0 32 20 51.5t47 19.5q29 0 48 -19.5t19 -51.5q0 -30 -19 -50t-48 -20zM70 -176l-23 56q46 19 71 51.5t25 72.5l-7 80l42 -66q-9 -9 -20.5 -13t-24.5 -4q-26 0 -46.5 16.5t-20.5 47.5q0 29 21 46.5t48 17.5q38 0 58 -28.5t20 -79.5
q0 -68 -38 -120t-105 -77z" />
    <glyph glyph-name="tonos" unicode="&#x384;" horiz-adv-x="546" 
d="M224 565l37 194h100l6 -11l-73 -183h-70z" />
    <glyph glyph-name="dieresistonos" unicode="&#x385;" horiz-adv-x="546" 
d="M158 584q-23 0 -38 15t-15 37q0 23 15 37.5t38 14.5t37.5 -14.5t14.5 -37.5q0 -22 -14.5 -37t-37.5 -15zM398 584q-22 0 -37 15t-15 37q0 23 15 37.5t37 14.5q23 0 38 -14.5t15 -37.5q0 -22 -15 -37t-38 -15zM233 566l38 195h75l6 -11l-72 -184h-47z" />
    <glyph glyph-name="Alphatonos" unicode="&#x386;" horiz-adv-x="590" 
d="M39 0l218 655h115l217 -655h-105l-107 357q-17 54 -32.5 109t-29.5 110h-4q-14 -56 -29.5 -110.5t-32.5 -108.5l-108 -357h-102zM161 188v79h305v-79h-305zM16 426l27 234h85l6 -11l-53 -223h-65z" />
    <glyph glyph-name="anoteleia" unicode="&#x387;" horiz-adv-x="262" 
d="M131 339q-27 0 -47 20t-20 50q0 32 20 51.5t47 19.5q29 0 48 -19.5t19 -51.5q0 -30 -19 -50t-48 -20z" />
    <glyph glyph-name="Epsilontonos" unicode="&#x388;" horiz-adv-x="630" 
d="M184 0v655h386v-84h-286v-187h242v-84h-242v-216h296v-84h-396zM-10 426l27 234h85l6 -11l-53 -223h-65z" />
    <glyph glyph-name="Etatonos" unicode="&#x389;" horiz-adv-x="755" 
d="M184 0v655h100v-269h285v269h100v-655h-100v299h-285v-299h-100zM-10 426l27 234h85l6 -11l-53 -223h-65z" />
    <glyph glyph-name="Iotatonos" unicode="&#x38a;" horiz-adv-x="371" 
d="M184 0v655h100v-655h-100zM-10 426l27 234h85l6 -11l-53 -223h-65z" />
    <glyph glyph-name="Omicrontonos" unicode="&#x38c;" horiz-adv-x="758" 
d="M417 -12q-83 0 -147 41.5t-100.5 118.5t-36.5 182q0 106 36.5 181.5t100.5 115.5t147 40q85 0 149 -40t100 -115.5t36 -181.5q0 -105 -36 -182t-100 -118.5t-149 -41.5zM417 75q56 0 96.5 31.5t63 89t22.5 134.5q0 78 -22.5 133.5t-63 86t-96.5 30.5q-54 0 -95 -30.5
t-63.5 -86t-22.5 -133.5q0 -77 22.5 -134.5t63.5 -89t95 -31.5zM-10 426l27 234h85l6 -11l-53 -223h-65z" />
    <glyph glyph-name="Upsilontonos" unicode="&#x38e;" horiz-adv-x="631" 
d="M337 0v249l-196 406h106l78 -176q15 -37 29.5 -71.5t31.5 -72.5h4q16 38 32 72.5t30 71.5l78 176h104l-197 -406v-249h-100zM-10 426l27 234h85l6 -11l-53 -223h-65z" />
    <glyph glyph-name="Omegatonos" unicode="&#x38f;" horiz-adv-x="765" 
d="M123 0v81h126v4q-27 26 -52.5 64.5t-42.5 89.5t-17 114q0 91 35.5 162t99.5 111.5t149 40.5q86 0 150 -40.5t99.5 -111.5t35.5 -162q0 -63 -17 -114t-42.5 -89.5t-52.5 -64.5v-4h126v-81h-242v72q37 30 65 69t44 89.5t16 114.5q0 68 -21.5 121t-62.5 83.5t-98 30.5
t-97.5 -30.5t-62 -83.5t-21.5 -121q0 -64 16 -114.5t44 -89.5t65 -69v-72h-242zM-10 426l27 234h85l6 -11l-53 -223h-65z" />
    <glyph glyph-name="iotadieresistonos" unicode="&#x390;" horiz-adv-x="272" 
d="M183 -10q-39 0 -62 15t-33 43.5t-10 68.5v372h99q-1 -64 -3 -131t-3 -130t-1 -117q0 -21 9.5 -30.5t26.5 -9.5q7 0 14.5 1.5t15.5 4.5l13 -74q-12 -5 -27.5 -9t-38.5 -4zM6 584q-23 0 -38 15t-15 37q0 23 15 37.5t38 14.5t37.5 -14.5t14.5 -37.5q0 -22 -14.5 -37
t-37.5 -15zM246 584q-22 0 -37 15t-15 37q0 23 15 37.5t37 14.5q23 0 38 -14.5t15 -37.5q0 -22 -15 -37t-38 -15zM81 566l38 195h75l6 -11l-72 -184h-47z" />
    <glyph glyph-name="Alpha" unicode="&#x391;" horiz-adv-x="551" 
d="M0 0l218 655h115l217 -655h-105l-107 357q-17 54 -32.5 109t-29.5 110h-4q-14 -56 -29.5 -110.5t-32.5 -108.5l-108 -357h-102zM122 188v79h305v-79h-305z" />
    <glyph glyph-name="Beta" unicode="&#x392;" horiz-adv-x="592" 
d="M86 0v655h202q67 0 119 -15.5t81.5 -51t29.5 -94.5q0 -50 -24 -88.5t-69 -53.5v-4q59 -11 94 -49t35 -103q0 -67 -32 -110t-88.5 -64.5t-129.5 -21.5h-218zM186 381h90q76 0 110 27t34 73q0 52 -35.5 74t-105.5 22h-93v-196zM186 78h106q79 0 121.5 29t42.5 90
q0 56 -42 82t-122 26h-106v-227z" />
    <glyph glyph-name="Gamma" unicode="&#x393;" horiz-adv-x="504" 
d="M86 0v655h387v-84h-287v-571h-100z" />
    <glyph glyph-name="Delta" unicode="&#x2206;" horiz-adv-x="601" 
d="M31 0v60l212 595h116l211 -595v-60h-539zM138 84h323l-94 280l-66 207h-4l-65 -207z" />
    <glyph glyph-name="Delta" unicode="&#x394;" horiz-adv-x="601" 
d="M31 0v60l212 595h116l211 -595v-60h-539zM138 84h323l-94 280l-66 207h-4l-65 -207z" />
    <glyph glyph-name="Epsilon" unicode="&#x395;" horiz-adv-x="532" 
d="M86 0v655h386v-84h-286v-187h242v-84h-242v-216h296v-84h-396z" />
    <glyph glyph-name="Zeta" unicode="&#x396;" horiz-adv-x="540" 
d="M42 0v60l331 511h-301v84h425v-59l-331 -512h334v-84h-458z" />
    <glyph glyph-name="Eta" unicode="&#x397;" horiz-adv-x="657" 
d="M86 0v655h100v-269h285v269h100v-655h-100v299h-285v-299h-100z" />
    <glyph glyph-name="Theta" unicode="&#x398;" horiz-adv-x="669" 
d="M226 299v87h217v-87h-217zM335 -12q-84 0 -148 41.5t-100.5 118.5t-36.5 182q0 106 36.5 181.5t100.5 115.5t148 40q83 0 147.5 -40t100.5 -115.5t36 -181.5q0 -105 -36 -182t-100.5 -118.5t-147.5 -41.5zM335 75q55 0 95.5 31.5t63 88.5t22.5 135t-22.5 134t-63 86
t-95.5 30t-96 -30t-63.5 -86t-22.5 -134t22.5 -135t63.5 -88.5t96 -31.5z" />
    <glyph glyph-name="Iota" unicode="&#x399;" horiz-adv-x="273" 
d="M86 0v655h100v-655h-100z" />
    <glyph glyph-name="Kappa" unicode="&#x39a;" horiz-adv-x="588" 
d="M86 0v655h100v-313h3l253 313h112l-204 -252l236 -403h-110l-187 324l-103 -125v-199h-100z" />
    <glyph glyph-name="Lambda" unicode="&#x39b;" horiz-adv-x="526" 
d="M-2 0l206 655h117l206 -655h-105l-99 342q-16 57 -29.5 107.5t-31.5 107.5h-4q-17 -57 -30 -107.5t-30 -107.5l-98 -342h-102z" />
    <glyph glyph-name="Mu" unicode="&#x39c;" horiz-adv-x="736" 
d="M86 0v655h122l118 -335q12 -32 22 -64t19 -69h4q10 37 19.5 69t19.5 64l118 335h122v-655h-93v329q0 30 2 68t5.5 76t7.5 67h-4l-52 -162l-115 -315h-69l-115 315l-50 162h-4q4 -29 7 -67t5 -76t2 -68v-329h-91z" />
    <glyph glyph-name="Nu" unicode="&#x39d;" horiz-adv-x="651" 
d="M86 0v655h109l215 -384q18 -33 35 -70t33 -74h4q-4 52 -8 107t-4 108v313h95v-655h-109l-215 384q-18 33 -35.5 70t-33.5 74h-4q5 -50 9.5 -104.5t4.5 -108.5v-315h-96z" />
    <glyph glyph-name="Xi" unicode="&#x39e;" horiz-adv-x="543" 
d="M50 0v84h443v-84h-443zM123 300v84h297v-84h-297zM60 571v84h423v-84h-423z" />
    <glyph glyph-name="Omicron" unicode="&#x39f;" horiz-adv-x="669" 
d="M334 -12q-83 0 -147 41.5t-100.5 118.5t-36.5 182q0 106 36.5 181.5t100.5 115.5t147 40q85 0 149 -40t100 -115.5t36 -181.5q0 -105 -36 -182t-100 -118.5t-149 -41.5zM334 75q56 0 96.5 31.5t63 89t22.5 134.5q0 78 -22.5 133.5t-63 86t-96.5 30.5q-54 0 -95 -30.5
t-63.5 -86t-22.5 -133.5q0 -77 22.5 -134.5t63.5 -89t95 -31.5z" />
    <glyph glyph-name="Pi" unicode="&#x3a0;" horiz-adv-x="649" 
d="M86 0v655h477v-655h-100v571h-277v-571h-100z" />
    <glyph glyph-name="Rho" unicode="&#x3a1;" horiz-adv-x="574" 
d="M86 0v655h197q73 0 129 -18.5t88.5 -62t32.5 -116.5q0 -71 -31.5 -117t-87.5 -68.5t-127 -22.5h-101v-250h-100zM186 331h91q80 0 118.5 31t38.5 96q0 66 -40.5 91.5t-120.5 25.5h-87v-244z" />
    <glyph glyph-name="Sigma" unicode="&#x3a3;" horiz-adv-x="541" 
d="M42 0v60l220 272l-216 264v59h429v-84h-303l191 -237l-195 -250h337v-84h-463z" />
    <glyph glyph-name="Tau" unicode="&#x3a4;" horiz-adv-x="541" 
d="M221 0v571h-194v84h487v-84h-194v-571h-99z" />
    <glyph glyph-name="Upsilon" unicode="&#x3a5;" horiz-adv-x="488" 
d="M194 0v249l-196 406h106l78 -176q15 -37 29.5 -71.5t31.5 -72.5h4q16 38 32 72.5t30 71.5l78 176h104l-197 -406v-249h-100z" />
    <glyph glyph-name="Phi" unicode="&#x3a6;" horiz-adv-x="730" 
d="M347 69q-90 0 -157.5 31t-104.5 89.5t-37 140.5t37 139.5t104.5 87.5t157.5 30h36q89 0 156.5 -30t105 -87.5t37.5 -139.5t-37.5 -140.5t-105 -89.5t-156.5 -31h-36zM342 146h46q60 0 104.5 23t69 64.5t24.5 96.5t-24.5 96t-69 62.5t-104.5 21.5h-46q-60 0 -104.5 -21.5
t-69 -62.5t-24.5 -96t24.5 -96.5t69 -64.5t104.5 -23zM320 -22v699h89v-699h-89z" />
    <glyph glyph-name="Chi" unicode="&#x3a7;" horiz-adv-x="527" 
d="M14 0l189 338l-177 317h111l81 -156q12 -22 23.5 -45.5t26.5 -52.5h4q13 29 23.5 52.5t21.5 45.5l78 156h106l-176 -322l188 -333h-110l-89 166q-12 25 -25.5 50t-28.5 55h-4q-13 -30 -25.5 -55t-24.5 -50l-86 -166h-106z" />
    <glyph glyph-name="Psi" unicode="&#x3a8;" horiz-adv-x="712" 
d="M335 238q-85 0 -146.5 26.5t-95 83t-33.5 146.5v161h98v-156q0 -66 19.5 -105.5t58 -58t95.5 -18.5h51q57 0 95 18.5t57.5 58t19.5 105.5v156h98v-161q0 -90 -33 -146.5t-95 -83t-147 -26.5h-42zM309 0v655h94v-655h-94z" />
    <glyph glyph-name="Omega" unicode="&#x2126;" horiz-adv-x="687" 
d="M45 0v81h126v4q-27 26 -52.5 64.5t-42.5 89.5t-17 114q0 91 35.5 162t99.5 111.5t149 40.5q86 0 150 -40.5t99.5 -111.5t35.5 -162q0 -63 -17 -114t-42.5 -89.5t-52.5 -64.5v-4h126v-81h-242v72q37 30 65 69t44 89.5t16 114.5q0 68 -21.5 121t-62.5 83.5t-98 30.5
t-97.5 -30.5t-62 -83.5t-21.5 -121q0 -64 16 -114.5t44 -89.5t65 -69v-72h-242z" />
    <glyph glyph-name="Omega" unicode="&#x3a9;" horiz-adv-x="687" 
d="M45 0v81h126v4q-27 26 -52.5 64.5t-42.5 89.5t-17 114q0 91 35.5 162t99.5 111.5t149 40.5q86 0 150 -40.5t99.5 -111.5t35.5 -162q0 -63 -17 -114t-42.5 -89.5t-52.5 -64.5v-4h126v-81h-242v72q37 30 65 69t44 89.5t16 114.5q0 68 -21.5 121t-62.5 83.5t-98 30.5
t-97.5 -30.5t-62 -83.5t-21.5 -121q0 -64 16 -114.5t44 -89.5t65 -69v-72h-242z" />
    <glyph glyph-name="Iotadieresis" unicode="&#x3aa;" horiz-adv-x="273" 
d="M86 0v655h100v-655h-100zM32 712q-23 0 -38.5 15t-15.5 39t15.5 39t38.5 15q24 0 39.5 -15t15.5 -39t-15.5 -39t-39.5 -15zM242 712q-23 0 -39 15t-16 39t16 39t39 15q24 0 39 -15t15 -39t-15 -39t-39 -15z" />
    <glyph glyph-name="Upsilondieresis" unicode="&#x3ab;" horiz-adv-x="488" 
d="M194 0v249l-196 406h106l78 -176q15 -37 29.5 -71.5t31.5 -72.5h4q16 38 32 72.5t30 71.5l78 176h104l-197 -406v-249h-100zM139 712q-23 0 -38.5 15t-15.5 39t15.5 39t38.5 15q24 0 39.5 -15t15.5 -39t-15.5 -39t-39.5 -15zM349 712q-23 0 -39 15t-16 39t16 39t39 15
q24 0 39 -15t15 -39t-15 -39t-39 -15z" />
    </font>
</defs>
</svg>
