<?xml version="1.0" standalone="no"?>
<!DOCTYPE svg PUBLIC "-//W3C//DTD SVG 1.1//EN" "http://www.w3.org/Graphics/SVG/1.1/DTD/svg11.dtd" >
<svg xmlns="http://www.w3.org/2000/svg" xmlns:xlink="http://www.w3.org/1999/xlink" version="1.1">
<metadata>
Created by FontForge 20170731 at Fri Sep 17 12:26:27 2021
 By Aleksey,,,
(c) 2010 - 2021 Adobe (http://www.adobe.com/), with Reserved Font Name `Source'
</metadata>
<defs>
<font id="SourceSans3-Light" horiz-adv-x="0" >
  <font-face 
    font-family="Source Sans 3 Light"
    font-weight="300"
    font-stretch="normal"
    units-per-em="1000"
    panose-1="2 11 3 3 3 4 3 2 2 4"
    ascent="800"
    descent="-200"
    x-height="480"
    cap-height="659"
    bbox="-597 -400 2160 1000"
    underline-thickness="50"
    underline-position="-125"
    unicode-range="U+0021-1F916"
  />
<missing-glyph horiz-adv-x="632" 
d="M94 0v660h444v-660h-444zM158 39h312l-93 164l-59 105h-4l-61 -105zM314 372h4l53 92l86 155h-284l87 -155zM139 84l147 256l-147 260v-516zM491 84v516l-145 -260z" />
    <glyph glyph-name="uniFB00" unicode="ff" horiz-adv-x="530" 
d="M99 0v569q0 50 15.5 84t44.5 51t70 17q19 0 40.5 -4.5t40.5 -13.5l-12 -36q-18 9 -34.5 12.5t-34.5 3.5q-42 0 -64 -30.5t-22 -86.5v-566h-44zM366 0v587q0 48 14 80t40 48t64 16q17 0 35.5 -4t34.5 -12l-12 -36q-14 8 -28.5 11t-28.5 3q-38 0 -56.5 -28.5t-18.5 -80.5
v-584h-44zM28 442v34l71 4h422v-38h-493z" />
    <glyph glyph-name="f_t.liga" unicode="ft" horiz-adv-x="539" 
d="M99 0v587q0 48 14 80t40.5 48t64.5 16q17 0 35.5 -4t34.5 -12l-12 -36q-15 8 -29.5 11t-28.5 3q-38 0 -56.5 -28.5t-18.5 -80.5v-584h-44zM449 -12q-69 0 -94 40.5t-25 104.5v309h-302v34l71 4h232l6 139h37v-139h140v-38h-140v-313q0 -45 16.5 -73.5t65.5 -28.5
q14 0 31 4.5t29 10.5l12 -36q-21 -7 -42.5 -12.5t-36.5 -5.5z" />
    <glyph glyph-name="f_f_t.liga" unicode="fft" horiz-adv-x="805" 
d="M99 0v569q0 50 15.5 84t44.5 51t70 17q19 0 40.5 -4.5t40.5 -13.5l-12 -36q-18 9 -34.5 12.5t-34.5 3.5q-42 0 -64 -30.5t-22 -86.5v-566h-44zM366 0v587q0 48 14 80t40 48t64 16q17 0 35.5 -4t34.5 -12l-12 -36q-14 8 -28.5 11t-28.5 3q-38 0 -56.5 -28.5t-18.5 -80.5
v-584h-44zM716 -12q-69 0 -94 40.5t-25 104.5v309h-569v34l71 4h499l6 139h37v-139h139v-38h-139v-313q0 -45 16.5 -73.5t65.5 -28.5q14 0 30.5 4.5t29.5 10.5l12 -36q-21 -7 -42.5 -12.5t-36.5 -5.5z" />
    <glyph glyph-name=".notdef" horiz-adv-x="632" 
d="M94 0v660h444v-660h-444zM158 39h312l-93 164l-59 105h-4l-61 -105zM314 372h4l53 92l86 155h-284l87 -155zM139 84l147 256l-147 260v-516zM491 84v516l-145 -260z" />
    <glyph glyph-name=".null" 
 />
    <glyph glyph-name="nonmarkingreturn" horiz-adv-x="333" 
 />
    <glyph glyph-name="uni00A0" unicode="&#xa0;" horiz-adv-x="200" 
 />
    <glyph glyph-name="uni00A0" unicode=" " horiz-adv-x="200" 
 />
    <glyph glyph-name="exclam" unicode="!" horiz-adv-x="259" 
d="M113 179l-6 420v71h46l-1 -71l-6 -420h-33zM130 -12q-16 0 -29.5 12t-13.5 33q0 22 13.5 34t29.5 12q17 0 29.5 -12t12.5 -34q0 -21 -12.5 -33t-29.5 -12z" />
    <glyph glyph-name="quotedbl" unicode="&#x22;" horiz-adv-x="360" 
d="M92 477l-8 147l-1 69h51v-69l-9 -147h-33zM233 477l-8 147l-1 69h51v-69l-9 -147h-33z" />
    <glyph glyph-name="numbersign" unicode="#" horiz-adv-x="479" 
d="M92 0l26 213h-83v38h88l21 168h-89v38h92l25 193h37l-25 -193h147l26 193h36l-25 -193h81v-38h-84l-21 -168h85v-38h-90l-26 -213h-36l25 213h-147l-26 -213h-37zM159 251h148l21 168h-148z" />
    <glyph glyph-name="dollar" unicode="$" horiz-adv-x="479" 
d="M244 -12q-58 0 -107 22.5t-78 57.5l24 27q28 -28 68.5 -48t92.5 -20q63 0 96.5 37t33.5 94q0 42 -21 70.5t-54 50.5t-69.5 42t-69.5 43.5t-54 54.5t-21 76q0 46 21 81.5t58 55t83 19.5q55 0 92.5 -20t62.5 -53l-26 -24q-23 28 -53.5 43t-76.5 15q-52 0 -84 -33t-32 -82
q0 -37 21 -64t54 -47.5t69.5 -40.5t69.5 -44t54 -57.5t21 -81.5q0 -54 -23.5 -93t-63 -60t-88.5 -21zM226 -110v109h39v-109h-39zM226 630v119h39v-119h-39z" />
    <glyph glyph-name="percent" unicode="%" horiz-adv-x="805" 
d="M181 257q-44 0 -75.5 24t-48.5 70.5t-17 113.5q0 99 38 152.5t103 53.5q66 0 103.5 -53.5t37.5 -152.5q0 -67 -17 -113.5t-49 -70.5t-75 -24zM181 290q47 0 74.5 46t27.5 129q0 84 -27.5 128.5t-74.5 44.5q-46 0 -74 -44.5t-28 -128.5q0 -83 28 -129t74 -46zM198 -12
l368 683h38l-367 -683h-39zM624 -12q-44 0 -75.5 24t-48.5 70.5t-17 113.5q0 99 38 152.5t103 53.5q66 0 103.5 -53.5t37.5 -152.5q0 -67 -17 -113.5t-49 -70.5t-75 -24zM624 21q47 0 74.5 46t27.5 129q0 84 -27.5 128.5t-74.5 44.5q-46 0 -74 -44.5t-28 -128.5
q0 -83 28 -129t74 -46z" />
    <glyph glyph-name="ampersand" unicode="&#x26;" horiz-adv-x="575" 
d="M227 -12q-52 0 -95.5 21.5t-69.5 62t-26 95.5q0 46 22 82t55.5 66t71.5 56.5t71.5 53.5t55 57t21.5 67q0 32 -16 59t-56 27q-43 0 -68 -32t-25 -77q0 -51 22 -107t58.5 -111.5t81.5 -105.5t91 -88q38 -33 74.5 -54.5t66.5 -32.5l-15 -39q-33 12 -72 35t-81 58
q-49 43 -96.5 96.5t-86.5 113.5t-61.5 119.5t-22.5 113.5q0 42 17 75.5t48 52.5t71 19q53 0 81.5 -34t28.5 -86q0 -41 -20.5 -74.5t-54 -62.5t-71 -56t-71 -55.5t-54.5 -61t-21 -71.5q0 -44 20.5 -76t54.5 -50t74 -18q46 0 86 24t73 60q42 47 71.5 106.5t47.5 128.5h43
q-21 -73 -53 -139.5t-77 -119.5q-38 -43 -85 -70.5t-109 -27.5z" />
    <glyph glyph-name="quotesingle" unicode="'" horiz-adv-x="219" 
d="M92 477l-8 147l-1 69h51v-69l-9 -147h-33z" />
    <glyph glyph-name="parenleft" unicode="(" horiz-adv-x="279" 
d="M220 -175q-61 100 -96.5 210.5t-35.5 242.5t35.5 242.5t96.5 210.5l27 -16q-60 -94 -90 -206.5t-30 -230.5t30 -230t90 -207z" />
    <glyph glyph-name="parenright" unicode=")" horiz-adv-x="279" 
d="M59 -175l-27 16q60 95 90 207t30 230t-30 230.5t-90 206.5l27 16q62 -100 97 -210.5t35 -242.5t-35 -242.5t-97 -210.5z" />
    <glyph glyph-name="asterisk" unicode="*" horiz-adv-x="395" 
d="M132 462l-27 20l55 88l-90 36l10 30l94 -26l7 102h32l7 -100l95 24l10 -30l-91 -36l55 -88l-27 -20l-64 83z" />
    <glyph glyph-name="plus" unicode="+" horiz-adv-x="479" 
d="M219 110v201h-185v38h185v201h41v-201h185v-38h-185v-201h-41z" />
    <glyph glyph-name="comma" unicode="," horiz-adv-x="219" 
d="M62 -155l-14 30q35 18 56 50t21 74l-13 60l36 -47q-7 -10 -16 -13.5t-19 -3.5q-17 0 -29.5 10.5t-12.5 31.5t13.5 31.5t29.5 10.5q23 0 37 -19t14 -52q0 -55 -29 -97t-74 -66z" />
    <glyph glyph-name="uni2011" unicode="&#x2011;" horiz-adv-x="299" 
d="M40 230v39h220v-39h-220z" />
    <glyph glyph-name="uni2011" unicode="&#x2010;" horiz-adv-x="299" 
d="M40 230v39h220v-39h-220z" />
    <glyph glyph-name="uni2011" unicode="&#xad;" horiz-adv-x="299" 
d="M40 230v39h220v-39h-220z" />
    <glyph glyph-name="uni2011" unicode="-" horiz-adv-x="299" 
d="M40 230v39h220v-39h-220z" />
    <glyph glyph-name="period" unicode="." horiz-adv-x="219" 
d="M110 -12q-16 0 -29.5 12t-13.5 33q0 22 13.5 34t29.5 12q17 0 29.5 -12t12.5 -34q0 -21 -12.5 -33t-29.5 -12z" />
    <glyph glyph-name="slash" unicode="/" horiz-adv-x="357" 
d="M9 -160l305 870h38l-305 -870h-38z" />
    <glyph glyph-name="zero" unicode="0" horiz-adv-x="479" 
d="M239 -12q-91 0 -141 87t-50 247q0 159 50 244t141 85q92 0 141.5 -85t49.5 -244q0 -160 -49.5 -247t-141.5 -87zM239 26q45 0 77.5 33t50.5 99t18 164q0 97 -18 162t-50.5 97t-77.5 32q-44 0 -76.5 -32t-51 -97t-18.5 -162q0 -98 18.5 -164t51 -99t76.5 -33z" />
    <glyph glyph-name="one" unicode="1" horiz-adv-x="479" 
d="M84 0v39h150v530h-114v30q39 7 69.5 17t53.5 23h36v-600h139v-39h-334z" />
    <glyph glyph-name="two" unicode="2" horiz-adv-x="479" 
d="M41 0v27q105 106 175 185t105 141.5t35 117.5q0 60 -33 101t-106 41q-44 0 -82 -23.5t-67 -60.5l-29 27q36 41 80 68t102 27q57 0 97.5 -22t61.5 -62.5t21 -94.5q0 -64 -36.5 -129t-103.5 -139.5t-157 -168.5q27 2 54.5 3.5t53.5 1.5h221v-40h-392z" />
    <glyph glyph-name="three" unicode="3" horiz-adv-x="479" 
d="M232 -12q-51 0 -89 13.5t-66 34t-48 42.5l26 31q29 -31 70 -56.5t107 -25.5q65 0 107 39t42 102q0 44 -22 77t-71.5 52t-129.5 19v39q74 0 117.5 19t63 50t19.5 70q0 54 -35 86.5t-94 32.5q-44 0 -81.5 -20.5t-65.5 -49.5l-26 30q33 33 75.5 55.5t97.5 22.5q50 0 89 -18
t62.5 -52.5t23.5 -83.5q0 -62 -34.5 -101t-87.5 -57v-4q39 -8 72 -30t53 -56.5t20 -79.5q0 -56 -26 -96.5t-70 -62.5t-99 -22z" />
    <glyph glyph-name="four" unicode="4" horiz-adv-x="479" 
d="M310 0v463q0 22 1.5 55l2.5 55h-4q-12 -20 -25 -39t-27 -41l-188 -264h378v-38h-432v26l297 422h40v-639h-43z" />
    <glyph glyph-name="five" unicode="5" horiz-adv-x="479" 
d="M227 -12q-51 0 -88.5 13t-65 33t-47.5 40l25 31q29 -30 69 -54t106 -24q43 0 79 21.5t58 60.5t22 90q0 77 -42.5 121t-113.5 44q-36 0 -63 -11.5t-56 -31.5l-31 19l23 299h295v-39h-255l-20 -231q25 15 52 24.5t62 9.5q54 0 98 -21.5t70.5 -66t26.5 -114.5
q0 -68 -29.5 -116t-76.5 -72.5t-98 -24.5z" />
    <glyph glyph-name="six" unicode="6" horiz-adv-x="479" 
d="M261 -12q-48 0 -86.5 20t-65.5 58t-42 94.5t-15 129.5q0 100 19.5 169.5t52.5 111.5t75 61t88 19q45 0 78 -17t57 -45l-27 -30q-21 26 -49 39.5t-59 13.5q-51 0 -94.5 -30.5t-69.5 -101t-26 -190.5q0 -78 17.5 -137.5t54 -93t93.5 -33.5q37 0 66.5 21.5t46 58t16.5 82.5
t-14.5 82.5t-44.5 57t-79 20.5q-35 0 -77.5 -23t-82.5 -80v47q33 43 76 68.5t89 25.5q56 0 96 -23t61 -67t21 -108q0 -58 -24.5 -103t-64 -71t-86.5 -26z" />
    <glyph glyph-name="seven" unicode="7" horiz-adv-x="479" 
d="M183 0q5 97 17.5 177.5t36.5 151.5t60 137t86 134h-339v39h393v-26q-58 -76 -96.5 -146.5t-61 -142.5t-33.5 -151t-15 -173h-48z" />
    <glyph glyph-name="eight" unicode="8" horiz-adv-x="479" 
d="M243 -12q-59 0 -104.5 23t-72 63t-26.5 90q0 43 19.5 78t49 60.5t59.5 41.5v4q-35 24 -63.5 60t-28.5 87q0 46 22.5 81.5t60.5 55t84 19.5q82 0 127.5 -47.5t45.5 -119.5q0 -35 -15 -66.5t-36 -56t-40 -39.5v-4q28 -17 53.5 -38.5t42 -51.5t16.5 -73q0 -46 -24 -84
t-68 -60.5t-102 -22.5zM290 335q41 33 62.5 70t21.5 78q0 36 -15.5 66t-44.5 47.5t-71 17.5q-54 0 -88.5 -33.5t-34.5 -85.5q0 -45 25 -74.5t64 -49.5t81 -36zM243 25q45 0 78.5 17.5t52 47t18.5 66.5q0 49 -28 80t-73 51.5t-94 39.5q-48 -28 -80.5 -68t-32.5 -93
q0 -40 20.5 -71.5t56.5 -50.5t82 -19z" />
    <glyph glyph-name="nine" unicode="9" horiz-adv-x="479" 
d="M191 -12q-44 0 -77.5 17.5t-57.5 44.5l27 30q21 -26 49.5 -39.5t59.5 -13.5q51 0 94 30.5t69.5 101t26.5 191.5q0 78 -17.5 137.5t-54.5 92.5t-94 33q-37 0 -66 -21.5t-46 -58t-17 -81.5q0 -47 14.5 -83t45 -57t79.5 -21q34 0 77 24t82 79l1 -47q-33 -42 -76.5 -67.5
t-89.5 -25.5q-55 0 -95 22.5t-61 66.5t-21 109q0 58 24 103t63.5 70.5t87.5 25.5t86.5 -19.5t65.5 -58t41.5 -95t14.5 -128.5q0 -101 -19 -170.5t-52 -111.5t-75 -61t-89 -19z" />
    <glyph glyph-name="colon" unicode=":" horiz-adv-x="219" 
d="M110 370q-16 0 -29.5 12t-13.5 33q0 22 13.5 34t29.5 12q17 0 29.5 -12t12.5 -34q0 -21 -12.5 -33t-29.5 -12zM110 -12q-16 0 -29.5 12t-13.5 33q0 22 13.5 34t29.5 12q17 0 29.5 -12t12.5 -34q0 -21 -12.5 -33t-29.5 -12z" />
    <glyph glyph-name="semicolon" unicode=";" horiz-adv-x="219" 
d="M110 370q-16 0 -29.5 12t-13.5 33q0 22 13.5 34t29.5 12q17 0 29.5 -12t12.5 -34q0 -21 -12.5 -33t-29.5 -12zM62 -155l-14 30q35 18 56 50t21 74l-13 60l36 -47q-7 -10 -16 -13.5t-19 -3.5q-17 0 -29.5 10.5t-12.5 31.5t13.5 31.5t29.5 10.5q23 0 37 -19t14 -52
q0 -55 -29 -97t-74 -66z" />
    <glyph glyph-name="less" unicode="&#x3c;" horiz-adv-x="479" 
d="M445 146l-411 164v44l411 164v-43l-232 -90l-133 -51v-4l133 -51l232 -90v-43z" />
    <glyph glyph-name="equal" unicode="=" horiz-adv-x="479" 
d="M34 413v38h411v-38h-411zM34 209v38h411v-38h-411z" />
    <glyph glyph-name="greater" unicode="&#x3e;" horiz-adv-x="479" 
d="M34 146v43l232 90l133 51v4l-133 51l-232 90v43l411 -164v-44z" />
    <glyph glyph-name="question" unicode="?" horiz-adv-x="402" 
d="M163 179q-7 50 5.5 88.5t35 70.5t46 61t40 59.5t16.5 67.5q0 31 -12 58t-37 43t-64 16q-36 0 -70 -16.5t-59 -47.5l-27 25q29 33 68.5 55.5t91.5 22.5q48 0 83 -20t53.5 -54.5t18.5 -78.5q0 -40 -17 -74t-41 -64.5t-47 -62t-36.5 -67.5t-7.5 -82h-40zM186 -12
q-16 0 -29 12t-13 33q0 22 13 34t29 12q17 0 30 -12t13 -34q0 -21 -13 -33t-30 -12z" />
    <glyph glyph-name="at" unicode="@" horiz-adv-x="814" 
d="M388 -146q-73 0 -134.5 23.5t-106.5 68t-70 109.5t-25 147q0 98 32 177.5t87 136t127 87t151 30.5q97 0 167 -40t108.5 -111t38.5 -166q0 -64 -17 -112.5t-44 -82t-59.5 -50t-63.5 -16.5q-40 0 -67 19t-30 58h-2q-26 -29 -56.5 -50t-65.5 -21q-47 0 -81 35t-34 102
q0 36 12.5 76t36.5 73.5t59 54.5t79 21q27 0 47.5 -12t35.5 -36h2l9 40h34l-36 -189q-16 -68 -1 -101t61 -33q31 0 64 26t55 75.5t22 119.5q0 64 -19 116.5t-55 89t-87.5 56.5t-115.5 20q-68 0 -131.5 -27.5t-114 -78.5t-79.5 -123t-29 -161q0 -73 21.5 -130.5t61.5 -98.5
t94.5 -62.5t121.5 -21.5q49 0 90 13.5t77 34.5l17 -32q-43 -27 -89.5 -40.5t-97.5 -13.5zM364 98q24 0 51 16t57 51l31 173q-18 28 -34.5 38t-39.5 10q-45 0 -77.5 -28.5t-50 -71.5t-17.5 -85q0 -57 23.5 -80t56.5 -23z" />
    <glyph glyph-name="A" unicode="A" horiz-adv-x="526" 
d="M8 0l232 659h46l232 -659h-48l-132 388q-20 59 -38 113.5t-35 114.5h-4q-17 -60 -35 -114.5t-38 -113.5l-134 -388h-46zM114 226v39h295v-39h-295z" />
    <glyph glyph-name="B" unicode="B" horiz-adv-x="578" 
d="M97 0v659h178q67 0 115.5 -17t75.5 -52.5t27 -90.5q0 -52 -26 -90.5t-76 -53.5v-4q64 -10 103 -50t39 -108q0 -64 -30 -107t-85 -64.5t-130 -21.5h-191zM143 369h114q101 0 145.5 34t44.5 91q0 70 -47 98.5t-138 28.5h-119v-252zM143 38h133q99 0 155.5 37t56.5 116
q0 72 -55 106t-157 34h-133v-293z" />
    <glyph glyph-name="C" unicode="C" horiz-adv-x="564" 
d="M331 -12q-81 0 -143.5 42t-97.5 119t-35 182q0 78 20 141t57.5 107.5t89 68t114.5 23.5q57 0 101.5 -23t70.5 -56l-27 -28q-27 31 -63.5 48t-80.5 17q-72 0 -124.5 -36.5t-81 -103t-28.5 -158.5q0 -91 28 -159t80 -105t123 -37q51 0 91 19t76 59l25 -26
q-37 -43 -83.5 -68.5t-111.5 -25.5z" />
    <glyph glyph-name="D" unicode="D" horiz-adv-x="604" 
d="M97 0v659h153q101 0 167.5 -40t99 -114t32.5 -173q0 -100 -32.5 -174.5t-98.5 -116t-167 -41.5h-154zM143 39h102q89 0 145.5 37.5t83.5 103.5t27 152t-27 151t-83.5 101t-145.5 36h-102v-581z" />
    <glyph glyph-name="E" unicode="E" horiz-adv-x="515" 
d="M97 0v659h361v-40h-315v-249h264v-40h-264v-290h325v-40h-371z" />
    <glyph glyph-name="F" unicode="F" horiz-adv-x="477" 
d="M97 0v659h359v-40h-313v-262h265v-40h-265v-317h-46z" />
    <glyph glyph-name="G" unicode="G" horiz-adv-x="605" 
d="M338 -12q-85 0 -148.5 42t-99 119t-35.5 182q0 78 21 140.5t59.5 107.5t92 68.5t118.5 23.5q67 0 110.5 -25.5t69.5 -53.5l-27 -30q-25 28 -61.5 47.5t-90.5 19.5q-76 0 -130.5 -36.5t-84 -103t-29.5 -158.5q0 -91 28.5 -159t81.5 -105t128 -37q45 0 84.5 13t63.5 37v205
h-158v39h202v-261q-31 -33 -80.5 -54t-114.5 -21z" />
    <glyph glyph-name="H" unicode="H" horiz-adv-x="639" 
d="M97 0v659h46v-289h353v289h46v-659h-46v330h-353v-330h-46z" />
    <glyph glyph-name="I" unicode="I" horiz-adv-x="240" 
d="M97 0v659h46v-659h-46z" />
    <glyph glyph-name="J" unicode="J" horiz-adv-x="462" 
d="M202 -12q-54 0 -95 25t-66 72l34 22q25 -41 55.5 -59t71.5 -18q61 0 90 37t29 118v474h46v-479q0 -54 -16.5 -97t-52.5 -69t-96 -26z" />
    <glyph glyph-name="K" unicode="K" horiz-adv-x="558" 
d="M97 0v659h46v-366h2l319 366h55l-210 -244l239 -415h-53l-218 380l-134 -153v-227h-46z" />
    <glyph glyph-name="L" unicode="L" horiz-adv-x="467" 
d="M97 0v659h46v-619h304v-40h-350z" />
    <glyph glyph-name="M" unicode="M" horiz-adv-x="706" 
d="M97 0v659h67l137 -387l26 -72t25 -74h4q13 38 25 74l24 72l137 387h67v-659h-45v433q0 27 1 58t2.5 63t2.5 59h-4l-51 -149l-142 -392h-41l-143 392l-51 149h-4q1 -27 2.5 -59t2.5 -63t1 -58v-433h-43z" />
    <glyph glyph-name="N" unicode="N" horiz-adv-x="636" 
d="M97 0v659h50l276 -463q19 -33 38 -66.5t36 -66.5h4q-1 48 -3.5 96t-2.5 96v404h44v-659h-50l-276 463q-19 33 -38 67t-36 66h-4l4 -92t2 -95v-409h-44z" />
    <glyph glyph-name="O" unicode="O" horiz-adv-x="652" 
d="M326 -12q-79 0 -140 42.5t-96 119.5t-35 182q0 104 35 180.5t96 117.5t140 41t140.5 -41t96.5 -117.5t35 -180.5q0 -105 -35 -182t-96.5 -119.5t-140.5 -42.5zM326 30q67 0 117 37.5t78 105t28 159.5q0 91 -28 157.5t-78 103t-117 36.5t-117 -36.5t-78 -103t-28 -157.5
q0 -92 28 -159.5t78 -105t117 -37.5z" />
    <glyph glyph-name="P" unicode="P" horiz-adv-x="549" 
d="M97 0v659h166q75 0 128 -17.5t82 -58t29 -108.5q0 -64 -28 -106.5t-80.5 -64t-126.5 -21.5h-124v-283h-46zM143 322h113q101 0 150 36.5t49 116.5q0 83 -50.5 114t-152.5 31h-109v-298z" />
    <glyph glyph-name="Q" unicode="Q" horiz-adv-x="652" 
d="M326 -12q-79 0 -140 42.5t-96 119.5t-35 182q0 104 35 180.5t96 117.5t140 41t140.5 -41t96.5 -117.5t35 -180.5q0 -105 -35 -182t-96.5 -119.5t-140.5 -42.5zM326 27q67 0 117 38t78 106.5t28 160.5q0 91 -28 157.5t-78 103t-117 36.5t-117 -36.5t-78 -103t-28 -157.5
q0 -92 28 -160.5t78 -106.5t117 -38zM519 -156q-87 0 -143.5 45.5t-79.5 111.5l50 1q14 -37 39 -63t60 -39t78 -13q23 0 38.5 2.5t28.5 5.5l10 -37q-13 -5 -34.5 -9.5t-46.5 -4.5z" />
    <glyph glyph-name="R" unicode="R" horiz-adv-x="544" 
d="M97 0v659h189q65 0 113.5 -17t75.5 -55.5t27 -101.5q0 -60 -27 -100.5t-75.5 -61t-113.5 -20.5h-143v-303h-46zM143 341h131q88 0 134.5 35.5t46.5 108.5q0 74 -46.5 104.5t-134.5 30.5h-131v-279zM462 0l-187 316l44 13l196 -329h-53z" />
    <glyph glyph-name="S" unicode="S" horiz-adv-x="521" 
d="M269 -12q-72 0 -127.5 28t-95.5 71l29 30q35 -40 85.5 -63.5t108.5 -23.5q76 0 120 36.5t44 95.5q0 41 -16 66t-43 41t-59 31l-100 45q-30 13 -60.5 33t-52 51.5t-21.5 79.5t25 84.5t68 57t99 20.5q60 0 107 -23t76 -55l-25 -30q-30 30 -69.5 48t-88.5 18
q-65 0 -105.5 -32t-40.5 -86q0 -38 18.5 -62t45.5 -39t50 -26l100 -44q38 -17 70 -38.5t50.5 -53.5t18.5 -83q0 -50 -25.5 -90.5t-73 -63.5t-112.5 -23z" />
    <glyph glyph-name="T" unicode="T" horiz-adv-x="524" 
d="M239 0v619h-210v40h466v-40h-210v-619h-46z" />
    <glyph glyph-name="U" unicode="U" horiz-adv-x="634" 
d="M316 -12q-42 0 -82 12.5t-71 42t-49.5 81t-18.5 128.5v407h46v-402q0 -87 24.5 -137t64.5 -70t86 -20q48 0 89 20t66 70t25 137v402h43v-407q0 -77 -18.5 -128.5t-50.5 -81t-71.5 -42t-82.5 -12.5z" />
    <glyph glyph-name="V" unicode="V" horiz-adv-x="491" 
d="M218 0l-214 659h49l118 -385q13 -41 24 -76t22 -69.5t24 -74.5h4q12 40 23 74.5t22 69.5t24 76l126 385h47l-220 -659h-49z" />
    <glyph glyph-name="W" unicode="W" horiz-adv-x="770" 
d="M176 0l-148 659h49l81 -388q11 -54 22.5 -108t22.5 -108h4q11 54 24 108l26 108l104 388h49l101 -388l26 -108l26 -108h4q11 54 21 108t22 108l84 388h46l-149 -659h-52l-118 452q-8 39 -17 74.5t-17 75.5h-4q-8 -40 -17.5 -75.5t-18.5 -74.5l-119 -452h-52z" />
    <glyph glyph-name="X" unicode="X" horiz-adv-x="482" 
d="M17 0l198 341l-184 318h50l108 -194q14 -22 26 -42.5t28 -47.5h4q14 27 25 47.5t24 42.5l108 194h47l-184 -320l198 -339h-50l-115 202q-13 25 -28 50l-33 55h-4q-15 -30 -28.5 -55t-27.5 -50l-115 -202h-47z" />
    <glyph glyph-name="Y" unicode="Y" horiz-adv-x="447" 
d="M200 0v267l-197 392h49l100 -206q17 -36 34 -71t35 -72h4q20 37 38 72t34 71l100 206h47l-198 -392v-267h-46z" />
    <glyph glyph-name="Z" unicode="Z" horiz-adv-x="538" 
d="M50 0v27l379 592h-346v40h404v-27l-380 -592h383v-40h-440z" />
    <glyph glyph-name="bracketleft" unicode="[" horiz-adv-x="279" 
d="M98 -152v860h160v-29h-125v-802h125v-29h-160z" />
    <glyph glyph-name="backslash" unicode="\" horiz-adv-x="357" 
d="M311 -160l-306 870h38l306 -870h-38z" />
    <glyph glyph-name="bracketright" unicode="]" horiz-adv-x="279" 
d="M21 -152v29h125v802h-125v29h160v-860h-160z" />
    <glyph glyph-name="asciicircum" unicode="^" horiz-adv-x="479" 
d="M66 290l150 380h46l151 -380h-43l-77 203l-52 133h-4l-51 -133l-77 -203h-43z" />
    <glyph glyph-name="underscore" unicode="_" horiz-adv-x="500" 
d="M12 -117v38h476v-38h-476z" />
    <glyph glyph-name="grave" unicode="`" horiz-adv-x="535" 
d="M299 570l-152 149l3 5h52l137 -154h-40z" />
    <glyph glyph-name="a" unicode="a" horiz-adv-x="491" 
d="M197 -12q-38 0 -69.5 14t-50.5 43.5t-19 73.5q0 81 75 122.5t235 59.5q0 37 -8.5 72t-33 57.5t-72.5 22.5t-88 -18.5t-65 -35.5l-20 31q17 13 44 27.5t61.5 24.5t73.5 10q56 0 89.5 -25t48 -67t14.5 -93v-307h-38l-4 62h-3q-36 -29 -79.5 -51.5t-90.5 -22.5zM205 27
q41 0 79.5 19.5t83.5 57.5v162q-99 -11 -157 -30.5t-83 -47.5t-25 -66q0 -51 30.5 -73t71.5 -22z" />
    <glyph glyph-name="b" unicode="b" horiz-adv-x="542" 
d="M280 -12q-34 0 -71.5 16.5t-72.5 44.5h-2l-5 -49h-37v719h44v-208l-2 -94q37 31 79.5 53t85.5 22q65 0 107.5 -30t64 -85t21.5 -130q0 -81 -29.5 -139t-77.5 -89t-105 -31zM278 27q49 0 86.5 28t59 77.5t21.5 114.5q0 59 -15 105.5t-48.5 73.5t-88.5 27q-36 0 -75 -20
t-82 -59v-285q40 -34 77.5 -48t64.5 -14z" />
    <glyph glyph-name="c" unicode="c" horiz-adv-x="449" 
d="M270 -12q-62 0 -111.5 29.5t-78 86t-28.5 135.5q0 80 30.5 137t80.5 86.5t108 29.5q50 0 83 -16.5t58 -42.5l-24 -27q-21 22 -50 34.5t-66 12.5q-49 0 -88 -27t-62.5 -75t-23.5 -112q0 -63 21.5 -111t60.5 -74.5t92 -26.5q39 0 72 14.5t56 38.5l23 -27q-30 -29 -68 -47
t-85 -18z" />
    <glyph glyph-name="d" unicode="d" horiz-adv-x="544" 
d="M251 -12q-90 0 -144.5 65t-54.5 186q0 78 29.5 134.5t78 87.5t105.5 31q44 0 77 -15t68 -44l-2 88v198h44v-719h-38l-4 62h-3q-29 -29 -68.5 -51.5t-87.5 -22.5zM257 27q40 0 76.5 20.5t74.5 58.5v285q-38 34 -71 48t-69 14q-48 0 -86 -28t-60.5 -76.5t-22.5 -109.5
q0 -95 41 -153.5t117 -58.5z" />
    <glyph glyph-name="e" unicode="e" horiz-adv-x="483" 
d="M274 -12q-62 0 -112 30t-80 86.5t-30 134.5q0 79 30 135.5t77.5 87t101.5 30.5q57 0 98.5 -26t63.5 -75.5t22 -120.5q0 -8 -0.5 -17.5t-2.5 -19.5h-363v38h324q0 92 -38 137.5t-103 45.5q-40 0 -78 -23t-62.5 -70.5t-24.5 -119.5q0 -66 24 -114.5t65 -74t92 -25.5
q39 0 71.5 10.5t57.5 28.5l18 -31q-28 -19 -63 -33t-88 -14z" />
    <glyph glyph-name="f" unicode="f" horiz-adv-x="263" 
d="M99 0v587q0 48 14 80t40.5 48t64.5 16q17 0 35.5 -4t34.5 -12l-13 -34q-30 12 -57 12q-38 0 -56.5 -28.5t-18.5 -80.5v-584h-44zM28 442v34l72 4h154v-38h-226z" />
    <glyph glyph-name="g" unicode="g" horiz-adv-x="487" 
d="M249 -231q-61 0 -105 16.5t-68 46t-24 70.5q0 32 19 62t52 54v4q-18 11 -30 30t-12 47q0 32 18 54.5t34 33.5v4q-22 20 -41 54.5t-19 77.5q0 49 22.5 87.5t61 60t85.5 21.5q20 0 36.5 -3.5t26.5 -8.5h163v-37h-112v-4q22 -18 37.5 -47t15.5 -70q0 -49 -22.5 -87t-60 -60
t-84.5 -22q-21 0 -42 5.5t-38 14.5q-15 -12 -27 -28.5t-12 -40.5q0 -26 19.5 -44.5t72.5 -18.5h103q81 0 119.5 -26.5t38.5 -83.5q0 -41 -28 -78t-79 -60.5t-120 -23.5zM242 188q33 0 61 17t45.5 47.5t17.5 70.5q0 62 -36.5 97.5t-87.5 35.5t-88 -35.5t-37 -97.5
q0 -40 17.5 -70.5t45.5 -47.5t62 -17zM254 -195q54 0 93.5 17.5t61.5 45.5t22 58q0 40 -28.5 56.5t-82.5 16.5h-103q-7 0 -24 2t-36 6q-33 -22 -48 -48.5t-15 -52.5q0 -45 42 -73t118 -28z" />
    <glyph glyph-name="h" unicode="h" horiz-adv-x="528" 
d="M92 0v719h44v-208v-106q37 37 77 62t89 25q75 0 110 -45.5t35 -138.5v-308h-44v302q0 77 -25.5 113.5t-84.5 36.5q-43 0 -77.5 -22.5t-79.5 -67.5v-362h-44z" />
    <glyph glyph-name="i" unicode="i" horiz-adv-x="229" 
d="M92 0v480h44v-480h-44zM113 596q-16 0 -27 11.5t-11 29.5t11 28.5t27 10.5q17 0 27.5 -10.5t10.5 -28.5t-10.5 -29.5t-27.5 -11.5z" />
    <glyph glyph-name="j" unicode="j" horiz-adv-x="229" 
d="M29 -229q-15 0 -32.5 4t-29.5 10l11 34q9 -3 23.5 -6.5t26.5 -3.5q41 0 52.5 29.5t11.5 75.5v566h45v-569q0 -47 -12 -78t-35.5 -46.5t-60.5 -15.5zM114 596q-16 0 -27 11.5t-11 29.5t11 28.5t27 10.5q17 0 27.5 -10.5t10.5 -28.5t-10.5 -29.5t-27.5 -11.5z" />
    <glyph glyph-name="k" unicode="k" horiz-adv-x="464" 
d="M92 0v719h44v-530h2l237 291h51l-156 -190l182 -290h-49l-159 257l-108 -126v-131h-44z" />
    <glyph glyph-name="l" unicode="l" horiz-adv-x="237" 
d="M151 -8q-20 0 -33 8t-19.5 25t-6.5 43v651h44v-657q0 -17 6.5 -24t16.5 -7q3 0 6.5 0.5t9.5 1.5l8 -35q-7 -3 -14.5 -4.5t-17.5 -1.5z" />
    <glyph glyph-name="m" unicode="m" horiz-adv-x="812" 
d="M92 0v480h38l4 -74h3q32 37 71.5 61.5t79.5 24.5q59 0 89.5 -26.5t43.5 -71.5q41 46 81.5 72t81.5 26q72 0 108 -45.5t36 -138.5v-308h-45v302q0 77 -25.5 113.5t-81.5 36.5q-34 0 -69 -22.5t-75 -67.5v-362h-44v302q0 77 -26 113.5t-82 36.5q-64 0 -144 -90v-362h-44z
" />
    <glyph glyph-name="n" unicode="n" horiz-adv-x="532" 
d="M92 0v480h38l4 -74h3q37 37 76.5 61.5t88.5 24.5q75 0 110 -45.5t35 -138.5v-308h-44v302q0 77 -25.5 113.5t-84.5 36.5q-43 0 -77.5 -22.5t-79.5 -67.5v-362h-44z" />
    <glyph glyph-name="o" unicode="o" horiz-adv-x="535" 
d="M267 -12q-57 0 -106.5 29.5t-79 86t-29.5 135.5q0 80 29.5 137t79 86.5t106.5 29.5q58 0 107 -29.5t79 -86.5t30 -137q0 -79 -30 -135.5t-79 -86t-107 -29.5zM267 27q49 0 87.5 26.5t60.5 74.5t22 111t-22 111.5t-60.5 75.5t-87.5 27q-48 0 -86 -27t-60.5 -75.5
t-22.5 -111.5t22.5 -111t60.5 -74.5t86 -26.5z" />
    <glyph glyph-name="p" unicode="p" horiz-adv-x="544" 
d="M92 -217v697h38l4 -60h3q35 28 76.5 50t86.5 22q64 0 106.5 -30t64 -85.5t21.5 -129.5q0 -81 -29.5 -139t-77.5 -89t-105 -31q-34 0 -70.5 15.5t-73.5 43.5v-89v-175h-44zM278 27q49 0 86.5 28t59 77.5t21.5 114.5q0 59 -15 105.5t-48.5 73.5t-88.5 27q-36 0 -74.5 -20
t-82.5 -59v-285q41 -34 78 -48t64 -14z" />
    <glyph glyph-name="q" unicode="q" horiz-adv-x="544" 
d="M408 -217v185l2 95q-32 -30 -71.5 -52.5t-87.5 -22.5q-90 0 -144.5 65t-54.5 186q0 78 29.5 134.5t78 87.5t105.5 31q44 0 76.5 -15t66.5 -41h2l5 44h37v-697h-44zM257 27q40 0 76.5 20.5t74.5 58.5v285q-38 34 -71 48t-69 14q-48 0 -86 -28t-60.5 -76.5t-22.5 -109.5
q0 -95 41 -153.5t117 -58.5z" />
    <glyph glyph-name="r" unicode="r" horiz-adv-x="317" 
d="M92 0v480h38l4 -89h3q23 44 57.5 72.5t78.5 28.5q13 0 24.5 -2t23.5 -8l-12 -38q-10 3 -18.5 4.5t-23.5 1.5q-32 0 -67.5 -27.5t-63.5 -95.5v-327h-44z" />
    <glyph glyph-name="s" unicode="s" horiz-adv-x="405" 
d="M208 -12q-56 0 -100.5 18t-75.5 49l24 28q30 -26 65.5 -41.5t89.5 -15.5q56 0 85 28.5t29 66.5q0 30 -17.5 49.5t-44.5 33t-55 23.5q-37 13 -71 29.5t-56 42t-22 65.5q0 53 40 90.5t114 37.5q41 0 76.5 -14t61.5 -36l-24 -27q-24 17 -51 28t-64 11q-56 0 -82.5 -27
t-26.5 -60q0 -27 15.5 -44.5t40.5 -29.5t54 -23q38 -15 74.5 -31t59.5 -42.5t23 -73.5q0 -36 -18.5 -66.5t-55 -49.5t-88.5 -19z" />
    <glyph glyph-name="t" unicode="t" horiz-adv-x="312" 
d="M223 -8q-70 0 -95 40t-25 104v306h-75v34l76 4l6 159h38v-159h139v-38h-139v-309q0 -46 16 -74.5t65 -28.5q14 0 28.5 3.5t31.5 11.5l14 -31q-19 -10 -40 -16t-40 -6z" />
    <glyph glyph-name="u" unicode="u" horiz-adv-x="529" 
d="M230 -12q-74 0 -109.5 45.5t-35.5 138.5v308h44v-302q0 -76 26 -113t83 -37q43 0 78 23.5t77 74.5v354h44v-480h-37l-5 80h-2q-35 -41 -74 -66.5t-89 -25.5z" />
    <glyph glyph-name="v" unicode="v" horiz-adv-x="434" 
d="M192 0l-180 480h48l108 -301q11 -34 24 -69.5t24 -68.5h4q12 33 24.5 68.5t24.5 69.5l108 301h45l-178 -480h-52z" />
    <glyph glyph-name="w" unicode="w" horiz-adv-x="685" 
d="M166 0l-142 480h48l86 -311q9 -33 17.5 -64t15.5 -65h4q8 34 17 65t17 64l87 311h55l87 -311q9 -33 17.5 -64t17.5 -65h4q8 34 16.5 65t17.5 64l85 311h45l-138 -480h-59l-84 298q-9 35 -17.5 68.5t-18.5 69.5h-4q-8 -36 -17 -70.5t-20 -69.5l-82 -296h-55z" />
    <glyph glyph-name="x" unicode="x" horiz-adv-x="407" 
d="M14 0l163 251l-150 229h49l78 -122q12 -19 25 -39l26 -40h4q13 20 25 40t24 39l75 122h46l-149 -233l163 -247h-49l-85 131q-13 23 -27.5 45t-29.5 43h-4q-14 -21 -27.5 -43t-27.5 -45l-82 -131h-47z" />
    <glyph glyph-name="y" unicode="y" horiz-adv-x="436" 
d="M73 -219q-14 0 -27 3t-22 8l12 37q8 -3 18 -5t19 -2q44 0 74.5 36.5t48.5 90.5l13 42l-197 489h48l116 -302q11 -30 25 -66t27 -68h4q11 32 22.5 68t21.5 66l103 302h45l-190 -540q-13 -40 -34.5 -76.5t-52.5 -59.5t-74 -23z" />
    <glyph glyph-name="z" unicode="z" horiz-adv-x="404" 
d="M27 0v24l284 418h-253v38h310v-23l-283 -418h293v-39h-351z" />
    <glyph glyph-name="braceleft" unicode="{" horiz-adv-x="279" 
d="M224 -152q-56 0 -83.5 26t-27.5 102q0 37 2 71t4 67t2 67q0 32 -16.5 56.5t-69.5 24.5v32q35 0 53.5 11.5t25.5 29.5t7 38q0 35 -2 68.5t-4 67.5t-2 71q0 76 27.5 102t83.5 26h34v-29h-31q-46 0 -61.5 -25.5t-15.5 -77.5q0 -48 3 -92.5t3 -99.5q0 -44 -10.5 -69.5
t-40.5 -34.5v-4q30 -9 40.5 -35t10.5 -69q0 -54 -3 -98.5t-3 -93.5q0 -52 15.5 -77.5t61.5 -25.5h31v-29h-34z" />
    <glyph glyph-name="bar" unicode="|" horiz-adv-x="226" 
d="M95 -250v1000h36v-1000h-36z" />
    <glyph glyph-name="braceright" unicode="}" horiz-adv-x="279" 
d="M21 -152v29h31q46 0 61.5 25.5t15.5 77.5q0 49 -3 93.5t-3 98.5q0 43 11 69t40 35v4q-29 9 -40 34.5t-11 69.5q0 55 3 99.5t3 92.5q0 52 -15.5 77.5t-61.5 25.5h-31v29h34q56 0 83.5 -26t27.5 -102q0 -37 -2 -71t-4 -67.5t-2 -68.5q0 -20 7 -38t25.5 -29.5t53.5 -11.5
v-32q-52 0 -69 -24.5t-17 -56.5q0 -34 2 -67t4 -67t2 -71q0 -76 -27.5 -102t-83.5 -26h-34z" />
    <glyph glyph-name="asciitilde" unicode="~" horiz-adv-x="479" 
d="M329 266q-29 0 -52.5 14t-45 31.5t-41.5 31t-42 13.5t-41.5 -14t-37.5 -49l-29 18q22 43 51.5 63t58.5 20t52.5 -14t45 -31.5t41.5 -31t42 -13.5t41.5 14t37.5 49l28 -20q-21 -41 -50 -61t-59 -20z" />
    <glyph glyph-name="exclamdown" unicode="&#xa1;" horiz-adv-x="259" 
d="M107 -190v71l6 420h33l6 -420l1 -71h-46zM130 401q-16 0 -29.5 12.5t-13.5 34.5q0 20 13.5 32t29.5 12q17 0 29.5 -12t12.5 -32q0 -22 -12.5 -34.5t-29.5 -12.5z" />
    <glyph glyph-name="cent" unicode="&#xa2;" horiz-adv-x="479" 
d="M282 80q-64 0 -113.5 27t-78 78.5t-28.5 125.5q0 75 30.5 127t81 78.5t109.5 26.5q50 0 83.5 -18.5t57.5 -41.5l-24 -28q-23 22 -51.5 35.5t-64.5 13.5q-50 0 -90.5 -24t-63.5 -67.5t-23 -101.5q0 -86 48.5 -139t128.5 -53q39 0 71.5 16t56.5 38l23 -29q-31 -28 -69 -46
t-84 -18zM255 -28v680h34v-680h-34z" />
    <glyph glyph-name="sterling" unicode="&#xa3;" horiz-adv-x="479" 
d="M57 0v27q55 31 80.5 84t25.5 110q0 45 -13 88t-25.5 85.5t-12.5 86.5q0 52 21 90.5t58.5 59t90.5 20.5q51 0 86.5 -20t57.5 -53l-27 -23q-21 28 -48.5 42.5t-68.5 14.5q-61 0 -93 -38t-32 -93q0 -43 12 -83t24 -83t12 -94q0 -62 -19 -102.5t-53 -74.5v-4h295v-40h-371z
M54 293v33l66 3h234v-36h-300z" />
    <glyph glyph-name="currency" unicode="&#xa4;" horiz-adv-x="479" 
d="M57 114l-26 28l65 67q-18 24 -28 54t-10 65q0 37 10 67.5t28 54.5l-65 68l26 28l66 -69q49 44 116 44t116 -44l67 69l26 -28l-66 -68q18 -24 28 -54.5t10 -67.5q0 -35 -10 -65t-27 -54l65 -67l-26 -28l-67 68q-23 -22 -53.5 -33.5t-62.5 -11.5q-67 0 -116 45zM239 174
q38 0 69 19.5t49.5 54t18.5 80.5t-18.5 81t-49.5 55t-69 20q-37 0 -68 -20t-50 -55t-19 -81t19 -80.5t50 -54t68 -19.5z" />
    <glyph glyph-name="yen" unicode="&#xa5;" horiz-adv-x="479" 
d="M216 0v159h-166v35h166v76h-166v35h152l-172 334h48l94 -193q16 -33 32 -66.5t34 -70.5h4q19 37 35.5 70t31.5 67l94 193h46l-174 -334h154v-35h-168v-76h168v-35h-168v-159h-45z" />
    <glyph glyph-name="brokenbar" unicode="&#xa6;" horiz-adv-x="226" 
d="M95 279v471h36v-471h-36zM95 -250v470h36v-470h-36z" />
    <glyph glyph-name="section" unicode="&#xa7;" horiz-adv-x="479" 
d="M233 -52q-51 0 -91 18t-70 45l30 28q26 -24 55.5 -39t75.5 -15t73 25.5t27 59.5t-20 55.5t-52.5 37.5t-69 31t-68.5 34t-52.5 49t-20.5 75q0 53 31 86t75 53l19 -28q-36 -20 -59.5 -44t-23.5 -64q0 -37 20 -61.5t52.5 -41.5t69 -32t69 -33t53 -45.5t20.5 -69.5
q0 -36 -20 -64t-52.5 -44t-70.5 -16zM317 143l-22 30q44 19 68 41t24 67q0 39 -20.5 64t-52.5 42.5t-68 32.5t-67.5 32.5t-52 44.5t-20.5 67q0 29 14.5 56t44.5 44t76 17q42 0 77.5 -15t62.5 -38l-24 -31q-24 20 -50.5 33t-64.5 13q-50 0 -72 -24t-22 -52q0 -33 20.5 -54
t52 -36.5t67.5 -30.5t68 -35.5t52.5 -50t20.5 -76.5q0 -38 -15 -64t-40 -44t-57 -33z" />
    <glyph glyph-name="dieresis" unicode="&#xa8;" horiz-adv-x="535" 
d="M178 598q-15 0 -26 11t-11 26q0 16 11 26.5t26 10.5q16 0 26.5 -10.5t10.5 -26.5q0 -15 -10.5 -26t-26.5 -11zM356 598q-15 0 -26 11t-11 26q0 16 11 26.5t26 10.5q16 0 26.5 -10.5t10.5 -26.5q0 -15 -10.5 -26t-26.5 -11z" />
    <glyph glyph-name="copyright" unicode="&#xa9;" horiz-adv-x="741" 
d="M371 -12q-65 0 -122.5 23.5t-102 67.5t-70 105.5t-25.5 137.5t25.5 137t70 104t102 66t122.5 23t122 -23t102 -66t70 -104t25 -137t-25 -137.5t-70 -105.5t-102 -67.5t-122 -23.5zM371 19q57 0 108.5 21.5t91 62t62 96t22.5 123.5t-22.5 123t-62 95t-91 61t-108.5 21
q-58 0 -109.5 -21t-91 -61t-62 -95t-22.5 -123t22.5 -123.5t62 -96t91 -62t109.5 -21.5zM376 130q-49 0 -88.5 22t-63 64.5t-23.5 102.5t25.5 104t66 67.5t88.5 23.5q40 0 70 -16t51 -42l-24 -23q-18 22 -42.5 33.5t-55.5 11.5q-39 0 -69.5 -20t-48.5 -56t-18 -83
q0 -71 36.5 -111.5t97.5 -40.5q40 0 64 12.5t47 35.5l22 -24q-25 -28 -56 -44.5t-79 -16.5z" />
    <glyph glyph-name="ordfeminine" unicode="&#xaa;" horiz-adv-x="337" 
d="M139 398q-43 0 -70 24t-27 67q0 53 49.5 81t156.5 38q0 38 -14 64t-56 26q-29 0 -59 -12t-48 -25l-15 28q20 13 53.5 27.5t72.5 14.5q58 0 80.5 -34t22.5 -91v-200h-30l-6 39h-4q-21 -18 -47.5 -32.5t-58.5 -14.5zM148 430q23 0 48 12t52 37v101q-93 -9 -130 -32t-37 -56
q0 -32 18 -47t49 -15z" />
    <glyph glyph-name="guillemotleft" unicode="&#xab;" horiz-adv-x="399" 
d="M180 72l-137 161v38l137 161l25 -21l-123 -159l123 -161zM321 72l-137 161v38l137 161l25 -21l-123 -159l123 -161z" />
    <glyph glyph-name="logicalnot" unicode="&#xac;" horiz-adv-x="479" 
d="M404 110v201h-370v38h411v-239h-41z" />
    <glyph glyph-name="registered" unicode="&#xae;" horiz-adv-x="400" 
d="M200 324q-50 0 -91.5 24.5t-66 67.5t-24.5 101q0 59 24.5 102.5t66 68t91.5 24.5t91.5 -24.5t66 -68t24.5 -102.5q0 -58 -24.5 -101t-66 -67.5t-91.5 -24.5zM200 353q42 0 76.5 21t54.5 58.5t20 84.5q0 48 -20 85.5t-54.5 59.5t-76.5 22t-76 -22t-54.5 -59.5t-20.5 -85.5
q0 -47 20.5 -84.5t54.5 -58.5t76 -21zM132 418v206h69q30 0 53.5 -13t23.5 -51q0 -18 -11.5 -34t-28.5 -22l49 -86h-37l-39 76h-47v-76h-32zM164 521h29q23 0 37 8.5t14 28.5q0 17 -10 27.5t-38 10.5h-32v-75z" />
    <glyph glyph-name="macron" unicode="&#xaf;" horiz-adv-x="535" 
d="M144 606v36h246v-36h-246z" />
    <glyph glyph-name="degree" unicode="&#xb0;" horiz-adv-x="311" 
d="M156 447q-30 0 -56 14t-42 40.5t-16 63.5t16 64t42 41t56 14q29 0 55 -14t42.5 -41t16.5 -64t-16.5 -63.5t-42.5 -40.5t-55 -14zM156 479q35 0 57.5 24.5t22.5 61.5q0 38 -22.5 63t-57.5 25t-57.5 -25t-22.5 -63q0 -37 22.5 -61.5t57.5 -24.5z" />
    <glyph glyph-name="plusminus" unicode="&#xb1;" horiz-adv-x="479" 
d="M219 118v195h-185v38h185v199h41v-199h185v-38h-185v-195h-41zM34 0v37h411v-37h-411z" />
    <glyph glyph-name="uni00B2" unicode="&#xb2;" horiz-adv-x="362" 
d="M56 406v25q67 62 110 105.5t63 77.5t20 67q0 43 -23 68t-63 25q-27 0 -50.5 -18t-40.5 -44l-25 23q19 30 51 51.5t69 21.5q55 0 88 -30.5t33 -92.5q0 -41 -21.5 -78.5t-59.5 -77.5t-88 -89h192v-34h-255z" />
    <glyph glyph-name="uni00B3" unicode="&#xb3;" horiz-adv-x="362" 
d="M177 394q-46 0 -81 22.5t-56 52.5l29 22q18 -28 47 -46t62 -18q37 0 64 21.5t27 61.5q0 39 -37 59.5t-101 20.5v28q59 0 90.5 25.5t31.5 58.5t-22 53t-61 20q-24 0 -47 -14.5t-42 -37.5l-25 22q22 27 51.5 45t66.5 18q32 0 59 -12t43 -35.5t16 -55.5q0 -36 -21.5 -61
t-53.5 -38q35 -6 63 -31t28 -66q0 -36 -17.5 -62t-47 -39.5t-66.5 -13.5z" />
    <glyph glyph-name="acute" unicode="&#xb4;" horiz-adv-x="535" 
d="M195 570l137 154h52l3 -5l-152 -149h-40z" />
    <glyph glyph-name="uni03BC" unicode="&#x3bc;" horiz-adv-x="543" 
d="M92 -180v660h44v-302q0 -71 25 -110.5t81 -39.5q25 0 49.5 7t51 31.5t54.5 72.5v341h44q-1 -70 -2 -139.5t-1 -137.5v-136q0 -18 8.5 -27t21.5 -9q8 0 14 1.5t14 4.5l8 -36q-8 -4 -18.5 -6.5t-23.5 -2.5q-36 0 -49.5 22.5t-13.5 74.5h-3q-31 -52 -69.5 -76t-81.5 -24
q-37 0 -65 12t-48 48v-90t1 -67t4 -72h-45z" />
    <glyph glyph-name="uni03BC" unicode="&#xb5;" horiz-adv-x="543" 
d="M92 -180v660h44v-302q0 -71 25 -110.5t81 -39.5q25 0 49.5 7t51 31.5t54.5 72.5v341h44q-1 -70 -2 -139.5t-1 -137.5v-136q0 -18 8.5 -27t21.5 -9q8 0 14 1.5t14 4.5l8 -36q-8 -4 -18.5 -6.5t-23.5 -2.5q-36 0 -49.5 22.5t-13.5 74.5h-3q-31 -52 -69.5 -76t-81.5 -24
q-37 0 -65 12t-48 48v-90t1 -67t4 -72h-45z" />
    <glyph glyph-name="paragraph" unicode="&#xb6;" horiz-adv-x="515" 
d="M373 -80v739h46v-739h-46zM291 244q-74 0 -130 20.5t-87.5 66.5t-31.5 120q0 75 29.5 121t82 66.5t121.5 20.5h44v-415h-28z" />
    <glyph glyph-name="periodcentered" unicode="&#xb7;" horiz-adv-x="219" 
d="M110 277q-16 0 -29.5 12t-13.5 33q0 22 13.5 34t29.5 12q17 0 29.5 -12t12.5 -34q0 -21 -12.5 -33t-29.5 -12z" />
    <glyph glyph-name="cedilla" unicode="&#xb8;" horiz-adv-x="535" 
d="M199 -219l-7 30q65 5 89 18t24 35t-18.5 33.5t-59.5 17.5l41 87h35l-30 -67q33 -8 52 -23.5t19 -45.5q0 -39 -37 -59.5t-108 -25.5z" />
    <glyph glyph-name="uni00B9" unicode="&#xb9;" horiz-adv-x="362" 
d="M176 406v324h-82v27q28 6 49 16t38 23h33v-390h-38z" />
    <glyph glyph-name="ordmasculine" unicode="&#xba;" horiz-adv-x="360" 
d="M179 398q-40 0 -73 20t-53 57t-20 90t20 90t53 56.5t73 19.5t73 -19.5t53 -56.5t20 -90t-20 -90t-53 -57t-73 -20zM179 431q48 0 77.5 37.5t29.5 96.5q0 60 -29.5 97t-77.5 37t-77.5 -37t-29.5 -97q0 -59 29.5 -96.5t77.5 -37.5z" />
    <glyph glyph-name="guillemotright" unicode="&#xbb;" horiz-adv-x="399" 
d="M78 72l-24 19l122 161l-122 159l24 21l138 -161v-38zM219 72l-24 19l122 161l-122 159l24 21l138 -161v-38z" />
    <glyph glyph-name="onequarter" unicode="&#xbc;" horiz-adv-x="764" 
d="M155 269v324h-82v27q28 6 49 16t38 23h33v-390h-38zM177 -12l368 683h38l-367 -683h-39zM625 0v233l4 104h-4l-56 -83l-73 -108h223v-32h-271v21l177 255h36v-390h-36z" />
    <glyph glyph-name="onehalf" unicode="&#xbd;" horiz-adv-x="786" 
d="M155 269v324h-82v27q28 6 49 16t38 23h33v-390h-38zM154 -12l368 683h38l-367 -683h-39zM480 0v25q67 62 110 105.5t63 77.5t20 67q0 43 -23 68t-63 25q-27 0 -50.5 -18t-40.5 -44l-25 23q19 30 51 51.5t69 21.5q55 0 88 -30.5t33 -92.5q0 -41 -21.5 -78.5t-59.5 -77.5
t-88 -89h192v-34h-255z" />
    <glyph glyph-name="threequarters" unicode="&#xbe;" horiz-adv-x="783" 
d="M177 257q-46 0 -81 22.5t-56 52.5l29 22q18 -28 47 -46t62 -18q37 0 64 21.5t27 61.5q0 39 -37 59.5t-101 20.5v28q59 0 90.5 25.5t31.5 58.5t-22 53t-61 20q-24 0 -47 -14.5t-42 -37.5l-25 22q22 27 51.5 45t66.5 18q32 0 59 -12t43 -35.5t16 -55.5q0 -36 -21.5 -61
t-53.5 -38q35 -6 63 -31t28 -66q0 -36 -17.5 -62t-47 -39.5t-66.5 -13.5zM224 -12l368 683h38l-367 -683h-39zM644 0v233l4 104h-4l-56 -83l-73 -108h223v-32h-271v21l177 255h36v-390h-36z" />
    <glyph glyph-name="questiondown" unicode="&#xbf;" horiz-adv-x="402" 
d="M206 -202q-49 0 -83.5 20.5t-53 55t-18.5 77.5q0 40 16.5 74t41 64.5t47 62t36 67.5t7.5 82h41q6 -50 -6.5 -88.5t-34.5 -70.5t-46 -61t-40.5 -59.5t-16.5 -67.5q0 -31 12 -57.5t37 -43t65 -16.5q36 0 70 17t58 47l28 -25q-29 -32 -69 -55t-91 -23zM216 401
q-16 0 -29 12.5t-13 34.5q0 20 13 32t29 12q17 0 29.5 -12t12.5 -32q0 -22 -12.5 -34.5t-29.5 -12.5z" />
    <glyph glyph-name="Agrave" unicode="&#xc0;" horiz-adv-x="526" 
d="M8 0l232 659h46l232 -659h-48l-132 388q-20 59 -38 113.5t-35 114.5h-4q-17 -60 -35 -114.5t-38 -113.5l-134 -388h-46zM114 226v39h295v-39h-295zM289 709l-157 119l3 5h62l138 -124h-46z" />
    <glyph glyph-name="Aacute" unicode="&#xc1;" horiz-adv-x="526" 
d="M8 0l232 659h46l232 -659h-48l-132 388q-20 59 -38 113.5t-35 114.5h-4q-17 -60 -35 -114.5t-38 -113.5l-134 -388h-46zM114 226v39h295v-39h-295zM191 709l138 124h62l3 -5l-157 -119h-46z" />
    <glyph glyph-name="Acircumflex" unicode="&#xc2;" horiz-adv-x="526" 
d="M8 0l232 659h46l232 -659h-48l-132 388q-20 59 -38 113.5t-35 114.5h-4q-17 -60 -35 -114.5t-38 -113.5l-134 -388h-46zM114 226v39h295v-39h-295zM106 709l139 124h36l139 -124h-44l-111 88h-4l-111 -88h-44z" />
    <glyph glyph-name="Atilde" unicode="&#xc3;" horiz-adv-x="526" 
d="M8 0l232 659h46l232 -659h-48l-132 388q-20 59 -38 113.5t-35 114.5h-4q-17 -60 -35 -114.5t-38 -113.5l-134 -388h-46zM114 226v39h295v-39h-295zM340 718q-28 0 -48.5 12.5t-36.5 27.5t-32 27t-37 12q-22 0 -37 -20.5t-18 -55.5l-33 3q3 47 25 78.5t63 31.5
q28 0 48.5 -12t36.5 -27.5t32 -27.5t37 -12q22 0 36.5 21t18.5 56l33 -3q-2 -47 -24.5 -79t-63.5 -32z" />
    <glyph glyph-name="Adieresis" unicode="&#xc4;" horiz-adv-x="526" 
d="M8 0l232 659h46l232 -659h-48l-132 388q-20 59 -38 113.5t-35 114.5h-4q-17 -60 -35 -114.5t-38 -113.5l-134 -388h-46zM114 226v39h295v-39h-295zM165 725q-15 0 -25.5 9.5t-10.5 26.5t10.5 27t25.5 10q16 0 26.5 -10t10.5 -27t-10.5 -26.5t-26.5 -9.5zM361 725
q-15 0 -26 9.5t-11 26.5t11 27t26 10q16 0 26 -10t10 -27t-10 -26.5t-26 -9.5z" />
    <glyph glyph-name="Aring" unicode="&#xc5;" horiz-adv-x="526" 
d="M8 0l232 659h46l232 -659h-48l-132 388q-20 59 -38 113.5t-35 114.5h-4q-17 -60 -35 -114.5t-38 -113.5l-134 -388h-46zM114 226v39h295v-39h-295zM263 700q-43 0 -71 23t-28 62q0 40 28 63t71 23q44 0 71.5 -23t27.5 -63q0 -39 -27.5 -62t-71.5 -23zM263 725
q28 0 46.5 15.5t18.5 44.5q0 31 -18.5 45.5t-46.5 14.5q-27 0 -46 -14.5t-19 -45.5q0 -29 19 -44.5t46 -15.5z" />
    <glyph glyph-name="AE" unicode="&#xc6;" horiz-adv-x="809" 
d="M21 0l365 659h366v-40h-295v-249h245v-40h-245v-290h305v-40h-351v619h-4q-30 -56 -61.5 -114t-62.5 -117l-213 -388h-49zM170 217v38h275v-38h-275z" />
    <glyph glyph-name="Ccedilla" unicode="&#xc7;" horiz-adv-x="564" 
d="M331 -12q-81 0 -143.5 42t-97.5 119t-35 182q0 78 20 141t57.5 107.5t89 68t114.5 23.5q57 0 101.5 -23t70.5 -56l-27 -28q-27 31 -63.5 48t-80.5 17q-72 0 -124.5 -36.5t-81 -103t-28.5 -158.5q0 -91 28 -159t80 -105t123 -37q51 0 91 19t76 59l25 -26
q-37 -43 -83.5 -68.5t-111.5 -25.5zM264 -219l-7 30q65 5 89 18t24 35t-18.5 33.5t-59.5 17.5l41 87h35l-30 -67q33 -8 52 -23.5t19 -45.5q0 -39 -37 -59.5t-108 -25.5z" />
    <glyph glyph-name="Egrave" unicode="&#xc8;" horiz-adv-x="515" 
d="M97 0v659h361v-40h-315v-249h264v-40h-264v-290h325v-40h-371zM316 709l-157 119l3 5h62l138 -124h-46z" />
    <glyph glyph-name="Eacute" unicode="&#xc9;" horiz-adv-x="515" 
d="M97 0v659h361v-40h-315v-249h264v-40h-264v-290h325v-40h-371zM218 709l138 124h62l3 -5l-157 -119h-46z" />
    <glyph glyph-name="Ecircumflex" unicode="&#xca;" horiz-adv-x="515" 
d="M97 0v659h361v-40h-315v-249h264v-40h-264v-290h325v-40h-371zM133 709l139 124h36l139 -124h-44l-111 88h-4l-111 -88h-44z" />
    <glyph glyph-name="Edieresis" unicode="&#xcb;" horiz-adv-x="515" 
d="M97 0v659h361v-40h-315v-249h264v-40h-264v-290h325v-40h-371zM192 725q-15 0 -25.5 9.5t-10.5 26.5t10.5 27t25.5 10q16 0 26.5 -10t10.5 -27t-10.5 -26.5t-26.5 -9.5zM388 725q-15 0 -26 9.5t-11 26.5t11 27t26 10q16 0 26 -10t10 -27t-10 -26.5t-26 -9.5z" />
    <glyph glyph-name="Igrave" unicode="&#xcc;" horiz-adv-x="240" 
d="M97 0v659h46v-659h-46zM146 709l-157 119l3 5h62l138 -124h-46z" />
    <glyph glyph-name="Iacute" unicode="&#xcd;" horiz-adv-x="240" 
d="M97 0v659h46v-659h-46zM48 709l138 124h62l3 -5l-157 -119h-46z" />
    <glyph glyph-name="Icircumflex" unicode="&#xce;" horiz-adv-x="240" 
d="M97 0v659h46v-659h-46zM-37 709l139 124h36l139 -124h-44l-111 88h-4l-111 -88h-44z" />
    <glyph glyph-name="Idieresis" unicode="&#xcf;" horiz-adv-x="240" 
d="M97 0v659h46v-659h-46zM22 725q-15 0 -25.5 9.5t-10.5 26.5t10.5 27t25.5 10q16 0 26.5 -10t10.5 -27t-10.5 -26.5t-26.5 -9.5zM218 725q-15 0 -26 9.5t-11 26.5t11 27t26 10q16 0 26 -10t10 -27t-10 -26.5t-26 -9.5z" />
    <glyph glyph-name="Eth" unicode="&#xd0;" horiz-adv-x="625" 
d="M23 331v34l97 4h207v-38h-304zM118 0v659h153q101 0 167.5 -40t99 -114t32.5 -173q0 -100 -32.5 -174.5t-98.5 -116t-167 -41.5h-154zM164 39h102q89 0 145.5 37.5t83.5 103.5t27 152t-27 151t-83.5 101t-145.5 36h-102v-581z" />
    <glyph glyph-name="Ntilde" unicode="&#xd1;" horiz-adv-x="636" 
d="M97 0v659h50l276 -463q19 -33 38 -66.5t36 -66.5h4q-1 48 -3.5 96t-2.5 96v404h44v-659h-50l-276 463q-19 33 -38 67t-36 66h-4l4 -92t2 -95v-409h-44zM408 718q-28 0 -48.5 12.5t-36.5 27.5t-32 27t-37 12q-22 0 -37 -20.5t-18 -55.5l-33 3q3 47 25 78.5t63 31.5
q28 0 48.5 -12t36.5 -27.5t32 -27.5t37 -12q22 0 36.5 21t18.5 56l33 -3q-2 -47 -24.5 -79t-63.5 -32z" />
    <glyph glyph-name="Ograve" unicode="&#xd2;" horiz-adv-x="652" 
d="M326 -12q-79 0 -140 42.5t-96 119.5t-35 182q0 104 35 180.5t96 117.5t140 41t140.5 -41t96.5 -117.5t35 -180.5q0 -105 -35 -182t-96.5 -119.5t-140.5 -42.5zM326 30q67 0 117 37.5t78 105t28 159.5q0 91 -28 157.5t-78 103t-117 36.5t-117 -36.5t-78 -103t-28 -157.5
q0 -92 28 -159.5t78 -105t117 -37.5zM352 709l-157 119l3 5h62l138 -124h-46z" />
    <glyph glyph-name="Oacute" unicode="&#xd3;" horiz-adv-x="652" 
d="M326 -12q-79 0 -140 42.5t-96 119.5t-35 182q0 104 35 180.5t96 117.5t140 41t140.5 -41t96.5 -117.5t35 -180.5q0 -105 -35 -182t-96.5 -119.5t-140.5 -42.5zM326 30q67 0 117 37.5t78 105t28 159.5q0 91 -28 157.5t-78 103t-117 36.5t-117 -36.5t-78 -103t-28 -157.5
q0 -92 28 -159.5t78 -105t117 -37.5zM254 709l138 124h62l3 -5l-157 -119h-46z" />
    <glyph glyph-name="Ocircumflex" unicode="&#xd4;" horiz-adv-x="652" 
d="M326 -12q-79 0 -140 42.5t-96 119.5t-35 182q0 104 35 180.5t96 117.5t140 41t140.5 -41t96.5 -117.5t35 -180.5q0 -105 -35 -182t-96.5 -119.5t-140.5 -42.5zM326 30q67 0 117 37.5t78 105t28 159.5q0 91 -28 157.5t-78 103t-117 36.5t-117 -36.5t-78 -103t-28 -157.5
q0 -92 28 -159.5t78 -105t117 -37.5zM169 709l139 124h36l139 -124h-44l-111 88h-4l-111 -88h-44z" />
    <glyph glyph-name="Otilde" unicode="&#xd5;" horiz-adv-x="652" 
d="M326 -12q-79 0 -140 42.5t-96 119.5t-35 182q0 104 35 180.5t96 117.5t140 41t140.5 -41t96.5 -117.5t35 -180.5q0 -105 -35 -182t-96.5 -119.5t-140.5 -42.5zM326 30q67 0 117 37.5t78 105t28 159.5q0 91 -28 157.5t-78 103t-117 36.5t-117 -36.5t-78 -103t-28 -157.5
q0 -92 28 -159.5t78 -105t117 -37.5zM403 718q-28 0 -48.5 12.5t-36.5 27.5t-32 27t-37 12q-22 0 -37 -20.5t-18 -55.5l-33 3q3 47 25 78.5t63 31.5q28 0 48.5 -12t36.5 -27.5t32 -27.5t37 -12q22 0 36.5 21t18.5 56l33 -3q-2 -47 -24.5 -79t-63.5 -32z" />
    <glyph glyph-name="Odieresis" unicode="&#xd6;" horiz-adv-x="652" 
d="M326 -12q-79 0 -140 42.5t-96 119.5t-35 182q0 104 35 180.5t96 117.5t140 41t140.5 -41t96.5 -117.5t35 -180.5q0 -105 -35 -182t-96.5 -119.5t-140.5 -42.5zM326 30q67 0 117 37.5t78 105t28 159.5q0 91 -28 157.5t-78 103t-117 36.5t-117 -36.5t-78 -103t-28 -157.5
q0 -92 28 -159.5t78 -105t117 -37.5zM228 725q-15 0 -25.5 9.5t-10.5 26.5t10.5 27t25.5 10q16 0 26.5 -10t10.5 -27t-10.5 -26.5t-26.5 -9.5zM424 725q-15 0 -26 9.5t-11 26.5t11 27t26 10q16 0 26 -10t10 -27t-10 -26.5t-26 -9.5z" />
    <glyph glyph-name="multiply" unicode="&#xd7;" horiz-adv-x="479" 
d="M78 135l-26 28l161 167l-161 167l26 28l161 -169l162 169l26 -28l-161 -167l161 -167l-26 -28l-162 168z" />
    <glyph glyph-name="Oslash" unicode="&#xd8;" horiz-adv-x="652" 
d="M85 -23l-30 22l511 683l30 -22zM330 -12q-79 0 -140.5 42.5t-96 119.5t-34.5 182q0 104 34.5 180.5t96 117.5t140.5 41t140.5 -41t96 -117.5t34.5 -180.5q0 -105 -34.5 -182t-96 -119.5t-140.5 -42.5zM330 30q67 0 117 37.5t78 105t28 159.5q0 91 -28 157.5t-78 103
t-117 36.5t-117 -36.5t-78 -103t-28 -157.5q0 -92 28 -159.5t78 -105t117 -37.5z" />
    <glyph glyph-name="Ugrave" unicode="&#xd9;" horiz-adv-x="634" 
d="M316 -12q-42 0 -82 12.5t-71 42t-49.5 81t-18.5 128.5v407h46v-402q0 -87 24.5 -137t64.5 -70t86 -20q48 0 89 20t66 70t25 137v402h43v-407q0 -77 -18.5 -128.5t-50.5 -81t-71.5 -42t-82.5 -12.5zM342 709l-157 119l3 5h62l138 -124h-46z" />
    <glyph glyph-name="Uacute" unicode="&#xda;" horiz-adv-x="634" 
d="M316 -12q-42 0 -82 12.5t-71 42t-49.5 81t-18.5 128.5v407h46v-402q0 -87 24.5 -137t64.5 -70t86 -20q48 0 89 20t66 70t25 137v402h43v-407q0 -77 -18.5 -128.5t-50.5 -81t-71.5 -42t-82.5 -12.5zM244 709l138 124h62l3 -5l-157 -119h-46z" />
    <glyph glyph-name="Ucircumflex" unicode="&#xdb;" horiz-adv-x="634" 
d="M316 -12q-42 0 -82 12.5t-71 42t-49.5 81t-18.5 128.5v407h46v-402q0 -87 24.5 -137t64.5 -70t86 -20q48 0 89 20t66 70t25 137v402h43v-407q0 -77 -18.5 -128.5t-50.5 -81t-71.5 -42t-82.5 -12.5zM159 709l139 124h36l139 -124h-44l-111 88h-4l-111 -88h-44z" />
    <glyph glyph-name="Udieresis" unicode="&#xdc;" horiz-adv-x="634" 
d="M316 -12q-42 0 -82 12.5t-71 42t-49.5 81t-18.5 128.5v407h46v-402q0 -87 24.5 -137t64.5 -70t86 -20q48 0 89 20t66 70t25 137v402h43v-407q0 -77 -18.5 -128.5t-50.5 -81t-71.5 -42t-82.5 -12.5zM218 725q-15 0 -25.5 9.5t-10.5 26.5t10.5 27t25.5 10q16 0 26.5 -10
t10.5 -27t-10.5 -26.5t-26.5 -9.5zM414 725q-15 0 -26 9.5t-11 26.5t11 27t26 10q16 0 26 -10t10 -27t-10 -26.5t-26 -9.5z" />
    <glyph glyph-name="Yacute" unicode="&#xdd;" horiz-adv-x="447" 
d="M200 0v267l-197 392h49l100 -206q17 -36 34 -71t35 -72h4q20 37 38 72t34 71l100 206h47l-198 -392v-267h-46zM153 709l138 124h62l3 -5l-157 -119h-46z" />
    <glyph glyph-name="Thorn" unicode="&#xde;" horiz-adv-x="563" 
d="M97 0v659h46v-117h134q74 0 126.5 -18t80.5 -58t28 -108q0 -65 -28 -107t-80.5 -63.5t-126.5 -21.5h-134v-166h-46zM143 205h123q101 0 150 36t49 117q0 83 -49 114t-150 31h-123v-298z" />
    <glyph glyph-name="germandbls" unicode="&#xdf;" horiz-adv-x="542" 
d="M367 -12q-39 0 -73 12.5t-62 39.5l21 28q27 -23 54.5 -32.5t59.5 -9.5q50 0 75.5 30.5t25.5 68.5q0 35 -14 57t-37 37t-48.5 28t-48 28t-37 38.5t-14.5 59.5q0 37 16.5 63t37.5 48.5t37.5 48t16.5 58.5q0 43 -27 71.5t-78 28.5q-61 0 -98.5 -42.5t-37.5 -131.5v-517h-44
v531q0 62 23 106.5t63.5 68t94.5 23.5q46 0 79.5 -17.5t51.5 -48t18 -68.5q0 -39 -16.5 -67t-37.5 -51t-37.5 -46.5t-16.5 -53.5q0 -29 14 -47.5t37 -31.5t48.5 -26t48 -30.5t37 -44.5t14.5 -70q0 -39 -19 -70.5t-51.5 -50t-75.5 -18.5z" />
    <glyph glyph-name="agrave" unicode="&#xe0;" horiz-adv-x="491" 
d="M197 -12q-38 0 -69.5 14t-50.5 43.5t-19 73.5q0 81 75 122.5t235 59.5q0 37 -8.5 72t-33 57.5t-72.5 22.5t-88 -18.5t-65 -35.5l-20 31q17 13 44 27.5t61.5 24.5t73.5 10q56 0 89.5 -25t48 -67t14.5 -93v-307h-38l-4 62h-3q-36 -29 -79.5 -51.5t-90.5 -22.5zM205 27
q41 0 79.5 19.5t83.5 57.5v162q-99 -11 -157 -30.5t-83 -47.5t-25 -66q0 -51 30.5 -73t71.5 -22zM294 570l-152 149l3 5h52l137 -154h-40z" />
    <glyph glyph-name="aacute" unicode="&#xe1;" horiz-adv-x="491" 
d="M197 -12q-38 0 -69.5 14t-50.5 43.5t-19 73.5q0 81 75 122.5t235 59.5q0 37 -8.5 72t-33 57.5t-72.5 22.5t-88 -18.5t-65 -35.5l-20 31q17 13 44 27.5t61.5 24.5t73.5 10q56 0 89.5 -25t48 -67t14.5 -93v-307h-38l-4 62h-3q-36 -29 -79.5 -51.5t-90.5 -22.5zM205 27
q41 0 79.5 19.5t83.5 57.5v162q-99 -11 -157 -30.5t-83 -47.5t-25 -66q0 -51 30.5 -73t71.5 -22zM190 570l137 154h52l3 -5l-152 -149h-40z" />
    <glyph glyph-name="acircumflex" unicode="&#xe2;" horiz-adv-x="491" 
d="M197 -12q-38 0 -69.5 14t-50.5 43.5t-19 73.5q0 81 75 122.5t235 59.5q0 37 -8.5 72t-33 57.5t-72.5 22.5t-88 -18.5t-65 -35.5l-20 31q17 13 44 27.5t61.5 24.5t73.5 10q56 0 89.5 -25t48 -67t14.5 -93v-307h-38l-4 62h-3q-36 -29 -79.5 -51.5t-90.5 -22.5zM205 27
q41 0 79.5 19.5t83.5 57.5v162q-99 -11 -157 -30.5t-83 -47.5t-25 -66q0 -51 30.5 -73t71.5 -22zM106 570l139 154h34l139 -154h-40l-114 112h-4l-114 -112h-40z" />
    <glyph glyph-name="atilde" unicode="&#xe3;" horiz-adv-x="491" 
d="M197 -12q-38 0 -69.5 14t-50.5 43.5t-19 73.5q0 81 75 122.5t235 59.5q0 37 -8.5 72t-33 57.5t-72.5 22.5t-88 -18.5t-65 -35.5l-20 31q17 13 44 27.5t61.5 24.5t73.5 10q56 0 89.5 -25t48 -67t14.5 -93v-307h-38l-4 62h-3q-36 -29 -79.5 -51.5t-90.5 -22.5zM205 27
q41 0 79.5 19.5t83.5 57.5v162q-99 -11 -157 -30.5t-83 -47.5t-25 -66q0 -51 30.5 -73t71.5 -22zM338 579q-29 0 -48.5 14.5t-35.5 33.5t-31.5 33.5t-36.5 14.5q-27 0 -39.5 -26.5t-14.5 -66.5l-34 2q2 32 10.5 60.5t27 47t51.5 18.5q29 0 48 -14.5t35 -33.5t32 -33.5
t37 -14.5q27 0 39 27.5t14 65.5l34 -2q-2 -31 -10.5 -59.5t-26.5 -47.5t-51 -19z" />
    <glyph glyph-name="adieresis" unicode="&#xe4;" horiz-adv-x="491" 
d="M197 -12q-38 0 -69.5 14t-50.5 43.5t-19 73.5q0 81 75 122.5t235 59.5q0 37 -8.5 72t-33 57.5t-72.5 22.5t-88 -18.5t-65 -35.5l-20 31q17 13 44 27.5t61.5 24.5t73.5 10q56 0 89.5 -25t48 -67t14.5 -93v-307h-38l-4 62h-3q-36 -29 -79.5 -51.5t-90.5 -22.5zM205 27
q41 0 79.5 19.5t83.5 57.5v162q-99 -11 -157 -30.5t-83 -47.5t-25 -66q0 -51 30.5 -73t71.5 -22zM173 598q-15 0 -26 11t-11 26q0 16 11 26.5t26 10.5q16 0 26.5 -10.5t10.5 -26.5q0 -15 -10.5 -26t-26.5 -11zM351 598q-15 0 -26 11t-11 26q0 16 11 26.5t26 10.5
q16 0 26.5 -10.5t10.5 -26.5q0 -15 -10.5 -26t-26.5 -11z" />
    <glyph glyph-name="aring" unicode="&#xe5;" horiz-adv-x="491" 
d="M197 -12q-38 0 -69.5 14t-50.5 43.5t-19 73.5q0 81 75 122.5t235 59.5q0 37 -8.5 72t-33 57.5t-72.5 22.5t-88 -18.5t-65 -35.5l-20 31q17 13 44 27.5t61.5 24.5t73.5 10q56 0 89.5 -25t48 -67t14.5 -93v-307h-38l-4 62h-3q-36 -29 -79.5 -51.5t-90.5 -22.5zM205 27
q41 0 79.5 19.5t83.5 57.5v162q-99 -11 -157 -30.5t-83 -47.5t-25 -66q0 -51 30.5 -73t71.5 -22zM262 548q-42 0 -69.5 26.5t-27.5 68.5q0 43 27.5 69.5t69.5 26.5t69.5 -26.5t27.5 -69.5q0 -42 -27.5 -68.5t-69.5 -26.5zM262 574q28 0 46.5 19t18.5 50q0 32 -18.5 51
t-46.5 19q-27 0 -46 -19t-19 -51q0 -31 19 -50t46 -19z" />
    <glyph glyph-name="ae" unicode="&#xe6;" horiz-adv-x="777" 
d="M197 -12q-38 0 -69.5 14t-50.5 43t-19 74q0 81 74.5 122.5t229.5 59.5q1 37 -7.5 72t-33.5 57.5t-72 22.5q-44 0 -83.5 -18.5t-64.5 -35.5l-20 31q17 13 44 27.5t59.5 24.5t68.5 10q59 0 94 -32.5t46 -87.5q26 55 70 87.5t97 32.5q57 0 97 -26t61 -76t21 -120
q0 -9 -0.5 -18t-2.5 -19h-331q-1 -60 22 -106.5t61.5 -73t86.5 -26.5q40 0 70.5 10t55.5 29l18 -31q-28 -20 -61.5 -33.5t-86.5 -13.5q-43 0 -75 14.5t-55.5 37t-41.5 47.5q-46 -45 -101 -72t-101 -27zM205 27q39 0 88.5 24t89.5 68q-9 22 -15 54.5t-6 66.5v26
q-141 -17 -200 -51.5t-59 -92.5q0 -51 30.5 -73t71.5 -22zM405 269h292q0 92 -37 138.5t-100 46.5q-40 0 -73.5 -23.5t-55 -65t-26.5 -96.5z" />
    <glyph glyph-name="ccedilla" unicode="&#xe7;" horiz-adv-x="449" 
d="M270 -12q-62 0 -111.5 29.5t-78 86t-28.5 135.5q0 80 30.5 137t80.5 86.5t108 29.5q50 0 83 -16.5t58 -42.5l-24 -27q-21 22 -50 34.5t-66 12.5q-49 0 -88 -27t-62.5 -75t-23.5 -112q0 -63 21.5 -111t60.5 -74.5t92 -26.5q39 0 72 14.5t56 38.5l23 -27q-30 -29 -68 -47
t-85 -18zM192 -219l-7 30q65 5 89 18t24 35t-18.5 33.5t-59.5 17.5l41 87h35l-30 -67q33 -8 52 -23.5t19 -45.5q0 -39 -37 -59.5t-108 -25.5z" />
    <glyph glyph-name="egrave" unicode="&#xe8;" horiz-adv-x="483" 
d="M274 -12q-62 0 -112 30t-80 86.5t-30 134.5q0 79 30 135.5t77.5 87t101.5 30.5q57 0 98.5 -26t63.5 -75.5t22 -120.5q0 -8 -0.5 -17.5t-2.5 -19.5h-363v38h324q0 92 -38 137.5t-103 45.5q-40 0 -78 -23t-62.5 -70.5t-24.5 -119.5q0 -66 24 -114.5t65 -74t92 -25.5
q39 0 71.5 10.5t57.5 28.5l18 -31q-28 -19 -63 -33t-88 -14zM293 570l-152 149l3 5h52l137 -154h-40z" />
    <glyph glyph-name="eacute" unicode="&#xe9;" horiz-adv-x="483" 
d="M274 -12q-62 0 -112 30t-80 86.5t-30 134.5q0 79 30 135.5t77.5 87t101.5 30.5q57 0 98.5 -26t63.5 -75.5t22 -120.5q0 -8 -0.5 -17.5t-2.5 -19.5h-363v38h324q0 92 -38 137.5t-103 45.5q-40 0 -78 -23t-62.5 -70.5t-24.5 -119.5q0 -66 24 -114.5t65 -74t92 -25.5
q39 0 71.5 10.5t57.5 28.5l18 -31q-28 -19 -63 -33t-88 -14zM189 570l137 154h52l3 -5l-152 -149h-40z" />
    <glyph glyph-name="ecircumflex" unicode="&#xea;" horiz-adv-x="483" 
d="M274 -12q-62 0 -112 30t-80 86.5t-30 134.5q0 79 30 135.5t77.5 87t101.5 30.5q57 0 98.5 -26t63.5 -75.5t22 -120.5q0 -8 -0.5 -17.5t-2.5 -19.5h-363v38h324q0 92 -38 137.5t-103 45.5q-40 0 -78 -23t-62.5 -70.5t-24.5 -119.5q0 -66 24 -114.5t65 -74t92 -25.5
q39 0 71.5 10.5t57.5 28.5l18 -31q-28 -19 -63 -33t-88 -14zM105 570l139 154h34l139 -154h-40l-114 112h-4l-114 -112h-40z" />
    <glyph glyph-name="edieresis" unicode="&#xeb;" horiz-adv-x="483" 
d="M274 -12q-62 0 -112 30t-80 86.5t-30 134.5q0 79 30 135.5t77.5 87t101.5 30.5q57 0 98.5 -26t63.5 -75.5t22 -120.5q0 -8 -0.5 -17.5t-2.5 -19.5h-363v38h324q0 92 -38 137.5t-103 45.5q-40 0 -78 -23t-62.5 -70.5t-24.5 -119.5q0 -66 24 -114.5t65 -74t92 -25.5
q39 0 71.5 10.5t57.5 28.5l18 -31q-28 -19 -63 -33t-88 -14zM172 598q-15 0 -26 11t-11 26q0 16 11 26.5t26 10.5q16 0 26.5 -10.5t10.5 -26.5q0 -15 -10.5 -26t-26.5 -11zM350 598q-15 0 -26 11t-11 26q0 16 11 26.5t26 10.5q16 0 26.5 -10.5t10.5 -26.5q0 -15 -10.5 -26
t-26.5 -11z" />
    <glyph glyph-name="igrave" unicode="&#xec;" horiz-adv-x="229" 
d="M92 0v480h44v-480h-44zM145 570l-152 149l3 5h52l137 -154h-40z" />
    <glyph glyph-name="iacute" unicode="&#xed;" horiz-adv-x="229" 
d="M92 0v480h44v-480h-44zM41 570l137 154h52l3 -5l-152 -149h-40z" />
    <glyph glyph-name="icircumflex" unicode="&#xee;" horiz-adv-x="229" 
d="M92 0v480h44v-480h-44zM-43 570l139 154h34l139 -154h-40l-114 112h-4l-114 -112h-40z" />
    <glyph glyph-name="idieresis" unicode="&#xef;" horiz-adv-x="229" 
d="M92 0v480h44v-480h-44zM24 598q-15 0 -26 11t-11 26q0 16 11 26.5t26 10.5q16 0 26.5 -10.5t10.5 -26.5q0 -15 -10.5 -26t-26.5 -11zM202 598q-15 0 -26 11t-11 26q0 16 11 26.5t26 10.5q16 0 26.5 -10.5t10.5 -26.5q0 -15 -10.5 -26t-26.5 -11z" />
    <glyph glyph-name="eth" unicode="&#xf0;" horiz-adv-x="535" 
d="M267 -12q-53 0 -100.5 27.5t-77 79.5t-29.5 124q0 66 26.5 116t73 78.5t107.5 28.5q47 0 89 -23t71 -70v-43q-39 61 -79 79.5t-79 18.5q-54 0 -91 -25.5t-55.5 -67.5t-18.5 -92q0 -56 22.5 -99.5t59.5 -68t81 -24.5q55 0 89.5 30t51.5 80.5t17 113.5q0 96 -23.5 166.5
t-65 122.5t-98 89.5t-123.5 66.5l19 30q70 -28 130.5 -68t106.5 -96t72.5 -132.5t26.5 -177.5q0 -80 -26 -139.5t-71.5 -92t-105.5 -32.5zM139 513l-17 31l311 161l17 -31z" />
    <glyph glyph-name="ntilde" unicode="&#xf1;" horiz-adv-x="532" 
d="M92 0v480h38l4 -74h3q37 37 76.5 61.5t88.5 24.5q75 0 110 -45.5t35 -138.5v-308h-44v302q0 77 -25.5 113.5t-84.5 36.5q-43 0 -77.5 -22.5t-79.5 -67.5v-362h-44zM360 579q-29 0 -48.5 14.5t-35.5 33.5t-31.5 33.5t-36.5 14.5q-27 0 -39.5 -26.5t-14.5 -66.5l-34 2
q2 32 10.5 60.5t27 47t51.5 18.5q29 0 48 -14.5t35 -33.5t32 -33.5t37 -14.5q27 0 39 27.5t14 65.5l34 -2q-2 -31 -10.5 -59.5t-26.5 -47.5t-51 -19z" />
    <glyph glyph-name="ograve" unicode="&#xf2;" horiz-adv-x="535" 
d="M267 -12q-57 0 -106.5 29.5t-79 86t-29.5 135.5q0 80 29.5 137t79 86.5t106.5 29.5q58 0 107 -29.5t79 -86.5t30 -137q0 -79 -30 -135.5t-79 -86t-107 -29.5zM267 27q49 0 87.5 26.5t60.5 74.5t22 111t-22 111.5t-60.5 75.5t-87.5 27q-48 0 -86 -27t-60.5 -75.5
t-22.5 -111.5t22.5 -111t60.5 -74.5t86 -26.5zM299 570l-152 149l3 5h52l137 -154h-40z" />
    <glyph glyph-name="oacute" unicode="&#xf3;" horiz-adv-x="535" 
d="M267 -12q-57 0 -106.5 29.5t-79 86t-29.5 135.5q0 80 29.5 137t79 86.5t106.5 29.5q58 0 107 -29.5t79 -86.5t30 -137q0 -79 -30 -135.5t-79 -86t-107 -29.5zM267 27q49 0 87.5 26.5t60.5 74.5t22 111t-22 111.5t-60.5 75.5t-87.5 27q-48 0 -86 -27t-60.5 -75.5
t-22.5 -111.5t22.5 -111t60.5 -74.5t86 -26.5zM195 570l137 154h52l3 -5l-152 -149h-40z" />
    <glyph glyph-name="ocircumflex" unicode="&#xf4;" horiz-adv-x="535" 
d="M267 -12q-57 0 -106.5 29.5t-79 86t-29.5 135.5q0 80 29.5 137t79 86.5t106.5 29.5q58 0 107 -29.5t79 -86.5t30 -137q0 -79 -30 -135.5t-79 -86t-107 -29.5zM267 27q49 0 87.5 26.5t60.5 74.5t22 111t-22 111.5t-60.5 75.5t-87.5 27q-48 0 -86 -27t-60.5 -75.5
t-22.5 -111.5t22.5 -111t60.5 -74.5t86 -26.5zM111 570l139 154h34l139 -154h-40l-114 112h-4l-114 -112h-40z" />
    <glyph glyph-name="otilde" unicode="&#xf5;" horiz-adv-x="535" 
d="M267 -12q-57 0 -106.5 29.5t-79 86t-29.5 135.5q0 80 29.5 137t79 86.5t106.5 29.5q58 0 107 -29.5t79 -86.5t30 -137q0 -79 -30 -135.5t-79 -86t-107 -29.5zM267 27q49 0 87.5 26.5t60.5 74.5t22 111t-22 111.5t-60.5 75.5t-87.5 27q-48 0 -86 -27t-60.5 -75.5
t-22.5 -111.5t22.5 -111t60.5 -74.5t86 -26.5zM343 579q-29 0 -48.5 14.5t-35.5 33.5t-31.5 33.5t-36.5 14.5q-27 0 -39.5 -26.5t-14.5 -66.5l-34 2q2 32 10.5 60.5t27 47t51.5 18.5q29 0 48 -14.5t35 -33.5t32 -33.5t37 -14.5q27 0 39 27.5t14 65.5l34 -2
q-2 -31 -10.5 -59.5t-26.5 -47.5t-51 -19z" />
    <glyph glyph-name="odieresis" unicode="&#xf6;" horiz-adv-x="535" 
d="M267 -12q-57 0 -106.5 29.5t-79 86t-29.5 135.5q0 80 29.5 137t79 86.5t106.5 29.5q58 0 107 -29.5t79 -86.5t30 -137q0 -79 -30 -135.5t-79 -86t-107 -29.5zM267 27q49 0 87.5 26.5t60.5 74.5t22 111t-22 111.5t-60.5 75.5t-87.5 27q-48 0 -86 -27t-60.5 -75.5
t-22.5 -111.5t22.5 -111t60.5 -74.5t86 -26.5zM178 598q-15 0 -26 11t-11 26q0 16 11 26.5t26 10.5q16 0 26.5 -10.5t10.5 -26.5q0 -15 -10.5 -26t-26.5 -11zM356 598q-15 0 -26 11t-11 26q0 16 11 26.5t26 10.5q16 0 26.5 -10.5t10.5 -26.5q0 -15 -10.5 -26t-26.5 -11z" />
    <glyph glyph-name="divide" unicode="&#xf7;" horiz-adv-x="479" 
d="M34 311v38h411v-38h-411zM239 109q-15 0 -26.5 11.5t-11.5 29.5q0 17 11.5 28t26.5 11q17 0 27.5 -11t10.5 -28q0 -18 -10.5 -29.5t-27.5 -11.5zM239 469q-15 0 -26.5 11.5t-11.5 29.5q0 17 11.5 28t26.5 11q17 0 27.5 -11t10.5 -28q0 -18 -10.5 -29.5t-27.5 -11.5z" />
    <glyph glyph-name="oslash" unicode="&#xf8;" horiz-adv-x="535" 
d="M268 -12q-58 0 -107.5 29.5t-79 86t-29.5 135.5q0 80 29.5 137t79 86.5t106.5 29.5q58 0 107 -29.5t79 -86.5t30 -137q0 -79 -30 -135.5t-79 -86t-106 -29.5zM268 26q48 0 86.5 27t61 74.5t22.5 110.5q0 65 -22 113.5t-61 75.5t-88 27q-48 0 -86.5 -27t-61 -75.5
t-22.5 -111.5q0 -64 22.5 -112t61 -75t87.5 -27zM73 -24l-29 24l418 503l29 -24z" />
    <glyph glyph-name="ugrave" unicode="&#xf9;" horiz-adv-x="529" 
d="M230 -12q-74 0 -109.5 45.5t-35.5 138.5v308h44v-302q0 -76 26 -113t83 -37q43 0 78 23.5t77 74.5v354h44v-480h-37l-5 80h-2q-35 -41 -74 -66.5t-89 -25.5zM295 570l-152 149l3 5h52l137 -154h-40z" />
    <glyph glyph-name="uacute" unicode="&#xfa;" horiz-adv-x="529" 
d="M230 -12q-74 0 -109.5 45.5t-35.5 138.5v308h44v-302q0 -76 26 -113t83 -37q43 0 78 23.5t77 74.5v354h44v-480h-37l-5 80h-2q-35 -41 -74 -66.5t-89 -25.5zM191 570l137 154h52l3 -5l-152 -149h-40z" />
    <glyph glyph-name="ucircumflex" unicode="&#xfb;" horiz-adv-x="529" 
d="M230 -12q-74 0 -109.5 45.5t-35.5 138.5v308h44v-302q0 -76 26 -113t83 -37q43 0 78 23.5t77 74.5v354h44v-480h-37l-5 80h-2q-35 -41 -74 -66.5t-89 -25.5zM107 570l139 154h34l139 -154h-40l-114 112h-4l-114 -112h-40z" />
    <glyph glyph-name="udieresis" unicode="&#xfc;" horiz-adv-x="529" 
d="M230 -12q-74 0 -109.5 45.5t-35.5 138.5v308h44v-302q0 -76 26 -113t83 -37q43 0 78 23.5t77 74.5v354h44v-480h-37l-5 80h-2q-35 -41 -74 -66.5t-89 -25.5zM174 598q-15 0 -26 11t-11 26q0 16 11 26.5t26 10.5q16 0 26.5 -10.5t10.5 -26.5q0 -15 -10.5 -26t-26.5 -11z
M352 598q-15 0 -26 11t-11 26q0 16 11 26.5t26 10.5q16 0 26.5 -10.5t10.5 -26.5q0 -15 -10.5 -26t-26.5 -11z" />
    <glyph glyph-name="yacute" unicode="&#xfd;" horiz-adv-x="436" 
d="M73 -219q-14 0 -27 3t-22 8l12 37q8 -3 18 -5t19 -2q44 0 74.5 36.5t48.5 90.5l13 42l-197 489h48l116 -302q11 -30 25 -66t27 -68h4q11 32 22.5 68t21.5 66l103 302h45l-190 -540q-13 -40 -34.5 -76.5t-52.5 -59.5t-74 -23zM154 570l137 154h52l3 -5l-152 -149h-40z" />
    <glyph glyph-name="thorn" unicode="&#xfe;" horiz-adv-x="544" 
d="M92 -217v936h44v-207v-91q36 28 77.5 49.5t85.5 21.5q64 0 107 -30t64.5 -85.5t21.5 -129.5q0 -81 -29.5 -139t-77.5 -89t-105 -31q-34 0 -70.5 15.5t-73.5 42.5v-88v-175h-44zM278 27q49 0 86.5 28t59 77.5t21.5 114.5q0 59 -15 105.5t-48.5 73.5t-88.5 27
q-36 0 -74.5 -20t-82.5 -59v-285q41 -34 78 -48t64 -14z" />
    <glyph glyph-name="ydieresis" unicode="&#xff;" horiz-adv-x="436" 
d="M73 -219q-14 0 -27 3t-22 8l12 37q8 -3 18 -5t19 -2q44 0 74.5 36.5t48.5 90.5l13 42l-197 489h48l116 -302q11 -30 25 -66t27 -68h4q11 32 22.5 68t21.5 66l103 302h45l-190 -540q-13 -40 -34.5 -76.5t-52.5 -59.5t-74 -23zM137 598q-15 0 -26 11t-11 26q0 16 11 26.5
t26 10.5q16 0 26.5 -10.5t10.5 -26.5q0 -15 -10.5 -26t-26.5 -11zM315 598q-15 0 -26 11t-11 26q0 16 11 26.5t26 10.5q16 0 26.5 -10.5t10.5 -26.5q0 -15 -10.5 -26t-26.5 -11z" />
    <glyph glyph-name="Amacron" unicode="&#x100;" horiz-adv-x="526" 
d="M8 0l232 659h46l232 -659h-48l-132 388q-20 59 -38 113.5t-35 114.5h-4q-17 -60 -35 -114.5t-38 -113.5l-134 -388h-46zM114 226v39h295v-39h-295zM139 743v36h248v-36h-248z" />
    <glyph glyph-name="amacron" unicode="&#x101;" horiz-adv-x="491" 
d="M197 -12q-38 0 -69.5 14t-50.5 43.5t-19 73.5q0 81 75 122.5t235 59.5q0 37 -8.5 72t-33 57.5t-72.5 22.5t-88 -18.5t-65 -35.5l-20 31q17 13 44 27.5t61.5 24.5t73.5 10q56 0 89.5 -25t48 -67t14.5 -93v-307h-38l-4 62h-3q-36 -29 -79.5 -51.5t-90.5 -22.5zM205 27
q41 0 79.5 19.5t83.5 57.5v162q-99 -11 -157 -30.5t-83 -47.5t-25 -66q0 -51 30.5 -73t71.5 -22zM139 606v36h246v-36h-246z" />
    <glyph glyph-name="Abreve" unicode="&#x102;" horiz-adv-x="526" 
d="M8 0l232 659h46l232 -659h-48l-132 388q-20 59 -38 113.5t-35 114.5h-4q-17 -60 -35 -114.5t-38 -113.5l-134 -388h-46zM114 226v39h295v-39h-295zM263 710q-44 0 -72.5 19t-44 47.5t-19.5 57.5l33 5q5 -38 30 -66.5t73 -28.5t73 28.5t30 66.5l33 -5q-3 -29 -19 -57.5
t-44 -47.5t-73 -19z" />
    <glyph glyph-name="abreve" unicode="&#x103;" horiz-adv-x="491" 
d="M197 -12q-38 0 -69.5 14t-50.5 43.5t-19 73.5q0 81 75 122.5t235 59.5q0 37 -8.5 72t-33 57.5t-72.5 22.5t-88 -18.5t-65 -35.5l-20 31q17 13 44 27.5t61.5 24.5t73.5 10q56 0 89.5 -25t48 -67t14.5 -93v-307h-38l-4 62h-3q-36 -29 -79.5 -51.5t-90.5 -22.5zM205 27
q41 0 79.5 19.5t83.5 57.5v162q-99 -11 -157 -30.5t-83 -47.5t-25 -66q0 -51 30.5 -73t71.5 -22zM262 570q-51 0 -82.5 23t-47 57.5t-19.5 66.5l33 5q4 -28 17.5 -55t38 -45t60.5 -18q37 0 61 18t37.5 45t17.5 55l33 -5q-4 -32 -19.5 -66.5t-46.5 -57.5t-83 -23z" />
    <glyph glyph-name="Aogonek" unicode="&#x104;" horiz-adv-x="526" 
d="M490 -215q-38 0 -65.5 21t-27.5 66q0 27 11.5 51t30 44t36.5 33h-5l-132 388q-20 59 -38 113.5t-35 114.5h-4q-17 -60 -35 -114.5t-38 -113.5l-134 -388h-46l232 659h46l232 -659q-33 -23 -57 -56t-24 -65q0 -30 18.5 -43.5t39.5 -13.5q17 0 30 5t25 14l16 -27
q-13 -11 -33 -20t-43 -9zM114 226v39h296v-39h-296z" />
    <glyph glyph-name="aogonek" unicode="&#x105;" horiz-adv-x="491" 
d="M381 -213q-38 0 -64 21t-26 67q0 25 12 50t31 46t40 36l-4 55h-3q-36 -29 -79.5 -51.5t-90.5 -22.5q-38 0 -69.5 14t-50.5 43t-19 74q0 81 75 122.5t235 59.5q0 37 -8.5 72t-33 57.5t-72.5 22.5t-88 -18.5t-65 -35.5l-20 31q17 13 44 27.5t61.5 24.5t73.5 10
q56 0 89.5 -25t48 -67t14.5 -93v-307q-34 -20 -58 -53.5t-24 -65.5q0 -30 17.5 -43.5t38.5 -13.5q17 0 29 4.5t25 14.5l16 -27q-14 -11 -33 -20t-42 -9zM205 27q41 0 79.5 19.5t83.5 57.5v162q-99 -11 -157 -30.5t-83 -47.5t-25 -66q0 -51 30.5 -73t71.5 -22z" />
    <glyph glyph-name="Cacute" unicode="&#x106;" horiz-adv-x="564" 
d="M331 -12q-81 0 -143.5 42t-97.5 119t-35 182q0 78 20 141t57.5 107.5t89 68t114.5 23.5q57 0 101.5 -23t70.5 -56l-27 -28q-27 31 -63.5 48t-80.5 17q-72 0 -124.5 -36.5t-81 -103t-28.5 -158.5q0 -91 28 -159t80 -105t123 -37q51 0 91 19t76 59l25 -26
q-37 -43 -83.5 -68.5t-111.5 -25.5zM251 709l138 124h62l3 -5l-157 -119h-46z" />
    <glyph glyph-name="cacute" unicode="&#x107;" horiz-adv-x="449" 
d="M270 -12q-62 0 -111.5 29.5t-78 86t-28.5 135.5q0 80 30.5 137t80.5 86.5t108 29.5q50 0 83 -16.5t58 -42.5l-24 -27q-21 22 -50 34.5t-66 12.5q-49 0 -88 -27t-62.5 -75t-23.5 -112q0 -63 21.5 -111t60.5 -74.5t92 -26.5q39 0 72 14.5t56 38.5l23 -27q-30 -29 -68 -47
t-85 -18zM199 570l137 154h52l3 -5l-152 -149h-40z" />
    <glyph glyph-name="Ccircumflex" unicode="&#x108;" horiz-adv-x="564" 
d="M331 -12q-81 0 -143.5 42t-97.5 119t-35 182q0 78 20 141t57.5 107.5t89 68t114.5 23.5q57 0 101.5 -23t70.5 -56l-27 -28q-27 31 -63.5 48t-80.5 17q-72 0 -124.5 -36.5t-81 -103t-28.5 -158.5q0 -91 28 -159t80 -105t123 -37q51 0 91 19t76 59l25 -26
q-37 -43 -83.5 -68.5t-111.5 -25.5zM166 709l139 124h36l139 -124h-44l-111 88h-4l-111 -88h-44z" />
    <glyph glyph-name="ccircumflex" unicode="&#x109;" horiz-adv-x="449" 
d="M270 -12q-62 0 -111.5 29.5t-78 86t-28.5 135.5q0 80 30.5 137t80.5 86.5t108 29.5q50 0 83 -16.5t58 -42.5l-24 -27q-21 22 -50 34.5t-66 12.5q-49 0 -88 -27t-62.5 -75t-23.5 -112q0 -63 21.5 -111t60.5 -74.5t92 -26.5q39 0 72 14.5t56 38.5l23 -27q-30 -29 -68 -47
t-85 -18zM115 570l139 154h34l139 -154h-40l-114 112h-4l-114 -112h-40z" />
    <glyph glyph-name="Cdotaccent" unicode="&#x10a;" horiz-adv-x="564" 
d="M331 -12q-81 0 -143.5 42t-97.5 119t-35 182q0 78 20 141t57.5 107.5t89 68t114.5 23.5q57 0 101.5 -23t70.5 -56l-27 -28q-27 31 -63.5 48t-80.5 17q-72 0 -124.5 -36.5t-81 -103t-28.5 -158.5q0 -91 28 -159t80 -105t123 -37q51 0 91 19t76 59l25 -26
q-37 -43 -83.5 -68.5t-111.5 -25.5zM323 721q-16 0 -28 11.5t-12 29.5q0 17 12 28t28 11q17 0 28.5 -11t11.5 -28q0 -18 -11.5 -29.5t-28.5 -11.5z" />
    <glyph glyph-name="cdotaccent" unicode="&#x10b;" horiz-adv-x="449" 
d="M270 -12q-62 0 -111.5 29.5t-78 86t-28.5 135.5q0 80 30.5 137t80.5 86.5t108 29.5q50 0 83 -16.5t58 -42.5l-24 -27q-21 22 -50 34.5t-66 12.5q-49 0 -88 -27t-62.5 -75t-23.5 -112q0 -63 21.5 -111t60.5 -74.5t92 -26.5q39 0 72 14.5t56 38.5l23 -27q-30 -29 -68 -47
t-85 -18zM271 596q-16 0 -27 11.5t-11 29.5t11 28.5t27 10.5q17 0 27.5 -10.5t10.5 -28.5t-10.5 -29.5t-27.5 -11.5z" />
    <glyph glyph-name="Ccaron" unicode="&#x10c;" horiz-adv-x="564" 
d="M331 -12q-81 0 -143.5 42t-97.5 119t-35 182q0 78 20 141t57.5 107.5t89 68t114.5 23.5q57 0 101.5 -23t70.5 -56l-27 -28q-27 31 -63.5 48t-80.5 17q-72 0 -124.5 -36.5t-81 -103t-28.5 -158.5q0 -91 28 -159t80 -105t123 -37q51 0 91 19t76 59l25 -26
q-37 -43 -83.5 -68.5t-111.5 -25.5zM305 711l-139 122h44l111 -85h4l111 85h44l-139 -122h-36z" />
    <glyph glyph-name="ccaron" unicode="&#x10d;" horiz-adv-x="449" 
d="M270 -12q-62 0 -111.5 29.5t-78 86t-28.5 135.5q0 80 30.5 137t80.5 86.5t108 29.5q50 0 83 -16.5t58 -42.5l-24 -27q-21 22 -50 34.5t-66 12.5q-49 0 -88 -27t-62.5 -75t-23.5 -112q0 -63 21.5 -111t60.5 -74.5t92 -26.5q39 0 72 14.5t56 38.5l23 -27q-30 -29 -68 -47
t-85 -18zM254 570l-139 154h40l114 -112h4l114 112h40l-139 -154h-34z" />
    <glyph glyph-name="Dcaron" unicode="&#x10e;" horiz-adv-x="604" 
d="M97 0v659h153q101 0 167.5 -40t99 -114t32.5 -173q0 -100 -32.5 -174.5t-98.5 -116t-167 -41.5h-154zM143 39h102q89 0 145.5 37.5t83.5 103.5t27 152t-27 151t-83.5 101t-145.5 36h-102v-581zM285 711l-139 122h44l111 -85h4l111 85h44l-139 -122h-36z" />
    <glyph glyph-name="dcaron" unicode="&#x10f;" horiz-adv-x="549" 
d="M251 -12q-90 0 -144.5 65t-54.5 186q0 78 29.5 134.5t78 87.5t105.5 31q44 0 77 -15t68 -44l-2 88v198h44v-719h-38l-4 62h-3q-29 -29 -68.5 -51.5t-87.5 -22.5zM257 27q40 0 76.5 20.5t74.5 58.5v285q-38 34 -71 48t-69 14q-48 0 -86 -28t-60.5 -76.5t-22.5 -109.5
q0 -95 41 -153.5t117 -58.5zM517 548l-3 206h38v-50l-8 -156h-27z" />
    <glyph glyph-name="Dcroat" unicode="&#x110;" horiz-adv-x="624" 
d="M23 331v34l97 4h207v-38h-304zM118 0v659h153q101 0 167.5 -40t99 -114t32.5 -173q0 -100 -32.5 -174.5t-98.5 -116t-167 -41.5h-154zM164 39h102q89 0 145.5 37.5t83.5 103.5t27 152t-27 151t-83.5 101t-145.5 36h-102v-581z" />
    <glyph glyph-name="dcroat" unicode="&#x111;" horiz-adv-x="561" 
d="M251 -12q-60 0 -105 27t-69.5 79.5t-24.5 127.5q0 72 29.5 125t78 82t105.5 29q44 0 77 -15t68 -44l-2 89v231h44v-719h-38l-5 62h-2q-29 -30 -68 -52t-88 -22zM257 27q40 0 76.5 20.5t74.5 58.5v251q-38 34 -71 48t-69 14q-48 0 -86 -26t-60.5 -71t-22.5 -99
q0 -87 41 -141.5t117 -54.5zM218 577v38h324v-34l-91 -4h-233z" />
    <glyph glyph-name="Emacron" unicode="&#x112;" horiz-adv-x="515" 
d="M97 0v659h361v-40h-315v-249h264v-40h-264v-290h325v-40h-371zM166 743v36h248v-36h-248z" />
    <glyph glyph-name="emacron" unicode="&#x113;" horiz-adv-x="483" 
d="M274 -12q-62 0 -112 30t-80 86.5t-30 134.5q0 79 30 135.5t77.5 87t101.5 30.5q57 0 98.5 -26t63.5 -75.5t22 -120.5q0 -8 -0.5 -17.5t-2.5 -19.5h-363v38h324q0 92 -38 137.5t-103 45.5q-40 0 -78 -23t-62.5 -70.5t-24.5 -119.5q0 -66 24 -114.5t65 -74t92 -25.5
q39 0 71.5 10.5t57.5 28.5l18 -31q-28 -19 -63 -33t-88 -14zM138 606v36h246v-36h-246z" />
    <glyph glyph-name="Ebreve" unicode="&#x114;" horiz-adv-x="515" 
d="M97 0v659h361v-40h-315v-249h264v-40h-264v-290h325v-40h-371zM290 710q-44 0 -72.5 19t-44 47.5t-19.5 57.5l33 5q5 -38 30 -66.5t73 -28.5t73 28.5t30 66.5l33 -5q-3 -29 -19 -57.5t-44 -47.5t-73 -19z" />
    <glyph glyph-name="ebreve" unicode="&#x115;" horiz-adv-x="483" 
d="M274 -12q-62 0 -112 30t-80 86.5t-30 134.5q0 79 30 135.5t77.5 87t101.5 30.5q57 0 98.5 -26t63.5 -75.5t22 -120.5q0 -8 -0.5 -17.5t-2.5 -19.5h-363v38h324q0 92 -38 137.5t-103 45.5q-40 0 -78 -23t-62.5 -70.5t-24.5 -119.5q0 -66 24 -114.5t65 -74t92 -25.5
q39 0 71.5 10.5t57.5 28.5l18 -31q-28 -19 -63 -33t-88 -14zM261 570q-51 0 -82.5 23t-47 57.5t-19.5 66.5l33 5q4 -28 17.5 -55t38 -45t60.5 -18q37 0 61 18t37.5 45t17.5 55l33 -5q-4 -32 -19.5 -66.5t-46.5 -57.5t-83 -23z" />
    <glyph glyph-name="Edotaccent" unicode="&#x116;" horiz-adv-x="515" 
d="M97 0v659h361v-40h-315v-249h264v-40h-264v-290h325v-40h-371zM290 721q-16 0 -28 11.5t-12 29.5q0 17 12 28t28 11q17 0 28.5 -11t11.5 -28q0 -18 -11.5 -29.5t-28.5 -11.5z" />
    <glyph glyph-name="edotaccent" unicode="&#x117;" horiz-adv-x="483" 
d="M274 -12q-62 0 -112 30t-80 86.5t-30 134.5q0 79 30 135.5t77.5 87t101.5 30.5q57 0 98.5 -26t63.5 -75.5t22 -120.5q0 -8 -0.5 -17.5t-2.5 -19.5h-363v38h324q0 92 -38 137.5t-103 45.5q-40 0 -78 -23t-62.5 -70.5t-24.5 -119.5q0 -66 24 -114.5t65 -74t92 -25.5
q39 0 71.5 10.5t57.5 28.5l18 -31q-28 -19 -63 -33t-88 -14zM261 596q-16 0 -27 11.5t-11 29.5t11 28.5t27 10.5q17 0 27.5 -10.5t10.5 -28.5t-10.5 -29.5t-27.5 -11.5z" />
    <glyph glyph-name="Eogonek" unicode="&#x118;" horiz-adv-x="515" 
d="M415 -215q-38 0 -65.5 21t-27.5 66q0 42 24 75t56 53h-305v659h361v-40h-315v-249h264v-40h-264v-290h325v-40h-3q-19 0 -43 -18t-41.5 -45.5t-17.5 -57.5t18 -43.5t40 -13.5q16 0 29 5t25 14l17 -27q-13 -11 -33 -20t-44 -9z" />
    <glyph glyph-name="eogonek" unicode="&#x119;" horiz-adv-x="483" 
d="M357 -213q-37 0 -63.5 21t-26.5 67q0 40 25.5 75t64.5 64l5 -8q-19 -9 -42.5 -13.5t-45.5 -4.5q-62 0 -112 30t-80 86.5t-30 134.5q0 79 30 135.5t77.5 87t101.5 30.5q57 0 98.5 -26t63.5 -75.5t22 -120.5q0 -8 -0.5 -17.5t-2.5 -19.5h-363v38h324q0 92 -38 137.5
t-103 45.5q-40 0 -78 -23t-62.5 -70.5t-24.5 -119.5q0 -66 24 -114.5t65 -74t92 -25.5q39 0 71.5 10.5t57.5 28.5l18 -31q-37 -23 -64 -49t-40.5 -53.5t-13.5 -51.5q0 -30 17.5 -43.5t38.5 -13.5q16 0 28 4.5t25 14.5l16 -27q-13 -11 -32 -20t-43 -9z" />
    <glyph glyph-name="Ecaron" unicode="&#x11a;" horiz-adv-x="515" 
d="M97 0v659h361v-40h-315v-249h264v-40h-264v-290h325v-40h-371zM272 711l-139 122h44l111 -85h4l111 85h44l-139 -122h-36z" />
    <glyph glyph-name="ecaron" unicode="&#x11b;" horiz-adv-x="483" 
d="M274 -12q-62 0 -112 30t-80 86.5t-30 134.5q0 79 30 135.5t77.5 87t101.5 30.5q57 0 98.5 -26t63.5 -75.5t22 -120.5q0 -8 -0.5 -17.5t-2.5 -19.5h-363v38h324q0 92 -38 137.5t-103 45.5q-40 0 -78 -23t-62.5 -70.5t-24.5 -119.5q0 -66 24 -114.5t65 -74t92 -25.5
q39 0 71.5 10.5t57.5 28.5l18 -31q-28 -19 -63 -33t-88 -14zM244 570l-139 154h40l114 -112h4l114 112h40l-139 -154h-34z" />
    <glyph glyph-name="Gcircumflex" unicode="&#x11c;" horiz-adv-x="605" 
d="M338 -12q-85 0 -148.5 42t-99 119t-35.5 182q0 78 21 140.5t59.5 107.5t92 68.5t118.5 23.5q67 0 110.5 -25.5t69.5 -53.5l-27 -30q-25 28 -61.5 47.5t-90.5 19.5q-76 0 -130.5 -36.5t-84 -103t-29.5 -158.5q0 -91 28.5 -159t81.5 -105t128 -37q45 0 84.5 13t63.5 37v205
h-158v39h202v-261q-31 -33 -80.5 -54t-114.5 -21zM186 709l139 124h36l139 -124h-44l-111 88h-4l-111 -88h-44z" />
    <glyph glyph-name="gcircumflex" unicode="&#x11d;" horiz-adv-x="487" 
d="M249 -231q-61 0 -105 16.5t-68 46t-24 70.5q0 32 19 62t52 54v4q-18 11 -30 30t-12 47q0 32 18 54.5t34 33.5v4q-22 20 -41 54.5t-19 77.5q0 49 22.5 87.5t61 60t85.5 21.5q20 0 36.5 -3.5t26.5 -8.5h163v-37h-112v-4q22 -18 37.5 -47t15.5 -70q0 -49 -22.5 -87t-60 -60
t-84.5 -22q-21 0 -42 5.5t-38 14.5q-15 -12 -27 -28.5t-12 -40.5q0 -26 19.5 -44.5t72.5 -18.5h103q81 0 119.5 -26.5t38.5 -83.5q0 -41 -28 -78t-79 -60.5t-120 -23.5zM242 188q33 0 61 17t45.5 47.5t17.5 70.5q0 62 -36.5 97.5t-87.5 35.5t-88 -35.5t-37 -97.5
q0 -40 17.5 -70.5t45.5 -47.5t62 -17zM254 -195q54 0 93.5 17.5t61.5 45.5t22 58q0 40 -28.5 56.5t-82.5 16.5h-103q-7 0 -24 2t-36 6q-33 -22 -48 -48.5t-15 -52.5q0 -45 42 -73t118 -28zM97 570l139 154h34l139 -154h-40l-114 112h-4l-114 -112h-40z" />
    <glyph glyph-name="Gbreve" unicode="&#x11e;" horiz-adv-x="605" 
d="M338 -12q-85 0 -148.5 42t-99 119t-35.5 182q0 78 21 140.5t59.5 107.5t92 68.5t118.5 23.5q67 0 110.5 -25.5t69.5 -53.5l-27 -30q-25 28 -61.5 47.5t-90.5 19.5q-76 0 -130.5 -36.5t-84 -103t-29.5 -158.5q0 -91 28.5 -159t81.5 -105t128 -37q45 0 84.5 13t63.5 37v205
h-158v39h202v-261q-31 -33 -80.5 -54t-114.5 -21zM343 710q-44 0 -72.5 19t-44 47.5t-19.5 57.5l33 5q5 -38 30 -66.5t73 -28.5t73 28.5t30 66.5l33 -5q-3 -29 -19 -57.5t-44 -47.5t-73 -19z" />
    <glyph glyph-name="gbreve" unicode="&#x11f;" horiz-adv-x="487" 
d="M249 -231q-61 0 -105 16.5t-68 46t-24 70.5q0 32 19 62t52 54v4q-18 11 -30 30t-12 47q0 32 18 54.5t34 33.5v4q-22 20 -41 54.5t-19 77.5q0 49 22.5 87.5t61 60t85.5 21.5q20 0 36.5 -3.5t26.5 -8.5h163v-37h-112v-4q22 -18 37.5 -47t15.5 -70q0 -49 -22.5 -87t-60 -60
t-84.5 -22q-21 0 -42 5.5t-38 14.5q-15 -12 -27 -28.5t-12 -40.5q0 -26 19.5 -44.5t72.5 -18.5h103q81 0 119.5 -26.5t38.5 -83.5q0 -41 -28 -78t-79 -60.5t-120 -23.5zM242 188q33 0 61 17t45.5 47.5t17.5 70.5q0 62 -36.5 97.5t-87.5 35.5t-88 -35.5t-37 -97.5
q0 -40 17.5 -70.5t45.5 -47.5t62 -17zM254 -195q54 0 93.5 17.5t61.5 45.5t22 58q0 40 -28.5 56.5t-82.5 16.5h-103q-7 0 -24 2t-36 6q-33 -22 -48 -48.5t-15 -52.5q0 -45 42 -73t118 -28zM253 570q-51 0 -82.5 23t-47 57.5t-19.5 66.5l33 5q4 -28 17.5 -55t38 -45t60.5 -18
q37 0 61 18t37.5 45t17.5 55l33 -5q-4 -32 -19.5 -66.5t-46.5 -57.5t-83 -23z" />
    <glyph glyph-name="Gdotaccent" unicode="&#x120;" horiz-adv-x="605" 
d="M338 -12q-85 0 -148.5 42t-99 119t-35.5 182q0 78 21 140.5t59.5 107.5t92 68.5t118.5 23.5q67 0 110.5 -25.5t69.5 -53.5l-27 -30q-25 28 -61.5 47.5t-90.5 19.5q-76 0 -130.5 -36.5t-84 -103t-29.5 -158.5q0 -91 28.5 -159t81.5 -105t128 -37q45 0 84.5 13t63.5 37v205
h-158v39h202v-261q-31 -33 -80.5 -54t-114.5 -21zM343 721q-16 0 -28 11.5t-12 29.5q0 17 12 28t28 11q17 0 28.5 -11t11.5 -28q0 -18 -11.5 -29.5t-28.5 -11.5z" />
    <glyph glyph-name="gdotaccent" unicode="&#x121;" horiz-adv-x="487" 
d="M249 -231q-61 0 -105 16.5t-68 46t-24 70.5q0 32 19 62t52 54v4q-18 11 -30 30t-12 47q0 32 18 54.5t34 33.5v4q-22 20 -41 54.5t-19 77.5q0 49 22.5 87.5t61 60t85.5 21.5q20 0 36.5 -3.5t26.5 -8.5h163v-37h-112v-4q22 -18 37.5 -47t15.5 -70q0 -49 -22.5 -87t-60 -60
t-84.5 -22q-21 0 -42 5.5t-38 14.5q-15 -12 -27 -28.5t-12 -40.5q0 -26 19.5 -44.5t72.5 -18.5h103q81 0 119.5 -26.5t38.5 -83.5q0 -41 -28 -78t-79 -60.5t-120 -23.5zM242 188q33 0 61 17t45.5 47.5t17.5 70.5q0 62 -36.5 97.5t-87.5 35.5t-88 -35.5t-37 -97.5
q0 -40 17.5 -70.5t45.5 -47.5t62 -17zM254 -195q54 0 93.5 17.5t61.5 45.5t22 58q0 40 -28.5 56.5t-82.5 16.5h-103q-7 0 -24 2t-36 6q-33 -22 -48 -48.5t-15 -52.5q0 -45 42 -73t118 -28zM253 596q-16 0 -27 11.5t-11 29.5t11 28.5t27 10.5q17 0 27.5 -10.5t10.5 -28.5
t-10.5 -29.5t-27.5 -11.5z" />
    <glyph glyph-name="uni0122" unicode="&#x122;" horiz-adv-x="605" 
d="M338 -12q-85 0 -148.5 42t-99 119t-35.5 182q0 78 21 140.5t59.5 107.5t92 68.5t118.5 23.5q67 0 110.5 -25.5t69.5 -53.5l-27 -30q-25 28 -61.5 47.5t-90.5 19.5q-76 0 -130.5 -36.5t-84 -103t-29.5 -158.5q0 -91 28.5 -159t81.5 -105t128 -37q45 0 84.5 13t63.5 37v205
h-158v39h202v-261q-31 -33 -80.5 -54t-114.5 -21zM266 -219l-7 30q65 5 89 18t24 34q0 23 -20.5 33.5t-56.5 13.5l13 29q57 -9 80 -25t23 -48q0 -39 -37 -59.5t-108 -25.5z" />
    <glyph glyph-name="uni0123" unicode="&#x123;" horiz-adv-x="487" 
d="M249 -231q-61 0 -105 16.5t-68 46t-24 70.5q0 32 19 62t52 54v4q-18 11 -30 30t-12 47q0 32 18 54.5t34 33.5v4q-22 20 -41 54.5t-19 77.5q0 49 22.5 87.5t61 60t85.5 21.5q20 0 36.5 -3.5t26.5 -8.5h163v-37h-112v-4q22 -18 37.5 -47t15.5 -70q0 -49 -22.5 -87t-60 -60
t-84.5 -22q-21 0 -42 5.5t-38 14.5q-15 -12 -27 -28.5t-12 -40.5q0 -26 19.5 -44.5t72.5 -18.5h103q81 0 119.5 -26.5t38.5 -83.5q0 -41 -28 -78t-79 -60.5t-120 -23.5zM242 188q33 0 61 17t45.5 47.5t17.5 70.5q0 62 -36.5 97.5t-87.5 35.5t-88 -35.5t-37 -97.5
q0 -40 17.5 -70.5t45.5 -47.5t62 -17zM254 -195q54 0 93.5 17.5t61.5 45.5t22 58q0 40 -28.5 56.5t-82.5 16.5h-103q-7 0 -24 2t-36 6q-33 -22 -48 -48.5t-15 -52.5q0 -45 42 -73t118 -28zM288 579q-57 8 -80 24.5t-23 48.5q0 40 37.5 60.5t107.5 24.5l7 -30q-65 -4 -89 -17
t-24 -36q0 -22 20.5 -32.5t56.5 -13.5z" />
    <glyph glyph-name="Hcircumflex" unicode="&#x124;" horiz-adv-x="639" 
d="M97 0v659h46v-289h353v289h46v-659h-46v330h-353v-330h-46zM161 709l139 124h36l139 -124h-44l-111 88h-4l-111 -88h-44z" />
    <glyph glyph-name="hcircumflex" unicode="&#x125;" horiz-adv-x="528" 
d="M92 0v719h44v-208v-106q37 37 77 62t89 25q75 0 110 -45.5t35 -138.5v-308h-44v302q0 77 -25.5 113.5t-84.5 36.5q-43 0 -77.5 -22.5t-79.5 -67.5v-362h-44zM127 759l139 124h36l139 -124h-44l-111 88h-4l-111 -88h-44z" />
    <glyph glyph-name="Hbar" unicode="&#x126;" horiz-adv-x="679" 
d="M22 493v33l98 5h533v-38h-631zM117 0v659h46v-289h353v289h46v-659h-46v330h-353v-330h-46z" />
    <glyph glyph-name="hbar" unicode="&#x127;" horiz-adv-x="546" 
d="M110 0v719h44v-242v-106q37 37 77 62t89 25q75 0 110 -45.5t35 -138.5v-274h-44v268q0 77 -25.5 114t-84.5 37q-42 0 -77.5 -23t-79.5 -68v-328h-44zM19 577v33l92 5h233v-38h-325z" />
    <glyph glyph-name="Itilde" unicode="&#x128;" horiz-adv-x="240" 
d="M97 0v659h46v-659h-46zM197 718q-28 0 -48.5 12.5t-36.5 27.5t-32 27t-37 12q-22 0 -37 -20.5t-18 -55.5l-33 3q3 47 25 78.5t63 31.5q28 0 48.5 -12t36.5 -27.5t32 -27.5t37 -12q22 0 36.5 21t18.5 56l33 -3q-2 -47 -24.5 -79t-63.5 -32z" />
    <glyph glyph-name="itilde" unicode="&#x129;" horiz-adv-x="229" 
d="M92 0v480h44v-480h-44zM189 579q-29 0 -48.5 14.5t-35.5 33.5t-31.5 33.5t-36.5 14.5q-27 0 -39.5 -26.5t-14.5 -66.5l-34 2q2 32 10.5 60.5t27 47t51.5 18.5q29 0 48 -14.5t35 -33.5t32 -33.5t37 -14.5q27 0 39 27.5t14 65.5l34 -2q-2 -31 -10.5 -59.5t-26.5 -47.5
t-51 -19z" />
    <glyph glyph-name="Imacron" unicode="&#x12a;" horiz-adv-x="240" 
d="M97 0v659h46v-659h-46zM-4 743v36h248v-36h-248z" />
    <glyph glyph-name="imacron" unicode="&#x12b;" horiz-adv-x="229" 
d="M92 0v480h44v-480h-44zM-10 606v36h246v-36h-246z" />
    <glyph glyph-name="Ibreve" unicode="&#x12c;" horiz-adv-x="240" 
d="M97 0v659h46v-659h-46zM120 710q-44 0 -72.5 19t-44 47.5t-19.5 57.5l33 5q5 -38 30 -66.5t73 -28.5t73 28.5t30 66.5l33 -5q-3 -29 -19 -57.5t-44 -47.5t-73 -19z" />
    <glyph glyph-name="ibreve" unicode="&#x12d;" horiz-adv-x="229" 
d="M92 0v480h44v-480h-44zM113 570q-51 0 -82.5 23t-47 57.5t-19.5 66.5l33 5q4 -28 17.5 -55t38 -45t60.5 -18q37 0 61 18t37.5 45t17.5 55l33 -5q-4 -32 -19.5 -66.5t-46.5 -57.5t-83 -23z" />
    <glyph glyph-name="Iogonek" unicode="&#x12e;" horiz-adv-x="240" 
d="M127 -215q-39 0 -66 21t-27 66q0 39 22 70.5t49 57.5h-8v659h46v-659q-27 -27 -48 -58t-21 -63q0 -30 18.5 -43.5t39.5 -13.5q17 0 30 5t25 14l16 -27q-13 -11 -33 -20t-43 -9z" />
    <glyph glyph-name="iogonek" unicode="&#x12f;" horiz-adv-x="229" 
d="M120 -213q-37 0 -63.5 21t-26.5 67q0 25 10 47.5t25.5 41.5t32.5 36h-6v480h44v-480q-26 -26 -46 -56.5t-20 -62.5q0 -30 17 -43.5t39 -13.5q16 0 28 4.5t25 14.5l16 -27q-13 -11 -32 -20t-43 -9zM115 596q-16 0 -27 11.5t-11 29.5t11 28.5t27 10.5q17 0 27.5 -10.5
t10.5 -28.5t-10.5 -29.5t-27.5 -11.5z" />
    <glyph glyph-name="Idotaccent" unicode="&#x130;" horiz-adv-x="240" 
d="M97 0v659h46v-659h-46zM120 721q-16 0 -28 11.5t-12 29.5q0 17 12 28t28 11q17 0 28.5 -11t11.5 -28q0 -18 -11.5 -29.5t-28.5 -11.5z" />
    <glyph glyph-name="dotlessi" unicode="&#x131;" horiz-adv-x="229" 
d="M92 0v480h44v-480h-44z" />
    <glyph glyph-name="IJ" unicode="&#x132;" horiz-adv-x="481" 
d="M97 0v659h46v-659h-46zM274 -156q-17 0 -33.5 4t-27.5 9l10 39q9 -3 22.5 -6t27.5 -3q41 0 53 29.5t12 74.5v668h46v-674q0 -47 -12 -78t-36.5 -47t-61.5 -16z" />
    <glyph glyph-name="ij" unicode="&#x133;" horiz-adv-x="457" 
d="M92 0v480h44v-480h-44zM113 596q-16 0 -27 11.5t-11 29.5t11 28.5t27 10.5q17 0 27.5 -10.5t10.5 -28.5t-10.5 -29.5t-27.5 -11.5zM258 -229q-15 0 -32.5 4t-29.5 10l11 34q9 -3 23.5 -6.5t26.5 -3.5q41 0 52.5 29.5t11.5 75.5v566h45v-569q0 -47 -12 -78t-35.5 -46.5
t-60.5 -15.5zM343 596q-16 0 -27 11.5t-11 29.5t11 28.5t27 10.5q17 0 27.5 -10.5t10.5 -28.5t-10.5 -29.5t-27.5 -11.5z" />
    <glyph glyph-name="Jcircumflex" unicode="&#x134;" horiz-adv-x="462" 
d="M202 -12q-54 0 -95 25t-66 72l34 22q25 -41 55.5 -59t71.5 -18q61 0 90 37t29 118v474h46v-479q0 -54 -16.5 -97t-52.5 -69t-96 -26zM184 709l139 124h36l139 -124h-44l-111 88h-4l-111 -88h-44z" />
    <glyph glyph-name="jcircumflex" unicode="&#x135;" horiz-adv-x="229" 
d="M29 -229q-15 0 -32.5 4t-29.5 10l11 34q9 -3 23.5 -6.5t26.5 -3.5q41 0 52.5 29.5t11.5 75.5v566h45v-569q0 -47 -12 -78t-35.5 -46.5t-60.5 -15.5zM-41 570l139 154h34l139 -154h-40l-114 112h-4l-114 -112h-40z" />
    <glyph glyph-name="uni0136" unicode="&#x136;" horiz-adv-x="558" 
d="M97 0v659h46v-366h2l319 366h55l-210 -244l239 -415h-53l-218 380l-134 -153v-227h-46zM248 -219l-7 30q65 5 89 18t24 34q0 23 -20.5 33.5t-56.5 13.5l13 29q57 -9 80 -25t23 -48q0 -39 -37 -59.5t-108 -25.5z" />
    <glyph glyph-name="uni0137" unicode="&#x137;" horiz-adv-x="464" 
d="M92 0v719h44v-530h2l237 291h51l-156 -190l182 -290h-49l-159 257l-108 -126v-131h-44zM187 -219l-7 30q65 5 89 18t24 34q0 23 -20.5 33.5t-56.5 13.5l13 29q57 -9 80 -25t23 -48q0 -39 -37 -59.5t-108 -25.5z" />
    <glyph glyph-name="kgreenlandic" unicode="&#x138;" horiz-adv-x="464" 
d="M92 0v480h44v-291h3l236 291h51l-156 -190l182 -290h-49l-159 257l-108 -127v-130h-44z" />
    <glyph glyph-name="Lacute" unicode="&#x139;" horiz-adv-x="467" 
d="M97 0v659h46v-619h304v-40h-350zM49 709l138 124h62l3 -5l-157 -119h-46z" />
    <glyph glyph-name="lacute" unicode="&#x13a;" horiz-adv-x="237" 
d="M151 -8q-20 0 -33 8t-19.5 25t-6.5 43v651h44v-657q0 -17 6.5 -24t16.5 -7q3 0 6.5 0.5t9.5 1.5l8 -35q-7 -3 -14.5 -4.5t-17.5 -1.5zM42 759l138 124h62l3 -5l-157 -119h-46z" />
    <glyph glyph-name="uni013B" unicode="&#x13b;" horiz-adv-x="467" 
d="M97 0v659h46v-619h304v-40h-350zM211 -219l-7 30q65 5 89 18t24 34q0 23 -20.5 33.5t-56.5 13.5l13 29q57 -9 80 -25t23 -48q0 -39 -37 -59.5t-108 -25.5z" />
    <glyph glyph-name="uni013C" unicode="&#x13c;" horiz-adv-x="237" 
d="M151 -8q-20 0 -33 8t-19.5 25t-6.5 43v651h44v-657q0 -17 6.5 -24t16.5 -7q3 0 6.5 0.5t9.5 1.5l8 -35q-7 -3 -14.5 -4.5t-17.5 -1.5zM57 -219l-7 30q65 5 89 18t24 34q0 23 -20.5 33.5t-56.5 13.5l13 29q57 -9 80 -25t23 -48q0 -39 -37 -59.5t-108 -25.5z" />
    <glyph glyph-name="Lcaron" unicode="&#x13d;" horiz-adv-x="467" 
d="M97 0v659h46v-619h304v-40h-350zM322 517l-3 206h38v-50l-8 -156h-27z" />
    <glyph glyph-name="lcaron" unicode="&#x13e;" horiz-adv-x="234" 
d="M151 -8q-20 0 -33 8t-19.5 25t-6.5 43v651h44v-657q0 -17 6.5 -24t16.5 -7q3 0 6.5 0.5t9.5 1.5l8 -35q-7 -3 -14.5 -4.5t-17.5 -1.5zM202 548l-3 206h38v-50l-8 -156h-27z" />
    <glyph glyph-name="Ldot" unicode="&#x13f;" horiz-adv-x="467" 
d="M97 0v659h46v-619h304v-40h-350zM358 278q-16 0 -29.5 12t-13.5 33q0 22 13.5 34t29.5 12q17 0 29.5 -12t12.5 -34q0 -21 -12.5 -33t-29.5 -12z" />
    <glyph glyph-name="ldot" unicode="&#x140;" horiz-adv-x="308" 
d="M151 -8q-20 0 -33 8t-19.5 25t-6.5 43v651h44v-657q0 -17 6.5 -24t16.5 -7q3 0 6.5 0.5t9.5 1.5l8 -35q-7 -3 -14.5 -4.5t-17.5 -1.5zM268 278q-16 0 -29.5 12t-13.5 33q0 22 13.5 34t29.5 12q17 0 29.5 -12t12.5 -34q0 -21 -12.5 -33t-29.5 -12z" />
    <glyph glyph-name="Lslash" unicode="&#x141;" horiz-adv-x="475" 
d="M18 227l-17 36l113 49l26 9l212 91l18 -36l-229 -98l-25 -9zM109 0v659h46v-619h304v-40h-350z" />
    <glyph glyph-name="lslash" unicode="&#x142;" horiz-adv-x="263" 
d="M15 341l-17 34l116 59l26 11l96 49l17 -35l-112 -56l-25 -10zM164 -8q-20 0 -33 8t-19.5 25t-6.5 43v651h44v-657q0 -17 6.5 -24t16.5 -7q3 0 6.5 0.5t9.5 1.5l8 -35q-7 -3 -14.5 -4.5t-17.5 -1.5z" />
    <glyph glyph-name="Nacute" unicode="&#x143;" horiz-adv-x="636" 
d="M97 0v659h50l276 -463q19 -33 38 -66.5t36 -66.5h4q-1 48 -3.5 96t-2.5 96v404h44v-659h-50l-276 463q-19 33 -38 67t-36 66h-4l4 -92t2 -95v-409h-44zM259 709l138 124h62l3 -5l-157 -119h-46z" />
    <glyph glyph-name="nacute" unicode="&#x144;" horiz-adv-x="532" 
d="M92 0v480h38l4 -74h3q37 37 76.5 61.5t88.5 24.5q75 0 110 -45.5t35 -138.5v-308h-44v302q0 77 -25.5 113.5t-84.5 36.5q-43 0 -77.5 -22.5t-79.5 -67.5v-362h-44zM212 570l137 154h52l3 -5l-152 -149h-40z" />
    <glyph glyph-name="uni0145" unicode="&#x145;" horiz-adv-x="636" 
d="M97 0v659h50l276 -463q19 -33 38 -66.5t36 -66.5h4q-1 48 -3.5 96t-2.5 96v404h44v-659h-50l-276 463q-19 33 -38 67t-36 66h-4l4 -92t2 -95v-409h-44zM246 -219l-7 30q65 5 89 18t24 34q0 23 -20.5 33.5t-56.5 13.5l13 29q57 -9 80 -25t23 -48q0 -39 -37 -59.5
t-108 -25.5z" />
    <glyph glyph-name="uni0146" unicode="&#x146;" horiz-adv-x="532" 
d="M92 0v480h38l4 -74h3q37 37 76.5 61.5t88.5 24.5q75 0 110 -45.5t35 -138.5v-308h-44v302q0 77 -25.5 113.5t-84.5 36.5q-43 0 -77.5 -22.5t-79.5 -67.5v-362h-44zM195 -219l-7 30q65 5 89 18t24 34q0 23 -20.5 33.5t-56.5 13.5l13 29q57 -9 80 -25t23 -48
q0 -39 -37 -59.5t-108 -25.5z" />
    <glyph glyph-name="Ncaron" unicode="&#x147;" horiz-adv-x="636" 
d="M97 0v659h50l276 -463q19 -33 38 -66.5t36 -66.5h4q-1 48 -3.5 96t-2.5 96v404h44v-659h-50l-276 463q-19 33 -38 67t-36 66h-4l4 -92t2 -95v-409h-44zM313 711l-139 122h44l111 -85h4l111 85h44l-139 -122h-36z" />
    <glyph glyph-name="ncaron" unicode="&#x148;" horiz-adv-x="532" 
d="M92 0v480h38l4 -74h3q37 37 76.5 61.5t88.5 24.5q75 0 110 -45.5t35 -138.5v-308h-44v302q0 77 -25.5 113.5t-84.5 36.5q-43 0 -77.5 -22.5t-79.5 -67.5v-362h-44zM267 570l-139 154h40l114 -112h4l114 112h40l-139 -154h-34z" />
    <glyph glyph-name="napostrophe" unicode="&#x149;" horiz-adv-x="721" 
d="M76 474l-17 26q34 19 52 39t25 40.5t7 43.5q0 16 -4 27t-14 19h7q-5 -11 -15 -16.5t-23 -5.5q-14 0 -27.5 10t-13.5 31q0 19 14.5 31t35.5 12q30 0 55 -24t25 -72q0 -33 -10 -63t-33.5 -55t-63.5 -43zM281 0v480h38l4 -74h3q37 37 76.5 61.5t88.5 24.5q75 0 110 -45.5
t35 -138.5v-308h-44v302q0 77 -25.5 113.5t-84.5 36.5q-43 0 -77.5 -22.5t-79.5 -67.5v-362h-44z" />
    <glyph glyph-name="Eng" unicode="&#x14a;" horiz-adv-x="617" 
d="M403 -12q-17 0 -37.5 3t-34.5 10l14 43q12 -6 24.5 -8.5t29.5 -2.5q32 0 57.5 28t41.5 94t16 182q0 113 -24 176.5t-66.5 89.5t-97.5 26q-30 0 -64 -14.5t-65.5 -39t-53.5 -52.5v-523h-46v659h46v-88q23 26 53.5 49t65.5 37t71 14q65 0 117 -32t82 -105.5t30 -196.5
q0 -132 -21.5 -208.5t-57.5 -108.5t-80 -32z" />
    <glyph glyph-name="eng" unicode="&#x14b;" horiz-adv-x="532" 
d="M339 -229q-15 0 -32.5 4t-28.5 10l10 34q9 -3 23.5 -6.5t26.5 -3.5q41 0 53 29.5t12 75.5v388q0 77 -25.5 113.5t-84.5 36.5q-43 0 -77.5 -22.5t-79.5 -67.5v-362h-44v480h38l4 -74h3q37 37 76.5 61.5t88.5 24.5q75 0 110 -45.5t35 -138.5v-397q0 -47 -11 -78t-35 -46.5
t-62 -15.5z" />
    <glyph glyph-name="Omacron" unicode="&#x14c;" horiz-adv-x="652" 
d="M326 -12q-79 0 -140 42.5t-96 119.5t-35 182q0 104 35 180.5t96 117.5t140 41t140.5 -41t96.5 -117.5t35 -180.5q0 -105 -35 -182t-96.5 -119.5t-140.5 -42.5zM326 30q67 0 117 37.5t78 105t28 159.5q0 91 -28 157.5t-78 103t-117 36.5t-117 -36.5t-78 -103t-28 -157.5
q0 -92 28 -159.5t78 -105t117 -37.5zM202 743v36h248v-36h-248z" />
    <glyph glyph-name="omacron" unicode="&#x14d;" horiz-adv-x="535" 
d="M267 -12q-57 0 -106.5 29.5t-79 86t-29.5 135.5q0 80 29.5 137t79 86.5t106.5 29.5q58 0 107 -29.5t79 -86.5t30 -137q0 -79 -30 -135.5t-79 -86t-107 -29.5zM267 27q49 0 87.5 26.5t60.5 74.5t22 111t-22 111.5t-60.5 75.5t-87.5 27q-48 0 -86 -27t-60.5 -75.5
t-22.5 -111.5t22.5 -111t60.5 -74.5t86 -26.5zM144 606v36h246v-36h-246z" />
    <glyph glyph-name="Obreve" unicode="&#x14e;" horiz-adv-x="652" 
d="M326 -12q-79 0 -140 42.5t-96 119.5t-35 182q0 104 35 180.5t96 117.5t140 41t140.5 -41t96.5 -117.5t35 -180.5q0 -105 -35 -182t-96.5 -119.5t-140.5 -42.5zM326 30q67 0 117 37.5t78 105t28 159.5q0 91 -28 157.5t-78 103t-117 36.5t-117 -36.5t-78 -103t-28 -157.5
q0 -92 28 -159.5t78 -105t117 -37.5zM326 710q-44 0 -72.5 19t-44 47.5t-19.5 57.5l33 5q5 -38 30 -66.5t73 -28.5t73 28.5t30 66.5l33 -5q-3 -29 -19 -57.5t-44 -47.5t-73 -19z" />
    <glyph glyph-name="obreve" unicode="&#x14f;" horiz-adv-x="535" 
d="M267 -12q-57 0 -106.5 29.5t-79 86t-29.5 135.5q0 80 29.5 137t79 86.5t106.5 29.5q58 0 107 -29.5t79 -86.5t30 -137q0 -79 -30 -135.5t-79 -86t-107 -29.5zM267 27q49 0 87.5 26.5t60.5 74.5t22 111t-22 111.5t-60.5 75.5t-87.5 27q-48 0 -86 -27t-60.5 -75.5
t-22.5 -111.5t22.5 -111t60.5 -74.5t86 -26.5zM267 570q-51 0 -82.5 23t-47 57.5t-19.5 66.5l33 5q4 -28 17.5 -55t38 -45t60.5 -18q37 0 61 18t37.5 45t17.5 55l33 -5q-4 -32 -19.5 -66.5t-46.5 -57.5t-83 -23z" />
    <glyph glyph-name="Ohungarumlaut" unicode="&#x150;" horiz-adv-x="652" 
d="M326 -12q-79 0 -140 42.5t-96 119.5t-35 182q0 104 35 180.5t96 117.5t140 41t140.5 -41t96.5 -117.5t35 -180.5q0 -105 -35 -182t-96.5 -119.5t-140.5 -42.5zM326 30q67 0 117 37.5t78 105t28 159.5q0 91 -28 157.5t-78 103t-117 36.5t-117 -36.5t-78 -103t-28 -157.5
q0 -92 28 -159.5t78 -105t117 -37.5zM201 709l118 124h55l3 -5l-135 -119h-41zM383 709l118 124h55l3 -5l-135 -119h-41z" />
    <glyph glyph-name="ohungarumlaut" unicode="&#x151;" horiz-adv-x="535" 
d="M267 -12q-57 0 -106.5 29.5t-79 86t-29.5 135.5q0 80 29.5 137t79 86.5t106.5 29.5q58 0 107 -29.5t79 -86.5t30 -137q0 -79 -30 -135.5t-79 -86t-107 -29.5zM267 27q49 0 87.5 26.5t60.5 74.5t22 111t-22 111.5t-60.5 75.5t-87.5 27q-48 0 -86 -27t-60.5 -75.5
t-22.5 -111.5t22.5 -111t60.5 -74.5t86 -26.5zM171 570l93 154h42l3 -5l-106 -149h-32zM324 570l93 154h42l3 -5l-106 -149h-32z" />
    <glyph glyph-name="OE" unicode="&#x152;" horiz-adv-x="833" 
d="M367 0q-104 0 -173.5 41t-104 116t-34.5 175q0 99 34.5 173t104.5 114t174 40h408v-40h-295v-249h245v-40h-245v-290h305v-40h-419zM372 39h63v581h-63q-92 0 -151.5 -36t-88.5 -101t-29 -151t29 -152t88.5 -103.5t151.5 -37.5z" />
    <glyph glyph-name="oe" unicode="&#x153;" horiz-adv-x="848" 
d="M262 -12q-55 0 -103.5 29.5t-77.5 86t-29 135.5q0 80 29.5 137t77.5 86.5t103 29.5q59 0 111 -36t76 -106q26 66 73.5 104t105.5 38q57 0 98 -26.5t63 -76t22 -119.5q0 -9 -0.5 -18t-2.5 -19h-336q-1 -60 22 -106.5t62 -73t87 -26.5q40 0 72.5 10.5t56.5 28.5l19 -31
q-28 -19 -63.5 -33t-86.5 -14q-64 0 -114.5 38t-76.5 103q-27 -70 -75.5 -105.5t-112.5 -35.5zM263 27q48 0 85 27t58.5 74.5t21.5 110.5q0 64 -21.5 112t-58.5 75t-85 27q-47 0 -84.5 -27t-59 -75t-21.5 -112q0 -63 21.5 -110.5t59 -74.5t84.5 -27zM472 270h297
q0 91 -38.5 137.5t-103.5 46.5q-39 0 -72.5 -24t-56 -65t-26.5 -95z" />
    <glyph glyph-name="Racute" unicode="&#x154;" horiz-adv-x="544" 
d="M97 0v659h189q65 0 113.5 -17t75.5 -55.5t27 -101.5q0 -60 -27 -100.5t-75.5 -61t-113.5 -20.5h-143v-303h-46zM143 341h131q88 0 134.5 35.5t46.5 108.5q0 74 -46.5 104.5t-134.5 30.5h-131v-279zM462 0l-187 316l44 13l196 -329h-53zM213 709l138 124h62l3 -5
l-157 -119h-46z" />
    <glyph glyph-name="racute" unicode="&#x155;" horiz-adv-x="317" 
d="M92 0v480h38l4 -89h3q23 44 57.5 72.5t78.5 28.5q13 0 24.5 -2t23.5 -8l-12 -38q-10 3 -18.5 4.5t-23.5 1.5q-32 0 -67.5 -27.5t-63.5 -95.5v-327h-44zM134 570l137 154h52l3 -5l-152 -149h-40z" />
    <glyph glyph-name="uni0156" unicode="&#x156;" horiz-adv-x="544" 
d="M97 0v659h189q65 0 113.5 -17t75.5 -55.5t27 -101.5q0 -60 -27 -100.5t-75.5 -61t-113.5 -20.5h-143v-303h-46zM143 341h131q88 0 134.5 35.5t46.5 108.5q0 74 -46.5 104.5t-134.5 30.5h-131v-279zM462 0l-187 316l44 13l196 -329h-53zM223 -219l-7 30q65 5 89 18t24 34
q0 23 -20.5 33.5t-56.5 13.5l13 29q57 -9 80 -25t23 -48q0 -39 -37 -59.5t-108 -25.5z" />
    <glyph glyph-name="uni0157" unicode="&#x157;" horiz-adv-x="317" 
d="M92 0v480h38l4 -89h3q23 44 57.5 72.5t78.5 28.5q13 0 24.5 -2t23.5 -8l-12 -38q-10 3 -18.5 4.5t-23.5 1.5q-32 0 -67.5 -27.5t-63.5 -95.5v-327h-44zM36 -219l-7 30q65 5 89 18t24 34q0 23 -20.5 33.5t-56.5 13.5l13 29q57 -9 80 -25t23 -48q0 -39 -37 -59.5
t-108 -25.5z" />
    <glyph glyph-name="Rcaron" unicode="&#x158;" horiz-adv-x="544" 
d="M97 0v659h189q65 0 113.5 -17t75.5 -55.5t27 -101.5q0 -60 -27 -100.5t-75.5 -61t-113.5 -20.5h-143v-303h-46zM143 341h131q88 0 134.5 35.5t46.5 108.5q0 74 -46.5 104.5t-134.5 30.5h-131v-279zM462 0l-187 316l44 13l196 -329h-53zM267 711l-139 122h44l111 -85h4
l111 85h44l-139 -122h-36z" />
    <glyph glyph-name="rcaron" unicode="&#x159;" horiz-adv-x="317" 
d="M92 0v480h38l4 -89h3q23 44 57.5 72.5t78.5 28.5q13 0 24.5 -2t23.5 -8l-12 -38q-10 3 -18.5 4.5t-23.5 1.5q-32 0 -67.5 -27.5t-63.5 -95.5v-327h-44zM189 570l-139 154h40l114 -112h4l114 112h40l-139 -154h-34z" />
    <glyph glyph-name="Sacute" unicode="&#x15a;" horiz-adv-x="521" 
d="M269 -12q-72 0 -127.5 28t-95.5 71l29 30q35 -40 85.5 -63.5t108.5 -23.5q76 0 120 36.5t44 95.5q0 41 -16 66t-43 41t-59 31l-100 45q-30 13 -60.5 33t-52 51.5t-21.5 79.5t25 84.5t68 57t99 20.5q60 0 107 -23t76 -55l-25 -30q-30 30 -69.5 48t-88.5 18
q-65 0 -105.5 -32t-40.5 -86q0 -38 18.5 -62t45.5 -39t50 -26l100 -44q38 -17 70 -38.5t50.5 -53.5t18.5 -83q0 -50 -25.5 -90.5t-73 -63.5t-112.5 -23zM199 709l138 124h62l3 -5l-157 -119h-46z" />
    <glyph glyph-name="sacute" unicode="&#x15b;" horiz-adv-x="405" 
d="M208 -12q-56 0 -100.5 18t-75.5 49l24 28q30 -26 65.5 -41.5t89.5 -15.5q56 0 85 28.5t29 66.5q0 30 -17.5 49.5t-44.5 33t-55 23.5q-37 13 -71 29.5t-56 42t-22 65.5q0 53 40 90.5t114 37.5q41 0 76.5 -14t61.5 -36l-24 -27q-24 17 -51 28t-64 11q-56 0 -82.5 -27
t-26.5 -60q0 -27 15.5 -44.5t40.5 -29.5t54 -23q38 -15 74.5 -31t59.5 -42.5t23 -73.5q0 -36 -18.5 -66.5t-55 -49.5t-88.5 -19zM132 570l137 154h52l3 -5l-152 -149h-40z" />
    <glyph glyph-name="Scircumflex" unicode="&#x15c;" horiz-adv-x="521" 
d="M269 -12q-72 0 -127.5 28t-95.5 71l29 30q35 -40 85.5 -63.5t108.5 -23.5q76 0 120 36.5t44 95.5q0 41 -16 66t-43 41t-59 31l-100 45q-30 13 -60.5 33t-52 51.5t-21.5 79.5t25 84.5t68 57t99 20.5q60 0 107 -23t76 -55l-25 -30q-30 30 -69.5 48t-88.5 18
q-65 0 -105.5 -32t-40.5 -86q0 -38 18.5 -62t45.5 -39t50 -26l100 -44q38 -17 70 -38.5t50.5 -53.5t18.5 -83q0 -50 -25.5 -90.5t-73 -63.5t-112.5 -23zM114 709l139 124h36l139 -124h-44l-111 88h-4l-111 -88h-44z" />
    <glyph glyph-name="scircumflex" unicode="&#x15d;" horiz-adv-x="405" 
d="M208 -12q-56 0 -100.5 18t-75.5 49l24 28q30 -26 65.5 -41.5t89.5 -15.5q56 0 85 28.5t29 66.5q0 30 -17.5 49.5t-44.5 33t-55 23.5q-37 13 -71 29.5t-56 42t-22 65.5q0 53 40 90.5t114 37.5q41 0 76.5 -14t61.5 -36l-24 -27q-24 17 -51 28t-64 11q-56 0 -82.5 -27
t-26.5 -60q0 -27 15.5 -44.5t40.5 -29.5t54 -23q38 -15 74.5 -31t59.5 -42.5t23 -73.5q0 -36 -18.5 -66.5t-55 -49.5t-88.5 -19zM48 570l139 154h34l139 -154h-40l-114 112h-4l-114 -112h-40z" />
    <glyph glyph-name="Scedilla" unicode="&#x15e;" horiz-adv-x="521" 
d="M269 -12q-72 0 -127.5 28t-95.5 71l29 30q35 -40 85.5 -63.5t108.5 -23.5q76 0 120 36.5t44 95.5q0 41 -16 66t-43 41t-59 31l-100 45q-30 13 -60.5 33t-52 51.5t-21.5 79.5t25 84.5t68 57t99 20.5q60 0 107 -23t76 -55l-25 -30q-30 30 -69.5 48t-88.5 18
q-65 0 -105.5 -32t-40.5 -86q0 -38 18.5 -62t45.5 -39t50 -26l100 -44q38 -17 70 -38.5t50.5 -53.5t18.5 -83q0 -50 -25.5 -90.5t-73 -63.5t-112.5 -23zM192 -219l-7 30q65 5 89 18t24 35t-18.5 33.5t-59.5 17.5l41 87h35l-30 -67q33 -8 52 -23.5t19 -45.5q0 -39 -37 -59.5
t-108 -25.5z" />
    <glyph glyph-name="scedilla" unicode="&#x15f;" horiz-adv-x="405" 
d="M208 -12q-56 0 -100.5 18t-75.5 49l24 28q30 -26 65.5 -41.5t89.5 -15.5q56 0 85 28.5t29 66.5q0 30 -17.5 49.5t-44.5 33t-55 23.5q-37 13 -71 29.5t-56 42t-22 65.5q0 53 40 90.5t114 37.5q41 0 76.5 -14t61.5 -36l-24 -27q-24 17 -51 28t-64 11q-56 0 -82.5 -27
t-26.5 -60q0 -27 15.5 -44.5t40.5 -29.5t54 -23q38 -15 74.5 -31t59.5 -42.5t23 -73.5q0 -36 -18.5 -66.5t-55 -49.5t-88.5 -19zM134 -219l-7 30q65 5 89 18t24 35t-18.5 33.5t-59.5 17.5l41 87h35l-30 -67q33 -8 52 -23.5t19 -45.5q0 -39 -37 -59.5t-108 -25.5z" />
    <glyph glyph-name="Scaron" unicode="&#x160;" horiz-adv-x="521" 
d="M269 -12q-72 0 -127.5 28t-95.5 71l29 30q35 -40 85.5 -63.5t108.5 -23.5q76 0 120 36.5t44 95.5q0 41 -16 66t-43 41t-59 31l-100 45q-30 13 -60.5 33t-52 51.5t-21.5 79.5t25 84.5t68 57t99 20.5q60 0 107 -23t76 -55l-25 -30q-30 30 -69.5 48t-88.5 18
q-65 0 -105.5 -32t-40.5 -86q0 -38 18.5 -62t45.5 -39t50 -26l100 -44q38 -17 70 -38.5t50.5 -53.5t18.5 -83q0 -50 -25.5 -90.5t-73 -63.5t-112.5 -23zM253 711l-139 122h44l111 -85h4l111 85h44l-139 -122h-36z" />
    <glyph glyph-name="scaron" unicode="&#x161;" horiz-adv-x="405" 
d="M208 -12q-56 0 -100.5 18t-75.5 49l24 28q30 -26 65.5 -41.5t89.5 -15.5q56 0 85 28.5t29 66.5q0 30 -17.5 49.5t-44.5 33t-55 23.5q-37 13 -71 29.5t-56 42t-22 65.5q0 53 40 90.5t114 37.5q41 0 76.5 -14t61.5 -36l-24 -27q-24 17 -51 28t-64 11q-56 0 -82.5 -27
t-26.5 -60q0 -27 15.5 -44.5t40.5 -29.5t54 -23q38 -15 74.5 -31t59.5 -42.5t23 -73.5q0 -36 -18.5 -66.5t-55 -49.5t-88.5 -19zM187 570l-139 154h40l114 -112h4l114 112h40l-139 -154h-34z" />
    <glyph glyph-name="uni0162" unicode="&#x162;" horiz-adv-x="524" 
d="M239 0v619h-210v40h466v-40h-210v-619h-46zM177 -219l-7 30q65 5 89 18t24 35t-18.5 33.5t-59.5 17.5l41 87h35l-30 -67q33 -8 52 -23.5t19 -45.5q0 -39 -37 -59.5t-108 -25.5z" />
    <glyph glyph-name="uni0163" unicode="&#x163;" horiz-adv-x="312" 
d="M223 -8q-70 0 -95 40t-25 104v306h-75v34l76 4l6 159h38v-159h139v-38h-139v-309q0 -46 16 -74.5t65 -28.5q14 0 28.5 3.5t31.5 11.5l14 -31q-19 -10 -40 -16t-40 -6zM127 -219l-7 30q65 5 89 18t24 35t-18.5 33.5t-59.5 17.5l41 87h35l-30 -67q33 -8 52 -23.5t19 -45.5
q0 -39 -37 -59.5t-108 -25.5z" />
    <glyph glyph-name="Tcaron" unicode="&#x164;" horiz-adv-x="524" 
d="M239 0v619h-210v40h466v-40h-210v-619h-46zM244 711l-139 122h44l111 -85h4l111 85h44l-139 -122h-36z" />
    <glyph glyph-name="tcaron" unicode="&#x165;" horiz-adv-x="312" 
d="M223 -8q-70 0 -95 40t-25 104v306h-75v34l76 4l6 159h38v-159h139v-38h-139v-309q0 -46 16 -74.5t65 -28.5q14 0 28.5 3.5t31.5 11.5l14 -31q-19 -10 -40 -16t-40 -6zM243 548l-3 206h38v-50l-8 -156h-27z" />
    <glyph glyph-name="Tbar" unicode="&#x166;" horiz-adv-x="524" 
d="M112 327v36l86 2h214v-38h-300zM239 0v619h-210v40h466v-40h-210v-619h-46z" />
    <glyph glyph-name="tbar" unicode="&#x167;" horiz-adv-x="312" 
d="M28 233v33l76 5h183v-38h-259zM223 -8q-70 0 -95 40t-25 104v306h-75v34l76 4l6 159h38v-159h139v-38h-139v-309q0 -46 16 -74.5t65 -28.5q14 0 28.5 3.5t31.5 11.5l14 -31q-19 -10 -40 -16t-40 -6z" />
    <glyph glyph-name="Utilde" unicode="&#x168;" horiz-adv-x="634" 
d="M316 -12q-42 0 -82 12.5t-71 42t-49.5 81t-18.5 128.5v407h46v-402q0 -87 24.5 -137t64.5 -70t86 -20q48 0 89 20t66 70t25 137v402h43v-407q0 -77 -18.5 -128.5t-50.5 -81t-71.5 -42t-82.5 -12.5zM393 718q-28 0 -48.5 12.5t-36.5 27.5t-32 27t-37 12q-22 0 -37 -20.5
t-18 -55.5l-33 3q3 47 25 78.5t63 31.5q28 0 48.5 -12t36.5 -27.5t32 -27.5t37 -12q22 0 36.5 21t18.5 56l33 -3q-2 -47 -24.5 -79t-63.5 -32z" />
    <glyph glyph-name="utilde" unicode="&#x169;" horiz-adv-x="529" 
d="M230 -12q-74 0 -109.5 45.5t-35.5 138.5v308h44v-302q0 -76 26 -113t83 -37q43 0 78 23.5t77 74.5v354h44v-480h-37l-5 80h-2q-35 -41 -74 -66.5t-89 -25.5zM339 579q-29 0 -48.5 14.5t-35.5 33.5t-31.5 33.5t-36.5 14.5q-27 0 -39.5 -26.5t-14.5 -66.5l-34 2
q2 32 10.5 60.5t27 47t51.5 18.5q29 0 48 -14.5t35 -33.5t32 -33.5t37 -14.5q27 0 39 27.5t14 65.5l34 -2q-2 -31 -10.5 -59.5t-26.5 -47.5t-51 -19z" />
    <glyph glyph-name="Umacron" unicode="&#x16a;" horiz-adv-x="634" 
d="M316 -12q-42 0 -82 12.5t-71 42t-49.5 81t-18.5 128.5v407h46v-402q0 -87 24.5 -137t64.5 -70t86 -20q48 0 89 20t66 70t25 137v402h43v-407q0 -77 -18.5 -128.5t-50.5 -81t-71.5 -42t-82.5 -12.5zM192 743v36h248v-36h-248z" />
    <glyph glyph-name="umacron" unicode="&#x16b;" horiz-adv-x="529" 
d="M230 -12q-74 0 -109.5 45.5t-35.5 138.5v308h44v-302q0 -76 26 -113t83 -37q43 0 78 23.5t77 74.5v354h44v-480h-37l-5 80h-2q-35 -41 -74 -66.5t-89 -25.5zM140 606v36h246v-36h-246z" />
    <glyph glyph-name="Ubreve" unicode="&#x16c;" horiz-adv-x="634" 
d="M316 -12q-42 0 -82 12.5t-71 42t-49.5 81t-18.5 128.5v407h46v-402q0 -87 24.5 -137t64.5 -70t86 -20q48 0 89 20t66 70t25 137v402h43v-407q0 -77 -18.5 -128.5t-50.5 -81t-71.5 -42t-82.5 -12.5zM316 710q-44 0 -72.5 19t-44 47.5t-19.5 57.5l33 5q5 -38 30 -66.5
t73 -28.5t73 28.5t30 66.5l33 -5q-3 -29 -19 -57.5t-44 -47.5t-73 -19z" />
    <glyph glyph-name="ubreve" unicode="&#x16d;" horiz-adv-x="529" 
d="M230 -12q-74 0 -109.5 45.5t-35.5 138.5v308h44v-302q0 -76 26 -113t83 -37q43 0 78 23.5t77 74.5v354h44v-480h-37l-5 80h-2q-35 -41 -74 -66.5t-89 -25.5zM263 570q-51 0 -82.5 23t-47 57.5t-19.5 66.5l33 5q4 -28 17.5 -55t38 -45t60.5 -18q37 0 61 18t37.5 45
t17.5 55l33 -5q-4 -32 -19.5 -66.5t-46.5 -57.5t-83 -23z" />
    <glyph glyph-name="Uring" unicode="&#x16e;" horiz-adv-x="634" 
d="M316 -12q-42 0 -82 12.5t-71 42t-49.5 81t-18.5 128.5v407h46v-402q0 -87 24.5 -137t64.5 -70t86 -20q48 0 89 20t66 70t25 137v402h43v-407q0 -77 -18.5 -128.5t-50.5 -81t-71.5 -42t-82.5 -12.5zM316 700q-43 0 -71 23t-28 62q0 40 28 63t71 23q44 0 71.5 -23t27.5 -63
q0 -39 -27.5 -62t-71.5 -23zM316 725q28 0 46.5 15.5t18.5 44.5q0 31 -18.5 45.5t-46.5 14.5q-27 0 -46 -14.5t-19 -45.5q0 -29 19 -44.5t46 -15.5z" />
    <glyph glyph-name="uring" unicode="&#x16f;" horiz-adv-x="529" 
d="M230 -12q-74 0 -109.5 45.5t-35.5 138.5v308h44v-302q0 -76 26 -113t83 -37q43 0 78 23.5t77 74.5v354h44v-480h-37l-5 80h-2q-35 -41 -74 -66.5t-89 -25.5zM263 548q-42 0 -69.5 26.5t-27.5 68.5q0 43 27.5 69.5t69.5 26.5t69.5 -26.5t27.5 -69.5q0 -42 -27.5 -68.5
t-69.5 -26.5zM263 574q28 0 46.5 19t18.5 50q0 32 -18.5 51t-46.5 19q-27 0 -46 -19t-19 -51q0 -31 19 -50t46 -19z" />
    <glyph glyph-name="Uhungarumlaut" unicode="&#x170;" horiz-adv-x="634" 
d="M316 -12q-42 0 -82 12.5t-71 42t-49.5 81t-18.5 128.5v407h46v-402q0 -87 24.5 -137t64.5 -70t86 -20q48 0 89 20t66 70t25 137v402h43v-407q0 -77 -18.5 -128.5t-50.5 -81t-71.5 -42t-82.5 -12.5zM191 709l118 124h55l3 -5l-135 -119h-41zM373 709l118 124h55l3 -5
l-135 -119h-41z" />
    <glyph glyph-name="uhungarumlaut" unicode="&#x171;" horiz-adv-x="529" 
d="M230 -12q-74 0 -109.5 45.5t-35.5 138.5v308h44v-302q0 -76 26 -113t83 -37q43 0 78 23.5t77 74.5v354h44v-480h-37l-5 80h-2q-35 -41 -74 -66.5t-89 -25.5zM167 570l93 154h42l3 -5l-106 -149h-32zM320 570l93 154h42l3 -5l-106 -149h-32z" />
    <glyph glyph-name="Uogonek" unicode="&#x172;" horiz-adv-x="634" 
d="M329 -215q-38 0 -65.5 21t-27.5 66q0 42 25 76t53 56l2 -16q-42 0 -82 13t-71 42.5t-49.5 81t-18.5 128.5v406h46v-401q0 -88 24.5 -138t64.5 -70.5t86 -20.5q48 0 89 20.5t66 70.5t25 138v401h43v-406q0 -82 -21.5 -136.5t-61.5 -85t-96 -41.5q-22 -4 -41 -22t-31 -41.5
t-12 -47.5q0 -30 18.5 -43.5t40.5 -13.5q16 0 29 5t25 14l17 -27q-13 -11 -33.5 -20t-43.5 -9z" />
    <glyph glyph-name="uogonek" unicode="&#x173;" horiz-adv-x="529" 
d="M406 -213q-37 0 -63.5 21t-26.5 67q0 25 12 50t31 46t41 36l-5 73h-2q-36 -41 -74.5 -66.5t-88.5 -25.5q-74 0 -109.5 45.5t-35.5 138.5v308h44v-302q0 -76 25.5 -113t83.5 -37q43 0 78 23.5t77 74.5v354h44v-480q-34 -20 -57.5 -54t-23.5 -65q0 -30 17 -43.5t39 -13.5
q16 0 28 4.5t25 14.5l16 -27q-13 -11 -32 -20t-43 -9z" />
    <glyph glyph-name="Wcircumflex" unicode="&#x174;" horiz-adv-x="770" 
d="M176 0l-148 659h49l81 -388q11 -54 22.5 -108t22.5 -108h4q11 54 24 108l26 108l104 388h49l101 -388l26 -108l26 -108h4q11 54 21 108t22 108l84 388h46l-149 -659h-52l-118 452q-8 39 -17 74.5t-17 75.5h-4q-8 -40 -17.5 -75.5t-18.5 -74.5l-119 -452h-52zM228 709
l139 124h36l139 -124h-44l-111 88h-4l-111 -88h-44z" />
    <glyph glyph-name="wcircumflex" unicode="&#x175;" horiz-adv-x="685" 
d="M166 0l-142 480h48l86 -311q9 -33 17.5 -64t15.5 -65h4q8 34 17 65t17 64l87 311h55l87 -311q9 -33 17.5 -64t17.5 -65h4q8 34 16.5 65t17.5 64l85 311h45l-138 -480h-59l-84 298q-9 35 -17.5 68.5t-18.5 69.5h-4q-8 -36 -17 -70.5t-20 -69.5l-82 -296h-55zM186 570
l139 154h34l139 -154h-40l-114 112h-4l-114 -112h-40z" />
    <glyph glyph-name="Ycircumflex" unicode="&#x176;" horiz-adv-x="447" 
d="M200 0v267l-197 392h49l100 -206q17 -36 34 -71t35 -72h4q20 37 38 72t34 71l100 206h47l-198 -392v-267h-46zM68 709l139 124h36l139 -124h-44l-111 88h-4l-111 -88h-44z" />
    <glyph glyph-name="ycircumflex" unicode="&#x177;" horiz-adv-x="436" 
d="M73 -219q-14 0 -27 3t-22 8l12 37q8 -3 18 -5t19 -2q44 0 74.5 36.5t48.5 90.5l13 42l-197 489h48l116 -302q11 -30 25 -66t27 -68h4q11 32 22.5 68t21.5 66l103 302h45l-190 -540q-13 -40 -34.5 -76.5t-52.5 -59.5t-74 -23zM70 570l139 154h34l139 -154h-40l-114 112h-4
l-114 -112h-40z" />
    <glyph glyph-name="Ydieresis" unicode="&#x178;" horiz-adv-x="447" 
d="M200 0v267l-197 392h49l100 -206q17 -36 34 -71t35 -72h4q20 37 38 72t34 71l100 206h47l-198 -392v-267h-46zM127 725q-15 0 -25.5 9.5t-10.5 26.5t10.5 27t25.5 10q16 0 26.5 -10t10.5 -27t-10.5 -26.5t-26.5 -9.5zM323 725q-15 0 -26 9.5t-11 26.5t11 27t26 10
q16 0 26 -10t10 -27t-10 -26.5t-26 -9.5z" />
    <glyph glyph-name="Zacute" unicode="&#x179;" horiz-adv-x="538" 
d="M50 0v27l379 592h-346v40h404v-27l-380 -592h383v-40h-440zM207 709l138 124h62l3 -5l-157 -119h-46z" />
    <glyph glyph-name="zacute" unicode="&#x17a;" horiz-adv-x="404" 
d="M27 0v24l284 418h-253v38h310v-23l-283 -418h293v-39h-351zM151 570l137 154h52l3 -5l-152 -149h-40z" />
    <glyph glyph-name="Zdotaccent" unicode="&#x17b;" horiz-adv-x="538" 
d="M50 0v27l379 592h-346v40h404v-27l-380 -592h383v-40h-440zM279 721q-16 0 -28 11.5t-12 29.5q0 17 12 28t28 11q17 0 28.5 -11t11.5 -28q0 -18 -11.5 -29.5t-28.5 -11.5z" />
    <glyph glyph-name="zdotaccent" unicode="&#x17c;" horiz-adv-x="404" 
d="M27 0v24l284 418h-253v38h310v-23l-283 -418h293v-39h-351zM223 596q-16 0 -27 11.5t-11 29.5t11 28.5t27 10.5q17 0 27.5 -10.5t10.5 -28.5t-10.5 -29.5t-27.5 -11.5z" />
    <glyph glyph-name="Zcaron" unicode="&#x17d;" horiz-adv-x="538" 
d="M50 0v27l379 592h-346v40h404v-27l-380 -592h383v-40h-440zM261 711l-139 122h44l111 -85h4l111 85h44l-139 -122h-36z" />
    <glyph glyph-name="zcaron" unicode="&#x17e;" horiz-adv-x="404" 
d="M27 0v24l284 418h-253v38h310v-23l-283 -418h293v-39h-351zM206 570l-139 154h40l114 -112h4l114 112h40l-139 -154h-34z" />
    <glyph glyph-name="longs" unicode="&#x17f;" horiz-adv-x="245" 
d="M99 0v587q0 48 14 80t40.5 48t64.5 16q17 0 35.5 -4t34.5 -12l-12 -34q-30 12 -58 12q-38 0 -56.5 -28.5t-18.5 -80.5v-584h-44zM33 442v34l67 4h27v-38h-94z" />
    <glyph glyph-name="uni0180" unicode="&#x180;" horiz-adv-x="560" 
d="M298 -12q-34 0 -72 16.5t-72 44.5h-2l-5 -49h-37v719h44v-242l-2 -94q37 31 79.5 53t85.5 22q65 0 107.5 -28t64 -79.5t21.5 -120.5q0 -76 -29.5 -130t-77.5 -83t-105 -29zM296 27q49 0 86.5 26t59 72t21.5 105q0 54 -15 97t-48.5 67.5t-88.5 24.5q-36 0 -75 -20t-82 -59
v-251q40 -34 77.5 -48t64.5 -14zM19 577v33l92 5h233v-38h-325z" />
    <glyph glyph-name="uni0181" unicode="&#x181;" horiz-adv-x="715" 
d="M263 0v651h46v-282h85q102 0 146 35t44 96q0 70 -53 100t-156 30h-20q-90 0 -148.5 -24.5t-86.5 -67t-28 -96.5t21 -87t65 -58l-21 -33q-50 24 -80 67t-30 110t34 119t105 81.5t180 29.5q84 0 143 -17.5t90 -54.5t31 -95q0 -54 -26 -94t-76 -55v-4q64 -10 103 -50
t39 -108q0 -64 -30 -107t-85 -64.5t-129 -21.5h-163zM309 38h105q98 0 154.5 37t56.5 116q0 72 -55 106t-156 34h-105v-293z" />
    <glyph glyph-name="uni0186" unicode="&#x186;" horiz-adv-x="564" 
d="M245 -12q-68 0 -118 24.5t-89 69.5l27 27q36 -41 79.5 -60t98.5 -19q102 0 160 79.5t58 227.5q0 91 -26.5 156.5t-74.5 100.5t-114 35q-47 0 -90 -17.5t-73 -49.5l-26 30q30 34 80 56.5t110 22.5q78 0 137 -39.5t92.5 -115.5t33.5 -185t-33 -185.5t-92.5 -117
t-139.5 -40.5z" />
    <glyph glyph-name="uni018A" unicode="&#x18a;" horiz-adv-x="751" 
d="M263 0v651h46v-612h75q88 0 144 38t83.5 105.5t27.5 156.5q0 87 -27 152t-87 101.5t-158 36.5h-12q-90 0 -148.5 -24.5t-86.5 -67t-28 -95.5q0 -54 21 -87t65 -58l-21 -33q-50 24 -80 67t-30 110t34 119t104 81.5t180 29.5q113 0 184 -41t104.5 -115t33.5 -176
t-33 -178.5t-99 -118.5t-166 -42h-126z" />
    <glyph glyph-name="uni018D" unicode="&#x18d;" horiz-adv-x="522" 
d="M264 731q55 0 102 -27.5t75 -81t28 -127.5q0 -68 -30 -125.5t-88.5 -93.5t-144.5 -40l-20 34q85 4 137.5 36t77 81.5t24.5 105.5q0 61 -21 105.5t-57.5 69t-82.5 24.5q-81 0 -120.5 -60.5t-39.5 -158.5q0 -51 21.5 -100.5t57.5 -96t81 -89t92.5 -80t91.5 -68.5v-39h-367
v38h304q-36 26 -79 60t-86.5 76t-79.5 89.5t-58 100t-22 107.5q0 81 24.5 139.5t70 89.5t109.5 31z" />
    <glyph glyph-name="uni018E" unicode="&#x18e;" horiz-adv-x="515" 
d="M47 0v40h324v290h-264v40h264v249h-314v40h360v-659h-370z" />
    <glyph glyph-name="uni018F" unicode="&#x18f;" horiz-adv-x="638" 
d="M322 -12q-119 0 -189.5 84.5t-70.5 244.5q0 5 0.5 10t0.5 10h482v-38h-437q1 -86 29 -147t75.5 -93t109.5 -32q102 0 158.5 78t56.5 226q0 143 -56.5 222t-155.5 79q-62 0 -108 -21t-81 -54l-27 28q38 37 90 61.5t125 24.5q119 0 189 -88.5t70 -251.5q0 -113 -32 -189.5
t-91 -115t-138 -38.5z" />
    <glyph glyph-name="uni0190" unicode="&#x190;" horiz-adv-x="545" 
d="M287 -12q-66 0 -120.5 22.5t-87.5 66.5t-33 106q0 49 20 84t52.5 56t71.5 28v4q-48 18 -78 56t-30 97q0 52 28.5 88.5t75.5 55.5t103 19t103.5 -22.5t76.5 -55.5l-26 -29q-27 29 -67 47t-86 18q-70 0 -116 -32.5t-46 -91.5q0 -67 45.5 -101.5t142.5 -34.5h54v-38h-67
q-98 0 -154.5 -36t-56.5 -112q0 -49 27 -83t72 -52t98 -18q60 0 102.5 16.5t85.5 59.5l26 -26q-43 -49 -93.5 -70.5t-122.5 -21.5z" />
    <glyph glyph-name="florin" unicode="&#x192;" horiz-adv-x="263" 
d="M35 -229q-15 0 -32.5 4t-28.5 10l10 34q9 -3 23.5 -6.5t26.5 -3.5q41 0 53 29.5t12 75.5v673q0 48 14 80t40.5 48t64.5 16q17 0 35.5 -4t34.5 -12l-13 -34q-30 12 -57 12q-38 0 -56.5 -28.5t-18.5 -80.5v-673q0 -47 -11.5 -78t-35 -46.5t-61.5 -15.5zM32 442v34l67 4h155
v-38h-222z" />
    <glyph glyph-name="uni0193" unicode="&#x193;" horiz-adv-x="605" 
d="M338 -12q-85 0 -148.5 42t-99 119t-35.5 182q0 78 21 140.5t59.5 107.5t92 68.5t118.5 23.5q40 0 75 -9t71 -30l-8 -13q-27 35 -34.5 54.5t-7.5 37.5q0 26 12.5 45t33 29t44.5 10q16 0 29 -4t26 -12l-12 -32q-9 5 -18 7.5t-20 2.5q-27 0 -41 -17t-14 -38
q0 -25 11.5 -42.5t32.5 -48.5l-27 -31q-25 20 -61.5 34.5t-90.5 14.5q-76 0 -130.5 -36.5t-84 -103t-29.5 -158.5q0 -91 28.5 -159t81.5 -105t128 -37q45 0 84.5 13t63.5 37v205h-158v39h202v-261q-31 -33 -80.5 -54t-114.5 -21z" />
    <glyph glyph-name="uni0194" unicode="&#x194;" horiz-adv-x="491" 
d="M243 -231q-48 0 -71 27.5t-23 69.5q0 24 9.5 51.5t25.5 62t37 76.5l-2 -46l-215 649h49l118 -373q14 -40 24.5 -74.5t21 -69.5t24.5 -77h4q13 42 24 77t21.5 69.5t23.5 74.5l126 373h47l-222 -649l-1 45q21 -41 38 -75.5t25.5 -62t8.5 -51.5q0 -42 -22.5 -69.5
t-70.5 -27.5zM243 -195q27 0 38.5 17.5t11.5 41.5q0 31 -13 66t-35 74h-4q-22 -39 -35 -74t-13 -66q0 -24 11.5 -41.5t38.5 -17.5z" />
    <glyph glyph-name="uni0196" unicode="&#x196;" horiz-adv-x="242" 
d="M165 -8q-22 0 -37 8t-23 26t-8 47v586h46v-591q0 -21 8.5 -28.5t21.5 -7.5q5 0 10.5 1t11.5 2l7 -35q-7 -3 -16.5 -5.5t-20.5 -2.5z" />
    <glyph glyph-name="uni0197" unicode="&#x197;" horiz-adv-x="280" 
d="M22 331v34l98 4h135v-38h-233zM117 0v659h46v-659h-46z" />
    <glyph glyph-name="uni019A" unicode="&#x19a;" horiz-adv-x="269" 
d="M22 378v34l91 4h130v-38h-221zM172 -8q-20 0 -33 8t-19.5 25t-6.5 43v651h44v-657q0 -17 6.5 -24t16.5 -7q3 0 6.5 0.5t9.5 1.5l8 -35q-7 -3 -14.5 -4.5t-17.5 -1.5z" />
    <glyph glyph-name="uni019B" unicode="&#x19b;" horiz-adv-x="436" 
d="M55 482l-17 31l310 162l18 -31zM16 0l197 489l-25 75q-18 55 -48.5 91t-74.5 36q-10 0 -20.5 -2.5t-18.5 -5.5l-10 38q9 5 22 7.5t27 2.5q43 0 74 -22.5t52.5 -59t34.5 -76.5l201 -573h-47l-101 302q-10 31 -21.5 67t-22.5 68h-4q-13 -32 -27 -68.5t-26 -66.5l-117 -302
h-45z" />
    <glyph glyph-name="uni019E" unicode="&#x19e;" horiz-adv-x="532" 
d="M403 -217v519q0 77 -25.5 113.5t-84.5 36.5q-43 0 -77.5 -22.5t-79.5 -67.5v-362h-44v480h38l4 -74h3q37 37 76.5 61.5t88.5 24.5q75 0 110 -45.5t35 -138.5v-525h-44z" />
    <glyph glyph-name="Ohorn" unicode="&#x1a0;" horiz-adv-x="652" 
d="M487 613l-35 26q50 8 73.5 30t23.5 58q0 12 -3 26.5t-11 27.5l39 19q10 -16 15 -33.5t5 -36.5q0 -47 -29 -76t-78 -41zM330 -12q-79 0 -140.5 42.5t-96.5 119.5t-35 182q0 104 35 180.5t96.5 117.5t140.5 41t140 -41t96 -117.5t35 -180.5q0 -105 -35 -182t-96 -119.5
t-140 -42.5zM330 30q67 0 117 37.5t78 105t28 159.5q0 91 -28 157.5t-78 103t-117 36.5t-117 -36.5t-78 -103t-28 -157.5q0 -92 28 -159.5t78 -105t117 -37.5z" />
    <glyph glyph-name="ohorn" unicode="&#x1a1;" horiz-adv-x="535" 
d="M390 445l-35 24q51 8 77 32.5t26 67.5q0 13 -3.5 26.5t-10.5 26.5l36 20q9 -16 15 -34t6 -36q0 -39 -16.5 -64.5t-42 -40t-52.5 -22.5zM267 -12q-57 0 -106.5 29.5t-79 86t-29.5 135.5q0 80 29.5 137t79 86.5t106.5 29.5q58 0 107 -29.5t79 -86.5t30 -137
q0 -79 -30 -135.5t-79 -86t-107 -29.5zM267 27q49 0 87.5 26.5t60.5 74.5t22 111t-22 111.5t-60.5 75.5t-87.5 27q-48 0 -86 -27t-60.5 -75.5t-22.5 -111.5t22.5 -111t60.5 -74.5t86 -26.5z" />
    <glyph glyph-name="Uhorn" unicode="&#x1af;" horiz-adv-x="645" 
d="M539 633l-33 26q32 5 53 15.5t31 28.5t10 44q0 12 -3 26.5t-11 27.5l40 19q9 -16 14 -33.5t5 -36.5q0 -37 -15 -60t-39.5 -36.5t-51.5 -20.5zM316 -12q-42 0 -82 12.5t-71 42t-49.5 81t-18.5 128.5v407h46v-402q0 -87 24.5 -137t64.5 -70t86 -20q48 0 89 20t66 70t25 137
v402h43v-407q0 -77 -18.5 -128.5t-50 -81t-71.5 -42t-83 -12.5z" />
    <glyph glyph-name="uhorn" unicode="&#x1b0;" horiz-adv-x="529" 
d="M437 457l-37 23q26 6 45.5 17t30 31.5t10.5 50.5q0 12 -3.5 26t-10.5 27l36 20q11 -17 16 -34.5t5 -35.5q0 -40 -14.5 -65t-36 -39t-41.5 -21zM230 -12q-74 0 -109.5 45.5t-35.5 138.5v308h44v-302q0 -76 26 -113t83 -37q43 0 78 23.5t77 74.5v354h44v-480h-37l-5 80h-2
q-36 -41 -74.5 -66.5t-88.5 -25.5z" />
    <glyph glyph-name="uni01B1" unicode="&#x1b1;" horiz-adv-x="659" 
d="M613 659v-39h-143v-4q32 -31 62 -73.5t49.5 -100t19.5 -130.5q0 -93 -33.5 -166t-94.5 -115.5t-144 -42.5q-82 0 -143 42.5t-94.5 115.5t-33.5 166q0 73 19.5 130.5t49.5 100t62 73.5v4h-143v39h213v-34q-40 -28 -75 -71t-56.5 -103t-21.5 -139q0 -80 26.5 -144
t76.5 -101t120 -37q71 0 121 37t76.5 101t26.5 144q0 79 -21.5 139t-56.5 103t-75 71v34h213z" />
    <glyph glyph-name="uni01B7" unicode="&#x1b7;" horiz-adv-x="547" 
d="M280 -12q-73 0 -130 21t-105 75l27 29q46 -49 95.5 -66t110.5 -17q48 0 89 18t65.5 52t24.5 83q0 71 -46 109.5t-122 38.5q-31 0 -49 -3.5t-38 -12.5l-23 33l250 271h-340v40h403v-27l-247 -270q78 13 136 -7t90 -64.5t32 -105.5q0 -63 -30.5 -107t-81 -67t-111.5 -23z
" />
    <glyph glyph-name="uni01BF" unicode="&#x1bf;" horiz-adv-x="526" 
d="M92 -217v697h38l4 -84h3q42 52 84 74t92 22q53 0 89 -20.5t54 -58t18 -88.5q0 -57 -25.5 -110t-71 -98t-107.5 -78.5t-134 -50.5v-88v-117h-44zM136 31q85 21 150.5 65.5t103 103.5t37.5 122q0 55 -28.5 93t-91.5 38q-26 0 -51.5 -8.5t-54.5 -31t-65 -66.5v-316z" />
    <glyph glyph-name="uni01C0" unicode="&#x1c0;" horiz-adv-x="229" 
d="M92 0v719h44v-719h-44z" />
    <glyph glyph-name="uni01C1" unicode="&#x1c1;" horiz-adv-x="417" 
d="M92 0v719h44v-719h-44zM281 0v719h44v-719h-44z" />
    <glyph glyph-name="uni01C2" unicode="&#x1c2;" horiz-adv-x="341" 
d="M30 264v33l78 5h203v-38h-281zM30 417v34l78 4h203v-38h-281zM155 0v719h44v-719h-44z" />
    <glyph glyph-name="uni01C3" unicode="&#x1c3;" horiz-adv-x="248" 
d="M108 179l-7 420v120h46v-120l-7 -420h-32zM124 -12q-16 0 -29 12t-13 33q0 22 13 34t29 12q17 0 29.5 -12t12.5 -34q0 -21 -12.5 -33t-29.5 -12z" />
    <glyph glyph-name="uni01CD" unicode="&#x1cd;" horiz-adv-x="526" 
d="M8 0l232 659h46l232 -659h-48l-132 388q-20 59 -38 113.5t-35 114.5h-4q-17 -60 -35 -114.5t-38 -113.5l-134 -388h-46zM114 226v39h295v-39h-295zM245 711l-139 122h44l111 -85h4l111 85h44l-139 -122h-36z" />
    <glyph glyph-name="uni01CE" unicode="&#x1ce;" horiz-adv-x="491" 
d="M197 -12q-38 0 -69.5 14t-50.5 43.5t-19 73.5q0 81 75 122.5t235 59.5q0 37 -8.5 72t-33 57.5t-72.5 22.5t-88 -18.5t-65 -35.5l-20 31q17 13 44 27.5t61.5 24.5t73.5 10q56 0 89.5 -25t48 -67t14.5 -93v-307h-38l-4 62h-3q-36 -29 -79.5 -51.5t-90.5 -22.5zM205 27
q41 0 79.5 19.5t83.5 57.5v162q-99 -11 -157 -30.5t-83 -47.5t-25 -66q0 -51 30.5 -73t71.5 -22zM245 570l-139 154h40l114 -112h4l114 112h40l-139 -154h-34z" />
    <glyph glyph-name="uni01CF" unicode="&#x1cf;" horiz-adv-x="240" 
d="M97 0v659h46v-659h-46zM102 711l-139 122h44l111 -85h4l111 85h44l-139 -122h-36z" />
    <glyph glyph-name="uni01D0" unicode="&#x1d0;" horiz-adv-x="229" 
d="M92 0v480h44v-480h-44zM96 570l-139 154h40l114 -112h4l114 112h40l-139 -154h-34z" />
    <glyph glyph-name="uni01D1" unicode="&#x1d1;" horiz-adv-x="652" 
d="M326 -12q-79 0 -140 42.5t-96 119.5t-35 182q0 104 35 180.5t96 117.5t140 41t140.5 -41t96.5 -117.5t35 -180.5q0 -105 -35 -182t-96.5 -119.5t-140.5 -42.5zM326 30q67 0 117 37.5t78 105t28 159.5q0 91 -28 157.5t-78 103t-117 36.5t-117 -36.5t-78 -103t-28 -157.5
q0 -92 28 -159.5t78 -105t117 -37.5zM308 711l-139 122h44l111 -85h4l111 85h44l-139 -122h-36z" />
    <glyph glyph-name="uni01D2" unicode="&#x1d2;" horiz-adv-x="535" 
d="M267 -12q-57 0 -106.5 29.5t-79 86t-29.5 135.5q0 80 29.5 137t79 86.5t106.5 29.5q58 0 107 -29.5t79 -86.5t30 -137q0 -79 -30 -135.5t-79 -86t-107 -29.5zM267 27q49 0 87.5 26.5t60.5 74.5t22 111t-22 111.5t-60.5 75.5t-87.5 27q-48 0 -86 -27t-60.5 -75.5
t-22.5 -111.5t22.5 -111t60.5 -74.5t86 -26.5zM250 570l-139 154h40l114 -112h4l114 112h40l-139 -154h-34z" />
    <glyph glyph-name="uni01D3" unicode="&#x1d3;" horiz-adv-x="634" 
d="M316 -12q-42 0 -82 12.5t-71 42t-49.5 81t-18.5 128.5v407h46v-402q0 -87 24.5 -137t64.5 -70t86 -20q48 0 89 20t66 70t25 137v402h43v-407q0 -77 -18.5 -128.5t-50.5 -81t-71.5 -42t-82.5 -12.5zM298 711l-139 122h44l111 -85h4l111 85h44l-139 -122h-36z" />
    <glyph glyph-name="uni01D4" unicode="&#x1d4;" horiz-adv-x="529" 
d="M230 -12q-74 0 -109.5 45.5t-35.5 138.5v308h44v-302q0 -76 26 -113t83 -37q43 0 78 23.5t77 74.5v354h44v-480h-37l-5 80h-2q-35 -41 -74 -66.5t-89 -25.5zM246 570l-139 154h40l114 -112h4l114 112h40l-139 -154h-34z" />
    <glyph glyph-name="uni01D5" unicode="&#x1d5;" horiz-adv-x="634" 
d="M316 -12q-42 0 -82 12.5t-71 42t-49.5 81t-18.5 128.5v407h46v-402q0 -87 24.5 -137t64.5 -70t86 -20q48 0 89 20t66 70t25 137v402h43v-407q0 -77 -18.5 -128.5t-50.5 -81t-71.5 -42t-82.5 -12.5zM218 725q-15 0 -25.5 9.5t-10.5 26.5q0 16 10.5 26t25.5 10q16 0 26 -10
t10 -26q0 -17 -10 -26.5t-26 -9.5zM414 725q-15 0 -25.5 9.5t-10.5 26.5q0 16 10.5 26t25.5 10q16 0 26 -10t10 -26q0 -17 -10 -26.5t-26 -9.5zM192 854v34h248v-34h-248z" />
    <glyph glyph-name="uni01D6" unicode="&#x1d6;" horiz-adv-x="529" 
d="M230 -12q-74 0 -109.5 45.5t-35.5 138.5v308h44v-302q0 -76 26 -113t83 -37q43 0 78 23.5t77 74.5v354h44v-480h-37l-5 80h-2q-35 -41 -74 -66.5t-89 -25.5zM174 598q-15 0 -25.5 11t-10.5 25q0 16 10.5 26.5t25.5 10.5q16 0 26.5 -10.5t10.5 -26.5q0 -14 -10.5 -25
t-26.5 -11zM352 598q-15 0 -26 11t-11 25q0 16 11 26.5t26 10.5q16 0 26 -10.5t10 -26.5q0 -14 -10 -25t-26 -11zM138 747v34h248v-34h-248z" />
    <glyph glyph-name="uni01D7" unicode="&#x1d7;" horiz-adv-x="634" 
d="M316 -12q-42 0 -82 12.5t-71 42t-49.5 81t-18.5 128.5v407h46v-402q0 -87 24.5 -137t64.5 -70t86 -20q48 0 89 20t66 70t25 137v402h43v-407q0 -77 -18.5 -128.5t-50.5 -81t-71.5 -42t-82.5 -12.5zM218 725q-15 0 -25.5 9.5t-10.5 26.5q0 16 10.5 26t25.5 10q16 0 26 -10
t10 -26q0 -17 -10 -26.5t-26 -9.5zM414 725q-15 0 -25.5 9.5t-10.5 26.5q0 16 10.5 26t25.5 10q16 0 26 -10t10 -26q0 -17 -10 -26.5t-26 -9.5zM272 824l89 104h49l3 -5l-103 -99h-38z" />
    <glyph glyph-name="uni01D8" unicode="&#x1d8;" horiz-adv-x="529" 
d="M230 -12q-74 0 -109.5 45.5t-35.5 138.5v308h44v-302q0 -76 26 -113t83 -37q43 0 78 23.5t77 74.5v354h44v-480h-37l-5 80h-2q-35 -41 -74 -66.5t-89 -25.5zM174 598q-15 0 -25.5 11t-10.5 25q0 16 10.5 26.5t25.5 10.5q16 0 26.5 -10.5t10.5 -26.5q0 -14 -10.5 -25
t-26.5 -11zM352 598q-15 0 -26 11t-11 25q0 16 11 26.5t26 10.5q16 0 26 -10.5t10 -26.5q0 -14 -10 -25t-26 -11zM210 703l100 106h47l3 -5l-114 -101h-36z" />
    <glyph glyph-name="uni01D9" unicode="&#x1d9;" horiz-adv-x="634" 
d="M316 -12q-42 0 -82 12.5t-71 42t-49.5 81t-18.5 128.5v407h46v-402q0 -87 24.5 -137t64.5 -70t86 -20q48 0 89 20t66 70t25 137v402h43v-407q0 -77 -18.5 -128.5t-50.5 -81t-71.5 -42t-82.5 -12.5zM218 725q-15 0 -25.5 9.5t-10.5 26.5q0 16 10.5 26t25.5 10q16 0 26 -10
t10 -26q0 -17 -10 -26.5t-26 -9.5zM414 725q-15 0 -25.5 9.5t-10.5 26.5q0 16 10.5 26t25.5 10q16 0 26 -10t10 -26q0 -17 -10 -26.5t-26 -9.5zM299 833l-120 98h41l94 -62h4l94 62h41l-120 -98h-34z" />
    <glyph glyph-name="uni01DA" unicode="&#x1da;" horiz-adv-x="529" 
d="M230 -12q-74 0 -109.5 45.5t-35.5 138.5v308h44v-302q0 -76 26 -113t83 -37q43 0 78 23.5t77 74.5v354h44v-480h-37l-5 80h-2q-35 -41 -74 -66.5t-89 -25.5zM174 598q-15 0 -25.5 11t-10.5 25q0 16 10.5 26.5t25.5 10.5q16 0 26.5 -10.5t10.5 -26.5q0 -14 -10.5 -25
t-26.5 -11zM352 598q-15 0 -26 11t-11 25q0 16 11 26.5t26 10.5q16 0 26 -10.5t10 -26.5q0 -14 -10 -25t-26 -11zM246 692l-128 102h43l100 -67h4l100 67h43l-128 -102h-34z" />
    <glyph glyph-name="uni01DB" unicode="&#x1db;" horiz-adv-x="634" 
d="M316 -12q-42 0 -82 12.5t-71 42t-49.5 81t-18.5 128.5v407h46v-402q0 -87 24.5 -137t64.5 -70t86 -20q48 0 89 20t66 70t25 137v402h43v-407q0 -77 -18.5 -128.5t-50.5 -81t-71.5 -42t-82.5 -12.5zM218 725q-15 0 -25.5 9.5t-10.5 26.5q0 16 10.5 26t25.5 10q16 0 26 -10
t10 -26q0 -17 -10 -26.5t-26 -9.5zM414 725q-15 0 -25.5 9.5t-10.5 26.5q0 16 10.5 26t25.5 10q16 0 26 -10t10 -26q0 -17 -10 -26.5t-26 -9.5zM322 824l-103 99l3 5h49l89 -104h-38z" />
    <glyph glyph-name="uni01DC" unicode="&#x1dc;" horiz-adv-x="529" 
d="M230 -12q-74 0 -109.5 45.5t-35.5 138.5v308h44v-302q0 -76 26 -113t83 -37q43 0 78 23.5t77 74.5v354h44v-480h-37l-5 80h-2q-35 -41 -74 -66.5t-89 -25.5zM174 598q-15 0 -25.5 11t-10.5 25q0 16 10.5 26.5t25.5 10.5q16 0 26.5 -10.5t10.5 -26.5q0 -14 -10.5 -25
t-26.5 -11zM352 598q-15 0 -26 11t-11 25q0 16 11 26.5t26 10.5q16 0 26 -10.5t10 -26.5q0 -14 -10 -25t-26 -11zM280 703l-114 101l3 5h47l100 -106h-36z" />
    <glyph glyph-name="uni01DD" unicode="&#x1dd;" horiz-adv-x="483" 
d="M231 -12q-59 0 -102 29t-67 81t-24 123q0 9 0.5 18t1.5 19h363v-38h-323q0 -92 42 -142.5t109 -50.5q41 0 76.5 22.5t56.5 70t21 119.5q0 67 -21 115t-59 73.5t-89 25.5q-39 0 -71.5 -10.5t-58.5 -28.5l-18 31q28 19 63.5 33t88.5 14q61 0 108.5 -30t75 -86t27.5 -135
t-27 -135.5t-72.5 -87t-100.5 -30.5z" />
    <glyph glyph-name="uni01E2" unicode="&#x1e2;" horiz-adv-x="809" 
d="M21 0l365 659h366v-40h-295v-249h245v-40h-245v-290h305v-40h-351v619h-4q-30 -56 -61.5 -114t-62.5 -117l-213 -388h-49zM170 217v38h275v-38h-275zM451 743v36h248v-36h-248z" />
    <glyph glyph-name="uni01E3" unicode="&#x1e3;" horiz-adv-x="777" 
d="M197 -12q-38 0 -69.5 14t-50.5 43t-19 74q0 81 74.5 122.5t229.5 59.5q1 37 -7.5 72t-33.5 57.5t-72 22.5q-44 0 -83.5 -18.5t-64.5 -35.5l-20 31q17 13 44 27.5t59.5 24.5t68.5 10q59 0 94 -32.5t46 -87.5q26 55 70 87.5t97 32.5q57 0 97 -26t61 -76t21 -120
q0 -9 -0.5 -18t-2.5 -19h-331q-1 -60 22 -106.5t61.5 -73t86.5 -26.5q40 0 70.5 10t55.5 29l18 -31q-28 -20 -61.5 -33.5t-86.5 -13.5q-43 0 -75 14.5t-55.5 37t-41.5 47.5q-46 -45 -101 -72t-101 -27zM205 27q39 0 88.5 24t89.5 68q-9 22 -15 54.5t-6 66.5v26
q-141 -17 -200 -51.5t-59 -92.5q0 -51 30.5 -73t71.5 -22zM405 269h292q0 92 -37 138.5t-100 46.5q-40 0 -73.5 -23.5t-55 -65t-26.5 -96.5zM291 606v36h246v-36h-246z" />
    <glyph glyph-name="uni01E4" unicode="&#x1e4;" horiz-adv-x="650" 
d="M338 -12q-85 0 -148.5 42t-99 119t-35.5 182q0 78 21 141t59.5 107.5t92 68t118.5 23.5q67 0 110.5 -25.5t69.5 -53.5l-27 -30q-25 28 -61.5 47.5t-90.5 19.5q-76 0 -130.5 -36.5t-84 -103t-29.5 -158.5q0 -91 28.5 -159t81.5 -105t128 -37q45 0 84.5 13t63.5 37v244h44
v-261q-31 -33 -80.5 -54t-114.5 -21zM331 191v33l160 5h133v-38h-293z" />
    <glyph glyph-name="uni01E5" unicode="&#x1e5;" horiz-adv-x="565" 
d="M278 235v33l130 5h131v-38h-261zM258 -230q-48 0 -90.5 14t-78.5 38l20 35q36 -26 73.5 -38t75.5 -12q74 0 111.5 42.5t38.5 115.5v109q-29 -30 -69 -52t-88 -22q-60 0 -105 28.5t-69.5 83.5t-24.5 134q0 76 30 131t78 85t106 30q43 0 75.5 -15t64.5 -41h2l5 44h39v-521
q0 -86 -50.5 -137.5t-143.5 -51.5zM257 39q40 0 76.5 20.5t74.5 58.5v273q-38 34 -71 48t-69 14q-48 0 -86.5 -27t-61 -74t-22.5 -106q0 -93 41.5 -150t117.5 -57z" />
    <glyph glyph-name="Gcaron" unicode="&#x1e6;" horiz-adv-x="605" 
d="M338 -12q-85 0 -148.5 42t-99 119t-35.5 182q0 78 21 140.5t59.5 107.5t92 68.5t118.5 23.5q67 0 110.5 -25.5t69.5 -53.5l-27 -30q-25 28 -61.5 47.5t-90.5 19.5q-76 0 -130.5 -36.5t-84 -103t-29.5 -158.5q0 -91 28.5 -159t81.5 -105t128 -37q45 0 84.5 13t63.5 37v205
h-158v39h202v-261q-31 -33 -80.5 -54t-114.5 -21zM325 711l-139 122h44l111 -85h4l111 85h44l-139 -122h-36z" />
    <glyph glyph-name="gcaron" unicode="&#x1e7;" horiz-adv-x="487" 
d="M249 -231q-61 0 -105 16.5t-68 46t-24 70.5q0 32 19 62t52 54v4q-18 11 -30 30t-12 47q0 32 18 54.5t34 33.5v4q-22 20 -41 54.5t-19 77.5q0 49 22.5 87.5t61 60t85.5 21.5q20 0 36.5 -3.5t26.5 -8.5h163v-37h-112v-4q22 -18 37.5 -47t15.5 -70q0 -49 -22.5 -87t-60 -60
t-84.5 -22q-21 0 -42 5.5t-38 14.5q-15 -12 -27 -28.5t-12 -40.5q0 -26 19.5 -44.5t72.5 -18.5h103q81 0 119.5 -26.5t38.5 -83.5q0 -41 -28 -78t-79 -60.5t-120 -23.5zM242 188q33 0 61 17t45.5 47.5t17.5 70.5q0 62 -36.5 97.5t-87.5 35.5t-88 -35.5t-37 -97.5
q0 -40 17.5 -70.5t45.5 -47.5t62 -17zM254 -195q54 0 93.5 17.5t61.5 45.5t22 58q0 40 -28.5 56.5t-82.5 16.5h-103q-7 0 -24 2t-36 6q-33 -22 -48 -48.5t-15 -52.5q0 -45 42 -73t118 -28zM236 570l-139 154h40l114 -112h4l114 112h40l-139 -154h-34z" />
    <glyph glyph-name="uni01EA" unicode="&#x1ea;" horiz-adv-x="652" 
d="M339 -215q-38 0 -65.5 21t-27.5 66q0 30 22 68.5t74 63.5l-16 -16q-79 0 -140 42.5t-96 119.5t-35 182q0 104 35 180.5t96 117.5t140 41t140.5 -41t96.5 -117.5t35 -180.5q0 -97 -27 -165t-71.5 -109t-96.5 -58q-45 -15 -70.5 -37t-36 -44.5t-10.5 -39.5
q0 -30 18.5 -43.5t40.5 -13.5q16 0 29 5t25 14l17 -27q-13 -11 -33.5 -20t-43.5 -9zM326 29q67 0 117 37.5t78 105.5t28 160q0 91 -28 157.5t-78 103t-117 36.5t-117 -36.5t-78 -103t-28 -157.5q0 -92 28 -160t78 -105.5t117 -37.5z" />
    <glyph glyph-name="uni01EB" unicode="&#x1eb;" horiz-adv-x="535" 
d="M281 -213q-37 0 -63.5 21t-26.5 67q0 31 21.5 68t68.5 61l-14 -16q-57 0 -106.5 29.5t-79 86t-29.5 135.5q0 80 29.5 137t79 86.5t106.5 29.5q58 0 107 -29.5t79 -86.5t30 -137q0 -66 -21.5 -114.5t-55.5 -80t-70 -45.5q-58 -21 -81.5 -53t-23.5 -65q0 -30 17 -43.5
t39 -13.5q16 0 28 4.5t25 14.5l16 -27q-13 -11 -32 -20t-43 -9zM267 27q49 0 87.5 26.5t60.5 74.5t22 111t-22 111.5t-60.5 75.5t-87.5 27q-48 0 -86 -27t-60.5 -75.5t-22.5 -111.5t22.5 -111t60.5 -74.5t86 -26.5z" />
    <glyph glyph-name="uni01EE" unicode="&#x1ee;" horiz-adv-x="547" 
d="M280 -12q-73 0 -130 21t-105 75l27 29q46 -49 95.5 -66t110.5 -17q48 0 89 18t65.5 52t24.5 83q0 71 -46 109.5t-122 38.5q-31 0 -49 -3.5t-38 -12.5l-23 33l250 271h-340v40h403v-27l-247 -270q78 13 136 -7t90 -64.5t32 -105.5q0 -63 -30.5 -107t-81 -67t-111.5 -23z
M271 711l-139 122h44l111 -85h4l111 85h44l-139 -122h-36z" />
    <glyph glyph-name="uni01EF" unicode="&#x1ef;" horiz-adv-x="404" 
d="M193 -229q-73 0 -117 24t-74 51l26 31q27 -26 65 -46.5t99 -20.5q41 0 74.5 21.5t54 60.5t20.5 90q0 73 -39.5 114.5t-116.5 41.5q-21 0 -35 -5t-31 -14l-24 31l215 292h-263v38h320v-23l-212 -288q71 14 123 -7t80.5 -68t28.5 -109q0 -69 -28 -117t-72.5 -72.5
t-93.5 -24.5zM195 570l-139 154h40l114 -112h4l114 112h40l-139 -154h-34z" />
    <glyph glyph-name="uni01F0" unicode="&#x1f0;" horiz-adv-x="229" 
d="M29 -229q-15 0 -32.5 4t-29.5 10l11 34q9 -3 23.5 -6.5t26.5 -3.5q41 0 52.5 29.5t11.5 75.5v566h45v-569q0 -47 -12 -78t-35.5 -46.5t-60.5 -15.5zM98 570l-139 154h40l114 -112h4l114 112h40l-139 -154h-34z" />
    <glyph glyph-name="uni01F4" unicode="&#x1f4;" horiz-adv-x="605" 
d="M338 -12q-85 0 -148.5 42t-99 119t-35.5 182q0 78 21 140.5t59.5 107.5t92 68.5t118.5 23.5q67 0 110.5 -25.5t69.5 -53.5l-27 -30q-25 28 -61.5 47.5t-90.5 19.5q-76 0 -130.5 -36.5t-84 -103t-29.5 -158.5q0 -91 28.5 -159t81.5 -105t128 -37q45 0 84.5 13t63.5 37v205
h-158v39h202v-261q-31 -33 -80.5 -54t-114.5 -21zM271 709l138 124h62l3 -5l-157 -119h-46z" />
    <glyph glyph-name="uni01F5" unicode="&#x1f5;" horiz-adv-x="487" 
d="M249 -231q-61 0 -105 16.5t-68 46t-24 70.5q0 32 19 62t52 54v4q-18 11 -30 30t-12 47q0 32 18 54.5t34 33.5v4q-22 20 -41 54.5t-19 77.5q0 49 22.5 87.5t61 60t85.5 21.5q20 0 36.5 -3.5t26.5 -8.5h163v-37h-112v-4q22 -18 37.5 -47t15.5 -70q0 -49 -22.5 -87t-60 -60
t-84.5 -22q-21 0 -42 5.5t-38 14.5q-15 -12 -27 -28.5t-12 -40.5q0 -26 19.5 -44.5t72.5 -18.5h103q81 0 119.5 -26.5t38.5 -83.5q0 -41 -28 -78t-79 -60.5t-120 -23.5zM242 188q33 0 61 17t45.5 47.5t17.5 70.5q0 62 -36.5 97.5t-87.5 35.5t-88 -35.5t-37 -97.5
q0 -40 17.5 -70.5t45.5 -47.5t62 -17zM254 -195q54 0 93.5 17.5t61.5 45.5t22 58q0 40 -28.5 56.5t-82.5 16.5h-103q-7 0 -24 2t-36 6q-33 -22 -48 -48.5t-15 -52.5q0 -45 42 -73t118 -28zM181 570l137 154h52l3 -5l-152 -149h-40z" />
    <glyph glyph-name="uni01F7" unicode="&#x1f7;" horiz-adv-x="549" 
d="M97 -144v803h46v-88q23 25 52 48t63 37.5t70 14.5q50 0 89 -20t62 -65.5t23 -120.5q0 -74 -33.5 -151t-112 -156.5t-213.5 -159.5v-142h-46zM143 43q122 77 190 149.5t95 141t27 131.5t-18 98.5t-48 50.5t-68 15q-29 0 -62.5 -15t-63.5 -39.5t-52 -51.5v-480z" />
    <glyph glyph-name="uni01F8" unicode="&#x1f8;" horiz-adv-x="636" 
d="M97 0v659h50l276 -463q19 -33 38 -66.5t36 -66.5h4q-1 48 -3.5 96t-2.5 96v404h44v-659h-50l-276 463q-19 33 -38 67t-36 66h-4l4 -92t2 -95v-409h-44zM357 709l-157 119l3 5h62l138 -124h-46z" />
    <glyph glyph-name="uni01F9" unicode="&#x1f9;" horiz-adv-x="532" 
d="M92 0v480h38l4 -74h3q37 37 76.5 61.5t88.5 24.5q75 0 110 -45.5t35 -138.5v-308h-44v302q0 77 -25.5 113.5t-84.5 36.5q-43 0 -77.5 -22.5t-79.5 -67.5v-362h-44zM316 570l-152 149l3 5h52l137 -154h-40z" />
    <glyph glyph-name="Aringacute" unicode="&#x1fa;" horiz-adv-x="526" 
d="M8 0l232 659h46l232 -659h-48l-132 388q-20 59 -38 113.5t-35 114.5h-4q-17 -60 -35 -114.5t-38 -113.5l-134 -388h-46zM114 226v39h295v-39h-295zM263 700q-44 0 -71.5 22.5t-27.5 57.5q0 23 10 39t30 30l112 79h51l3 -5l-116 -72l11 9q42 0 69.5 -21t27.5 -59
q0 -35 -27 -57.5t-72 -22.5zM263 725q28 0 46.5 14t18.5 41q0 28 -18.5 42t-46.5 14q-27 0 -46 -14t-19 -42q0 -27 19 -41t46 -14z" />
    <glyph glyph-name="aringacute" unicode="&#x1fb;" horiz-adv-x="491" 
d="M197 -12q-38 0 -69.5 14t-50.5 43.5t-19 73.5q0 81 75 122.5t235 59.5q0 37 -8.5 72t-33 57.5t-72.5 22.5t-88 -18.5t-65 -35.5l-20 31q17 13 44 27.5t61.5 24.5t73.5 10q56 0 89.5 -25t48 -67t14.5 -93v-307h-38l-4 62h-3q-36 -29 -79.5 -51.5t-90.5 -22.5zM205 27
q41 0 79.5 19.5t83.5 57.5v162q-99 -11 -157 -30.5t-83 -47.5t-25 -66q0 -51 30.5 -73t71.5 -22zM262 548q-42 0 -69.5 25.5t-27.5 64.5q0 34 17.5 53.5t49.5 44.5l85 73h49l3 -5l-109 -80l4 4q51 0 73 -28.5t22 -61.5q0 -39 -27.5 -64.5t-69.5 -25.5zM262 574
q28 0 46.5 17.5t18.5 46.5q0 31 -18.5 48.5t-46.5 17.5q-27 0 -46 -17.5t-19 -48.5q0 -29 19 -46.5t46 -17.5z" />
    <glyph glyph-name="AEacute" unicode="&#x1fc;" horiz-adv-x="809" 
d="M21 0l365 659h366v-40h-295v-249h245v-40h-245v-290h305v-40h-351v619h-4q-30 -56 -61.5 -114t-62.5 -117l-213 -388h-49zM170 217v38h275v-38h-275zM503 709l138 124h62l3 -5l-157 -119h-46z" />
    <glyph glyph-name="aeacute" unicode="&#x1fd;" horiz-adv-x="777" 
d="M197 -12q-38 0 -69.5 14t-50.5 43t-19 74q0 81 74.5 122.5t229.5 59.5q1 37 -7.5 72t-33.5 57.5t-72 22.5q-44 0 -83.5 -18.5t-64.5 -35.5l-20 31q17 13 44 27.5t59.5 24.5t68.5 10q59 0 94 -32.5t46 -87.5q26 55 70 87.5t97 32.5q57 0 97 -26t61 -76t21 -120
q0 -9 -0.5 -18t-2.5 -19h-331q-1 -60 22 -106.5t61.5 -73t86.5 -26.5q40 0 70.5 10t55.5 29l18 -31q-28 -20 -61.5 -33.5t-86.5 -13.5q-43 0 -75 14.5t-55.5 37t-41.5 47.5q-46 -45 -101 -72t-101 -27zM205 27q39 0 88.5 24t89.5 68q-9 22 -15 54.5t-6 66.5v26
q-141 -17 -200 -51.5t-59 -92.5q0 -51 30.5 -73t71.5 -22zM405 269h292q0 92 -37 138.5t-100 46.5q-40 0 -73.5 -23.5t-55 -65t-26.5 -96.5zM342 570l137 154h52l3 -5l-152 -149h-40z" />
    <glyph glyph-name="Oslashacute" unicode="&#x1fe;" horiz-adv-x="652" 
d="M85 -23l-30 22l511 683l30 -22zM330 -12q-79 0 -140.5 42.5t-96 119.5t-34.5 182q0 104 34.5 180.5t96 117.5t140.5 41t140.5 -41t96 -117.5t34.5 -180.5q0 -105 -34.5 -182t-96 -119.5t-140.5 -42.5zM330 30q67 0 117 37.5t78 105t28 159.5q0 91 -28 157.5t-78 103
t-117 36.5t-117 -36.5t-78 -103t-28 -157.5q0 -92 28 -159.5t78 -105t117 -37.5zM251 709l138 124h62l3 -5l-157 -119h-46z" />
    <glyph glyph-name="oslashacute" unicode="&#x1ff;" horiz-adv-x="535" 
d="M268 -12q-58 0 -107.5 29.5t-79 86t-29.5 135.5q0 80 29.5 137t79 86.5t106.5 29.5q58 0 107 -29.5t79 -86.5t30 -137q0 -79 -30 -135.5t-79 -86t-106 -29.5zM268 26q48 0 86.5 27t61 74.5t22.5 110.5q0 65 -22 113.5t-61 75.5t-88 27q-48 0 -86.5 -27t-61 -75.5
t-22.5 -111.5q0 -64 22.5 -112t61 -75t87.5 -27zM73 -24l-29 24l418 503l29 -24zM195 570l137 154h52l3 -5l-152 -149h-40z" />
    <glyph glyph-name="uni0200" unicode="&#x200;" horiz-adv-x="526" 
d="M8 0l232 659h46l232 -659h-48l-132 388q-20 59 -38 113.5t-35 114.5h-4q-17 -60 -35 -114.5t-38 -113.5l-134 -388h-46zM114 226v39h295v-39h-295zM165 709l-135 119l3 5h55l118 -124h-41zM347 709l-135 119l3 5h55l118 -124h-41z" />
    <glyph glyph-name="uni0201" unicode="&#x201;" horiz-adv-x="491" 
d="M197 -12q-38 0 -69.5 14t-50.5 43.5t-19 73.5q0 81 75 122.5t235 59.5q0 37 -8.5 72t-33 57.5t-72.5 22.5t-88 -18.5t-65 -35.5l-20 31q17 13 44 27.5t61.5 24.5t73.5 10q56 0 89.5 -25t48 -67t14.5 -93v-307h-38l-4 62h-3q-36 -29 -79.5 -51.5t-90.5 -22.5zM205 27
q41 0 79.5 19.5t83.5 57.5v162q-99 -11 -157 -30.5t-83 -47.5t-25 -66q0 -51 30.5 -73t71.5 -22zM173 570l-106 149l3 6h42l93 -155h-32zM326 570l-106 149l3 6h42l93 -155h-32z" />
    <glyph glyph-name="uni0204" unicode="&#x204;" horiz-adv-x="515" 
d="M97 0v659h361v-40h-315v-249h264v-40h-264v-290h325v-40h-371zM192 709l-135 119l3 5h55l118 -124h-41zM374 709l-135 119l3 5h55l118 -124h-41z" />
    <glyph glyph-name="uni0205" unicode="&#x205;" horiz-adv-x="483" 
d="M274 -12q-62 0 -112 30t-80 86.5t-30 134.5q0 79 30 135.5t77.5 87t101.5 30.5q57 0 98.5 -26t63.5 -75.5t22 -120.5q0 -8 -0.5 -17.5t-2.5 -19.5h-363v38h324q0 92 -38 137.5t-103 45.5q-40 0 -78 -23t-62.5 -70.5t-24.5 -119.5q0 -66 24 -114.5t65 -74t92 -25.5
q39 0 71.5 10.5t57.5 28.5l18 -31q-28 -19 -63 -33t-88 -14zM172 570l-106 149l3 6h42l93 -155h-32zM325 570l-106 149l3 6h42l93 -155h-32z" />
    <glyph glyph-name="uni0208" unicode="&#x208;" horiz-adv-x="240" 
d="M97 0v659h46v-659h-46zM22 709l-135 119l3 5h55l118 -124h-41zM204 709l-135 119l3 5h55l118 -124h-41z" />
    <glyph glyph-name="uni0209" unicode="&#x209;" horiz-adv-x="229" 
d="M92 0v480h44v-480h-44zM24 570l-106 149l3 6h42l93 -155h-32zM177 570l-106 149l3 6h42l93 -155h-32z" />
    <glyph glyph-name="uni020C" unicode="&#x20c;" horiz-adv-x="652" 
d="M326 -12q-79 0 -140 42.5t-96 119.5t-35 182q0 104 35 180.5t96 117.5t140 41t140.5 -41t96.5 -117.5t35 -180.5q0 -105 -35 -182t-96.5 -119.5t-140.5 -42.5zM326 30q67 0 117 37.5t78 105t28 159.5q0 91 -28 157.5t-78 103t-117 36.5t-117 -36.5t-78 -103t-28 -157.5
q0 -92 28 -159.5t78 -105t117 -37.5zM228 709l-135 119l3 5h55l118 -124h-41zM410 709l-135 119l3 5h55l118 -124h-41z" />
    <glyph glyph-name="uni020D" unicode="&#x20d;" horiz-adv-x="535" 
d="M267 -12q-57 0 -106.5 29.5t-79 86t-29.5 135.5q0 80 29.5 137t79 86.5t106.5 29.5q58 0 107 -29.5t79 -86.5t30 -137q0 -79 -30 -135.5t-79 -86t-107 -29.5zM267 27q49 0 87.5 26.5t60.5 74.5t22 111t-22 111.5t-60.5 75.5t-87.5 27q-48 0 -86 -27t-60.5 -75.5
t-22.5 -111.5t22.5 -111t60.5 -74.5t86 -26.5zM178 570l-106 149l3 6h42l93 -155h-32zM331 570l-106 149l3 6h42l93 -155h-32z" />
    <glyph glyph-name="uni0218" unicode="&#x218;" horiz-adv-x="521" 
d="M269 -12q-72 0 -127.5 28t-95.5 71l29 30q35 -40 85.5 -63.5t108.5 -23.5q76 0 120 36.5t44 95.5q0 41 -16 66t-43 41t-59 31l-100 45q-30 13 -60.5 33t-52 51.5t-21.5 79.5t25 84.5t68 57t99 20.5q60 0 107 -23t76 -55l-25 -30q-30 30 -69.5 48t-88.5 18
q-65 0 -105.5 -32t-40.5 -86q0 -38 18.5 -62t45.5 -39t50 -26l100 -44q38 -17 70 -38.5t50.5 -53.5t18.5 -83q0 -50 -25.5 -90.5t-73 -63.5t-112.5 -23zM192 -219l-7 30q65 5 89 18t24 34q0 23 -20.5 33.5t-56.5 13.5l13 29q57 -9 80 -25t23 -48q0 -39 -37 -59.5t-108 -25.5
z" />
    <glyph glyph-name="uni0219" unicode="&#x219;" horiz-adv-x="405" 
d="M208 -12q-56 0 -100.5 18t-75.5 49l24 28q30 -26 65.5 -41.5t89.5 -15.5q56 0 85 28.5t29 66.5q0 30 -17.5 49.5t-44.5 33t-55 23.5q-37 13 -71 29.5t-56 42t-22 65.5q0 53 40 90.5t114 37.5q41 0 76.5 -14t61.5 -36l-24 -27q-24 17 -51 28t-64 11q-56 0 -82.5 -27
t-26.5 -60q0 -27 15.5 -44.5t40.5 -29.5t54 -23q38 -15 74.5 -31t59.5 -42.5t23 -73.5q0 -36 -18.5 -66.5t-55 -49.5t-88.5 -19zM134 -219l-7 30q65 5 89 18t24 34q0 23 -20.5 33.5t-56.5 13.5l13 29q57 -9 80 -25t23 -48q0 -39 -37 -59.5t-108 -25.5z" />
    <glyph glyph-name="uni021A" unicode="&#x21a;" horiz-adv-x="524" 
d="M239 0v619h-210v40h466v-40h-210v-619h-46zM185 -219l-7 30q65 5 89 18t24 34q0 23 -20.5 33.5t-56.5 13.5l13 29q57 -9 80 -25t23 -48q0 -39 -37 -59.5t-108 -25.5z" />
    <glyph glyph-name="uni021B" unicode="&#x21b;" horiz-adv-x="312" 
d="M223 -8q-70 0 -95 40t-25 104v306h-75v34l76 4l6 159h38v-159h139v-38h-139v-309q0 -46 16 -74.5t65 -28.5q14 0 28.5 3.5t31.5 11.5l14 -31q-19 -10 -40 -16t-40 -6zM127 -219l-7 30q65 5 89 18t24 34q0 23 -20.5 33.5t-56.5 13.5l13 29q57 -9 80 -25t23 -48
q0 -39 -37 -59.5t-108 -25.5z" />
    <glyph glyph-name="uni021C" unicode="&#x21c;" horiz-adv-x="488" 
d="M111 -156l-19 36q113 50 179.5 101t95 100t28.5 93q0 57 -35 88t-93 31q-28 0 -57.5 -6t-61.5 -26l-19 30q69 40 113.5 71t68.5 57t33.5 51t9.5 51q0 51 -29 79.5t-79 28.5q-56 0 -98 -25t-92 -76l-26 26q34 38 66.5 64t69.5 39.5t85 13.5q45 0 79 -17t52.5 -49.5
t18.5 -77.5q0 -61 -37.5 -106t-109.5 -92q86 8 137.5 -32.5t51.5 -119.5q0 -61 -35 -118.5t-108 -110.5t-189 -104z" />
    <glyph glyph-name="uni021D" unicode="&#x21d;" horiz-adv-x="419" 
d="M83 -229l-16 32q99 44 157 87.5t83.5 86t25.5 82.5q0 48 -31 75t-83 27q-24 0 -49.5 -5.5t-53.5 -22.5l-18 27q81 47 123.5 80.5t58.5 62t16 58.5q0 45 -25 69t-67 24q-49 0 -87 -21.5t-82 -66.5l-23 24q48 50 92 76t107 26q59 0 94.5 -33.5t35.5 -92.5q0 -52 -33.5 -90
t-96.5 -80q77 3 122 -31.5t45 -103.5q0 -53 -30.5 -102.5t-95.5 -96t-169 -91.5z" />
    <glyph glyph-name="uni021E" unicode="&#x21e;" horiz-adv-x="639" 
d="M97 0v659h46v-289h353v289h46v-659h-46v330h-353v-330h-46zM300 711l-139 122h44l111 -85h4l111 85h44l-139 -122h-36z" />
    <glyph glyph-name="uni021F" unicode="&#x21f;" horiz-adv-x="528" 
d="M92 0v719h44v-208v-106q37 37 77 62t89 25q75 0 110 -45.5t35 -138.5v-308h-44v302q0 77 -25.5 113.5t-84.5 36.5q-43 0 -77.5 -22.5t-79.5 -67.5v-362h-44zM266 761l-139 122h44l111 -85h4l111 85h44l-139 -122h-36z" />
    <glyph glyph-name="uni0220" unicode="&#x220;" horiz-adv-x="639" 
d="M498 -144v526q0 96 -20 149.5t-58.5 75.5t-93.5 22q-30 0 -64 -14.5t-65.5 -39t-53.5 -52.5v-523h-46v659h46v-88q23 26 53.5 49t65.5 37t71 14q67 0 114 -28t72 -90.5t25 -168.5v-528h-46z" />
    <glyph glyph-name="uni0222" unicode="&#x222;" horiz-adv-x="652" 
d="M326 -12q-76 0 -137.5 24t-97.5 70.5t-36 114.5q0 60 29.5 102t78 65.5t106.5 30.5v-18q-58 11 -94.5 38t-53 68.5t-16.5 98.5v77h46v-69q0 -71 24.5 -111.5t64.5 -57t86 -16.5q48 0 89 16.5t65.5 57t24.5 111.5v69h44v-77q0 -57 -17 -98.5t-53 -68.5t-94 -38v18
q58 -7 106 -30.5t77.5 -65.5t29.5 -102q0 -68 -36 -114.5t-98 -70.5t-138 -24zM326 30q64 0 114.5 18.5t79.5 56.5t29 94t-29 92.5t-79.5 54.5t-114.5 18q-63 0 -113.5 -18t-80 -54.5t-29.5 -92.5t29.5 -94t80 -56.5t113.5 -18.5z" />
    <glyph glyph-name="uni0223" unicode="&#x223;" horiz-adv-x="526" 
d="M268 27q49 0 86 20.5t57 55t20 75.5q0 58 -23.5 95.5t-67 63t-101.5 46.5q-74 -33 -109.5 -82t-35.5 -113q0 -45 22 -81.5t62 -58t90 -21.5zM267 -12q-63 0 -112.5 26t-78 71t-28.5 102q0 78 44 134t112 81v4q-56 33 -90 76.5t-34 107.5q0 44 10.5 77.5t32.5 63.5l35 -16
q-17 -26 -25 -56.5t-8 -65.5q0 -53 24.5 -87t63.5 -57.5t84 -42.5q56 36 83.5 80.5t27.5 97.5q0 30 -7.5 60.5t-26.5 57.5l34 20q23 -33 33.5 -66t10.5 -70q0 -67 -35 -115t-80 -79v-4q35 -17 67 -44.5t53 -68t21 -97.5q0 -54 -26.5 -97t-74 -68t-110.5 -25z" />
    <glyph glyph-name="uni0226" unicode="&#x226;" horiz-adv-x="526" 
d="M8 0l232 659h46l232 -659h-48l-132 388q-20 59 -38 113.5t-35 114.5h-4q-17 -60 -35 -114.5t-38 -113.5l-134 -388h-46zM114 226v39h295v-39h-295zM263 721q-16 0 -28 11.5t-12 29.5q0 17 12 28t28 11q17 0 28.5 -11t11.5 -28q0 -18 -11.5 -29.5t-28.5 -11.5z" />
    <glyph glyph-name="uni0227" unicode="&#x227;" horiz-adv-x="491" 
d="M197 -12q-38 0 -69.5 14t-50.5 43.5t-19 73.5q0 81 75 122.5t235 59.5q0 37 -8.5 72t-33 57.5t-72.5 22.5t-88 -18.5t-65 -35.5l-20 31q17 13 44 27.5t61.5 24.5t73.5 10q56 0 89.5 -25t48 -67t14.5 -93v-307h-38l-4 62h-3q-36 -29 -79.5 -51.5t-90.5 -22.5zM205 27
q41 0 79.5 19.5t83.5 57.5v162q-99 -11 -157 -30.5t-83 -47.5t-25 -66q0 -51 30.5 -73t71.5 -22zM262 596q-16 0 -27 11.5t-11 29.5t11 28.5t27 10.5q17 0 27.5 -10.5t10.5 -28.5t-10.5 -29.5t-27.5 -11.5z" />
    <glyph glyph-name="uni0237" unicode="&#x237;" horiz-adv-x="229" 
d="M29 -229q-15 0 -32.5 4t-29.5 10l11 34q9 -3 23.5 -6.5t26.5 -3.5q41 0 52.5 29.5t11.5 75.5v566h45v-569q0 -47 -12 -78t-35.5 -46.5t-60.5 -15.5z" />
    <glyph glyph-name="uni023A" unicode="&#x23a;" horiz-adv-x="526" 
d="M152 -44l-29 7l248 739l29 -7zM8 0l232 659h46l232 -659h-48l-132 388q-20 59 -38 113.5t-35 114.5h-4q-17 -60 -35 -114.5t-38 -113.5l-134 -388h-46zM114 226v39h295v-39h-295z" />
    <glyph glyph-name="uni023B" unicode="&#x23b;" horiz-adv-x="564" 
d="M191 -44l-30 7l253 739l30 -7zM331 -12q-81 0 -143.5 42t-97.5 119t-35 182q0 78 20 141t57.5 107.5t89 68t114.5 23.5q57 0 101.5 -23t70.5 -56l-27 -28q-27 31 -63.5 48t-80.5 17q-72 0 -124.5 -36.5t-81 -103t-28.5 -158.5q0 -91 28 -159t80 -105t123 -37q51 0 91 19
t76 59l25 -26q-37 -43 -83.5 -68.5t-111.5 -25.5z" />
    <glyph glyph-name="uni023C" unicode="&#x23c;" horiz-adv-x="449" 
d="M132 -44l-28 12l281 556l28 -12zM270 -12q-62 0 -111.5 29.5t-78 86t-28.5 135.5q0 80 30.5 137t80.5 86.5t108 29.5q50 0 83 -16.5t58 -42.5l-24 -27q-21 22 -50 34.5t-66 12.5q-49 0 -88 -27t-62.5 -75t-23.5 -112q0 -63 21.5 -111t60.5 -74.5t92 -26.5q39 0 72 14.5
t56 38.5l23 -27q-30 -29 -68 -47t-85 -18z" />
    <glyph glyph-name="uni023D" unicode="&#x23d;" horiz-adv-x="483" 
d="M22 332v36l97 2h238v-38h-335zM117 0v659h46v-619h304v-40h-350z" />
    <glyph glyph-name="uni023E" unicode="&#x23e;" horiz-adv-x="524" 
d="M51 -23l-25 16l470 708l25 -16zM239 0v619h-210v40h466v-40h-210v-619h-46z" />
    <glyph glyph-name="uni0241" unicode="&#x241;" horiz-adv-x="453" 
d="M182 0v277q108 39 152.5 91t44.5 120q0 63 -43 102t-122 39q-60 0 -107.5 -23t-78.5 -53l-28 30q33 34 86.5 61t126.5 27q60 0 108.5 -21.5t77 -62t28.5 -100.5q0 -55 -23.5 -99t-68 -78t-107.5 -59v-251h-46z" />
    <glyph glyph-name="uni0242" unicode="&#x242;" horiz-adv-x="402" 
d="M158 0v188q54 25 85.5 49t45.5 51t14 64q0 46 -31.5 73.5t-83.5 27.5q-47 0 -81.5 -18.5t-60.5 -44.5l-24 27q26 28 67.5 51.5t99.5 23.5q44 0 80 -16t57 -47.5t21 -77.5q0 -66 -40 -107.5t-105 -75.5v-168h-44z" />
    <glyph glyph-name="uni0243" unicode="&#x243;" horiz-adv-x="594" 
d="M117 0v659h178q67 0 115.5 -17t75.5 -52.5t27 -90.5q0 -51 -29.5 -89t-87.5 -53v-4q73 -10 115 -50.5t42 -109.5q0 -64 -30 -107t-85 -64.5t-130 -21.5h-191zM163 371h114q101 0 145.5 32.5t44.5 97.5q0 64 -47 92t-138 28h-119v-250zM163 38h133q99 0 155.5 37.5
t56.5 117.5q0 72 -55 106t-157 34h-133v-295zM22 175v34l96 4h212v-38h-308z" />
    <glyph glyph-name="uni0244" unicode="&#x244;" horiz-adv-x="674" 
d="M20 335v34l97 4h534v-38h-631zM336 -12q-42 0 -82 12.5t-71 42t-49.5 81t-18.5 128.5v407h46v-402q0 -87 24.5 -137t64.5 -70t86 -20q48 0 89 20t66 70t25 137v402h43v-407q0 -77 -18.5 -128.5t-50.5 -81t-71.5 -42t-82.5 -12.5z" />
    <glyph glyph-name="uni0245" unicode="&#x245;" horiz-adv-x="491" 
d="M4 0l216 659h49l218 -659h-49l-122 385q-19 61 -34.5 111t-35.5 110h-4q-20 -60 -35 -110t-34 -111l-122 -385h-47z" />
    <glyph glyph-name="uni0248" unicode="&#x248;" horiz-adv-x="482" 
d="M173 335v34l87 4h197v-38h-284zM202 -12q-54 0 -95 25t-66 72l34 22q25 -41 55.5 -59t71.5 -18q61 0 90 37t29 118v474h46v-479q0 -54 -16.5 -97t-52.5 -69t-96 -26z" />
    <glyph glyph-name="uni0249" unicode="&#x249;" horiz-adv-x="271" 
d="M22 233v34l91 4h132v-38h-223zM50 -229q-15 0 -32.5 4t-29.5 10l11 34q9 -3 23.5 -6.5t26.5 -3.5q41 0 52.5 29.5t11.5 75.5v566h45v-569q0 -47 -12 -78t-35.5 -46.5t-60.5 -15.5zM135 596q-16 0 -27 11.5t-11 29.5t11 28.5t27 10.5q17 0 27.5 -10.5t10.5 -28.5
t-10.5 -29.5t-27.5 -11.5z" />
    <glyph glyph-name="uni0250" unicode="&#x250;" horiz-adv-x="491" 
d="M261 -12q-69 0 -108.5 26.5t-56.5 71t-17 97.5v297h38l4 -72h3q38 38 85 61t95 23q54 0 91.5 -29t37.5 -92q0 -84 -74.5 -128.5t-235.5 -63.5q0 -25 6 -52t21.5 -50t43 -36.5t71.5 -13.5q42 0 81 19t63 35l20 -31q-17 -12 -43.5 -26.5t-58.5 -25t-66 -10.5zM123 214
q99 13 157 33.5t83 50t25 69.5q0 47 -27 67t-65 20q-40 0 -82.5 -21t-90.5 -69v-150z" />
    <glyph glyph-name="uni0251" unicode="&#x251;" horiz-adv-x="551" 
d="M251 -12q-90 0 -144.5 65t-54.5 186q0 78 29.5 134.5t78 87.5t106.5 31q43 0 75.5 -15.5t66.5 -42.5h2l3 46h39v-418q0 -16 6.5 -23.5t15.5 -7.5q3 0 6.5 0.5t9.5 1.5l7 -35q-4 -1 -12.5 -3.5t-18.5 -2.5q-25 0 -39.5 16t-16.5 55h-2q-29 -30 -68.5 -52.5t-88.5 -22.5z
M257 27q40 0 76.5 20.5t74.5 58.5v285q-38 34 -71 48t-69 14q-48 0 -86 -28t-60.5 -76.5t-22.5 -109.5q0 -95 41 -153.5t117 -58.5z" />
    <glyph glyph-name="uni0252" unicode="&#x252;" horiz-adv-x="552" 
d="M288 -12q-33 0 -70 15.5t-74 42.5h-2l-3 -46h-39v418q0 16 -6.5 24t-15.5 8h-6t-9 -2l-8 34q4 2 13 4.5t18 2.5q26 0 40 -16t16 -56h2q35 30 77 52.5t87 22.5q64 0 106.5 -30t64 -85.5t21.5 -129.5q0 -81 -29.5 -139t-77.5 -89t-105 -31zM286 27q49 0 86.5 28t59.5 77.5
t22 114.5q0 59 -15.5 105.5t-49 73.5t-88.5 27q-35 0 -73.5 -20t-82.5 -59v-285q41 -34 77.5 -48t63.5 -14z" />
    <glyph glyph-name="uni0253" unicode="&#x253;" horiz-adv-x="542" 
d="M280 -12q-34 0 -71.5 15.5t-72.5 41.5h-2l-5 -45h-37v558q0 55 17.5 93.5t50.5 59t80 20.5q17 0 36.5 -4t35.5 -12l-14 -36q-15 8 -29 11t-28 3q-55 0 -79.5 -38.5t-25.5 -99.5l-2 -140q37 31 79.5 53t85.5 22q65 0 107.5 -30t64 -85t21.5 -129q0 -81 -29.5 -138.5
t-77.5 -88.5t-105 -31zM278 27q49 0 86.5 27.5t59 77t21.5 114.5q0 59 -15 105.5t-48.5 73t-88.5 26.5q-36 0 -75 -20t-82 -59v-283q40 -34 77.5 -48t64.5 -14z" />
    <glyph glyph-name="uni0254" unicode="&#x254;" horiz-adv-x="449" 
d="M188 -12q-48 0 -89 15t-73 48l22 30q26 -24 61.5 -39t76.5 -15q49 0 86 26.5t57.5 74.5t20.5 111q0 64 -21.5 112.5t-59 75t-83.5 26.5q-40 0 -70 -13t-53 -36l-26 29q29 27 63 43t90 16q55 0 102 -29.5t76 -86t29 -137.5q0 -79 -28 -135.5t-75.5 -86t-105.5 -29.5z" />
    <glyph glyph-name="uni0255" unicode="&#x255;" horiz-adv-x="450" 
d="M112 -67l-34 14q43 105 112.5 167t149.5 62q46 0 67 -22.5t21 -53.5t-19.5 -56t-55 -40.5t-82.5 -15.5q-59 0 -109 29.5t-80 86t-30 135.5q0 81 30.5 137.5t80.5 86t108 29.5q50 0 83 -17.5t58 -41.5l-24 -28q-21 22 -50 35.5t-66 13.5q-49 0 -89 -27t-63 -75.5
t-23 -112.5q0 -63 24 -111t63.5 -75t88.5 -27t82 22t33 56q0 35 -50 35q-46 0 -87.5 -25.5t-77 -71.5t-61.5 -109z" />
    <glyph glyph-name="uni0256" unicode="&#x256;" horiz-adv-x="544" 
d="M505 -229q-33 0 -54.5 14t-32 42t-10.5 73l2 163q-32 -30 -71.5 -52.5t-87.5 -22.5q-90 0 -144.5 65t-54.5 186q0 78 29.5 134.5t78 87.5t105.5 31q44 0 77 -15t68 -44l-2 88v210h44v-824q0 -44 11 -71t43 -27q12 0 23 3.5t18 6.5l10 -36q-8 -4 -23 -8t-29 -4zM257 27
q40 0 76.5 20.5t74.5 58.5v285q-38 34 -71 48t-69 14q-48 0 -86 -28t-60.5 -76.5t-22.5 -109.5q0 -95 41 -153.5t117 -58.5z" />
    <glyph glyph-name="uni0257" unicode="&#x257;" horiz-adv-x="544" 
d="M251 -12q-90 0 -144.5 65t-54.5 186q0 78 29.5 134.5t78 87.5t105.5 31q44 0 77 -15t68 -44l-2 163q0 46 12.5 76.5t36 45.5t56.5 15q14 0 26.5 -2.5t22.5 -7.5l-10 -36q-8 3 -17 5.5t-21 2.5q-35 0 -48.5 -29t-13.5 -75v-591h-38l-4 62h-3q-29 -29 -68.5 -51.5
t-87.5 -22.5zM257 27q40 0 76.5 20.5t74.5 58.5v285q-38 34 -71 48t-69 14q-48 0 -86 -28t-60.5 -76.5t-22.5 -109.5q0 -95 41 -153.5t117 -58.5z" />
    <glyph glyph-name="uni0258" unicode="&#x258;" horiz-adv-x="483" 
d="M219 -12q-56 0 -94 13.5t-68 33.5l19 31q27 -19 62 -29t77 -10q47 0 86 25.5t61.5 74t22.5 114.5q0 72 -21.5 119.5t-56 70.5t-73.5 23q-70 0 -112 -45.5t-42 -137.5h323v-38h-363q-1 10 -1.5 19.5t-0.5 17.5q0 71 24.5 120.5t68.5 75.5t104 26q53 0 97.5 -30.5t71.5 -87
t27 -135.5q0 -78 -28.5 -134.5t-77 -86.5t-106.5 -30z" />
    <glyph glyph-name="uni0259" unicode="&#x259;" horiz-adv-x="483" 
d="M231 -12q-59 0 -102 29t-67 81t-24 123q0 9 0.5 18t1.5 19h363v-38h-323q0 -92 42 -142.5t109 -50.5q41 0 76.5 22.5t56.5 70t21 119.5q0 67 -21 115t-59 73.5t-89 25.5q-39 0 -71.5 -10.5t-58.5 -28.5l-18 31q28 19 63.5 33t88.5 14q61 0 108.5 -30t75 -86t27.5 -135
t-27 -135.5t-72.5 -87t-100.5 -30.5z" />
    <glyph glyph-name="uni025A" unicode="&#x25a;" horiz-adv-x="633" 
d="M234 -12q-61 0 -102.5 25.5t-65 71t-28.5 102.5l498 188l10 -7q-1 -14 -1.5 -23.5t-0.5 -19.5q0 -57 13.5 -76.5t38.5 -19.5q12 0 22 4.5t16 10.5l18 -28q-11 -7 -25.5 -14.5t-36.5 -7.5t-40 10.5t-29 35t-11 65.5v22l-428 -161q11 -65 49 -102t103 -37q49 0 82.5 28.5
t51 76.5t17.5 105q0 74 -22 122t-59 71t-82 23q-41 0 -74 -12.5t-62 -32.5l-18 34q30 21 68 35.5t89 14.5q58 0 105 -28.5t74 -84.5t27 -139q0 -69 -23.5 -126t-67.5 -91.5t-106 -34.5z" />
    <glyph glyph-name="uni025B" unicode="&#x25b;" horiz-adv-x="425" 
d="M236 -12q-54 0 -95.5 18t-65 49.5t-23.5 73.5q0 36 16 61t41.5 40.5t51.5 22.5v4q-37 15 -59.5 45t-22.5 66q0 41 22 68.5t57.5 41.5t78.5 14q44 0 79 -13.5t65 -36.5l-20 -30q-29 22 -58 32t-66 10q-45 0 -78.5 -21.5t-33.5 -68.5q0 -39 33.5 -66t104.5 -27h46v-38h-60
q-71 0 -111 -27t-40 -75t40 -76.5t104 -28.5q40 0 73 10.5t68 37.5l20 -27q-38 -32 -77 -45.5t-90 -13.5z" />
    <glyph glyph-name="uni025C" unicode="&#x25c;" horiz-adv-x="441" 
d="M205 -12q-51 0 -89.5 13.5t-77.5 45.5l20 27q35 -27 68 -37.5t73 -10.5q65 0 104.5 30t39.5 79q0 46 -39.5 72t-111.5 26h-60v38h46q71 0 104.5 28t33.5 69q0 43 -31.5 64.5t-76.5 21.5q-36 0 -66.5 -9.5t-61.5 -32.5l-20 29q30 25 66.5 38t81.5 13q42 0 76.5 -13.5
t56 -40.5t21.5 -67q0 -38 -22 -68.5t-60 -45.5v-4q26 -7 51.5 -22t41.5 -39.5t16 -59.5q0 -42 -23.5 -74.5t-65 -51t-95.5 -18.5z" />
    <glyph glyph-name="uni025D" unicode="&#x25d;" horiz-adv-x="550" 
d="M205 -12q-51 0 -90 13.5t-77 45.5l20 27q35 -27 68 -37.5t73 -10.5q65 0 104.5 30t39.5 80q0 46 -39.5 72t-111.5 26h-60v36h46q71 0 104.5 28.5t33.5 68.5q0 44 -31.5 65.5t-76.5 21.5q-36 0 -66.5 -9.5t-61.5 -32.5l-20 30q30 24 66.5 37t81.5 13q41 0 76 -13.5t56 -41
t21 -66.5q0 -19 -7 -38.5t-23 -39.5l-9 20l131 61l10 -6q-1 -14 -1.5 -23.5t-0.5 -19.5q0 -57 13.5 -76.5t38.5 -19.5q12 0 22 4.5t16 10.5l18 -28q-10 -7 -25 -14.5t-36 -7.5q-22 0 -40 10.5t-29 35t-11 65.5v22l-148 -70v-4q26 -7 51.5 -22t41.5 -39.5t16 -59.5
q0 -42 -23.5 -74.5t-65 -51t-95.5 -18.5z" />
    <glyph glyph-name="uni025E" unicode="&#x25e;" horiz-adv-x="534" 
d="M281 -12q-66 0 -118 25.5t-81.5 77t-29.5 130.5q0 87 33 148t87.5 92t119.5 31q46 0 82.5 -14t58 -41.5t21.5 -68.5q0 -36 -21.5 -66t-60.5 -45v-4q27 -7 52 -22.5t41.5 -40.5t16.5 -60q0 -43 -22.5 -74.5t-67 -49.5t-111.5 -18zM282 26q80 0 117 29t37 77t-39.5 74.5
t-111.5 26.5h-39v38h25q72 0 105 26.5t33 66.5q0 47 -33.5 68.5t-83.5 21.5q-55 0 -98.5 -27.5t-69.5 -79.5t-26 -125q0 -68 23.5 -111.5t65.5 -64t95 -20.5z" />
    <glyph glyph-name="uni025F" unicode="&#x25f;" horiz-adv-x="271" 
d="M22 233v34l91 4h132v-38h-223zM50 -229q-15 0 -32.5 4t-29.5 10l11 34q9 -3 23.5 -6.5t26.5 -3.5q41 0 52.5 29.5t11.5 75.5v566h45v-569q0 -47 -12 -78t-35.5 -46.5t-60.5 -15.5z" />
    <glyph glyph-name="uni0260" unicode="&#x260;" horiz-adv-x="544" 
d="M258 -230q-48 0 -90.5 14t-78.5 38l20 35q36 -26 73.5 -38t75.5 -12q74 0 111.5 42.5t38.5 115.5v109q-29 -30 -69 -52t-88 -22q-60 0 -105 28.5t-69.5 83.5t-24.5 134q0 76 30 131t78 85t106 30q43 0 75.5 -15t68.5 -44l-2 163q0 45 12.5 75t36 45t56.5 15
q14 0 26.5 -2.5t22.5 -7.5l-10 -36q-8 3 -17.5 5.5t-21.5 2.5q-23 0 -36.5 -14.5t-19 -39t-5.5 -54.5v-626q0 -86 -50.5 -137.5t-143.5 -51.5zM257 39q40 0 76.5 20.5t74.5 58.5v273q-38 34 -71 48t-69 14q-48 0 -86 -27.5t-61 -74t-23 -105.5q0 -93 41.5 -150t117.5 -57z
" />
    <glyph glyph-name="uni0261" unicode="&#x261;" horiz-adv-x="544" 
d="M258 -230q-48 0 -90.5 14t-78.5 38l20 35q36 -26 73.5 -38t75.5 -12q74 0 111.5 42.5t38.5 115.5v109q-29 -30 -69 -52t-88 -22q-60 0 -105 28.5t-69.5 83.5t-24.5 134q0 76 30 131t78 85t106 30q43 0 75.5 -15t64.5 -41h2l5 44h39v-521q0 -86 -50.5 -137.5t-143.5 -51.5
zM257 39q40 0 76.5 20.5t74.5 58.5v273q-38 34 -71 48t-69 14q-48 0 -86.5 -27t-61 -74t-22.5 -106q0 -93 41.5 -150t117.5 -57z" />
    <glyph glyph-name="uni0262" unicode="&#x262;" horiz-adv-x="486" 
d="M276 -12q-66 0 -116.5 30t-79 87.5t-28.5 137.5q0 57 16.5 103t47 78.5t73 50t92.5 17.5q52 0 86.5 -17t59.5 -43l-24 -27q-21 22 -51.5 35t-69.5 13q-53 0 -95 -25.5t-66.5 -72.5t-24.5 -112q0 -101 50 -158.5t133 -57.5q35 0 64.5 11t46.5 28v138h-122v38h164v-195
q-25 -24 -64.5 -41.5t-91.5 -17.5z" />
    <glyph glyph-name="uni0263" unicode="&#x263;" horiz-adv-x="434" 
d="M218 -231q-45 0 -67.5 27.5t-22.5 70.5q0 23 8 51t24.5 62t37.5 76v-46l-186 470h48l108 -289q11 -34 24 -63.5t24 -63.5h4q12 34 24.5 63.5t24.5 63.5l108 289h45l-183 -470v45q21 -41 37 -75t24.5 -62t8.5 -51q0 -43 -22.5 -70.5t-68.5 -27.5zM218 -195q26 0 37.5 17.5
t11.5 41.5q0 31 -12 67t-35 74h-4q-21 -38 -33.5 -74t-12.5 -67q0 -24 11.5 -41.5t36.5 -17.5z" />
    <glyph glyph-name="uni0264" unicode="&#x264;" horiz-adv-x="477" 
d="M238 -12q-53 0 -89 19.5t-53 55t-17 83.5q0 60 37.5 118t91.5 109q-32 36 -63.5 58t-64.5 22q-28 0 -48 -14l-16 33q14 10 31 15t36 5q41 0 80 -26t75 -66q36 40 76 66t79 26q19 0 36.5 -5t31.5 -15l-17 -33q-20 14 -48 14q-32 0 -64 -22t-63 -58q35 -34 64 -71t47 -76.5
t18 -79.5q0 -48 -17 -83.5t-52.5 -55t-90.5 -19.5zM238 26q59 0 87 35.5t28 85.5q0 53 -33.5 105.5t-81.5 96.5q-46 -44 -80 -96.5t-34 -105.5q0 -50 27.5 -85.5t86.5 -35.5z" />
    <glyph glyph-name="uni0265" unicode="&#x265;" horiz-adv-x="532" 
d="M395 -217v187l3 113q-39 -44 -78.5 -69.5t-89.5 -25.5q-74 0 -109.5 45.5t-35.5 138.5v308h44v-302q0 -76 26 -113t83 -37q43 0 78.5 23t78.5 75v354h44v-697h-44z" />
    <glyph glyph-name="uni0266" unicode="&#x266;" horiz-adv-x="528" 
d="M92 0v558q0 55 17.5 93.5t50.5 59t80 20.5q17 0 36.5 -4t35.5 -12l-14 -36q-15 8 -29 11t-28 3q-55 0 -79.5 -38.5t-25.5 -99.5v-152q37 37 77 62t89 25q75 0 110 -45.5t35 -138.5v-306h-44v300q0 77 -25.5 113.5t-84.5 36.5q-43 0 -77.5 -22.5t-79.5 -67.5v-360h-44z
" />
    <glyph glyph-name="uni0267" unicode="&#x267;" horiz-adv-x="528" 
d="M339 -229q-16 0 -33 4t-28 8l10 36q9 -3 22.5 -6.5t27.5 -3.5q41 0 53 29.5t12 75.5v386q0 77 -25.5 113.5t-84.5 36.5q-43 0 -77.5 -22.5t-79.5 -67.5v-360h-44v558q0 55 17.5 93.5t50.5 59t80 20.5q17 0 36.5 -4t35.5 -12l-14 -36q-15 8 -29 11t-28 3
q-55 0 -79.5 -38.5t-25.5 -99.5v-152q37 37 77 62t89 25q75 0 110 -45.5t35 -138.5v-395q0 -47 -11 -78t-35 -46.5t-62 -15.5z" />
    <glyph glyph-name="uni0268" unicode="&#x268;" horiz-adv-x="271" 
d="M22 233v34l91 4h132v-38h-223zM113 0v480h44v-480h-44zM134 596q-16 0 -27 11.5t-11 29.5t11 28.5t27 10.5q17 0 27.5 -10.5t10.5 -28.5t-10.5 -29.5t-27.5 -11.5z" />
    <glyph glyph-name="uni0269" unicode="&#x269;" horiz-adv-x="237" 
d="M151 -8q-20 0 -33 8t-19.5 25t-6.5 43v412h44v-418q0 -16 6.5 -23.5t16.5 -7.5q3 0 6.5 0.5t9.5 1.5l8 -35q-4 -1 -13 -3.5t-19 -2.5z" />
    <glyph glyph-name="uni026A" unicode="&#x26a;" horiz-adv-x="310" 
d="M43 0v39h90v403h-90v38h224v-38h-90v-403h90v-39h-224z" />
    <glyph glyph-name="uni026B" unicode="&#x26b;" horiz-adv-x="308" 
d="M188 -8q-20 0 -33 8t-19.5 25t-6.5 43v651h44v-657q0 -17 6.5 -24t16.5 -7q3 0 6.5 0.5t9.5 1.5l8 -35q-7 -3 -14.5 -4.5t-17.5 -1.5zM236 330q-30 0 -51.5 14.5t-38.5 33.5t-34 33t-39 14q-26 0 -38.5 -26.5t-14.5 -65.5l-34 4q2 31 10 59t26.5 46.5t50.5 18.5
q30 0 51 -14.5t38 -33.5t34 -33.5t39 -14.5q27 0 39.5 27.5t13.5 64.5l34 -4q-2 -30 -10 -58t-26 -46.5t-50 -18.5z" />
    <glyph glyph-name="uni026C" unicode="&#x26c;" horiz-adv-x="275" 
d="M113 342q-58 0 -86.5 23.5t-28.5 57.5q0 30 19.5 49.5t50.5 19.5q30 0 47.5 -15.5t26 -41t8.5 -55.5l-25 9q0 34 -13 52t-39 18q-19 0 -27.5 -11t-8.5 -25q0 -18 16.5 -30.5t52.5 -12.5h167v-38h-160zM125 0v719h44v-719h-44z" />
    <glyph glyph-name="uni026D" unicode="&#x26d;" horiz-adv-x="237" 
d="M190 -229q-34 0 -55.5 14.5t-32 43.5t-10.5 75v815h44v-812q0 -44 11.5 -71t43.5 -27q11 0 22 2.5t18 5.5l10 -34q-7 -4 -22 -8t-29 -4z" />
    <glyph glyph-name="uni026E" unicode="&#x26e;" horiz-adv-x="538" 
d="M92 0v719h44v-719h-44zM328 -229q-68 0 -111 24.5t-69 50.5l26 31q23 -25 59.5 -46t93.5 -21q40 0 74 21.5t54 60.5t20 90q0 73 -39 114.5t-115 41.5q-21 0 -35 -5t-31 -14l-24 31l213 292h-317v38h374v-23l-214 -294l-9 6q59 12 103.5 2.5t76 -35.5t47.5 -65t16 -86
q0 -69 -28 -117t-72 -72.5t-93 -24.5z" />
    <glyph glyph-name="uni026F" unicode="&#x26f;" horiz-adv-x="812" 
d="M229 -12q-72 0 -108 45.5t-36 138.5v308h44v-302q0 -76 26.5 -113t81.5 -37q34 0 69 22.5t75 67.5v362h44v-302q0 -76 26.5 -113t80.5 -37q65 0 144 90v362h44v-480h-37l-5 75h-2q-33 -37 -72.5 -62t-79.5 -25q-57 0 -88.5 27t-43.5 71q-41 -44 -81 -71t-82 -27z" />
    <glyph glyph-name="uni0270" unicode="&#x270;" horiz-adv-x="812" 
d="M676 -217v185l3 110q-36 -41 -75.5 -65.5t-79.5 -24.5q-57 0 -88.5 27t-43.5 71q-41 -44 -81 -71t-82 -27q-72 0 -108 45.5t-36 138.5v308h44v-302q0 -76 26.5 -113t81.5 -37q34 0 69 22.5t75 67.5v362h44v-302q0 -76 26.5 -113t80.5 -37q65 0 144 90v362h44v-697h-44z
" />
    <glyph glyph-name="uni0271" unicode="&#x271;" horiz-adv-x="812" 
d="M621 -229q-16 0 -32.5 4t-28.5 8l11 36q8 -3 21.5 -6.5t27.5 -3.5q40 0 51.5 29.5t11.5 75.5v388q0 77 -25.5 113.5t-81.5 36.5q-34 0 -69 -22.5t-75 -67.5v-362h-44v302q0 77 -26 113.5t-82 36.5q-64 0 -144 -90v-362h-44v480h38l4 -74h3q32 37 71.5 61.5t79.5 24.5
q59 0 89.5 -26.5t43.5 -71.5q41 46 81.5 72t81.5 26q72 0 108 -45.5t36 -138.5v-397q0 -47 -12 -78t-35 -46.5t-60 -15.5z" />
    <glyph glyph-name="uni0272" unicode="&#x272;" horiz-adv-x="532" 
d="M39 -229q-14 0 -28.5 4t-23.5 8l10 36q8 -3 18.5 -6.5t22.5 -3.5q32 0 43 27t11 71v573h41l1 -74h3q37 37 76.5 61.5t88.5 24.5q75 0 110 -45.5t35 -138.5v-308h-44v302q0 77 -25.5 113.5t-84.5 36.5q-43 0 -77.5 -22.5t-79.5 -67.5v-458q0 -46 -10 -75t-31.5 -43.5
t-55.5 -14.5z" />
    <glyph glyph-name="uni0273" unicode="&#x273;" horiz-adv-x="532" 
d="M500 -229q-34 0 -55.5 14.5t-31.5 43.5t-10 75v398q0 77 -25.5 113.5t-84.5 36.5q-43 0 -77.5 -22.5t-79.5 -67.5v-362h-44v480h38l4 -74h3q37 37 76.5 61.5t88.5 24.5q75 0 110 -45.5t35 -138.5v-401q0 -44 11 -71t43 -27q12 0 23 3.5t18 6.5l10 -36q-8 -4 -23 -8
t-29 -4z" />
    <glyph glyph-name="uni0274" unicode="&#x274;" horiz-adv-x="532" 
d="M92 0v480h46l198 -312q15 -22 31 -51.5t31 -54.5h4q-1 47 -3 92.5t-2 85.5v240h43v-480h-45l-199 312q-15 23 -31 52.5t-31 53.5h-4q2 -47 3.5 -92.5t1.5 -85.5v-240h-43z" />
    <glyph glyph-name="uni0275" unicode="&#x275;" horiz-adv-x="535" 
d="M267 -12q-58 0 -107 28.5t-78.5 84.5t-29.5 138q0 84 29.5 140t78.5 84.5t107 28.5q59 0 108 -28.5t78.5 -84.5t29.5 -140q0 -82 -29.5 -138t-78.5 -84.5t-108 -28.5zM267 27q50 0 89 25.5t61.5 73t22.5 113.5q0 67 -22.5 114.5t-61.5 74t-89 26.5q-49 0 -88 -26.5
t-61.5 -74t-22.5 -114.5q0 -66 22.5 -113.5t61.5 -73t88 -25.5zM83 233v38h365v-38h-365z" />
    <glyph glyph-name="uni0276" unicode="&#x276;" horiz-adv-x="684" 
d="M285 -12q-50 0 -92.5 17t-74 49t-49 79t-17.5 108t17.5 107.5t49 78.5t74 48.5t92.5 16.5q22 0 45 -2t50 -10h277v-38h-243v-171h202v-38h-202v-195h253v-38h-287q-27 -7 -50 -9.5t-45 -2.5zM287 27q19 0 40.5 4.5t40.5 9.5v398q-19 6 -40.5 10t-40.5 4q-53 0 -95.5 -24
t-67 -71t-24.5 -117t24.5 -117.5t67 -72t95.5 -24.5z" />
    <glyph glyph-name="uni0277" unicode="&#x277;" horiz-adv-x="679" 
d="M212 -12q-41 0 -76.5 24.5t-56.5 74t-21 125.5q0 53 18.5 102.5t55 90t89 64t120.5 23.5t120.5 -23t88 -62.5t54 -89.5t18.5 -103q0 -77 -20 -127t-54.5 -74.5t-79.5 -24.5q-27 0 -51.5 10t-44 29.5t-30.5 48.5h-4q-15 -44 -49.5 -66t-76.5 -22zM216 26q25 0 48.5 12.5
t38.5 42.5t15 84v105h43v-105q0 -54 15.5 -84.5t39 -42.5t47.5 -12q50 0 82 44.5t32 142.5q0 65 -28 120t-81 88t-128 33t-128 -34t-82 -90.5t-29 -122.5q0 -90 34 -135.5t81 -45.5z" />
    <glyph glyph-name="uni0278" unicode="&#x278;" horiz-adv-x="647" 
d="M302 -217v936h43v-936h-43zM309 -10q-65 0 -124.5 29t-96 85.5t-36.5 136.5t36.5 136t96 84.5t124.5 28.5l-1 -36q-55 0 -103.5 -26t-77.5 -73.5t-29 -113.5t29 -114t77.5 -74.5t103.5 -26.5zM338 -10l1 36q56 0 103.5 26.5t76.5 74.5t29 114t-27 113.5t-75 73.5t-107 26
l-1 36q69 0 127 -28.5t94 -84.5t36 -136t-37 -136.5t-95.5 -85.5t-124.5 -29z" />
    <glyph glyph-name="uni0279" unicode="&#x279;" horiz-adv-x="317" 
d="M225 480v-480h-38l-4 89h-3q-23 -44 -57.5 -72.5t-78.5 -28.5q-13 0 -24.5 2t-23.5 8l12 38q10 -3 18.5 -4.5t23.5 -1.5q32 0 67.5 27.5t63.5 95.5v327h44z" />
    <glyph glyph-name="uni027A" unicode="&#x27a;" horiz-adv-x="317" 
d="M44 -12q-13 0 -24.5 2t-23.5 8l13 38q9 -3 18 -4.5t23 -1.5q32 0 68 28t63 96v565h44v-719h-37l-5 90h-2q-23 -44 -58 -73t-79 -29z" />
    <glyph glyph-name="uni027B" unicode="&#x27b;" horiz-adv-x="317" 
d="M278 -229q-33 0 -54 14t-31 43t-10 74v188h-2q-23 -44 -58 -73t-79 -29q-13 0 -24.5 2t-23.5 8l13 38q9 -3 18 -4.5t23 -1.5q32 0 68 28t63 96v326h44v-573q0 -44 11 -71t43 -27q12 0 23 3.5t18 6.5l10 -36q-8 -4 -23 -8t-29 -4z" />
    <glyph glyph-name="uni027D" unicode="&#x27d;" horiz-adv-x="317" 
d="M190 -229q-34 0 -55.5 14.5t-32 43.5t-10.5 75v576h38l4 -89h3q23 44 57.5 72.5t78.5 28.5q13 0 24.5 -2t23.5 -8l-10 -40q-12 5 -20.5 6.5t-23.5 1.5q-32 0 -67.5 -27.5t-63.5 -95.5v-420q0 -44 11.5 -71t43.5 -27q11 0 22 3.5t18 6.5l10 -36q-7 -4 -22 -8t-29 -4z" />
    <glyph glyph-name="uni027E" unicode="&#x27e;" horiz-adv-x="306" 
d="M92 0v320q0 58 19.5 96t53 57t75.5 19q22 0 39 -3t30 -11l-9 -38q-14 8 -27.5 10t-32.5 2q-29 0 -52.5 -16.5t-37.5 -47.5t-14 -76v-312h-44z" />
    <glyph glyph-name="uni027F" unicode="&#x27f;" horiz-adv-x="243" 
d="M114 -217v566q0 46 -12 75.5t-53 29.5q-12 0 -21.5 -2.5t-17.5 -5.5l-12 34q10 5 23.5 8.5t28.5 3.5q37 0 61 -15.5t35.5 -46.5t11.5 -78v-569h-44z" />
    <glyph glyph-name="uni0280" unicode="&#x280;" horiz-adv-x="474" 
d="M92 0v480h153q50 0 88.5 -13t61 -41.5t22.5 -77.5q0 -36 -13.5 -62.5t-36 -43t-52.5 -25t-63 -8.5h-116v-209h-44zM136 247h98q64 0 100.5 25t36.5 75q0 51 -36.5 73t-100.5 22h-98v-195zM382 0l-138 216l36 15l152 -231h-50z" />
    <glyph glyph-name="uni0281" unicode="&#x281;" horiz-adv-x="474" 
d="M92 0v480h44v-205h117q33 0 62.5 -8t52 -25t36 -44t13.5 -64q0 -49 -22.5 -78t-61 -42.5t-88.5 -13.5h-153zM136 38h98q64 0 100.5 23.5t36.5 73.5t-36.5 76.5t-100.5 26.5h-98v-200zM280 253l-36 15l138 212h50z" />
    <glyph glyph-name="uni0282" unicode="&#x282;" horiz-adv-x="405" 
d="M138 -229q-36 0 -59.5 15.5t-35 46.5t-11.5 78v158l4 2q43 -24 85.5 -34.5t88.5 -10.5q57 0 86 28.5t29 66.5q0 30 -18 49.5t-44.5 33t-54.5 23.5q-36 13 -70.5 29.5t-56.5 41.5t-22 66q0 53 40 90.5t114 37.5q39 0 75.5 -14t62.5 -36l-24 -31q-25 18 -51.5 30.5
t-63.5 12.5q-56 0 -82.5 -27t-26.5 -60q0 -27 16 -44.5t41 -29.5t53 -23q38 -15 74 -30.5t59.5 -42.5t23.5 -74q0 -36 -18.5 -66.5t-55 -49.5t-88.5 -19q-36 0 -74 6.5t-76 23.5l15 25v-129q0 -46 12.5 -75.5t52.5 -29.5q14 0 27.5 3t22.5 6l11 -35q-11 -4 -27.5 -8
t-33.5 -4z" />
    <glyph glyph-name="uni0283" unicode="&#x283;" horiz-adv-x="229" 
d="M29 -229q-17 0 -33.5 4t-28.5 8l12 36q10 -3 22.5 -6.5t26.5 -3.5q41 0 52.5 29.5t11.5 75.5v677q0 47 13 78t39 46.5t66 15.5q15 0 28.5 -3.5t23.5 -8.5l-12 -34q-7 3 -17.5 5.5t-21.5 2.5q-46 0 -60 -29t-14 -76v-677q0 -47 -12 -78t-35.5 -46.5t-60.5 -15.5z" />
    <glyph glyph-name="uni0284" unicode="&#x284;" horiz-adv-x="262" 
d="M22 233v34l91 4h132v-38h-223zM50 -229q-17 0 -33.5 4t-28.5 8l12 36q10 -3 22.5 -6.5t26.5 -3.5q41 0 52.5 29.5t11.5 75.5v677q0 47 13 78t39 46.5t66 15.5q15 0 28.5 -3.5t23.5 -8.5l-12 -34q-7 3 -17.5 5.5t-21.5 2.5q-46 0 -60 -29t-14 -76v-677q0 -47 -12 -78
t-35.5 -46.5t-60.5 -15.5z" />
    <glyph glyph-name="uni0285" unicode="&#x285;" horiz-adv-x="259" 
d="M212 -229q-34 0 -55.5 14.5t-32 43.5t-10.5 75v445q0 46 -12 75.5t-53 29.5q-12 0 -21.5 -2.5t-17.5 -5.5l-12 34q10 5 23.5 8.5t28.5 3.5q37 0 61 -15.5t35.5 -46.5t11.5 -78v-445q0 -44 11.5 -71t43.5 -27q11 0 22 2.5t18 5.5l10 -34q-7 -4 -22 -8t-29 -4z" />
    <glyph glyph-name="uni0287" unicode="&#x287;" horiz-adv-x="312" 
d="M89 488q70 0 95 -40t25 -104v-306h75v-34l-76 -4l-6 -159h-38v159h-139v38h139v309q0 46 -16 74.5t-65 28.5q-14 0 -28.5 -3.5t-31.5 -11.5l-14 31q19 10 40 16t40 6z" />
    <glyph glyph-name="uni0288" unicode="&#x288;" horiz-adv-x="312" 
d="M223 -229q-70 0 -95 40t-25 104v527h-75v34l76 4l6 159h38v-159h139v-38h-139v-530q0 -46 16 -74.5t65 -28.5q14 0 31 5t29 10l12 -35q-21 -7 -42.5 -12.5t-35.5 -5.5z" />
    <glyph glyph-name="uni0289" unicode="&#x289;" horiz-adv-x="559" 
d="M13 257v34l94 4h442v-38h-536zM251 -12q-74 0 -109.5 45.5t-35.5 138.5v308h44v-302q0 -76 26 -113t83 -37q43 0 78 23.5t77 74.5v354h44v-480h-37l-5 80h-2q-35 -41 -74 -66.5t-89 -25.5z" />
    <glyph glyph-name="uni028A" unicode="&#x28a;" horiz-adv-x="533" 
d="M266 -12q-67 0 -114 32t-72 83.5t-25 110.5q0 55 14.5 98t36 75t43.5 53v2h-106v38h168v-29q-46 -33 -78 -90t-32 -138q0 -51 19 -96t55.5 -72.5t90.5 -27.5t91.5 27.5t56 72.5t18.5 96q0 81 -31.5 138t-78.5 90v29h168v-38h-107v-2q23 -21 44.5 -53t36 -75t14.5 -98
q0 -59 -25 -110.5t-72 -83.5t-115 -32z" />
    <glyph glyph-name="uni028B" unicode="&#x28b;" horiz-adv-x="517" 
d="M255 -12q-47 0 -85.5 20.5t-61.5 66.5t-23 119v286h44v-277q0 -63 17.5 -102.5t47 -56.5t62.5 -17q51 0 86 33t53 89t18 124q0 86 -23 133.5t-71 47.5q-8 0 -16 -1.5t-18 -6.5l-11 38q12 5 25 6.5t27 1.5q43 0 73 -23t45.5 -70.5t15.5 -119.5q0 -82 -23.5 -148
t-69 -104.5t-112.5 -38.5z" />
    <glyph glyph-name="uni028C" unicode="&#x28c;" horiz-adv-x="434" 
d="M242 480l180 -480h-48l-108 301q-11 34 -24 69.5t-24 68.5h-4q-12 -33 -24.5 -68.5t-24.5 -69.5l-108 -301h-45l178 480h52z" />
    <glyph glyph-name="uni028D" unicode="&#x28d;" horiz-adv-x="685" 
d="M519 480l142 -480h-48l-86 311q-9 33 -17.5 64t-15.5 65h-4q-8 -34 -17 -65t-17 -64l-87 -311h-55l-87 311q-9 33 -17.5 64t-17.5 65h-4q-8 -34 -16.5 -65t-17.5 -64l-85 -311h-45l138 480h59l84 -298q9 -35 17.5 -68.5t18.5 -69.5h4q8 36 17 70.5t20 69.5l82 296h55z
" />
    <glyph glyph-name="uni028E" unicode="&#x28e;" horiz-adv-x="436" 
d="M12 0l201 573q14 40 35 76.5t52.5 59t74.5 22.5q13 0 26 -2.5t23 -7.5l-10 -38q-7 3 -18 5.5t-22 2.5q-44 0 -74 -36t-49 -91l-24 -75l197 -489h-48l-116 302q-12 30 -25.5 66.5t-26.5 68.5h-4q-12 -32 -23 -68.5t-22 -66.5l-102 -302h-45z" />
    <glyph glyph-name="uni028F" unicode="&#x28f;" horiz-adv-x="385" 
d="M171 0v173l-168 307h48l81 -155q14 -29 29 -55t31 -54h4q15 28 29.5 54t28.5 55l80 155h49l-168 -307v-173h-44z" />
    <glyph glyph-name="uni0290" unicode="&#x290;" horiz-adv-x="404" 
d="M422 -229q-34 0 -55 14.5t-31 43.5t-10 73v98h-299v24l284 418h-253v38h310v-23l-283 -418h283v-132q0 -44 11 -71t43 -27q12 0 23 3.5t18 6.5l10 -36q-8 -4 -23 -8t-28 -4z" />
    <glyph glyph-name="uni0291" unicode="&#x291;" horiz-adv-x="420" 
d="M212 -80l-34 7q14 65 31 113.5t38.5 81.5t47 49.5t55.5 16.5q39 0 61 -21t22 -58q0 -29 -16 -54t-48 -40.5t-80 -15.5h-59.5h-71.5t-71 0.5t-60 0.5v24l284 418h-253v38h309v-24l-283 -417q54 -1 108 -1h107q46 0 70.5 22.5t24.5 48.5q0 19 -10.5 31t-35.5 12
q-38 0 -75.5 -55.5t-60.5 -176.5z" />
    <glyph glyph-name="uni0292" unicode="&#x292;" horiz-adv-x="404" 
d="M193 -229q-73 0 -117 24t-74 51l26 31q27 -26 65 -46.5t99 -20.5q41 0 74.5 21.5t54 60.5t20.5 90q0 73 -39.5 114.5t-116.5 41.5q-21 0 -35 -5t-31 -14l-24 31l215 292h-263v38h320v-23l-212 -288q71 14 123 -7t80.5 -68t28.5 -109q0 -69 -28 -117t-72.5 -72.5
t-93.5 -24.5z" />
    <glyph glyph-name="uni0294" unicode="&#x294;" horiz-adv-x="399" 
d="M156 0v329q89 48 132 97.5t43 121.5q0 65 -37 104.5t-107 39.5q-58 0 -95.5 -23.5t-63.5 -53.5l-26 30q19 21 44.5 41t60 32.5t80.5 12.5q54 0 97 -21t68 -62t25 -101q0 -58 -23 -101t-63 -77t-91 -65v-304h-44z" />
    <glyph glyph-name="uni0295" unicode="&#x295;" horiz-adv-x="399" 
d="M198 0v304q-51 31 -90.5 65t-63 77t-23.5 101q0 60 26.5 101t71.5 62t102 21q44 0 76.5 -12.5t57 -32.5t42.5 -41l-26 -30q-24 30 -59.5 53.5t-90.5 23.5q-74 0 -114 -39.5t-40 -104.5q0 -72 44 -121.5t132 -97.5v-329h-45z" />
    <glyph glyph-name="uni0298" unicode="&#x298;" horiz-adv-x="507" 
d="M253 -12q-59 0 -101 38.5t-64 121.5t-22 215q0 117 22 199.5t64 125.5t101 43q60 0 101.5 -43t64 -125.5t22.5 -199.5q0 -132 -22.5 -215t-64 -121.5t-101.5 -38.5zM253 27q42 0 74.5 33.5t51 107t18.5 195.5q0 108 -18.5 181.5t-51 110.5t-74.5 37q-41 0 -73.5 -37
t-51 -110.5t-18.5 -181.5q0 -122 18.5 -195.5t51 -107t73.5 -33.5zM253 319q-17 0 -29 12.5t-12 32.5t12 32t29 12q18 0 30 -12t12 -32t-12 -32.5t-30 -12.5z" />
    <glyph glyph-name="uni0299" unicode="&#x299;" horiz-adv-x="496" 
d="M92 0v480h173q52 0 89.5 -12.5t57.5 -38.5t20 -68q0 -45 -23 -69t-57 -35v-3q26 -6 49 -20t38 -37.5t15 -59.5q0 -47 -22.5 -77t-64 -45t-97.5 -15h-178zM136 271h112q75 0 107 23.5t32 63.5q0 41 -31 63.5t-100 22.5h-120v-173zM136 36h125q73 0 110 26t37 77
q0 46 -40 70t-115 24h-117v-197z" />
    <glyph glyph-name="uni029B" unicode="&#x29b;" horiz-adv-x="486" 
d="M276 -12q-65 0 -116 30t-79.5 87.5t-28.5 137.5q0 57 16.5 103t47.5 78.5t73 50t92 17.5q31 0 60 -8t54 -26l-18 -13q-36 54 -57.5 102t-21.5 95q0 45 26.5 67t63.5 22q16 0 29 -4t26 -12l-12 -31q-9 4 -18 6.5t-20 2.5q-27 0 -41 -17.5t-14 -43.5q0 -39 19.5 -85
t69.5 -115l-24 -26q-22 22 -52 35t-69 13q-53 0 -95 -25.5t-66.5 -73t-24.5 -112.5q0 -101 50 -159t134 -58q34 0 63.5 11.5t46.5 28.5v139h-122v37h164v-195q-25 -24 -65 -41.5t-91 -17.5z" />
    <glyph glyph-name="uni029C" unicode="&#x29c;" horiz-adv-x="550" 
d="M92 0v480h44v-208h278v208h44v-480h-44v232h-278v-232h-44z" />
    <glyph glyph-name="uni029D" unicode="&#x29d;" horiz-adv-x="313" 
d="M279 -281q-36 58 -69.5 99.5t-66.5 63.5t-69 22q-31 0 -46 -12.5t-15 -32.5q0 -21 18.5 -35.5t45.5 -14.5q41 0 62.5 21.5t29 53.5t7.5 64v532h45v-524q0 -56 -15 -98t-47 -64.5t-83 -22.5q-49 0 -77 27.5t-28 61.5q0 36 26.5 58.5t75.5 22.5q69 0 125 -54.5t111 -149.5z
M198 596q-16 0 -27 11.5t-11 29.5t11 28.5t27 10.5q17 0 27.5 -10.5t10.5 -28.5t-10.5 -29.5t-27.5 -11.5z" />
    <glyph glyph-name="uni029E" unicode="&#x29e;" horiz-adv-x="464" 
d="M328 -217v506h-4l-261 -289h-52l317 344v136h44v-697h-44zM218 201l-181 279h49l159 -249z" />
    <glyph glyph-name="uni029F" unicode="&#x29f;" horiz-adv-x="399" 
d="M92 0v480h44v-441h237v-39h-281z" />
    <glyph glyph-name="uni02A1" unicode="&#x2a1;" horiz-adv-x="409" 
d="M42 147v34l79 4h209v-38h-288zM166 0v329q89 48 132 97.5t43 121.5q0 65 -37 104.5t-107 39.5q-58 0 -95.5 -23.5t-63.5 -53.5l-26 30q19 21 44.5 41t60 32.5t80.5 12.5q54 0 97 -21t68 -62t25 -101q0 -58 -23 -101t-63 -77t-91 -65v-304h-44z" />
    <glyph glyph-name="uni02A2" unicode="&#x2a2;" horiz-adv-x="409" 
d="M74 147v34l79 4h210v-38h-289zM198 0v304q-51 31 -90.5 65t-63 77t-23.5 101q0 60 26.5 101t71.5 62t102 21q44 0 76.5 -12.5t57 -32.5t42.5 -41l-26 -30q-24 30 -59.5 53.5t-90.5 23.5q-74 0 -114 -39.5t-40 -104.5q0 -72 44 -121.5t132 -97.5v-329h-45z" />
    <glyph glyph-name="uni02A3" unicode="&#x2a3;" horiz-adv-x="815" 
d="M241 -12q-85 0 -137 65t-52 186q0 78 28 134.5t74.5 87.5t100.5 31q41 0 70.5 -16t64.5 -43l-2 88v198h44v-719h-38l-4 62h-3q-28 -28 -64.5 -51t-81.5 -23zM247 27q38 0 71 21t70 58v285q-37 33 -67 47.5t-63 14.5q-45 0 -81 -28t-57 -76.5t-21 -109.5
q0 -95 38.5 -153.5t109.5 -58.5zM483 0v24l244 418h-302v38h355v-23l-244 -418h254v-39h-307z" />
    <glyph glyph-name="uni02A4" unicode="&#x2a4;" horiz-adv-x="815" 
d="M241 -12q-85 0 -137 65t-52 186q0 78 28 134.5t74.5 87.5t100.5 31q41 0 70.5 -16t64.5 -43l-2 88v198h44v-719h-38l-4 62h-3q-28 -28 -64.5 -51t-81.5 -23zM247 27q38 0 71 21t70 58v285q-37 33 -67 47.5t-63 14.5q-45 0 -81 -28t-57 -76.5t-21 -109.5
q0 -95 38.5 -153.5t109.5 -58.5zM614 -229q-43 0 -75.5 11.5t-55.5 29.5t-39 34l25 31q23 -25 57 -46t88 -21q37 0 68.5 21.5t51 60.5t19.5 90q0 73 -35 114.5t-101 41.5q-22 0 -35.5 -5t-31.5 -14l-23 31l195 292h-300v38h356v-23l-195 -293l-10 5q54 11 96 1t71 -35.5
t44 -64t15 -85.5q0 -69 -27 -117t-69 -72.5t-89 -24.5z" />
    <glyph glyph-name="uni02A5" unicode="&#x2a5;" horiz-adv-x="836" 
d="M241 -12q-86 0 -137.5 65t-51.5 186q0 78 28 134.5t74.5 87.5t100.5 31q41 0 70.5 -16t64.5 -43l-2 88v198h44v-719h-38l-4 62h-3q-28 -28 -64.5 -51t-81.5 -23zM247 27q38 0 71 21t70 58v285q-37 33 -67 47.5t-63 14.5q-45 0 -81 -28t-57 -76.5t-21 -109.5
q0 -95 38.5 -153.5t109.5 -58.5zM628 -80l-38 7q14 64 32.5 113t40 81.5t47.5 49.5t56 17q39 0 61 -22t22 -60q0 -29 -16 -53.5t-48.5 -39t-80.5 -14.5q-29 0 -70 0.5t-82 0.5h-69v24l244 418h-302v38h355v-23l-244 -418q46 -1 90 -1h89t70 21t25 47q0 19 -10.5 32.5
t-35.5 13.5q-38 0 -75.5 -56t-60.5 -176z" />
    <glyph glyph-name="uni02A6" unicode="&#x2a6;" horiz-adv-x="606" 
d="M327 -12q-63 0 -106 13.5t-69 38t-37.5 57.5t-11.5 74v271h-75v34l76 4l6 159h38v-159h214l-30 -38h-184v-275q0 -41 16 -72.5t55.5 -50t110.5 -18.5q65 0 104 7.5t59 20.5t26.5 30.5t6.5 36.5q0 30 -16.5 49.5t-42.5 33t-53 23.5q-35 13 -68.5 29t-55 41.5t-21.5 66.5
q0 53 38.5 90.5t110.5 37.5q40 0 74 -14t60 -36l-24 -27q-23 17 -49.5 28t-61.5 11q-54 0 -79 -27t-25 -60q0 -27 15.5 -44.5t39.5 -29.5t52 -23q36 -14 71 -29.5t57.5 -43t22.5 -74.5q0 -27 -9.5 -51.5t-35.5 -43.5t-74 -29.5t-125 -10.5z" />
    <glyph glyph-name="uni02A7" unicode="&#x2a7;" horiz-adv-x="530" 
d="M223 -8q-70 0 -95 40t-25 104v306h-75v34l76 4l6 159h38v-159h269v-38h-269v-309q0 -46 15.5 -74.5t64.5 -28.5q13 0 27.5 3.5t30.5 11.5l14 -32q-19 -10 -39 -15.5t-38 -5.5zM330 -229q-17 0 -33.5 4t-27.5 8l12 36q9 -3 21.5 -6.5t26.5 -3.5q41 0 53 29.5t12 75.5v677
q0 47 12.5 78t38.5 46.5t66 15.5q15 0 28.5 -3.5t23.5 -8.5l-12 -34q-7 3 -17 5.5t-22 2.5q-46 0 -60 -29t-14 -76v-677q0 -47 -11 -78t-35 -46.5t-62 -15.5z" />
    <glyph glyph-name="uni02A8" unicode="&#x2a8;" horiz-adv-x="717" 
d="M223 -8q-70 0 -95 40t-25 104v306h-75v34l76 4l6 159h38v-159h324v-38h-324v-309q0 -46 15.5 -74.5t64.5 -28.5q13 0 27.5 3.5t30.5 11.5l14 -32q-19 -10 -39 -15.5t-38 -5.5zM379 -67l-32 13q43 105 112 167t149 62q45 0 66 -22t21 -53t-19.5 -56t-54.5 -40.5t-82 -15.5
q-60 0 -109.5 29.5t-80 86t-30.5 135.5q0 81 31 137.5t80.5 86t108.5 29.5q49 0 82.5 -17.5t57.5 -41.5l-23 -28q-22 22 -51 35.5t-65 13.5q-50 0 -90 -27t-62.5 -75.5t-22.5 -112.5q0 -63 23.5 -111t63 -75t88.5 -27t82.5 22t33.5 56q0 35 -50 35q-46 0 -87.5 -25
t-77.5 -71.5t-62 -109.5z" />
    <glyph glyph-name="uni02B0" unicode="&#x2b0;" horiz-adv-x="356" 
d="M58 406v472h37v-133l-1 -70q23 23 51.5 39.5t59.5 16.5q57 0 79 -33.5t22 -87.5v-204h-38v197q0 43 -14 69t-59 26q-21 0 -45.5 -13.5t-54.5 -42.5v-236h-37z" />
    <glyph glyph-name="uni02B1" unicode="&#x2b1;" horiz-adv-x="356" 
d="M58 406v359q0 37 11.5 64.5t33.5 42.5t56 15q16 0 27.5 -2t24.5 -8l-9 -28q-7 3 -17.5 4.5t-23.5 1.5q-33 0 -49.5 -24.5t-16.5 -60.5l-1 -95q23 23 51.5 39.5t59.5 16.5q57 0 79 -33.5t22 -87.5v-204h-38v197q0 43 -14 69t-59 26q-21 0 -45.5 -13.5t-54.5 -42.5v-236
h-37z" />
    <glyph glyph-name="uni02B2" unicode="&#x2b2;" horiz-adv-x="157" 
d="M21 256q-13 0 -22 2t-21 6l10 32q7 -3 13 -4.5t16 -1.5q26 0 34.5 17.5t8.5 46.5v369h37v-365q0 -35 -8.5 -57.5t-25 -33.5t-42.5 -11zM80 796q-14 0 -23 8.5t-9 22.5q0 13 9 22t23 9t23 -9t9 -22q0 -14 -9 -22.5t-23 -8.5z" />
    <glyph glyph-name="uni02B3" unicode="&#x2b3;" horiz-adv-x="221" 
d="M58 406v317h29l7 -56h3q19 31 41 47.5t50 16.5q10 0 19.5 -1.5t15.5 -4.5l-9 -35q-5 2 -13 3t-16 1q-23 0 -46 -16.5t-42 -59.5v-212h-39z" />
    <glyph glyph-name="uni02B4" unicode="&#x2b4;" horiz-adv-x="221" 
d="M33 398q-10 0 -19.5 1.5t-15.5 4.5l9 35q6 -1 14 -2.5t15 -1.5q23 0 46.5 17t41.5 59v212h39v-317h-29l-7 56h-3q-19 -30 -40.5 -47t-50.5 -17z" />
    <glyph glyph-name="uni02B7" unicode="&#x2b7;" horiz-adv-x="466" 
d="M109 406l-93 317h41l52 -197l23 -87h4l23 87l54 197h40l56 -197l23 -87h4l25 87l51 197h38l-92 -317h-48l-51 186l-25 91h-2l-23 -91l-53 -186h-47z" />
    <glyph glyph-name="uni02B8" unicode="&#x2b8;" horiz-adv-x="299" 
d="M54 266q-10 0 -18.5 1.5t-17.5 4.5l9 34q7 -3 13 -4.5t13 -1.5q28 0 48 22t31 57l8 24l-132 320h39l74 -188q8 -20 17 -44t18 -49h4q7 24 15.5 47t15.5 46l62 188h38l-122 -347q-10 -29 -25 -53.5t-37.5 -40.5t-52.5 -16z" />
    <glyph glyph-name="uni02B9" unicode="&#x2b9;" horiz-adv-x="219" 
d="M110 523l-29 2l26 207l42 -4l-11 -69z" />
    <glyph glyph-name="uni02BB" unicode="&#x2bb;" horiz-adv-x="230" 
d="M127 475q-29 0 -54.5 24.5t-25.5 72.5q0 33 10 63t33.5 55t63.5 43l17 -26q-34 -19 -52 -38.5t-25 -41t-7 -43.5q0 -15 4.5 -26.5t13.5 -20.5h-7q6 12 15.5 17.5t22.5 5.5q14 0 27.5 -9.5t13.5 -31.5q0 -19 -14 -31.5t-36 -12.5z" />
    <glyph glyph-name="uni02BC" unicode="&#x2bc;" horiz-adv-x="230" 
d="M76 474l-17 26q34 19 52 39t25 40.5t7 43.5q0 16 -4 27t-14 19h7q-5 -11 -15 -16.5t-23 -5.5q-14 0 -27.5 10t-13.5 31q0 19 14.5 31t35.5 12q30 0 55 -24t25 -72q0 -33 -10 -63t-33.5 -55t-63.5 -43z" />
    <glyph glyph-name="uni02BD" unicode="&#x2bd;" horiz-adv-x="230" 
d="M154 474q-59 27 -83 67t-24 86q0 54 25.5 79t54.5 25q22 0 36 -12t14 -31q0 -21 -13.5 -31t-27.5 -10q-13 0 -22.5 5.5t-15.5 16.5h7q-9 -8 -13.5 -20.5t-4.5 -29.5q0 -21 7 -41.5t25.5 -39.5t51.5 -38z" />
    <glyph glyph-name="uni02BE" unicode="&#x2be;" horiz-adv-x="226" 
d="M43 489v31q57 0 84 23t27 65q0 41 -27 64.5t-84 23.5v31q74 3 112 -28.5t38 -90.5q0 -58 -38 -90t-112 -29z" />
    <glyph glyph-name="uni02BF" unicode="&#x2bf;" horiz-adv-x="226" 
d="M183 489q-74 -3 -112 29t-38 90q0 59 38 90.5t112 28.5v-31q-56 0 -83.5 -23.5t-27.5 -64.5q0 -42 27.5 -65t83.5 -23v-31z" />
    <glyph glyph-name="uni02C0" unicode="&#x2c0;" horiz-adv-x="288" 
d="M108 406v101q61 23 87 49t26 64q0 36 -25 57t-67 21q-35 0 -57.5 -13t-41.5 -33l-23 21q18 22 48.5 40t74.5 18q55 0 92.5 -28t37.5 -85q0 -46 -32.5 -76.5t-82.5 -53.5v-82h-37z" />
    <glyph glyph-name="uni02C1" unicode="&#x2c1;" horiz-adv-x="288" 
d="M143 406v82q-50 23 -82.5 53.5t-32.5 76.5q0 57 38 85t92 28q44 0 74.5 -18t48.5 -40l-23 -21q-18 20 -41 33t-58 13q-41 0 -66.5 -21t-25.5 -57q0 -38 26 -64t87 -49v-101h-37z" />
    <glyph glyph-name="circumflex" unicode="&#x2c6;" horiz-adv-x="535" 
d="M111 570l139 154h34l139 -154h-40l-114 112h-4l-114 -112h-40z" />
    <glyph glyph-name="caron" unicode="&#x2c7;" horiz-adv-x="535" 
d="M250 570l-139 154h40l114 -112h4l114 112h40l-139 -154h-34z" />
    <glyph glyph-name="uni02C8" unicode="&#x2c8;" horiz-adv-x="173" 
d="M71 478l-6 241h43l-6 -241h-31z" />
    <glyph glyph-name="uni02C9" unicode="&#x2c9;" horiz-adv-x="259" 
d="M6 606v36h246v-36h-246z" />
    <glyph glyph-name="uni02CA" unicode="&#x2ca;" horiz-adv-x="218" 
d="M35 570l137 154h52l3 -5l-152 -149h-40z" />
    <glyph glyph-name="uni02CB" unicode="&#x2cb;" horiz-adv-x="218" 
d="M139 570l-152 149l3 5h52l137 -154h-40z" />
    <glyph glyph-name="uni02CC" unicode="&#x2cc;" horiz-adv-x="95" 
d="M27 -270l6 195h30l6 -195h-42z" />
    <glyph glyph-name="uni02D0" unicode="&#x2d0;" horiz-adv-x="219" 
d="M54 0l51 113h9l51 -113h-111zM105 369l-51 111h111l-51 -111h-9z" />
    <glyph glyph-name="uni02D1" unicode="&#x2d1;" horiz-adv-x="219" 
d="M105 369l-51 111h111l-51 -111h-9z" />
    <glyph glyph-name="uni02D2" unicode="&#x2d2;" horiz-adv-x="226" 
d="M43 147v31q57 0 84 23t27 65q0 41 -27 64.5t-84 23.5v31q74 3 112 -28.5t38 -90.5q0 -58 -38 -90t-112 -29z" />
    <glyph glyph-name="uni02D3" unicode="&#x2d3;" horiz-adv-x="226" 
d="M183 147q-74 -3 -112 29t-38 90q0 59 38 90.5t112 28.5v-31q-56 0 -83.5 -23.5t-27.5 -64.5q0 -42 27.5 -65t83.5 -23v-31z" />
    <glyph glyph-name="uni02D4" unicode="&#x2d4;" horiz-adv-x="362" 
d="M33 109v34h129v284h37v-284h130v-34h-296z" />
    <glyph glyph-name="uni02D5" unicode="&#x2d5;" horiz-adv-x="362" 
d="M162 109v284h-129v34h296v-34h-130v-284h-37z" />
    <glyph glyph-name="uni02D6" unicode="&#x2d6;" horiz-adv-x="362" 
d="M162 109v142h-129v34h129v142h37v-142h130v-34h-130v-142h-37z" />
    <glyph glyph-name="uni02D7" unicode="&#x2d7;" horiz-adv-x="362" 
d="M33 251v34h296v-34h-296z" />
    <glyph glyph-name="breve" unicode="&#x2d8;" horiz-adv-x="535" 
d="M267 570q-51 0 -82.5 23t-47 57.5t-19.5 66.5l33 5q4 -28 17.5 -55t38 -45t60.5 -18q37 0 61 18t37.5 45t17.5 55l33 -5q-4 -32 -19.5 -66.5t-46.5 -57.5t-83 -23z" />
    <glyph glyph-name="dotaccent" unicode="&#x2d9;" horiz-adv-x="535" 
d="M267 596q-16 0 -27 11.5t-11 29.5t11 28.5t27 10.5q17 0 27.5 -10.5t10.5 -28.5t-10.5 -29.5t-27.5 -11.5z" />
    <glyph glyph-name="ring" unicode="&#x2da;" horiz-adv-x="535" 
d="M267 548q-42 0 -69.5 26.5t-27.5 68.5q0 43 27.5 69.5t69.5 26.5t69.5 -26.5t27.5 -69.5q0 -42 -27.5 -68.5t-69.5 -26.5zM267 574q28 0 46.5 19t18.5 50q0 32 -18.5 51t-46.5 19q-27 0 -46 -19t-19 -51q0 -31 19 -50t46 -19z" />
    <glyph glyph-name="ogonek" unicode="&#x2db;" horiz-adv-x="535" 
d="M281 -213q-38 0 -64 21t-26 67q0 25 10.5 48.5t27.5 44t35 36.5h41q-32 -27 -53.5 -59t-21.5 -64q0 -30 17.5 -43.5t38.5 -13.5q17 0 29 4.5t24 14.5l16 -27q-13 -11 -32 -20t-42 -9z" />
    <glyph glyph-name="tilde" unicode="&#x2dc;" horiz-adv-x="535" 
d="M343 579q-29 0 -48.5 14.5t-35.5 33.5t-31.5 33.5t-36.5 14.5q-27 0 -39.5 -26.5t-14.5 -66.5l-34 2q2 32 10.5 60.5t27 47t51.5 18.5q29 0 48 -14.5t35 -33.5t32 -33.5t37 -14.5q27 0 39 27.5t14 65.5l34 -2q-2 -31 -10.5 -59.5t-26.5 -47.5t-51 -19z" />
    <glyph glyph-name="hungarumlaut" unicode="&#x2dd;" horiz-adv-x="535" 
d="M171 570l93 154h42l3 -5l-106 -149h-32zM324 570l93 154h42l3 -5l-106 -149h-32z" />
    <glyph glyph-name="uni02DE" unicode="&#x2de;" horiz-adv-x="149" 
d="M106 194q-22 0 -40 10.5t-29 35t-11 65.5v22l-117 -45v38l142 54l11 -6q-1 -14 -1.5 -23.5t-0.5 -19.5q0 -57 13.5 -76.5t38.5 -19.5q12 0 22 4.5t16 10.5l18 -28q-11 -7 -26 -14.5t-36 -7.5z" />
    <glyph glyph-name="uni02E0" unicode="&#x2e0;" horiz-adv-x="297" 
d="M128 424l-120 299h39l69 -185q8 -22 16.5 -41.5t15.5 -40.5h3q8 21 16 40.5t16 41.5l69 185h37l-118 -299h-43zM149 254q-32 0 -49 19t-17 49q0 24 12 51t34 67h40q23 -40 35 -67t12 -51q0 -30 -17 -49t-50 -19zM149 282q17 0 24.5 11t7.5 27q0 19 -8 41.5t-22 47.5h-3
q-13 -25 -22 -48.5t-9 -40.5q0 -16 7.5 -27t24.5 -11z" />
    <glyph glyph-name="uni02E1" unicode="&#x2e1;" horiz-adv-x="162" 
d="M106 398q-26 0 -37 15.5t-11 45.5v419h37v-425q0 -12 4.5 -17t11.5 -5q3 0 6.5 0.5t7.5 1.5l7 -31q-5 -1 -11 -2.5t-15 -1.5z" />
    <glyph glyph-name="uni02E2" unicode="&#x2e2;" horiz-adv-x="275" 
d="M144 398q-37 0 -68 13t-55 31l21 27q22 -16 46.5 -27.5t55.5 -11.5q33 0 51.5 17t18.5 40q0 28 -24 41.5t-53 23.5q-23 9 -46 20t-38.5 29t-15.5 46q0 32 26.5 58t75.5 26q31 0 55.5 -9t43.5 -24l-22 -27q-18 14 -34.5 21t-42.5 7q-32 0 -48 -15.5t-16 -34.5
q0 -26 23 -38.5t52 -24.5q24 -9 47.5 -19.5t39 -27.5t15.5 -47q0 -41 -30.5 -67.5t-77.5 -26.5z" />
    <glyph glyph-name="uni02E3" unicode="&#x2e3;" horiz-adv-x="283" 
d="M8 406l111 166l-101 151h43l49 -74l33 -52h4l31 52l46 74h42l-100 -154l107 -163h-43l-51 80l-37 57h-4l-38 -57l-51 -80h-41z" />
    <glyph glyph-name="uni02E4" unicode="&#x2e4;" horiz-adv-x="279" 
d="M136 406v196q-51 33 -85 68.5t-34 91.5q0 60 38.5 92t95.5 32q44 0 74.5 -17.5t47.5 -38.5l-20 -21q-18 19 -42.5 31.5t-58.5 12.5q-45 0 -70.5 -24.5t-25.5 -65.5q0 -45 28.5 -77.5t88.5 -63.5v-216h-37z" />
    <glyph glyph-name="uni207C" unicode="&#x207c;" horiz-adv-x="362" 
d="M33 668v34h296v-34h-296zM33 506v34h296v-34h-296z" />
    <glyph glyph-name="uni207C" unicode="&#x2ed;" horiz-adv-x="362" 
d="M33 668v34h296v-34h-296zM33 506v34h296v-34h-296z" />
    <glyph glyph-name="gravecomb" unicode="&#x300;" 
d="M32 570l-152 149l3 5h52l137 -154h-40z" />
    <glyph glyph-name="acutecomb" unicode="&#x301;" 
d="M-72 570l137 154h52l3 -5l-152 -149h-40z" />
    <glyph glyph-name="uni0302" unicode="&#x302;" 
d="M-156 570l139 154h34l139 -154h-40l-114 112h-4l-114 -112h-40z" />
    <glyph glyph-name="tildecomb" unicode="&#x303;" 
d="M76 579q-29 0 -48.5 14.5t-35.5 33.5t-31.5 33.5t-36.5 14.5q-27 0 -39.5 -26.5t-14.5 -66.5l-34 2q2 32 10.5 60.5t27 47t51.5 18.5q29 0 48 -14.5t35 -33.5t32 -33.5t37 -14.5q27 0 39 27.5t14 65.5l34 -2q-2 -31 -10.5 -59.5t-26.5 -47.5t-51 -19z" />
    <glyph glyph-name="uni0304" unicode="&#x304;" 
d="M-123 606v36h246v-36h-246z" />
    <glyph glyph-name="uni0305" unicode="&#x305;" 
d="M-123 606v36h246v-36h-246z" />
    <glyph glyph-name="uni0306" unicode="&#x306;" 
d="M0 570q-51 0 -82.5 23t-47 57.5t-19.5 66.5l33 5q4 -28 17.5 -55t38 -45t60.5 -18q37 0 61 18t37.5 45t17.5 55l33 -5q-4 -32 -19.5 -66.5t-46.5 -57.5t-83 -23z" />
    <glyph glyph-name="uni0307" unicode="&#x307;" 
d="M0 596q-16 0 -27 11.5t-11 29.5t11 28.5t27 10.5q17 0 27.5 -10.5t10.5 -28.5t-10.5 -29.5t-27.5 -11.5z" />
    <glyph glyph-name="uni0308" unicode="&#x308;" 
d="M-89 598q-15 0 -26 11t-11 26q0 16 11 26.5t26 10.5q16 0 26.5 -10.5t10.5 -26.5q0 -15 -10.5 -26t-26.5 -11zM89 598q-15 0 -26 11t-11 26q0 16 11 26.5t26 10.5q16 0 26.5 -10.5t10.5 -26.5q0 -15 -10.5 -26t-26.5 -11z" />
    <glyph glyph-name="hookabovecomb" unicode="&#x309;" 
d="M-25 559l-8 28q29 8 46 27t17 43q0 25 -21.5 38t-63.5 14l3 33q33 -1 61 -9t44.5 -25.5t16.5 -44.5q0 -29 -13.5 -50t-35 -34.5t-46.5 -19.5z" />
    <glyph glyph-name="uni030A" unicode="&#x30a;" 
d="M0 548q-42 0 -69.5 26.5t-27.5 68.5q0 43 27.5 69.5t69.5 26.5t69.5 -26.5t27.5 -69.5q0 -42 -27.5 -68.5t-69.5 -26.5zM0 574q28 0 46.5 19t18.5 50q0 32 -18.5 51t-46.5 19q-27 0 -46 -19t-19 -51q0 -31 19 -50t46 -19z" />
    <glyph glyph-name="uni030B" unicode="&#x30b;" 
d="M-96 570l93 154h42l3 -5l-106 -149h-32zM57 570l93 154h42l3 -5l-106 -149h-32z" />
    <glyph glyph-name="uni030C" unicode="&#x30c;" 
d="M-17 570l-139 154h40l114 -112h4l114 112h40l-139 -154h-34z" />
    <glyph glyph-name="uni030D" unicode="&#x30d;" 
d="M-15 565l-6 170h42l-6 -170h-30z" />
    <glyph glyph-name="uni030F" unicode="&#x30f;" 
d="M-89 570l-106 149l3 6h42l93 -155h-32zM64 570l-106 149l3 6h42l93 -155h-32z" />
    <glyph glyph-name="uni0310" unicode="&#x310;" 
d="M0 570q-51 0 -83 23.5t-47.5 57.5t-19.5 67l32 5q4 -29 18 -56.5t39 -45.5t61 -18q37 0 61.5 18t38.5 45.5t18 56.5l32 -5q-4 -33 -19.5 -67t-47 -57.5t-83.5 -23.5zM0 720q-15 0 -26 11.5t-11 28.5t11 27.5t26 10.5q16 0 26.5 -10.5t10.5 -27.5t-10.5 -28.5t-26.5 -11.5
z" />
    <glyph glyph-name="uni0311" unicode="&#x311;" 
d="M-116 569l-33 6q4 32 19.5 66.5t47 57.5t82.5 23q52 0 83 -23t46.5 -57.5t19.5 -66.5l-33 -6q-4 29 -17.5 56t-37.5 45t-61 18q-36 0 -60.5 -18t-38 -45t-17.5 -56z" />
    <glyph glyph-name="uni0312" unicode="&#x312;" 
d="M4 557q-24 0 -39.5 17.5t-15.5 45.5q0 33 17.5 63t57.5 50l16 -26q-32 -16 -44 -36.5t-12 -52.5q5 5 12.5 8t15.5 3q12 0 23.5 -9t11.5 -25q0 -19 -12.5 -28.5t-30.5 -9.5z" />
    <glyph glyph-name="uni0313" unicode="&#x313;" 
d="M-24 557l-16 26q32 16 44 37t12 51q-4 -4 -11.5 -7t-16.5 -3q-11 0 -23 9t-12 25q0 18 12.5 28t30.5 10q25 0 40 -17.5t15 -45.5q0 -33 -17 -63t-58 -50z" />
    <glyph glyph-name="uni0315" unicode="&#x315;" 
d="M-24 557l-16 26q32 16 44 37t12 51q-4 -4 -11.5 -7t-16.5 -3q-11 0 -23 9t-12 25q0 18 12.5 28t30.5 10q25 0 40 -17.5t15 -45.5q0 -33 -17 -63t-58 -50z" />
    <glyph glyph-name="uni0318" unicode="&#x318;" 
d="M43 -244v75h-112v33h112v75h34v-183h-34z" />
    <glyph glyph-name="uni0319" unicode="&#x319;" 
d="M-77 -244v183h34v-75h112v-33h-112v-75h-34z" />
    <glyph glyph-name="uni031A" unicode="&#x31a;" 
d="M43 572v103h-112v33h146v-136h-34z" />
    <glyph glyph-name="uni031B" unicode="&#x31b;" 
d="M-2 438l-6 30q48 8 71 31.5t23 56.5q0 15 -3 27t-11 28l38 20q9 -20 14 -35.5t5 -36.5q0 -34 -17 -59t-46.5 -40.5t-67.5 -21.5z" />
    <glyph glyph-name="uni031C" unicode="&#x31c;" 
d="M60 -257q-58 -2 -89.5 23.5t-31.5 71.5t31.5 71.5t89.5 23.5v-26q-44 0 -64.5 -19t-20.5 -50q0 -32 20.5 -51t64.5 -18v-26z" />
    <glyph glyph-name="uni031D" unicode="&#x31d;" 
d="M-89 -200v33h72v106h34v-106h72v-33h-178z" />
    <glyph glyph-name="uni031E" unicode="&#x31e;" 
d="M-17 -244v106h-72v33h178v-33h-72v-106h-34z" />
    <glyph glyph-name="uni031F" unicode="&#x31f;" 
d="M-17 -244v75h-72v33h72v75h34v-75h72v-33h-72v-75h-34z" />
    <glyph glyph-name="uni0320" unicode="&#x320;" 
d="M-89 -169v33h178v-33h-178z" />
    <glyph glyph-name="dotbelowcomb" unicode="&#x323;" 
d="M0 -195q-16 0 -27 11.5t-11 29.5t11 28.5t27 10.5q17 0 27.5 -10.5t10.5 -28.5t-10.5 -29.5t-27.5 -11.5z" />
    <glyph glyph-name="uni0324" unicode="&#x324;" 
d="M-89 -192q-15 0 -26 11t-11 26q0 16 11 26.5t26 10.5q16 0 26.5 -10.5t10.5 -26.5q0 -15 -10.5 -26t-26.5 -11zM89 -192q-15 0 -26 11t-11 26q0 16 11 26.5t26 10.5q16 0 26.5 -10.5t10.5 -26.5q0 -15 -10.5 -26t-26.5 -11z" />
    <glyph glyph-name="uni0325" unicode="&#x325;" 
d="M0 -258q-42 0 -69.5 26.5t-27.5 68.5q0 43 27.5 69.5t69.5 26.5t69.5 -26.5t27.5 -69.5q0 -42 -27.5 -68.5t-69.5 -26.5zM0 -232q28 0 46.5 19t18.5 50q0 32 -18.5 51t-46.5 19q-27 0 -46 -19t-19 -51q0 -31 19 -50t46 -19z" />
    <glyph glyph-name="uni0326" unicode="&#x326;" 
d="M-77 -219l-7 30q65 5 89 18t24 34q0 23 -20.5 33.5t-56.5 13.5l13 29q57 -9 80 -25t23 -48q0 -39 -37 -59.5t-108 -25.5z" />
    <glyph glyph-name="uni0327" unicode="&#x327;" 
d="M-77 -219l-7 30q65 5 89 18t24 35t-18.5 33.5t-59.5 17.5l41 87h35l-30 -67q33 -8 52 -23.5t19 -45.5q0 -39 -37 -59.5t-108 -25.5z" />
    <glyph glyph-name="uni0328" unicode="&#x328;" 
d="M14 -213q-38 0 -64 21t-26 67q0 25 10.5 48.5t27.5 44t35 36.5h41q-32 -27 -53.5 -59t-21.5 -64q0 -30 17.5 -43.5t38.5 -13.5q17 0 29 4.5t24 14.5l16 -27q-13 -11 -32 -20t-42 -9z" />
    <glyph glyph-name="uni0329" unicode="&#x329;" 
d="M-21 -270l6 195h30l6 -195h-42z" />
    <glyph glyph-name="uni032A" unicode="&#x32a;" 
d="M-117 -229v144h234v-144h-31v111h-172v-111h-31z" />
    <glyph glyph-name="uni032C" unicode="&#x32c;" 
d="M-17 -225l-139 154h40l114 -112h4l114 112h40l-139 -154h-34z" />
    <glyph glyph-name="uni032E" unicode="&#x32e;" 
d="M0 -231q-51 0 -82.5 23t-47 57.5t-19.5 66.5l33 5q4 -28 17.5 -55t38 -45t60.5 -18q37 0 61 18t37.5 45t17.5 55l33 -5q-4 -32 -19.5 -66.5t-46.5 -57.5t-83 -23z" />
    <glyph glyph-name="uni032F" unicode="&#x32f;" 
d="M-116 -232l-33 6q4 32 19.5 66.5t47 57.5t82.5 23q52 0 83 -23t46.5 -57.5t19.5 -66.5l-33 -6q-4 29 -17.5 56t-37.5 45t-61 18q-36 0 -60.5 -18t-38 -45t-17.5 -56z" />
    <glyph glyph-name="uni0330" unicode="&#x330;" 
d="M76 -221q-29 0 -48.5 14.5t-35.5 33.5t-31.5 33.5t-36.5 14.5q-27 0 -39.5 -26.5t-14.5 -66.5l-34 2q2 32 10.5 60.5t27 47t51.5 18.5q29 0 48 -14.5t35 -33.5t32 -33.5t37 -14.5q27 0 39 27.5t14 65.5l34 -2q-2 -31 -10.5 -59.5t-26.5 -47.5t-51 -19z" />
    <glyph glyph-name="uni0331" unicode="&#x331;" 
d="M-123 -163v36h246v-36h-246z" />
    <glyph glyph-name="uni0332" unicode="&#x332;" 
d="M-280 -163v36h560v-36h-560z" />
    <glyph glyph-name="uni0334" unicode="&#x334;" 
d="M82 193q-30 0 -51.5 14.5t-38.5 33.5t-34 33t-39 14q-26 0 -38.5 -26.5t-14.5 -65.5l-34 4q2 31 10 59t26.5 46.5t50.5 18.5q30 0 51 -14.5t38 -33.5t34 -33.5t39 -14.5q27 0 39.5 27.5t13.5 64.5l34 -4q-2 -30 -10 -58t-26 -46.5t-50 -18.5z" />
    <glyph glyph-name="uni0337" unicode="&#x337;" 
d="M-463 -22l-26 21l417 502l26 -21z" />
    <glyph glyph-name="uni0338" unicode="&#x338;" 
d="M-568 -23l-29 22l511 683l29 -22z" />
    <glyph glyph-name="uni0339" unicode="&#x339;" 
d="M-60 -257v26q44 -1 64.5 18t20.5 51q0 31 -20.5 50t-64.5 19v26q59 2 90 -23.5t31 -71.5t-31 -71.5t-90 -23.5z" />
    <glyph glyph-name="uni033A" unicode="&#x33a;" 
d="M-117 -232v144h31v-110h172v110h31v-144h-234z" />
    <glyph glyph-name="uni033B" unicode="&#x33b;" 
d="M-117 -236v152h234v-152h-234zM-86 -204h172v89h-172v-89z" />
    <glyph glyph-name="uni033C" unicode="&#x33c;" 
d="M-156 -224q-1 77 22.5 109t62.5 32q24 0 44 -13t26 -47h2q6 34 26 47t44 13q40 0 63 -32t22 -109l-32 -3q0 68 -15 90t-40 22t-38.5 -24t-13.5 -71v-16h-34v16q0 47 -13 71t-39 24q-25 0 -40 -22t-15 -90z" />
    <glyph glyph-name="uni033D" unicode="&#x33d;" 
d="M-51 564l-24 23l51 51l-51 51l24 24l51 -51l51 51l24 -24l-51 -51l51 -51l-24 -23l-51 51z" />
    <glyph glyph-name="uni0340" unicode="&#x340;" 
d="M0 565l-59 166l3 5h47l43 -171h-34z" />
    <glyph glyph-name="uni0342" unicode="&#x342;" 
d="M76 579q-29 0 -48.5 14.5t-35.5 33.5t-31.5 33.5t-36.5 14.5q-27 0 -39.5 -26.5t-14.5 -66.5l-34 2q2 32 10.5 60.5t27 47t51.5 18.5q29 0 48 -14.5t35 -33.5t32 -33.5t37 -14.5q27 0 39 27.5t14 65.5l34 -2q-2 -31 -10.5 -59.5t-26.5 -47.5t-51 -19z" />
    <glyph glyph-name="uni0343" unicode="&#x343;" 
d="M-25 559l-8 28q29 8 46 27t17 43q0 25 -21.5 38t-63.5 14l3 33q33 -1 61 -9t44.5 -25.5t16.5 -44.5q0 -29 -13.5 -50t-35 -34.5t-46.5 -19.5z" />
    <glyph glyph-name="uni0344" unicode="&#x344;" 
d="M-103 600q-15 0 -24.5 10t-9.5 24q0 16 9.5 25.5t24.5 9.5q16 0 25.5 -9.5t9.5 -25.5q0 -14 -9.5 -24t-25.5 -10zM103 600q-15 0 -25 10t-10 24q0 16 10 25.5t25 9.5t24.5 -9.5t9.5 -25.5q0 -14 -9.5 -24t-24.5 -10zM-33 561l43 175h42l3 -5l-59 -170h-29z" />
    <glyph glyph-name="uni0345" unicode="&#x345;" 
d="M38 -191q-27 0 -42 17t-15 54v54h39q-1 -13 -1.5 -30t-0.5 -30q0 -15 8 -22.5t18 -7.5q4 0 8.5 0.5t15.5 3.5l7 -33q-9 -3 -16 -4.5t-21 -1.5z" />
    <glyph glyph-name="uni034F" unicode="&#x34f;" 
 />
    <glyph glyph-name="uni0357" unicode="&#x357;" 
d="M-60 549v26q44 -1 64.5 18t20.5 51q0 31 -20.5 50t-64.5 19v26q59 2 90 -23.5t31 -71.5t-31 -71.5t-90 -23.5z" />
    <glyph glyph-name="uni0358" unicode="&#x358;" 
d="M0 596q-16 0 -27 11.5t-11 29.5t11 28.5t27 10.5q17 0 27.5 -10.5t10.5 -28.5t-10.5 -29.5t-27.5 -11.5z" />
    <glyph glyph-name="uni035C" unicode="&#x35c;" 
d="M0 -234q-131 0 -242 34t-211 96l16 25q63 -39 134.5 -65.5t148 -40t154.5 -13.5t154.5 13.5t148 40t134.5 65.5l16 -25q-100 -62 -211 -96t-242 -34z" />
    <glyph glyph-name="uni035E" unicode="&#x35e;" 
d="M-426 607v35h852v-35h-852z" />
    <glyph glyph-name="uni035F" unicode="&#x35f;" 
d="M-426 -159v35h852v-35h-852z" />
    <glyph glyph-name="uni0361" unicode="&#x361;" 
d="M-437 559l-16 26q100 62 211 95.5t242 33.5t242 -33.5t211 -95.5l-16 -26q-63 39 -134.5 65.5t-148 40t-154.5 13.5t-154.5 -13.5t-148 -40t-134.5 -65.5z" />
    <glyph glyph-name="uni0374" unicode="&#x374;" horiz-adv-x="219" 
d="M82 485l23 208h43l-10 -72l-27 -136h-29z" />
    <glyph glyph-name="uni0375" unicode="&#x375;" horiz-adv-x="219" 
d="M71 0l10 72l27 136h29l-23 -208h-43z" />
    <glyph glyph-name="uni037A" unicode="&#x37a;" horiz-adv-x="535" 
d="M314 -191q-27 0 -42 17t-15 54v54h39q-1 -13 -1.5 -30t-0.5 -30q0 -15 8 -22.5t18 -7.5q4 0 8.5 0.5t15.5 3.5l7 -33q-9 -3 -16 -4.5t-21 -1.5z" />
    <glyph glyph-name="uni037E" unicode="&#x37e;" horiz-adv-x="219" 
d="M110 370q-16 0 -29.5 12t-13.5 33q0 22 13.5 34t29.5 12q17 0 29.5 -12t12.5 -34q0 -21 -12.5 -33t-29.5 -12zM62 -155l-14 30q35 18 56 50t21 74l-13 60l36 -47q-7 -10 -16 -13.5t-19 -3.5q-17 0 -29.5 10.5t-12.5 31.5t13.5 31.5t29.5 10.5q23 0 37 -19t14 -52
q0 -55 -29 -97t-74 -66z" />
    <glyph glyph-name="tonos" unicode="&#x384;" horiz-adv-x="535" 
d="M233 561l43 175h47l3 -5l-59 -170h-34z" />
    <glyph glyph-name="dieresistonos" unicode="&#x385;" horiz-adv-x="535" 
d="M173 600q-15 0 -24.5 10t-9.5 24q0 16 9.5 25.5t24.5 9.5q16 0 25.5 -9.5t9.5 -25.5q0 -14 -9.5 -24t-25.5 -10zM379 600q-15 0 -25 10t-10 24q0 16 10 25.5t25 9.5t24.5 -9.5t9.5 -25.5q0 -14 -9.5 -24t-24.5 -10zM243 561l43 175h42l3 -5l-59 -170h-29z" />
    <glyph glyph-name="Alphatonos" unicode="&#x386;" horiz-adv-x="534" 
d="M16 0l232 659h46l232 -659h-48l-132 388q-20 59 -38 113.5t-35 114.5h-4q-17 -60 -35 -114.5t-38 -113.5l-134 -388h-46zM122 226v39h295v-39h-295zM27 445l33 215h44l3 -5l-47 -210h-33z" />
    <glyph glyph-name="anoteleia" unicode="&#x387;" horiz-adv-x="219" 
d="M110 370q-16 0 -29.5 12t-13.5 33q0 22 13.5 34t29.5 12q17 0 29.5 -12t12.5 -34q0 -21 -12.5 -33t-29.5 -12z" />
    <glyph glyph-name="Epsilontonos" unicode="&#x388;" horiz-adv-x="567" 
d="M149 0v659h361v-40h-315v-249h264v-40h-264v-290h325v-40h-371zM-18 445l33 215h44l3 -5l-47 -210h-33z" />
    <glyph glyph-name="Etatonos" unicode="&#x389;" horiz-adv-x="691" 
d="M149 0v659h46v-289h353v289h46v-659h-46v330h-353v-330h-46zM-18 445l33 215h44l3 -5l-47 -210h-33z" />
    <glyph glyph-name="Iotatonos" unicode="&#x38a;" horiz-adv-x="292" 
d="M149 0v659h46v-659h-46zM-18 445l33 215h44l3 -5l-47 -210h-33z" />
    <glyph glyph-name="Omicrontonos" unicode="&#x38c;" horiz-adv-x="702" 
d="M367 -12q-79 0 -140 42.5t-96 119.5t-35 182q0 104 35 180.5t96 117.5t140 41t140.5 -41t96.5 -117.5t35 -180.5q0 -105 -35 -182t-96.5 -119.5t-140.5 -42.5zM367 30q67 0 117 37.5t78 105t28 159.5q0 91 -28 157.5t-78 103t-117 36.5t-117 -36.5t-78 -103t-28 -157.5
q0 -92 28 -159.5t78 -105t117 -37.5zM-18 445l33 215h44l3 -5l-47 -210h-33z" />
    <glyph glyph-name="Upsilontonos" unicode="&#x38e;" horiz-adv-x="540" 
d="M293 0v267l-197 392h49l100 -206q17 -36 34 -71t35 -72h4q20 37 38 72t34 71l100 206h47l-198 -392v-267h-46zM-18 445l33 215h44l3 -5l-47 -210h-33z" />
    <glyph glyph-name="Omegatonos" unicode="&#x38f;" horiz-adv-x="699" 
d="M86 0v39h143v4q-32 31 -62 73.5t-49.5 100t-19.5 130.5q0 93 33.5 166t94.5 115.5t144 42.5q82 0 143 -42.5t94.5 -115.5t33.5 -166q0 -73 -19.5 -130.5t-49.5 -100t-62 -73.5v-4h143v-39h-213v34q40 28 75 71t56.5 103t21.5 139q0 80 -26.5 144t-76.5 101t-120 37
q-71 0 -121 -37t-76.5 -101t-26.5 -144q0 -79 21.5 -139t56.5 -103t75 -71v-34h-213zM-18 445l33 215h44l3 -5l-47 -210h-33z" />
    <glyph glyph-name="iotadieresistonos" unicode="&#x390;" horiz-adv-x="239" 
d="M157 -8q-22 0 -36 8.5t-21.5 26.5t-7.5 46v407h45q-2 -70 -2.5 -139.5t-0.5 -137.5v-136q0 -18 8 -27t21 -9q7 0 13.5 1.5t15.5 4.5l7 -36q-8 -4 -18.5 -6.5t-23.5 -2.5zM10 600q-15 0 -24.5 10t-9.5 24q0 16 9.5 25.5t24.5 9.5q16 0 25.5 -9.5t9.5 -25.5q0 -14 -9.5 -24
t-25.5 -10zM216 600q-15 0 -25 10t-10 24q0 16 10 25.5t25 9.5t24.5 -9.5t9.5 -25.5q0 -14 -9.5 -24t-24.5 -10zM80 561l43 175h42l3 -5l-59 -170h-29z" />
    <glyph glyph-name="Alpha" unicode="&#x391;" horiz-adv-x="526" 
d="M8 0l232 659h46l232 -659h-48l-132 388q-20 59 -38 113.5t-35 114.5h-4q-17 -60 -35 -114.5t-38 -113.5l-134 -388h-46zM114 226v39h295v-39h-295z" />
    <glyph glyph-name="Beta" unicode="&#x392;" horiz-adv-x="578" 
d="M97 0v659h178q67 0 115.5 -17t75.5 -52.5t27 -90.5q0 -52 -26 -90.5t-76 -53.5v-4q64 -10 103 -50t39 -108q0 -64 -30 -107t-85 -64.5t-130 -21.5h-191zM143 369h114q101 0 145.5 34t44.5 91q0 70 -47 98.5t-138 28.5h-119v-252zM143 38h133q99 0 155.5 37t56.5 116
q0 72 -55 106t-157 34h-133v-293z" />
    <glyph glyph-name="Gamma" unicode="&#x393;" horiz-adv-x="485" 
d="M97 0v659h359v-40h-313v-619h-46z" />
    <glyph glyph-name="Delta" unicode="&#x2206;" horiz-adv-x="557" 
d="M27 0v27l228 632h48l227 -632v-27h-503zM78 40h401l-122 346l-76 221h-4l-77 -221z" />
    <glyph glyph-name="Delta" unicode="&#x394;" horiz-adv-x="557" 
d="M27 0v27l228 632h48l227 -632v-27h-503zM78 40h401l-122 346l-76 221h-4l-77 -221z" />
    <glyph glyph-name="Epsilon" unicode="&#x395;" horiz-adv-x="515" 
d="M97 0v659h361v-40h-315v-249h264v-40h-264v-290h325v-40h-371z" />
    <glyph glyph-name="Zeta" unicode="&#x396;" horiz-adv-x="538" 
d="M50 0v27l379 592h-346v40h404v-27l-380 -592h383v-40h-440z" />
    <glyph glyph-name="Eta" unicode="&#x397;" horiz-adv-x="639" 
d="M97 0v659h46v-289h353v289h46v-659h-46v330h-353v-330h-46z" />
    <glyph glyph-name="Theta" unicode="&#x398;" horiz-adv-x="652" 
d="M205 330v40h242v-40h-242zM326 -12q-79 0 -140 42.5t-96 119.5t-35 182q0 104 35 180.5t96 117.5t140 41t140.5 -41t96.5 -117.5t35 -180.5q0 -105 -35 -182t-96.5 -119.5t-140.5 -42.5zM326 30q67 0 117 37.5t78 105t28 159.5q0 91 -28 157.5t-78 103t-117 36.5
t-117 -36.5t-78 -103t-28 -157.5q0 -92 28 -159.5t78 -105t117 -37.5z" />
    <glyph glyph-name="Iota" unicode="&#x399;" horiz-adv-x="240" 
d="M97 0v659h46v-659h-46z" />
    <glyph glyph-name="Kappa" unicode="&#x39a;" horiz-adv-x="558" 
d="M97 0v659h46v-366h2l319 366h55l-210 -244l239 -415h-53l-218 380l-134 -153v-227h-46z" />
    <glyph glyph-name="Lambda" unicode="&#x39b;" horiz-adv-x="491" 
d="M4 0l216 659h49l218 -659h-49l-122 385q-19 61 -34.5 111t-35.5 110h-4q-20 -60 -35 -110t-34 -111l-122 -385h-47z" />
    <glyph glyph-name="Mu" unicode="&#x39c;" horiz-adv-x="706" 
d="M97 0v659h67l137 -387l26 -72t25 -74h4q13 38 25 74l24 72l137 387h67v-659h-45v433q0 27 1 58t2.5 63t2.5 59h-4l-51 -149l-142 -392h-41l-143 392l-51 149h-4q1 -27 2.5 -59t2.5 -63t1 -58v-433h-43z" />
    <glyph glyph-name="Nu" unicode="&#x39d;" horiz-adv-x="636" 
d="M97 0v659h50l276 -463q19 -33 38 -66.5t36 -66.5h4q-1 48 -3.5 96t-2.5 96v404h44v-659h-50l-276 463q-19 33 -38 67t-36 66h-4l4 -92t2 -95v-409h-44z" />
    <glyph glyph-name="Xi" unicode="&#x39e;" horiz-adv-x="510" 
d="M47 0v40h417v-40h-417zM125 330v40h260v-40h-260zM57 619v40h397v-40h-397z" />
    <glyph glyph-name="Omicron" unicode="&#x39f;" horiz-adv-x="652" 
d="M326 -12q-79 0 -140 42.5t-96 119.5t-35 182q0 104 35 180.5t96 117.5t140 41t140.5 -41t96.5 -117.5t35 -180.5q0 -105 -35 -182t-96.5 -119.5t-140.5 -42.5zM326 30q67 0 117 37.5t78 105t28 159.5q0 91 -28 157.5t-78 103t-117 36.5t-117 -36.5t-78 -103t-28 -157.5
q0 -92 28 -159.5t78 -105t117 -37.5z" />
    <glyph glyph-name="Pi" unicode="&#x3a0;" horiz-adv-x="634" 
d="M97 0v659h440v-659h-46v619h-348v-619h-46z" />
    <glyph glyph-name="Rho" unicode="&#x3a1;" horiz-adv-x="549" 
d="M97 0v659h166q75 0 128 -17.5t82 -58t29 -108.5q0 -64 -28 -106.5t-80.5 -64t-126.5 -21.5h-124v-283h-46zM143 322h113q101 0 150 36.5t49 116.5q0 83 -50.5 114t-152.5 31h-109v-298z" />
    <glyph glyph-name="Sigma" unicode="&#x3a3;" horiz-adv-x="531" 
d="M47 0v27l240 308l-235 297v27h410v-40h-350l223 -283l-227 -296h385v-40h-446z" />
    <glyph glyph-name="Tau" unicode="&#x3a4;" horiz-adv-x="524" 
d="M239 0v619h-210v40h466v-40h-210v-619h-46z" />
    <glyph glyph-name="Upsilon" unicode="&#x3a5;" horiz-adv-x="447" 
d="M200 0v267l-197 392h49l100 -206q17 -36 34 -71t35 -72h4q20 37 38 72t34 71l100 206h47l-198 -392v-267h-46z" />
    <glyph glyph-name="Phi" unicode="&#x3a6;" horiz-adv-x="695" 
d="M335 76q-87 0 -151.5 31.5t-100 89t-35.5 135.5t35.5 134t100 86.5t151.5 30.5h25q87 0 151.5 -30.5t100 -86.5t35.5 -134t-35.5 -135.5t-100 -89t-151.5 -31.5h-25zM334 114h27q73 0 127 27.5t83 76.5t29 114q0 64 -29 112t-83 74.5t-127 26.5h-27q-74 0 -127.5 -26.5
t-82.5 -74.5t-29 -112q0 -65 29 -114t82.5 -76.5t127.5 -27.5zM326 -22v703h43v-703h-43z" />
    <glyph glyph-name="Chi" unicode="&#x3a7;" horiz-adv-x="482" 
d="M17 0l198 341l-184 318h50l108 -194q14 -22 26 -42.5t28 -47.5h4q14 27 25 47.5t24 42.5l108 194h47l-184 -320l198 -339h-50l-115 202q-13 25 -28 50l-33 55h-4q-15 -30 -28.5 -55t-27.5 -50l-115 -202h-47z" />
    <glyph glyph-name="Psi" unicode="&#x3a8;" horiz-adv-x="668" 
d="M320 260q-79 0 -135 25t-85.5 77.5t-29.5 134.5v162h45v-161q0 -67 22.5 -111t68.5 -66t113 -22h30q68 0 113 22t67.5 66t22.5 111v161h46v-162q0 -82 -30 -134.5t-86 -77.5t-134 -25h-28zM311 0v659h45v-659h-45z" />
    <glyph glyph-name="Omega" unicode="&#x2126;" horiz-adv-x="659" 
d="M46 0v39h143v4q-32 31 -62 73.5t-49.5 100t-19.5 130.5q0 93 33.5 166t94.5 115.5t144 42.5q82 0 143 -42.5t94.5 -115.5t33.5 -166q0 -73 -19.5 -130.5t-49.5 -100t-62 -73.5v-4h143v-39h-213v34q40 28 75 71t56.5 103t21.5 139q0 80 -26.5 144t-76.5 101t-120 37
q-71 0 -121 -37t-76.5 -101t-26.5 -144q0 -79 21.5 -139t56.5 -103t75 -71v-34h-213z" />
    </font>
</defs>
</svg>
